<?xml version="1.0" encoding="utf-8" standalone="no"?>
<!DOCTYPE svg PUBLIC "-//W3C//DTD SVG 1.1//EN"
  "http://www.w3.org/Graphics/SVG/1.1/DTD/svg11.dtd">
<!-- Created with matplotlib (https://matplotlib.org/) -->
<svg height="270pt" version="1.1" viewBox="0 0 540 270" width="540pt" xmlns="http://www.w3.org/2000/svg" xmlns:xlink="http://www.w3.org/1999/xlink">
 <defs>
  <style type="text/css">
*{stroke-linecap:butt;stroke-linejoin:round;}
  </style>
 </defs>
 <g id="figure_1">
  <g id="patch_1">
   <path d="M 0 270 
L 540 270 
L 540 0 
L 0 0 
z
" style="fill:#ffffff;"/>
  </g>
  <g id="axes_1">
   <g id="patch_2">
    <path d="M 37.878 219.72199 
L 218.054572 219.72199 
L 218.054572 13.728 
L 37.878 13.728 
z
" style="fill:#eaeaf2;"/>
   </g>
   <g id="matplotlib.axis_1">
    <g id="xtick_1">
     <g id="line2d_1">
      <path clip-path="url(#p78937d5b2f)" d="M 46.067844 219.72199 
L 46.067844 13.728 
" style="fill:none;stroke:#ffffff;stroke-linecap:round;stroke-width:0.8;"/>
     </g>
     <g id="text_1">
      <!-- 30 -->
      <defs>
       <path d="M 40.578125 39.3125 
Q 47.65625 37.796875 51.625 33 
Q 55.609375 28.21875 55.609375 21.1875 
Q 55.609375 10.40625 48.1875 4.484375 
Q 40.765625 -1.421875 27.09375 -1.421875 
Q 22.515625 -1.421875 17.65625 -0.515625 
Q 12.796875 0.390625 7.625 2.203125 
L 7.625 11.71875 
Q 11.71875 9.328125 16.59375 8.109375 
Q 21.484375 6.890625 26.8125 6.890625 
Q 36.078125 6.890625 40.9375 10.546875 
Q 45.796875 14.203125 45.796875 21.1875 
Q 45.796875 27.640625 41.28125 31.265625 
Q 36.765625 34.90625 28.71875 34.90625 
L 20.21875 34.90625 
L 20.21875 43.015625 
L 29.109375 43.015625 
Q 36.375 43.015625 40.234375 45.921875 
Q 44.09375 48.828125 44.09375 54.296875 
Q 44.09375 59.90625 40.109375 62.90625 
Q 36.140625 65.921875 28.71875 65.921875 
Q 24.65625 65.921875 20.015625 65.03125 
Q 15.375 64.15625 9.8125 62.3125 
L 9.8125 71.09375 
Q 15.4375 72.65625 20.34375 73.4375 
Q 25.25 74.21875 29.59375 74.21875 
Q 40.828125 74.21875 47.359375 69.109375 
Q 53.90625 64.015625 53.90625 55.328125 
Q 53.90625 49.265625 50.4375 45.09375 
Q 46.96875 40.921875 40.578125 39.3125 
z
" id="DejaVuSans-51"/>
       <path d="M 31.78125 66.40625 
Q 24.171875 66.40625 20.328125 58.90625 
Q 16.5 51.421875 16.5 36.375 
Q 16.5 21.390625 20.328125 13.890625 
Q 24.171875 6.390625 31.78125 6.390625 
Q 39.453125 6.390625 43.28125 13.890625 
Q 47.125 21.390625 47.125 36.375 
Q 47.125 51.421875 43.28125 58.90625 
Q 39.453125 66.40625 31.78125 66.40625 
z
M 31.78125 74.21875 
Q 44.046875 74.21875 50.515625 64.515625 
Q 56.984375 54.828125 56.984375 36.375 
Q 56.984375 17.96875 50.515625 8.265625 
Q 44.046875 -1.421875 31.78125 -1.421875 
Q 19.53125 -1.421875 13.0625 8.265625 
Q 6.59375 17.96875 6.59375 36.375 
Q 6.59375 54.828125 13.0625 64.515625 
Q 19.53125 74.21875 31.78125 74.21875 
z
" id="DejaVuSans-48"/>
      </defs>
      <g style="fill:#262626;" transform="translate(43.825785 240.66833)rotate(-45)scale(0.088 -0.088)">
       <use xlink:href="#DejaVuSans-51"/>
       <use x="63.623047" xlink:href="#DejaVuSans-48"/>
      </g>
     </g>
    </g>
    <g id="xtick_2">
     <g id="line2d_2">
      <path clip-path="url(#p78937d5b2f)" d="M 78.827221 219.72199 
L 78.827221 13.728 
" style="fill:none;stroke:#ffffff;stroke-linecap:round;stroke-width:0.8;"/>
     </g>
     <g id="text_2">
      <!-- 45 -->
      <defs>
       <path d="M 37.796875 64.3125 
L 12.890625 25.390625 
L 37.796875 25.390625 
z
M 35.203125 72.90625 
L 47.609375 72.90625 
L 47.609375 25.390625 
L 58.015625 25.390625 
L 58.015625 17.1875 
L 47.609375 17.1875 
L 47.609375 0 
L 37.796875 0 
L 37.796875 17.1875 
L 4.890625 17.1875 
L 4.890625 26.703125 
z
" id="DejaVuSans-52"/>
       <path d="M 10.796875 72.90625 
L 49.515625 72.90625 
L 49.515625 64.59375 
L 19.828125 64.59375 
L 19.828125 46.734375 
Q 21.96875 47.46875 24.109375 47.828125 
Q 26.265625 48.1875 28.421875 48.1875 
Q 40.625 48.1875 47.75 41.5 
Q 54.890625 34.8125 54.890625 23.390625 
Q 54.890625 11.625 47.5625 5.09375 
Q 40.234375 -1.421875 26.90625 -1.421875 
Q 22.3125 -1.421875 17.546875 -0.640625 
Q 12.796875 0.140625 7.71875 1.703125 
L 7.71875 11.625 
Q 12.109375 9.234375 16.796875 8.0625 
Q 21.484375 6.890625 26.703125 6.890625 
Q 35.15625 6.890625 40.078125 11.328125 
Q 45.015625 15.765625 45.015625 23.390625 
Q 45.015625 31 40.078125 35.4375 
Q 35.15625 39.890625 26.703125 39.890625 
Q 22.75 39.890625 18.8125 39.015625 
Q 14.890625 38.140625 10.796875 36.28125 
z
" id="DejaVuSans-53"/>
      </defs>
      <g style="fill:#262626;" transform="translate(76.585162 240.66833)rotate(-45)scale(0.088 -0.088)">
       <use xlink:href="#DejaVuSans-52"/>
       <use x="63.623047" xlink:href="#DejaVuSans-53"/>
      </g>
     </g>
    </g>
    <g id="xtick_3">
     <g id="line2d_3">
      <path clip-path="url(#p78937d5b2f)" d="M 111.586598 219.72199 
L 111.586598 13.728 
" style="fill:none;stroke:#ffffff;stroke-linecap:round;stroke-width:0.8;"/>
     </g>
     <g id="text_3">
      <!-- 75 -->
      <defs>
       <path d="M 8.203125 72.90625 
L 55.078125 72.90625 
L 55.078125 68.703125 
L 28.609375 0 
L 18.3125 0 
L 43.21875 64.59375 
L 8.203125 64.59375 
z
" id="DejaVuSans-55"/>
      </defs>
      <g style="fill:#262626;" transform="translate(109.344539 240.66833)rotate(-45)scale(0.088 -0.088)">
       <use xlink:href="#DejaVuSans-55"/>
       <use x="63.623047" xlink:href="#DejaVuSans-53"/>
      </g>
     </g>
    </g>
    <g id="xtick_4">
     <g id="line2d_4">
      <path clip-path="url(#p78937d5b2f)" d="M 144.345974 219.72199 
L 144.345974 13.728 
" style="fill:none;stroke:#ffffff;stroke-linecap:round;stroke-width:0.8;"/>
     </g>
     <g id="text_4">
      <!-- 120 -->
      <defs>
       <path d="M 12.40625 8.296875 
L 28.515625 8.296875 
L 28.515625 63.921875 
L 10.984375 60.40625 
L 10.984375 69.390625 
L 28.421875 72.90625 
L 38.28125 72.90625 
L 38.28125 8.296875 
L 54.390625 8.296875 
L 54.390625 0 
L 12.40625 0 
z
" id="DejaVuSans-49"/>
       <path d="M 19.1875 8.296875 
L 53.609375 8.296875 
L 53.609375 0 
L 7.328125 0 
L 7.328125 8.296875 
Q 12.9375 14.109375 22.625 23.890625 
Q 32.328125 33.6875 34.8125 36.53125 
Q 39.546875 41.84375 41.421875 45.53125 
Q 43.3125 49.21875 43.3125 52.78125 
Q 43.3125 58.59375 39.234375 62.25 
Q 35.15625 65.921875 28.609375 65.921875 
Q 23.96875 65.921875 18.8125 64.3125 
Q 13.671875 62.703125 7.8125 59.421875 
L 7.8125 69.390625 
Q 13.765625 71.78125 18.9375 73 
Q 24.125 74.21875 28.421875 74.21875 
Q 39.75 74.21875 46.484375 68.546875 
Q 53.21875 62.890625 53.21875 53.421875 
Q 53.21875 48.921875 51.53125 44.890625 
Q 49.859375 40.875 45.40625 35.40625 
Q 44.1875 33.984375 37.640625 27.21875 
Q 31.109375 20.453125 19.1875 8.296875 
z
" id="DejaVuSans-50"/>
      </defs>
      <g style="fill:#262626;" transform="translate(140.12437 244.627421)rotate(-45)scale(0.088 -0.088)">
       <use xlink:href="#DejaVuSans-49"/>
       <use x="63.623047" xlink:href="#DejaVuSans-50"/>
       <use x="127.246094" xlink:href="#DejaVuSans-48"/>
      </g>
     </g>
    </g>
    <g id="xtick_5">
     <g id="line2d_5">
      <path clip-path="url(#p78937d5b2f)" d="M 177.105351 219.72199 
L 177.105351 13.728 
" style="fill:none;stroke:#ffffff;stroke-linecap:round;stroke-width:0.8;"/>
     </g>
     <g id="text_5">
      <!-- 180 -->
      <defs>
       <path d="M 31.78125 34.625 
Q 24.75 34.625 20.71875 30.859375 
Q 16.703125 27.09375 16.703125 20.515625 
Q 16.703125 13.921875 20.71875 10.15625 
Q 24.75 6.390625 31.78125 6.390625 
Q 38.8125 6.390625 42.859375 10.171875 
Q 46.921875 13.96875 46.921875 20.515625 
Q 46.921875 27.09375 42.890625 30.859375 
Q 38.875 34.625 31.78125 34.625 
z
M 21.921875 38.8125 
Q 15.578125 40.375 12.03125 44.71875 
Q 8.5 49.078125 8.5 55.328125 
Q 8.5 64.0625 14.71875 69.140625 
Q 20.953125 74.21875 31.78125 74.21875 
Q 42.671875 74.21875 48.875 69.140625 
Q 55.078125 64.0625 55.078125 55.328125 
Q 55.078125 49.078125 51.53125 44.71875 
Q 48 40.375 41.703125 38.8125 
Q 48.828125 37.15625 52.796875 32.3125 
Q 56.78125 27.484375 56.78125 20.515625 
Q 56.78125 9.90625 50.3125 4.234375 
Q 43.84375 -1.421875 31.78125 -1.421875 
Q 19.734375 -1.421875 13.25 4.234375 
Q 6.78125 9.90625 6.78125 20.515625 
Q 6.78125 27.484375 10.78125 32.3125 
Q 14.796875 37.15625 21.921875 38.8125 
z
M 18.3125 54.390625 
Q 18.3125 48.734375 21.84375 45.5625 
Q 25.390625 42.390625 31.78125 42.390625 
Q 38.140625 42.390625 41.71875 45.5625 
Q 45.3125 48.734375 45.3125 54.390625 
Q 45.3125 60.0625 41.71875 63.234375 
Q 38.140625 66.40625 31.78125 66.40625 
Q 25.390625 66.40625 21.84375 63.234375 
Q 18.3125 60.0625 18.3125 54.390625 
z
" id="DejaVuSans-56"/>
      </defs>
      <g style="fill:#262626;" transform="translate(172.883747 244.627421)rotate(-45)scale(0.088 -0.088)">
       <use xlink:href="#DejaVuSans-49"/>
       <use x="63.623047" xlink:href="#DejaVuSans-56"/>
       <use x="127.246094" xlink:href="#DejaVuSans-48"/>
      </g>
     </g>
    </g>
    <g id="xtick_6">
     <g id="line2d_6">
      <path clip-path="url(#p78937d5b2f)" d="M 209.864728 219.72199 
L 209.864728 13.728 
" style="fill:none;stroke:#ffffff;stroke-linecap:round;stroke-width:0.8;"/>
     </g>
     <g id="text_6">
      <!-- 480 -->
      <g style="fill:#262626;" transform="translate(205.643124 244.627421)rotate(-45)scale(0.088 -0.088)">
       <use xlink:href="#DejaVuSans-52"/>
       <use x="63.623047" xlink:href="#DejaVuSans-56"/>
       <use x="127.246094" xlink:href="#DejaVuSans-48"/>
      </g>
     </g>
    </g>
    <g id="text_7">
     <!-- training set duration (s) -->
     <defs>
      <path d="M 18.3125 70.21875 
L 18.3125 54.6875 
L 36.8125 54.6875 
L 36.8125 47.703125 
L 18.3125 47.703125 
L 18.3125 18.015625 
Q 18.3125 11.328125 20.140625 9.421875 
Q 21.96875 7.515625 27.59375 7.515625 
L 36.8125 7.515625 
L 36.8125 0 
L 27.59375 0 
Q 17.1875 0 13.234375 3.875 
Q 9.28125 7.765625 9.28125 18.015625 
L 9.28125 47.703125 
L 2.6875 47.703125 
L 2.6875 54.6875 
L 9.28125 54.6875 
L 9.28125 70.21875 
z
" id="DejaVuSans-116"/>
      <path d="M 41.109375 46.296875 
Q 39.59375 47.171875 37.8125 47.578125 
Q 36.03125 48 33.890625 48 
Q 26.265625 48 22.1875 43.046875 
Q 18.109375 38.09375 18.109375 28.8125 
L 18.109375 0 
L 9.078125 0 
L 9.078125 54.6875 
L 18.109375 54.6875 
L 18.109375 46.1875 
Q 20.953125 51.171875 25.484375 53.578125 
Q 30.03125 56 36.53125 56 
Q 37.453125 56 38.578125 55.875 
Q 39.703125 55.765625 41.0625 55.515625 
z
" id="DejaVuSans-114"/>
      <path d="M 34.28125 27.484375 
Q 23.390625 27.484375 19.1875 25 
Q 14.984375 22.515625 14.984375 16.5 
Q 14.984375 11.71875 18.140625 8.90625 
Q 21.296875 6.109375 26.703125 6.109375 
Q 34.1875 6.109375 38.703125 11.40625 
Q 43.21875 16.703125 43.21875 25.484375 
L 43.21875 27.484375 
z
M 52.203125 31.203125 
L 52.203125 0 
L 43.21875 0 
L 43.21875 8.296875 
Q 40.140625 3.328125 35.546875 0.953125 
Q 30.953125 -1.421875 24.3125 -1.421875 
Q 15.921875 -1.421875 10.953125 3.296875 
Q 6 8.015625 6 15.921875 
Q 6 25.140625 12.171875 29.828125 
Q 18.359375 34.515625 30.609375 34.515625 
L 43.21875 34.515625 
L 43.21875 35.40625 
Q 43.21875 41.609375 39.140625 45 
Q 35.0625 48.390625 27.6875 48.390625 
Q 23 48.390625 18.546875 47.265625 
Q 14.109375 46.140625 10.015625 43.890625 
L 10.015625 52.203125 
Q 14.9375 54.109375 19.578125 55.046875 
Q 24.21875 56 28.609375 56 
Q 40.484375 56 46.34375 49.84375 
Q 52.203125 43.703125 52.203125 31.203125 
z
" id="DejaVuSans-97"/>
      <path d="M 9.421875 54.6875 
L 18.40625 54.6875 
L 18.40625 0 
L 9.421875 0 
z
M 9.421875 75.984375 
L 18.40625 75.984375 
L 18.40625 64.59375 
L 9.421875 64.59375 
z
" id="DejaVuSans-105"/>
      <path d="M 54.890625 33.015625 
L 54.890625 0 
L 45.90625 0 
L 45.90625 32.71875 
Q 45.90625 40.484375 42.875 44.328125 
Q 39.84375 48.1875 33.796875 48.1875 
Q 26.515625 48.1875 22.3125 43.546875 
Q 18.109375 38.921875 18.109375 30.90625 
L 18.109375 0 
L 9.078125 0 
L 9.078125 54.6875 
L 18.109375 54.6875 
L 18.109375 46.1875 
Q 21.34375 51.125 25.703125 53.5625 
Q 30.078125 56 35.796875 56 
Q 45.21875 56 50.046875 50.171875 
Q 54.890625 44.34375 54.890625 33.015625 
z
" id="DejaVuSans-110"/>
      <path d="M 45.40625 27.984375 
Q 45.40625 37.75 41.375 43.109375 
Q 37.359375 48.484375 30.078125 48.484375 
Q 22.859375 48.484375 18.828125 43.109375 
Q 14.796875 37.75 14.796875 27.984375 
Q 14.796875 18.265625 18.828125 12.890625 
Q 22.859375 7.515625 30.078125 7.515625 
Q 37.359375 7.515625 41.375 12.890625 
Q 45.40625 18.265625 45.40625 27.984375 
z
M 54.390625 6.78125 
Q 54.390625 -7.171875 48.1875 -13.984375 
Q 42 -20.796875 29.203125 -20.796875 
Q 24.46875 -20.796875 20.265625 -20.09375 
Q 16.0625 -19.390625 12.109375 -17.921875 
L 12.109375 -9.1875 
Q 16.0625 -11.328125 19.921875 -12.34375 
Q 23.78125 -13.375 27.78125 -13.375 
Q 36.625 -13.375 41.015625 -8.765625 
Q 45.40625 -4.15625 45.40625 5.171875 
L 45.40625 9.625 
Q 42.625 4.78125 38.28125 2.390625 
Q 33.9375 0 27.875 0 
Q 17.828125 0 11.671875 7.65625 
Q 5.515625 15.328125 5.515625 27.984375 
Q 5.515625 40.671875 11.671875 48.328125 
Q 17.828125 56 27.875 56 
Q 33.9375 56 38.28125 53.609375 
Q 42.625 51.21875 45.40625 46.390625 
L 45.40625 54.6875 
L 54.390625 54.6875 
z
" id="DejaVuSans-103"/>
      <path id="DejaVuSans-32"/>
      <path d="M 44.28125 53.078125 
L 44.28125 44.578125 
Q 40.484375 46.53125 36.375 47.5 
Q 32.28125 48.484375 27.875 48.484375 
Q 21.1875 48.484375 17.84375 46.4375 
Q 14.5 44.390625 14.5 40.28125 
Q 14.5 37.15625 16.890625 35.375 
Q 19.28125 33.59375 26.515625 31.984375 
L 29.59375 31.296875 
Q 39.15625 29.25 43.1875 25.515625 
Q 47.21875 21.78125 47.21875 15.09375 
Q 47.21875 7.46875 41.1875 3.015625 
Q 35.15625 -1.421875 24.609375 -1.421875 
Q 20.21875 -1.421875 15.453125 -0.5625 
Q 10.6875 0.296875 5.421875 2 
L 5.421875 11.28125 
Q 10.40625 8.6875 15.234375 7.390625 
Q 20.0625 6.109375 24.8125 6.109375 
Q 31.15625 6.109375 34.5625 8.28125 
Q 37.984375 10.453125 37.984375 14.40625 
Q 37.984375 18.0625 35.515625 20.015625 
Q 33.0625 21.96875 24.703125 23.78125 
L 21.578125 24.515625 
Q 13.234375 26.265625 9.515625 29.90625 
Q 5.8125 33.546875 5.8125 39.890625 
Q 5.8125 47.609375 11.28125 51.796875 
Q 16.75 56 26.8125 56 
Q 31.78125 56 36.171875 55.265625 
Q 40.578125 54.546875 44.28125 53.078125 
z
" id="DejaVuSans-115"/>
      <path d="M 56.203125 29.59375 
L 56.203125 25.203125 
L 14.890625 25.203125 
Q 15.484375 15.921875 20.484375 11.0625 
Q 25.484375 6.203125 34.421875 6.203125 
Q 39.59375 6.203125 44.453125 7.46875 
Q 49.3125 8.734375 54.109375 11.28125 
L 54.109375 2.78125 
Q 49.265625 0.734375 44.1875 -0.34375 
Q 39.109375 -1.421875 33.890625 -1.421875 
Q 20.796875 -1.421875 13.15625 6.1875 
Q 5.515625 13.8125 5.515625 26.8125 
Q 5.515625 40.234375 12.765625 48.109375 
Q 20.015625 56 32.328125 56 
Q 43.359375 56 49.78125 48.890625 
Q 56.203125 41.796875 56.203125 29.59375 
z
M 47.21875 32.234375 
Q 47.125 39.59375 43.09375 43.984375 
Q 39.0625 48.390625 32.421875 48.390625 
Q 24.90625 48.390625 20.390625 44.140625 
Q 15.875 39.890625 15.1875 32.171875 
z
" id="DejaVuSans-101"/>
      <path d="M 45.40625 46.390625 
L 45.40625 75.984375 
L 54.390625 75.984375 
L 54.390625 0 
L 45.40625 0 
L 45.40625 8.203125 
Q 42.578125 3.328125 38.25 0.953125 
Q 33.9375 -1.421875 27.875 -1.421875 
Q 17.96875 -1.421875 11.734375 6.484375 
Q 5.515625 14.40625 5.515625 27.296875 
Q 5.515625 40.1875 11.734375 48.09375 
Q 17.96875 56 27.875 56 
Q 33.9375 56 38.25 53.625 
Q 42.578125 51.265625 45.40625 46.390625 
z
M 14.796875 27.296875 
Q 14.796875 17.390625 18.875 11.75 
Q 22.953125 6.109375 30.078125 6.109375 
Q 37.203125 6.109375 41.296875 11.75 
Q 45.40625 17.390625 45.40625 27.296875 
Q 45.40625 37.203125 41.296875 42.84375 
Q 37.203125 48.484375 30.078125 48.484375 
Q 22.953125 48.484375 18.875 42.84375 
Q 14.796875 37.203125 14.796875 27.296875 
z
" id="DejaVuSans-100"/>
      <path d="M 8.5 21.578125 
L 8.5 54.6875 
L 17.484375 54.6875 
L 17.484375 21.921875 
Q 17.484375 14.15625 20.5 10.265625 
Q 23.53125 6.390625 29.59375 6.390625 
Q 36.859375 6.390625 41.078125 11.03125 
Q 45.3125 15.671875 45.3125 23.6875 
L 45.3125 54.6875 
L 54.296875 54.6875 
L 54.296875 0 
L 45.3125 0 
L 45.3125 8.40625 
Q 42.046875 3.421875 37.71875 1 
Q 33.40625 -1.421875 27.6875 -1.421875 
Q 18.265625 -1.421875 13.375 4.4375 
Q 8.5 10.296875 8.5 21.578125 
z
M 31.109375 56 
z
" id="DejaVuSans-117"/>
      <path d="M 30.609375 48.390625 
Q 23.390625 48.390625 19.1875 42.75 
Q 14.984375 37.109375 14.984375 27.296875 
Q 14.984375 17.484375 19.15625 11.84375 
Q 23.34375 6.203125 30.609375 6.203125 
Q 37.796875 6.203125 41.984375 11.859375 
Q 46.1875 17.53125 46.1875 27.296875 
Q 46.1875 37.015625 41.984375 42.703125 
Q 37.796875 48.390625 30.609375 48.390625 
z
M 30.609375 56 
Q 42.328125 56 49.015625 48.375 
Q 55.71875 40.765625 55.71875 27.296875 
Q 55.71875 13.875 49.015625 6.21875 
Q 42.328125 -1.421875 30.609375 -1.421875 
Q 18.84375 -1.421875 12.171875 6.21875 
Q 5.515625 13.875 5.515625 27.296875 
Q 5.515625 40.765625 12.171875 48.375 
Q 18.84375 56 30.609375 56 
z
" id="DejaVuSans-111"/>
      <path d="M 31 75.875 
Q 24.46875 64.65625 21.28125 53.65625 
Q 18.109375 42.671875 18.109375 31.390625 
Q 18.109375 20.125 21.3125 9.0625 
Q 24.515625 -2 31 -13.1875 
L 23.1875 -13.1875 
Q 15.875 -1.703125 12.234375 9.375 
Q 8.59375 20.453125 8.59375 31.390625 
Q 8.59375 42.28125 12.203125 53.3125 
Q 15.828125 64.359375 23.1875 75.875 
z
" id="DejaVuSans-40"/>
      <path d="M 8.015625 75.875 
L 15.828125 75.875 
Q 23.140625 64.359375 26.78125 53.3125 
Q 30.421875 42.28125 30.421875 31.390625 
Q 30.421875 20.453125 26.78125 9.375 
Q 23.140625 -1.703125 15.828125 -13.1875 
L 8.015625 -13.1875 
Q 14.5 -2 17.703125 9.0625 
Q 20.90625 20.125 20.90625 31.390625 
Q 20.90625 42.671875 17.703125 53.65625 
Q 14.5 64.65625 8.015625 75.875 
z
" id="DejaVuSans-41"/>
     </defs>
     <g style="fill:#262626;" transform="translate(68.642067 257.519952)scale(0.1 -0.1)">
      <use xlink:href="#DejaVuSans-116"/>
      <use x="39.208984" xlink:href="#DejaVuSans-114"/>
      <use x="80.322266" xlink:href="#DejaVuSans-97"/>
      <use x="141.601562" xlink:href="#DejaVuSans-105"/>
      <use x="169.384766" xlink:href="#DejaVuSans-110"/>
      <use x="232.763672" xlink:href="#DejaVuSans-105"/>
      <use x="260.546875" xlink:href="#DejaVuSans-110"/>
      <use x="323.925781" xlink:href="#DejaVuSans-103"/>
      <use x="387.402344" xlink:href="#DejaVuSans-32"/>
      <use x="419.189453" xlink:href="#DejaVuSans-115"/>
      <use x="471.289062" xlink:href="#DejaVuSans-101"/>
      <use x="532.8125" xlink:href="#DejaVuSans-116"/>
      <use x="572.021484" xlink:href="#DejaVuSans-32"/>
      <use x="603.808594" xlink:href="#DejaVuSans-100"/>
      <use x="667.285156" xlink:href="#DejaVuSans-117"/>
      <use x="730.664062" xlink:href="#DejaVuSans-114"/>
      <use x="771.777344" xlink:href="#DejaVuSans-97"/>
      <use x="833.056641" xlink:href="#DejaVuSans-116"/>
      <use x="872.265625" xlink:href="#DejaVuSans-105"/>
      <use x="900.048828" xlink:href="#DejaVuSans-111"/>
      <use x="961.230469" xlink:href="#DejaVuSans-110"/>
      <use x="1024.609375" xlink:href="#DejaVuSans-32"/>
      <use x="1056.396484" xlink:href="#DejaVuSans-40"/>
      <use x="1095.410156" xlink:href="#DejaVuSans-115"/>
      <use x="1147.509766" xlink:href="#DejaVuSans-41"/>
     </g>
    </g>
   </g>
   <g id="matplotlib.axis_2">
    <g id="ytick_1">
     <g id="line2d_7">
      <path clip-path="url(#p78937d5b2f)" d="M 37.878 219.72199 
L 218.054572 219.72199 
" style="fill:none;stroke:#ffffff;stroke-linecap:round;stroke-width:0.8;"/>
     </g>
     <g id="text_8">
      <!-- 0 -->
      <g style="fill:#262626;" transform="translate(23.979 223.065303)scale(0.088 -0.088)">
       <use xlink:href="#DejaVuSans-48"/>
      </g>
     </g>
    </g>
    <g id="ytick_2">
     <g id="line2d_8">
      <path clip-path="url(#p78937d5b2f)" d="M 37.878 193.972741 
L 218.054572 193.972741 
" style="fill:none;stroke:#ffffff;stroke-linecap:round;stroke-width:0.8;"/>
     </g>
     <g id="text_9">
      <!-- 1 -->
      <g style="fill:#262626;" transform="translate(23.979 197.316054)scale(0.088 -0.088)">
       <use xlink:href="#DejaVuSans-49"/>
      </g>
     </g>
    </g>
    <g id="ytick_3">
     <g id="line2d_9">
      <path clip-path="url(#p78937d5b2f)" d="M 37.878 168.223493 
L 218.054572 168.223493 
" style="fill:none;stroke:#ffffff;stroke-linecap:round;stroke-width:0.8;"/>
     </g>
     <g id="text_10">
      <!-- 2 -->
      <g style="fill:#262626;" transform="translate(23.979 171.566805)scale(0.088 -0.088)">
       <use xlink:href="#DejaVuSans-50"/>
      </g>
     </g>
    </g>
    <g id="ytick_4">
     <g id="line2d_10">
      <path clip-path="url(#p78937d5b2f)" d="M 37.878 142.474244 
L 218.054572 142.474244 
" style="fill:none;stroke:#ffffff;stroke-linecap:round;stroke-width:0.8;"/>
     </g>
     <g id="text_11">
      <!-- 3 -->
      <g style="fill:#262626;" transform="translate(23.979 145.817556)scale(0.088 -0.088)">
       <use xlink:href="#DejaVuSans-51"/>
      </g>
     </g>
    </g>
    <g id="ytick_5">
     <g id="line2d_11">
      <path clip-path="url(#p78937d5b2f)" d="M 37.878 116.724995 
L 218.054572 116.724995 
" style="fill:none;stroke:#ffffff;stroke-linecap:round;stroke-width:0.8;"/>
     </g>
     <g id="text_12">
      <!-- 4 -->
      <g style="fill:#262626;" transform="translate(23.979 120.068308)scale(0.088 -0.088)">
       <use xlink:href="#DejaVuSans-52"/>
      </g>
     </g>
    </g>
    <g id="ytick_6">
     <g id="line2d_12">
      <path clip-path="url(#p78937d5b2f)" d="M 37.878 90.975746 
L 218.054572 90.975746 
" style="fill:none;stroke:#ffffff;stroke-linecap:round;stroke-width:0.8;"/>
     </g>
     <g id="text_13">
      <!-- 5 -->
      <g style="fill:#262626;" transform="translate(23.979 94.319059)scale(0.088 -0.088)">
       <use xlink:href="#DejaVuSans-53"/>
      </g>
     </g>
    </g>
    <g id="ytick_7">
     <g id="line2d_13">
      <path clip-path="url(#p78937d5b2f)" d="M 37.878 65.226498 
L 218.054572 65.226498 
" style="fill:none;stroke:#ffffff;stroke-linecap:round;stroke-width:0.8;"/>
     </g>
     <g id="text_14">
      <!-- 6 -->
      <defs>
       <path d="M 33.015625 40.375 
Q 26.375 40.375 22.484375 35.828125 
Q 18.609375 31.296875 18.609375 23.390625 
Q 18.609375 15.53125 22.484375 10.953125 
Q 26.375 6.390625 33.015625 6.390625 
Q 39.65625 6.390625 43.53125 10.953125 
Q 47.40625 15.53125 47.40625 23.390625 
Q 47.40625 31.296875 43.53125 35.828125 
Q 39.65625 40.375 33.015625 40.375 
z
M 52.59375 71.296875 
L 52.59375 62.3125 
Q 48.875 64.0625 45.09375 64.984375 
Q 41.3125 65.921875 37.59375 65.921875 
Q 27.828125 65.921875 22.671875 59.328125 
Q 17.53125 52.734375 16.796875 39.40625 
Q 19.671875 43.65625 24.015625 45.921875 
Q 28.375 48.1875 33.59375 48.1875 
Q 44.578125 48.1875 50.953125 41.515625 
Q 57.328125 34.859375 57.328125 23.390625 
Q 57.328125 12.15625 50.6875 5.359375 
Q 44.046875 -1.421875 33.015625 -1.421875 
Q 20.359375 -1.421875 13.671875 8.265625 
Q 6.984375 17.96875 6.984375 36.375 
Q 6.984375 53.65625 15.1875 63.9375 
Q 23.390625 74.21875 37.203125 74.21875 
Q 40.921875 74.21875 44.703125 73.484375 
Q 48.484375 72.75 52.59375 71.296875 
z
" id="DejaVuSans-54"/>
      </defs>
      <g style="fill:#262626;" transform="translate(23.979 68.56981)scale(0.088 -0.088)">
       <use xlink:href="#DejaVuSans-54"/>
      </g>
     </g>
    </g>
    <g id="ytick_8">
     <g id="line2d_14">
      <path clip-path="url(#p78937d5b2f)" d="M 37.878 39.477249 
L 218.054572 39.477249 
" style="fill:none;stroke:#ffffff;stroke-linecap:round;stroke-width:0.8;"/>
     </g>
     <g id="text_15">
      <!-- 7 -->
      <g style="fill:#262626;" transform="translate(23.979 42.820561)scale(0.088 -0.088)">
       <use xlink:href="#DejaVuSans-55"/>
      </g>
     </g>
    </g>
    <g id="ytick_9">
     <g id="line2d_15">
      <path clip-path="url(#p78937d5b2f)" d="M 37.878 13.728 
L 218.054572 13.728 
" style="fill:none;stroke:#ffffff;stroke-linecap:round;stroke-width:0.8;"/>
     </g>
     <g id="text_16">
      <!-- 8 -->
      <g style="fill:#262626;" transform="translate(23.979 17.071313)scale(0.088 -0.088)">
       <use xlink:href="#DejaVuSans-56"/>
      </g>
     </g>
    </g>
    <g id="text_17">
     <!-- frame error (%) -->
     <defs>
      <path d="M 37.109375 75.984375 
L 37.109375 68.5 
L 28.515625 68.5 
Q 23.6875 68.5 21.796875 66.546875 
Q 19.921875 64.59375 19.921875 59.515625 
L 19.921875 54.6875 
L 34.71875 54.6875 
L 34.71875 47.703125 
L 19.921875 47.703125 
L 19.921875 0 
L 10.890625 0 
L 10.890625 47.703125 
L 2.296875 47.703125 
L 2.296875 54.6875 
L 10.890625 54.6875 
L 10.890625 58.5 
Q 10.890625 67.625 15.140625 71.796875 
Q 19.390625 75.984375 28.609375 75.984375 
z
" id="DejaVuSans-102"/>
      <path d="M 52 44.1875 
Q 55.375 50.25 60.0625 53.125 
Q 64.75 56 71.09375 56 
Q 79.640625 56 84.28125 50.015625 
Q 88.921875 44.046875 88.921875 33.015625 
L 88.921875 0 
L 79.890625 0 
L 79.890625 32.71875 
Q 79.890625 40.578125 77.09375 44.375 
Q 74.3125 48.1875 68.609375 48.1875 
Q 61.625 48.1875 57.5625 43.546875 
Q 53.515625 38.921875 53.515625 30.90625 
L 53.515625 0 
L 44.484375 0 
L 44.484375 32.71875 
Q 44.484375 40.625 41.703125 44.40625 
Q 38.921875 48.1875 33.109375 48.1875 
Q 26.21875 48.1875 22.15625 43.53125 
Q 18.109375 38.875 18.109375 30.90625 
L 18.109375 0 
L 9.078125 0 
L 9.078125 54.6875 
L 18.109375 54.6875 
L 18.109375 46.1875 
Q 21.1875 51.21875 25.484375 53.609375 
Q 29.78125 56 35.6875 56 
Q 41.65625 56 45.828125 52.96875 
Q 50 49.953125 52 44.1875 
z
" id="DejaVuSans-109"/>
      <path d="M 72.703125 32.078125 
Q 68.453125 32.078125 66.03125 28.46875 
Q 63.625 24.859375 63.625 18.40625 
Q 63.625 12.0625 66.03125 8.421875 
Q 68.453125 4.78125 72.703125 4.78125 
Q 76.859375 4.78125 79.265625 8.421875 
Q 81.6875 12.0625 81.6875 18.40625 
Q 81.6875 24.8125 79.265625 28.4375 
Q 76.859375 32.078125 72.703125 32.078125 
z
M 72.703125 38.28125 
Q 80.421875 38.28125 84.953125 32.90625 
Q 89.5 27.546875 89.5 18.40625 
Q 89.5 9.28125 84.9375 3.921875 
Q 80.375 -1.421875 72.703125 -1.421875 
Q 64.890625 -1.421875 60.34375 3.921875 
Q 55.8125 9.28125 55.8125 18.40625 
Q 55.8125 27.59375 60.375 32.9375 
Q 64.9375 38.28125 72.703125 38.28125 
z
M 22.3125 68.015625 
Q 18.109375 68.015625 15.6875 64.375 
Q 13.28125 60.75 13.28125 54.390625 
Q 13.28125 47.953125 15.671875 44.328125 
Q 18.0625 40.71875 22.3125 40.71875 
Q 26.5625 40.71875 28.96875 44.328125 
Q 31.390625 47.953125 31.390625 54.390625 
Q 31.390625 60.6875 28.953125 64.34375 
Q 26.515625 68.015625 22.3125 68.015625 
z
M 66.40625 74.21875 
L 74.21875 74.21875 
L 28.609375 -1.421875 
L 20.796875 -1.421875 
z
M 22.3125 74.21875 
Q 30.03125 74.21875 34.609375 68.875 
Q 39.203125 63.53125 39.203125 54.390625 
Q 39.203125 45.171875 34.640625 39.84375 
Q 30.078125 34.515625 22.3125 34.515625 
Q 14.546875 34.515625 10.03125 39.859375 
Q 5.515625 45.21875 5.515625 54.390625 
Q 5.515625 63.484375 10.046875 68.84375 
Q 14.59375 74.21875 22.3125 74.21875 
z
" id="DejaVuSans-37"/>
     </defs>
     <g style="fill:#262626;" transform="translate(17.899313 155.682026)rotate(-90)scale(0.1 -0.1)">
      <use xlink:href="#DejaVuSans-102"/>
      <use x="35.205078" xlink:href="#DejaVuSans-114"/>
      <use x="76.318359" xlink:href="#DejaVuSans-97"/>
      <use x="137.597656" xlink:href="#DejaVuSans-109"/>
      <use x="235.009766" xlink:href="#DejaVuSans-101"/>
      <use x="296.533203" xlink:href="#DejaVuSans-32"/>
      <use x="328.320312" xlink:href="#DejaVuSans-101"/>
      <use x="389.84375" xlink:href="#DejaVuSans-114"/>
      <use x="430.941406" xlink:href="#DejaVuSans-114"/>
      <use x="472.023438" xlink:href="#DejaVuSans-111"/>
      <use x="533.205078" xlink:href="#DejaVuSans-114"/>
      <use x="574.318359" xlink:href="#DejaVuSans-32"/>
      <use x="606.105469" xlink:href="#DejaVuSans-40"/>
      <use x="645.119141" xlink:href="#DejaVuSans-37"/>
      <use x="740.138672" xlink:href="#DejaVuSans-41"/>
     </g>
    </g>
   </g>
   <g id="PolyCollection_1">
    <defs>
     <path d="M 46.067844 -181.034272 
L 46.067844 -147.30741 
L 78.827221 -135.134442 
L 111.586598 -124.935351 
L 144.345974 -125.63221 
L 177.105351 -119.656652 
L 209.864728 -116.355686 
L 209.864728 -127.206293 
L 209.864728 -127.206293 
L 177.105351 -126.505174 
L 144.345974 -139.525616 
L 111.586598 -142.596741 
L 78.827221 -146.514847 
L 46.067844 -181.034272 
z
" id="m5dae87e944" style="stroke:#4c72b0;stroke-opacity:0.2;stroke-width:0.8;"/>
    </defs>
    <g clip-path="url(#p78937d5b2f)">
     <use style="fill:#4c72b0;fill-opacity:0.2;stroke:#4c72b0;stroke-opacity:0.2;stroke-width:0.8;" x="0" xlink:href="#m5dae87e944" y="270"/>
    </g>
   </g>
   <g id="PolyCollection_2">
    <defs>
     <path d="M 46.067844 -222.342029 
L 46.067844 -192.2051 
L 78.827221 -173.916044 
L 111.586598 -168.009371 
L 144.345974 -153.310131 
L 177.105351 -154.24427 
L 209.864728 -147.558203 
L 209.864728 -166.90319 
L 209.864728 -166.90319 
L 177.105351 -171.316553 
L 144.345974 -177.731711 
L 111.586598 -180.431599 
L 78.827221 -197.865751 
L 46.067844 -222.342029 
z
" id="m76f2be55d0" style="stroke:#dd8452;stroke-opacity:0.2;stroke-width:0.8;"/>
    </defs>
    <g clip-path="url(#p78937d5b2f)">
     <use style="fill:#dd8452;fill-opacity:0.2;stroke:#dd8452;stroke-opacity:0.2;stroke-width:0.8;" x="0" xlink:href="#m76f2be55d0" y="270"/>
    </g>
   </g>
   <g id="PolyCollection_3">
    <defs>
     <path d="M 46.067844 -177.044505 
L 46.067844 -152.662973 
L 78.827221 -147.998804 
L 111.586598 -135.816417 
L 144.345974 -132.848777 
L 177.105351 -128.454828 
L 209.864728 -124.305479 
L 209.864728 -135.284737 
L 209.864728 -135.284737 
L 177.105351 -142.486766 
L 144.345974 -148.227826 
L 111.586598 -145.351659 
L 78.827221 -161.545938 
L 46.067844 -177.044505 
z
" id="m2d5f98f627" style="stroke:#55a868;stroke-opacity:0.2;stroke-width:0.8;"/>
    </defs>
    <g clip-path="url(#p78937d5b2f)">
     <use style="fill:#55a868;fill-opacity:0.2;stroke:#55a868;stroke-opacity:0.2;stroke-width:0.8;" x="0" xlink:href="#m2d5f98f627" y="270"/>
    </g>
   </g>
   <g id="PolyCollection_4">
    <defs>
     <path d="M 46.067844 -211.51273 
L 46.067844 -166.982907 
L 78.827221 -154.851083 
L 111.586598 -144.69541 
L 144.345974 -142.808428 
L 177.105351 -142.075221 
L 209.864728 -139.630481 
L 209.864728 -147.389415 
L 209.864728 -147.389415 
L 177.105351 -151.089791 
L 144.345974 -157.60999 
L 111.586598 -159.739576 
L 78.827221 -176.705123 
L 46.067844 -211.51273 
z
" id="m9750b76de2" style="stroke:#c44e52;stroke-opacity:0.2;stroke-width:0.8;"/>
    </defs>
    <g clip-path="url(#p78937d5b2f)">
     <use style="fill:#c44e52;fill-opacity:0.2;stroke:#c44e52;stroke-opacity:0.2;stroke-width:0.8;" x="0" xlink:href="#m9750b76de2" y="270"/>
    </g>
   </g>
   <g id="PolyCollection_5">
    <defs>
     <path d="M 46.067844 -171.953035 
L 46.067844 -149.788317 
L 78.827221 -140.258639 
L 111.586598 -135.125387 
L 144.345974 -132.554937 
L 177.105351 -127.540678 
L 209.864728 -126.403764 
L 209.864728 -142.46349 
L 209.864728 -142.46349 
L 177.105351 -149.253872 
L 144.345974 -141.455838 
L 111.586598 -150.715188 
L 78.827221 -167.222752 
L 46.067844 -171.953035 
z
" id="m652e6e2941" style="stroke:#8172b3;stroke-opacity:0.2;stroke-width:0.8;"/>
    </defs>
    <g clip-path="url(#p78937d5b2f)">
     <use style="fill:#8172b3;fill-opacity:0.2;stroke:#8172b3;stroke-opacity:0.2;stroke-width:0.8;" x="0" xlink:href="#m652e6e2941" y="270"/>
    </g>
   </g>
   <g id="PolyCollection_6">
    <defs>
     <path d="M 46.067844 -166.913597 
L 46.067844 -152.246663 
L 78.827221 -141.710529 
L 111.586598 -137.817785 
L 144.345974 -135.169243 
L 177.105351 -133.071218 
L 209.864728 -131.167062 
L 209.864728 -148.030394 
L 209.864728 -148.030394 
L 177.105351 -146.965422 
L 144.345974 -149.949343 
L 111.586598 -144.657428 
L 78.827221 -155.460981 
L 46.067844 -166.913597 
z
" id="m77341c1312" style="stroke:#937860;stroke-opacity:0.2;stroke-width:0.8;"/>
    </defs>
    <g clip-path="url(#p78937d5b2f)">
     <use style="fill:#937860;fill-opacity:0.2;stroke:#937860;stroke-opacity:0.2;stroke-width:0.8;" x="0" xlink:href="#m77341c1312" y="270"/>
    </g>
   </g>
   <g id="PolyCollection_7">
    <defs>
     <path d="M 46.067844 -160.93452 
L 46.067844 -143.3453 
L 78.827221 -142.246556 
L 111.586598 -131.481247 
L 144.345974 -127.626765 
L 177.105351 -126.12205 
L 209.864728 -126.445891 
L 209.864728 -142.193725 
L 209.864728 -142.193725 
L 177.105351 -133.605497 
L 144.345974 -140.670443 
L 111.586598 -149.423123 
L 78.827221 -155.85512 
L 46.067844 -160.93452 
z
" id="m5fbbd7c426" style="stroke:#da8bc3;stroke-opacity:0.2;stroke-width:0.8;"/>
    </defs>
    <g clip-path="url(#p78937d5b2f)">
     <use style="fill:#da8bc3;fill-opacity:0.2;stroke:#da8bc3;stroke-opacity:0.2;stroke-width:0.8;" x="0" xlink:href="#m5fbbd7c426" y="270"/>
    </g>
   </g>
   <g id="PolyCollection_8">
    <defs>
     <path d="M 46.067844 -138.819188 
L 46.067844 -125.717822 
L 78.827221 -122.057081 
L 111.586598 -115.615607 
L 144.345974 -116.381204 
L 177.105351 -115.720772 
L 209.864728 -111.781426 
L 209.864728 -120.356978 
L 209.864728 -120.356978 
L 177.105351 -122.150109 
L 144.345974 -123.587898 
L 111.586598 -133.632007 
L 78.827221 -133.695922 
L 46.067844 -138.819188 
z
" id="m59bfd47a45" style="stroke:#8c8c8c;stroke-opacity:0.2;stroke-width:0.8;"/>
    </defs>
    <g clip-path="url(#p78937d5b2f)">
     <use style="fill:#8c8c8c;fill-opacity:0.2;stroke:#8c8c8c;stroke-opacity:0.2;stroke-width:0.8;" x="0" xlink:href="#m59bfd47a45" y="270"/>
    </g>
   </g>
   <g id="PolyCollection_9">
    <defs>
     <path d="M 46.067844 -165.551856 
L 46.067844 -151.416408 
L 78.827221 -142.403563 
L 111.586598 -143.483502 
L 144.345974 -138.313787 
L 177.105351 -137.907113 
L 209.864728 -135.918248 
L 209.864728 -146.404285 
L 209.864728 -146.404285 
L 177.105351 -144.965453 
L 144.345974 -147.500052 
L 111.586598 -149.483462 
L 78.827221 -161.447779 
L 46.067844 -165.551856 
z
" id="ma09ab8c23e" style="stroke:#ccb974;stroke-opacity:0.2;stroke-width:0.8;"/>
    </defs>
    <g clip-path="url(#p78937d5b2f)">
     <use style="fill:#ccb974;fill-opacity:0.2;stroke:#ccb974;stroke-opacity:0.2;stroke-width:0.8;" x="0" xlink:href="#ma09ab8c23e" y="270"/>
    </g>
   </g>
   <g id="PolyCollection_10">
    <defs>
     <path d="M 46.067844 -158.214733 
L 46.067844 -134.262086 
L 78.827221 -128.985404 
L 111.586598 -121.429883 
L 144.345974 -125.068507 
L 177.105351 -126.099038 
L 209.864728 -124.540758 
L 209.864728 -142.194449 
L 209.864728 -142.194449 
L 177.105351 -132.730851 
L 144.345974 -138.439866 
L 111.586598 -145.791509 
L 78.827221 -153.991495 
L 46.067844 -158.214733 
z
" id="m803250d3af" style="stroke:#64b5cd;stroke-opacity:0.2;stroke-width:0.8;"/>
    </defs>
    <g clip-path="url(#p78937d5b2f)">
     <use style="fill:#64b5cd;fill-opacity:0.2;stroke:#64b5cd;stroke-opacity:0.2;stroke-width:0.8;" x="0" xlink:href="#m803250d3af" y="270"/>
    </g>
   </g>
   <g id="line2d_16">
    <path clip-path="url(#p78937d5b2f)" d="M 46.067844 105.829159 
L 78.827221 129.175356 
L 111.586598 136.233954 
L 144.345974 137.421087 
L 177.105351 146.919087 
L 209.864728 148.21901 
" style="fill:none;stroke:#4c72b0;stroke-linecap:round;stroke-width:2;"/>
   </g>
   <g id="line2d_17">
    <path clip-path="url(#p78937d5b2f)" d="M 46.067844 62.726435 
L 78.827221 84.109102 
L 111.586598 95.779515 
L 144.345974 104.479079 
L 177.105351 107.219588 
L 209.864728 112.769303 
" style="fill:none;stroke:#dd8452;stroke-linecap:round;stroke-width:2;"/>
   </g>
   <g id="line2d_18">
    <path clip-path="url(#p78937d5b2f)" d="M 46.067844 105.146261 
L 78.827221 115.227629 
L 111.586598 129.415962 
L 144.345974 129.461699 
L 177.105351 134.529203 
L 209.864728 140.204892 
" style="fill:none;stroke:#55a868;stroke-linecap:round;stroke-width:2;"/>
   </g>
   <g id="line2d_19">
    <path clip-path="url(#p78937d5b2f)" d="M 46.067844 80.752181 
L 78.827221 104.221897 
L 111.586598 117.782507 
L 144.345974 119.790791 
L 177.105351 123.417494 
L 209.864728 126.490052 
" style="fill:none;stroke:#c44e52;stroke-linecap:round;stroke-width:2;"/>
   </g>
   <g id="line2d_20">
    <path clip-path="url(#p78937d5b2f)" d="M 46.067844 109.129324 
L 78.827221 116.259305 
L 111.586598 127.079713 
L 144.345974 132.994612 
L 177.105351 131.602725 
L 209.864728 135.566373 
" style="fill:none;stroke:#8172b3;stroke-linecap:round;stroke-width:2;"/>
   </g>
   <g id="line2d_21">
    <path clip-path="url(#p78937d5b2f)" d="M 46.067844 110.41987 
L 78.827221 121.414245 
L 111.586598 128.762394 
L 144.345974 127.440707 
L 177.105351 129.98168 
L 209.864728 130.401272 
" style="fill:none;stroke:#937860;stroke-linecap:round;stroke-width:2;"/>
   </g>
   <g id="line2d_22">
    <path clip-path="url(#p78937d5b2f)" d="M 46.067844 117.86009 
L 78.827221 120.949162 
L 111.586598 129.547815 
L 144.345974 135.851396 
L 177.105351 140.136226 
L 209.864728 135.680192 
" style="fill:none;stroke:#da8bc3;stroke-linecap:round;stroke-width:2;"/>
   </g>
   <g id="line2d_23">
    <path clip-path="url(#p78937d5b2f)" d="M 46.067844 137.731495 
L 78.827221 142.123499 
L 111.586598 145.376193 
L 144.345974 150.015449 
L 177.105351 151.06456 
L 209.864728 153.930798 
" style="fill:none;stroke:#8c8c8c;stroke-linecap:round;stroke-width:2;"/>
   </g>
   <g id="line2d_24">
    <path clip-path="url(#p78937d5b2f)" d="M 46.067844 111.515868 
L 78.827221 118.074329 
L 111.586598 123.516518 
L 144.345974 127.093081 
L 177.105351 128.563717 
L 209.864728 128.838733 
" style="fill:none;stroke:#ccb974;stroke-linecap:round;stroke-width:2;"/>
   </g>
   <g id="line2d_25">
    <path clip-path="url(#p78937d5b2f)" d="M 46.067844 123.761591 
L 78.827221 128.51155 
L 111.586598 136.389304 
L 144.345974 138.245813 
L 177.105351 140.585056 
L 209.864728 136.632397 
" style="fill:none;stroke:#64b5cd;stroke-linecap:round;stroke-width:2;"/>
   </g>
   <g id="line2d_26">
    <path clip-path="url(#p78937d5b2f)" d="M 46.067844 106.487227 
L 78.827221 118.006607 
L 111.586598 126.988387 
L 144.345974 130.279371 
L 177.105351 133.401934 
L 209.864728 134.873302 
" style="fill:none;stroke:#1a1a1a;stroke-linecap:round;stroke-width:4;"/>
   </g>
   <g id="patch_3">
    <path d="M 37.878 219.72199 
L 37.878 13.728 
" style="fill:none;stroke:#ffffff;stroke-linecap:square;stroke-linejoin:miter;"/>
   </g>
   <g id="patch_4">
    <path d="M 218.054572 219.72199 
L 218.054572 13.728 
" style="fill:none;stroke:#ffffff;stroke-linecap:square;stroke-linejoin:miter;"/>
   </g>
   <g id="patch_5">
    <path d="M 37.878 219.72199 
L 218.054572 219.72199 
" style="fill:none;stroke:#ffffff;stroke-linecap:square;stroke-linejoin:miter;"/>
   </g>
   <g id="patch_6">
    <path d="M 37.878 13.728 
L 218.054572 13.728 
" style="fill:none;stroke:#ffffff;stroke-linecap:square;stroke-linejoin:miter;"/>
   </g>
  </g>
  <g id="axes_2">
   <g id="patch_7">
    <path d="M 284.610883 219.72199 
L 464.787455 219.72199 
L 464.787455 13.728 
L 284.610883 13.728 
z
" style="fill:#eaeaf2;"/>
   </g>
   <g id="matplotlib.axis_3">
    <g id="xtick_7">
     <g id="line2d_27">
      <path clip-path="url(#p9315cf3182)" d="M 292.800727 219.72199 
L 292.800727 13.728 
" style="fill:none;stroke:#ffffff;stroke-linecap:round;stroke-width:0.8;"/>
     </g>
     <g id="text_18">
      <!-- 30 -->
      <g style="fill:#262626;" transform="translate(290.558668 240.66833)rotate(-45)scale(0.088 -0.088)">
       <use xlink:href="#DejaVuSans-51"/>
       <use x="63.623047" xlink:href="#DejaVuSans-48"/>
      </g>
     </g>
    </g>
    <g id="xtick_8">
     <g id="line2d_28">
      <path clip-path="url(#p9315cf3182)" d="M 325.458758 219.72199 
L 325.458758 13.728 
" style="fill:none;stroke:#ffffff;stroke-linecap:round;stroke-width:0.8;"/>
     </g>
     <g id="text_19">
      <!-- 45 -->
      <g style="fill:#262626;" transform="translate(323.216699 240.66833)rotate(-45)scale(0.088 -0.088)">
       <use xlink:href="#DejaVuSans-52"/>
       <use x="63.623047" xlink:href="#DejaVuSans-53"/>
      </g>
     </g>
    </g>
    <g id="xtick_9">
     <g id="line2d_29">
      <path clip-path="url(#p9315cf3182)" d="M 358.116788 219.72199 
L 358.116788 13.728 
" style="fill:none;stroke:#ffffff;stroke-linecap:round;stroke-width:0.8;"/>
     </g>
     <g id="text_20">
      <!-- 75 -->
      <g style="fill:#262626;" transform="translate(355.87473 240.66833)rotate(-45)scale(0.088 -0.088)">
       <use xlink:href="#DejaVuSans-55"/>
       <use x="63.623047" xlink:href="#DejaVuSans-53"/>
      </g>
     </g>
    </g>
    <g id="xtick_10">
     <g id="line2d_30">
      <path clip-path="url(#p9315cf3182)" d="M 390.774819 219.72199 
L 390.774819 13.728 
" style="fill:none;stroke:#ffffff;stroke-linecap:round;stroke-width:0.8;"/>
     </g>
     <g id="text_21">
      <!-- 120 -->
      <g style="fill:#262626;" transform="translate(386.553215 244.627421)rotate(-45)scale(0.088 -0.088)">
       <use xlink:href="#DejaVuSans-49"/>
       <use x="63.623047" xlink:href="#DejaVuSans-50"/>
       <use x="127.246094" xlink:href="#DejaVuSans-48"/>
      </g>
     </g>
    </g>
    <g id="xtick_11">
     <g id="line2d_31">
      <path clip-path="url(#p9315cf3182)" d="M 423.43285 219.72199 
L 423.43285 13.728 
" style="fill:none;stroke:#ffffff;stroke-linecap:round;stroke-width:0.8;"/>
     </g>
     <g id="text_22">
      <!-- 180 -->
      <g style="fill:#262626;" transform="translate(419.211246 244.627421)rotate(-45)scale(0.088 -0.088)">
       <use xlink:href="#DejaVuSans-49"/>
       <use x="63.623047" xlink:href="#DejaVuSans-56"/>
       <use x="127.246094" xlink:href="#DejaVuSans-48"/>
      </g>
     </g>
    </g>
    <g id="xtick_12">
     <g id="line2d_32">
      <path clip-path="url(#p9315cf3182)" d="M 456.090881 219.72199 
L 456.090881 13.728 
" style="fill:none;stroke:#ffffff;stroke-linecap:round;stroke-width:0.8;"/>
     </g>
     <g id="text_23">
      <!-- 480 -->
      <g style="fill:#262626;" transform="translate(451.869277 244.627421)rotate(-45)scale(0.088 -0.088)">
       <use xlink:href="#DejaVuSans-52"/>
       <use x="63.623047" xlink:href="#DejaVuSans-56"/>
       <use x="127.246094" xlink:href="#DejaVuSans-48"/>
      </g>
     </g>
    </g>
    <g id="text_24">
     <!-- training set duration (s) -->
     <g style="fill:#262626;" transform="translate(315.37495 257.519952)scale(0.1 -0.1)">
      <use xlink:href="#DejaVuSans-116"/>
      <use x="39.208984" xlink:href="#DejaVuSans-114"/>
      <use x="80.322266" xlink:href="#DejaVuSans-97"/>
      <use x="141.601562" xlink:href="#DejaVuSans-105"/>
      <use x="169.384766" xlink:href="#DejaVuSans-110"/>
      <use x="232.763672" xlink:href="#DejaVuSans-105"/>
      <use x="260.546875" xlink:href="#DejaVuSans-110"/>
      <use x="323.925781" xlink:href="#DejaVuSans-103"/>
      <use x="387.402344" xlink:href="#DejaVuSans-32"/>
      <use x="419.189453" xlink:href="#DejaVuSans-115"/>
      <use x="471.289062" xlink:href="#DejaVuSans-101"/>
      <use x="532.8125" xlink:href="#DejaVuSans-116"/>
      <use x="572.021484" xlink:href="#DejaVuSans-32"/>
      <use x="603.808594" xlink:href="#DejaVuSans-100"/>
      <use x="667.285156" xlink:href="#DejaVuSans-117"/>
      <use x="730.664062" xlink:href="#DejaVuSans-114"/>
      <use x="771.777344" xlink:href="#DejaVuSans-97"/>
      <use x="833.056641" xlink:href="#DejaVuSans-116"/>
      <use x="872.265625" xlink:href="#DejaVuSans-105"/>
      <use x="900.048828" xlink:href="#DejaVuSans-111"/>
      <use x="961.230469" xlink:href="#DejaVuSans-110"/>
      <use x="1024.609375" xlink:href="#DejaVuSans-32"/>
      <use x="1056.396484" xlink:href="#DejaVuSans-40"/>
      <use x="1095.410156" xlink:href="#DejaVuSans-115"/>
      <use x="1147.509766" xlink:href="#DejaVuSans-41"/>
     </g>
    </g>
   </g>
   <g id="matplotlib.axis_4">
    <g id="ytick_10">
     <g id="line2d_33">
      <path clip-path="url(#p9315cf3182)" d="M 284.610883 179.202639 
L 464.787455 179.202639 
" style="fill:none;stroke:#ffffff;stroke-linecap:round;stroke-width:0.8;"/>
     </g>
     <g id="text_25">
      <!-- 0.1 -->
      <defs>
       <path d="M 10.6875 12.40625 
L 21 12.40625 
L 21 0 
L 10.6875 0 
z
" id="DejaVuSans-46"/>
      </defs>
      <g style="fill:#262626;" transform="translate(262.316133 182.545951)scale(0.088 -0.088)">
       <use xlink:href="#DejaVuSans-48"/>
       <use x="63.623047" xlink:href="#DejaVuSans-46"/>
       <use x="95.410156" xlink:href="#DejaVuSans-49"/>
      </g>
     </g>
    </g>
    <g id="ytick_11">
     <g id="line2d_34">
      <path clip-path="url(#p9315cf3182)" d="M 284.610883 135.863872 
L 464.787455 135.863872 
" style="fill:none;stroke:#ffffff;stroke-linecap:round;stroke-width:0.8;"/>
     </g>
     <g id="text_26">
      <!-- 0.2 -->
      <g style="fill:#262626;" transform="translate(262.316133 139.207185)scale(0.088 -0.088)">
       <use xlink:href="#DejaVuSans-48"/>
       <use x="63.623047" xlink:href="#DejaVuSans-46"/>
       <use x="95.410156" xlink:href="#DejaVuSans-50"/>
      </g>
     </g>
    </g>
    <g id="ytick_12">
     <g id="line2d_35">
      <path clip-path="url(#p9315cf3182)" d="M 284.610883 92.525105 
L 464.787455 92.525105 
" style="fill:none;stroke:#ffffff;stroke-linecap:round;stroke-width:0.8;"/>
     </g>
     <g id="text_27">
      <!-- 0.3 -->
      <g style="fill:#262626;" transform="translate(262.316133 95.868418)scale(0.088 -0.088)">
       <use xlink:href="#DejaVuSans-48"/>
       <use x="63.623047" xlink:href="#DejaVuSans-46"/>
       <use x="95.410156" xlink:href="#DejaVuSans-51"/>
      </g>
     </g>
    </g>
    <g id="ytick_13">
     <g id="line2d_36">
      <path clip-path="url(#p9315cf3182)" d="M 284.610883 49.186339 
L 464.787455 49.186339 
" style="fill:none;stroke:#ffffff;stroke-linecap:round;stroke-width:0.8;"/>
     </g>
     <g id="text_28">
      <!-- 0.4 -->
      <g style="fill:#262626;" transform="translate(262.316133 52.529651)scale(0.088 -0.088)">
       <use xlink:href="#DejaVuSans-48"/>
       <use x="63.623047" xlink:href="#DejaVuSans-46"/>
       <use x="95.410156" xlink:href="#DejaVuSans-52"/>
      </g>
     </g>
    </g>
    <g id="text_29">
     <!-- segment error rate -->
     <g style="fill:#262626;" transform="translate(245.038633 164.29062)rotate(-90)scale(0.1 -0.1)">
      <use xlink:href="#DejaVuSans-115"/>
      <use x="52.099609" xlink:href="#DejaVuSans-101"/>
      <use x="113.623047" xlink:href="#DejaVuSans-103"/>
      <use x="177.099609" xlink:href="#DejaVuSans-109"/>
      <use x="274.511719" xlink:href="#DejaVuSans-101"/>
      <use x="336.035156" xlink:href="#DejaVuSans-110"/>
      <use x="399.414062" xlink:href="#DejaVuSans-116"/>
      <use x="438.623047" xlink:href="#DejaVuSans-32"/>
      <use x="470.410156" xlink:href="#DejaVuSans-101"/>
      <use x="531.933594" xlink:href="#DejaVuSans-114"/>
      <use x="573.03125" xlink:href="#DejaVuSans-114"/>
      <use x="614.113281" xlink:href="#DejaVuSans-111"/>
      <use x="675.294922" xlink:href="#DejaVuSans-114"/>
      <use x="716.408203" xlink:href="#DejaVuSans-32"/>
      <use x="748.195312" xlink:href="#DejaVuSans-114"/>
      <use x="789.308594" xlink:href="#DejaVuSans-97"/>
      <use x="850.587891" xlink:href="#DejaVuSans-116"/>
      <use x="889.796875" xlink:href="#DejaVuSans-101"/>
     </g>
     <!-- (edits per segment) -->
     <defs>
      <path d="M 18.109375 8.203125 
L 18.109375 -20.796875 
L 9.078125 -20.796875 
L 9.078125 54.6875 
L 18.109375 54.6875 
L 18.109375 46.390625 
Q 20.953125 51.265625 25.265625 53.625 
Q 29.59375 56 35.59375 56 
Q 45.5625 56 51.78125 48.09375 
Q 58.015625 40.1875 58.015625 27.296875 
Q 58.015625 14.40625 51.78125 6.484375 
Q 45.5625 -1.421875 35.59375 -1.421875 
Q 29.59375 -1.421875 25.265625 0.953125 
Q 20.953125 3.328125 18.109375 8.203125 
z
M 48.6875 27.296875 
Q 48.6875 37.203125 44.609375 42.84375 
Q 40.53125 48.484375 33.40625 48.484375 
Q 26.265625 48.484375 22.1875 42.84375 
Q 18.109375 37.203125 18.109375 27.296875 
Q 18.109375 17.390625 22.1875 11.75 
Q 26.265625 6.109375 33.40625 6.109375 
Q 40.53125 6.109375 44.609375 11.75 
Q 48.6875 17.390625 48.6875 27.296875 
z
" id="DejaVuSans-112"/>
     </defs>
     <g style="fill:#262626;" transform="translate(256.236445 166.24687)rotate(-90)scale(0.1 -0.1)">
      <use xlink:href="#DejaVuSans-40"/>
      <use x="39.013672" xlink:href="#DejaVuSans-101"/>
      <use x="100.537109" xlink:href="#DejaVuSans-100"/>
      <use x="164.013672" xlink:href="#DejaVuSans-105"/>
      <use x="191.796875" xlink:href="#DejaVuSans-116"/>
      <use x="231.005859" xlink:href="#DejaVuSans-115"/>
      <use x="283.105469" xlink:href="#DejaVuSans-32"/>
      <use x="314.892578" xlink:href="#DejaVuSans-112"/>
      <use x="378.369141" xlink:href="#DejaVuSans-101"/>
      <use x="439.892578" xlink:href="#DejaVuSans-114"/>
      <use x="481.005859" xlink:href="#DejaVuSans-32"/>
      <use x="512.792969" xlink:href="#DejaVuSans-115"/>
      <use x="564.892578" xlink:href="#DejaVuSans-101"/>
      <use x="626.416016" xlink:href="#DejaVuSans-103"/>
      <use x="689.892578" xlink:href="#DejaVuSans-109"/>
      <use x="787.304688" xlink:href="#DejaVuSans-101"/>
      <use x="848.828125" xlink:href="#DejaVuSans-110"/>
      <use x="912.207031" xlink:href="#DejaVuSans-116"/>
      <use x="951.416016" xlink:href="#DejaVuSans-41"/>
     </g>
    </g>
   </g>
   <g id="PolyCollection_11">
    <defs>
     <path d="M 292.800727 -86.620964 
L 292.800727 -74.914158 
L 325.458758 -70.667721 
L 358.116788 -67.166774 
L 390.774819 -67.971521 
L 423.43285 -65.848687 
L 456.090881 -65.007255 
L 456.090881 -68.154595 
L 456.090881 -68.154595 
L 423.43285 -68.36304 
L 390.774819 -72.305054 
L 358.116788 -72.802146 
L 325.458758 -74.724004 
L 292.800727 -86.620964 
z
" id="m43928c3817" style="stroke:#4c72b0;stroke-opacity:0.2;stroke-width:0.8;"/>
    </defs>
    <g clip-path="url(#p9315cf3182)">
     <use style="fill:#4c72b0;fill-opacity:0.2;stroke:#4c72b0;stroke-opacity:0.2;stroke-width:0.8;" x="0" xlink:href="#m43928c3817" y="270"/>
    </g>
   </g>
   <g id="PolyCollection_12">
    <defs>
     <path d="M 292.800727 -83.630411 
L 292.800727 -76.801184 
L 325.458758 -72.348601 
L 358.116788 -70.948428 
L 390.774819 -67.709039 
L 423.43285 -68.091858 
L 456.090881 -66.670722 
L 456.090881 -70.680222 
L 456.090881 -70.680222 
L 423.43285 -71.549536 
L 390.774819 -73.142139 
L 358.116788 -73.825652 
L 325.458758 -77.584756 
L 292.800727 -83.630411 
z
" id="m1aa8aa637e" style="stroke:#dd8452;stroke-opacity:0.2;stroke-width:0.8;"/>
    </defs>
    <g clip-path="url(#p9315cf3182)">
     <use style="fill:#dd8452;fill-opacity:0.2;stroke:#dd8452;stroke-opacity:0.2;stroke-width:0.8;" x="0" xlink:href="#m1aa8aa637e" y="270"/>
    </g>
   </g>
   <g id="PolyCollection_13">
    <defs>
     <path d="M 292.800727 -77.064029 
L 292.800727 -70.033446 
L 325.458758 -69.202336 
L 358.116788 -65.941643 
L 390.774819 -65.699001 
L 423.43285 -64.289675 
L 456.090881 -63.055226 
L 456.090881 -65.834596 
L 456.090881 -65.834596 
L 423.43285 -67.918494 
L 390.774819 -69.218664 
L 358.116788 -68.60893 
L 325.458758 -73.042582 
L 292.800727 -77.064029 
z
" id="mefd5f298e0" style="stroke:#55a868;stroke-opacity:0.2;stroke-width:0.8;"/>
    </defs>
    <g clip-path="url(#p9315cf3182)">
     <use style="fill:#55a868;fill-opacity:0.2;stroke:#55a868;stroke-opacity:0.2;stroke-width:0.8;" x="0" xlink:href="#mefd5f298e0" y="270"/>
    </g>
   </g>
   <g id="PolyCollection_14">
    <defs>
     <path d="M 292.800727 -91.312562 
L 292.800727 -77.022017 
L 325.458758 -74.076985 
L 358.116788 -70.928517 
L 390.774819 -70.427471 
L 423.43285 -69.937231 
L 456.090881 -68.705559 
L 456.090881 -71.408737 
L 456.090881 -71.408737 
L 423.43285 -72.633211 
L 390.774819 -73.952531 
L 358.116788 -74.912298 
L 325.458758 -80.8231 
L 292.800727 -91.312562 
z
" id="m2305f9ef0e" style="stroke:#c44e52;stroke-opacity:0.2;stroke-width:0.8;"/>
    </defs>
    <g clip-path="url(#p9315cf3182)">
     <use style="fill:#c44e52;fill-opacity:0.2;stroke:#c44e52;stroke-opacity:0.2;stroke-width:0.8;" x="0" xlink:href="#m2305f9ef0e" y="270"/>
    </g>
   </g>
   <g id="PolyCollection_15">
    <defs>
     <path d="M 292.800727 -76.520064 
L 292.800727 -69.371887 
L 325.458758 -66.148976 
L 358.116788 -64.51088 
L 390.774819 -64.173301 
L 423.43285 -62.75962 
L 456.090881 -61.948096 
L 456.090881 -66.651949 
L 456.090881 -66.651949 
L 423.43285 -68.365496 
L 390.774819 -66.751262 
L 358.116788 -68.660652 
L 325.458758 -74.382527 
L 292.800727 -76.520064 
z
" id="m61a0b5cc8d" style="stroke:#8172b3;stroke-opacity:0.2;stroke-width:0.8;"/>
    </defs>
    <g clip-path="url(#p9315cf3182)">
     <use style="fill:#8172b3;fill-opacity:0.2;stroke:#8172b3;stroke-opacity:0.2;stroke-width:0.8;" x="0" xlink:href="#m61a0b5cc8d" y="270"/>
    </g>
   </g>
   <g id="PolyCollection_16">
    <defs>
     <path d="M 292.800727 -76.15191 
L 292.800727 -71.911529 
L 325.458758 -70.512439 
L 358.116788 -69.446381 
L 390.774819 -68.063175 
L 423.43285 -67.686374 
L 456.090881 -67.327669 
L 456.090881 -72.068615 
L 456.090881 -72.068615 
L 423.43285 -71.860494 
L 390.774819 -72.449882 
L 358.116788 -72.368992 
L 325.458758 -73.963853 
L 292.800727 -76.15191 
z
" id="m8e3f3ef21e" style="stroke:#937860;stroke-opacity:0.2;stroke-width:0.8;"/>
    </defs>
    <g clip-path="url(#p9315cf3182)">
     <use style="fill:#937860;fill-opacity:0.2;stroke:#937860;stroke-opacity:0.2;stroke-width:0.8;" x="0" xlink:href="#m8e3f3ef21e" y="270"/>
    </g>
   </g>
   <g id="PolyCollection_17">
    <defs>
     <path d="M 292.800727 -69.485701 
L 292.800727 -64.507983 
L 325.458758 -64.647992 
L 358.116788 -62.31037 
L 390.774819 -61.269778 
L 423.43285 -60.681705 
L 456.090881 -60.736448 
L 456.090881 -64.641253 
L 456.090881 -64.641253 
L 423.43285 -63.008472 
L 390.774819 -64.766027 
L 358.116788 -66.719816 
L 325.458758 -67.360413 
L 292.800727 -69.485701 
z
" id="m4e4fe3b246" style="stroke:#da8bc3;stroke-opacity:0.2;stroke-width:0.8;"/>
    </defs>
    <g clip-path="url(#p9315cf3182)">
     <use style="fill:#da8bc3;fill-opacity:0.2;stroke:#da8bc3;stroke-opacity:0.2;stroke-width:0.8;" x="0" xlink:href="#m4e4fe3b246" y="270"/>
    </g>
   </g>
   <g id="PolyCollection_18">
    <defs>
     <path d="M 292.800727 -71.31538 
L 292.800727 -67.273159 
L 325.458758 -65.808963 
L 358.116788 -64.77198 
L 390.774819 -64.55521 
L 423.43285 -64.375377 
L 456.090881 -63.799715 
L 456.090881 -65.83752 
L 456.090881 -65.83752 
L 423.43285 -66.925509 
L 390.774819 -67.015787 
L 358.116788 -69.852285 
L 325.458758 -69.739927 
L 292.800727 -71.31538 
z
" id="mcf9afe6864" style="stroke:#8c8c8c;stroke-opacity:0.2;stroke-width:0.8;"/>
    </defs>
    <g clip-path="url(#p9315cf3182)">
     <use style="fill:#8c8c8c;fill-opacity:0.2;stroke:#8c8c8c;stroke-opacity:0.2;stroke-width:0.8;" x="0" xlink:href="#mcf9afe6864" y="270"/>
    </g>
   </g>
   <g id="PolyCollection_19">
    <defs>
     <path d="M 292.800727 -76.059704 
L 292.800727 -71.104807 
L 325.458758 -69.850431 
L 358.116788 -69.969509 
L 390.774819 -68.96273 
L 423.43285 -68.772438 
L 456.090881 -68.156808 
L 456.090881 -70.543276 
L 456.090881 -70.543276 
L 423.43285 -70.556476 
L 390.774819 -71.158278 
L 358.116788 -71.751755 
L 325.458758 -74.033617 
L 292.800727 -76.059704 
z
" id="m33b94c6a1d" style="stroke:#ccb974;stroke-opacity:0.2;stroke-width:0.8;"/>
    </defs>
    <g clip-path="url(#p9315cf3182)">
     <use style="fill:#ccb974;fill-opacity:0.2;stroke:#ccb974;stroke-opacity:0.2;stroke-width:0.8;" x="0" xlink:href="#m33b94c6a1d" y="270"/>
    </g>
   </g>
   <g id="PolyCollection_20">
    <defs>
     <path d="M 292.800727 -68.233103 
L 292.800727 -62.567392 
L 325.458758 -60.679495 
L 358.116788 -59.641373 
L 390.774819 -60.397871 
L 423.43285 -60.5016 
L 456.090881 -59.959646 
L 456.090881 -64.734049 
L 456.090881 -64.734049 
L 423.43285 -61.965607 
L 390.774819 -63.374857 
L 358.116788 -65.073291 
L 325.458758 -68.59643 
L 292.800727 -68.233103 
z
" id="m2d71973fe1" style="stroke:#64b5cd;stroke-opacity:0.2;stroke-width:0.8;"/>
    </defs>
    <g clip-path="url(#p9315cf3182)">
     <use style="fill:#64b5cd;fill-opacity:0.2;stroke:#64b5cd;stroke-opacity:0.2;stroke-width:0.8;" x="0" xlink:href="#m2d71973fe1" y="270"/>
    </g>
   </g>
   <g id="PathCollection_1">
    <defs>
     <path d="M 0 2.236068 
C 0.593012 2.236068 1.161816 2.000462 1.581139 1.581139 
C 2.000462 1.161816 2.236068 0.593012 2.236068 0 
C 2.236068 -0.593012 2.000462 -1.161816 1.581139 -1.581139 
C 1.161816 -2.000462 0.593012 -2.236068 0 -2.236068 
C -0.593012 -2.236068 -1.161816 -2.000462 -1.581139 -1.581139 
C -2.000462 -1.161816 -2.236068 -0.593012 -2.236068 0 
C -2.236068 0.593012 -2.000462 1.161816 -1.581139 1.581139 
C -1.161816 2.000462 -0.593012 2.236068 0 2.236068 
z
" id="m9bd98dcf23" style="stroke:#4c72b0;stroke-width:0.8;"/>
    </defs>
    <g clip-path="url(#p9315cf3182)">
     <use style="fill:#4c72b0;stroke:#4c72b0;stroke-width:0.8;" x="456.090881" xlink:href="#m9bd98dcf23" y="23.183079"/>
    </g>
   </g>
   <g id="line2d_37">
    <path clip-path="url(#p9315cf3182)" d="M 292.800727 189.232439 
L 325.458758 197.304138 
L 358.116788 200.01554 
L 390.774819 199.861713 
L 423.43285 202.894137 
L 456.090881 203.419075 
" style="fill:none;stroke:#4c72b0;stroke-linecap:round;stroke-width:2;"/>
   </g>
   <g id="line2d_38">
    <path clip-path="url(#p9315cf3182)" d="M 292.800727 189.784203 
L 325.458758 195.033322 
L 358.116788 197.61296 
L 390.774819 199.574411 
L 423.43285 200.179303 
L 456.090881 201.324528 
" style="fill:none;stroke:#dd8452;stroke-linecap:round;stroke-width:2;"/>
   </g>
   <g id="line2d_39">
    <path clip-path="url(#p9315cf3182)" d="M 292.800727 196.451263 
L 325.458758 198.877541 
L 358.116788 202.724714 
L 390.774819 202.541167 
L 423.43285 203.895915 
L 456.090881 205.555089 
" style="fill:none;stroke:#55a868;stroke-linecap:round;stroke-width:2;"/>
   </g>
   <g id="line2d_40">
    <path clip-path="url(#p9315cf3182)" d="M 292.800727 185.83271 
L 325.458758 192.549957 
L 358.116788 197.079593 
L 390.774819 197.809999 
L 423.43285 198.714779 
L 456.090881 199.942852 
" style="fill:none;stroke:#c44e52;stroke-linecap:round;stroke-width:2;"/>
   </g>
   <g id="line2d_41">
    <path clip-path="url(#p9315cf3182)" d="M 292.800727 197.054025 
L 325.458758 199.734248 
L 358.116788 203.414234 
L 390.774819 204.537718 
L 423.43285 204.437442 
L 456.090881 205.699978 
" style="fill:none;stroke:#8172b3;stroke-linecap:round;stroke-width:2;"/>
   </g>
   <g id="line2d_42">
    <path clip-path="url(#p9315cf3182)" d="M 292.800727 195.96828 
L 325.458758 197.761854 
L 358.116788 199.092314 
L 390.774819 199.743471 
L 423.43285 200.226566 
L 456.090881 200.301858 
" style="fill:none;stroke:#937860;stroke-linecap:round;stroke-width:2;"/>
   </g>
   <g id="line2d_43">
    <path clip-path="url(#p9315cf3182)" d="M 292.800727 203.003158 
L 325.458758 203.995798 
L 358.116788 205.484907 
L 390.774819 206.982097 
L 423.43285 208.154912 
L 456.090881 207.311149 
" style="fill:none;stroke:#da8bc3;stroke-linecap:round;stroke-width:2;"/>
   </g>
   <g id="line2d_44">
    <path clip-path="url(#p9315cf3182)" d="M 292.800727 200.705731 
L 325.458758 202.225555 
L 358.116788 202.687868 
L 390.774819 204.214502 
L 423.43285 204.349557 
L 456.090881 205.181382 
" style="fill:none;stroke:#8c8c8c;stroke-linecap:round;stroke-width:2;"/>
   </g>
   <g id="line2d_45">
    <path clip-path="url(#p9315cf3182)" d="M 292.800727 196.417745 
L 325.458758 198.057976 
L 358.116788 199.139368 
L 390.774819 199.939496 
L 423.43285 200.335543 
L 456.090881 200.649958 
" style="fill:none;stroke:#ccb974;stroke-linecap:round;stroke-width:2;"/>
   </g>
   <g id="line2d_46">
    <path clip-path="url(#p9315cf3182)" d="M 292.800727 204.599752 
L 325.458758 205.362037 
L 358.116788 207.642668 
L 390.774819 208.113636 
L 423.43285 208.766397 
L 456.090881 207.653153 
" style="fill:none;stroke:#64b5cd;stroke-linecap:round;stroke-width:2;"/>
   </g>
   <g id="line2d_47"/>
   <g id="line2d_48"/>
   <g id="line2d_49"/>
   <g id="line2d_50"/>
   <g id="line2d_51"/>
   <g id="line2d_52"/>
   <g id="line2d_53"/>
   <g id="line2d_54"/>
   <g id="line2d_55"/>
   <g id="line2d_56"/>
   <g id="line2d_57"/>
   <g id="line2d_58">
    <path clip-path="url(#p9315cf3182)" d="M 292.800727 195.904931 
L 325.458758 199.090243 
L 358.116788 201.489416 
L 390.774819 202.331821 
L 423.43285 203.195455 
L 456.090881 203.703902 
" style="fill:none;stroke:#1a1a1a;stroke-linecap:round;stroke-width:4;"/>
   </g>
   <g id="patch_8">
    <path d="M 284.610883 219.72199 
L 284.610883 13.728 
" style="fill:none;stroke:#ffffff;stroke-linecap:square;stroke-linejoin:miter;"/>
   </g>
   <g id="patch_9">
    <path d="M 464.787455 219.72199 
L 464.787455 13.728 
" style="fill:none;stroke:#ffffff;stroke-linecap:square;stroke-linejoin:miter;"/>
   </g>
   <g id="patch_10">
    <path d="M 284.610883 219.72199 
L 464.787455 219.72199 
" style="fill:none;stroke:#ffffff;stroke-linecap:square;stroke-linejoin:miter;"/>
   </g>
   <g id="patch_11">
    <path d="M 284.610883 13.728 
L 464.787455 13.728 
" style="fill:none;stroke:#ffffff;stroke-linecap:square;stroke-linejoin:miter;"/>
   </g>
   <g id="text_30">
    <!-- Koumura -->
    <defs>
     <path d="M 9.8125 72.90625 
L 19.671875 72.90625 
L 19.671875 42.09375 
L 52.390625 72.90625 
L 65.09375 72.90625 
L 28.90625 38.921875 
L 67.671875 0 
L 54.6875 0 
L 19.671875 35.109375 
L 19.671875 0 
L 9.8125 0 
z
" id="DejaVuSans-75"/>
    </defs>
    <g style="fill:#262626;" transform="translate(390.774819 24.986896)scale(0.1 -0.1)">
     <use xlink:href="#DejaVuSans-75"/>
     <use x="65.498047" xlink:href="#DejaVuSans-111"/>
     <use x="126.679688" xlink:href="#DejaVuSans-117"/>
     <use x="190.058594" xlink:href="#DejaVuSans-109"/>
     <use x="287.470703" xlink:href="#DejaVuSans-117"/>
     <use x="350.849609" xlink:href="#DejaVuSans-114"/>
     <use x="391.962891" xlink:href="#DejaVuSans-97"/>
    </g>
    <!-- Okanoya 2016 -->
    <defs>
     <path d="M 39.40625 66.21875 
Q 28.65625 66.21875 22.328125 58.203125 
Q 16.015625 50.203125 16.015625 36.375 
Q 16.015625 22.609375 22.328125 14.59375 
Q 28.65625 6.59375 39.40625 6.59375 
Q 50.140625 6.59375 56.421875 14.59375 
Q 62.703125 22.609375 62.703125 36.375 
Q 62.703125 50.203125 56.421875 58.203125 
Q 50.140625 66.21875 39.40625 66.21875 
z
M 39.40625 74.21875 
Q 54.734375 74.21875 63.90625 63.9375 
Q 73.09375 53.65625 73.09375 36.375 
Q 73.09375 19.140625 63.90625 8.859375 
Q 54.734375 -1.421875 39.40625 -1.421875 
Q 24.03125 -1.421875 14.8125 8.828125 
Q 5.609375 19.09375 5.609375 36.375 
Q 5.609375 53.65625 14.8125 63.9375 
Q 24.03125 74.21875 39.40625 74.21875 
z
" id="DejaVuSans-79"/>
     <path d="M 9.078125 75.984375 
L 18.109375 75.984375 
L 18.109375 31.109375 
L 44.921875 54.6875 
L 56.390625 54.6875 
L 27.390625 29.109375 
L 57.625 0 
L 45.90625 0 
L 18.109375 26.703125 
L 18.109375 0 
L 9.078125 0 
z
" id="DejaVuSans-107"/>
     <path d="M 32.171875 -5.078125 
Q 28.375 -14.84375 24.75 -17.8125 
Q 21.140625 -20.796875 15.09375 -20.796875 
L 7.90625 -20.796875 
L 7.90625 -13.28125 
L 13.1875 -13.28125 
Q 16.890625 -13.28125 18.9375 -11.515625 
Q 21 -9.765625 23.484375 -3.21875 
L 25.09375 0.875 
L 2.984375 54.6875 
L 12.5 54.6875 
L 29.59375 11.921875 
L 46.6875 54.6875 
L 56.203125 54.6875 
z
" id="DejaVuSans-121"/>
    </defs>
    <g style="fill:#262626;" transform="translate(390.774819 36.184709)scale(0.1 -0.1)">
     <use xlink:href="#DejaVuSans-79"/>
     <use x="78.710938" xlink:href="#DejaVuSans-107"/>
     <use x="136.605469" xlink:href="#DejaVuSans-97"/>
     <use x="197.884766" xlink:href="#DejaVuSans-110"/>
     <use x="261.263672" xlink:href="#DejaVuSans-111"/>
     <use x="322.445312" xlink:href="#DejaVuSans-121"/>
     <use x="381.625" xlink:href="#DejaVuSans-97"/>
     <use x="442.904297" xlink:href="#DejaVuSans-32"/>
     <use x="474.691406" xlink:href="#DejaVuSans-50"/>
     <use x="538.314453" xlink:href="#DejaVuSans-48"/>
     <use x="601.9375" xlink:href="#DejaVuSans-49"/>
     <use x="665.560547" xlink:href="#DejaVuSans-54"/>
    </g>
   </g>
   <g id="legend_1">
    <g id="patch_12">
     <path d="M 474.550986 175.769 
L 527.667236 175.769 
Q 529.427236 175.769 529.427236 174.009 
L 529.427236 19.888 
Q 529.427236 18.128 527.667236 18.128 
L 474.550986 18.128 
Q 472.790986 18.128 472.790986 19.888 
L 472.790986 174.009 
Q 472.790986 175.769 474.550986 175.769 
z
" style="fill:#eaeaf2;opacity:0.8;stroke:#cccccc;stroke-linejoin:miter;stroke-width:0.8;"/>
    </g>
    <g id="line2d_59">
     <path d="M 476.310986 25.254625 
L 493.910986 25.254625 
" style="fill:none;"/>
    </g>
    <g id="line2d_60"/>
    <g id="text_31">
     <!-- bird -->
     <defs>
      <path d="M 48.6875 27.296875 
Q 48.6875 37.203125 44.609375 42.84375 
Q 40.53125 48.484375 33.40625 48.484375 
Q 26.265625 48.484375 22.1875 42.84375 
Q 18.109375 37.203125 18.109375 27.296875 
Q 18.109375 17.390625 22.1875 11.75 
Q 26.265625 6.109375 33.40625 6.109375 
Q 40.53125 6.109375 44.609375 11.75 
Q 48.6875 17.390625 48.6875 27.296875 
z
M 18.109375 46.390625 
Q 20.953125 51.265625 25.265625 53.625 
Q 29.59375 56 35.59375 56 
Q 45.5625 56 51.78125 48.09375 
Q 58.015625 40.1875 58.015625 27.296875 
Q 58.015625 14.40625 51.78125 6.484375 
Q 45.5625 -1.421875 35.59375 -1.421875 
Q 29.59375 -1.421875 25.265625 0.953125 
Q 20.953125 3.328125 18.109375 8.203125 
L 18.109375 0 
L 9.078125 0 
L 9.078125 75.984375 
L 18.109375 75.984375 
z
" id="DejaVuSans-98"/>
     </defs>
     <g style="fill:#262626;" transform="translate(500.950986 28.334625)scale(0.088 -0.088)">
      <use xlink:href="#DejaVuSans-98"/>
      <use x="63.476562" xlink:href="#DejaVuSans-105"/>
      <use x="91.259766" xlink:href="#DejaVuSans-114"/>
      <use x="132.357422" xlink:href="#DejaVuSans-100"/>
     </g>
    </g>
    <g id="line2d_61">
     <path d="M 476.310986 38.171375 
L 493.910986 38.171375 
" style="fill:none;stroke:#4c72b0;stroke-linecap:round;stroke-width:1.2;"/>
    </g>
    <g id="line2d_62"/>
    <g id="text_32">
     <!-- 0 -->
     <g style="fill:#262626;" transform="translate(500.950986 41.251375)scale(0.088 -0.088)">
      <use xlink:href="#DejaVuSans-48"/>
     </g>
    </g>
    <g id="line2d_63">
     <path d="M 476.310986 51.088125 
L 493.910986 51.088125 
" style="fill:none;stroke:#dd8452;stroke-linecap:round;stroke-width:1.2;"/>
    </g>
    <g id="line2d_64"/>
    <g id="text_33">
     <!-- 1 -->
     <g style="fill:#262626;" transform="translate(500.950986 54.168125)scale(0.088 -0.088)">
      <use xlink:href="#DejaVuSans-49"/>
     </g>
    </g>
    <g id="line2d_65">
     <path d="M 476.310986 64.004875 
L 493.910986 64.004875 
" style="fill:none;stroke:#55a868;stroke-linecap:round;stroke-width:1.2;"/>
    </g>
    <g id="line2d_66"/>
    <g id="text_34">
     <!-- 2 -->
     <g style="fill:#262626;" transform="translate(500.950986 67.084875)scale(0.088 -0.088)">
      <use xlink:href="#DejaVuSans-50"/>
     </g>
    </g>
    <g id="line2d_67">
     <path d="M 476.310986 76.921625 
L 493.910986 76.921625 
" style="fill:none;stroke:#c44e52;stroke-linecap:round;stroke-width:1.2;"/>
    </g>
    <g id="line2d_68"/>
    <g id="text_35">
     <!-- 3 -->
     <g style="fill:#262626;" transform="translate(500.950986 80.001625)scale(0.088 -0.088)">
      <use xlink:href="#DejaVuSans-51"/>
     </g>
    </g>
    <g id="line2d_69">
     <path d="M 476.310986 89.838375 
L 493.910986 89.838375 
" style="fill:none;stroke:#8172b3;stroke-linecap:round;stroke-width:1.2;"/>
    </g>
    <g id="line2d_70"/>
    <g id="text_36">
     <!-- 4 -->
     <g style="fill:#262626;" transform="translate(500.950986 92.918375)scale(0.088 -0.088)">
      <use xlink:href="#DejaVuSans-52"/>
     </g>
    </g>
    <g id="line2d_71">
     <path d="M 476.310986 102.755125 
L 493.910986 102.755125 
" style="fill:none;stroke:#937860;stroke-linecap:round;stroke-width:1.2;"/>
    </g>
    <g id="line2d_72"/>
    <g id="text_37">
     <!-- 5 -->
     <g style="fill:#262626;" transform="translate(500.950986 105.835125)scale(0.088 -0.088)">
      <use xlink:href="#DejaVuSans-53"/>
     </g>
    </g>
    <g id="line2d_73">
     <path d="M 476.310986 115.671875 
L 493.910986 115.671875 
" style="fill:none;stroke:#da8bc3;stroke-linecap:round;stroke-width:1.2;"/>
    </g>
    <g id="line2d_74"/>
    <g id="text_38">
     <!-- 6 -->
     <g style="fill:#262626;" transform="translate(500.950986 118.751875)scale(0.088 -0.088)">
      <use xlink:href="#DejaVuSans-54"/>
     </g>
    </g>
    <g id="line2d_75">
     <path d="M 476.310986 128.588625 
L 493.910986 128.588625 
" style="fill:none;stroke:#8c8c8c;stroke-linecap:round;stroke-width:1.2;"/>
    </g>
    <g id="line2d_76"/>
    <g id="text_39">
     <!-- 7 -->
     <g style="fill:#262626;" transform="translate(500.950986 131.668625)scale(0.088 -0.088)">
      <use xlink:href="#DejaVuSans-55"/>
     </g>
    </g>
    <g id="line2d_77">
     <path d="M 476.310986 141.505375 
L 493.910986 141.505375 
" style="fill:none;stroke:#ccb974;stroke-linecap:round;stroke-width:1.2;"/>
    </g>
    <g id="line2d_78"/>
    <g id="text_40">
     <!-- 8 -->
     <g style="fill:#262626;" transform="translate(500.950986 144.585375)scale(0.088 -0.088)">
      <use xlink:href="#DejaVuSans-56"/>
     </g>
    </g>
    <g id="line2d_79">
     <path d="M 476.310986 154.422125 
L 493.910986 154.422125 
" style="fill:none;stroke:#64b5cd;stroke-linecap:round;stroke-width:1.2;"/>
    </g>
    <g id="line2d_80"/>
    <g id="text_41">
     <!-- 9 -->
     <defs>
      <path d="M 10.984375 1.515625 
L 10.984375 10.5 
Q 14.703125 8.734375 18.5 7.8125 
Q 22.3125 6.890625 25.984375 6.890625 
Q 35.75 6.890625 40.890625 13.453125 
Q 46.046875 20.015625 46.78125 33.40625 
Q 43.953125 29.203125 39.59375 26.953125 
Q 35.25 24.703125 29.984375 24.703125 
Q 19.046875 24.703125 12.671875 31.3125 
Q 6.296875 37.9375 6.296875 49.421875 
Q 6.296875 60.640625 12.9375 67.421875 
Q 19.578125 74.21875 30.609375 74.21875 
Q 43.265625 74.21875 49.921875 64.515625 
Q 56.59375 54.828125 56.59375 36.375 
Q 56.59375 19.140625 48.40625 8.859375 
Q 40.234375 -1.421875 26.421875 -1.421875 
Q 22.703125 -1.421875 18.890625 -0.6875 
Q 15.09375 0.046875 10.984375 1.515625 
z
M 30.609375 32.421875 
Q 37.25 32.421875 41.125 36.953125 
Q 45.015625 41.5 45.015625 49.421875 
Q 45.015625 57.28125 41.125 61.84375 
Q 37.25 66.40625 30.609375 66.40625 
Q 23.96875 66.40625 20.09375 61.84375 
Q 16.21875 57.28125 16.21875 49.421875 
Q 16.21875 41.5 20.09375 36.953125 
Q 23.96875 32.421875 30.609375 32.421875 
z
" id="DejaVuSans-57"/>
     </defs>
     <g style="fill:#262626;" transform="translate(500.950986 157.502125)scale(0.088 -0.088)">
      <use xlink:href="#DejaVuSans-57"/>
     </g>
    </g>
    <g id="line2d_81">
     <path d="M 476.310986 167.338875 
L 493.910986 167.338875 
" style="fill:none;stroke:#1a1a1a;stroke-linecap:round;stroke-width:4;"/>
    </g>
    <g id="line2d_82"/>
    <g id="text_42">
     <!-- mean -->
     <g style="fill:#262626;" transform="translate(500.950986 170.418875)scale(0.088 -0.088)">
      <use xlink:href="#DejaVuSans-109"/>
      <use x="97.412109" xlink:href="#DejaVuSans-101"/>
      <use x="158.935547" xlink:href="#DejaVuSans-97"/>
      <use x="220.214844" xlink:href="#DejaVuSans-110"/>
     </g>
    </g>
   </g>
  </g>
 </g>
 <defs>
  <clipPath id="p78937d5b2f">
   <rect height="205.99399" width="180.176572" x="37.878" y="13.728"/>
  </clipPath>
  <clipPath id="p9315cf3182">
   <rect height="205.99399" width="180.176572" x="284.610883" y="13.728"/>
  </clipPath>
 </defs>
</svg>
