<?xml version="1.0" encoding="utf-8" standalone="no"?>
<!DOCTYPE svg PUBLIC "-//W3C//DTD SVG 1.1//EN"
  "http://www.w3.org/Graphics/SVG/1.1/DTD/svg11.dtd">
<svg height="468.468503pt" version="1.1" viewBox="0 0 470.81925 468.468503" width="470.81925pt" xmlns="http://www.w3.org/2000/svg" xmlns:xlink="http://www.w3.org/1999/xlink">
 <metadata>
  <rdf:RDF xmlns:cc="http://creativecommons.org/ns#" xmlns:dc="http://purl.org/dc/elements/1.1/" xmlns:rdf="http://www.w3.org/1999/02/22-rdf-syntax-ns#">
   <cc:Work>
    <dc:type rdf:resource="http://purl.org/dc/dcmitype/StillImage"/>
    <dc:date>2021-12-30T19:25:56.971825</dc:date>
    <dc:format>image/svg+xml</dc:format>
    <dc:creator>
     <cc:Agent>
      <dc:title>Matplotlib v3.4.1, https://matplotlib.org/</dc:title>
     </cc:Agent>
    </dc:creator>
   </cc:Work>
  </rdf:RDF>
 </metadata>
 <defs>
  <style type="text/css">*{stroke-linecap:butt;stroke-linejoin:round;}</style>
 </defs>
 <g id="figure_1">
  <g id="patch_1">
   <path d="M 0 468.468503 
L 470.81925 468.468503 
L 470.81925 0 
L 0 0 
z
" style="fill:none;"/>
  </g>
  <g id="axes_1">
   <g id="patch_2">
    <path d="M 38.29625 215.167564 
L 196.97425 215.167564 
L 196.97425 20.0715 
L 38.29625 20.0715 
z
" style="fill:#ffffff;"/>
   </g>
   <g id="PolyCollection_1">
    <defs>
     <path d="M 45.508886 -348.714232 
L 45.508886 -335.515953 
L 69.551008 -326.939218 
L 93.593129 -316.528877 
L 117.63525 -313.858761 
L 141.677371 -308.779862 
L 165.719492 -302.236101 
L 189.761614 -302.638079 
L 189.761614 -310.593072 
L 189.761614 -310.593072 
L 165.719492 -307.369886 
L 141.677371 -315.359871 
L 117.63525 -319.650156 
L 93.593129 -328.048478 
L 69.551008 -338.550937 
L 45.508886 -348.714232 
z
" id="m60acfcd3ab" style="stroke:#fab0e4;stroke-opacity:0.2;stroke-width:0.8;"/>
    </defs>
    <g clip-path="url(#p005b569016)">
     <use style="fill:#fab0e4;fill-opacity:0.2;stroke:#fab0e4;stroke-opacity:0.2;stroke-width:0.8;" x="0" xlink:href="#m60acfcd3ab" y="468.468503"/>
    </g>
   </g>
   <g id="PolyCollection_2">
    <defs>
     <path d="M 45.508886 -348.407899 
L 45.508886 -333.098349 
L 69.551008 -325.704621 
L 93.593129 -323.665871 
L 117.63525 -319.493624 
L 141.677371 -317.410363 
L 165.719492 -311.088774 
L 189.761614 -310.633596 
L 189.761614 -313.498795 
L 189.761614 -313.498795 
L 165.719492 -315.845718 
L 141.677371 -322.823837 
L 117.63525 -326.117226 
L 93.593129 -327.417344 
L 69.551008 -343.290433 
L 45.508886 -348.407899 
z
" id="m11669146bd" style="stroke:#fab0e4;stroke-opacity:0.2;stroke-width:0.8;"/>
    </defs>
    <g clip-path="url(#p005b569016)">
     <use style="fill:#fab0e4;fill-opacity:0.2;stroke:#fab0e4;stroke-opacity:0.2;stroke-width:0.8;" x="0" xlink:href="#m11669146bd" y="468.468503"/>
    </g>
   </g>
   <g id="PolyCollection_3">
    <defs>
     <path d="M 45.508886 -333.251523 
L 45.508886 -318.576229 
L 69.551008 -316.611831 
L 93.593129 -312.831678 
L 117.63525 -308.976808 
L 141.677371 -308.498006 
L 165.719492 -301.300556 
L 189.761614 -300.783704 
L 189.761614 -303.146005 
L 189.761614 -303.146005 
L 165.719492 -304.573827 
L 141.677371 -310.578562 
L 117.63525 -314.919742 
L 93.593129 -317.207363 
L 69.551008 -323.488427 
L 45.508886 -333.251523 
z
" id="m02b3e04d50" style="stroke:#fab0e4;stroke-opacity:0.2;stroke-width:0.8;"/>
    </defs>
    <g clip-path="url(#p005b569016)">
     <use style="fill:#fab0e4;fill-opacity:0.2;stroke:#fab0e4;stroke-opacity:0.2;stroke-width:0.8;" x="0" xlink:href="#m02b3e04d50" y="468.468503"/>
    </g>
   </g>
   <g id="PolyCollection_4">
    <defs>
     <path d="M 45.508886 -362.956996 
L 45.508886 -313.934229 
L 69.551008 -316.713029 
L 93.593129 -312.566046 
L 117.63525 -311.376128 
L 141.677371 -307.164368 
L 165.719492 -302.387562 
L 189.761614 -300.900219 
L 189.761614 -304.496984 
L 189.761614 -304.496984 
L 165.719492 -304.286519 
L 141.677371 -311.162002 
L 117.63525 -314.720108 
L 93.593129 -316.388118 
L 69.551008 -327.201967 
L 45.508886 -362.956996 
z
" id="me7876c8006" style="stroke:#fab0e4;stroke-opacity:0.2;stroke-width:0.8;"/>
    </defs>
    <g clip-path="url(#p005b569016)">
     <use style="fill:#fab0e4;fill-opacity:0.2;stroke:#fab0e4;stroke-opacity:0.2;stroke-width:0.8;" x="0" xlink:href="#me7876c8006" y="468.468503"/>
    </g>
   </g>
   <g id="PolyCollection_5">
    <defs>
     <path d="M 45.508886 -392.049863 
L 45.508886 -323.219384 
L 69.551008 -327.50832 
L 93.593129 -282.558537 
L 117.63525 -303.547749 
L 141.677371 -302.227148 
L 165.719492 -296.834045 
L 189.761614 -296.350417 
L 189.761614 -300.979897 
L 189.761614 -300.979897 
L 165.719492 -300.086569 
L 141.677371 -321.468306 
L 117.63525 -335.498239 
L 93.593129 -425.578232 
L 69.551008 -357.140153 
L 45.508886 -392.049863 
z
" id="m84c1de3925" style="stroke:#fab0e4;stroke-opacity:0.2;stroke-width:0.8;"/>
    </defs>
    <g clip-path="url(#p005b569016)">
     <use style="fill:#fab0e4;fill-opacity:0.2;stroke:#fab0e4;stroke-opacity:0.2;stroke-width:0.8;" x="0" xlink:href="#m84c1de3925" y="468.468503"/>
    </g>
   </g>
   <g id="PolyCollection_6">
    <defs>
     <path d="M 45.508886 -367.120171 
L 45.508886 -335.385213 
L 69.551008 -325.899991 
L 93.593129 -320.62636 
L 117.63525 -312.23165 
L 141.677371 -308.027739 
L 165.719492 -298.937264 
L 189.761614 -297.568591 
L 189.761614 -305.359413 
L 189.761614 -305.359413 
L 165.719492 -307.843548 
L 141.677371 -321.414356 
L 117.63525 -322.019369 
L 93.593129 -329.151803 
L 69.551008 -345.869778 
L 45.508886 -367.120171 
z
" id="m51b51b2f4c" style="stroke:#fab0e4;stroke-opacity:0.2;stroke-width:0.8;"/>
    </defs>
    <g clip-path="url(#p005b569016)">
     <use style="fill:#fab0e4;fill-opacity:0.2;stroke:#fab0e4;stroke-opacity:0.2;stroke-width:0.8;" x="0" xlink:href="#m51b51b2f4c" y="468.468503"/>
    </g>
   </g>
   <g id="PolyCollection_7">
    <defs>
     <path d="M 45.508886 -389.42996 
L 45.508886 -355.575713 
L 69.551008 -344.316514 
L 93.593129 -332.253532 
L 117.63525 -326.419412 
L 141.677371 -322.446587 
L 165.719492 -306.416573 
L 189.761614 -305.023545 
L 189.761614 -314.82176 
L 189.761614 -314.82176 
L 165.719492 -318.177742 
L 141.677371 -333.348457 
L 117.63525 -333.029397 
L 93.593129 -349.342912 
L 69.551008 -382.774454 
L 45.508886 -389.42996 
z
" id="m2c14e22e2d" style="stroke:#fab0e4;stroke-opacity:0.2;stroke-width:0.8;"/>
    </defs>
    <g clip-path="url(#p005b569016)">
     <use style="fill:#fab0e4;fill-opacity:0.2;stroke:#fab0e4;stroke-opacity:0.2;stroke-width:0.8;" x="0" xlink:href="#m2c14e22e2d" y="468.468503"/>
    </g>
   </g>
   <g id="PolyCollection_8">
    <defs>
     <path d="M 45.508886 -354.570999 
L 45.508886 -326.714132 
L 69.551008 -325.578486 
L 93.593129 -312.507932 
L 117.63525 -309.209407 
L 141.677371 -306.888375 
L 165.719492 -299.550954 
L 189.761614 -297.041982 
L 189.761614 -301.194252 
L 189.761614 -301.194252 
L 165.719492 -302.987021 
L 141.677371 -315.551697 
L 117.63525 -319.289422 
L 93.593129 -322.331778 
L 69.551008 -341.275772 
L 45.508886 -354.570999 
z
" id="m5f8447f949" style="stroke:#fab0e4;stroke-opacity:0.2;stroke-width:0.8;"/>
    </defs>
    <g clip-path="url(#p005b569016)">
     <use style="fill:#fab0e4;fill-opacity:0.2;stroke:#fab0e4;stroke-opacity:0.2;stroke-width:0.8;" x="0" xlink:href="#m5f8447f949" y="468.468503"/>
    </g>
   </g>
   <g id="matplotlib.axis_1">
    <g id="xtick_1">
     <g id="line2d_1">
      <defs>
       <path d="M 0 0 
L 0 4.8 
" id="m262860d744" style="stroke:#000000;"/>
      </defs>
      <g>
       <use style="stroke:#000000;" x="45.508886" xlink:href="#m262860d744" y="215.167564"/>
      </g>
     </g>
    </g>
    <g id="xtick_2">
     <g id="line2d_2">
      <g>
       <use style="stroke:#000000;" x="69.551008" xlink:href="#m262860d744" y="215.167564"/>
      </g>
     </g>
    </g>
    <g id="xtick_3">
     <g id="line2d_3">
      <g>
       <use style="stroke:#000000;" x="93.593129" xlink:href="#m262860d744" y="215.167564"/>
      </g>
     </g>
    </g>
    <g id="xtick_4">
     <g id="line2d_4">
      <g>
       <use style="stroke:#000000;" x="117.63525" xlink:href="#m262860d744" y="215.167564"/>
      </g>
     </g>
    </g>
    <g id="xtick_5">
     <g id="line2d_5">
      <g>
       <use style="stroke:#000000;" x="141.677371" xlink:href="#m262860d744" y="215.167564"/>
      </g>
     </g>
    </g>
    <g id="xtick_6">
     <g id="line2d_6">
      <g>
       <use style="stroke:#000000;" x="165.719492" xlink:href="#m262860d744" y="215.167564"/>
      </g>
     </g>
    </g>
    <g id="xtick_7">
     <g id="line2d_7">
      <g>
       <use style="stroke:#000000;" x="189.761614" xlink:href="#m262860d744" y="215.167564"/>
      </g>
     </g>
    </g>
   </g>
   <g id="matplotlib.axis_2">
    <g id="ytick_1">
     <g id="line2d_8">
      <defs>
       <path d="M 0 0 
L -4.8 0 
" id="mcf2b525df7" style="stroke:#000000;"/>
      </defs>
      <g>
       <use style="stroke:#000000;" x="38.29625" xlink:href="#mcf2b525df7" y="215.167564"/>
      </g>
     </g>
     <g id="text_1">
      <!-- 0 -->
      <g transform="translate(25.102625 218.317001)scale(0.088 -0.088)">
       <defs>
        <path d="M 266 2259 
Q 266 3072 433 3567 
Q 600 4063 929 4331 
Q 1259 4600 1759 4600 
Q 2128 4600 2406 4451 
Q 2684 4303 2865 4023 
Q 3047 3744 3150 3342 
Q 3253 2941 3253 2259 
Q 3253 1453 3087 958 
Q 2922 463 2592 192 
Q 2263 -78 1759 -78 
Q 1097 -78 719 397 
Q 266 969 266 2259 
z
M 844 2259 
Q 844 1131 1108 757 
Q 1372 384 1759 384 
Q 2147 384 2411 759 
Q 2675 1134 2675 2259 
Q 2675 3391 2411 3762 
Q 2147 4134 1753 4134 
Q 1366 4134 1134 3806 
Q 844 3388 844 2259 
z
" id="ArialMT-30" transform="scale(0.015625)"/>
       </defs>
       <use xlink:href="#ArialMT-30"/>
      </g>
     </g>
    </g>
    <g id="ytick_2">
     <g id="line2d_9">
      <g>
       <use style="stroke:#000000;" x="38.29625" xlink:href="#mcf2b525df7" y="182.651553"/>
      </g>
     </g>
     <g id="text_2">
      <!-- 1 -->
      <g transform="translate(25.102625 185.800991)scale(0.088 -0.088)">
       <defs>
        <path d="M 2384 0 
L 1822 0 
L 1822 3584 
Q 1619 3391 1289 3197 
Q 959 3003 697 2906 
L 697 3450 
Q 1169 3672 1522 3987 
Q 1875 4303 2022 4600 
L 2384 4600 
L 2384 0 
z
" id="ArialMT-31" transform="scale(0.015625)"/>
       </defs>
       <use xlink:href="#ArialMT-31"/>
      </g>
     </g>
    </g>
    <g id="ytick_3">
     <g id="line2d_10">
      <g>
       <use style="stroke:#000000;" x="38.29625" xlink:href="#mcf2b525df7" y="150.135543"/>
      </g>
     </g>
     <g id="text_3">
      <!-- 2 -->
      <g transform="translate(25.102625 153.28498)scale(0.088 -0.088)">
       <defs>
        <path d="M 3222 541 
L 3222 0 
L 194 0 
Q 188 203 259 391 
Q 375 700 629 1000 
Q 884 1300 1366 1694 
Q 2113 2306 2375 2664 
Q 2638 3022 2638 3341 
Q 2638 3675 2398 3904 
Q 2159 4134 1775 4134 
Q 1369 4134 1125 3890 
Q 881 3647 878 3216 
L 300 3275 
Q 359 3922 746 4261 
Q 1134 4600 1788 4600 
Q 2447 4600 2831 4234 
Q 3216 3869 3216 3328 
Q 3216 3053 3103 2787 
Q 2991 2522 2730 2228 
Q 2469 1934 1863 1422 
Q 1356 997 1212 845 
Q 1069 694 975 541 
L 3222 541 
z
" id="ArialMT-32" transform="scale(0.015625)"/>
       </defs>
       <use xlink:href="#ArialMT-32"/>
      </g>
     </g>
    </g>
    <g id="ytick_4">
     <g id="line2d_11">
      <g>
       <use style="stroke:#000000;" x="38.29625" xlink:href="#mcf2b525df7" y="117.619532"/>
      </g>
     </g>
     <g id="text_4">
      <!-- 3 -->
      <g transform="translate(25.102625 120.768969)scale(0.088 -0.088)">
       <defs>
        <path d="M 269 1209 
L 831 1284 
Q 928 806 1161 595 
Q 1394 384 1728 384 
Q 2125 384 2398 659 
Q 2672 934 2672 1341 
Q 2672 1728 2419 1979 
Q 2166 2231 1775 2231 
Q 1616 2231 1378 2169 
L 1441 2663 
Q 1497 2656 1531 2656 
Q 1891 2656 2178 2843 
Q 2466 3031 2466 3422 
Q 2466 3731 2256 3934 
Q 2047 4138 1716 4138 
Q 1388 4138 1169 3931 
Q 950 3725 888 3313 
L 325 3413 
Q 428 3978 793 4289 
Q 1159 4600 1703 4600 
Q 2078 4600 2393 4439 
Q 2709 4278 2876 4000 
Q 3044 3722 3044 3409 
Q 3044 3113 2884 2869 
Q 2725 2625 2413 2481 
Q 2819 2388 3044 2092 
Q 3269 1797 3269 1353 
Q 3269 753 2831 336 
Q 2394 -81 1725 -81 
Q 1122 -81 723 278 
Q 325 638 269 1209 
z
" id="ArialMT-33" transform="scale(0.015625)"/>
       </defs>
       <use xlink:href="#ArialMT-33"/>
      </g>
     </g>
    </g>
    <g id="ytick_5">
     <g id="line2d_12">
      <g>
       <use style="stroke:#000000;" x="38.29625" xlink:href="#mcf2b525df7" y="85.103521"/>
      </g>
     </g>
     <g id="text_5">
      <!-- 4 -->
      <g transform="translate(25.102625 88.252959)scale(0.088 -0.088)">
       <defs>
        <path d="M 2069 0 
L 2069 1097 
L 81 1097 
L 81 1613 
L 2172 4581 
L 2631 4581 
L 2631 1613 
L 3250 1613 
L 3250 1097 
L 2631 1097 
L 2631 0 
L 2069 0 
z
M 2069 1613 
L 2069 3678 
L 634 1613 
L 2069 1613 
z
" id="ArialMT-34" transform="scale(0.015625)"/>
       </defs>
       <use xlink:href="#ArialMT-34"/>
      </g>
     </g>
    </g>
    <g id="ytick_6">
     <g id="line2d_13">
      <g>
       <use style="stroke:#000000;" x="38.29625" xlink:href="#mcf2b525df7" y="52.587511"/>
      </g>
     </g>
     <g id="text_6">
      <!-- 5 -->
      <g transform="translate(25.102625 55.736948)scale(0.088 -0.088)">
       <defs>
        <path d="M 266 1200 
L 856 1250 
Q 922 819 1161 601 
Q 1400 384 1738 384 
Q 2144 384 2425 690 
Q 2706 997 2706 1503 
Q 2706 1984 2436 2262 
Q 2166 2541 1728 2541 
Q 1456 2541 1237 2417 
Q 1019 2294 894 2097 
L 366 2166 
L 809 4519 
L 3088 4519 
L 3088 3981 
L 1259 3981 
L 1013 2750 
Q 1425 3038 1878 3038 
Q 2478 3038 2890 2622 
Q 3303 2206 3303 1553 
Q 3303 931 2941 478 
Q 2500 -78 1738 -78 
Q 1113 -78 717 272 
Q 322 622 266 1200 
z
" id="ArialMT-35" transform="scale(0.015625)"/>
       </defs>
       <use xlink:href="#ArialMT-35"/>
      </g>
     </g>
    </g>
    <g id="ytick_7">
     <g id="line2d_14">
      <g>
       <use style="stroke:#000000;" x="38.29625" xlink:href="#mcf2b525df7" y="20.0715"/>
      </g>
     </g>
     <g id="text_7">
      <!-- 6 -->
      <g transform="translate(25.102625 23.220937)scale(0.088 -0.088)">
       <defs>
        <path d="M 3184 3459 
L 2625 3416 
Q 2550 3747 2413 3897 
Q 2184 4138 1850 4138 
Q 1581 4138 1378 3988 
Q 1113 3794 959 3422 
Q 806 3050 800 2363 
Q 1003 2672 1297 2822 
Q 1591 2972 1913 2972 
Q 2475 2972 2870 2558 
Q 3266 2144 3266 1488 
Q 3266 1056 3080 686 
Q 2894 316 2569 119 
Q 2244 -78 1831 -78 
Q 1128 -78 684 439 
Q 241 956 241 2144 
Q 241 3472 731 4075 
Q 1159 4600 1884 4600 
Q 2425 4600 2770 4297 
Q 3116 3994 3184 3459 
z
M 888 1484 
Q 888 1194 1011 928 
Q 1134 663 1356 523 
Q 1578 384 1822 384 
Q 2178 384 2434 671 
Q 2691 959 2691 1453 
Q 2691 1928 2437 2201 
Q 2184 2475 1800 2475 
Q 1419 2475 1153 2201 
Q 888 1928 888 1484 
z
" id="ArialMT-36" transform="scale(0.015625)"/>
       </defs>
       <use xlink:href="#ArialMT-36"/>
      </g>
     </g>
    </g>
    <g id="text_8">
     <!-- Frame error (%) -->
     <g transform="translate(19.082125 151.751282)rotate(-90)scale(0.096 -0.096)">
      <defs>
       <path d="M 525 0 
L 525 4581 
L 3616 4581 
L 3616 4041 
L 1131 4041 
L 1131 2622 
L 3281 2622 
L 3281 2081 
L 1131 2081 
L 1131 0 
L 525 0 
z
" id="ArialMT-46" transform="scale(0.015625)"/>
       <path d="M 416 0 
L 416 3319 
L 922 3319 
L 922 2816 
Q 1116 3169 1280 3281 
Q 1444 3394 1641 3394 
Q 1925 3394 2219 3213 
L 2025 2691 
Q 1819 2813 1613 2813 
Q 1428 2813 1281 2702 
Q 1134 2591 1072 2394 
Q 978 2094 978 1738 
L 978 0 
L 416 0 
z
" id="ArialMT-72" transform="scale(0.015625)"/>
       <path d="M 2588 409 
Q 2275 144 1986 34 
Q 1697 -75 1366 -75 
Q 819 -75 525 192 
Q 231 459 231 875 
Q 231 1119 342 1320 
Q 453 1522 633 1644 
Q 813 1766 1038 1828 
Q 1203 1872 1538 1913 
Q 2219 1994 2541 2106 
Q 2544 2222 2544 2253 
Q 2544 2597 2384 2738 
Q 2169 2928 1744 2928 
Q 1347 2928 1158 2789 
Q 969 2650 878 2297 
L 328 2372 
Q 403 2725 575 2942 
Q 747 3159 1072 3276 
Q 1397 3394 1825 3394 
Q 2250 3394 2515 3294 
Q 2781 3194 2906 3042 
Q 3031 2891 3081 2659 
Q 3109 2516 3109 2141 
L 3109 1391 
Q 3109 606 3145 398 
Q 3181 191 3288 0 
L 2700 0 
Q 2613 175 2588 409 
z
M 2541 1666 
Q 2234 1541 1622 1453 
Q 1275 1403 1131 1340 
Q 988 1278 909 1158 
Q 831 1038 831 891 
Q 831 666 1001 516 
Q 1172 366 1500 366 
Q 1825 366 2078 508 
Q 2331 650 2450 897 
Q 2541 1088 2541 1459 
L 2541 1666 
z
" id="ArialMT-61" transform="scale(0.015625)"/>
       <path d="M 422 0 
L 422 3319 
L 925 3319 
L 925 2853 
Q 1081 3097 1340 3245 
Q 1600 3394 1931 3394 
Q 2300 3394 2536 3241 
Q 2772 3088 2869 2813 
Q 3263 3394 3894 3394 
Q 4388 3394 4653 3120 
Q 4919 2847 4919 2278 
L 4919 0 
L 4359 0 
L 4359 2091 
Q 4359 2428 4304 2576 
Q 4250 2725 4106 2815 
Q 3963 2906 3769 2906 
Q 3419 2906 3187 2673 
Q 2956 2441 2956 1928 
L 2956 0 
L 2394 0 
L 2394 2156 
Q 2394 2531 2256 2718 
Q 2119 2906 1806 2906 
Q 1569 2906 1367 2781 
Q 1166 2656 1075 2415 
Q 984 2175 984 1722 
L 984 0 
L 422 0 
z
" id="ArialMT-6d" transform="scale(0.015625)"/>
       <path d="M 2694 1069 
L 3275 997 
Q 3138 488 2766 206 
Q 2394 -75 1816 -75 
Q 1088 -75 661 373 
Q 234 822 234 1631 
Q 234 2469 665 2931 
Q 1097 3394 1784 3394 
Q 2450 3394 2872 2941 
Q 3294 2488 3294 1666 
Q 3294 1616 3291 1516 
L 816 1516 
Q 847 969 1125 678 
Q 1403 388 1819 388 
Q 2128 388 2347 550 
Q 2566 713 2694 1069 
z
M 847 1978 
L 2700 1978 
Q 2663 2397 2488 2606 
Q 2219 2931 1791 2931 
Q 1403 2931 1139 2672 
Q 875 2413 847 1978 
z
" id="ArialMT-65" transform="scale(0.015625)"/>
       <path id="ArialMT-20" transform="scale(0.015625)"/>
       <path d="M 213 1659 
Q 213 2581 725 3025 
Q 1153 3394 1769 3394 
Q 2453 3394 2887 2945 
Q 3322 2497 3322 1706 
Q 3322 1066 3130 698 
Q 2938 331 2570 128 
Q 2203 -75 1769 -75 
Q 1072 -75 642 372 
Q 213 819 213 1659 
z
M 791 1659 
Q 791 1022 1069 705 
Q 1347 388 1769 388 
Q 2188 388 2466 706 
Q 2744 1025 2744 1678 
Q 2744 2294 2464 2611 
Q 2184 2928 1769 2928 
Q 1347 2928 1069 2612 
Q 791 2297 791 1659 
z
" id="ArialMT-6f" transform="scale(0.015625)"/>
       <path d="M 1497 -1347 
Q 1031 -759 709 28 
Q 388 816 388 1659 
Q 388 2403 628 3084 
Q 909 3875 1497 4659 
L 1900 4659 
Q 1522 4009 1400 3731 
Q 1209 3300 1100 2831 
Q 966 2247 966 1656 
Q 966 153 1900 -1347 
L 1497 -1347 
z
" id="ArialMT-28" transform="scale(0.015625)"/>
       <path d="M 372 3481 
Q 372 3972 619 4315 
Q 866 4659 1334 4659 
Q 1766 4659 2048 4351 
Q 2331 4044 2331 3447 
Q 2331 2866 2045 2552 
Q 1759 2238 1341 2238 
Q 925 2238 648 2547 
Q 372 2856 372 3481 
z
M 1350 4272 
Q 1141 4272 1002 4090 
Q 863 3909 863 3425 
Q 863 2984 1003 2804 
Q 1144 2625 1350 2625 
Q 1563 2625 1702 2806 
Q 1841 2988 1841 3469 
Q 1841 3913 1700 4092 
Q 1559 4272 1350 4272 
z
M 1353 -169 
L 3859 4659 
L 4316 4659 
L 1819 -169 
L 1353 -169 
z
M 3334 1075 
Q 3334 1569 3581 1911 
Q 3828 2253 4300 2253 
Q 4731 2253 5014 1945 
Q 5297 1638 5297 1041 
Q 5297 459 5011 145 
Q 4725 -169 4303 -169 
Q 3888 -169 3611 142 
Q 3334 453 3334 1075 
z
M 4316 1866 
Q 4103 1866 3964 1684 
Q 3825 1503 3825 1019 
Q 3825 581 3965 400 
Q 4106 219 4313 219 
Q 4528 219 4667 400 
Q 4806 581 4806 1063 
Q 4806 1506 4665 1686 
Q 4525 1866 4316 1866 
z
" id="ArialMT-25" transform="scale(0.015625)"/>
       <path d="M 791 -1347 
L 388 -1347 
Q 1322 153 1322 1656 
Q 1322 2244 1188 2822 
Q 1081 3291 891 3722 
Q 769 4003 388 4659 
L 791 4659 
Q 1378 3875 1659 3084 
Q 1900 2403 1900 1659 
Q 1900 816 1576 28 
Q 1253 -759 791 -1347 
z
" id="ArialMT-29" transform="scale(0.015625)"/>
      </defs>
      <use xlink:href="#ArialMT-46"/>
      <use x="61.083984" xlink:href="#ArialMT-72"/>
      <use x="94.384766" xlink:href="#ArialMT-61"/>
      <use x="150" xlink:href="#ArialMT-6d"/>
      <use x="233.300781" xlink:href="#ArialMT-65"/>
      <use x="288.916016" xlink:href="#ArialMT-20"/>
      <use x="316.699219" xlink:href="#ArialMT-65"/>
      <use x="372.314453" xlink:href="#ArialMT-72"/>
      <use x="405.615234" xlink:href="#ArialMT-72"/>
      <use x="438.916016" xlink:href="#ArialMT-6f"/>
      <use x="494.53125" xlink:href="#ArialMT-72"/>
      <use x="527.832031" xlink:href="#ArialMT-20"/>
      <use x="555.615234" xlink:href="#ArialMT-28"/>
      <use x="588.916016" xlink:href="#ArialMT-25"/>
      <use x="677.832031" xlink:href="#ArialMT-29"/>
     </g>
    </g>
   </g>
   <g id="line2d_15">
    <path clip-path="url(#p005b569016)" d="M 45.508886 126.35341 
L 69.551008 135.723425 
L 93.593129 146.179825 
L 117.63525 151.714044 
L 141.677371 156.398636 
L 165.719492 163.665509 
L 189.761614 161.852927 
" style="fill:none;stroke:#fab0e4;stroke-dasharray:8,3;stroke-dashoffset:0;stroke-opacity:0.65;stroke-width:2;"/>
   </g>
   <g id="line2d_16">
    <path clip-path="url(#p005b569016)" d="M 45.508886 127.715379 
L 69.551008 133.970976 
L 93.593129 142.926895 
L 117.63525 145.663078 
L 141.677371 148.351403 
L 165.719492 155.001257 
L 189.761614 156.402307 
" style="fill:none;stroke:#fab0e4;stroke-dasharray:2,2;stroke-dashoffset:0;stroke-opacity:0.65;stroke-width:2;"/>
   </g>
   <g id="line2d_17">
    <path clip-path="url(#p005b569016)" d="M 45.508886 142.554627 
L 69.551008 148.418374 
L 93.593129 153.448982 
L 117.63525 156.520228 
L 141.677371 158.930218 
L 165.719492 165.531311 
L 189.761614 166.503648 
" style="fill:none;stroke:#fab0e4;stroke-dasharray:6,2.5,3,2.5;stroke-dashoffset:0;stroke-opacity:0.65;stroke-width:2;"/>
   </g>
   <g id="line2d_18">
    <path clip-path="url(#p005b569016)" d="M 45.508886 130.02289 
L 69.551008 146.511005 
L 93.593129 153.991421 
L 117.63525 155.420385 
L 141.677371 159.305317 
L 165.719492 165.131462 
L 189.761614 165.769901 
" style="fill:none;stroke:#fab0e4;stroke-dasharray:10,2,2,2;stroke-dashoffset:0;stroke-opacity:0.65;stroke-width:2;"/>
   </g>
   <g id="line2d_19">
    <path clip-path="url(#p005b569016)" d="M 45.508886 110.833879 
L 69.551008 126.144266 
L 93.593129 114.400118 
L 117.63525 148.945509 
L 141.677371 156.620776 
L 165.719492 170.008196 
L 189.761614 169.803346 
" style="fill:none;stroke:#fab0e4;stroke-dasharray:6,2.5,2.5,2.5,2.5,2.5;stroke-dashoffset:0;stroke-opacity:0.65;stroke-width:2;"/>
   </g>
   <g id="line2d_20">
    <path clip-path="url(#p005b569016)" d="M 45.508886 117.21581 
L 69.551008 132.583618 
L 93.593129 143.579421 
L 117.63525 151.342993 
L 141.677371 153.747456 
L 165.719492 165.078097 
L 189.761614 167.004501 
" style="fill:none;stroke:#fab0e4;stroke-dasharray:8,2,8,2,2,2;stroke-dashoffset:0;stroke-opacity:0.65;stroke-width:2;"/>
   </g>
   <g id="line2d_21">
    <path clip-path="url(#p005b569016)" d="M 45.508886 95.965666 
L 69.551008 104.923019 
L 93.593129 127.670281 
L 117.63525 138.744098 
L 141.677371 140.570981 
L 165.719492 156.171346 
L 189.761614 158.54585 
" style="fill:none;stroke:#fab0e4;stroke-dasharray:6,2.5,6,2.5,2.5,2.5;stroke-dashoffset:0;stroke-opacity:0.65;stroke-width:2;"/>
   </g>
   <g id="line2d_22">
    <path clip-path="url(#p005b569016)" d="M 45.508886 127.825937 
L 69.551008 135.041374 
L 93.593129 151.048647 
L 117.63525 154.219088 
L 141.677371 157.248467 
L 165.719492 167.199515 
L 189.761614 169.350386 
" style="fill:none;stroke:#fab0e4;stroke-dasharray:8,2,2,2,2,2;stroke-dashoffset:0;stroke-opacity:0.65;stroke-width:2;"/>
   </g>
   <g id="line2d_23">
    <path clip-path="url(#p005b569016)" d="M 45.508886 122.31095 
L 69.551008 132.914507 
L 93.593129 141.655699 
L 117.63525 150.321178 
L 141.677371 153.896657 
L 165.719492 163.473337 
L 189.761614 164.404108 
" style="fill:none;stroke:#cc78bc;stroke-linecap:square;stroke-width:4;"/>
    <defs>
     <path d="M -0 2.4 
L 2.4 -2.4 
L -2.4 -2.4 
z
" id="mdc3d017a75" style="stroke:#ffffff;stroke-linejoin:miter;stroke-width:0.75;"/>
    </defs>
    <g clip-path="url(#p005b569016)">
     <use style="fill:#cc78bc;stroke:#ffffff;stroke-linejoin:miter;stroke-width:0.75;" x="45.508886" xlink:href="#mdc3d017a75" y="122.31095"/>
     <use style="fill:#cc78bc;stroke:#ffffff;stroke-linejoin:miter;stroke-width:0.75;" x="69.551008" xlink:href="#mdc3d017a75" y="132.914507"/>
     <use style="fill:#cc78bc;stroke:#ffffff;stroke-linejoin:miter;stroke-width:0.75;" x="93.593129" xlink:href="#mdc3d017a75" y="141.655699"/>
     <use style="fill:#cc78bc;stroke:#ffffff;stroke-linejoin:miter;stroke-width:0.75;" x="117.63525" xlink:href="#mdc3d017a75" y="150.321178"/>
     <use style="fill:#cc78bc;stroke:#ffffff;stroke-linejoin:miter;stroke-width:0.75;" x="141.677371" xlink:href="#mdc3d017a75" y="153.896657"/>
     <use style="fill:#cc78bc;stroke:#ffffff;stroke-linejoin:miter;stroke-width:0.75;" x="165.719492" xlink:href="#mdc3d017a75" y="163.473337"/>
     <use style="fill:#cc78bc;stroke:#ffffff;stroke-linejoin:miter;stroke-width:0.75;" x="189.761614" xlink:href="#mdc3d017a75" y="164.404108"/>
    </g>
   </g>
   <g id="patch_3">
    <path d="M 38.29625 215.167564 
L 38.29625 20.0715 
" style="fill:none;stroke:#000000;stroke-linecap:square;stroke-linejoin:miter;"/>
   </g>
   <g id="patch_4">
    <path d="M 38.29625 215.167564 
L 196.97425 215.167564 
" style="fill:none;stroke:#000000;stroke-linecap:square;stroke-linejoin:miter;"/>
   </g>
   <g id="patch_5">
    <path d="M 205.509532 162.769592 
Q 202.223365 163.398897 199.815663 163.859974 
" style="fill:none;stroke:#000000;stroke-linecap:round;stroke-width:0.8;"/>
    <path d="M 203.948251 165.023468 
L 199.815663 163.859974 
L 203.22601 161.252 
" style="fill:none;stroke:#000000;stroke-linecap:round;stroke-width:0.8;"/>
   </g>
   <g id="text_9">
    <!-- 1.56% -->
    <g transform="translate(209.47425 161.885858)scale(0.096 -0.096)">
     <defs>
      <path d="M 581 0 
L 581 641 
L 1222 641 
L 1222 0 
L 581 0 
z
" id="ArialMT-2e" transform="scale(0.015625)"/>
     </defs>
     <use xlink:href="#ArialMT-31"/>
     <use x="55.615234" xlink:href="#ArialMT-2e"/>
     <use x="83.398438" xlink:href="#ArialMT-35"/>
     <use x="139.013672" xlink:href="#ArialMT-36"/>
     <use x="194.628906" xlink:href="#ArialMT-25"/>
    </g>
   </g>
   <g id="text_10">
    <!-- Bengalese Finches -->
    <g transform="translate(76.812 14.0715)scale(0.096 -0.096)">
     <defs>
      <path d="M 469 0 
L 469 4581 
L 2188 4581 
Q 2713 4581 3030 4442 
Q 3347 4303 3526 4014 
Q 3706 3725 3706 3409 
Q 3706 3116 3547 2856 
Q 3388 2597 3066 2438 
Q 3481 2316 3704 2022 
Q 3928 1728 3928 1328 
Q 3928 1006 3792 729 
Q 3656 453 3456 303 
Q 3256 153 2954 76 
Q 2653 0 2216 0 
L 469 0 
z
M 1075 2656 
L 2066 2656 
Q 2469 2656 2644 2709 
Q 2875 2778 2992 2937 
Q 3109 3097 3109 3338 
Q 3109 3566 3000 3739 
Q 2891 3913 2687 3977 
Q 2484 4041 1991 4041 
L 1075 4041 
L 1075 2656 
z
M 1075 541 
L 2216 541 
Q 2509 541 2628 563 
Q 2838 600 2978 687 
Q 3119 775 3209 942 
Q 3300 1109 3300 1328 
Q 3300 1584 3169 1773 
Q 3038 1963 2805 2039 
Q 2572 2116 2134 2116 
L 1075 2116 
L 1075 541 
z
" id="ArialMT-42" transform="scale(0.015625)"/>
      <path d="M 422 0 
L 422 3319 
L 928 3319 
L 928 2847 
Q 1294 3394 1984 3394 
Q 2284 3394 2536 3286 
Q 2788 3178 2913 3003 
Q 3038 2828 3088 2588 
Q 3119 2431 3119 2041 
L 3119 0 
L 2556 0 
L 2556 2019 
Q 2556 2363 2490 2533 
Q 2425 2703 2258 2804 
Q 2091 2906 1866 2906 
Q 1506 2906 1245 2678 
Q 984 2450 984 1813 
L 984 0 
L 422 0 
z
" id="ArialMT-6e" transform="scale(0.015625)"/>
      <path d="M 319 -275 
L 866 -356 
Q 900 -609 1056 -725 
Q 1266 -881 1628 -881 
Q 2019 -881 2231 -725 
Q 2444 -569 2519 -288 
Q 2563 -116 2559 434 
Q 2191 0 1641 0 
Q 956 0 581 494 
Q 206 988 206 1678 
Q 206 2153 378 2554 
Q 550 2956 876 3175 
Q 1203 3394 1644 3394 
Q 2231 3394 2613 2919 
L 2613 3319 
L 3131 3319 
L 3131 450 
Q 3131 -325 2973 -648 
Q 2816 -972 2473 -1159 
Q 2131 -1347 1631 -1347 
Q 1038 -1347 672 -1080 
Q 306 -813 319 -275 
z
M 784 1719 
Q 784 1066 1043 766 
Q 1303 466 1694 466 
Q 2081 466 2343 764 
Q 2606 1063 2606 1700 
Q 2606 2309 2336 2618 
Q 2066 2928 1684 2928 
Q 1309 2928 1046 2623 
Q 784 2319 784 1719 
z
" id="ArialMT-67" transform="scale(0.015625)"/>
      <path d="M 409 0 
L 409 4581 
L 972 4581 
L 972 0 
L 409 0 
z
" id="ArialMT-6c" transform="scale(0.015625)"/>
      <path d="M 197 991 
L 753 1078 
Q 800 744 1014 566 
Q 1228 388 1613 388 
Q 2000 388 2187 545 
Q 2375 703 2375 916 
Q 2375 1106 2209 1216 
Q 2094 1291 1634 1406 
Q 1016 1563 777 1677 
Q 538 1791 414 1992 
Q 291 2194 291 2438 
Q 291 2659 392 2848 
Q 494 3038 669 3163 
Q 800 3259 1026 3326 
Q 1253 3394 1513 3394 
Q 1903 3394 2198 3281 
Q 2494 3169 2634 2976 
Q 2775 2784 2828 2463 
L 2278 2388 
Q 2241 2644 2061 2787 
Q 1881 2931 1553 2931 
Q 1166 2931 1000 2803 
Q 834 2675 834 2503 
Q 834 2394 903 2306 
Q 972 2216 1119 2156 
Q 1203 2125 1616 2013 
Q 2213 1853 2448 1751 
Q 2684 1650 2818 1456 
Q 2953 1263 2953 975 
Q 2953 694 2789 445 
Q 2625 197 2315 61 
Q 2006 -75 1616 -75 
Q 969 -75 630 194 
Q 291 463 197 991 
z
" id="ArialMT-73" transform="scale(0.015625)"/>
      <path d="M 425 3934 
L 425 4581 
L 988 4581 
L 988 3934 
L 425 3934 
z
M 425 0 
L 425 3319 
L 988 3319 
L 988 0 
L 425 0 
z
" id="ArialMT-69" transform="scale(0.015625)"/>
      <path d="M 2588 1216 
L 3141 1144 
Q 3050 572 2676 248 
Q 2303 -75 1759 -75 
Q 1078 -75 664 370 
Q 250 816 250 1647 
Q 250 2184 428 2587 
Q 606 2991 970 3192 
Q 1334 3394 1763 3394 
Q 2303 3394 2647 3120 
Q 2991 2847 3088 2344 
L 2541 2259 
Q 2463 2594 2264 2762 
Q 2066 2931 1784 2931 
Q 1359 2931 1093 2626 
Q 828 2322 828 1663 
Q 828 994 1084 691 
Q 1341 388 1753 388 
Q 2084 388 2306 591 
Q 2528 794 2588 1216 
z
" id="ArialMT-63" transform="scale(0.015625)"/>
      <path d="M 422 0 
L 422 4581 
L 984 4581 
L 984 2938 
Q 1378 3394 1978 3394 
Q 2347 3394 2619 3248 
Q 2891 3103 3008 2847 
Q 3125 2591 3125 2103 
L 3125 0 
L 2563 0 
L 2563 2103 
Q 2563 2525 2380 2717 
Q 2197 2909 1863 2909 
Q 1613 2909 1392 2779 
Q 1172 2650 1078 2428 
Q 984 2206 984 1816 
L 984 0 
L 422 0 
z
" id="ArialMT-68" transform="scale(0.015625)"/>
     </defs>
     <use xlink:href="#ArialMT-42"/>
     <use x="66.699219" xlink:href="#ArialMT-65"/>
     <use x="122.314453" xlink:href="#ArialMT-6e"/>
     <use x="177.929688" xlink:href="#ArialMT-67"/>
     <use x="233.544922" xlink:href="#ArialMT-61"/>
     <use x="289.160156" xlink:href="#ArialMT-6c"/>
     <use x="311.376953" xlink:href="#ArialMT-65"/>
     <use x="366.992188" xlink:href="#ArialMT-73"/>
     <use x="416.992188" xlink:href="#ArialMT-65"/>
     <use x="472.607422" xlink:href="#ArialMT-20"/>
     <use x="500.390625" xlink:href="#ArialMT-46"/>
     <use x="561.474609" xlink:href="#ArialMT-69"/>
     <use x="583.691406" xlink:href="#ArialMT-6e"/>
     <use x="639.306641" xlink:href="#ArialMT-63"/>
     <use x="689.306641" xlink:href="#ArialMT-68"/>
     <use x="744.921875" xlink:href="#ArialMT-65"/>
     <use x="800.537109" xlink:href="#ArialMT-73"/>
    </g>
   </g>
  </g>
  <g id="axes_2">
   <g id="patch_6">
    <path d="M 265.22225 215.167564 
L 423.90025 215.167564 
L 423.90025 20.0715 
L 265.22225 20.0715 
z
" style="fill:#ffffff;"/>
   </g>
   <g id="PolyCollection_9">
    <defs>
     <path d="M 301.285432 -372.312193 
L 301.285432 -345.397926 
L 315.710705 -325.259901 
L 330.135977 -325.250975 
L 344.56125 -314.618053 
L 358.986523 -329.292765 
L 373.411795 -320.778053 
L 387.837068 -317.088944 
L 402.262341 -316.573983 
L 416.687614 -314.284876 
L 416.687614 -326.24551 
L 416.687614 -326.24551 
L 402.262341 -331.830526 
L 387.837068 -329.955091 
L 373.411795 -332.859307 
L 358.986523 -336.922168 
L 344.56125 -353.551519 
L 330.135977 -354.695394 
L 315.710705 -372.191752 
L 301.285432 -372.312193 
z
" id="m6ff0f1bf17" style="stroke:#cfcfcf;stroke-opacity:0.2;stroke-width:0.8;"/>
    </defs>
    <g clip-path="url(#p8e5a39d9dc)">
     <use style="fill:#cfcfcf;fill-opacity:0.2;stroke:#cfcfcf;stroke-opacity:0.2;stroke-width:0.8;" x="0" xlink:href="#m6ff0f1bf17" y="468.468503"/>
    </g>
   </g>
   <g id="PolyCollection_10">
    <defs>
     <path d="M 301.285432 -397.813568 
L 301.285432 -372.931693 
L 315.710705 -358.665521 
L 330.135977 -352.446703 
L 344.56125 -354.18042 
L 358.986523 -349.055304 
L 373.411795 -351.509034 
L 387.837068 -351.305215 
L 402.262341 -340.351349 
L 416.687614 -333.29844 
L 416.687614 -371.946034 
L 416.687614 -371.946034 
L 402.262341 -373.119952 
L 387.837068 -368.189831 
L 373.411795 -406.94224 
L 358.986523 -386.063858 
L 344.56125 -379.76009 
L 330.135977 -370.490963 
L 315.710705 -388.746828 
L 301.285432 -397.813568 
z
" id="m21df5c15d8" style="stroke:#cfcfcf;stroke-opacity:0.2;stroke-width:0.8;"/>
    </defs>
    <g clip-path="url(#p8e5a39d9dc)">
     <use style="fill:#cfcfcf;fill-opacity:0.2;stroke:#cfcfcf;stroke-opacity:0.2;stroke-width:0.8;" x="0" xlink:href="#m21df5c15d8" y="468.468503"/>
    </g>
   </g>
   <g id="PolyCollection_11">
    <defs>
     <path d="M 272.434886 -479.305312 
L 272.434886 -428.292212 
L 286.860159 -405.021486 
L 315.710705 -390.428712 
L 330.135977 -386.536385 
L 344.56125 -382.025284 
L 358.986523 -379.476641 
L 373.411795 -370.352425 
L 387.837068 -380.048806 
L 402.262341 -372.869945 
L 416.687614 -363.736812 
L 416.687614 -378.609273 
L 416.687614 -378.609273 
L 402.262341 -387.081789 
L 387.837068 -395.864956 
L 373.411795 -392.105752 
L 358.986523 -399.00974 
L 344.56125 -408.219039 
L 330.135977 -420.261248 
L 315.710705 -430.302729 
L 286.860159 -442.88317 
L 272.434886 -479.305312 
z
" id="m383c4e4728" style="stroke:#cfcfcf;stroke-opacity:0.2;stroke-width:0.8;"/>
    </defs>
    <g clip-path="url(#p8e5a39d9dc)">
     <use style="fill:#cfcfcf;fill-opacity:0.2;stroke:#cfcfcf;stroke-opacity:0.2;stroke-width:0.8;" x="0" xlink:href="#m383c4e4728" y="468.468503"/>
    </g>
   </g>
   <g id="matplotlib.axis_3">
    <g id="xtick_8">
     <g id="line2d_24">
      <g>
       <use style="stroke:#000000;" x="272.434886" xlink:href="#m262860d744" y="215.167564"/>
      </g>
     </g>
    </g>
    <g id="xtick_9">
     <g id="line2d_25">
      <g>
       <use style="stroke:#000000;" x="286.860159" xlink:href="#m262860d744" y="215.167564"/>
      </g>
     </g>
    </g>
    <g id="xtick_10">
     <g id="line2d_26">
      <g>
       <use style="stroke:#000000;" x="301.285432" xlink:href="#m262860d744" y="215.167564"/>
      </g>
     </g>
    </g>
    <g id="xtick_11">
     <g id="line2d_27">
      <g>
       <use style="stroke:#000000;" x="315.710705" xlink:href="#m262860d744" y="215.167564"/>
      </g>
     </g>
    </g>
    <g id="xtick_12">
     <g id="line2d_28">
      <g>
       <use style="stroke:#000000;" x="330.135977" xlink:href="#m262860d744" y="215.167564"/>
      </g>
     </g>
    </g>
    <g id="xtick_13">
     <g id="line2d_29">
      <g>
       <use style="stroke:#000000;" x="344.56125" xlink:href="#m262860d744" y="215.167564"/>
      </g>
     </g>
    </g>
    <g id="xtick_14">
     <g id="line2d_30">
      <g>
       <use style="stroke:#000000;" x="358.986523" xlink:href="#m262860d744" y="215.167564"/>
      </g>
     </g>
    </g>
    <g id="xtick_15">
     <g id="line2d_31">
      <g>
       <use style="stroke:#000000;" x="373.411795" xlink:href="#m262860d744" y="215.167564"/>
      </g>
     </g>
    </g>
    <g id="xtick_16">
     <g id="line2d_32">
      <g>
       <use style="stroke:#000000;" x="387.837068" xlink:href="#m262860d744" y="215.167564"/>
      </g>
     </g>
    </g>
    <g id="xtick_17">
     <g id="line2d_33">
      <g>
       <use style="stroke:#000000;" x="402.262341" xlink:href="#m262860d744" y="215.167564"/>
      </g>
     </g>
    </g>
    <g id="xtick_18">
     <g id="line2d_34">
      <g>
       <use style="stroke:#000000;" x="416.687614" xlink:href="#m262860d744" y="215.167564"/>
      </g>
     </g>
    </g>
   </g>
   <g id="matplotlib.axis_4">
    <g id="ytick_8">
     <g id="line2d_35">
      <g>
       <use style="stroke:#000000;" x="265.22225" xlink:href="#mcf2b525df7" y="215.167564"/>
      </g>
     </g>
     <g id="text_11">
      <!-- 0 -->
      <g transform="translate(252.028625 218.317001)scale(0.088 -0.088)">
       <use xlink:href="#ArialMT-30"/>
      </g>
     </g>
    </g>
    <g id="ytick_9">
     <g id="line2d_36">
      <g>
       <use style="stroke:#000000;" x="265.22225" xlink:href="#mcf2b525df7" y="182.651553"/>
      </g>
     </g>
     <g id="text_12">
      <!-- 1 -->
      <g transform="translate(252.028625 185.800991)scale(0.088 -0.088)">
       <use xlink:href="#ArialMT-31"/>
      </g>
     </g>
    </g>
    <g id="ytick_10">
     <g id="line2d_37">
      <g>
       <use style="stroke:#000000;" x="265.22225" xlink:href="#mcf2b525df7" y="150.135543"/>
      </g>
     </g>
     <g id="text_13">
      <!-- 2 -->
      <g transform="translate(252.028625 153.28498)scale(0.088 -0.088)">
       <use xlink:href="#ArialMT-32"/>
      </g>
     </g>
    </g>
    <g id="ytick_11">
     <g id="line2d_38">
      <g>
       <use style="stroke:#000000;" x="265.22225" xlink:href="#mcf2b525df7" y="117.619532"/>
      </g>
     </g>
     <g id="text_14">
      <!-- 3 -->
      <g transform="translate(252.028625 120.768969)scale(0.088 -0.088)">
       <use xlink:href="#ArialMT-33"/>
      </g>
     </g>
    </g>
    <g id="ytick_12">
     <g id="line2d_39">
      <g>
       <use style="stroke:#000000;" x="265.22225" xlink:href="#mcf2b525df7" y="85.103521"/>
      </g>
     </g>
     <g id="text_15">
      <!-- 4 -->
      <g transform="translate(252.028625 88.252959)scale(0.088 -0.088)">
       <use xlink:href="#ArialMT-34"/>
      </g>
     </g>
    </g>
    <g id="ytick_13">
     <g id="line2d_40">
      <g>
       <use style="stroke:#000000;" x="265.22225" xlink:href="#mcf2b525df7" y="52.587511"/>
      </g>
     </g>
     <g id="text_16">
      <!-- 5 -->
      <g transform="translate(252.028625 55.736948)scale(0.088 -0.088)">
       <use xlink:href="#ArialMT-35"/>
      </g>
     </g>
    </g>
    <g id="ytick_14">
     <g id="line2d_41">
      <g>
       <use style="stroke:#000000;" x="265.22225" xlink:href="#mcf2b525df7" y="20.0715"/>
      </g>
     </g>
     <g id="text_17">
      <!-- 6 -->
      <g transform="translate(252.028625 23.220937)scale(0.088 -0.088)">
       <use xlink:href="#ArialMT-36"/>
      </g>
     </g>
    </g>
   </g>
   <g id="line2d_42">
    <path clip-path="url(#p8e5a39d9dc)" d="M 301.285432 109.613443 
L 315.710705 119.742676 
L 330.135977 128.495318 
L 344.56125 134.383717 
L 358.986523 135.361037 
L 373.411795 141.649823 
L 387.837068 144.946485 
L 402.262341 144.266248 
L 416.687614 148.203309 
" style="fill:none;stroke:#cfcfcf;stroke-dasharray:8,3;stroke-dashoffset:0;stroke-opacity:0.65;stroke-width:2;"/>
   </g>
   <g id="line2d_43">
    <path clip-path="url(#p8e5a39d9dc)" d="M 301.285432 83.095872 
L 315.710705 94.762328 
L 330.135977 106.99967 
L 344.56125 101.498248 
L 358.986523 100.908922 
L 373.411795 89.242866 
L 387.837068 108.72098 
L 402.262341 111.732852 
L 416.687614 115.846266 
" style="fill:none;stroke:#cfcfcf;stroke-dasharray:2,2;stroke-dashoffset:0;stroke-opacity:0.65;stroke-width:2;"/>
   </g>
   <g id="line2d_44">
    <path clip-path="url(#p8e5a39d9dc)" d="M 272.434886 14.669741 
L 286.860159 44.516175 
L 315.710705 58.102782 
L 330.135977 65.069686 
L 344.56125 73.346341 
L 358.986523 79.225313 
L 373.411795 87.239414 
L 387.837068 80.511622 
L 402.262341 88.492635 
L 416.687614 97.29546 
" style="fill:none;stroke:#cfcfcf;stroke-dasharray:6,2.5,3,2.5;stroke-dashoffset:0;stroke-opacity:0.65;stroke-width:2;"/>
   </g>
   <g id="line2d_45">
    <path clip-path="url(#p8e5a39d9dc)" d="M 301.285432 96.354658 
L 315.710705 90.869262 
L 330.135977 100.188225 
L 344.56125 103.076102 
L 358.986523 105.16509 
L 373.411795 106.044034 
L 387.837068 111.393029 
L 402.262341 114.830579 
L 416.687614 120.448345 
" style="fill:none;stroke:#949494;stroke-linecap:square;stroke-width:4;"/>
    <defs>
     <path d="M -0 2.4 
L 2.4 -2.4 
L -2.4 -2.4 
z
" id="m72a95f81b2" style="stroke:#ffffff;stroke-linejoin:miter;stroke-width:0.75;"/>
    </defs>
    <g clip-path="url(#p8e5a39d9dc)">
     <use style="fill:#949494;stroke:#ffffff;stroke-linejoin:miter;stroke-width:0.75;" x="301.285432" xlink:href="#m72a95f81b2" y="96.354658"/>
     <use style="fill:#949494;stroke:#ffffff;stroke-linejoin:miter;stroke-width:0.75;" x="315.710705" xlink:href="#m72a95f81b2" y="90.869262"/>
     <use style="fill:#949494;stroke:#ffffff;stroke-linejoin:miter;stroke-width:0.75;" x="330.135977" xlink:href="#m72a95f81b2" y="100.188225"/>
     <use style="fill:#949494;stroke:#ffffff;stroke-linejoin:miter;stroke-width:0.75;" x="344.56125" xlink:href="#m72a95f81b2" y="103.076102"/>
     <use style="fill:#949494;stroke:#ffffff;stroke-linejoin:miter;stroke-width:0.75;" x="358.986523" xlink:href="#m72a95f81b2" y="105.16509"/>
     <use style="fill:#949494;stroke:#ffffff;stroke-linejoin:miter;stroke-width:0.75;" x="373.411795" xlink:href="#m72a95f81b2" y="106.044034"/>
     <use style="fill:#949494;stroke:#ffffff;stroke-linejoin:miter;stroke-width:0.75;" x="387.837068" xlink:href="#m72a95f81b2" y="111.393029"/>
     <use style="fill:#949494;stroke:#ffffff;stroke-linejoin:miter;stroke-width:0.75;" x="402.262341" xlink:href="#m72a95f81b2" y="114.830579"/>
     <use style="fill:#949494;stroke:#ffffff;stroke-linejoin:miter;stroke-width:0.75;" x="416.687614" xlink:href="#m72a95f81b2" y="120.448345"/>
    </g>
   </g>
   <g id="patch_7">
    <path d="M 265.22225 215.167564 
L 265.22225 20.0715 
" style="fill:none;stroke:#000000;stroke-linecap:square;stroke-linejoin:miter;"/>
   </g>
   <g id="patch_8">
    <path d="M 265.22225 215.167564 
L 423.90025 215.167564 
" style="fill:none;stroke:#000000;stroke-linecap:square;stroke-linejoin:miter;"/>
   </g>
   <g id="patch_9">
    <path d="M 432.435532 118.813829 
Q 429.149365 119.443133 426.741663 119.904211 
" style="fill:none;stroke:#000000;stroke-linecap:round;stroke-width:0.8;"/>
    <path d="M 430.874251 121.067705 
L 426.741663 119.904211 
L 430.15201 117.296237 
" style="fill:none;stroke:#000000;stroke-linecap:round;stroke-width:0.8;"/>
   </g>
   <g id="text_18">
    <!-- 2.91% -->
    <g transform="translate(436.40025 117.930095)scale(0.096 -0.096)">
     <defs>
      <path d="M 350 1059 
L 891 1109 
Q 959 728 1153 556 
Q 1347 384 1650 384 
Q 1909 384 2104 503 
Q 2300 622 2425 820 
Q 2550 1019 2634 1356 
Q 2719 1694 2719 2044 
Q 2719 2081 2716 2156 
Q 2547 1888 2255 1720 
Q 1963 1553 1622 1553 
Q 1053 1553 659 1965 
Q 266 2378 266 3053 
Q 266 3750 677 4175 
Q 1088 4600 1706 4600 
Q 2153 4600 2523 4359 
Q 2894 4119 3086 3673 
Q 3278 3228 3278 2384 
Q 3278 1506 3087 986 
Q 2897 466 2520 194 
Q 2144 -78 1638 -78 
Q 1100 -78 759 220 
Q 419 519 350 1059 
z
M 2653 3081 
Q 2653 3566 2395 3850 
Q 2138 4134 1775 4134 
Q 1400 4134 1122 3828 
Q 844 3522 844 3034 
Q 844 2597 1108 2323 
Q 1372 2050 1759 2050 
Q 2150 2050 2401 2323 
Q 2653 2597 2653 3081 
z
" id="ArialMT-39" transform="scale(0.015625)"/>
     </defs>
     <use xlink:href="#ArialMT-32"/>
     <use x="55.615234" xlink:href="#ArialMT-2e"/>
     <use x="83.398438" xlink:href="#ArialMT-39"/>
     <use x="139.013672" xlink:href="#ArialMT-31"/>
     <use x="194.628906" xlink:href="#ArialMT-25"/>
    </g>
   </g>
   <g id="text_19">
    <!-- Canaries -->
    <g transform="translate(325.353 14.0715)scale(0.096 -0.096)">
     <defs>
      <path d="M 3763 1606 
L 4369 1453 
Q 4178 706 3683 314 
Q 3188 -78 2472 -78 
Q 1731 -78 1267 223 
Q 803 525 561 1097 
Q 319 1669 319 2325 
Q 319 3041 592 3573 
Q 866 4106 1370 4382 
Q 1875 4659 2481 4659 
Q 3169 4659 3637 4309 
Q 4106 3959 4291 3325 
L 3694 3184 
Q 3534 3684 3231 3912 
Q 2928 4141 2469 4141 
Q 1941 4141 1586 3887 
Q 1231 3634 1087 3207 
Q 944 2781 944 2328 
Q 944 1744 1114 1308 
Q 1284 872 1643 656 
Q 2003 441 2422 441 
Q 2931 441 3284 734 
Q 3638 1028 3763 1606 
z
" id="ArialMT-43" transform="scale(0.015625)"/>
     </defs>
     <use xlink:href="#ArialMT-43"/>
     <use x="72.216797" xlink:href="#ArialMT-61"/>
     <use x="127.832031" xlink:href="#ArialMT-6e"/>
     <use x="183.447266" xlink:href="#ArialMT-61"/>
     <use x="239.0625" xlink:href="#ArialMT-72"/>
     <use x="272.363281" xlink:href="#ArialMT-69"/>
     <use x="294.580078" xlink:href="#ArialMT-65"/>
     <use x="350.195312" xlink:href="#ArialMT-73"/>
    </g>
   </g>
  </g>
  <g id="axes_3">
   <g id="patch_10">
    <path d="M 38.29625 425.911628 
L 196.97425 425.911628 
L 196.97425 230.815564 
L 38.29625 230.815564 
z
" style="fill:#ffffff;"/>
   </g>
   <g id="PolyCollection_12">
    <defs>
     <path d="M 45.508886 -97.999341 
L 45.508886 -86.65711 
L 69.551008 -76.990884 
L 93.593129 -69.154284 
L 117.63525 -65.35202 
L 141.677371 -61.368479 
L 165.719492 -58.672264 
L 189.761614 -58.36301 
L 189.761614 -65.981993 
L 189.761614 -65.981993 
L 165.719492 -62.276141 
L 141.677371 -71.535963 
L 117.63525 -73.753629 
L 93.593129 -83.068141 
L 69.551008 -90.553281 
L 45.508886 -97.999341 
z
" id="me5fc2b0f45" style="stroke:#fab0e4;stroke-opacity:0.2;stroke-width:0.8;"/>
    </defs>
    <g clip-path="url(#pacfd0a9752)">
     <use style="fill:#fab0e4;fill-opacity:0.2;stroke:#fab0e4;stroke-opacity:0.2;stroke-width:0.8;" x="0" xlink:href="#me5fc2b0f45" y="468.468503"/>
    </g>
   </g>
   <g id="PolyCollection_13">
    <defs>
     <path d="M 45.508886 -81.996292 
L 45.508886 -61.351253 
L 69.551008 -57.581627 
L 93.593129 -54.973969 
L 117.63525 -54.578365 
L 141.677371 -53.399957 
L 165.719492 -49.807521 
L 189.761614 -50.030759 
L 189.761614 -54.984443 
L 189.761614 -54.984443 
L 165.719492 -55.409217 
L 141.677371 -58.221479 
L 117.63525 -60.765735 
L 93.593129 -60.65607 
L 69.551008 -78.164242 
L 45.508886 -81.996292 
z
" id="m6069d87b6a" style="stroke:#fab0e4;stroke-opacity:0.2;stroke-width:0.8;"/>
    </defs>
    <g clip-path="url(#pacfd0a9752)">
     <use style="fill:#fab0e4;fill-opacity:0.2;stroke:#fab0e4;stroke-opacity:0.2;stroke-width:0.8;" x="0" xlink:href="#m6069d87b6a" y="468.468503"/>
    </g>
   </g>
   <g id="PolyCollection_14">
    <defs>
     <path d="M 45.508886 -65.657259 
L 45.508886 -52.246181 
L 69.551008 -51.779413 
L 93.593129 -51.560664 
L 117.63525 -46.619809 
L 141.677371 -48.111347 
L 165.719492 -45.841064 
L 189.761614 -45.804468 
L 189.761614 -47.878522 
L 189.761614 -47.878522 
L 165.719492 -47.554594 
L 141.677371 -52.038534 
L 117.63525 -54.524741 
L 93.593129 -56.137456 
L 69.551008 -60.145472 
L 45.508886 -65.657259 
z
" id="m1edaac0233" style="stroke:#fab0e4;stroke-opacity:0.2;stroke-width:0.8;"/>
    </defs>
    <g clip-path="url(#pacfd0a9752)">
     <use style="fill:#fab0e4;fill-opacity:0.2;stroke:#fab0e4;stroke-opacity:0.2;stroke-width:0.8;" x="0" xlink:href="#m1edaac0233" y="468.468503"/>
    </g>
   </g>
   <g id="PolyCollection_15">
    <defs>
     <path d="M 45.508886 -85.584029 
L 45.508886 -49.240629 
L 69.551008 -52.685707 
L 93.593129 -49.343959 
L 117.63525 -48.781655 
L 141.677371 -46.715627 
L 165.719492 -45.420509 
L 189.761614 -44.905592 
L 189.761614 -47.433984 
L 189.761614 -47.433984 
L 165.719492 -46.825552 
L 141.677371 -50.087767 
L 117.63525 -51.657758 
L 93.593129 -52.727606 
L 69.551008 -60.184753 
L 45.508886 -85.584029 
z
" id="m5ac1ef67b1" style="stroke:#fab0e4;stroke-opacity:0.2;stroke-width:0.8;"/>
    </defs>
    <g clip-path="url(#pacfd0a9752)">
     <use style="fill:#fab0e4;fill-opacity:0.2;stroke:#fab0e4;stroke-opacity:0.2;stroke-width:0.8;" x="0" xlink:href="#m5ac1ef67b1" y="468.468503"/>
    </g>
   </g>
   <g id="PolyCollection_16">
    <defs>
     <path d="M 45.508886 -137.201963 
L 45.508886 -80.573911 
L 69.551008 -77.102482 
L 93.593129 -44.678703 
L 117.63525 -51.83195 
L 141.677371 -46.945872 
L 165.719492 -46.224335 
L 189.761614 -46.723917 
L 189.761614 -55.078509 
L 189.761614 -55.078509 
L 165.719492 -49.90537 
L 141.677371 -75.815173 
L 117.63525 -82.601812 
L 93.593129 -149.944722 
L 69.551008 -119.629533 
L 45.508886 -137.201963 
z
" id="mf1cf7e2892" style="stroke:#fab0e4;stroke-opacity:0.2;stroke-width:0.8;"/>
    </defs>
    <g clip-path="url(#pacfd0a9752)">
     <use style="fill:#fab0e4;fill-opacity:0.2;stroke:#fab0e4;stroke-opacity:0.2;stroke-width:0.8;" x="0" xlink:href="#mf1cf7e2892" y="468.468503"/>
    </g>
   </g>
   <g id="PolyCollection_17">
    <defs>
     <path d="M 45.508886 -138.646442 
L 45.508886 -101.675019 
L 69.551008 -92.439885 
L 93.593129 -83.87719 
L 117.63525 -76.584563 
L 141.677371 -76.813792 
L 165.719492 -66.823823 
L 189.761614 -65.965632 
L 189.761614 -76.146817 
L 189.761614 -76.146817 
L 165.719492 -76.205281 
L 141.677371 -91.09026 
L 117.63525 -94.113597 
L 93.593129 -110.743474 
L 69.551008 -130.775579 
L 45.508886 -138.646442 
z
" id="mab5028cfd7" style="stroke:#fab0e4;stroke-opacity:0.2;stroke-width:0.8;"/>
    </defs>
    <g clip-path="url(#pacfd0a9752)">
     <use style="fill:#fab0e4;fill-opacity:0.2;stroke:#fab0e4;stroke-opacity:0.2;stroke-width:0.8;" x="0" xlink:href="#mab5028cfd7" y="468.468503"/>
    </g>
   </g>
   <g id="PolyCollection_18">
    <defs>
     <path d="M 45.508886 -116.067493 
L 45.508886 -89.657962 
L 69.551008 -78.37279 
L 93.593129 -67.147068 
L 117.63525 -60.579748 
L 141.677371 -58.832503 
L 165.719492 -51.306777 
L 189.761614 -50.973782 
L 189.761614 -55.162378 
L 189.761614 -55.162378 
L 165.719492 -57.821758 
L 141.677371 -65.025847 
L 117.63525 -70.935749 
L 93.593129 -81.03775 
L 69.551008 -104.462422 
L 45.508886 -116.067493 
z
" id="m9d76a9e3cf" style="stroke:#fab0e4;stroke-opacity:0.2;stroke-width:0.8;"/>
    </defs>
    <g clip-path="url(#pacfd0a9752)">
     <use style="fill:#fab0e4;fill-opacity:0.2;stroke:#fab0e4;stroke-opacity:0.2;stroke-width:0.8;" x="0" xlink:href="#m9d76a9e3cf" y="468.468503"/>
    </g>
   </g>
   <g id="PolyCollection_19">
    <defs>
     <path d="M 45.508886 -100.065207 
L 45.508886 -80.812411 
L 69.551008 -73.219063 
L 93.593129 -63.654902 
L 117.63525 -61.580523 
L 141.677371 -60.438306 
L 165.719492 -51.535138 
L 189.761614 -48.587488 
L 189.761614 -55.096391 
L 189.761614 -55.096391 
L 165.719492 -57.239922 
L 141.677371 -69.142749 
L 117.63525 -74.220838 
L 93.593129 -73.165509 
L 69.551008 -88.814459 
L 45.508886 -100.065207 
z
" id="md770747503" style="stroke:#fab0e4;stroke-opacity:0.2;stroke-width:0.8;"/>
    </defs>
    <g clip-path="url(#pacfd0a9752)">
     <use style="fill:#fab0e4;fill-opacity:0.2;stroke:#fab0e4;stroke-opacity:0.2;stroke-width:0.8;" x="0" xlink:href="#md770747503" y="468.468503"/>
    </g>
   </g>
   <g id="matplotlib.axis_5">
    <g id="xtick_19">
     <g id="line2d_46">
      <g>
       <use style="stroke:#000000;" x="45.508886" xlink:href="#m262860d744" y="425.911628"/>
      </g>
     </g>
     <g id="text_20">
      <!-- 30 -->
      <g transform="translate(43.657195 445.586236)rotate(-45)scale(0.088 -0.088)">
       <use xlink:href="#ArialMT-33"/>
       <use x="55.615234" xlink:href="#ArialMT-30"/>
      </g>
     </g>
    </g>
    <g id="xtick_20">
     <g id="line2d_47">
      <g>
       <use style="stroke:#000000;" x="69.551008" xlink:href="#m262860d744" y="425.911628"/>
      </g>
     </g>
     <g id="text_21">
      <!-- 45 -->
      <g transform="translate(67.699316 445.586236)rotate(-45)scale(0.088 -0.088)">
       <use xlink:href="#ArialMT-34"/>
       <use x="55.615234" xlink:href="#ArialMT-35"/>
      </g>
     </g>
    </g>
    <g id="xtick_21">
     <g id="line2d_48">
      <g>
       <use style="stroke:#000000;" x="93.593129" xlink:href="#m262860d744" y="425.911628"/>
      </g>
     </g>
     <g id="text_22">
      <!-- 75 -->
      <g transform="translate(91.741437 445.586236)rotate(-45)scale(0.088 -0.088)">
       <defs>
        <path d="M 303 3981 
L 303 4522 
L 3269 4522 
L 3269 4084 
Q 2831 3619 2401 2847 
Q 1972 2075 1738 1259 
Q 1569 684 1522 0 
L 944 0 
Q 953 541 1156 1306 
Q 1359 2072 1739 2783 
Q 2119 3494 2547 3981 
L 303 3981 
z
" id="ArialMT-37" transform="scale(0.015625)"/>
       </defs>
       <use xlink:href="#ArialMT-37"/>
       <use x="55.615234" xlink:href="#ArialMT-35"/>
      </g>
     </g>
    </g>
    <g id="xtick_22">
     <g id="line2d_49">
      <g>
       <use style="stroke:#000000;" x="117.63525" xlink:href="#m262860d744" y="425.911628"/>
      </g>
     </g>
     <g id="text_23">
      <!-- 120 -->
      <g transform="translate(114.053401 449.046551)rotate(-45)scale(0.088 -0.088)">
       <use xlink:href="#ArialMT-31"/>
       <use x="55.615234" xlink:href="#ArialMT-32"/>
       <use x="111.230469" xlink:href="#ArialMT-30"/>
      </g>
     </g>
    </g>
    <g id="xtick_23">
     <g id="line2d_50">
      <g>
       <use style="stroke:#000000;" x="141.677371" xlink:href="#m262860d744" y="425.911628"/>
      </g>
     </g>
     <g id="text_24">
      <!-- 180 -->
      <g transform="translate(138.095522 449.046551)rotate(-45)scale(0.088 -0.088)">
       <defs>
        <path d="M 1131 2484 
Q 781 2613 612 2850 
Q 444 3088 444 3419 
Q 444 3919 803 4259 
Q 1163 4600 1759 4600 
Q 2359 4600 2725 4251 
Q 3091 3903 3091 3403 
Q 3091 3084 2923 2848 
Q 2756 2613 2416 2484 
Q 2838 2347 3058 2040 
Q 3278 1734 3278 1309 
Q 3278 722 2862 322 
Q 2447 -78 1769 -78 
Q 1091 -78 675 323 
Q 259 725 259 1325 
Q 259 1772 486 2073 
Q 713 2375 1131 2484 
z
M 1019 3438 
Q 1019 3113 1228 2906 
Q 1438 2700 1772 2700 
Q 2097 2700 2305 2904 
Q 2513 3109 2513 3406 
Q 2513 3716 2298 3927 
Q 2084 4138 1766 4138 
Q 1444 4138 1231 3931 
Q 1019 3725 1019 3438 
z
M 838 1322 
Q 838 1081 952 856 
Q 1066 631 1291 507 
Q 1516 384 1775 384 
Q 2178 384 2440 643 
Q 2703 903 2703 1303 
Q 2703 1709 2433 1975 
Q 2163 2241 1756 2241 
Q 1359 2241 1098 1978 
Q 838 1716 838 1322 
z
" id="ArialMT-38" transform="scale(0.015625)"/>
       </defs>
       <use xlink:href="#ArialMT-31"/>
       <use x="55.615234" xlink:href="#ArialMT-38"/>
       <use x="111.230469" xlink:href="#ArialMT-30"/>
      </g>
     </g>
    </g>
    <g id="xtick_24">
     <g id="line2d_51">
      <g>
       <use style="stroke:#000000;" x="165.719492" xlink:href="#m262860d744" y="425.911628"/>
      </g>
     </g>
     <g id="text_25">
      <!-- 480 -->
      <g transform="translate(162.137643 449.046551)rotate(-45)scale(0.088 -0.088)">
       <use xlink:href="#ArialMT-34"/>
       <use x="55.615234" xlink:href="#ArialMT-38"/>
       <use x="111.230469" xlink:href="#ArialMT-30"/>
      </g>
     </g>
    </g>
    <g id="xtick_25">
     <g id="line2d_52">
      <g>
       <use style="stroke:#000000;" x="189.761614" xlink:href="#m262860d744" y="425.911628"/>
      </g>
     </g>
     <g id="text_26">
      <!-- 600 -->
      <g transform="translate(186.179764 449.046551)rotate(-45)scale(0.088 -0.088)">
       <use xlink:href="#ArialMT-36"/>
       <use x="55.615234" xlink:href="#ArialMT-30"/>
       <use x="111.230469" xlink:href="#ArialMT-30"/>
      </g>
     </g>
    </g>
   </g>
   <g id="matplotlib.axis_6">
    <g id="ytick_15">
     <g id="line2d_53">
      <g>
       <use style="stroke:#000000;" x="38.29625" xlink:href="#mcf2b525df7" y="425.911628"/>
      </g>
     </g>
     <g id="text_27">
      <!-- 0 -->
      <g transform="translate(25.102625 429.061065)scale(0.088 -0.088)">
       <use xlink:href="#ArialMT-30"/>
      </g>
     </g>
    </g>
    <g id="ytick_16">
     <g id="line2d_54">
      <g>
       <use style="stroke:#000000;" x="38.29625" xlink:href="#mcf2b525df7" y="399.898819"/>
      </g>
     </g>
     <g id="text_28">
      <!-- 2 -->
      <g transform="translate(25.102625 403.048257)scale(0.088 -0.088)">
       <use xlink:href="#ArialMT-32"/>
      </g>
     </g>
    </g>
    <g id="ytick_17">
     <g id="line2d_55">
      <g>
       <use style="stroke:#000000;" x="38.29625" xlink:href="#mcf2b525df7" y="373.886011"/>
      </g>
     </g>
     <g id="text_29">
      <!-- 4 -->
      <g transform="translate(25.102625 377.035448)scale(0.088 -0.088)">
       <use xlink:href="#ArialMT-34"/>
      </g>
     </g>
    </g>
    <g id="ytick_18">
     <g id="line2d_56">
      <g>
       <use style="stroke:#000000;" x="38.29625" xlink:href="#mcf2b525df7" y="347.873202"/>
      </g>
     </g>
     <g id="text_30">
      <!-- 6 -->
      <g transform="translate(25.102625 351.02264)scale(0.088 -0.088)">
       <use xlink:href="#ArialMT-36"/>
      </g>
     </g>
    </g>
    <g id="ytick_19">
     <g id="line2d_57">
      <g>
       <use style="stroke:#000000;" x="38.29625" xlink:href="#mcf2b525df7" y="321.860394"/>
      </g>
     </g>
     <g id="text_31">
      <!-- 8 -->
      <g transform="translate(25.102625 325.009831)scale(0.088 -0.088)">
       <use xlink:href="#ArialMT-38"/>
      </g>
     </g>
    </g>
    <g id="ytick_20">
     <g id="line2d_58">
      <g>
       <use style="stroke:#000000;" x="38.29625" xlink:href="#mcf2b525df7" y="295.847585"/>
      </g>
     </g>
     <g id="text_32">
      <!-- 10 -->
      <g transform="translate(20.209 298.997023)scale(0.088 -0.088)">
       <use xlink:href="#ArialMT-31"/>
       <use x="55.615234" xlink:href="#ArialMT-30"/>
      </g>
     </g>
    </g>
    <g id="ytick_21">
     <g id="line2d_59">
      <g>
       <use style="stroke:#000000;" x="38.29625" xlink:href="#mcf2b525df7" y="269.834777"/>
      </g>
     </g>
     <g id="text_33">
      <!-- 12 -->
      <g transform="translate(20.209 272.984214)scale(0.088 -0.088)">
       <use xlink:href="#ArialMT-31"/>
       <use x="55.615234" xlink:href="#ArialMT-32"/>
      </g>
     </g>
    </g>
    <g id="ytick_22">
     <g id="line2d_60">
      <g>
       <use style="stroke:#000000;" x="38.29625" xlink:href="#mcf2b525df7" y="243.821968"/>
      </g>
     </g>
     <g id="text_34">
      <!-- 14 -->
      <g transform="translate(20.209 246.971406)scale(0.088 -0.088)">
       <use xlink:href="#ArialMT-31"/>
       <use x="55.615234" xlink:href="#ArialMT-34"/>
      </g>
     </g>
    </g>
    <g id="text_35">
     <!-- Syllable error rate (%) -->
     <g transform="translate(14.1885 375.041346)rotate(-90)scale(0.096 -0.096)">
      <defs>
       <path d="M 288 1472 
L 859 1522 
Q 900 1178 1048 958 
Q 1197 738 1509 602 
Q 1822 466 2213 466 
Q 2559 466 2825 569 
Q 3091 672 3220 851 
Q 3350 1031 3350 1244 
Q 3350 1459 3225 1620 
Q 3100 1781 2813 1891 
Q 2628 1963 1997 2114 
Q 1366 2266 1113 2400 
Q 784 2572 623 2826 
Q 463 3081 463 3397 
Q 463 3744 659 4045 
Q 856 4347 1234 4503 
Q 1613 4659 2075 4659 
Q 2584 4659 2973 4495 
Q 3363 4331 3572 4012 
Q 3781 3694 3797 3291 
L 3216 3247 
Q 3169 3681 2898 3903 
Q 2628 4125 2100 4125 
Q 1550 4125 1298 3923 
Q 1047 3722 1047 3438 
Q 1047 3191 1225 3031 
Q 1400 2872 2139 2705 
Q 2878 2538 3153 2413 
Q 3553 2228 3743 1945 
Q 3934 1663 3934 1294 
Q 3934 928 3725 604 
Q 3516 281 3123 101 
Q 2731 -78 2241 -78 
Q 1619 -78 1198 103 
Q 778 284 539 648 
Q 300 1013 288 1472 
z
" id="ArialMT-53" transform="scale(0.015625)"/>
       <path d="M 397 -1278 
L 334 -750 
Q 519 -800 656 -800 
Q 844 -800 956 -737 
Q 1069 -675 1141 -563 
Q 1194 -478 1313 -144 
Q 1328 -97 1363 -6 
L 103 3319 
L 709 3319 
L 1400 1397 
Q 1534 1031 1641 628 
Q 1738 1016 1872 1384 
L 2581 3319 
L 3144 3319 
L 1881 -56 
Q 1678 -603 1566 -809 
Q 1416 -1088 1222 -1217 
Q 1028 -1347 759 -1347 
Q 597 -1347 397 -1278 
z
" id="ArialMT-79" transform="scale(0.015625)"/>
       <path d="M 941 0 
L 419 0 
L 419 4581 
L 981 4581 
L 981 2947 
Q 1338 3394 1891 3394 
Q 2197 3394 2470 3270 
Q 2744 3147 2920 2923 
Q 3097 2700 3197 2384 
Q 3297 2069 3297 1709 
Q 3297 856 2875 390 
Q 2453 -75 1863 -75 
Q 1275 -75 941 416 
L 941 0 
z
M 934 1684 
Q 934 1088 1097 822 
Q 1363 388 1816 388 
Q 2184 388 2453 708 
Q 2722 1028 2722 1663 
Q 2722 2313 2464 2622 
Q 2206 2931 1841 2931 
Q 1472 2931 1203 2611 
Q 934 2291 934 1684 
z
" id="ArialMT-62" transform="scale(0.015625)"/>
       <path d="M 1650 503 
L 1731 6 
Q 1494 -44 1306 -44 
Q 1000 -44 831 53 
Q 663 150 594 308 
Q 525 466 525 972 
L 525 2881 
L 113 2881 
L 113 3319 
L 525 3319 
L 525 4141 
L 1084 4478 
L 1084 3319 
L 1650 3319 
L 1650 2881 
L 1084 2881 
L 1084 941 
Q 1084 700 1114 631 
Q 1144 563 1211 522 
Q 1278 481 1403 481 
Q 1497 481 1650 503 
z
" id="ArialMT-74" transform="scale(0.015625)"/>
      </defs>
      <use xlink:href="#ArialMT-53"/>
      <use x="66.699219" xlink:href="#ArialMT-79"/>
      <use x="116.699219" xlink:href="#ArialMT-6c"/>
      <use x="138.916016" xlink:href="#ArialMT-6c"/>
      <use x="161.132812" xlink:href="#ArialMT-61"/>
      <use x="216.748047" xlink:href="#ArialMT-62"/>
      <use x="272.363281" xlink:href="#ArialMT-6c"/>
      <use x="294.580078" xlink:href="#ArialMT-65"/>
      <use x="350.195312" xlink:href="#ArialMT-20"/>
      <use x="377.978516" xlink:href="#ArialMT-65"/>
      <use x="433.59375" xlink:href="#ArialMT-72"/>
      <use x="466.894531" xlink:href="#ArialMT-72"/>
      <use x="500.195312" xlink:href="#ArialMT-6f"/>
      <use x="555.810547" xlink:href="#ArialMT-72"/>
      <use x="589.111328" xlink:href="#ArialMT-20"/>
      <use x="616.894531" xlink:href="#ArialMT-72"/>
      <use x="650.195312" xlink:href="#ArialMT-61"/>
      <use x="705.810547" xlink:href="#ArialMT-74"/>
      <use x="733.59375" xlink:href="#ArialMT-65"/>
      <use x="789.208984" xlink:href="#ArialMT-20"/>
      <use x="816.992188" xlink:href="#ArialMT-28"/>
      <use x="850.292969" xlink:href="#ArialMT-25"/>
      <use x="939.208984" xlink:href="#ArialMT-29"/>
     </g>
    </g>
   </g>
   <g id="line2d_61">
    <path clip-path="url(#pacfd0a9752)" d="M 45.508886 376.140277 
L 69.551008 384.69642 
L 93.593129 392.35729 
L 117.63525 398.915678 
L 141.677371 402.016282 
L 165.719492 407.9943 
L 189.761614 406.296001 
" style="fill:none;stroke:#fab0e4;stroke-dasharray:8,3;stroke-dashoffset:0;stroke-opacity:0.65;stroke-width:2;"/>
   </g>
   <g id="line2d_62">
    <path clip-path="url(#pacfd0a9752)" d="M 45.508886 396.79473 
L 69.551008 400.595568 
L 93.593129 410.653483 
L 117.63525 410.796453 
L 141.677371 412.657784 
L 165.719492 415.860134 
L 189.761614 415.960902 
" style="fill:none;stroke:#fab0e4;stroke-dasharray:2,2;stroke-dashoffset:0;stroke-opacity:0.65;stroke-width:2;"/>
   </g>
   <g id="line2d_63">
    <path clip-path="url(#pacfd0a9752)" d="M 45.508886 409.516782 
L 69.551008 412.50606 
L 93.593129 414.619443 
L 117.63525 417.896228 
L 141.677371 418.393562 
L 165.719492 421.770673 
L 189.761614 421.627008 
" style="fill:none;stroke:#fab0e4;stroke-dasharray:6,2.5,3,2.5;stroke-dashoffset:0;stroke-opacity:0.65;stroke-width:2;"/>
   </g>
   <g id="line2d_64">
    <path clip-path="url(#pacfd0a9752)" d="M 45.508886 401.056174 
L 69.551008 412.033273 
L 93.593129 417.43272 
L 117.63525 418.248796 
L 141.677371 420.066806 
L 165.719492 422.345472 
L 189.761614 422.298715 
" style="fill:none;stroke:#fab0e4;stroke-dasharray:10,2,2,2;stroke-dashoffset:0;stroke-opacity:0.65;stroke-width:2;"/>
   </g>
   <g id="line2d_65">
    <path clip-path="url(#pacfd0a9752)" d="M 45.508886 359.580565 
L 69.551008 370.102495 
L 93.593129 371.15679 
L 117.63525 401.251622 
L 141.677371 407.08798 
L 165.719492 420.40365 
L 189.761614 417.567289 
" style="fill:none;stroke:#fab0e4;stroke-dasharray:6,2.5,2.5,2.5,2.5,2.5;stroke-dashoffset:0;stroke-opacity:0.65;stroke-width:2;"/>
   </g>
   <g id="line2d_66">
    <path clip-path="url(#pacfd0a9752)" d="M 45.508886 348.307772 
L 69.551008 356.860771 
L 93.593129 371.158171 
L 117.63525 383.119423 
L 141.677371 384.516477 
L 165.719492 396.953951 
L 189.761614 397.412278 
" style="fill:none;stroke:#fab0e4;stroke-dasharray:8,2,8,2,2,2;stroke-dashoffset:0;stroke-opacity:0.65;stroke-width:2;"/>
   </g>
   <g id="line2d_67">
    <path clip-path="url(#pacfd0a9752)" d="M 45.508886 365.605775 
L 69.551008 377.050897 
L 93.593129 394.376094 
L 117.63525 402.710754 
L 141.677371 406.539327 
L 165.719492 413.904235 
L 189.761614 415.400422 
" style="fill:none;stroke:#fab0e4;stroke-dasharray:6,2.5,6,2.5,2.5,2.5;stroke-dashoffset:0;stroke-opacity:0.65;stroke-width:2;"/>
   </g>
   <g id="line2d_68">
    <path clip-path="url(#pacfd0a9752)" d="M 45.508886 378.029693 
L 69.551008 387.451742 
L 93.593129 400.058297 
L 117.63525 400.567822 
L 141.677371 403.677975 
L 165.719492 414.080973 
L 189.761614 416.626563 
" style="fill:none;stroke:#fab0e4;stroke-dasharray:8,2,2,2,2,2;stroke-dashoffset:0;stroke-opacity:0.65;stroke-width:2;"/>
   </g>
   <g id="line2d_69">
    <path clip-path="url(#pacfd0a9752)" d="M 45.508886 379.378971 
L 69.551008 387.662153 
L 93.593129 396.476536 
L 117.63525 404.188347 
L 141.677371 406.869524 
L 165.719492 414.164174 
L 189.761614 414.148647 
" style="fill:none;stroke:#cc78bc;stroke-linecap:square;stroke-width:4;"/>
    <g clip-path="url(#pacfd0a9752)">
     <use style="fill:#cc78bc;stroke:#ffffff;stroke-linejoin:miter;stroke-width:0.75;" x="45.508886" xlink:href="#mdc3d017a75" y="379.378971"/>
     <use style="fill:#cc78bc;stroke:#ffffff;stroke-linejoin:miter;stroke-width:0.75;" x="69.551008" xlink:href="#mdc3d017a75" y="387.662153"/>
     <use style="fill:#cc78bc;stroke:#ffffff;stroke-linejoin:miter;stroke-width:0.75;" x="93.593129" xlink:href="#mdc3d017a75" y="396.476536"/>
     <use style="fill:#cc78bc;stroke:#ffffff;stroke-linejoin:miter;stroke-width:0.75;" x="117.63525" xlink:href="#mdc3d017a75" y="404.188347"/>
     <use style="fill:#cc78bc;stroke:#ffffff;stroke-linejoin:miter;stroke-width:0.75;" x="141.677371" xlink:href="#mdc3d017a75" y="406.869524"/>
     <use style="fill:#cc78bc;stroke:#ffffff;stroke-linejoin:miter;stroke-width:0.75;" x="165.719492" xlink:href="#mdc3d017a75" y="414.164174"/>
     <use style="fill:#cc78bc;stroke:#ffffff;stroke-linejoin:miter;stroke-width:0.75;" x="189.761614" xlink:href="#mdc3d017a75" y="414.148647"/>
    </g>
   </g>
   <g id="patch_11">
    <path d="M 38.29625 425.911628 
L 38.29625 230.815564 
" style="fill:none;stroke:#000000;stroke-linecap:square;stroke-linejoin:miter;"/>
   </g>
   <g id="patch_12">
    <path d="M 38.29625 425.911628 
L 196.97425 425.911628 
" style="fill:none;stroke:#000000;stroke-linecap:square;stroke-linejoin:miter;"/>
   </g>
   <g id="patch_13">
    <path d="M 205.509532 412.514131 
Q 202.223365 413.143436 199.815663 413.604514 
" style="fill:none;stroke:#000000;stroke-linecap:round;stroke-width:0.8;"/>
    <path d="M 203.948251 414.768007 
L 199.815663 413.604514 
L 203.22601 410.996539 
" style="fill:none;stroke:#000000;stroke-linecap:round;stroke-width:0.8;"/>
   </g>
   <g id="text_36">
    <!-- 0.90% -->
    <g transform="translate(209.47425 411.630397)scale(0.096 -0.096)">
     <use xlink:href="#ArialMT-30"/>
     <use x="55.615234" xlink:href="#ArialMT-2e"/>
     <use x="83.398438" xlink:href="#ArialMT-39"/>
     <use x="139.013672" xlink:href="#ArialMT-30"/>
     <use x="194.628906" xlink:href="#ArialMT-25"/>
    </g>
   </g>
  </g>
  <g id="axes_4">
   <g id="patch_14">
    <path d="M 265.22225 425.911628 
L 423.90025 425.911628 
L 423.90025 230.815564 
L 265.22225 230.815564 
z
" style="fill:#ffffff;"/>
   </g>
   <g id="PolyCollection_20">
    <defs>
     <path d="M 301.285432 -268.331759 
L 301.285432 -193.451019 
L 315.710705 -97.226078 
L 330.135977 -118.526075 
L 344.56125 -116.37819 
L 358.986523 -142.761396 
L 373.411795 -115.936598 
L 387.837068 -112.561429 
L 402.262341 -116.628734 
L 416.687614 -97.558245 
L 416.687614 -150.988453 
L 416.687614 -150.988453 
L 402.262341 -142.087949 
L 387.837068 -154.947306 
L 373.411795 -158.572892 
L 358.986523 -181.922079 
L 344.56125 -185.630245 
L 330.135977 -213.61567 
L 315.710705 -284.571905 
L 301.285432 -268.331759 
z
" id="m3d90e3c4d1" style="stroke:#cfcfcf;stroke-opacity:0.2;stroke-width:0.8;"/>
    </defs>
    <g clip-path="url(#p12bce15af8)">
     <use style="fill:#cfcfcf;fill-opacity:0.2;stroke:#cfcfcf;stroke-opacity:0.2;stroke-width:0.8;" x="0" xlink:href="#m3d90e3c4d1" y="468.468503"/>
    </g>
   </g>
   <g id="PolyCollection_21">
    <defs>
     <path d="M 301.285432 -155.766769 
L 301.285432 -139.360356 
L 315.710705 -119.468991 
L 330.135977 -106.691232 
L 344.56125 -116.692037 
L 358.986523 -106.123889 
L 373.411795 -112.041353 
L 387.837068 -109.251791 
L 402.262341 -100.240802 
L 416.687614 -96.515232 
L 416.687614 -130.43186 
L 416.687614 -130.43186 
L 402.262341 -127.181233 
L 387.837068 -132.662252 
L 373.411795 -152.782797 
L 358.986523 -153.221842 
L 344.56125 -136.388439 
L 330.135977 -143.118924 
L 315.710705 -144.408425 
L 301.285432 -155.766769 
z
" id="ma2d8a219c6" style="stroke:#cfcfcf;stroke-opacity:0.2;stroke-width:0.8;"/>
    </defs>
    <g clip-path="url(#p12bce15af8)">
     <use style="fill:#cfcfcf;fill-opacity:0.2;stroke:#cfcfcf;stroke-opacity:0.2;stroke-width:0.8;" x="0" xlink:href="#ma2d8a219c6" y="468.468503"/>
    </g>
   </g>
   <g id="PolyCollection_22">
    <defs>
     <path d="M 272.434886 -175.534764 
L 272.434886 -130.362723 
L 286.860159 -116.381673 
L 315.710705 -100.143767 
L 330.135977 -95.285124 
L 344.56125 -97.081343 
L 358.986523 -96.138645 
L 373.411795 -87.281792 
L 387.837068 -93.60911 
L 402.262341 -85.661091 
L 416.687614 -82.883594 
L 416.687614 -100.716569 
L 416.687614 -100.716569 
L 402.262341 -107.909688 
L 387.837068 -109.108469 
L 373.411795 -104.548561 
L 358.986523 -114.762409 
L 344.56125 -121.114118 
L 330.135977 -126.523549 
L 315.710705 -141.658746 
L 286.860159 -143.779802 
L 272.434886 -175.534764 
z
" id="m73e9fe8a7a" style="stroke:#cfcfcf;stroke-opacity:0.2;stroke-width:0.8;"/>
    </defs>
    <g clip-path="url(#p12bce15af8)">
     <use style="fill:#cfcfcf;fill-opacity:0.2;stroke:#cfcfcf;stroke-opacity:0.2;stroke-width:0.8;" x="0" xlink:href="#m73e9fe8a7a" y="468.468503"/>
    </g>
   </g>
   <g id="matplotlib.axis_7">
    <g id="xtick_26">
     <g id="line2d_70">
      <g>
       <use style="stroke:#000000;" x="272.434886" xlink:href="#m262860d744" y="425.911628"/>
      </g>
     </g>
     <g id="text_37">
      <!-- 120 -->
      <g transform="translate(268.853037 449.046551)rotate(-45)scale(0.088 -0.088)">
       <use xlink:href="#ArialMT-31"/>
       <use x="55.615234" xlink:href="#ArialMT-32"/>
       <use x="111.230469" xlink:href="#ArialMT-30"/>
      </g>
     </g>
    </g>
    <g id="xtick_27">
     <g id="line2d_71">
      <g>
       <use style="stroke:#000000;" x="286.860159" xlink:href="#m262860d744" y="425.911628"/>
      </g>
     </g>
     <g id="text_38">
      <!-- 180 -->
      <g transform="translate(283.27831 449.046551)rotate(-45)scale(0.088 -0.088)">
       <use xlink:href="#ArialMT-31"/>
       <use x="55.615234" xlink:href="#ArialMT-38"/>
       <use x="111.230469" xlink:href="#ArialMT-30"/>
      </g>
     </g>
    </g>
    <g id="xtick_28">
     <g id="line2d_72">
      <g>
       <use style="stroke:#000000;" x="301.285432" xlink:href="#m262860d744" y="425.911628"/>
      </g>
     </g>
     <g id="text_39">
      <!-- 190 -->
      <g transform="translate(297.703582 449.046551)rotate(-45)scale(0.088 -0.088)">
       <use xlink:href="#ArialMT-31"/>
       <use x="55.615234" xlink:href="#ArialMT-39"/>
       <use x="111.230469" xlink:href="#ArialMT-30"/>
      </g>
     </g>
    </g>
    <g id="xtick_29">
     <g id="line2d_73">
      <g>
       <use style="stroke:#000000;" x="315.710705" xlink:href="#m262860d744" y="425.911628"/>
      </g>
     </g>
     <g id="text_40">
      <!-- 240 -->
      <g transform="translate(312.128855 449.046551)rotate(-45)scale(0.088 -0.088)">
       <use xlink:href="#ArialMT-32"/>
       <use x="55.615234" xlink:href="#ArialMT-34"/>
       <use x="111.230469" xlink:href="#ArialMT-30"/>
      </g>
     </g>
    </g>
    <g id="xtick_30">
     <g id="line2d_74">
      <g>
       <use style="stroke:#000000;" x="330.135977" xlink:href="#m262860d744" y="425.911628"/>
      </g>
     </g>
     <g id="text_41">
      <!-- 300 -->
      <g transform="translate(326.554128 449.046551)rotate(-45)scale(0.088 -0.088)">
       <use xlink:href="#ArialMT-33"/>
       <use x="55.615234" xlink:href="#ArialMT-30"/>
       <use x="111.230469" xlink:href="#ArialMT-30"/>
      </g>
     </g>
    </g>
    <g id="xtick_31">
     <g id="line2d_75">
      <g>
       <use style="stroke:#000000;" x="344.56125" xlink:href="#m262860d744" y="425.911628"/>
      </g>
     </g>
     <g id="text_42">
      <!-- 360 -->
      <g transform="translate(340.979401 449.046551)rotate(-45)scale(0.088 -0.088)">
       <use xlink:href="#ArialMT-33"/>
       <use x="55.615234" xlink:href="#ArialMT-36"/>
       <use x="111.230469" xlink:href="#ArialMT-30"/>
      </g>
     </g>
    </g>
    <g id="xtick_32">
     <g id="line2d_76">
      <g>
       <use style="stroke:#000000;" x="358.986523" xlink:href="#m262860d744" y="425.911628"/>
      </g>
     </g>
     <g id="text_43">
      <!-- 420 -->
      <g transform="translate(355.404673 449.046551)rotate(-45)scale(0.088 -0.088)">
       <use xlink:href="#ArialMT-34"/>
       <use x="55.615234" xlink:href="#ArialMT-32"/>
       <use x="111.230469" xlink:href="#ArialMT-30"/>
      </g>
     </g>
    </g>
    <g id="xtick_33">
     <g id="line2d_77">
      <g>
       <use style="stroke:#000000;" x="373.411795" xlink:href="#m262860d744" y="425.911628"/>
      </g>
     </g>
     <g id="text_44">
      <!-- 480 -->
      <g transform="translate(369.829946 449.046551)rotate(-45)scale(0.088 -0.088)">
       <use xlink:href="#ArialMT-34"/>
       <use x="55.615234" xlink:href="#ArialMT-38"/>
       <use x="111.230469" xlink:href="#ArialMT-30"/>
      </g>
     </g>
    </g>
    <g id="xtick_34">
     <g id="line2d_78">
      <g>
       <use style="stroke:#000000;" x="387.837068" xlink:href="#m262860d744" y="425.911628"/>
      </g>
     </g>
     <g id="text_45">
      <!-- 540 -->
      <g transform="translate(384.255219 449.046551)rotate(-45)scale(0.088 -0.088)">
       <use xlink:href="#ArialMT-35"/>
       <use x="55.615234" xlink:href="#ArialMT-34"/>
       <use x="111.230469" xlink:href="#ArialMT-30"/>
      </g>
     </g>
    </g>
    <g id="xtick_35">
     <g id="line2d_79">
      <g>
       <use style="stroke:#000000;" x="402.262341" xlink:href="#m262860d744" y="425.911628"/>
      </g>
     </g>
     <g id="text_46">
      <!-- 600 -->
      <g transform="translate(398.680492 449.046551)rotate(-45)scale(0.088 -0.088)">
       <use xlink:href="#ArialMT-36"/>
       <use x="55.615234" xlink:href="#ArialMT-30"/>
       <use x="111.230469" xlink:href="#ArialMT-30"/>
      </g>
     </g>
    </g>
    <g id="xtick_36">
     <g id="line2d_80">
      <g>
       <use style="stroke:#000000;" x="416.687614" xlink:href="#m262860d744" y="425.911628"/>
      </g>
     </g>
     <g id="text_47">
      <!-- 660 -->
      <g transform="translate(413.105764 449.046551)rotate(-45)scale(0.088 -0.088)">
       <use xlink:href="#ArialMT-36"/>
       <use x="55.615234" xlink:href="#ArialMT-36"/>
       <use x="111.230469" xlink:href="#ArialMT-30"/>
      </g>
     </g>
    </g>
   </g>
   <g id="matplotlib.axis_8">
    <g id="ytick_23">
     <g id="line2d_81">
      <g>
       <use style="stroke:#000000;" x="265.22225" xlink:href="#mcf2b525df7" y="425.911628"/>
      </g>
     </g>
     <g id="text_48">
      <!-- 0 -->
      <g transform="translate(252.028625 429.061065)scale(0.088 -0.088)">
       <use xlink:href="#ArialMT-30"/>
      </g>
     </g>
    </g>
    <g id="ytick_24">
     <g id="line2d_82">
      <g>
       <use style="stroke:#000000;" x="265.22225" xlink:href="#mcf2b525df7" y="399.898819"/>
      </g>
     </g>
     <g id="text_49">
      <!-- 2 -->
      <g transform="translate(252.028625 403.048257)scale(0.088 -0.088)">
       <use xlink:href="#ArialMT-32"/>
      </g>
     </g>
    </g>
    <g id="ytick_25">
     <g id="line2d_83">
      <g>
       <use style="stroke:#000000;" x="265.22225" xlink:href="#mcf2b525df7" y="373.886011"/>
      </g>
     </g>
     <g id="text_50">
      <!-- 4 -->
      <g transform="translate(252.028625 377.035448)scale(0.088 -0.088)">
       <use xlink:href="#ArialMT-34"/>
      </g>
     </g>
    </g>
    <g id="ytick_26">
     <g id="line2d_84">
      <g>
       <use style="stroke:#000000;" x="265.22225" xlink:href="#mcf2b525df7" y="347.873202"/>
      </g>
     </g>
     <g id="text_51">
      <!-- 6 -->
      <g transform="translate(252.028625 351.02264)scale(0.088 -0.088)">
       <use xlink:href="#ArialMT-36"/>
      </g>
     </g>
    </g>
    <g id="ytick_27">
     <g id="line2d_85">
      <g>
       <use style="stroke:#000000;" x="265.22225" xlink:href="#mcf2b525df7" y="321.860394"/>
      </g>
     </g>
     <g id="text_52">
      <!-- 8 -->
      <g transform="translate(252.028625 325.009831)scale(0.088 -0.088)">
       <use xlink:href="#ArialMT-38"/>
      </g>
     </g>
    </g>
    <g id="ytick_28">
     <g id="line2d_86">
      <g>
       <use style="stroke:#000000;" x="265.22225" xlink:href="#mcf2b525df7" y="295.847585"/>
      </g>
     </g>
     <g id="text_53">
      <!-- 10 -->
      <g transform="translate(247.135 298.997023)scale(0.088 -0.088)">
       <use xlink:href="#ArialMT-31"/>
       <use x="55.615234" xlink:href="#ArialMT-30"/>
      </g>
     </g>
    </g>
    <g id="ytick_29">
     <g id="line2d_87">
      <g>
       <use style="stroke:#000000;" x="265.22225" xlink:href="#mcf2b525df7" y="269.834777"/>
      </g>
     </g>
     <g id="text_54">
      <!-- 12 -->
      <g transform="translate(247.135 272.984214)scale(0.088 -0.088)">
       <use xlink:href="#ArialMT-31"/>
       <use x="55.615234" xlink:href="#ArialMT-32"/>
      </g>
     </g>
    </g>
    <g id="ytick_30">
     <g id="line2d_88">
      <g>
       <use style="stroke:#000000;" x="265.22225" xlink:href="#mcf2b525df7" y="243.821968"/>
      </g>
     </g>
     <g id="text_55">
      <!-- 14 -->
      <g transform="translate(247.135 246.971406)scale(0.088 -0.088)">
       <use xlink:href="#ArialMT-31"/>
       <use x="55.615234" xlink:href="#ArialMT-34"/>
      </g>
     </g>
    </g>
   </g>
   <g id="line2d_89">
    <path clip-path="url(#p12bce15af8)" d="M 301.285432 237.577114 
L 315.710705 277.569511 
L 330.135977 302.397631 
L 344.56125 317.464285 
L 358.986523 306.126765 
L 373.411795 331.213758 
L 387.837068 334.714135 
L 402.262341 339.110161 
L 416.687614 344.195154 
" style="fill:none;stroke:#cfcfcf;stroke-dasharray:8,3;stroke-dashoffset:0;stroke-opacity:0.65;stroke-width:2;"/>
   </g>
   <g id="line2d_90">
    <path clip-path="url(#p12bce15af8)" d="M 301.285432 320.90494 
L 315.710705 336.529795 
L 330.135977 343.563424 
L 344.56125 341.928264 
L 358.986523 338.795637 
L 373.411795 336.056428 
L 387.837068 347.511482 
L 402.262341 354.757485 
L 416.687614 354.994956 
" style="fill:none;stroke:#cfcfcf;stroke-dasharray:2,2;stroke-dashoffset:0;stroke-opacity:0.65;stroke-width:2;"/>
   </g>
   <g id="line2d_91">
    <path clip-path="url(#p12bce15af8)" d="M 272.434886 315.519759 
L 286.860159 338.387765 
L 315.710705 347.567246 
L 330.135977 357.564166 
L 344.56125 359.370773 
L 358.986523 363.017976 
L 373.411795 372.553326 
L 387.837068 367.109713 
L 402.262341 371.683114 
L 416.687614 376.668421 
" style="fill:none;stroke:#cfcfcf;stroke-dasharray:6,2.5,3,2.5;stroke-dashoffset:0;stroke-opacity:0.65;stroke-width:2;"/>
   </g>
   <g id="line2d_92">
    <path clip-path="url(#p12bce15af8)" d="M 301.285432 279.241027 
L 315.710705 320.555517 
L 330.135977 334.508407 
L 344.56125 339.587774 
L 358.986523 335.980126 
L 373.411795 346.607837 
L 387.837068 349.778443 
L 402.262341 355.183587 
L 416.687614 358.61951 
" style="fill:none;stroke:#949494;stroke-linecap:square;stroke-width:4;"/>
    <g clip-path="url(#p12bce15af8)">
     <use style="fill:#949494;stroke:#ffffff;stroke-linejoin:miter;stroke-width:0.75;" x="301.285432" xlink:href="#m72a95f81b2" y="279.241027"/>
     <use style="fill:#949494;stroke:#ffffff;stroke-linejoin:miter;stroke-width:0.75;" x="315.710705" xlink:href="#m72a95f81b2" y="320.555517"/>
     <use style="fill:#949494;stroke:#ffffff;stroke-linejoin:miter;stroke-width:0.75;" x="330.135977" xlink:href="#m72a95f81b2" y="334.508407"/>
     <use style="fill:#949494;stroke:#ffffff;stroke-linejoin:miter;stroke-width:0.75;" x="344.56125" xlink:href="#m72a95f81b2" y="339.587774"/>
     <use style="fill:#949494;stroke:#ffffff;stroke-linejoin:miter;stroke-width:0.75;" x="358.986523" xlink:href="#m72a95f81b2" y="335.980126"/>
     <use style="fill:#949494;stroke:#ffffff;stroke-linejoin:miter;stroke-width:0.75;" x="373.411795" xlink:href="#m72a95f81b2" y="346.607837"/>
     <use style="fill:#949494;stroke:#ffffff;stroke-linejoin:miter;stroke-width:0.75;" x="387.837068" xlink:href="#m72a95f81b2" y="349.778443"/>
     <use style="fill:#949494;stroke:#ffffff;stroke-linejoin:miter;stroke-width:0.75;" x="402.262341" xlink:href="#m72a95f81b2" y="355.183587"/>
     <use style="fill:#949494;stroke:#ffffff;stroke-linejoin:miter;stroke-width:0.75;" x="416.687614" xlink:href="#m72a95f81b2" y="358.61951"/>
    </g>
   </g>
   <g id="patch_15">
    <path d="M 265.22225 425.911628 
L 265.22225 230.815564 
" style="fill:none;stroke:#000000;stroke-linecap:square;stroke-linejoin:miter;"/>
   </g>
   <g id="patch_16">
    <path d="M 265.22225 425.911628 
L 423.90025 425.911628 
" style="fill:none;stroke:#000000;stroke-linecap:square;stroke-linejoin:miter;"/>
   </g>
   <g id="patch_17">
    <path d="M 432.435532 356.984994 
Q 429.149365 357.614299 426.741663 358.075377 
" style="fill:none;stroke:#000000;stroke-linecap:round;stroke-width:0.8;"/>
    <path d="M 430.874251 359.23887 
L 426.741663 358.075377 
L 430.15201 355.467402 
" style="fill:none;stroke:#000000;stroke-linecap:round;stroke-width:0.8;"/>
   </g>
   <g id="text_56">
    <!-- 5.17% -->
    <g transform="translate(436.40025 356.10126)scale(0.096 -0.096)">
     <use xlink:href="#ArialMT-35"/>
     <use x="55.615234" xlink:href="#ArialMT-2e"/>
     <use x="83.398438" xlink:href="#ArialMT-31"/>
     <use x="139.013672" xlink:href="#ArialMT-37"/>
     <use x="194.628906" xlink:href="#ArialMT-25"/>
    </g>
   </g>
  </g>
  <g id="axes_5">
   <g id="matplotlib.axis_9">
    <g id="xtick_37">
     <g id="text_57">
      <!-- 0.0 -->
      <g style="opacity:0;" transform="translate(32.18025 440.510503)scale(0.088 -0.088)">
       <use xlink:href="#ArialMT-30"/>
       <use x="55.615234" xlink:href="#ArialMT-2e"/>
       <use x="83.398438" xlink:href="#ArialMT-30"/>
      </g>
     </g>
    </g>
    <g id="xtick_38">
     <g id="text_58">
      <!-- 0.2 -->
      <g style="opacity:0;" transform="translate(109.30105 440.510503)scale(0.088 -0.088)">
       <use xlink:href="#ArialMT-30"/>
       <use x="55.615234" xlink:href="#ArialMT-2e"/>
       <use x="83.398438" xlink:href="#ArialMT-32"/>
      </g>
     </g>
    </g>
    <g id="xtick_39">
     <g id="text_59">
      <!-- 0.4 -->
      <g style="opacity:0;" transform="translate(186.42185 440.510503)scale(0.088 -0.088)">
       <use xlink:href="#ArialMT-30"/>
       <use x="55.615234" xlink:href="#ArialMT-2e"/>
       <use x="83.398438" xlink:href="#ArialMT-34"/>
      </g>
     </g>
    </g>
    <g id="xtick_40">
     <g id="text_60">
      <!-- 0.6 -->
      <g style="opacity:0;" transform="translate(263.54265 440.510503)scale(0.088 -0.088)">
       <use xlink:href="#ArialMT-30"/>
       <use x="55.615234" xlink:href="#ArialMT-2e"/>
       <use x="83.398438" xlink:href="#ArialMT-36"/>
      </g>
     </g>
    </g>
    <g id="xtick_41">
     <g id="text_61">
      <!-- 0.8 -->
      <g style="opacity:0;" transform="translate(340.66345 440.510503)scale(0.088 -0.088)">
       <use xlink:href="#ArialMT-30"/>
       <use x="55.615234" xlink:href="#ArialMT-2e"/>
       <use x="83.398438" xlink:href="#ArialMT-38"/>
      </g>
     </g>
    </g>
    <g id="xtick_42">
     <g id="text_62">
      <!-- 1.0 -->
      <g style="opacity:0;" transform="translate(417.78425 440.510503)scale(0.088 -0.088)">
       <use xlink:href="#ArialMT-31"/>
       <use x="55.615234" xlink:href="#ArialMT-2e"/>
       <use x="83.398438" xlink:href="#ArialMT-30"/>
      </g>
     </g>
    </g>
    <g id="text_63">
     <!-- Training Set Duration (s) -->
     <g transform="translate(178.995 459.248003)scale(0.096 -0.096)">
      <defs>
       <path d="M 1659 0 
L 1659 4041 
L 150 4041 
L 150 4581 
L 3781 4581 
L 3781 4041 
L 2266 4041 
L 2266 0 
L 1659 0 
z
" id="ArialMT-54" transform="scale(0.015625)"/>
       <path d="M 494 0 
L 494 4581 
L 2072 4581 
Q 2606 4581 2888 4516 
Q 3281 4425 3559 4188 
Q 3922 3881 4101 3404 
Q 4281 2928 4281 2316 
Q 4281 1794 4159 1391 
Q 4038 988 3847 723 
Q 3656 459 3429 307 
Q 3203 156 2883 78 
Q 2563 0 2147 0 
L 494 0 
z
M 1100 541 
L 2078 541 
Q 2531 541 2789 625 
Q 3047 709 3200 863 
Q 3416 1078 3536 1442 
Q 3656 1806 3656 2325 
Q 3656 3044 3420 3430 
Q 3184 3816 2847 3947 
Q 2603 4041 2063 4041 
L 1100 4041 
L 1100 541 
z
" id="ArialMT-44" transform="scale(0.015625)"/>
       <path d="M 2597 0 
L 2597 488 
Q 2209 -75 1544 -75 
Q 1250 -75 995 37 
Q 741 150 617 320 
Q 494 491 444 738 
Q 409 903 409 1263 
L 409 3319 
L 972 3319 
L 972 1478 
Q 972 1038 1006 884 
Q 1059 663 1231 536 
Q 1403 409 1656 409 
Q 1909 409 2131 539 
Q 2353 669 2445 892 
Q 2538 1116 2538 1541 
L 2538 3319 
L 3100 3319 
L 3100 0 
L 2597 0 
z
" id="ArialMT-75" transform="scale(0.015625)"/>
      </defs>
      <use xlink:href="#ArialMT-54"/>
      <use x="57.333984" xlink:href="#ArialMT-72"/>
      <use x="90.634766" xlink:href="#ArialMT-61"/>
      <use x="146.25" xlink:href="#ArialMT-69"/>
      <use x="168.466797" xlink:href="#ArialMT-6e"/>
      <use x="224.082031" xlink:href="#ArialMT-69"/>
      <use x="246.298828" xlink:href="#ArialMT-6e"/>
      <use x="301.914062" xlink:href="#ArialMT-67"/>
      <use x="357.529297" xlink:href="#ArialMT-20"/>
      <use x="385.3125" xlink:href="#ArialMT-53"/>
      <use x="452.011719" xlink:href="#ArialMT-65"/>
      <use x="507.626953" xlink:href="#ArialMT-74"/>
      <use x="535.410156" xlink:href="#ArialMT-20"/>
      <use x="563.193359" xlink:href="#ArialMT-44"/>
      <use x="635.410156" xlink:href="#ArialMT-75"/>
      <use x="691.025391" xlink:href="#ArialMT-72"/>
      <use x="724.326172" xlink:href="#ArialMT-61"/>
      <use x="779.941406" xlink:href="#ArialMT-74"/>
      <use x="807.724609" xlink:href="#ArialMT-69"/>
      <use x="829.941406" xlink:href="#ArialMT-6f"/>
      <use x="885.556641" xlink:href="#ArialMT-6e"/>
      <use x="941.171875" xlink:href="#ArialMT-20"/>
      <use x="968.955078" xlink:href="#ArialMT-28"/>
      <use x="1002.255859" xlink:href="#ArialMT-73"/>
      <use x="1052.255859" xlink:href="#ArialMT-29"/>
     </g>
    </g>
   </g>
   <g id="matplotlib.axis_10">
    <g id="ytick_31">
     <g id="text_64">
      <!-- 0.0 -->
      <g style="opacity:0;" transform="translate(17.76425 429.061065)scale(0.088 -0.088)">
       <use xlink:href="#ArialMT-30"/>
       <use x="55.615234" xlink:href="#ArialMT-2e"/>
       <use x="83.398438" xlink:href="#ArialMT-30"/>
      </g>
     </g>
    </g>
    <g id="ytick_32">
     <g id="text_65">
      <!-- 0.2 -->
      <g style="opacity:0;" transform="translate(17.76425 347.89304)scale(0.088 -0.088)">
       <use xlink:href="#ArialMT-30"/>
       <use x="55.615234" xlink:href="#ArialMT-2e"/>
       <use x="83.398438" xlink:href="#ArialMT-32"/>
      </g>
     </g>
    </g>
    <g id="ytick_33">
     <g id="text_66">
      <!-- 0.4 -->
      <g style="opacity:0;" transform="translate(17.76425 266.725014)scale(0.088 -0.088)">
       <use xlink:href="#ArialMT-30"/>
       <use x="55.615234" xlink:href="#ArialMT-2e"/>
       <use x="83.398438" xlink:href="#ArialMT-34"/>
      </g>
     </g>
    </g>
    <g id="ytick_34">
     <g id="text_67">
      <!-- 0.6 -->
      <g style="opacity:0;" transform="translate(17.76425 185.556989)scale(0.088 -0.088)">
       <use xlink:href="#ArialMT-30"/>
       <use x="55.615234" xlink:href="#ArialMT-2e"/>
       <use x="83.398438" xlink:href="#ArialMT-36"/>
      </g>
     </g>
    </g>
    <g id="ytick_35">
     <g id="text_68">
      <!-- 0.8 -->
      <g style="opacity:0;" transform="translate(17.76425 104.388963)scale(0.088 -0.088)">
       <use xlink:href="#ArialMT-30"/>
       <use x="55.615234" xlink:href="#ArialMT-2e"/>
       <use x="83.398438" xlink:href="#ArialMT-38"/>
      </g>
     </g>
    </g>
    <g id="ytick_36">
     <g id="text_69">
      <!-- 1.0 -->
      <g style="opacity:0;" transform="translate(17.76425 23.220937)scale(0.088 -0.088)">
       <use xlink:href="#ArialMT-31"/>
       <use x="55.615234" xlink:href="#ArialMT-2e"/>
       <use x="83.398438" xlink:href="#ArialMT-30"/>
      </g>
     </g>
    </g>
   </g>
  </g>
 </g>
 <defs>
  <clipPath id="p005b569016">
   <rect height="195.096064" width="158.678" x="38.29625" y="20.0715"/>
  </clipPath>
  <clipPath id="p8e5a39d9dc">
   <rect height="195.096064" width="158.678" x="265.22225" y="20.0715"/>
  </clipPath>
  <clipPath id="pacfd0a9752">
   <rect height="195.096064" width="158.678" x="38.29625" y="230.815564"/>
  </clipPath>
  <clipPath id="p12bce15af8">
   <rect height="195.096064" width="158.678" x="265.22225" y="230.815564"/>
  </clipPath>
 </defs>
</svg>
