<?xml version="1.0" encoding="utf-8" standalone="no"?>
<!DOCTYPE svg PUBLIC "-//W3C//DTD SVG 1.1//EN"
  "http://www.w3.org/Graphics/SVG/1.1/DTD/svg11.dtd">
<!-- Created with matplotlib (https://matplotlib.org/) -->
<svg height="1440pt" version="1.1" viewBox="0 0 720 1440" width="720pt" xmlns="http://www.w3.org/2000/svg" xmlns:xlink="http://www.w3.org/1999/xlink">
 <defs>
  <style type="text/css">
*{stroke-linecap:butt;stroke-linejoin:round;}
  </style>
 </defs>
 <g id="figure_1">
  <g id="patch_1">
   <path d="M 0 1440 
L 720 1440 
L 720 0 
L 0 0 
z
" style="fill:#ffffff;"/>
  </g>
  <g id="axes_1">
   <g id="patch_2">
    <path d="M 90 492.564706 
L 648 492.564706 
L 648 172.8 
L 90 172.8 
z
" style="fill:#ffffff;"/>
   </g>
   <g id="PathCollection_1">
    <defs>
     <path d="M 0 3.383948 
C 0.897434 3.383948 1.758231 3.027394 2.392813 2.392813 
C 3.027394 1.758231 3.383948 0.897434 3.383948 0 
C 3.383948 -0.897434 3.027394 -1.758231 2.392813 -2.392813 
C 1.758231 -3.027394 0.897434 -3.383948 0 -3.383948 
C -0.897434 -3.383948 -1.758231 -3.027394 -2.392813 -2.392813 
C -3.027394 -1.758231 -3.383948 -0.897434 -3.383948 0 
C -3.383948 0.897434 -3.027394 1.758231 -2.392813 2.392813 
C -1.758231 3.027394 -0.897434 3.383948 0 3.383948 
z
" id="C0_0_62bae2e9ee"/>
    </defs>
    <g clip-path="url(#p73bbc230e8)">
     <use style="fill:#1f77b4;stroke:#1f77b4;stroke-width:2.025;" x="145.8" xlink:href="#C0_0_62bae2e9ee" y="384.704139"/>
    </g>
    <g clip-path="url(#p73bbc230e8)">
     <use style="fill:#1f77b4;stroke:#1f77b4;stroke-width:2.025;" x="257.4" xlink:href="#C0_0_62bae2e9ee" y="390.144654"/>
    </g>
    <g clip-path="url(#p73bbc230e8)">
     <use style="fill:#1f77b4;stroke:#1f77b4;stroke-width:2.025;" x="369" xlink:href="#C0_0_62bae2e9ee" y="427.702061"/>
    </g>
   </g>
   <g id="line2d_1">
    <path clip-path="url(#p73bbc230e8)" d="M 145.8 384.704139 
L 257.4 390.144654 
L 369 427.702061 
" style="fill:none;stroke:#1f77b4;stroke-dasharray:9.99,4.32;stroke-dashoffset:0;stroke-width:2.7;"/>
   </g>
   <g id="line2d_2">
    <path clip-path="url(#p73bbc230e8)" style="fill:none;stroke:#1f77b4;stroke-linecap:square;stroke-width:2.7;"/>
   </g>
   <g id="line2d_3">
    <path clip-path="url(#p73bbc230e8)" style="fill:none;stroke:#1f77b4;stroke-linecap:square;stroke-width:2.7;"/>
   </g>
   <g id="line2d_4">
    <path clip-path="url(#p73bbc230e8)" style="fill:none;stroke:#1f77b4;stroke-linecap:square;stroke-width:2.7;"/>
   </g>
   <g id="line2d_5">
    <path clip-path="url(#p73bbc230e8)" style="fill:none;stroke:#1f77b4;stroke-linecap:square;stroke-width:2.7;"/>
   </g>
   <g id="line2d_6">
    <path clip-path="url(#p73bbc230e8)" style="fill:none;stroke:#1f77b4;stroke-linecap:square;stroke-width:2.7;"/>
   </g>
   <g id="matplotlib.axis_1">
    <g id="xtick_1">
     <g id="line2d_7">
      <defs>
       <path d="M 0 0 
L 0 3.5 
" id="ma666e2aa32" style="stroke:#000000;stroke-width:0.8;"/>
      </defs>
      <g>
       <use style="stroke:#000000;stroke-width:0.8;" x="145.8" xlink:href="#ma666e2aa32" y="492.564706"/>
      </g>
     </g>
     <g id="text_1">
      <!-- 1 -->
      <defs>
       <path d="M 12.40625 8.296875 
L 28.515625 8.296875 
L 28.515625 63.921875 
L 10.984375 60.40625 
L 10.984375 69.390625 
L 28.421875 72.90625 
L 38.28125 72.90625 
L 38.28125 8.296875 
L 54.390625 8.296875 
L 54.390625 0 
L 12.40625 0 
z
" id="DejaVuSans-49"/>
      </defs>
      <g transform="translate(142.61875 507.163143)scale(0.1 -0.1)">
       <use xlink:href="#DejaVuSans-49"/>
      </g>
     </g>
    </g>
    <g id="xtick_2">
     <g id="line2d_8">
      <g>
       <use style="stroke:#000000;stroke-width:0.8;" x="257.4" xlink:href="#ma666e2aa32" y="492.564706"/>
      </g>
     </g>
     <g id="text_2">
      <!-- 2 -->
      <defs>
       <path d="M 19.1875 8.296875 
L 53.609375 8.296875 
L 53.609375 0 
L 7.328125 0 
L 7.328125 8.296875 
Q 12.9375 14.109375 22.625 23.890625 
Q 32.328125 33.6875 34.8125 36.53125 
Q 39.546875 41.84375 41.421875 45.53125 
Q 43.3125 49.21875 43.3125 52.78125 
Q 43.3125 58.59375 39.234375 62.25 
Q 35.15625 65.921875 28.609375 65.921875 
Q 23.96875 65.921875 18.8125 64.3125 
Q 13.671875 62.703125 7.8125 59.421875 
L 7.8125 69.390625 
Q 13.765625 71.78125 18.9375 73 
Q 24.125 74.21875 28.421875 74.21875 
Q 39.75 74.21875 46.484375 68.546875 
Q 53.21875 62.890625 53.21875 53.421875 
Q 53.21875 48.921875 51.53125 44.890625 
Q 49.859375 40.875 45.40625 35.40625 
Q 44.1875 33.984375 37.640625 27.21875 
Q 31.109375 20.453125 19.1875 8.296875 
z
" id="DejaVuSans-50"/>
      </defs>
      <g transform="translate(254.21875 507.163143)scale(0.1 -0.1)">
       <use xlink:href="#DejaVuSans-50"/>
      </g>
     </g>
    </g>
    <g id="xtick_3">
     <g id="line2d_9">
      <g>
       <use style="stroke:#000000;stroke-width:0.8;" x="369" xlink:href="#ma666e2aa32" y="492.564706"/>
      </g>
     </g>
     <g id="text_3">
      <!-- 3 -->
      <defs>
       <path d="M 40.578125 39.3125 
Q 47.65625 37.796875 51.625 33 
Q 55.609375 28.21875 55.609375 21.1875 
Q 55.609375 10.40625 48.1875 4.484375 
Q 40.765625 -1.421875 27.09375 -1.421875 
Q 22.515625 -1.421875 17.65625 -0.515625 
Q 12.796875 0.390625 7.625 2.203125 
L 7.625 11.71875 
Q 11.71875 9.328125 16.59375 8.109375 
Q 21.484375 6.890625 26.8125 6.890625 
Q 36.078125 6.890625 40.9375 10.546875 
Q 45.796875 14.203125 45.796875 21.1875 
Q 45.796875 27.640625 41.28125 31.265625 
Q 36.765625 34.90625 28.71875 34.90625 
L 20.21875 34.90625 
L 20.21875 43.015625 
L 29.109375 43.015625 
Q 36.375 43.015625 40.234375 45.921875 
Q 44.09375 48.828125 44.09375 54.296875 
Q 44.09375 59.90625 40.109375 62.90625 
Q 36.140625 65.921875 28.71875 65.921875 
Q 24.65625 65.921875 20.015625 65.03125 
Q 15.375 64.15625 9.8125 62.3125 
L 9.8125 71.09375 
Q 15.4375 72.65625 20.34375 73.4375 
Q 25.25 74.21875 29.59375 74.21875 
Q 40.828125 74.21875 47.359375 69.109375 
Q 53.90625 64.015625 53.90625 55.328125 
Q 53.90625 49.265625 50.4375 45.09375 
Q 46.96875 40.921875 40.578125 39.3125 
z
" id="DejaVuSans-51"/>
      </defs>
      <g transform="translate(365.81875 507.163143)scale(0.1 -0.1)">
       <use xlink:href="#DejaVuSans-51"/>
      </g>
     </g>
    </g>
    <g id="xtick_4">
     <g id="line2d_10">
      <g>
       <use style="stroke:#000000;stroke-width:0.8;" x="480.6" xlink:href="#ma666e2aa32" y="492.564706"/>
      </g>
     </g>
     <g id="text_4">
      <!-- 4 -->
      <defs>
       <path d="M 37.796875 64.3125 
L 12.890625 25.390625 
L 37.796875 25.390625 
z
M 35.203125 72.90625 
L 47.609375 72.90625 
L 47.609375 25.390625 
L 58.015625 25.390625 
L 58.015625 17.1875 
L 47.609375 17.1875 
L 47.609375 0 
L 37.796875 0 
L 37.796875 17.1875 
L 4.890625 17.1875 
L 4.890625 26.703125 
z
" id="DejaVuSans-52"/>
      </defs>
      <g transform="translate(477.41875 507.163143)scale(0.1 -0.1)">
       <use xlink:href="#DejaVuSans-52"/>
      </g>
     </g>
    </g>
    <g id="xtick_5">
     <g id="line2d_11">
      <g>
       <use style="stroke:#000000;stroke-width:0.8;" x="592.2" xlink:href="#ma666e2aa32" y="492.564706"/>
      </g>
     </g>
     <g id="text_5">
      <!-- 5 -->
      <defs>
       <path d="M 10.796875 72.90625 
L 49.515625 72.90625 
L 49.515625 64.59375 
L 19.828125 64.59375 
L 19.828125 46.734375 
Q 21.96875 47.46875 24.109375 47.828125 
Q 26.265625 48.1875 28.421875 48.1875 
Q 40.625 48.1875 47.75 41.5 
Q 54.890625 34.8125 54.890625 23.390625 
Q 54.890625 11.625 47.5625 5.09375 
Q 40.234375 -1.421875 26.90625 -1.421875 
Q 22.3125 -1.421875 17.546875 -0.640625 
Q 12.796875 0.140625 7.71875 1.703125 
L 7.71875 11.625 
Q 12.109375 9.234375 16.796875 8.0625 
Q 21.484375 6.890625 26.703125 6.890625 
Q 35.15625 6.890625 40.078125 11.328125 
Q 45.015625 15.765625 45.015625 23.390625 
Q 45.015625 31 40.078125 35.4375 
Q 35.15625 39.890625 26.703125 39.890625 
Q 22.75 39.890625 18.8125 39.015625 
Q 14.890625 38.140625 10.796875 36.28125 
z
" id="DejaVuSans-53"/>
      </defs>
      <g transform="translate(589.01875 507.163143)scale(0.1 -0.1)">
       <use xlink:href="#DejaVuSans-53"/>
      </g>
     </g>
    </g>
    <g id="text_6">
     <!-- day -->
     <defs>
      <path d="M 45.40625 46.390625 
L 45.40625 75.984375 
L 54.390625 75.984375 
L 54.390625 0 
L 45.40625 0 
L 45.40625 8.203125 
Q 42.578125 3.328125 38.25 0.953125 
Q 33.9375 -1.421875 27.875 -1.421875 
Q 17.96875 -1.421875 11.734375 6.484375 
Q 5.515625 14.40625 5.515625 27.296875 
Q 5.515625 40.1875 11.734375 48.09375 
Q 17.96875 56 27.875 56 
Q 33.9375 56 38.25 53.625 
Q 42.578125 51.265625 45.40625 46.390625 
z
M 14.796875 27.296875 
Q 14.796875 17.390625 18.875 11.75 
Q 22.953125 6.109375 30.078125 6.109375 
Q 37.203125 6.109375 41.296875 11.75 
Q 45.40625 17.390625 45.40625 27.296875 
Q 45.40625 37.203125 41.296875 42.84375 
Q 37.203125 48.484375 30.078125 48.484375 
Q 22.953125 48.484375 18.875 42.84375 
Q 14.796875 37.203125 14.796875 27.296875 
z
" id="DejaVuSans-100"/>
      <path d="M 34.28125 27.484375 
Q 23.390625 27.484375 19.1875 25 
Q 14.984375 22.515625 14.984375 16.5 
Q 14.984375 11.71875 18.140625 8.90625 
Q 21.296875 6.109375 26.703125 6.109375 
Q 34.1875 6.109375 38.703125 11.40625 
Q 43.21875 16.703125 43.21875 25.484375 
L 43.21875 27.484375 
z
M 52.203125 31.203125 
L 52.203125 0 
L 43.21875 0 
L 43.21875 8.296875 
Q 40.140625 3.328125 35.546875 0.953125 
Q 30.953125 -1.421875 24.3125 -1.421875 
Q 15.921875 -1.421875 10.953125 3.296875 
Q 6 8.015625 6 15.921875 
Q 6 25.140625 12.171875 29.828125 
Q 18.359375 34.515625 30.609375 34.515625 
L 43.21875 34.515625 
L 43.21875 35.40625 
Q 43.21875 41.609375 39.140625 45 
Q 35.0625 48.390625 27.6875 48.390625 
Q 23 48.390625 18.546875 47.265625 
Q 14.109375 46.140625 10.015625 43.890625 
L 10.015625 52.203125 
Q 14.9375 54.109375 19.578125 55.046875 
Q 24.21875 56 28.609375 56 
Q 40.484375 56 46.34375 49.84375 
Q 52.203125 43.703125 52.203125 31.203125 
z
" id="DejaVuSans-97"/>
      <path d="M 32.171875 -5.078125 
Q 28.375 -14.84375 24.75 -17.8125 
Q 21.140625 -20.796875 15.09375 -20.796875 
L 7.90625 -20.796875 
L 7.90625 -13.28125 
L 13.1875 -13.28125 
Q 16.890625 -13.28125 18.9375 -11.515625 
Q 21 -9.765625 23.484375 -3.21875 
L 25.09375 0.875 
L 2.984375 54.6875 
L 12.5 54.6875 
L 29.59375 11.921875 
L 46.6875 54.6875 
L 56.203125 54.6875 
z
" id="DejaVuSans-121"/>
     </defs>
     <g transform="translate(352.444219 526.920018)scale(0.18 -0.18)">
      <use xlink:href="#DejaVuSans-100"/>
      <use x="63.476562" xlink:href="#DejaVuSans-97"/>
      <use x="124.755859" xlink:href="#DejaVuSans-121"/>
     </g>
    </g>
   </g>
   <g id="matplotlib.axis_2">
    <g id="ytick_1">
     <g id="line2d_12">
      <defs>
       <path d="M 0 0 
L -3.5 0 
" id="m420d382bfd" style="stroke:#000000;stroke-width:0.8;"/>
      </defs>
      <g>
       <use style="stroke:#000000;stroke-width:0.8;" x="90" xlink:href="#m420d382bfd" y="467.554747"/>
      </g>
     </g>
     <g id="text_7">
      <!-- 500 -->
      <defs>
       <path d="M 31.78125 66.40625 
Q 24.171875 66.40625 20.328125 58.90625 
Q 16.5 51.421875 16.5 36.375 
Q 16.5 21.390625 20.328125 13.890625 
Q 24.171875 6.390625 31.78125 6.390625 
Q 39.453125 6.390625 43.28125 13.890625 
Q 47.125 21.390625 47.125 36.375 
Q 47.125 51.421875 43.28125 58.90625 
Q 39.453125 66.40625 31.78125 66.40625 
z
M 31.78125 74.21875 
Q 44.046875 74.21875 50.515625 64.515625 
Q 56.984375 54.828125 56.984375 36.375 
Q 56.984375 17.96875 50.515625 8.265625 
Q 44.046875 -1.421875 31.78125 -1.421875 
Q 19.53125 -1.421875 13.0625 8.265625 
Q 6.59375 17.96875 6.59375 36.375 
Q 6.59375 54.828125 13.0625 64.515625 
Q 19.53125 74.21875 31.78125 74.21875 
z
" id="DejaVuSans-48"/>
      </defs>
      <g transform="translate(63.9125 471.353966)scale(0.1 -0.1)">
       <use xlink:href="#DejaVuSans-53"/>
       <use x="63.623047" xlink:href="#DejaVuSans-48"/>
       <use x="127.246094" xlink:href="#DejaVuSans-48"/>
      </g>
     </g>
    </g>
    <g id="ytick_2">
     <g id="line2d_13">
      <g>
       <use style="stroke:#000000;stroke-width:0.8;" x="90" xlink:href="#m420d382bfd" y="428.168396"/>
      </g>
     </g>
     <g id="text_8">
      <!-- 1000 -->
      <g transform="translate(57.55 431.967614)scale(0.1 -0.1)">
       <use xlink:href="#DejaVuSans-49"/>
       <use x="63.623047" xlink:href="#DejaVuSans-48"/>
       <use x="127.246094" xlink:href="#DejaVuSans-48"/>
       <use x="190.869141" xlink:href="#DejaVuSans-48"/>
      </g>
     </g>
    </g>
    <g id="ytick_3">
     <g id="line2d_14">
      <g>
       <use style="stroke:#000000;stroke-width:0.8;" x="90" xlink:href="#m420d382bfd" y="388.782044"/>
      </g>
     </g>
     <g id="text_9">
      <!-- 1500 -->
      <g transform="translate(57.55 392.581263)scale(0.1 -0.1)">
       <use xlink:href="#DejaVuSans-49"/>
       <use x="63.623047" xlink:href="#DejaVuSans-53"/>
       <use x="127.246094" xlink:href="#DejaVuSans-48"/>
       <use x="190.869141" xlink:href="#DejaVuSans-48"/>
      </g>
     </g>
    </g>
    <g id="ytick_4">
     <g id="line2d_15">
      <g>
       <use style="stroke:#000000;stroke-width:0.8;" x="90" xlink:href="#m420d382bfd" y="349.395692"/>
      </g>
     </g>
     <g id="text_10">
      <!-- 2000 -->
      <g transform="translate(57.55 353.194911)scale(0.1 -0.1)">
       <use xlink:href="#DejaVuSans-50"/>
       <use x="63.623047" xlink:href="#DejaVuSans-48"/>
       <use x="127.246094" xlink:href="#DejaVuSans-48"/>
       <use x="190.869141" xlink:href="#DejaVuSans-48"/>
      </g>
     </g>
    </g>
    <g id="ytick_5">
     <g id="line2d_16">
      <g>
       <use style="stroke:#000000;stroke-width:0.8;" x="90" xlink:href="#m420d382bfd" y="310.009341"/>
      </g>
     </g>
     <g id="text_11">
      <!-- 2500 -->
      <g transform="translate(57.55 313.808559)scale(0.1 -0.1)">
       <use xlink:href="#DejaVuSans-50"/>
       <use x="63.623047" xlink:href="#DejaVuSans-53"/>
       <use x="127.246094" xlink:href="#DejaVuSans-48"/>
       <use x="190.869141" xlink:href="#DejaVuSans-48"/>
      </g>
     </g>
    </g>
    <g id="ytick_6">
     <g id="line2d_17">
      <g>
       <use style="stroke:#000000;stroke-width:0.8;" x="90" xlink:href="#m420d382bfd" y="270.622989"/>
      </g>
     </g>
     <g id="text_12">
      <!-- 3000 -->
      <g transform="translate(57.55 274.422208)scale(0.1 -0.1)">
       <use xlink:href="#DejaVuSans-51"/>
       <use x="63.623047" xlink:href="#DejaVuSans-48"/>
       <use x="127.246094" xlink:href="#DejaVuSans-48"/>
       <use x="190.869141" xlink:href="#DejaVuSans-48"/>
      </g>
     </g>
    </g>
    <g id="ytick_7">
     <g id="line2d_18">
      <g>
       <use style="stroke:#000000;stroke-width:0.8;" x="90" xlink:href="#m420d382bfd" y="231.236637"/>
      </g>
     </g>
     <g id="text_13">
      <!-- 3500 -->
      <g transform="translate(57.55 235.035856)scale(0.1 -0.1)">
       <use xlink:href="#DejaVuSans-51"/>
       <use x="63.623047" xlink:href="#DejaVuSans-53"/>
       <use x="127.246094" xlink:href="#DejaVuSans-48"/>
       <use x="190.869141" xlink:href="#DejaVuSans-48"/>
      </g>
     </g>
    </g>
    <g id="ytick_8">
     <g id="line2d_19">
      <g>
       <use style="stroke:#000000;stroke-width:0.8;" x="90" xlink:href="#m420d382bfd" y="191.850286"/>
      </g>
     </g>
     <g id="text_14">
      <!-- 4000 -->
      <g transform="translate(57.55 195.649504)scale(0.1 -0.1)">
       <use xlink:href="#DejaVuSans-52"/>
       <use x="63.623047" xlink:href="#DejaVuSans-48"/>
       <use x="127.246094" xlink:href="#DejaVuSans-48"/>
       <use x="190.869141" xlink:href="#DejaVuSans-48"/>
      </g>
     </g>
    </g>
    <g id="text_15">
     <!-- test set duration (s) -->
     <defs>
      <path d="M 18.3125 70.21875 
L 18.3125 54.6875 
L 36.8125 54.6875 
L 36.8125 47.703125 
L 18.3125 47.703125 
L 18.3125 18.015625 
Q 18.3125 11.328125 20.140625 9.421875 
Q 21.96875 7.515625 27.59375 7.515625 
L 36.8125 7.515625 
L 36.8125 0 
L 27.59375 0 
Q 17.1875 0 13.234375 3.875 
Q 9.28125 7.765625 9.28125 18.015625 
L 9.28125 47.703125 
L 2.6875 47.703125 
L 2.6875 54.6875 
L 9.28125 54.6875 
L 9.28125 70.21875 
z
" id="DejaVuSans-116"/>
      <path d="M 56.203125 29.59375 
L 56.203125 25.203125 
L 14.890625 25.203125 
Q 15.484375 15.921875 20.484375 11.0625 
Q 25.484375 6.203125 34.421875 6.203125 
Q 39.59375 6.203125 44.453125 7.46875 
Q 49.3125 8.734375 54.109375 11.28125 
L 54.109375 2.78125 
Q 49.265625 0.734375 44.1875 -0.34375 
Q 39.109375 -1.421875 33.890625 -1.421875 
Q 20.796875 -1.421875 13.15625 6.1875 
Q 5.515625 13.8125 5.515625 26.8125 
Q 5.515625 40.234375 12.765625 48.109375 
Q 20.015625 56 32.328125 56 
Q 43.359375 56 49.78125 48.890625 
Q 56.203125 41.796875 56.203125 29.59375 
z
M 47.21875 32.234375 
Q 47.125 39.59375 43.09375 43.984375 
Q 39.0625 48.390625 32.421875 48.390625 
Q 24.90625 48.390625 20.390625 44.140625 
Q 15.875 39.890625 15.1875 32.171875 
z
" id="DejaVuSans-101"/>
      <path d="M 44.28125 53.078125 
L 44.28125 44.578125 
Q 40.484375 46.53125 36.375 47.5 
Q 32.28125 48.484375 27.875 48.484375 
Q 21.1875 48.484375 17.84375 46.4375 
Q 14.5 44.390625 14.5 40.28125 
Q 14.5 37.15625 16.890625 35.375 
Q 19.28125 33.59375 26.515625 31.984375 
L 29.59375 31.296875 
Q 39.15625 29.25 43.1875 25.515625 
Q 47.21875 21.78125 47.21875 15.09375 
Q 47.21875 7.46875 41.1875 3.015625 
Q 35.15625 -1.421875 24.609375 -1.421875 
Q 20.21875 -1.421875 15.453125 -0.5625 
Q 10.6875 0.296875 5.421875 2 
L 5.421875 11.28125 
Q 10.40625 8.6875 15.234375 7.390625 
Q 20.0625 6.109375 24.8125 6.109375 
Q 31.15625 6.109375 34.5625 8.28125 
Q 37.984375 10.453125 37.984375 14.40625 
Q 37.984375 18.0625 35.515625 20.015625 
Q 33.0625 21.96875 24.703125 23.78125 
L 21.578125 24.515625 
Q 13.234375 26.265625 9.515625 29.90625 
Q 5.8125 33.546875 5.8125 39.890625 
Q 5.8125 47.609375 11.28125 51.796875 
Q 16.75 56 26.8125 56 
Q 31.78125 56 36.171875 55.265625 
Q 40.578125 54.546875 44.28125 53.078125 
z
" id="DejaVuSans-115"/>
      <path id="DejaVuSans-32"/>
      <path d="M 8.5 21.578125 
L 8.5 54.6875 
L 17.484375 54.6875 
L 17.484375 21.921875 
Q 17.484375 14.15625 20.5 10.265625 
Q 23.53125 6.390625 29.59375 6.390625 
Q 36.859375 6.390625 41.078125 11.03125 
Q 45.3125 15.671875 45.3125 23.6875 
L 45.3125 54.6875 
L 54.296875 54.6875 
L 54.296875 0 
L 45.3125 0 
L 45.3125 8.40625 
Q 42.046875 3.421875 37.71875 1 
Q 33.40625 -1.421875 27.6875 -1.421875 
Q 18.265625 -1.421875 13.375 4.4375 
Q 8.5 10.296875 8.5 21.578125 
z
M 31.109375 56 
z
" id="DejaVuSans-117"/>
      <path d="M 41.109375 46.296875 
Q 39.59375 47.171875 37.8125 47.578125 
Q 36.03125 48 33.890625 48 
Q 26.265625 48 22.1875 43.046875 
Q 18.109375 38.09375 18.109375 28.8125 
L 18.109375 0 
L 9.078125 0 
L 9.078125 54.6875 
L 18.109375 54.6875 
L 18.109375 46.1875 
Q 20.953125 51.171875 25.484375 53.578125 
Q 30.03125 56 36.53125 56 
Q 37.453125 56 38.578125 55.875 
Q 39.703125 55.765625 41.0625 55.515625 
z
" id="DejaVuSans-114"/>
      <path d="M 9.421875 54.6875 
L 18.40625 54.6875 
L 18.40625 0 
L 9.421875 0 
z
M 9.421875 75.984375 
L 18.40625 75.984375 
L 18.40625 64.59375 
L 9.421875 64.59375 
z
" id="DejaVuSans-105"/>
      <path d="M 30.609375 48.390625 
Q 23.390625 48.390625 19.1875 42.75 
Q 14.984375 37.109375 14.984375 27.296875 
Q 14.984375 17.484375 19.15625 11.84375 
Q 23.34375 6.203125 30.609375 6.203125 
Q 37.796875 6.203125 41.984375 11.859375 
Q 46.1875 17.53125 46.1875 27.296875 
Q 46.1875 37.015625 41.984375 42.703125 
Q 37.796875 48.390625 30.609375 48.390625 
z
M 30.609375 56 
Q 42.328125 56 49.015625 48.375 
Q 55.71875 40.765625 55.71875 27.296875 
Q 55.71875 13.875 49.015625 6.21875 
Q 42.328125 -1.421875 30.609375 -1.421875 
Q 18.84375 -1.421875 12.171875 6.21875 
Q 5.515625 13.875 5.515625 27.296875 
Q 5.515625 40.765625 12.171875 48.375 
Q 18.84375 56 30.609375 56 
z
" id="DejaVuSans-111"/>
      <path d="M 54.890625 33.015625 
L 54.890625 0 
L 45.90625 0 
L 45.90625 32.71875 
Q 45.90625 40.484375 42.875 44.328125 
Q 39.84375 48.1875 33.796875 48.1875 
Q 26.515625 48.1875 22.3125 43.546875 
Q 18.109375 38.921875 18.109375 30.90625 
L 18.109375 0 
L 9.078125 0 
L 9.078125 54.6875 
L 18.109375 54.6875 
L 18.109375 46.1875 
Q 21.34375 51.125 25.703125 53.5625 
Q 30.078125 56 35.796875 56 
Q 45.21875 56 50.046875 50.171875 
Q 54.890625 44.34375 54.890625 33.015625 
z
" id="DejaVuSans-110"/>
      <path d="M 31 75.875 
Q 24.46875 64.65625 21.28125 53.65625 
Q 18.109375 42.671875 18.109375 31.390625 
Q 18.109375 20.125 21.3125 9.0625 
Q 24.515625 -2 31 -13.1875 
L 23.1875 -13.1875 
Q 15.875 -1.703125 12.234375 9.375 
Q 8.59375 20.453125 8.59375 31.390625 
Q 8.59375 42.28125 12.203125 53.3125 
Q 15.828125 64.359375 23.1875 75.875 
z
" id="DejaVuSans-40"/>
      <path d="M 8.015625 75.875 
L 15.828125 75.875 
Q 23.140625 64.359375 26.78125 53.3125 
Q 30.421875 42.28125 30.421875 31.390625 
Q 30.421875 20.453125 26.78125 9.375 
Q 23.140625 -1.703125 15.828125 -13.1875 
L 8.015625 -13.1875 
Q 14.5 -2 17.703125 9.0625 
Q 20.90625 20.125 20.90625 31.390625 
Q 20.90625 42.671875 17.703125 53.65625 
Q 14.5 64.65625 8.015625 75.875 
z
" id="DejaVuSans-41"/>
     </defs>
     <g transform="translate(49.806562 421.883603)rotate(-90)scale(0.18 -0.18)">
      <use xlink:href="#DejaVuSans-116"/>
      <use x="39.208984" xlink:href="#DejaVuSans-101"/>
      <use x="100.732422" xlink:href="#DejaVuSans-115"/>
      <use x="152.832031" xlink:href="#DejaVuSans-116"/>
      <use x="192.041016" xlink:href="#DejaVuSans-32"/>
      <use x="223.828125" xlink:href="#DejaVuSans-115"/>
      <use x="275.927734" xlink:href="#DejaVuSans-101"/>
      <use x="337.451172" xlink:href="#DejaVuSans-116"/>
      <use x="376.660156" xlink:href="#DejaVuSans-32"/>
      <use x="408.447266" xlink:href="#DejaVuSans-100"/>
      <use x="471.923828" xlink:href="#DejaVuSans-117"/>
      <use x="535.302734" xlink:href="#DejaVuSans-114"/>
      <use x="576.416016" xlink:href="#DejaVuSans-97"/>
      <use x="637.695312" xlink:href="#DejaVuSans-116"/>
      <use x="676.904297" xlink:href="#DejaVuSans-105"/>
      <use x="704.6875" xlink:href="#DejaVuSans-111"/>
      <use x="765.869141" xlink:href="#DejaVuSans-110"/>
      <use x="829.248047" xlink:href="#DejaVuSans-32"/>
      <use x="861.035156" xlink:href="#DejaVuSans-40"/>
      <use x="900.048828" xlink:href="#DejaVuSans-115"/>
      <use x="952.148438" xlink:href="#DejaVuSans-41"/>
     </g>
    </g>
   </g>
   <g id="PathCollection_2">
    <defs>
     <path d="M 0 3.383948 
C 0.897434 3.383948 1.758231 3.027394 2.392813 2.392813 
C 3.027394 1.758231 3.383948 0.897434 3.383948 0 
C 3.383948 -0.897434 3.027394 -1.758231 2.392813 -2.392813 
C 1.758231 -3.027394 0.897434 -3.383948 0 -3.383948 
C -0.897434 -3.383948 -1.758231 -3.027394 -2.392813 -2.392813 
C -3.027394 -1.758231 -3.383948 -0.897434 -3.383948 0 
C -3.383948 0.897434 -3.027394 1.758231 -2.392813 2.392813 
C -1.758231 3.027394 -0.897434 3.383948 0 3.383948 
z
" id="C1_0_310e02b200"/>
    </defs>
    <g clip-path="url(#p73bbc230e8)">
     <use style="fill:#ff7f0e;stroke:#ff7f0e;stroke-width:2.025;" x="145.8" xlink:href="#C1_0_310e02b200" y="447.696621"/>
    </g>
    <g clip-path="url(#p73bbc230e8)">
     <use style="fill:#ff7f0e;stroke:#ff7f0e;stroke-width:2.025;" x="257.4" xlink:href="#C1_0_310e02b200" y="453.450022"/>
    </g>
    <g clip-path="url(#p73bbc230e8)">
     <use style="fill:#ff7f0e;stroke:#ff7f0e;stroke-width:2.025;" x="369" xlink:href="#C1_0_310e02b200" y="335.450403"/>
    </g>
    <g clip-path="url(#p73bbc230e8)">
     <use style="fill:#ff7f0e;stroke:#ff7f0e;stroke-width:2.025;" x="480.6" xlink:href="#C1_0_310e02b200" y="190.396929"/>
    </g>
    <g clip-path="url(#p73bbc230e8)">
     <use style="fill:#ff7f0e;stroke:#ff7f0e;stroke-width:2.025;" x="592.2" xlink:href="#C1_0_310e02b200" y="323.164382"/>
    </g>
   </g>
   <g id="line2d_20">
    <path clip-path="url(#p73bbc230e8)" d="M 145.8 447.696621 
L 257.4 453.450022 
L 369 335.450403 
L 480.6 190.396929 
L 592.2 323.164382 
" style="fill:none;stroke:#ff7f0e;stroke-dasharray:9.99,4.32;stroke-dashoffset:0;stroke-width:2.7;"/>
   </g>
   <g id="line2d_21">
    <path clip-path="url(#p73bbc230e8)" style="fill:none;stroke:#ff7f0e;stroke-linecap:square;stroke-width:2.7;"/>
   </g>
   <g id="line2d_22">
    <path clip-path="url(#p73bbc230e8)" style="fill:none;stroke:#ff7f0e;stroke-linecap:square;stroke-width:2.7;"/>
   </g>
   <g id="line2d_23">
    <path clip-path="url(#p73bbc230e8)" style="fill:none;stroke:#ff7f0e;stroke-linecap:square;stroke-width:2.7;"/>
   </g>
   <g id="line2d_24">
    <path clip-path="url(#p73bbc230e8)" style="fill:none;stroke:#ff7f0e;stroke-linecap:square;stroke-width:2.7;"/>
   </g>
   <g id="line2d_25">
    <path clip-path="url(#p73bbc230e8)" style="fill:none;stroke:#ff7f0e;stroke-linecap:square;stroke-width:2.7;"/>
   </g>
   <g id="patch_3">
    <path d="M 90 492.564706 
L 90 172.8 
" style="fill:none;stroke:#000000;stroke-linecap:square;stroke-linejoin:miter;stroke-width:0.8;"/>
   </g>
   <g id="patch_4">
    <path d="M 648 492.564706 
L 648 172.8 
" style="fill:none;stroke:#000000;stroke-linecap:square;stroke-linejoin:miter;stroke-width:0.8;"/>
   </g>
   <g id="patch_5">
    <path d="M 90 492.564706 
L 648 492.564706 
" style="fill:none;stroke:#000000;stroke-linecap:square;stroke-linejoin:miter;stroke-width:0.8;"/>
   </g>
   <g id="patch_6">
    <path d="M 90 172.8 
L 648 172.8 
" style="fill:none;stroke:#000000;stroke-linecap:square;stroke-linejoin:miter;stroke-width:0.8;"/>
   </g>
   <g id="PathCollection_3">
    <defs>
     <path d="M 0 3.383948 
C 0.897434 3.383948 1.758231 3.027394 2.392813 2.392813 
C 3.027394 1.758231 3.383948 0.897434 3.383948 0 
C 3.383948 -0.897434 3.027394 -1.758231 2.392813 -2.392813 
C 1.758231 -3.027394 0.897434 -3.383948 0 -3.383948 
C -0.897434 -3.383948 -1.758231 -3.027394 -2.392813 -2.392813 
C -3.027394 -1.758231 -3.383948 -0.897434 -3.383948 0 
C -3.383948 0.897434 -3.027394 1.758231 -2.392813 2.392813 
C -1.758231 3.027394 -0.897434 3.383948 0 3.383948 
z
" id="C2_0_c12484a9b0"/>
    </defs>
    <g clip-path="url(#p73bbc230e8)">
     <use style="fill:#2ca02c;stroke:#2ca02c;stroke-width:2.025;" x="145.8" xlink:href="#C2_0_c12484a9b0" y="326.589419"/>
    </g>
    <g clip-path="url(#p73bbc230e8)">
     <use style="fill:#2ca02c;stroke:#2ca02c;stroke-width:2.025;" x="257.4" xlink:href="#C2_0_c12484a9b0" y="380.066002"/>
    </g>
    <g clip-path="url(#p73bbc230e8)">
     <use style="fill:#2ca02c;stroke:#2ca02c;stroke-width:2.025;" x="369" xlink:href="#C2_0_c12484a9b0" y="338.036826"/>
    </g>
    <g clip-path="url(#p73bbc230e8)">
     <use style="fill:#2ca02c;stroke:#2ca02c;stroke-width:2.025;" x="480.6" xlink:href="#C2_0_c12484a9b0" y="373.688406"/>
    </g>
    <g clip-path="url(#p73bbc230e8)">
     <use style="fill:#2ca02c;stroke:#2ca02c;stroke-width:2.025;" x="592.2" xlink:href="#C2_0_c12484a9b0" y="474.684937"/>
    </g>
   </g>
   <g id="line2d_26">
    <path clip-path="url(#p73bbc230e8)" d="M 145.8 326.589419 
L 257.4 380.066002 
L 369 338.036826 
L 480.6 373.688406 
L 592.2 474.684937 
" style="fill:none;stroke:#2ca02c;stroke-dasharray:9.99,4.32;stroke-dashoffset:0;stroke-width:2.7;"/>
   </g>
   <g id="line2d_27">
    <path clip-path="url(#p73bbc230e8)" style="fill:none;stroke:#2ca02c;stroke-linecap:square;stroke-width:2.7;"/>
   </g>
   <g id="line2d_28">
    <path clip-path="url(#p73bbc230e8)" style="fill:none;stroke:#2ca02c;stroke-linecap:square;stroke-width:2.7;"/>
   </g>
   <g id="line2d_29">
    <path clip-path="url(#p73bbc230e8)" style="fill:none;stroke:#2ca02c;stroke-linecap:square;stroke-width:2.7;"/>
   </g>
   <g id="line2d_30">
    <path clip-path="url(#p73bbc230e8)" style="fill:none;stroke:#2ca02c;stroke-linecap:square;stroke-width:2.7;"/>
   </g>
   <g id="line2d_31">
    <path clip-path="url(#p73bbc230e8)" style="fill:none;stroke:#2ca02c;stroke-linecap:square;stroke-width:2.7;"/>
   </g>
   <g id="PathCollection_4">
    <defs>
     <path d="M 0 3.383948 
C 0.897434 3.383948 1.758231 3.027394 2.392813 2.392813 
C 3.027394 1.758231 3.383948 0.897434 3.383948 0 
C 3.383948 -0.897434 3.027394 -1.758231 2.392813 -2.392813 
C 1.758231 -3.027394 0.897434 -3.383948 0 -3.383948 
C -0.897434 -3.383948 -1.758231 -3.027394 -2.392813 -2.392813 
C -3.027394 -1.758231 -3.383948 -0.897434 -3.383948 0 
C -3.383948 0.897434 -3.027394 1.758231 -2.392813 2.392813 
C -1.758231 3.027394 -0.897434 3.383948 0 3.383948 
z
" id="C3_0_a858648202"/>
    </defs>
    <g clip-path="url(#p73bbc230e8)">
     <use style="fill:#d62728;stroke:#d62728;stroke-width:2.025;" x="145.8" xlink:href="#C3_0_a858648202" y="442.963957"/>
    </g>
    <g clip-path="url(#p73bbc230e8)">
     <use style="fill:#d62728;stroke:#d62728;stroke-width:2.025;" x="257.4" xlink:href="#C3_0_a858648202" y="447.101887"/>
    </g>
    <g clip-path="url(#p73bbc230e8)">
     <use style="fill:#d62728;stroke:#d62728;stroke-width:2.025;" x="369" xlink:href="#C3_0_a858648202" y="399.767055"/>
    </g>
    <g clip-path="url(#p73bbc230e8)">
     <use style="fill:#d62728;stroke:#d62728;stroke-width:2.025;" x="480.6" xlink:href="#C3_0_a858648202" y="424.654345"/>
    </g>
    <g clip-path="url(#p73bbc230e8)">
     <use style="fill:#d62728;stroke:#d62728;stroke-width:2.025;" x="592.2" xlink:href="#C3_0_a858648202" y="467.537575"/>
    </g>
   </g>
   <g id="line2d_32">
    <path clip-path="url(#p73bbc230e8)" d="M 145.8 442.963957 
L 257.4 447.101887 
L 369 399.767055 
L 480.6 424.654345 
L 592.2 467.537575 
" style="fill:none;stroke:#d62728;stroke-dasharray:9.99,4.32;stroke-dashoffset:0;stroke-width:2.7;"/>
   </g>
   <g id="line2d_33">
    <path clip-path="url(#p73bbc230e8)" style="fill:none;stroke:#d62728;stroke-linecap:square;stroke-width:2.7;"/>
   </g>
   <g id="line2d_34">
    <path clip-path="url(#p73bbc230e8)" style="fill:none;stroke:#d62728;stroke-linecap:square;stroke-width:2.7;"/>
   </g>
   <g id="line2d_35">
    <path clip-path="url(#p73bbc230e8)" style="fill:none;stroke:#d62728;stroke-linecap:square;stroke-width:2.7;"/>
   </g>
   <g id="line2d_36">
    <path clip-path="url(#p73bbc230e8)" style="fill:none;stroke:#d62728;stroke-linecap:square;stroke-width:2.7;"/>
   </g>
   <g id="line2d_37">
    <path clip-path="url(#p73bbc230e8)" style="fill:none;stroke:#d62728;stroke-linecap:square;stroke-width:2.7;"/>
   </g>
   <g id="legend_1">
    <g id="patch_7">
     <path d="M 559.223438 254.46875 
L 641 254.46875 
Q 643 254.46875 643 252.46875 
L 643 179.8 
Q 643 177.8 641 177.8 
L 559.223438 177.8 
Q 557.223438 177.8 557.223438 179.8 
L 557.223438 252.46875 
Q 557.223438 254.46875 559.223438 254.46875 
z
" style="fill:#ffffff;opacity:0.8;stroke:#cccccc;stroke-linejoin:miter;"/>
    </g>
    <g id="text_16">
     <!-- animal_ID -->
     <defs>
      <path d="M 52 44.1875 
Q 55.375 50.25 60.0625 53.125 
Q 64.75 56 71.09375 56 
Q 79.640625 56 84.28125 50.015625 
Q 88.921875 44.046875 88.921875 33.015625 
L 88.921875 0 
L 79.890625 0 
L 79.890625 32.71875 
Q 79.890625 40.578125 77.09375 44.375 
Q 74.3125 48.1875 68.609375 48.1875 
Q 61.625 48.1875 57.5625 43.546875 
Q 53.515625 38.921875 53.515625 30.90625 
L 53.515625 0 
L 44.484375 0 
L 44.484375 32.71875 
Q 44.484375 40.625 41.703125 44.40625 
Q 38.921875 48.1875 33.109375 48.1875 
Q 26.21875 48.1875 22.15625 43.53125 
Q 18.109375 38.875 18.109375 30.90625 
L 18.109375 0 
L 9.078125 0 
L 9.078125 54.6875 
L 18.109375 54.6875 
L 18.109375 46.1875 
Q 21.1875 51.21875 25.484375 53.609375 
Q 29.78125 56 35.6875 56 
Q 41.65625 56 45.828125 52.96875 
Q 50 49.953125 52 44.1875 
z
" id="DejaVuSans-109"/>
      <path d="M 9.421875 75.984375 
L 18.40625 75.984375 
L 18.40625 0 
L 9.421875 0 
z
" id="DejaVuSans-108"/>
      <path d="M 50.984375 -16.609375 
L 50.984375 -23.578125 
L -0.984375 -23.578125 
L -0.984375 -16.609375 
z
" id="DejaVuSans-95"/>
      <path d="M 9.8125 72.90625 
L 19.671875 72.90625 
L 19.671875 0 
L 9.8125 0 
z
" id="DejaVuSans-73"/>
      <path d="M 19.671875 64.796875 
L 19.671875 8.109375 
L 31.59375 8.109375 
Q 46.6875 8.109375 53.6875 14.9375 
Q 60.6875 21.78125 60.6875 36.53125 
Q 60.6875 51.171875 53.6875 57.984375 
Q 46.6875 64.796875 31.59375 64.796875 
z
M 9.8125 72.90625 
L 30.078125 72.90625 
Q 51.265625 72.90625 61.171875 64.09375 
Q 71.09375 55.28125 71.09375 36.53125 
Q 71.09375 17.671875 61.125 8.828125 
Q 51.171875 0 30.078125 0 
L 9.8125 0 
z
" id="DejaVuSans-68"/>
     </defs>
     <g transform="translate(575.341406 189.398438)scale(0.1 -0.1)">
      <use xlink:href="#DejaVuSans-97"/>
      <use x="61.279297" xlink:href="#DejaVuSans-110"/>
      <use x="124.658203" xlink:href="#DejaVuSans-105"/>
      <use x="152.441406" xlink:href="#DejaVuSans-109"/>
      <use x="249.853516" xlink:href="#DejaVuSans-97"/>
      <use x="311.132812" xlink:href="#DejaVuSans-108"/>
      <use x="338.916016" xlink:href="#DejaVuSans-95"/>
      <use x="388.916016" xlink:href="#DejaVuSans-73"/>
      <use x="418.408203" xlink:href="#DejaVuSans-68"/>
     </g>
    </g>
    <g id="PathCollection_5">
     <path d="M 571.223438 205.113636 
C 572.120871 205.113636 572.981669 204.757082 573.61625 204.1225 
C 574.250832 203.487919 574.607386 202.627121 574.607386 201.729687 
C 574.607386 200.832254 574.250832 199.971456 573.61625 199.336875 
C 572.981669 198.702293 572.120871 198.345739 571.223438 198.345739 
C 570.326004 198.345739 569.465206 198.702293 568.830625 199.336875 
C 568.196043 199.971456 567.839489 200.832254 567.839489 201.729687 
C 567.839489 202.627121 568.196043 203.487919 568.830625 204.1225 
C 569.465206 204.757082 570.326004 205.113636 571.223438 205.113636 
z
" style="fill:#1f77b4;stroke:#1f77b4;stroke-width:2.025;"/>
    </g>
    <g id="text_17">
     <!-- bl26lb16 -->
     <defs>
      <path d="M 48.6875 27.296875 
Q 48.6875 37.203125 44.609375 42.84375 
Q 40.53125 48.484375 33.40625 48.484375 
Q 26.265625 48.484375 22.1875 42.84375 
Q 18.109375 37.203125 18.109375 27.296875 
Q 18.109375 17.390625 22.1875 11.75 
Q 26.265625 6.109375 33.40625 6.109375 
Q 40.53125 6.109375 44.609375 11.75 
Q 48.6875 17.390625 48.6875 27.296875 
z
M 18.109375 46.390625 
Q 20.953125 51.265625 25.265625 53.625 
Q 29.59375 56 35.59375 56 
Q 45.5625 56 51.78125 48.09375 
Q 58.015625 40.1875 58.015625 27.296875 
Q 58.015625 14.40625 51.78125 6.484375 
Q 45.5625 -1.421875 35.59375 -1.421875 
Q 29.59375 -1.421875 25.265625 0.953125 
Q 20.953125 3.328125 18.109375 8.203125 
L 18.109375 0 
L 9.078125 0 
L 9.078125 75.984375 
L 18.109375 75.984375 
z
" id="DejaVuSans-98"/>
      <path d="M 33.015625 40.375 
Q 26.375 40.375 22.484375 35.828125 
Q 18.609375 31.296875 18.609375 23.390625 
Q 18.609375 15.53125 22.484375 10.953125 
Q 26.375 6.390625 33.015625 6.390625 
Q 39.65625 6.390625 43.53125 10.953125 
Q 47.40625 15.53125 47.40625 23.390625 
Q 47.40625 31.296875 43.53125 35.828125 
Q 39.65625 40.375 33.015625 40.375 
z
M 52.59375 71.296875 
L 52.59375 62.3125 
Q 48.875 64.0625 45.09375 64.984375 
Q 41.3125 65.921875 37.59375 65.921875 
Q 27.828125 65.921875 22.671875 59.328125 
Q 17.53125 52.734375 16.796875 39.40625 
Q 19.671875 43.65625 24.015625 45.921875 
Q 28.375 48.1875 33.59375 48.1875 
Q 44.578125 48.1875 50.953125 41.515625 
Q 57.328125 34.859375 57.328125 23.390625 
Q 57.328125 12.15625 50.6875 5.359375 
Q 44.046875 -1.421875 33.015625 -1.421875 
Q 20.359375 -1.421875 13.671875 8.265625 
Q 6.984375 17.96875 6.984375 36.375 
Q 6.984375 53.65625 15.1875 63.9375 
Q 23.390625 74.21875 37.203125 74.21875 
Q 40.921875 74.21875 44.703125 73.484375 
Q 48.484375 72.75 52.59375 71.296875 
z
" id="DejaVuSans-54"/>
     </defs>
     <g transform="translate(589.223438 204.354687)scale(0.1 -0.1)">
      <use xlink:href="#DejaVuSans-98"/>
      <use x="63.476562" xlink:href="#DejaVuSans-108"/>
      <use x="91.259766" xlink:href="#DejaVuSans-50"/>
      <use x="154.882812" xlink:href="#DejaVuSans-54"/>
      <use x="218.505859" xlink:href="#DejaVuSans-108"/>
      <use x="246.289062" xlink:href="#DejaVuSans-98"/>
      <use x="309.765625" xlink:href="#DejaVuSans-49"/>
      <use x="373.388672" xlink:href="#DejaVuSans-54"/>
     </g>
    </g>
    <g id="PathCollection_6">
     <path d="M 571.223438 219.791761 
C 572.120871 219.791761 572.981669 219.435207 573.61625 218.800625 
C 574.250832 218.166044 574.607386 217.305246 574.607386 216.407812 
C 574.607386 215.510379 574.250832 214.649581 573.61625 214.015 
C 572.981669 213.380418 572.120871 213.023864 571.223438 213.023864 
C 570.326004 213.023864 569.465206 213.380418 568.830625 214.015 
C 568.196043 214.649581 567.839489 215.510379 567.839489 216.407812 
C 567.839489 217.305246 568.196043 218.166044 568.830625 218.800625 
C 569.465206 219.435207 570.326004 219.791761 571.223438 219.791761 
z
" style="fill:#ff7f0e;stroke:#ff7f0e;stroke-width:2.025;"/>
    </g>
    <g id="text_18">
     <!-- gr41rd51 -->
     <defs>
      <path d="M 45.40625 27.984375 
Q 45.40625 37.75 41.375 43.109375 
Q 37.359375 48.484375 30.078125 48.484375 
Q 22.859375 48.484375 18.828125 43.109375 
Q 14.796875 37.75 14.796875 27.984375 
Q 14.796875 18.265625 18.828125 12.890625 
Q 22.859375 7.515625 30.078125 7.515625 
Q 37.359375 7.515625 41.375 12.890625 
Q 45.40625 18.265625 45.40625 27.984375 
z
M 54.390625 6.78125 
Q 54.390625 -7.171875 48.1875 -13.984375 
Q 42 -20.796875 29.203125 -20.796875 
Q 24.46875 -20.796875 20.265625 -20.09375 
Q 16.0625 -19.390625 12.109375 -17.921875 
L 12.109375 -9.1875 
Q 16.0625 -11.328125 19.921875 -12.34375 
Q 23.78125 -13.375 27.78125 -13.375 
Q 36.625 -13.375 41.015625 -8.765625 
Q 45.40625 -4.15625 45.40625 5.171875 
L 45.40625 9.625 
Q 42.625 4.78125 38.28125 2.390625 
Q 33.9375 0 27.875 0 
Q 17.828125 0 11.671875 7.65625 
Q 5.515625 15.328125 5.515625 27.984375 
Q 5.515625 40.671875 11.671875 48.328125 
Q 17.828125 56 27.875 56 
Q 33.9375 56 38.28125 53.609375 
Q 42.625 51.21875 45.40625 46.390625 
L 45.40625 54.6875 
L 54.390625 54.6875 
z
" id="DejaVuSans-103"/>
     </defs>
     <g transform="translate(589.223438 219.032812)scale(0.1 -0.1)">
      <use xlink:href="#DejaVuSans-103"/>
      <use x="63.476562" xlink:href="#DejaVuSans-114"/>
      <use x="104.589844" xlink:href="#DejaVuSans-52"/>
      <use x="168.212891" xlink:href="#DejaVuSans-49"/>
      <use x="231.835938" xlink:href="#DejaVuSans-114"/>
      <use x="272.933594" xlink:href="#DejaVuSans-100"/>
      <use x="336.410156" xlink:href="#DejaVuSans-53"/>
      <use x="400.033203" xlink:href="#DejaVuSans-49"/>
     </g>
    </g>
    <g id="PathCollection_7">
     <path d="M 571.223438 234.469886 
C 572.120871 234.469886 572.981669 234.113332 573.61625 233.47875 
C 574.250832 232.844169 574.607386 231.983371 574.607386 231.085938 
C 574.607386 230.188504 574.250832 229.327706 573.61625 228.693125 
C 572.981669 228.058543 572.120871 227.701989 571.223438 227.701989 
C 570.326004 227.701989 569.465206 228.058543 568.830625 228.693125 
C 568.196043 229.327706 567.839489 230.188504 567.839489 231.085938 
C 567.839489 231.983371 568.196043 232.844169 568.830625 233.47875 
C 569.465206 234.113332 570.326004 234.469886 571.223438 234.469886 
z
" style="fill:#2ca02c;stroke:#2ca02c;stroke-width:2.025;"/>
    </g>
    <g id="text_19">
     <!-- gy6or6 -->
     <g transform="translate(589.223438 233.710938)scale(0.1 -0.1)">
      <use xlink:href="#DejaVuSans-103"/>
      <use x="63.476562" xlink:href="#DejaVuSans-121"/>
      <use x="122.65625" xlink:href="#DejaVuSans-54"/>
      <use x="186.279297" xlink:href="#DejaVuSans-111"/>
      <use x="247.460938" xlink:href="#DejaVuSans-114"/>
      <use x="288.574219" xlink:href="#DejaVuSans-54"/>
     </g>
    </g>
    <g id="PathCollection_8">
     <path d="M 571.223438 249.148011 
C 572.120871 249.148011 572.981669 248.791457 573.61625 248.156875 
C 574.250832 247.522294 574.607386 246.661496 574.607386 245.764062 
C 574.607386 244.866629 574.250832 244.005831 573.61625 243.37125 
C 572.981669 242.736668 572.120871 242.380114 571.223438 242.380114 
C 570.326004 242.380114 569.465206 242.736668 568.830625 243.37125 
C 568.196043 244.005831 567.839489 244.866629 567.839489 245.764062 
C 567.839489 246.661496 568.196043 247.522294 568.830625 248.156875 
C 569.465206 248.791457 570.326004 249.148011 571.223438 249.148011 
z
" style="fill:#d62728;stroke:#d62728;stroke-width:2.025;"/>
    </g>
    <g id="text_20">
     <!-- or60yw70 -->
     <defs>
      <path d="M 4.203125 54.6875 
L 13.1875 54.6875 
L 24.421875 12.015625 
L 35.59375 54.6875 
L 46.1875 54.6875 
L 57.421875 12.015625 
L 68.609375 54.6875 
L 77.59375 54.6875 
L 63.28125 0 
L 52.6875 0 
L 40.921875 44.828125 
L 29.109375 0 
L 18.5 0 
z
" id="DejaVuSans-119"/>
      <path d="M 8.203125 72.90625 
L 55.078125 72.90625 
L 55.078125 68.703125 
L 28.609375 0 
L 18.3125 0 
L 43.21875 64.59375 
L 8.203125 64.59375 
z
" id="DejaVuSans-55"/>
     </defs>
     <g transform="translate(589.223438 248.389062)scale(0.1 -0.1)">
      <use xlink:href="#DejaVuSans-111"/>
      <use x="61.181641" xlink:href="#DejaVuSans-114"/>
      <use x="102.294922" xlink:href="#DejaVuSans-54"/>
      <use x="165.917969" xlink:href="#DejaVuSans-48"/>
      <use x="229.541016" xlink:href="#DejaVuSans-121"/>
      <use x="288.720703" xlink:href="#DejaVuSans-119"/>
      <use x="370.507812" xlink:href="#DejaVuSans-55"/>
      <use x="434.130859" xlink:href="#DejaVuSans-48"/>
     </g>
    </g>
   </g>
  </g>
  <g id="axes_2">
   <g id="patch_8">
    <path d="M 90 876.282353 
L 648 876.282353 
L 648 556.517647 
L 90 556.517647 
z
" style="fill:#ffffff;"/>
   </g>
   <g id="PathCollection_9">
    <defs>
     <path d="M 0 3.383948 
C 0.897434 3.383948 1.758231 3.027394 2.392813 2.392813 
C 3.027394 1.758231 3.383948 0.897434 3.383948 0 
C 3.383948 -0.897434 3.027394 -1.758231 2.392813 -2.392813 
C 1.758231 -3.027394 0.897434 -3.383948 0 -3.383948 
C -0.897434 -3.383948 -1.758231 -3.027394 -2.392813 -2.392813 
C -3.027394 -1.758231 -3.383948 -0.897434 -3.383948 0 
C -3.383948 0.897434 -3.027394 1.758231 -2.392813 2.392813 
C -1.758231 3.027394 -0.897434 3.383948 0 3.383948 
z
" id="C4_0_568d10d442"/>
    </defs>
    <g clip-path="url(#pd3a791827b)">
     <use style="fill:#1f77b4;stroke:#1f77b4;stroke-width:2.025;" x="145.8" xlink:href="#C4_0_568d10d442" y="799.65511"/>
    </g>
    <g clip-path="url(#pd3a791827b)">
     <use style="fill:#1f77b4;stroke:#1f77b4;stroke-width:2.025;" x="257.4" xlink:href="#C4_0_568d10d442" y="811.596242"/>
    </g>
    <g clip-path="url(#pd3a791827b)">
     <use style="fill:#1f77b4;stroke:#1f77b4;stroke-width:2.025;" x="369" xlink:href="#C4_0_568d10d442" y="818.853639"/>
    </g>
   </g>
   <g id="line2d_38">
    <path clip-path="url(#pd3a791827b)" d="M 145.8 799.65511 
L 257.4 811.596242 
L 369 818.853639 
" style="fill:none;stroke:#1f77b4;stroke-dasharray:9.99,4.32;stroke-dashoffset:0;stroke-width:2.7;"/>
   </g>
   <g id="line2d_39">
    <path clip-path="url(#pd3a791827b)" style="fill:none;stroke:#1f77b4;stroke-linecap:square;stroke-width:2.7;"/>
   </g>
   <g id="line2d_40">
    <path clip-path="url(#pd3a791827b)" style="fill:none;stroke:#1f77b4;stroke-linecap:square;stroke-width:2.7;"/>
   </g>
   <g id="line2d_41">
    <path clip-path="url(#pd3a791827b)" style="fill:none;stroke:#1f77b4;stroke-linecap:square;stroke-width:2.7;"/>
   </g>
   <g id="line2d_42">
    <path clip-path="url(#pd3a791827b)" style="fill:none;stroke:#1f77b4;stroke-linecap:square;stroke-width:2.7;"/>
   </g>
   <g id="line2d_43">
    <path clip-path="url(#pd3a791827b)" style="fill:none;stroke:#1f77b4;stroke-linecap:square;stroke-width:2.7;"/>
   </g>
   <g id="matplotlib.axis_3">
    <g id="xtick_6">
     <g id="line2d_44">
      <g>
       <use style="stroke:#000000;stroke-width:0.8;" x="145.8" xlink:href="#ma666e2aa32" y="876.282353"/>
      </g>
     </g>
     <g id="text_21">
      <!-- 1 -->
      <g transform="translate(142.61875 890.88079)scale(0.1 -0.1)">
       <use xlink:href="#DejaVuSans-49"/>
      </g>
     </g>
    </g>
    <g id="xtick_7">
     <g id="line2d_45">
      <g>
       <use style="stroke:#000000;stroke-width:0.8;" x="257.4" xlink:href="#ma666e2aa32" y="876.282353"/>
      </g>
     </g>
     <g id="text_22">
      <!-- 2 -->
      <g transform="translate(254.21875 890.88079)scale(0.1 -0.1)">
       <use xlink:href="#DejaVuSans-50"/>
      </g>
     </g>
    </g>
    <g id="xtick_8">
     <g id="line2d_46">
      <g>
       <use style="stroke:#000000;stroke-width:0.8;" x="369" xlink:href="#ma666e2aa32" y="876.282353"/>
      </g>
     </g>
     <g id="text_23">
      <!-- 3 -->
      <g transform="translate(365.81875 890.88079)scale(0.1 -0.1)">
       <use xlink:href="#DejaVuSans-51"/>
      </g>
     </g>
    </g>
    <g id="xtick_9">
     <g id="line2d_47">
      <g>
       <use style="stroke:#000000;stroke-width:0.8;" x="480.6" xlink:href="#ma666e2aa32" y="876.282353"/>
      </g>
     </g>
     <g id="text_24">
      <!-- 4 -->
      <g transform="translate(477.41875 890.88079)scale(0.1 -0.1)">
       <use xlink:href="#DejaVuSans-52"/>
      </g>
     </g>
    </g>
    <g id="xtick_10">
     <g id="line2d_48">
      <g>
       <use style="stroke:#000000;stroke-width:0.8;" x="592.2" xlink:href="#ma666e2aa32" y="876.282353"/>
      </g>
     </g>
     <g id="text_25">
      <!-- 5 -->
      <g transform="translate(589.01875 890.88079)scale(0.1 -0.1)">
       <use xlink:href="#DejaVuSans-53"/>
      </g>
     </g>
    </g>
    <g id="text_26">
     <!-- day -->
     <g transform="translate(352.444219 910.637665)scale(0.18 -0.18)">
      <use xlink:href="#DejaVuSans-100"/>
      <use x="63.476562" xlink:href="#DejaVuSans-97"/>
      <use x="124.755859" xlink:href="#DejaVuSans-121"/>
     </g>
    </g>
   </g>
   <g id="matplotlib.axis_4">
    <g id="ytick_9">
     <g id="line2d_49">
      <g>
       <use style="stroke:#000000;stroke-width:0.8;" x="90" xlink:href="#m420d382bfd" y="876.282353"/>
      </g>
     </g>
     <g id="text_27">
      <!-- 0.00 -->
      <defs>
       <path d="M 10.6875 12.40625 
L 21 12.40625 
L 21 0 
L 10.6875 0 
z
" id="DejaVuSans-46"/>
      </defs>
      <g transform="translate(60.734375 880.081572)scale(0.1 -0.1)">
       <use xlink:href="#DejaVuSans-48"/>
       <use x="63.623047" xlink:href="#DejaVuSans-46"/>
       <use x="95.410156" xlink:href="#DejaVuSans-48"/>
       <use x="159.033203" xlink:href="#DejaVuSans-48"/>
      </g>
     </g>
    </g>
    <g id="ytick_10">
     <g id="line2d_50">
      <g>
       <use style="stroke:#000000;stroke-width:0.8;" x="90" xlink:href="#m420d382bfd" y="812.329412"/>
      </g>
     </g>
     <g id="text_28">
      <!-- 0.02 -->
      <g transform="translate(60.734375 816.128631)scale(0.1 -0.1)">
       <use xlink:href="#DejaVuSans-48"/>
       <use x="63.623047" xlink:href="#DejaVuSans-46"/>
       <use x="95.410156" xlink:href="#DejaVuSans-48"/>
       <use x="159.033203" xlink:href="#DejaVuSans-50"/>
      </g>
     </g>
    </g>
    <g id="ytick_11">
     <g id="line2d_51">
      <g>
       <use style="stroke:#000000;stroke-width:0.8;" x="90" xlink:href="#m420d382bfd" y="748.376471"/>
      </g>
     </g>
     <g id="text_29">
      <!-- 0.04 -->
      <g transform="translate(60.734375 752.175689)scale(0.1 -0.1)">
       <use xlink:href="#DejaVuSans-48"/>
       <use x="63.623047" xlink:href="#DejaVuSans-46"/>
       <use x="95.410156" xlink:href="#DejaVuSans-48"/>
       <use x="159.033203" xlink:href="#DejaVuSans-52"/>
      </g>
     </g>
    </g>
    <g id="ytick_12">
     <g id="line2d_52">
      <g>
       <use style="stroke:#000000;stroke-width:0.8;" x="90" xlink:href="#m420d382bfd" y="684.423529"/>
      </g>
     </g>
     <g id="text_30">
      <!-- 0.06 -->
      <g transform="translate(60.734375 688.222748)scale(0.1 -0.1)">
       <use xlink:href="#DejaVuSans-48"/>
       <use x="63.623047" xlink:href="#DejaVuSans-46"/>
       <use x="95.410156" xlink:href="#DejaVuSans-48"/>
       <use x="159.033203" xlink:href="#DejaVuSans-54"/>
      </g>
     </g>
    </g>
    <g id="ytick_13">
     <g id="line2d_53">
      <g>
       <use style="stroke:#000000;stroke-width:0.8;" x="90" xlink:href="#m420d382bfd" y="620.470588"/>
      </g>
     </g>
     <g id="text_31">
      <!-- 0.08 -->
      <defs>
       <path d="M 31.78125 34.625 
Q 24.75 34.625 20.71875 30.859375 
Q 16.703125 27.09375 16.703125 20.515625 
Q 16.703125 13.921875 20.71875 10.15625 
Q 24.75 6.390625 31.78125 6.390625 
Q 38.8125 6.390625 42.859375 10.171875 
Q 46.921875 13.96875 46.921875 20.515625 
Q 46.921875 27.09375 42.890625 30.859375 
Q 38.875 34.625 31.78125 34.625 
z
M 21.921875 38.8125 
Q 15.578125 40.375 12.03125 44.71875 
Q 8.5 49.078125 8.5 55.328125 
Q 8.5 64.0625 14.71875 69.140625 
Q 20.953125 74.21875 31.78125 74.21875 
Q 42.671875 74.21875 48.875 69.140625 
Q 55.078125 64.0625 55.078125 55.328125 
Q 55.078125 49.078125 51.53125 44.71875 
Q 48 40.375 41.703125 38.8125 
Q 48.828125 37.15625 52.796875 32.3125 
Q 56.78125 27.484375 56.78125 20.515625 
Q 56.78125 9.90625 50.3125 4.234375 
Q 43.84375 -1.421875 31.78125 -1.421875 
Q 19.734375 -1.421875 13.25 4.234375 
Q 6.78125 9.90625 6.78125 20.515625 
Q 6.78125 27.484375 10.78125 32.3125 
Q 14.796875 37.15625 21.921875 38.8125 
z
M 18.3125 54.390625 
Q 18.3125 48.734375 21.84375 45.5625 
Q 25.390625 42.390625 31.78125 42.390625 
Q 38.140625 42.390625 41.71875 45.5625 
Q 45.3125 48.734375 45.3125 54.390625 
Q 45.3125 60.0625 41.71875 63.234375 
Q 38.140625 66.40625 31.78125 66.40625 
Q 25.390625 66.40625 21.84375 63.234375 
Q 18.3125 60.0625 18.3125 54.390625 
z
" id="DejaVuSans-56"/>
      </defs>
      <g transform="translate(60.734375 624.269807)scale(0.1 -0.1)">
       <use xlink:href="#DejaVuSans-48"/>
       <use x="63.623047" xlink:href="#DejaVuSans-46"/>
       <use x="95.410156" xlink:href="#DejaVuSans-48"/>
       <use x="159.033203" xlink:href="#DejaVuSans-56"/>
      </g>
     </g>
    </g>
    <g id="ytick_14">
     <g id="line2d_54">
      <g>
       <use style="stroke:#000000;stroke-width:0.8;" x="90" xlink:href="#m420d382bfd" y="556.517647"/>
      </g>
     </g>
     <g id="text_32">
      <!-- 0.10 -->
      <g transform="translate(60.734375 560.316866)scale(0.1 -0.1)">
       <use xlink:href="#DejaVuSans-48"/>
       <use x="63.623047" xlink:href="#DejaVuSans-46"/>
       <use x="95.410156" xlink:href="#DejaVuSans-49"/>
       <use x="159.033203" xlink:href="#DejaVuSans-48"/>
      </g>
     </g>
    </g>
    <g id="text_33">
     <!-- frame error (%) -->
     <defs>
      <path d="M 37.109375 75.984375 
L 37.109375 68.5 
L 28.515625 68.5 
Q 23.6875 68.5 21.796875 66.546875 
Q 19.921875 64.59375 19.921875 59.515625 
L 19.921875 54.6875 
L 34.71875 54.6875 
L 34.71875 47.703125 
L 19.921875 47.703125 
L 19.921875 0 
L 10.890625 0 
L 10.890625 47.703125 
L 2.296875 47.703125 
L 2.296875 54.6875 
L 10.890625 54.6875 
L 10.890625 58.5 
Q 10.890625 67.625 15.140625 71.796875 
Q 19.390625 75.984375 28.609375 75.984375 
z
" id="DejaVuSans-102"/>
      <path d="M 72.703125 32.078125 
Q 68.453125 32.078125 66.03125 28.46875 
Q 63.625 24.859375 63.625 18.40625 
Q 63.625 12.0625 66.03125 8.421875 
Q 68.453125 4.78125 72.703125 4.78125 
Q 76.859375 4.78125 79.265625 8.421875 
Q 81.6875 12.0625 81.6875 18.40625 
Q 81.6875 24.8125 79.265625 28.4375 
Q 76.859375 32.078125 72.703125 32.078125 
z
M 72.703125 38.28125 
Q 80.421875 38.28125 84.953125 32.90625 
Q 89.5 27.546875 89.5 18.40625 
Q 89.5 9.28125 84.9375 3.921875 
Q 80.375 -1.421875 72.703125 -1.421875 
Q 64.890625 -1.421875 60.34375 3.921875 
Q 55.8125 9.28125 55.8125 18.40625 
Q 55.8125 27.59375 60.375 32.9375 
Q 64.9375 38.28125 72.703125 38.28125 
z
M 22.3125 68.015625 
Q 18.109375 68.015625 15.6875 64.375 
Q 13.28125 60.75 13.28125 54.390625 
Q 13.28125 47.953125 15.671875 44.328125 
Q 18.0625 40.71875 22.3125 40.71875 
Q 26.5625 40.71875 28.96875 44.328125 
Q 31.390625 47.953125 31.390625 54.390625 
Q 31.390625 60.6875 28.953125 64.34375 
Q 26.515625 68.015625 22.3125 68.015625 
z
M 66.40625 74.21875 
L 74.21875 74.21875 
L 28.609375 -1.421875 
L 20.796875 -1.421875 
z
M 22.3125 74.21875 
Q 30.03125 74.21875 34.609375 68.875 
Q 39.203125 63.53125 39.203125 54.390625 
Q 39.203125 45.171875 34.640625 39.84375 
Q 30.078125 34.515625 22.3125 34.515625 
Q 14.546875 34.515625 10.03125 39.859375 
Q 5.515625 45.21875 5.515625 54.390625 
Q 5.515625 63.484375 10.046875 68.84375 
Q 14.59375 74.21875 22.3125 74.21875 
z
" id="DejaVuSans-37"/>
     </defs>
     <g transform="translate(52.990938 786.522656)rotate(-90)scale(0.18 -0.18)">
      <use xlink:href="#DejaVuSans-102"/>
      <use x="35.205078" xlink:href="#DejaVuSans-114"/>
      <use x="76.318359" xlink:href="#DejaVuSans-97"/>
      <use x="137.597656" xlink:href="#DejaVuSans-109"/>
      <use x="235.009766" xlink:href="#DejaVuSans-101"/>
      <use x="296.533203" xlink:href="#DejaVuSans-32"/>
      <use x="328.320312" xlink:href="#DejaVuSans-101"/>
      <use x="389.84375" xlink:href="#DejaVuSans-114"/>
      <use x="430.941406" xlink:href="#DejaVuSans-114"/>
      <use x="472.023438" xlink:href="#DejaVuSans-111"/>
      <use x="533.205078" xlink:href="#DejaVuSans-114"/>
      <use x="574.318359" xlink:href="#DejaVuSans-32"/>
      <use x="606.105469" xlink:href="#DejaVuSans-40"/>
      <use x="645.119141" xlink:href="#DejaVuSans-37"/>
      <use x="740.138672" xlink:href="#DejaVuSans-41"/>
     </g>
    </g>
   </g>
   <g id="PathCollection_10">
    <defs>
     <path d="M 0 3.383948 
C 0.897434 3.383948 1.758231 3.027394 2.392813 2.392813 
C 3.027394 1.758231 3.383948 0.897434 3.383948 0 
C 3.383948 -0.897434 3.027394 -1.758231 2.392813 -2.392813 
C 1.758231 -3.027394 0.897434 -3.383948 0 -3.383948 
C -0.897434 -3.383948 -1.758231 -3.027394 -2.392813 -2.392813 
C -3.027394 -1.758231 -3.383948 -0.897434 -3.383948 0 
C -3.383948 0.897434 -3.027394 1.758231 -2.392813 2.392813 
C -1.758231 3.027394 -0.897434 3.383948 0 3.383948 
z
" id="C5_0_1e624f47f9"/>
    </defs>
    <g clip-path="url(#pd3a791827b)">
     <use style="fill:#ff7f0e;stroke:#ff7f0e;stroke-width:2.025;" x="145.8" xlink:href="#C5_0_1e624f47f9" y="780.186361"/>
    </g>
    <g clip-path="url(#pd3a791827b)">
     <use style="fill:#ff7f0e;stroke:#ff7f0e;stroke-width:2.025;" x="257.4" xlink:href="#C5_0_1e624f47f9" y="794.515984"/>
    </g>
    <g clip-path="url(#pd3a791827b)">
     <use style="fill:#ff7f0e;stroke:#ff7f0e;stroke-width:2.025;" x="369" xlink:href="#C5_0_1e624f47f9" y="782.163926"/>
    </g>
    <g clip-path="url(#pd3a791827b)">
     <use style="fill:#ff7f0e;stroke:#ff7f0e;stroke-width:2.025;" x="480.6" xlink:href="#C5_0_1e624f47f9" y="777.443313"/>
    </g>
    <g clip-path="url(#pd3a791827b)">
     <use style="fill:#ff7f0e;stroke:#ff7f0e;stroke-width:2.025;" x="592.2" xlink:href="#C5_0_1e624f47f9" y="767.732309"/>
    </g>
   </g>
   <g id="line2d_55">
    <path clip-path="url(#pd3a791827b)" d="M 145.8 780.186361 
L 257.4 794.515984 
L 369 782.163926 
L 480.6 777.443313 
L 592.2 767.732309 
" style="fill:none;stroke:#ff7f0e;stroke-dasharray:9.99,4.32;stroke-dashoffset:0;stroke-width:2.7;"/>
   </g>
   <g id="line2d_56">
    <path clip-path="url(#pd3a791827b)" style="fill:none;stroke:#ff7f0e;stroke-linecap:square;stroke-width:2.7;"/>
   </g>
   <g id="line2d_57">
    <path clip-path="url(#pd3a791827b)" style="fill:none;stroke:#ff7f0e;stroke-linecap:square;stroke-width:2.7;"/>
   </g>
   <g id="line2d_58">
    <path clip-path="url(#pd3a791827b)" style="fill:none;stroke:#ff7f0e;stroke-linecap:square;stroke-width:2.7;"/>
   </g>
   <g id="line2d_59">
    <path clip-path="url(#pd3a791827b)" style="fill:none;stroke:#ff7f0e;stroke-linecap:square;stroke-width:2.7;"/>
   </g>
   <g id="line2d_60">
    <path clip-path="url(#pd3a791827b)" style="fill:none;stroke:#ff7f0e;stroke-linecap:square;stroke-width:2.7;"/>
   </g>
   <g id="patch_9">
    <path d="M 90 876.282353 
L 90 556.517647 
" style="fill:none;stroke:#000000;stroke-linecap:square;stroke-linejoin:miter;stroke-width:0.8;"/>
   </g>
   <g id="patch_10">
    <path d="M 648 876.282353 
L 648 556.517647 
" style="fill:none;stroke:#000000;stroke-linecap:square;stroke-linejoin:miter;stroke-width:0.8;"/>
   </g>
   <g id="patch_11">
    <path d="M 90 876.282353 
L 648 876.282353 
" style="fill:none;stroke:#000000;stroke-linecap:square;stroke-linejoin:miter;stroke-width:0.8;"/>
   </g>
   <g id="patch_12">
    <path d="M 90 556.517647 
L 648 556.517647 
" style="fill:none;stroke:#000000;stroke-linecap:square;stroke-linejoin:miter;stroke-width:0.8;"/>
   </g>
   <g id="PathCollection_11">
    <defs>
     <path d="M 0 3.383948 
C 0.897434 3.383948 1.758231 3.027394 2.392813 2.392813 
C 3.027394 1.758231 3.383948 0.897434 3.383948 0 
C 3.383948 -0.897434 3.027394 -1.758231 2.392813 -2.392813 
C 1.758231 -3.027394 0.897434 -3.383948 0 -3.383948 
C -0.897434 -3.383948 -1.758231 -3.027394 -2.392813 -2.392813 
C -3.027394 -1.758231 -3.383948 -0.897434 -3.383948 0 
C -3.383948 0.897434 -3.027394 1.758231 -2.392813 2.392813 
C -1.758231 3.027394 -0.897434 3.383948 0 3.383948 
z
" id="C6_0_47264041e8"/>
    </defs>
    <g clip-path="url(#pd3a791827b)">
     <use style="fill:#2ca02c;stroke:#2ca02c;stroke-width:2.025;" x="145.8" xlink:href="#C6_0_47264041e8" y="803.47524"/>
    </g>
    <g clip-path="url(#pd3a791827b)">
     <use style="fill:#2ca02c;stroke:#2ca02c;stroke-width:2.025;" x="257.4" xlink:href="#C6_0_47264041e8" y="809.706728"/>
    </g>
    <g clip-path="url(#pd3a791827b)">
     <use style="fill:#2ca02c;stroke:#2ca02c;stroke-width:2.025;" x="369" xlink:href="#C6_0_47264041e8" y="818.56896"/>
    </g>
    <g clip-path="url(#pd3a791827b)">
     <use style="fill:#2ca02c;stroke:#2ca02c;stroke-width:2.025;" x="480.6" xlink:href="#C6_0_47264041e8" y="815.161456"/>
    </g>
    <g clip-path="url(#pd3a791827b)">
     <use style="fill:#2ca02c;stroke:#2ca02c;stroke-width:2.025;" x="592.2" xlink:href="#C6_0_47264041e8" y="796.677743"/>
    </g>
   </g>
   <g id="line2d_61">
    <path clip-path="url(#pd3a791827b)" d="M 145.8 803.47524 
L 257.4 809.706728 
L 369 818.56896 
L 480.6 815.161456 
L 592.2 796.677743 
" style="fill:none;stroke:#2ca02c;stroke-dasharray:9.99,4.32;stroke-dashoffset:0;stroke-width:2.7;"/>
   </g>
   <g id="line2d_62">
    <path clip-path="url(#pd3a791827b)" style="fill:none;stroke:#2ca02c;stroke-linecap:square;stroke-width:2.7;"/>
   </g>
   <g id="line2d_63">
    <path clip-path="url(#pd3a791827b)" style="fill:none;stroke:#2ca02c;stroke-linecap:square;stroke-width:2.7;"/>
   </g>
   <g id="line2d_64">
    <path clip-path="url(#pd3a791827b)" style="fill:none;stroke:#2ca02c;stroke-linecap:square;stroke-width:2.7;"/>
   </g>
   <g id="line2d_65">
    <path clip-path="url(#pd3a791827b)" style="fill:none;stroke:#2ca02c;stroke-linecap:square;stroke-width:2.7;"/>
   </g>
   <g id="line2d_66">
    <path clip-path="url(#pd3a791827b)" style="fill:none;stroke:#2ca02c;stroke-linecap:square;stroke-width:2.7;"/>
   </g>
   <g id="PathCollection_12">
    <defs>
     <path d="M 0 3.383948 
C 0.897434 3.383948 1.758231 3.027394 2.392813 2.392813 
C 3.027394 1.758231 3.383948 0.897434 3.383948 0 
C 3.383948 -0.897434 3.027394 -1.758231 2.392813 -2.392813 
C 1.758231 -3.027394 0.897434 -3.383948 0 -3.383948 
C -0.897434 -3.383948 -1.758231 -3.027394 -2.392813 -2.392813 
C -3.027394 -1.758231 -3.383948 -0.897434 -3.383948 0 
C -3.383948 0.897434 -3.027394 1.758231 -2.392813 2.392813 
C -1.758231 3.027394 -0.897434 3.383948 0 3.383948 
z
" id="C7_0_eeb9064ed5"/>
    </defs>
    <g clip-path="url(#pd3a791827b)">
     <use style="fill:#d62728;stroke:#d62728;stroke-width:2.025;" x="145.8" xlink:href="#C7_0_eeb9064ed5" y="827.540494"/>
    </g>
    <g clip-path="url(#pd3a791827b)">
     <use style="fill:#d62728;stroke:#d62728;stroke-width:2.025;" x="257.4" xlink:href="#C7_0_eeb9064ed5" y="826.224143"/>
    </g>
    <g clip-path="url(#pd3a791827b)">
     <use style="fill:#d62728;stroke:#d62728;stroke-width:2.025;" x="369" xlink:href="#C7_0_eeb9064ed5" y="828.999741"/>
    </g>
    <g clip-path="url(#pd3a791827b)">
     <use style="fill:#d62728;stroke:#d62728;stroke-width:2.025;" x="480.6" xlink:href="#C7_0_eeb9064ed5" y="826.19677"/>
    </g>
    <g clip-path="url(#pd3a791827b)">
     <use style="fill:#d62728;stroke:#d62728;stroke-width:2.025;" x="592.2" xlink:href="#C7_0_eeb9064ed5" y="744.596709"/>
    </g>
   </g>
   <g id="line2d_67">
    <path clip-path="url(#pd3a791827b)" d="M 145.8 827.540494 
L 257.4 826.224143 
L 369 828.999741 
L 480.6 826.19677 
L 592.2 744.596709 
" style="fill:none;stroke:#d62728;stroke-dasharray:9.99,4.32;stroke-dashoffset:0;stroke-width:2.7;"/>
   </g>
   <g id="line2d_68">
    <path clip-path="url(#pd3a791827b)" style="fill:none;stroke:#d62728;stroke-linecap:square;stroke-width:2.7;"/>
   </g>
   <g id="line2d_69">
    <path clip-path="url(#pd3a791827b)" style="fill:none;stroke:#d62728;stroke-linecap:square;stroke-width:2.7;"/>
   </g>
   <g id="line2d_70">
    <path clip-path="url(#pd3a791827b)" style="fill:none;stroke:#d62728;stroke-linecap:square;stroke-width:2.7;"/>
   </g>
   <g id="line2d_71">
    <path clip-path="url(#pd3a791827b)" style="fill:none;stroke:#d62728;stroke-linecap:square;stroke-width:2.7;"/>
   </g>
   <g id="line2d_72">
    <path clip-path="url(#pd3a791827b)" style="fill:none;stroke:#d62728;stroke-linecap:square;stroke-width:2.7;"/>
   </g>
   <g id="legend_2">
    <g id="patch_13">
     <path d="M 559.223438 638.186397 
L 641 638.186397 
Q 643 638.186397 643 636.186397 
L 643 563.517647 
Q 643 561.517647 641 561.517647 
L 559.223438 561.517647 
Q 557.223438 561.517647 557.223438 563.517647 
L 557.223438 636.186397 
Q 557.223438 638.186397 559.223438 638.186397 
z
" style="fill:#ffffff;opacity:0.8;stroke:#cccccc;stroke-linejoin:miter;"/>
    </g>
    <g id="text_34">
     <!-- animal_ID -->
     <g transform="translate(575.341406 573.116085)scale(0.1 -0.1)">
      <use xlink:href="#DejaVuSans-97"/>
      <use x="61.279297" xlink:href="#DejaVuSans-110"/>
      <use x="124.658203" xlink:href="#DejaVuSans-105"/>
      <use x="152.441406" xlink:href="#DejaVuSans-109"/>
      <use x="249.853516" xlink:href="#DejaVuSans-97"/>
      <use x="311.132812" xlink:href="#DejaVuSans-108"/>
      <use x="338.916016" xlink:href="#DejaVuSans-95"/>
      <use x="388.916016" xlink:href="#DejaVuSans-73"/>
      <use x="418.408203" xlink:href="#DejaVuSans-68"/>
     </g>
    </g>
    <g id="PathCollection_13">
     <path d="M 571.223438 588.831283 
C 572.120871 588.831283 572.981669 588.474729 573.61625 587.840147 
C 574.250832 587.205566 574.607386 586.344768 574.607386 585.447335 
C 574.607386 584.549901 574.250832 583.689103 573.61625 583.054522 
C 572.981669 582.419941 572.120871 582.063386 571.223438 582.063386 
C 570.326004 582.063386 569.465206 582.419941 568.830625 583.054522 
C 568.196043 583.689103 567.839489 584.549901 567.839489 585.447335 
C 567.839489 586.344768 568.196043 587.205566 568.830625 587.840147 
C 569.465206 588.474729 570.326004 588.831283 571.223438 588.831283 
z
" style="fill:#1f77b4;stroke:#1f77b4;stroke-width:2.025;"/>
    </g>
    <g id="text_35">
     <!-- bl26lb16 -->
     <g transform="translate(589.223438 588.072335)scale(0.1 -0.1)">
      <use xlink:href="#DejaVuSans-98"/>
      <use x="63.476562" xlink:href="#DejaVuSans-108"/>
      <use x="91.259766" xlink:href="#DejaVuSans-50"/>
      <use x="154.882812" xlink:href="#DejaVuSans-54"/>
      <use x="218.505859" xlink:href="#DejaVuSans-108"/>
      <use x="246.289062" xlink:href="#DejaVuSans-98"/>
      <use x="309.765625" xlink:href="#DejaVuSans-49"/>
      <use x="373.388672" xlink:href="#DejaVuSans-54"/>
     </g>
    </g>
    <g id="PathCollection_14">
     <path d="M 571.223438 603.509408 
C 572.120871 603.509408 572.981669 603.152854 573.61625 602.518272 
C 574.250832 601.883691 574.607386 601.022893 574.607386 600.12546 
C 574.607386 599.228026 574.250832 598.367228 573.61625 597.732647 
C 572.981669 597.098066 572.120871 596.741511 571.223438 596.741511 
C 570.326004 596.741511 569.465206 597.098066 568.830625 597.732647 
C 568.196043 598.367228 567.839489 599.228026 567.839489 600.12546 
C 567.839489 601.022893 568.196043 601.883691 568.830625 602.518272 
C 569.465206 603.152854 570.326004 603.509408 571.223438 603.509408 
z
" style="fill:#ff7f0e;stroke:#ff7f0e;stroke-width:2.025;"/>
    </g>
    <g id="text_36">
     <!-- gr41rd51 -->
     <g transform="translate(589.223438 602.75046)scale(0.1 -0.1)">
      <use xlink:href="#DejaVuSans-103"/>
      <use x="63.476562" xlink:href="#DejaVuSans-114"/>
      <use x="104.589844" xlink:href="#DejaVuSans-52"/>
      <use x="168.212891" xlink:href="#DejaVuSans-49"/>
      <use x="231.835938" xlink:href="#DejaVuSans-114"/>
      <use x="272.933594" xlink:href="#DejaVuSans-100"/>
      <use x="336.410156" xlink:href="#DejaVuSans-53"/>
      <use x="400.033203" xlink:href="#DejaVuSans-49"/>
     </g>
    </g>
    <g id="PathCollection_15">
     <path d="M 571.223438 618.187533 
C 572.120871 618.187533 572.981669 617.830979 573.61625 617.196397 
C 574.250832 616.561816 574.607386 615.701018 574.607386 614.803585 
C 574.607386 613.906151 574.250832 613.045353 573.61625 612.410772 
C 572.981669 611.776191 572.120871 611.419636 571.223438 611.419636 
C 570.326004 611.419636 569.465206 611.776191 568.830625 612.410772 
C 568.196043 613.045353 567.839489 613.906151 567.839489 614.803585 
C 567.839489 615.701018 568.196043 616.561816 568.830625 617.196397 
C 569.465206 617.830979 570.326004 618.187533 571.223438 618.187533 
z
" style="fill:#2ca02c;stroke:#2ca02c;stroke-width:2.025;"/>
    </g>
    <g id="text_37">
     <!-- gy6or6 -->
     <g transform="translate(589.223438 617.428585)scale(0.1 -0.1)">
      <use xlink:href="#DejaVuSans-103"/>
      <use x="63.476562" xlink:href="#DejaVuSans-121"/>
      <use x="122.65625" xlink:href="#DejaVuSans-54"/>
      <use x="186.279297" xlink:href="#DejaVuSans-111"/>
      <use x="247.460938" xlink:href="#DejaVuSans-114"/>
      <use x="288.574219" xlink:href="#DejaVuSans-54"/>
     </g>
    </g>
    <g id="PathCollection_16">
     <path d="M 571.223438 632.865658 
C 572.120871 632.865658 572.981669 632.509104 573.61625 631.874522 
C 574.250832 631.239941 574.607386 630.379143 574.607386 629.48171 
C 574.607386 628.584276 574.250832 627.723478 573.61625 627.088897 
C 572.981669 626.454316 572.120871 626.097761 571.223438 626.097761 
C 570.326004 626.097761 569.465206 626.454316 568.830625 627.088897 
C 568.196043 627.723478 567.839489 628.584276 567.839489 629.48171 
C 567.839489 630.379143 568.196043 631.239941 568.830625 631.874522 
C 569.465206 632.509104 570.326004 632.865658 571.223438 632.865658 
z
" style="fill:#d62728;stroke:#d62728;stroke-width:2.025;"/>
    </g>
    <g id="text_38">
     <!-- or60yw70 -->
     <g transform="translate(589.223438 632.10671)scale(0.1 -0.1)">
      <use xlink:href="#DejaVuSans-111"/>
      <use x="61.181641" xlink:href="#DejaVuSans-114"/>
      <use x="102.294922" xlink:href="#DejaVuSans-54"/>
      <use x="165.917969" xlink:href="#DejaVuSans-48"/>
      <use x="229.541016" xlink:href="#DejaVuSans-121"/>
      <use x="288.720703" xlink:href="#DejaVuSans-119"/>
      <use x="370.507812" xlink:href="#DejaVuSans-55"/>
      <use x="434.130859" xlink:href="#DejaVuSans-48"/>
     </g>
    </g>
   </g>
  </g>
  <g id="axes_3">
   <g id="patch_14">
    <path d="M 90 1260 
L 648 1260 
L 648 940.235294 
L 90 940.235294 
z
" style="fill:#ffffff;"/>
   </g>
   <g id="PathCollection_17">
    <defs>
     <path d="M 0 3.383948 
C 0.897434 3.383948 1.758231 3.027394 2.392813 2.392813 
C 3.027394 1.758231 3.383948 0.897434 3.383948 0 
C 3.383948 -0.897434 3.027394 -1.758231 2.392813 -2.392813 
C 1.758231 -3.027394 0.897434 -3.383948 0 -3.383948 
C -0.897434 -3.383948 -1.758231 -3.027394 -2.392813 -2.392813 
C -3.027394 -1.758231 -3.383948 -0.897434 -3.383948 0 
C -3.383948 0.897434 -3.027394 1.758231 -2.392813 2.392813 
C -1.758231 3.027394 -0.897434 3.383948 0 3.383948 
z
" id="C8_0_410b06ee79"/>
    </defs>
    <g clip-path="url(#pcdb3d937bd)">
     <use style="fill:#1f77b4;stroke:#1f77b4;stroke-width:2.025;" x="145.8" xlink:href="#C8_0_410b06ee79" y="1225.369033"/>
    </g>
    <g clip-path="url(#pcdb3d937bd)">
     <use style="fill:#1f77b4;stroke:#1f77b4;stroke-width:2.025;" x="257.4" xlink:href="#C8_0_410b06ee79" y="1221.751452"/>
    </g>
    <g clip-path="url(#pcdb3d937bd)">
     <use style="fill:#1f77b4;stroke:#1f77b4;stroke-width:2.025;" x="369" xlink:href="#C8_0_410b06ee79" y="1211.653403"/>
    </g>
   </g>
   <g id="line2d_73">
    <path clip-path="url(#pcdb3d937bd)" d="M 145.8 1225.369033 
L 257.4 1221.751452 
L 369 1211.653403 
" style="fill:none;stroke:#1f77b4;stroke-dasharray:9.99,4.32;stroke-dashoffset:0;stroke-width:2.7;"/>
   </g>
   <g id="line2d_74">
    <path clip-path="url(#pcdb3d937bd)" style="fill:none;stroke:#1f77b4;stroke-linecap:square;stroke-width:2.7;"/>
   </g>
   <g id="line2d_75">
    <path clip-path="url(#pcdb3d937bd)" style="fill:none;stroke:#1f77b4;stroke-linecap:square;stroke-width:2.7;"/>
   </g>
   <g id="line2d_76">
    <path clip-path="url(#pcdb3d937bd)" style="fill:none;stroke:#1f77b4;stroke-linecap:square;stroke-width:2.7;"/>
   </g>
   <g id="line2d_77">
    <path clip-path="url(#pcdb3d937bd)" style="fill:none;stroke:#1f77b4;stroke-linecap:square;stroke-width:2.7;"/>
   </g>
   <g id="line2d_78">
    <path clip-path="url(#pcdb3d937bd)" style="fill:none;stroke:#1f77b4;stroke-linecap:square;stroke-width:2.7;"/>
   </g>
   <g id="matplotlib.axis_5">
    <g id="xtick_11">
     <g id="line2d_79">
      <g>
       <use style="stroke:#000000;stroke-width:0.8;" x="145.8" xlink:href="#ma666e2aa32" y="1260"/>
      </g>
     </g>
     <g id="text_39">
      <!-- 1 -->
      <g transform="translate(142.61875 1274.598438)scale(0.1 -0.1)">
       <use xlink:href="#DejaVuSans-49"/>
      </g>
     </g>
    </g>
    <g id="xtick_12">
     <g id="line2d_80">
      <g>
       <use style="stroke:#000000;stroke-width:0.8;" x="257.4" xlink:href="#ma666e2aa32" y="1260"/>
      </g>
     </g>
     <g id="text_40">
      <!-- 2 -->
      <g transform="translate(254.21875 1274.598438)scale(0.1 -0.1)">
       <use xlink:href="#DejaVuSans-50"/>
      </g>
     </g>
    </g>
    <g id="xtick_13">
     <g id="line2d_81">
      <g>
       <use style="stroke:#000000;stroke-width:0.8;" x="369" xlink:href="#ma666e2aa32" y="1260"/>
      </g>
     </g>
     <g id="text_41">
      <!-- 3 -->
      <g transform="translate(365.81875 1274.598438)scale(0.1 -0.1)">
       <use xlink:href="#DejaVuSans-51"/>
      </g>
     </g>
    </g>
    <g id="xtick_14">
     <g id="line2d_82">
      <g>
       <use style="stroke:#000000;stroke-width:0.8;" x="480.6" xlink:href="#ma666e2aa32" y="1260"/>
      </g>
     </g>
     <g id="text_42">
      <!-- 4 -->
      <g transform="translate(477.41875 1274.598438)scale(0.1 -0.1)">
       <use xlink:href="#DejaVuSans-52"/>
      </g>
     </g>
    </g>
    <g id="xtick_15">
     <g id="line2d_83">
      <g>
       <use style="stroke:#000000;stroke-width:0.8;" x="592.2" xlink:href="#ma666e2aa32" y="1260"/>
      </g>
     </g>
     <g id="text_43">
      <!-- 5 -->
      <g transform="translate(589.01875 1274.598438)scale(0.1 -0.1)">
       <use xlink:href="#DejaVuSans-53"/>
      </g>
     </g>
    </g>
    <g id="text_44">
     <!-- day -->
     <g transform="translate(352.444219 1294.355313)scale(0.18 -0.18)">
      <use xlink:href="#DejaVuSans-100"/>
      <use x="63.476562" xlink:href="#DejaVuSans-97"/>
      <use x="124.755859" xlink:href="#DejaVuSans-121"/>
     </g>
    </g>
   </g>
   <g id="matplotlib.axis_6">
    <g id="ytick_15">
     <g id="line2d_84">
      <g>
       <use style="stroke:#000000;stroke-width:0.8;" x="90" xlink:href="#m420d382bfd" y="1260"/>
      </g>
     </g>
     <g id="text_45">
      <!-- 0.0 -->
      <g transform="translate(67.096875 1263.799219)scale(0.1 -0.1)">
       <use xlink:href="#DejaVuSans-48"/>
       <use x="63.623047" xlink:href="#DejaVuSans-46"/>
       <use x="95.410156" xlink:href="#DejaVuSans-48"/>
      </g>
     </g>
    </g>
    <g id="ytick_16">
     <g id="line2d_85">
      <g>
       <use style="stroke:#000000;stroke-width:0.8;" x="90" xlink:href="#m420d382bfd" y="1217.364706"/>
      </g>
     </g>
     <g id="text_46">
      <!-- 0.2 -->
      <g transform="translate(67.096875 1221.163925)scale(0.1 -0.1)">
       <use xlink:href="#DejaVuSans-48"/>
       <use x="63.623047" xlink:href="#DejaVuSans-46"/>
       <use x="95.410156" xlink:href="#DejaVuSans-50"/>
      </g>
     </g>
    </g>
    <g id="ytick_17">
     <g id="line2d_86">
      <g>
       <use style="stroke:#000000;stroke-width:0.8;" x="90" xlink:href="#m420d382bfd" y="1174.729412"/>
      </g>
     </g>
     <g id="text_47">
      <!-- 0.4 -->
      <g transform="translate(67.096875 1178.528631)scale(0.1 -0.1)">
       <use xlink:href="#DejaVuSans-48"/>
       <use x="63.623047" xlink:href="#DejaVuSans-46"/>
       <use x="95.410156" xlink:href="#DejaVuSans-52"/>
      </g>
     </g>
    </g>
    <g id="ytick_18">
     <g id="line2d_87">
      <g>
       <use style="stroke:#000000;stroke-width:0.8;" x="90" xlink:href="#m420d382bfd" y="1132.094118"/>
      </g>
     </g>
     <g id="text_48">
      <!-- 0.6 -->
      <g transform="translate(67.096875 1135.893336)scale(0.1 -0.1)">
       <use xlink:href="#DejaVuSans-48"/>
       <use x="63.623047" xlink:href="#DejaVuSans-46"/>
       <use x="95.410156" xlink:href="#DejaVuSans-54"/>
      </g>
     </g>
    </g>
    <g id="ytick_19">
     <g id="line2d_88">
      <g>
       <use style="stroke:#000000;stroke-width:0.8;" x="90" xlink:href="#m420d382bfd" y="1089.458824"/>
      </g>
     </g>
     <g id="text_49">
      <!-- 0.8 -->
      <g transform="translate(67.096875 1093.258042)scale(0.1 -0.1)">
       <use xlink:href="#DejaVuSans-48"/>
       <use x="63.623047" xlink:href="#DejaVuSans-46"/>
       <use x="95.410156" xlink:href="#DejaVuSans-56"/>
      </g>
     </g>
    </g>
    <g id="ytick_20">
     <g id="line2d_89">
      <g>
       <use style="stroke:#000000;stroke-width:0.8;" x="90" xlink:href="#m420d382bfd" y="1046.823529"/>
      </g>
     </g>
     <g id="text_50">
      <!-- 1.0 -->
      <g transform="translate(67.096875 1050.622748)scale(0.1 -0.1)">
       <use xlink:href="#DejaVuSans-49"/>
       <use x="63.623047" xlink:href="#DejaVuSans-46"/>
       <use x="95.410156" xlink:href="#DejaVuSans-48"/>
      </g>
     </g>
    </g>
    <g id="ytick_21">
     <g id="line2d_90">
      <g>
       <use style="stroke:#000000;stroke-width:0.8;" x="90" xlink:href="#m420d382bfd" y="1004.188235"/>
      </g>
     </g>
     <g id="text_51">
      <!-- 1.2 -->
      <g transform="translate(67.096875 1007.987454)scale(0.1 -0.1)">
       <use xlink:href="#DejaVuSans-49"/>
       <use x="63.623047" xlink:href="#DejaVuSans-46"/>
       <use x="95.410156" xlink:href="#DejaVuSans-50"/>
      </g>
     </g>
    </g>
    <g id="ytick_22">
     <g id="line2d_91">
      <g>
       <use style="stroke:#000000;stroke-width:0.8;" x="90" xlink:href="#m420d382bfd" y="961.552941"/>
      </g>
     </g>
     <g id="text_52">
      <!-- 1.4 -->
      <g transform="translate(67.096875 965.35216)scale(0.1 -0.1)">
       <use xlink:href="#DejaVuSans-49"/>
       <use x="63.623047" xlink:href="#DejaVuSans-46"/>
       <use x="95.410156" xlink:href="#DejaVuSans-52"/>
      </g>
     </g>
    </g>
    <g id="text_53">
     <!-- syllable error rate (distance) -->
     <defs>
      <path d="M 48.78125 52.59375 
L 48.78125 44.1875 
Q 44.96875 46.296875 41.140625 47.34375 
Q 37.3125 48.390625 33.40625 48.390625 
Q 24.65625 48.390625 19.8125 42.84375 
Q 14.984375 37.3125 14.984375 27.296875 
Q 14.984375 17.28125 19.8125 11.734375 
Q 24.65625 6.203125 33.40625 6.203125 
Q 37.3125 6.203125 41.140625 7.25 
Q 44.96875 8.296875 48.78125 10.40625 
L 48.78125 2.09375 
Q 45.015625 0.34375 40.984375 -0.53125 
Q 36.96875 -1.421875 32.421875 -1.421875 
Q 20.0625 -1.421875 12.78125 6.34375 
Q 5.515625 14.109375 5.515625 27.296875 
Q 5.515625 40.671875 12.859375 48.328125 
Q 20.21875 56 33.015625 56 
Q 37.15625 56 41.109375 55.140625 
Q 45.0625 54.296875 48.78125 52.59375 
z
" id="DejaVuSans-99"/>
     </defs>
     <g transform="translate(59.353437 1228.56171)rotate(-90)scale(0.18 -0.18)">
      <use xlink:href="#DejaVuSans-115"/>
      <use x="52.099609" xlink:href="#DejaVuSans-121"/>
      <use x="111.279297" xlink:href="#DejaVuSans-108"/>
      <use x="139.0625" xlink:href="#DejaVuSans-108"/>
      <use x="166.845703" xlink:href="#DejaVuSans-97"/>
      <use x="228.125" xlink:href="#DejaVuSans-98"/>
      <use x="291.601562" xlink:href="#DejaVuSans-108"/>
      <use x="319.384766" xlink:href="#DejaVuSans-101"/>
      <use x="380.908203" xlink:href="#DejaVuSans-32"/>
      <use x="412.695312" xlink:href="#DejaVuSans-101"/>
      <use x="474.21875" xlink:href="#DejaVuSans-114"/>
      <use x="515.316406" xlink:href="#DejaVuSans-114"/>
      <use x="556.398438" xlink:href="#DejaVuSans-111"/>
      <use x="617.580078" xlink:href="#DejaVuSans-114"/>
      <use x="658.693359" xlink:href="#DejaVuSans-32"/>
      <use x="690.480469" xlink:href="#DejaVuSans-114"/>
      <use x="731.59375" xlink:href="#DejaVuSans-97"/>
      <use x="792.873047" xlink:href="#DejaVuSans-116"/>
      <use x="832.082031" xlink:href="#DejaVuSans-101"/>
      <use x="893.605469" xlink:href="#DejaVuSans-32"/>
      <use x="925.392578" xlink:href="#DejaVuSans-40"/>
      <use x="964.40625" xlink:href="#DejaVuSans-100"/>
      <use x="1027.882812" xlink:href="#DejaVuSans-105"/>
      <use x="1055.666016" xlink:href="#DejaVuSans-115"/>
      <use x="1107.765625" xlink:href="#DejaVuSans-116"/>
      <use x="1146.974609" xlink:href="#DejaVuSans-97"/>
      <use x="1208.253906" xlink:href="#DejaVuSans-110"/>
      <use x="1271.632812" xlink:href="#DejaVuSans-99"/>
      <use x="1326.613281" xlink:href="#DejaVuSans-101"/>
      <use x="1388.136719" xlink:href="#DejaVuSans-41"/>
     </g>
    </g>
   </g>
   <g id="PathCollection_18">
    <defs>
     <path d="M 0 3.383948 
C 0.897434 3.383948 1.758231 3.027394 2.392813 2.392813 
C 3.027394 1.758231 3.383948 0.897434 3.383948 0 
C 3.383948 -0.897434 3.027394 -1.758231 2.392813 -2.392813 
C 1.758231 -3.027394 0.897434 -3.383948 0 -3.383948 
C -0.897434 -3.383948 -1.758231 -3.027394 -2.392813 -2.392813 
C -3.027394 -1.758231 -3.383948 -0.897434 -3.383948 0 
C -3.383948 0.897434 -3.027394 1.758231 -2.392813 2.392813 
C -1.758231 3.027394 -0.897434 3.383948 0 3.383948 
z
" id="C9_0_b7156cfbf7"/>
    </defs>
    <g clip-path="url(#pcdb3d937bd)">
     <use style="fill:#ff7f0e;stroke:#ff7f0e;stroke-width:2.025;" x="145.8" xlink:href="#C9_0_b7156cfbf7" y="1159.554374"/>
    </g>
    <g clip-path="url(#pcdb3d937bd)">
     <use style="fill:#ff7f0e;stroke:#ff7f0e;stroke-width:2.025;" x="257.4" xlink:href="#C9_0_b7156cfbf7" y="1159.030434"/>
    </g>
    <g clip-path="url(#pcdb3d937bd)">
     <use style="fill:#ff7f0e;stroke:#ff7f0e;stroke-width:2.025;" x="369" xlink:href="#C9_0_b7156cfbf7" y="1156.337061"/>
    </g>
    <g clip-path="url(#pcdb3d937bd)">
     <use style="fill:#ff7f0e;stroke:#ff7f0e;stroke-width:2.025;" x="480.6" xlink:href="#C9_0_b7156cfbf7" y="1152.280582"/>
    </g>
    <g clip-path="url(#pcdb3d937bd)">
     <use style="fill:#ff7f0e;stroke:#ff7f0e;stroke-width:2.025;" x="592.2" xlink:href="#C9_0_b7156cfbf7" y="1144.208063"/>
    </g>
   </g>
   <g id="line2d_92">
    <path clip-path="url(#pcdb3d937bd)" d="M 145.8 1159.554374 
L 257.4 1159.030434 
L 369 1156.337061 
L 480.6 1152.280582 
L 592.2 1144.208063 
" style="fill:none;stroke:#ff7f0e;stroke-dasharray:9.99,4.32;stroke-dashoffset:0;stroke-width:2.7;"/>
   </g>
   <g id="line2d_93">
    <path clip-path="url(#pcdb3d937bd)" style="fill:none;stroke:#ff7f0e;stroke-linecap:square;stroke-width:2.7;"/>
   </g>
   <g id="line2d_94">
    <path clip-path="url(#pcdb3d937bd)" style="fill:none;stroke:#ff7f0e;stroke-linecap:square;stroke-width:2.7;"/>
   </g>
   <g id="line2d_95">
    <path clip-path="url(#pcdb3d937bd)" style="fill:none;stroke:#ff7f0e;stroke-linecap:square;stroke-width:2.7;"/>
   </g>
   <g id="line2d_96">
    <path clip-path="url(#pcdb3d937bd)" style="fill:none;stroke:#ff7f0e;stroke-linecap:square;stroke-width:2.7;"/>
   </g>
   <g id="line2d_97">
    <path clip-path="url(#pcdb3d937bd)" style="fill:none;stroke:#ff7f0e;stroke-linecap:square;stroke-width:2.7;"/>
   </g>
   <g id="patch_15">
    <path d="M 90 1260 
L 90 940.235294 
" style="fill:none;stroke:#000000;stroke-linecap:square;stroke-linejoin:miter;stroke-width:0.8;"/>
   </g>
   <g id="patch_16">
    <path d="M 648 1260 
L 648 940.235294 
" style="fill:none;stroke:#000000;stroke-linecap:square;stroke-linejoin:miter;stroke-width:0.8;"/>
   </g>
   <g id="patch_17">
    <path d="M 90 1260 
L 648 1260 
" style="fill:none;stroke:#000000;stroke-linecap:square;stroke-linejoin:miter;stroke-width:0.8;"/>
   </g>
   <g id="patch_18">
    <path d="M 90 940.235294 
L 648 940.235294 
" style="fill:none;stroke:#000000;stroke-linecap:square;stroke-linejoin:miter;stroke-width:0.8;"/>
   </g>
   <g id="PathCollection_19">
    <defs>
     <path d="M 0 3.383948 
C 0.897434 3.383948 1.758231 3.027394 2.392813 2.392813 
C 3.027394 1.758231 3.383948 0.897434 3.383948 0 
C 3.383948 -0.897434 3.027394 -1.758231 2.392813 -2.392813 
C 1.758231 -3.027394 0.897434 -3.383948 0 -3.383948 
C -0.897434 -3.383948 -1.758231 -3.027394 -2.392813 -2.392813 
C -3.027394 -1.758231 -3.383948 -0.897434 -3.383948 0 
C -3.383948 0.897434 -3.027394 1.758231 -2.392813 2.392813 
C -1.758231 3.027394 -0.897434 3.383948 0 3.383948 
z
" id="Ca_0_cd83f51eee"/>
    </defs>
    <g clip-path="url(#pcdb3d937bd)">
     <use style="fill:#2ca02c;stroke:#2ca02c;stroke-width:2.025;" x="145.8" xlink:href="#Ca_0_cd83f51eee" y="1223.596854"/>
    </g>
    <g clip-path="url(#pcdb3d937bd)">
     <use style="fill:#2ca02c;stroke:#2ca02c;stroke-width:2.025;" x="257.4" xlink:href="#Ca_0_cd83f51eee" y="1231.324824"/>
    </g>
    <g clip-path="url(#pcdb3d937bd)">
     <use style="fill:#2ca02c;stroke:#2ca02c;stroke-width:2.025;" x="369" xlink:href="#Ca_0_cd83f51eee" y="1236.737022"/>
    </g>
    <g clip-path="url(#pcdb3d937bd)">
     <use style="fill:#2ca02c;stroke:#2ca02c;stroke-width:2.025;" x="480.6" xlink:href="#Ca_0_cd83f51eee" y="1235.275283"/>
    </g>
    <g clip-path="url(#pcdb3d937bd)">
     <use style="fill:#2ca02c;stroke:#2ca02c;stroke-width:2.025;" x="592.2" xlink:href="#Ca_0_cd83f51eee" y="1224.694873"/>
    </g>
   </g>
   <g id="line2d_98">
    <path clip-path="url(#pcdb3d937bd)" d="M 145.8 1223.596854 
L 257.4 1231.324824 
L 369 1236.737022 
L 480.6 1235.275283 
L 592.2 1224.694873 
" style="fill:none;stroke:#2ca02c;stroke-dasharray:9.99,4.32;stroke-dashoffset:0;stroke-width:2.7;"/>
   </g>
   <g id="line2d_99">
    <path clip-path="url(#pcdb3d937bd)" style="fill:none;stroke:#2ca02c;stroke-linecap:square;stroke-width:2.7;"/>
   </g>
   <g id="line2d_100">
    <path clip-path="url(#pcdb3d937bd)" style="fill:none;stroke:#2ca02c;stroke-linecap:square;stroke-width:2.7;"/>
   </g>
   <g id="line2d_101">
    <path clip-path="url(#pcdb3d937bd)" style="fill:none;stroke:#2ca02c;stroke-linecap:square;stroke-width:2.7;"/>
   </g>
   <g id="line2d_102">
    <path clip-path="url(#pcdb3d937bd)" style="fill:none;stroke:#2ca02c;stroke-linecap:square;stroke-width:2.7;"/>
   </g>
   <g id="line2d_103">
    <path clip-path="url(#pcdb3d937bd)" style="fill:none;stroke:#2ca02c;stroke-linecap:square;stroke-width:2.7;"/>
   </g>
   <g id="PathCollection_20">
    <defs>
     <path d="M 0 3.383948 
C 0.897434 3.383948 1.758231 3.027394 2.392813 2.392813 
C 3.027394 1.758231 3.383948 0.897434 3.383948 0 
C 3.383948 -0.897434 3.027394 -1.758231 2.392813 -2.392813 
C 1.758231 -3.027394 0.897434 -3.383948 0 -3.383948 
C -0.897434 -3.383948 -1.758231 -3.027394 -2.392813 -2.392813 
C -3.027394 -1.758231 -3.383948 -0.897434 -3.383948 0 
C -3.383948 0.897434 -3.027394 1.758231 -2.392813 2.392813 
C -1.758231 3.027394 -0.897434 3.383948 0 3.383948 
z
" id="Cb_0_85d79d9201"/>
    </defs>
    <g clip-path="url(#pcdb3d937bd)">
     <use style="fill:#d62728;stroke:#d62728;stroke-width:2.025;" x="145.8" xlink:href="#Cb_0_85d79d9201" y="1239.098572"/>
    </g>
    <g clip-path="url(#pcdb3d937bd)">
     <use style="fill:#d62728;stroke:#d62728;stroke-width:2.025;" x="257.4" xlink:href="#Cb_0_85d79d9201" y="1237.53749"/>
    </g>
    <g clip-path="url(#pcdb3d937bd)">
     <use style="fill:#d62728;stroke:#d62728;stroke-width:2.025;" x="369" xlink:href="#Cb_0_85d79d9201" y="1239.786454"/>
    </g>
    <g clip-path="url(#pcdb3d937bd)">
     <use style="fill:#d62728;stroke:#d62728;stroke-width:2.025;" x="480.6" xlink:href="#Cb_0_85d79d9201" y="1236.955885"/>
    </g>
    <g clip-path="url(#pcdb3d937bd)">
     <use style="fill:#d62728;stroke:#d62728;stroke-width:2.025;" x="592.2" xlink:href="#Cb_0_85d79d9201" y="1218.668303"/>
    </g>
   </g>
   <g id="line2d_104">
    <path clip-path="url(#pcdb3d937bd)" d="M 145.8 1239.098572 
L 257.4 1237.53749 
L 369 1239.786454 
L 480.6 1236.955885 
L 592.2 1218.668303 
" style="fill:none;stroke:#d62728;stroke-dasharray:9.99,4.32;stroke-dashoffset:0;stroke-width:2.7;"/>
   </g>
   <g id="line2d_105">
    <path clip-path="url(#pcdb3d937bd)" style="fill:none;stroke:#d62728;stroke-linecap:square;stroke-width:2.7;"/>
   </g>
   <g id="line2d_106">
    <path clip-path="url(#pcdb3d937bd)" style="fill:none;stroke:#d62728;stroke-linecap:square;stroke-width:2.7;"/>
   </g>
   <g id="line2d_107">
    <path clip-path="url(#pcdb3d937bd)" style="fill:none;stroke:#d62728;stroke-linecap:square;stroke-width:2.7;"/>
   </g>
   <g id="line2d_108">
    <path clip-path="url(#pcdb3d937bd)" style="fill:none;stroke:#d62728;stroke-linecap:square;stroke-width:2.7;"/>
   </g>
   <g id="line2d_109">
    <path clip-path="url(#pcdb3d937bd)" style="fill:none;stroke:#d62728;stroke-linecap:square;stroke-width:2.7;"/>
   </g>
   <g id="legend_3">
    <g id="patch_19">
     <path d="M 559.223438 1021.904044 
L 641 1021.904044 
Q 643 1021.904044 643 1019.904044 
L 643 947.235294 
Q 643 945.235294 641 945.235294 
L 559.223438 945.235294 
Q 557.223438 945.235294 557.223438 947.235294 
L 557.223438 1019.904044 
Q 557.223438 1021.904044 559.223438 1021.904044 
z
" style="fill:#ffffff;opacity:0.8;stroke:#cccccc;stroke-linejoin:miter;"/>
    </g>
    <g id="text_54">
     <!-- animal_ID -->
     <g transform="translate(575.341406 956.833732)scale(0.1 -0.1)">
      <use xlink:href="#DejaVuSans-97"/>
      <use x="61.279297" xlink:href="#DejaVuSans-110"/>
      <use x="124.658203" xlink:href="#DejaVuSans-105"/>
      <use x="152.441406" xlink:href="#DejaVuSans-109"/>
      <use x="249.853516" xlink:href="#DejaVuSans-97"/>
      <use x="311.132812" xlink:href="#DejaVuSans-108"/>
      <use x="338.916016" xlink:href="#DejaVuSans-95"/>
      <use x="388.916016" xlink:href="#DejaVuSans-73"/>
      <use x="418.408203" xlink:href="#DejaVuSans-68"/>
     </g>
    </g>
    <g id="PathCollection_21">
     <path d="M 571.223438 972.54893 
C 572.120871 972.54893 572.981669 972.192376 573.61625 971.557794 
C 574.250832 970.923213 574.607386 970.062415 574.607386 969.164982 
C 574.607386 968.267548 574.250832 967.40675 573.61625 966.772169 
C 572.981669 966.137588 572.120871 965.781033 571.223438 965.781033 
C 570.326004 965.781033 569.465206 966.137588 568.830625 966.772169 
C 568.196043 967.40675 567.839489 968.267548 567.839489 969.164982 
C 567.839489 970.062415 568.196043 970.923213 568.830625 971.557794 
C 569.465206 972.192376 570.326004 972.54893 571.223438 972.54893 
z
" style="fill:#1f77b4;stroke:#1f77b4;stroke-width:2.025;"/>
    </g>
    <g id="text_55">
     <!-- bl26lb16 -->
     <g transform="translate(589.223438 971.789982)scale(0.1 -0.1)">
      <use xlink:href="#DejaVuSans-98"/>
      <use x="63.476562" xlink:href="#DejaVuSans-108"/>
      <use x="91.259766" xlink:href="#DejaVuSans-50"/>
      <use x="154.882812" xlink:href="#DejaVuSans-54"/>
      <use x="218.505859" xlink:href="#DejaVuSans-108"/>
      <use x="246.289062" xlink:href="#DejaVuSans-98"/>
      <use x="309.765625" xlink:href="#DejaVuSans-49"/>
      <use x="373.388672" xlink:href="#DejaVuSans-54"/>
     </g>
    </g>
    <g id="PathCollection_22">
     <path d="M 571.223438 987.227055 
C 572.120871 987.227055 572.981669 986.870501 573.61625 986.235919 
C 574.250832 985.601338 574.607386 984.74054 574.607386 983.843107 
C 574.607386 982.945673 574.250832 982.084875 573.61625 981.450294 
C 572.981669 980.815713 572.120871 980.459158 571.223438 980.459158 
C 570.326004 980.459158 569.465206 980.815713 568.830625 981.450294 
C 568.196043 982.084875 567.839489 982.945673 567.839489 983.843107 
C 567.839489 984.74054 568.196043 985.601338 568.830625 986.235919 
C 569.465206 986.870501 570.326004 987.227055 571.223438 987.227055 
z
" style="fill:#ff7f0e;stroke:#ff7f0e;stroke-width:2.025;"/>
    </g>
    <g id="text_56">
     <!-- gr41rd51 -->
     <g transform="translate(589.223438 986.468107)scale(0.1 -0.1)">
      <use xlink:href="#DejaVuSans-103"/>
      <use x="63.476562" xlink:href="#DejaVuSans-114"/>
      <use x="104.589844" xlink:href="#DejaVuSans-52"/>
      <use x="168.212891" xlink:href="#DejaVuSans-49"/>
      <use x="231.835938" xlink:href="#DejaVuSans-114"/>
      <use x="272.933594" xlink:href="#DejaVuSans-100"/>
      <use x="336.410156" xlink:href="#DejaVuSans-53"/>
      <use x="400.033203" xlink:href="#DejaVuSans-49"/>
     </g>
    </g>
    <g id="PathCollection_23">
     <path d="M 571.223438 1001.90518 
C 572.120871 1001.90518 572.981669 1001.548626 573.61625 1000.914044 
C 574.250832 1000.279463 574.607386 999.418665 574.607386 998.521232 
C 574.607386 997.623798 574.250832 996.763 573.61625 996.128419 
C 572.981669 995.493838 572.120871 995.137283 571.223438 995.137283 
C 570.326004 995.137283 569.465206 995.493838 568.830625 996.128419 
C 568.196043 996.763 567.839489 997.623798 567.839489 998.521232 
C 567.839489 999.418665 568.196043 1000.279463 568.830625 1000.914044 
C 569.465206 1001.548626 570.326004 1001.90518 571.223438 1001.90518 
z
" style="fill:#2ca02c;stroke:#2ca02c;stroke-width:2.025;"/>
    </g>
    <g id="text_57">
     <!-- gy6or6 -->
     <g transform="translate(589.223438 1001.146232)scale(0.1 -0.1)">
      <use xlink:href="#DejaVuSans-103"/>
      <use x="63.476562" xlink:href="#DejaVuSans-121"/>
      <use x="122.65625" xlink:href="#DejaVuSans-54"/>
      <use x="186.279297" xlink:href="#DejaVuSans-111"/>
      <use x="247.460938" xlink:href="#DejaVuSans-114"/>
      <use x="288.574219" xlink:href="#DejaVuSans-54"/>
     </g>
    </g>
    <g id="PathCollection_24">
     <path d="M 571.223438 1016.583305 
C 572.120871 1016.583305 572.981669 1016.226751 573.61625 1015.592169 
C 574.250832 1014.957588 574.607386 1014.09679 574.607386 1013.199357 
C 574.607386 1012.301923 574.250832 1011.441125 573.61625 1010.806544 
C 572.981669 1010.171963 572.120871 1009.815408 571.223438 1009.815408 
C 570.326004 1009.815408 569.465206 1010.171963 568.830625 1010.806544 
C 568.196043 1011.441125 567.839489 1012.301923 567.839489 1013.199357 
C 567.839489 1014.09679 568.196043 1014.957588 568.830625 1015.592169 
C 569.465206 1016.226751 570.326004 1016.583305 571.223438 1016.583305 
z
" style="fill:#d62728;stroke:#d62728;stroke-width:2.025;"/>
    </g>
    <g id="text_58">
     <!-- or60yw70 -->
     <g transform="translate(589.223438 1015.824357)scale(0.1 -0.1)">
      <use xlink:href="#DejaVuSans-111"/>
      <use x="61.181641" xlink:href="#DejaVuSans-114"/>
      <use x="102.294922" xlink:href="#DejaVuSans-54"/>
      <use x="165.917969" xlink:href="#DejaVuSans-48"/>
      <use x="229.541016" xlink:href="#DejaVuSans-121"/>
      <use x="288.720703" xlink:href="#DejaVuSans-119"/>
      <use x="370.507812" xlink:href="#DejaVuSans-55"/>
      <use x="434.130859" xlink:href="#DejaVuSans-48"/>
     </g>
    </g>
   </g>
  </g>
  <g id="text_59">
   <!-- performance across days -->
   <defs>
    <path d="M 18.109375 8.203125 
L 18.109375 -20.796875 
L 9.078125 -20.796875 
L 9.078125 54.6875 
L 18.109375 54.6875 
L 18.109375 46.390625 
Q 20.953125 51.265625 25.265625 53.625 
Q 29.59375 56 35.59375 56 
Q 45.5625 56 51.78125 48.09375 
Q 58.015625 40.1875 58.015625 27.296875 
Q 58.015625 14.40625 51.78125 6.484375 
Q 45.5625 -1.421875 35.59375 -1.421875 
Q 29.59375 -1.421875 25.265625 0.953125 
Q 20.953125 3.328125 18.109375 8.203125 
z
M 48.6875 27.296875 
Q 48.6875 37.203125 44.609375 42.84375 
Q 40.53125 48.484375 33.40625 48.484375 
Q 26.265625 48.484375 22.1875 42.84375 
Q 18.109375 37.203125 18.109375 27.296875 
Q 18.109375 17.390625 22.1875 11.75 
Q 26.265625 6.109375 33.40625 6.109375 
Q 40.53125 6.109375 44.609375 11.75 
Q 48.6875 17.390625 48.6875 27.296875 
z
" id="DejaVuSans-112"/>
   </defs>
   <g transform="translate(208.258125 47.03625)scale(0.24 -0.24)">
    <use xlink:href="#DejaVuSans-112"/>
    <use x="63.476562" xlink:href="#DejaVuSans-101"/>
    <use x="125" xlink:href="#DejaVuSans-114"/>
    <use x="166.113281" xlink:href="#DejaVuSans-102"/>
    <use x="201.318359" xlink:href="#DejaVuSans-111"/>
    <use x="262.5" xlink:href="#DejaVuSans-114"/>
    <use x="303.597656" xlink:href="#DejaVuSans-109"/>
    <use x="401.009766" xlink:href="#DejaVuSans-97"/>
    <use x="462.289062" xlink:href="#DejaVuSans-110"/>
    <use x="525.667969" xlink:href="#DejaVuSans-99"/>
    <use x="580.648438" xlink:href="#DejaVuSans-101"/>
    <use x="642.171875" xlink:href="#DejaVuSans-32"/>
    <use x="673.958984" xlink:href="#DejaVuSans-97"/>
    <use x="735.238281" xlink:href="#DejaVuSans-99"/>
    <use x="790.21875" xlink:href="#DejaVuSans-114"/>
    <use x="831.300781" xlink:href="#DejaVuSans-111"/>
    <use x="892.482422" xlink:href="#DejaVuSans-115"/>
    <use x="944.582031" xlink:href="#DejaVuSans-115"/>
    <use x="996.681641" xlink:href="#DejaVuSans-32"/>
    <use x="1028.46875" xlink:href="#DejaVuSans-100"/>
    <use x="1091.945312" xlink:href="#DejaVuSans-97"/>
    <use x="1153.224609" xlink:href="#DejaVuSans-121"/>
    <use x="1212.404297" xlink:href="#DejaVuSans-115"/>
   </g>
   <!-- of models trained with just first 60 seconds of song -->
   <defs>
    <path d="M 54.890625 33.015625 
L 54.890625 0 
L 45.90625 0 
L 45.90625 32.71875 
Q 45.90625 40.484375 42.875 44.328125 
Q 39.84375 48.1875 33.796875 48.1875 
Q 26.515625 48.1875 22.3125 43.546875 
Q 18.109375 38.921875 18.109375 30.90625 
L 18.109375 0 
L 9.078125 0 
L 9.078125 75.984375 
L 18.109375 75.984375 
L 18.109375 46.1875 
Q 21.34375 51.125 25.703125 53.5625 
Q 30.078125 56 35.796875 56 
Q 45.21875 56 50.046875 50.171875 
Q 54.890625 44.34375 54.890625 33.015625 
z
" id="DejaVuSans-104"/>
    <path d="M 9.421875 54.6875 
L 18.40625 54.6875 
L 18.40625 -0.984375 
Q 18.40625 -11.421875 14.421875 -16.109375 
Q 10.453125 -20.796875 1.609375 -20.796875 
L -1.8125 -20.796875 
L -1.8125 -13.1875 
L 0.59375 -13.1875 
Q 5.71875 -13.1875 7.5625 -10.8125 
Q 9.421875 -8.453125 9.421875 -0.984375 
z
M 9.421875 75.984375 
L 18.40625 75.984375 
L 18.40625 64.59375 
L 9.421875 64.59375 
z
" id="DejaVuSans-106"/>
   </defs>
   <g transform="translate(52.0575 73.911)scale(0.24 -0.24)">
    <use xlink:href="#DejaVuSans-111"/>
    <use x="61.181641" xlink:href="#DejaVuSans-102"/>
    <use x="96.386719" xlink:href="#DejaVuSans-32"/>
    <use x="128.173828" xlink:href="#DejaVuSans-109"/>
    <use x="225.585938" xlink:href="#DejaVuSans-111"/>
    <use x="286.767578" xlink:href="#DejaVuSans-100"/>
    <use x="350.244141" xlink:href="#DejaVuSans-101"/>
    <use x="411.767578" xlink:href="#DejaVuSans-108"/>
    <use x="439.550781" xlink:href="#DejaVuSans-115"/>
    <use x="491.650391" xlink:href="#DejaVuSans-32"/>
    <use x="523.4375" xlink:href="#DejaVuSans-116"/>
    <use x="562.646484" xlink:href="#DejaVuSans-114"/>
    <use x="603.759766" xlink:href="#DejaVuSans-97"/>
    <use x="665.039062" xlink:href="#DejaVuSans-105"/>
    <use x="692.822266" xlink:href="#DejaVuSans-110"/>
    <use x="756.201172" xlink:href="#DejaVuSans-101"/>
    <use x="817.724609" xlink:href="#DejaVuSans-100"/>
    <use x="881.201172" xlink:href="#DejaVuSans-32"/>
    <use x="912.988281" xlink:href="#DejaVuSans-119"/>
    <use x="994.775391" xlink:href="#DejaVuSans-105"/>
    <use x="1022.558594" xlink:href="#DejaVuSans-116"/>
    <use x="1061.767578" xlink:href="#DejaVuSans-104"/>
    <use x="1125.146484" xlink:href="#DejaVuSans-32"/>
    <use x="1156.933594" xlink:href="#DejaVuSans-106"/>
    <use x="1184.716797" xlink:href="#DejaVuSans-117"/>
    <use x="1248.095703" xlink:href="#DejaVuSans-115"/>
    <use x="1300.195312" xlink:href="#DejaVuSans-116"/>
    <use x="1339.404297" xlink:href="#DejaVuSans-32"/>
    <use x="1371.191406" xlink:href="#DejaVuSans-102"/>
    <use x="1406.396484" xlink:href="#DejaVuSans-105"/>
    <use x="1434.179688" xlink:href="#DejaVuSans-114"/>
    <use x="1475.292969" xlink:href="#DejaVuSans-115"/>
    <use x="1527.392578" xlink:href="#DejaVuSans-116"/>
    <use x="1566.601562" xlink:href="#DejaVuSans-32"/>
    <use x="1598.388672" xlink:href="#DejaVuSans-54"/>
    <use x="1662.011719" xlink:href="#DejaVuSans-48"/>
    <use x="1725.634766" xlink:href="#DejaVuSans-32"/>
    <use x="1757.421875" xlink:href="#DejaVuSans-115"/>
    <use x="1809.521484" xlink:href="#DejaVuSans-101"/>
    <use x="1871.044922" xlink:href="#DejaVuSans-99"/>
    <use x="1926.025391" xlink:href="#DejaVuSans-111"/>
    <use x="1987.207031" xlink:href="#DejaVuSans-110"/>
    <use x="2050.585938" xlink:href="#DejaVuSans-100"/>
    <use x="2114.0625" xlink:href="#DejaVuSans-115"/>
    <use x="2166.162109" xlink:href="#DejaVuSans-32"/>
    <use x="2197.949219" xlink:href="#DejaVuSans-111"/>
    <use x="2259.130859" xlink:href="#DejaVuSans-102"/>
    <use x="2294.335938" xlink:href="#DejaVuSans-32"/>
    <use x="2326.123047" xlink:href="#DejaVuSans-115"/>
    <use x="2378.222656" xlink:href="#DejaVuSans-111"/>
    <use x="2439.404297" xlink:href="#DejaVuSans-110"/>
    <use x="2502.783203" xlink:href="#DejaVuSans-103"/>
   </g>
  </g>
 </g>
 <defs>
  <clipPath id="p73bbc230e8">
   <rect height="319.764706" width="558" x="90" y="172.8"/>
  </clipPath>
  <clipPath id="pd3a791827b">
   <rect height="319.764706" width="558" x="90" y="556.517647"/>
  </clipPath>
  <clipPath id="pcdb3d937bd">
   <rect height="319.764706" width="558" x="90" y="940.235294"/>
  </clipPath>
 </defs>
</svg>
