<?xml version="1.0" encoding="utf-8" standalone="no"?>
<!DOCTYPE svg PUBLIC "-//W3C//DTD SVG 1.1//EN"
  "http://www.w3.org/Graphics/SVG/1.1/DTD/svg11.dtd">
<!-- Created with matplotlib (https://matplotlib.org/) -->
<svg height="542.182812pt" version="1.1" viewBox="0 0 772.80375 542.182812" width="772.80375pt" xmlns="http://www.w3.org/2000/svg" xmlns:xlink="http://www.w3.org/1999/xlink">
 <defs>
  <style type="text/css">
*{stroke-linecap:butt;stroke-linejoin:round;}
  </style>
 </defs>
 <g id="figure_1">
  <g id="patch_1">
   <path d="M 0 542.182812 
L 772.80375 542.182812 
L 772.80375 0 
L 0 0 
z
" style="fill:#ffffff;"/>
  </g>
  <g id="axes_1">
   <g id="patch_2">
    <path d="M 77.105 477.527812 
L 635.105 477.527812 
L 635.105 69.827812 
L 77.105 69.827812 
z
" style="fill:#ffffff;"/>
   </g>
   <g id="patch_3">
    <path clip-path="url(#pd981efcf63)" d="M 95.705 382.006707 
L 244.505 382.006707 
L 244.505 315.434871 
L 95.705 315.434871 
L 95.705 382.006707 
z
" style="fill:#ffffff;stroke:#000000;stroke-linejoin:miter;stroke-width:4;"/>
   </g>
   <g id="patch_4">
    <path clip-path="url(#pd981efcf63)" d="M 281.705 414.700535 
L 430.505 414.700535 
L 430.505 348.731188 
L 281.705 348.731188 
L 281.705 414.700535 
z
" style="fill:#ffffff;stroke:#000000;stroke-linejoin:miter;stroke-width:4;"/>
   </g>
   <g id="patch_5">
    <path clip-path="url(#pd981efcf63)" d="M 467.705 424.710519 
L 616.505 424.710519 
L 616.505 388.09072 
L 467.705 388.09072 
L 467.705 424.710519 
z
" style="fill:#ffffff;stroke:#000000;stroke-linejoin:miter;stroke-width:4;"/>
   </g>
   <g id="PathCollection_1">
    <defs>
     <path d="M 0 3.383948 
C 0.897434 3.383948 1.758231 3.027394 2.392813 2.392813 
C 3.027394 1.758231 3.383948 0.897434 3.383948 0 
C 3.383948 -0.897434 3.027394 -1.758231 2.392813 -2.392813 
C 1.758231 -3.027394 0.897434 -3.383948 0 -3.383948 
C -0.897434 -3.383948 -1.758231 -3.027394 -2.392813 -2.392813 
C -3.027394 -1.758231 -3.383948 -0.897434 -3.383948 0 
C -3.383948 0.897434 -3.027394 1.758231 -2.392813 2.392813 
C -1.758231 3.027394 -0.897434 3.383948 0 3.383948 
z
" id="C0_0_0d6a992bad"/>
    </defs>
    <g clip-path="url(#pd981efcf63)">
     <use style="fill:#1f77b4;stroke:#1f77b4;stroke-width:2.025;" x="170.105" xlink:href="#C0_0_0d6a992bad" y="224.48931"/>
    </g>
    <g clip-path="url(#pd981efcf63)">
     <use style="fill:#1f77b4;stroke:#1f77b4;stroke-width:2.025;" x="356.105" xlink:href="#C0_0_0d6a992bad" y="211.654706"/>
    </g>
    <g clip-path="url(#pd981efcf63)">
     <use style="fill:#1f77b4;stroke:#1f77b4;stroke-width:2.025;" x="542.105" xlink:href="#C0_0_0d6a992bad" y="275.827729"/>
    </g>
   </g>
   <g id="PathCollection_2">
    <defs>
     <path d="M -4.330127 4.330127 
L 4.330127 4.330127 
L 4.330127 -4.330127 
L -4.330127 -4.330127 
z
" id="m5a60161be3" style="stroke:#000000;"/>
    </defs>
    <g clip-path="url(#pd981efcf63)">
     <use style="stroke:#000000;" x="356.105" xlink:href="#m5a60161be3" y="91.275449"/>
    </g>
   </g>
   <g id="PathCollection_3">
    <g clip-path="url(#pd981efcf63)">
     <use style="stroke:#000000;" x="542.105" xlink:href="#m5a60161be3" y="264.159906"/>
    </g>
   </g>
   <g id="line2d_1">
    <path clip-path="url(#pd981efcf63)" d="M 170.105 224.48931 
L 356.105 211.654706 
L 542.105 275.827729 
" style="fill:none;stroke:#1f77b4;stroke-dasharray:9.99,4.32;stroke-dashoffset:0;stroke-width:2.7;"/>
   </g>
   <g id="line2d_2">
    <path clip-path="url(#pd981efcf63)" style="fill:none;stroke:#1f77b4;stroke-linecap:square;stroke-width:2.7;"/>
   </g>
   <g id="line2d_3">
    <path clip-path="url(#pd981efcf63)" style="fill:none;stroke:#1f77b4;stroke-linecap:square;stroke-width:2.7;"/>
   </g>
   <g id="line2d_4">
    <path clip-path="url(#pd981efcf63)" style="fill:none;stroke:#1f77b4;stroke-linecap:square;stroke-width:2.7;"/>
   </g>
   <g id="matplotlib.axis_1">
    <g id="xtick_1">
     <g id="line2d_5">
      <defs>
       <path d="M 0 0 
L 0 3.5 
" id="m400eb6862f" style="stroke:#000000;stroke-width:0.8;"/>
      </defs>
      <g>
       <use style="stroke:#000000;stroke-width:0.8;" x="170.105" xlink:href="#m400eb6862f" y="477.527812"/>
      </g>
     </g>
     <g id="text_1">
      <!-- 60.0 -->
      <defs>
       <path d="M 33.015625 40.375 
Q 26.375 40.375 22.484375 35.828125 
Q 18.609375 31.296875 18.609375 23.390625 
Q 18.609375 15.53125 22.484375 10.953125 
Q 26.375 6.390625 33.015625 6.390625 
Q 39.65625 6.390625 43.53125 10.953125 
Q 47.40625 15.53125 47.40625 23.390625 
Q 47.40625 31.296875 43.53125 35.828125 
Q 39.65625 40.375 33.015625 40.375 
z
M 52.59375 71.296875 
L 52.59375 62.3125 
Q 48.875 64.0625 45.09375 64.984375 
Q 41.3125 65.921875 37.59375 65.921875 
Q 27.828125 65.921875 22.671875 59.328125 
Q 17.53125 52.734375 16.796875 39.40625 
Q 19.671875 43.65625 24.015625 45.921875 
Q 28.375 48.1875 33.59375 48.1875 
Q 44.578125 48.1875 50.953125 41.515625 
Q 57.328125 34.859375 57.328125 23.390625 
Q 57.328125 12.15625 50.6875 5.359375 
Q 44.046875 -1.421875 33.015625 -1.421875 
Q 20.359375 -1.421875 13.671875 8.265625 
Q 6.984375 17.96875 6.984375 36.375 
Q 6.984375 53.65625 15.1875 63.9375 
Q 23.390625 74.21875 37.203125 74.21875 
Q 40.921875 74.21875 44.703125 73.484375 
Q 48.484375 72.75 52.59375 71.296875 
z
" id="DejaVuSans-54"/>
       <path d="M 31.78125 66.40625 
Q 24.171875 66.40625 20.328125 58.90625 
Q 16.5 51.421875 16.5 36.375 
Q 16.5 21.390625 20.328125 13.890625 
Q 24.171875 6.390625 31.78125 6.390625 
Q 39.453125 6.390625 43.28125 13.890625 
Q 47.125 21.390625 47.125 36.375 
Q 47.125 51.421875 43.28125 58.90625 
Q 39.453125 66.40625 31.78125 66.40625 
z
M 31.78125 74.21875 
Q 44.046875 74.21875 50.515625 64.515625 
Q 56.984375 54.828125 56.984375 36.375 
Q 56.984375 17.96875 50.515625 8.265625 
Q 44.046875 -1.421875 31.78125 -1.421875 
Q 19.53125 -1.421875 13.0625 8.265625 
Q 6.59375 17.96875 6.59375 36.375 
Q 6.59375 54.828125 13.0625 64.515625 
Q 19.53125 74.21875 31.78125 74.21875 
z
" id="DejaVuSans-48"/>
       <path d="M 10.6875 12.40625 
L 21 12.40625 
L 21 0 
L 10.6875 0 
z
" id="DejaVuSans-46"/>
      </defs>
      <g transform="translate(147.839375 499.724687)scale(0.2 -0.2)">
       <use xlink:href="#DejaVuSans-54"/>
       <use x="63.623047" xlink:href="#DejaVuSans-48"/>
       <use x="127.246094" xlink:href="#DejaVuSans-46"/>
       <use x="159.033203" xlink:href="#DejaVuSans-48"/>
      </g>
     </g>
    </g>
    <g id="xtick_2">
     <g id="line2d_6">
      <g>
       <use style="stroke:#000000;stroke-width:0.8;" x="356.105" xlink:href="#m400eb6862f" y="477.527812"/>
      </g>
     </g>
     <g id="text_2">
      <!-- 120.0 -->
      <defs>
       <path d="M 12.40625 8.296875 
L 28.515625 8.296875 
L 28.515625 63.921875 
L 10.984375 60.40625 
L 10.984375 69.390625 
L 28.421875 72.90625 
L 38.28125 72.90625 
L 38.28125 8.296875 
L 54.390625 8.296875 
L 54.390625 0 
L 12.40625 0 
z
" id="DejaVuSans-49"/>
       <path d="M 19.1875 8.296875 
L 53.609375 8.296875 
L 53.609375 0 
L 7.328125 0 
L 7.328125 8.296875 
Q 12.9375 14.109375 22.625 23.890625 
Q 32.328125 33.6875 34.8125 36.53125 
Q 39.546875 41.84375 41.421875 45.53125 
Q 43.3125 49.21875 43.3125 52.78125 
Q 43.3125 58.59375 39.234375 62.25 
Q 35.15625 65.921875 28.609375 65.921875 
Q 23.96875 65.921875 18.8125 64.3125 
Q 13.671875 62.703125 7.8125 59.421875 
L 7.8125 69.390625 
Q 13.765625 71.78125 18.9375 73 
Q 24.125 74.21875 28.421875 74.21875 
Q 39.75 74.21875 46.484375 68.546875 
Q 53.21875 62.890625 53.21875 53.421875 
Q 53.21875 48.921875 51.53125 44.890625 
Q 49.859375 40.875 45.40625 35.40625 
Q 44.1875 33.984375 37.640625 27.21875 
Q 31.109375 20.453125 19.1875 8.296875 
z
" id="DejaVuSans-50"/>
      </defs>
      <g transform="translate(327.476875 499.724687)scale(0.2 -0.2)">
       <use xlink:href="#DejaVuSans-49"/>
       <use x="63.623047" xlink:href="#DejaVuSans-50"/>
       <use x="127.246094" xlink:href="#DejaVuSans-48"/>
       <use x="190.869141" xlink:href="#DejaVuSans-46"/>
       <use x="222.65625" xlink:href="#DejaVuSans-48"/>
      </g>
     </g>
    </g>
    <g id="xtick_3">
     <g id="line2d_7">
      <g>
       <use style="stroke:#000000;stroke-width:0.8;" x="542.105" xlink:href="#m400eb6862f" y="477.527812"/>
      </g>
     </g>
     <g id="text_3">
      <!-- 480.0 -->
      <defs>
       <path d="M 37.796875 64.3125 
L 12.890625 25.390625 
L 37.796875 25.390625 
z
M 35.203125 72.90625 
L 47.609375 72.90625 
L 47.609375 25.390625 
L 58.015625 25.390625 
L 58.015625 17.1875 
L 47.609375 17.1875 
L 47.609375 0 
L 37.796875 0 
L 37.796875 17.1875 
L 4.890625 17.1875 
L 4.890625 26.703125 
z
" id="DejaVuSans-52"/>
       <path d="M 31.78125 34.625 
Q 24.75 34.625 20.71875 30.859375 
Q 16.703125 27.09375 16.703125 20.515625 
Q 16.703125 13.921875 20.71875 10.15625 
Q 24.75 6.390625 31.78125 6.390625 
Q 38.8125 6.390625 42.859375 10.171875 
Q 46.921875 13.96875 46.921875 20.515625 
Q 46.921875 27.09375 42.890625 30.859375 
Q 38.875 34.625 31.78125 34.625 
z
M 21.921875 38.8125 
Q 15.578125 40.375 12.03125 44.71875 
Q 8.5 49.078125 8.5 55.328125 
Q 8.5 64.0625 14.71875 69.140625 
Q 20.953125 74.21875 31.78125 74.21875 
Q 42.671875 74.21875 48.875 69.140625 
Q 55.078125 64.0625 55.078125 55.328125 
Q 55.078125 49.078125 51.53125 44.71875 
Q 48 40.375 41.703125 38.8125 
Q 48.828125 37.15625 52.796875 32.3125 
Q 56.78125 27.484375 56.78125 20.515625 
Q 56.78125 9.90625 50.3125 4.234375 
Q 43.84375 -1.421875 31.78125 -1.421875 
Q 19.734375 -1.421875 13.25 4.234375 
Q 6.78125 9.90625 6.78125 20.515625 
Q 6.78125 27.484375 10.78125 32.3125 
Q 14.796875 37.15625 21.921875 38.8125 
z
M 18.3125 54.390625 
Q 18.3125 48.734375 21.84375 45.5625 
Q 25.390625 42.390625 31.78125 42.390625 
Q 38.140625 42.390625 41.71875 45.5625 
Q 45.3125 48.734375 45.3125 54.390625 
Q 45.3125 60.0625 41.71875 63.234375 
Q 38.140625 66.40625 31.78125 66.40625 
Q 25.390625 66.40625 21.84375 63.234375 
Q 18.3125 60.0625 18.3125 54.390625 
z
" id="DejaVuSans-56"/>
      </defs>
      <g transform="translate(513.476875 499.724687)scale(0.2 -0.2)">
       <use xlink:href="#DejaVuSans-52"/>
       <use x="63.623047" xlink:href="#DejaVuSans-56"/>
       <use x="127.246094" xlink:href="#DejaVuSans-48"/>
       <use x="190.869141" xlink:href="#DejaVuSans-46"/>
       <use x="222.65625" xlink:href="#DejaVuSans-48"/>
      </g>
     </g>
    </g>
    <g id="text_4">
     <!-- training set duration (s) -->
     <defs>
      <path d="M 18.3125 70.21875 
L 18.3125 54.6875 
L 36.8125 54.6875 
L 36.8125 47.703125 
L 18.3125 47.703125 
L 18.3125 18.015625 
Q 18.3125 11.328125 20.140625 9.421875 
Q 21.96875 7.515625 27.59375 7.515625 
L 36.8125 7.515625 
L 36.8125 0 
L 27.59375 0 
Q 17.1875 0 13.234375 3.875 
Q 9.28125 7.765625 9.28125 18.015625 
L 9.28125 47.703125 
L 2.6875 47.703125 
L 2.6875 54.6875 
L 9.28125 54.6875 
L 9.28125 70.21875 
z
" id="DejaVuSans-116"/>
      <path d="M 41.109375 46.296875 
Q 39.59375 47.171875 37.8125 47.578125 
Q 36.03125 48 33.890625 48 
Q 26.265625 48 22.1875 43.046875 
Q 18.109375 38.09375 18.109375 28.8125 
L 18.109375 0 
L 9.078125 0 
L 9.078125 54.6875 
L 18.109375 54.6875 
L 18.109375 46.1875 
Q 20.953125 51.171875 25.484375 53.578125 
Q 30.03125 56 36.53125 56 
Q 37.453125 56 38.578125 55.875 
Q 39.703125 55.765625 41.0625 55.515625 
z
" id="DejaVuSans-114"/>
      <path d="M 34.28125 27.484375 
Q 23.390625 27.484375 19.1875 25 
Q 14.984375 22.515625 14.984375 16.5 
Q 14.984375 11.71875 18.140625 8.90625 
Q 21.296875 6.109375 26.703125 6.109375 
Q 34.1875 6.109375 38.703125 11.40625 
Q 43.21875 16.703125 43.21875 25.484375 
L 43.21875 27.484375 
z
M 52.203125 31.203125 
L 52.203125 0 
L 43.21875 0 
L 43.21875 8.296875 
Q 40.140625 3.328125 35.546875 0.953125 
Q 30.953125 -1.421875 24.3125 -1.421875 
Q 15.921875 -1.421875 10.953125 3.296875 
Q 6 8.015625 6 15.921875 
Q 6 25.140625 12.171875 29.828125 
Q 18.359375 34.515625 30.609375 34.515625 
L 43.21875 34.515625 
L 43.21875 35.40625 
Q 43.21875 41.609375 39.140625 45 
Q 35.0625 48.390625 27.6875 48.390625 
Q 23 48.390625 18.546875 47.265625 
Q 14.109375 46.140625 10.015625 43.890625 
L 10.015625 52.203125 
Q 14.9375 54.109375 19.578125 55.046875 
Q 24.21875 56 28.609375 56 
Q 40.484375 56 46.34375 49.84375 
Q 52.203125 43.703125 52.203125 31.203125 
z
" id="DejaVuSans-97"/>
      <path d="M 9.421875 54.6875 
L 18.40625 54.6875 
L 18.40625 0 
L 9.421875 0 
z
M 9.421875 75.984375 
L 18.40625 75.984375 
L 18.40625 64.59375 
L 9.421875 64.59375 
z
" id="DejaVuSans-105"/>
      <path d="M 54.890625 33.015625 
L 54.890625 0 
L 45.90625 0 
L 45.90625 32.71875 
Q 45.90625 40.484375 42.875 44.328125 
Q 39.84375 48.1875 33.796875 48.1875 
Q 26.515625 48.1875 22.3125 43.546875 
Q 18.109375 38.921875 18.109375 30.90625 
L 18.109375 0 
L 9.078125 0 
L 9.078125 54.6875 
L 18.109375 54.6875 
L 18.109375 46.1875 
Q 21.34375 51.125 25.703125 53.5625 
Q 30.078125 56 35.796875 56 
Q 45.21875 56 50.046875 50.171875 
Q 54.890625 44.34375 54.890625 33.015625 
z
" id="DejaVuSans-110"/>
      <path d="M 45.40625 27.984375 
Q 45.40625 37.75 41.375 43.109375 
Q 37.359375 48.484375 30.078125 48.484375 
Q 22.859375 48.484375 18.828125 43.109375 
Q 14.796875 37.75 14.796875 27.984375 
Q 14.796875 18.265625 18.828125 12.890625 
Q 22.859375 7.515625 30.078125 7.515625 
Q 37.359375 7.515625 41.375 12.890625 
Q 45.40625 18.265625 45.40625 27.984375 
z
M 54.390625 6.78125 
Q 54.390625 -7.171875 48.1875 -13.984375 
Q 42 -20.796875 29.203125 -20.796875 
Q 24.46875 -20.796875 20.265625 -20.09375 
Q 16.0625 -19.390625 12.109375 -17.921875 
L 12.109375 -9.1875 
Q 16.0625 -11.328125 19.921875 -12.34375 
Q 23.78125 -13.375 27.78125 -13.375 
Q 36.625 -13.375 41.015625 -8.765625 
Q 45.40625 -4.15625 45.40625 5.171875 
L 45.40625 9.625 
Q 42.625 4.78125 38.28125 2.390625 
Q 33.9375 0 27.875 0 
Q 17.828125 0 11.671875 7.65625 
Q 5.515625 15.328125 5.515625 27.984375 
Q 5.515625 40.671875 11.671875 48.328125 
Q 17.828125 56 27.875 56 
Q 33.9375 56 38.28125 53.609375 
Q 42.625 51.21875 45.40625 46.390625 
L 45.40625 54.6875 
L 54.390625 54.6875 
z
" id="DejaVuSans-103"/>
      <path id="DejaVuSans-32"/>
      <path d="M 44.28125 53.078125 
L 44.28125 44.578125 
Q 40.484375 46.53125 36.375 47.5 
Q 32.28125 48.484375 27.875 48.484375 
Q 21.1875 48.484375 17.84375 46.4375 
Q 14.5 44.390625 14.5 40.28125 
Q 14.5 37.15625 16.890625 35.375 
Q 19.28125 33.59375 26.515625 31.984375 
L 29.59375 31.296875 
Q 39.15625 29.25 43.1875 25.515625 
Q 47.21875 21.78125 47.21875 15.09375 
Q 47.21875 7.46875 41.1875 3.015625 
Q 35.15625 -1.421875 24.609375 -1.421875 
Q 20.21875 -1.421875 15.453125 -0.5625 
Q 10.6875 0.296875 5.421875 2 
L 5.421875 11.28125 
Q 10.40625 8.6875 15.234375 7.390625 
Q 20.0625 6.109375 24.8125 6.109375 
Q 31.15625 6.109375 34.5625 8.28125 
Q 37.984375 10.453125 37.984375 14.40625 
Q 37.984375 18.0625 35.515625 20.015625 
Q 33.0625 21.96875 24.703125 23.78125 
L 21.578125 24.515625 
Q 13.234375 26.265625 9.515625 29.90625 
Q 5.8125 33.546875 5.8125 39.890625 
Q 5.8125 47.609375 11.28125 51.796875 
Q 16.75 56 26.8125 56 
Q 31.78125 56 36.171875 55.265625 
Q 40.578125 54.546875 44.28125 53.078125 
z
" id="DejaVuSans-115"/>
      <path d="M 56.203125 29.59375 
L 56.203125 25.203125 
L 14.890625 25.203125 
Q 15.484375 15.921875 20.484375 11.0625 
Q 25.484375 6.203125 34.421875 6.203125 
Q 39.59375 6.203125 44.453125 7.46875 
Q 49.3125 8.734375 54.109375 11.28125 
L 54.109375 2.78125 
Q 49.265625 0.734375 44.1875 -0.34375 
Q 39.109375 -1.421875 33.890625 -1.421875 
Q 20.796875 -1.421875 13.15625 6.1875 
Q 5.515625 13.8125 5.515625 26.8125 
Q 5.515625 40.234375 12.765625 48.109375 
Q 20.015625 56 32.328125 56 
Q 43.359375 56 49.78125 48.890625 
Q 56.203125 41.796875 56.203125 29.59375 
z
M 47.21875 32.234375 
Q 47.125 39.59375 43.09375 43.984375 
Q 39.0625 48.390625 32.421875 48.390625 
Q 24.90625 48.390625 20.390625 44.140625 
Q 15.875 39.890625 15.1875 32.171875 
z
" id="DejaVuSans-101"/>
      <path d="M 45.40625 46.390625 
L 45.40625 75.984375 
L 54.390625 75.984375 
L 54.390625 0 
L 45.40625 0 
L 45.40625 8.203125 
Q 42.578125 3.328125 38.25 0.953125 
Q 33.9375 -1.421875 27.875 -1.421875 
Q 17.96875 -1.421875 11.734375 6.484375 
Q 5.515625 14.40625 5.515625 27.296875 
Q 5.515625 40.1875 11.734375 48.09375 
Q 17.96875 56 27.875 56 
Q 33.9375 56 38.25 53.625 
Q 42.578125 51.265625 45.40625 46.390625 
z
M 14.796875 27.296875 
Q 14.796875 17.390625 18.875 11.75 
Q 22.953125 6.109375 30.078125 6.109375 
Q 37.203125 6.109375 41.296875 11.75 
Q 45.40625 17.390625 45.40625 27.296875 
Q 45.40625 37.203125 41.296875 42.84375 
Q 37.203125 48.484375 30.078125 48.484375 
Q 22.953125 48.484375 18.875 42.84375 
Q 14.796875 37.203125 14.796875 27.296875 
z
" id="DejaVuSans-100"/>
      <path d="M 8.5 21.578125 
L 8.5 54.6875 
L 17.484375 54.6875 
L 17.484375 21.921875 
Q 17.484375 14.15625 20.5 10.265625 
Q 23.53125 6.390625 29.59375 6.390625 
Q 36.859375 6.390625 41.078125 11.03125 
Q 45.3125 15.671875 45.3125 23.6875 
L 45.3125 54.6875 
L 54.296875 54.6875 
L 54.296875 0 
L 45.3125 0 
L 45.3125 8.40625 
Q 42.046875 3.421875 37.71875 1 
Q 33.40625 -1.421875 27.6875 -1.421875 
Q 18.265625 -1.421875 13.375 4.4375 
Q 8.5 10.296875 8.5 21.578125 
z
M 31.109375 56 
z
" id="DejaVuSans-117"/>
      <path d="M 30.609375 48.390625 
Q 23.390625 48.390625 19.1875 42.75 
Q 14.984375 37.109375 14.984375 27.296875 
Q 14.984375 17.484375 19.15625 11.84375 
Q 23.34375 6.203125 30.609375 6.203125 
Q 37.796875 6.203125 41.984375 11.859375 
Q 46.1875 17.53125 46.1875 27.296875 
Q 46.1875 37.015625 41.984375 42.703125 
Q 37.796875 48.390625 30.609375 48.390625 
z
M 30.609375 56 
Q 42.328125 56 49.015625 48.375 
Q 55.71875 40.765625 55.71875 27.296875 
Q 55.71875 13.875 49.015625 6.21875 
Q 42.328125 -1.421875 30.609375 -1.421875 
Q 18.84375 -1.421875 12.171875 6.21875 
Q 5.515625 13.875 5.515625 27.296875 
Q 5.515625 40.765625 12.171875 48.375 
Q 18.84375 56 30.609375 56 
z
" id="DejaVuSans-111"/>
      <path d="M 31 75.875 
Q 24.46875 64.65625 21.28125 53.65625 
Q 18.109375 42.671875 18.109375 31.390625 
Q 18.109375 20.125 21.3125 9.0625 
Q 24.515625 -2 31 -13.1875 
L 23.1875 -13.1875 
Q 15.875 -1.703125 12.234375 9.375 
Q 8.59375 20.453125 8.59375 31.390625 
Q 8.59375 42.28125 12.203125 53.3125 
Q 15.828125 64.359375 23.1875 75.875 
z
" id="DejaVuSans-40"/>
      <path d="M 8.015625 75.875 
L 15.828125 75.875 
Q 23.140625 64.359375 26.78125 53.3125 
Q 30.421875 42.28125 30.421875 31.390625 
Q 30.421875 20.453125 26.78125 9.375 
Q 23.140625 -1.703125 15.828125 -13.1875 
L 8.015625 -13.1875 
Q 14.5 -2 17.703125 9.0625 
Q 20.90625 20.125 20.90625 31.390625 
Q 20.90625 42.671875 17.703125 53.65625 
Q 14.5 64.65625 8.015625 75.875 
z
" id="DejaVuSans-41"/>
     </defs>
     <g transform="translate(189.997187 529.159687)scale(0.28 -0.28)">
      <use xlink:href="#DejaVuSans-116"/>
      <use x="39.208984" xlink:href="#DejaVuSans-114"/>
      <use x="80.322266" xlink:href="#DejaVuSans-97"/>
      <use x="141.601562" xlink:href="#DejaVuSans-105"/>
      <use x="169.384766" xlink:href="#DejaVuSans-110"/>
      <use x="232.763672" xlink:href="#DejaVuSans-105"/>
      <use x="260.546875" xlink:href="#DejaVuSans-110"/>
      <use x="323.925781" xlink:href="#DejaVuSans-103"/>
      <use x="387.402344" xlink:href="#DejaVuSans-32"/>
      <use x="419.189453" xlink:href="#DejaVuSans-115"/>
      <use x="471.289062" xlink:href="#DejaVuSans-101"/>
      <use x="532.8125" xlink:href="#DejaVuSans-116"/>
      <use x="572.021484" xlink:href="#DejaVuSans-32"/>
      <use x="603.808594" xlink:href="#DejaVuSans-100"/>
      <use x="667.285156" xlink:href="#DejaVuSans-117"/>
      <use x="730.664062" xlink:href="#DejaVuSans-114"/>
      <use x="771.777344" xlink:href="#DejaVuSans-97"/>
      <use x="833.056641" xlink:href="#DejaVuSans-116"/>
      <use x="872.265625" xlink:href="#DejaVuSans-105"/>
      <use x="900.048828" xlink:href="#DejaVuSans-111"/>
      <use x="961.230469" xlink:href="#DejaVuSans-110"/>
      <use x="1024.609375" xlink:href="#DejaVuSans-32"/>
      <use x="1056.396484" xlink:href="#DejaVuSans-40"/>
      <use x="1095.410156" xlink:href="#DejaVuSans-115"/>
      <use x="1147.509766" xlink:href="#DejaVuSans-41"/>
     </g>
    </g>
   </g>
   <g id="matplotlib.axis_2">
    <g id="ytick_1">
     <g id="line2d_8">
      <defs>
       <path d="M 0 0 
L -3.5 0 
" id="m2682ba667f" style="stroke:#000000;stroke-width:0.8;"/>
      </defs>
      <g>
       <use style="stroke:#000000;stroke-width:0.8;" x="77.105" xlink:href="#m2682ba667f" y="467.553385"/>
      </g>
     </g>
     <g id="text_5">
      <!-- 0.1 -->
      <g transform="translate(38.29875 475.151823)scale(0.2 -0.2)">
       <use xlink:href="#DejaVuSans-48"/>
       <use x="63.623047" xlink:href="#DejaVuSans-46"/>
       <use x="95.410156" xlink:href="#DejaVuSans-49"/>
      </g>
     </g>
    </g>
    <g id="ytick_2">
     <g id="line2d_9">
      <g>
       <use style="stroke:#000000;stroke-width:0.8;" x="77.105" xlink:href="#m2682ba667f" y="416.705015"/>
      </g>
     </g>
     <g id="text_6">
      <!-- 0.2 -->
      <g transform="translate(38.29875 424.303453)scale(0.2 -0.2)">
       <use xlink:href="#DejaVuSans-48"/>
       <use x="63.623047" xlink:href="#DejaVuSans-46"/>
       <use x="95.410156" xlink:href="#DejaVuSans-50"/>
      </g>
     </g>
    </g>
    <g id="ytick_3">
     <g id="line2d_10">
      <g>
       <use style="stroke:#000000;stroke-width:0.8;" x="77.105" xlink:href="#m2682ba667f" y="365.856646"/>
      </g>
     </g>
     <g id="text_7">
      <!-- 0.3 -->
      <defs>
       <path d="M 40.578125 39.3125 
Q 47.65625 37.796875 51.625 33 
Q 55.609375 28.21875 55.609375 21.1875 
Q 55.609375 10.40625 48.1875 4.484375 
Q 40.765625 -1.421875 27.09375 -1.421875 
Q 22.515625 -1.421875 17.65625 -0.515625 
Q 12.796875 0.390625 7.625 2.203125 
L 7.625 11.71875 
Q 11.71875 9.328125 16.59375 8.109375 
Q 21.484375 6.890625 26.8125 6.890625 
Q 36.078125 6.890625 40.9375 10.546875 
Q 45.796875 14.203125 45.796875 21.1875 
Q 45.796875 27.640625 41.28125 31.265625 
Q 36.765625 34.90625 28.71875 34.90625 
L 20.21875 34.90625 
L 20.21875 43.015625 
L 29.109375 43.015625 
Q 36.375 43.015625 40.234375 45.921875 
Q 44.09375 48.828125 44.09375 54.296875 
Q 44.09375 59.90625 40.109375 62.90625 
Q 36.140625 65.921875 28.71875 65.921875 
Q 24.65625 65.921875 20.015625 65.03125 
Q 15.375 64.15625 9.8125 62.3125 
L 9.8125 71.09375 
Q 15.4375 72.65625 20.34375 73.4375 
Q 25.25 74.21875 29.59375 74.21875 
Q 40.828125 74.21875 47.359375 69.109375 
Q 53.90625 64.015625 53.90625 55.328125 
Q 53.90625 49.265625 50.4375 45.09375 
Q 46.96875 40.921875 40.578125 39.3125 
z
" id="DejaVuSans-51"/>
      </defs>
      <g transform="translate(38.29875 373.455083)scale(0.2 -0.2)">
       <use xlink:href="#DejaVuSans-48"/>
       <use x="63.623047" xlink:href="#DejaVuSans-46"/>
       <use x="95.410156" xlink:href="#DejaVuSans-51"/>
      </g>
     </g>
    </g>
    <g id="ytick_4">
     <g id="line2d_11">
      <g>
       <use style="stroke:#000000;stroke-width:0.8;" x="77.105" xlink:href="#m2682ba667f" y="315.008276"/>
      </g>
     </g>
     <g id="text_8">
      <!-- 0.4 -->
      <g transform="translate(38.29875 322.606713)scale(0.2 -0.2)">
       <use xlink:href="#DejaVuSans-48"/>
       <use x="63.623047" xlink:href="#DejaVuSans-46"/>
       <use x="95.410156" xlink:href="#DejaVuSans-52"/>
      </g>
     </g>
    </g>
    <g id="ytick_5">
     <g id="line2d_12">
      <g>
       <use style="stroke:#000000;stroke-width:0.8;" x="77.105" xlink:href="#m2682ba667f" y="264.159906"/>
      </g>
     </g>
     <g id="text_9">
      <!-- 0.5 -->
      <defs>
       <path d="M 10.796875 72.90625 
L 49.515625 72.90625 
L 49.515625 64.59375 
L 19.828125 64.59375 
L 19.828125 46.734375 
Q 21.96875 47.46875 24.109375 47.828125 
Q 26.265625 48.1875 28.421875 48.1875 
Q 40.625 48.1875 47.75 41.5 
Q 54.890625 34.8125 54.890625 23.390625 
Q 54.890625 11.625 47.5625 5.09375 
Q 40.234375 -1.421875 26.90625 -1.421875 
Q 22.3125 -1.421875 17.546875 -0.640625 
Q 12.796875 0.140625 7.71875 1.703125 
L 7.71875 11.625 
Q 12.109375 9.234375 16.796875 8.0625 
Q 21.484375 6.890625 26.703125 6.890625 
Q 35.15625 6.890625 40.078125 11.328125 
Q 45.015625 15.765625 45.015625 23.390625 
Q 45.015625 31 40.078125 35.4375 
Q 35.15625 39.890625 26.703125 39.890625 
Q 22.75 39.890625 18.8125 39.015625 
Q 14.890625 38.140625 10.796875 36.28125 
z
" id="DejaVuSans-53"/>
      </defs>
      <g transform="translate(38.29875 271.758344)scale(0.2 -0.2)">
       <use xlink:href="#DejaVuSans-48"/>
       <use x="63.623047" xlink:href="#DejaVuSans-46"/>
       <use x="95.410156" xlink:href="#DejaVuSans-53"/>
      </g>
     </g>
    </g>
    <g id="ytick_6">
     <g id="line2d_13">
      <g>
       <use style="stroke:#000000;stroke-width:0.8;" x="77.105" xlink:href="#m2682ba667f" y="213.311537"/>
      </g>
     </g>
     <g id="text_10">
      <!-- 0.6 -->
      <g transform="translate(38.29875 220.909974)scale(0.2 -0.2)">
       <use xlink:href="#DejaVuSans-48"/>
       <use x="63.623047" xlink:href="#DejaVuSans-46"/>
       <use x="95.410156" xlink:href="#DejaVuSans-54"/>
      </g>
     </g>
    </g>
    <g id="ytick_7">
     <g id="line2d_14">
      <g>
       <use style="stroke:#000000;stroke-width:0.8;" x="77.105" xlink:href="#m2682ba667f" y="162.463167"/>
      </g>
     </g>
     <g id="text_11">
      <!-- 0.7 -->
      <defs>
       <path d="M 8.203125 72.90625 
L 55.078125 72.90625 
L 55.078125 68.703125 
L 28.609375 0 
L 18.3125 0 
L 43.21875 64.59375 
L 8.203125 64.59375 
z
" id="DejaVuSans-55"/>
      </defs>
      <g transform="translate(38.29875 170.061604)scale(0.2 -0.2)">
       <use xlink:href="#DejaVuSans-48"/>
       <use x="63.623047" xlink:href="#DejaVuSans-46"/>
       <use x="95.410156" xlink:href="#DejaVuSans-55"/>
      </g>
     </g>
    </g>
    <g id="ytick_8">
     <g id="line2d_15">
      <g>
       <use style="stroke:#000000;stroke-width:0.8;" x="77.105" xlink:href="#m2682ba667f" y="111.614797"/>
      </g>
     </g>
     <g id="text_12">
      <!-- 0.8 -->
      <g transform="translate(38.29875 119.213235)scale(0.2 -0.2)">
       <use xlink:href="#DejaVuSans-48"/>
       <use x="63.623047" xlink:href="#DejaVuSans-46"/>
       <use x="95.410156" xlink:href="#DejaVuSans-56"/>
      </g>
     </g>
    </g>
    <g id="text_13">
     <!-- syllable error rate -->
     <defs>
      <path d="M 32.171875 -5.078125 
Q 28.375 -14.84375 24.75 -17.8125 
Q 21.140625 -20.796875 15.09375 -20.796875 
L 7.90625 -20.796875 
L 7.90625 -13.28125 
L 13.1875 -13.28125 
Q 16.890625 -13.28125 18.9375 -11.515625 
Q 21 -9.765625 23.484375 -3.21875 
L 25.09375 0.875 
L 2.984375 54.6875 
L 12.5 54.6875 
L 29.59375 11.921875 
L 46.6875 54.6875 
L 56.203125 54.6875 
z
" id="DejaVuSans-121"/>
      <path d="M 9.421875 75.984375 
L 18.40625 75.984375 
L 18.40625 0 
L 9.421875 0 
z
" id="DejaVuSans-108"/>
      <path d="M 48.6875 27.296875 
Q 48.6875 37.203125 44.609375 42.84375 
Q 40.53125 48.484375 33.40625 48.484375 
Q 26.265625 48.484375 22.1875 42.84375 
Q 18.109375 37.203125 18.109375 27.296875 
Q 18.109375 17.390625 22.1875 11.75 
Q 26.265625 6.109375 33.40625 6.109375 
Q 40.53125 6.109375 44.609375 11.75 
Q 48.6875 17.390625 48.6875 27.296875 
z
M 18.109375 46.390625 
Q 20.953125 51.265625 25.265625 53.625 
Q 29.59375 56 35.59375 56 
Q 45.5625 56 51.78125 48.09375 
Q 58.015625 40.1875 58.015625 27.296875 
Q 58.015625 14.40625 51.78125 6.484375 
Q 45.5625 -1.421875 35.59375 -1.421875 
Q 29.59375 -1.421875 25.265625 0.953125 
Q 20.953125 3.328125 18.109375 8.203125 
L 18.109375 0 
L 9.078125 0 
L 9.078125 75.984375 
L 18.109375 75.984375 
z
" id="DejaVuSans-98"/>
     </defs>
     <g transform="translate(28.475625 398.783125)rotate(-90)scale(0.28 -0.28)">
      <use xlink:href="#DejaVuSans-115"/>
      <use x="52.099609" xlink:href="#DejaVuSans-121"/>
      <use x="111.279297" xlink:href="#DejaVuSans-108"/>
      <use x="139.0625" xlink:href="#DejaVuSans-108"/>
      <use x="166.845703" xlink:href="#DejaVuSans-97"/>
      <use x="228.125" xlink:href="#DejaVuSans-98"/>
      <use x="291.601562" xlink:href="#DejaVuSans-108"/>
      <use x="319.384766" xlink:href="#DejaVuSans-101"/>
      <use x="380.908203" xlink:href="#DejaVuSans-32"/>
      <use x="412.695312" xlink:href="#DejaVuSans-101"/>
      <use x="474.21875" xlink:href="#DejaVuSans-114"/>
      <use x="515.316406" xlink:href="#DejaVuSans-114"/>
      <use x="556.398438" xlink:href="#DejaVuSans-111"/>
      <use x="617.580078" xlink:href="#DejaVuSans-114"/>
      <use x="658.693359" xlink:href="#DejaVuSans-32"/>
      <use x="690.480469" xlink:href="#DejaVuSans-114"/>
      <use x="731.59375" xlink:href="#DejaVuSans-97"/>
      <use x="792.873047" xlink:href="#DejaVuSans-116"/>
      <use x="832.082031" xlink:href="#DejaVuSans-101"/>
     </g>
    </g>
   </g>
   <g id="PathCollection_4">
    <defs>
     <path d="M 0 3.383948 
C 0.897434 3.383948 1.758231 3.027394 2.392813 2.392813 
C 3.027394 1.758231 3.383948 0.897434 3.383948 0 
C 3.383948 -0.897434 3.027394 -1.758231 2.392813 -2.392813 
C 1.758231 -3.027394 0.897434 -3.383948 0 -3.383948 
C -0.897434 -3.383948 -1.758231 -3.027394 -2.392813 -2.392813 
C -3.027394 -1.758231 -3.383948 -0.897434 -3.383948 0 
C -3.383948 0.897434 -3.027394 1.758231 -2.392813 2.392813 
C -1.758231 3.027394 -0.897434 3.383948 0 3.383948 
z
" id="C1_0_b2a597146b"/>
    </defs>
    <g clip-path="url(#pd981efcf63)">
     <use style="fill:#ff7f0e;stroke:#ff7f0e;stroke-width:2.025;" x="170.105" xlink:href="#C1_0_b2a597146b" y="397.596513"/>
    </g>
    <g clip-path="url(#pd981efcf63)">
     <use style="fill:#ff7f0e;stroke:#ff7f0e;stroke-width:2.025;" x="356.105" xlink:href="#C1_0_b2a597146b" y="417.873179"/>
    </g>
    <g clip-path="url(#pd981efcf63)">
     <use style="fill:#ff7f0e;stroke:#ff7f0e;stroke-width:2.025;" x="542.105" xlink:href="#C1_0_b2a597146b" y="404.529519"/>
    </g>
   </g>
   <g id="line2d_16">
    <path clip-path="url(#pd981efcf63)" d="M 170.105 382.006707 
L 170.105 397.596513 
" style="fill:none;stroke:#000000;stroke-linecap:square;stroke-width:4;"/>
   </g>
   <g id="line2d_17">
    <path clip-path="url(#pd981efcf63)" d="M 170.105 315.434871 
L 170.105 224.48931 
" style="fill:none;stroke:#000000;stroke-linecap:square;stroke-width:4;"/>
   </g>
   <g id="line2d_18">
    <path clip-path="url(#pd981efcf63)" d="M 132.905 397.596513 
L 207.305 397.596513 
" style="fill:none;stroke:#000000;stroke-linecap:square;stroke-width:4;"/>
   </g>
   <g id="line2d_19">
    <path clip-path="url(#pd981efcf63)" d="M 132.905 224.48931 
L 207.305 224.48931 
" style="fill:none;stroke:#000000;stroke-linecap:square;stroke-width:4;"/>
   </g>
   <g id="line2d_20"/>
   <g id="line2d_21">
    <path clip-path="url(#pd981efcf63)" d="M 356.105 414.700535 
L 356.105 425.836628 
" style="fill:none;stroke:#000000;stroke-linecap:square;stroke-width:4;"/>
   </g>
   <g id="line2d_22">
    <path clip-path="url(#pd981efcf63)" d="M 356.105 348.731188 
L 356.105 304.717885 
" style="fill:none;stroke:#000000;stroke-linecap:square;stroke-width:4;"/>
   </g>
   <g id="line2d_23">
    <path clip-path="url(#pd981efcf63)" d="M 318.905 425.836628 
L 393.305 425.836628 
" style="fill:none;stroke:#000000;stroke-linecap:square;stroke-width:4;"/>
   </g>
   <g id="line2d_24">
    <path clip-path="url(#pd981efcf63)" d="M 318.905 304.717885 
L 393.305 304.717885 
" style="fill:none;stroke:#000000;stroke-linecap:square;stroke-width:4;"/>
   </g>
   <g id="line2d_25">
    <defs>
     <path d="M -0 3.535534 
L 2.12132 0 
L -0 -3.535534 
L -2.12132 -0 
z
" id="m723a7fc6c3" style="stroke:#3d3d3d;stroke-linejoin:miter;"/>
    </defs>
    <g clip-path="url(#pd981efcf63)">
     <use style="fill:#3d3d3d;stroke:#3d3d3d;stroke-linejoin:miter;" x="356.105" xlink:href="#m723a7fc6c3" y="211.654706"/>
    </g>
   </g>
   <g id="line2d_26">
    <path clip-path="url(#pd981efcf63)" d="M 542.105 424.710519 
L 542.105 456.737929 
" style="fill:none;stroke:#000000;stroke-linecap:square;stroke-width:4;"/>
   </g>
   <g id="line2d_27">
    <path clip-path="url(#pd981efcf63)" d="M 542.105 388.09072 
L 542.105 381.343758 
" style="fill:none;stroke:#000000;stroke-linecap:square;stroke-width:4;"/>
   </g>
   <g id="line2d_28">
    <path clip-path="url(#pd981efcf63)" d="M 504.905 456.737929 
L 579.305 456.737929 
" style="fill:none;stroke:#000000;stroke-linecap:square;stroke-width:4;"/>
   </g>
   <g id="line2d_29">
    <path clip-path="url(#pd981efcf63)" d="M 504.905 381.343758 
L 579.305 381.343758 
" style="fill:none;stroke:#000000;stroke-linecap:square;stroke-width:4;"/>
   </g>
   <g id="line2d_30">
    <g clip-path="url(#pd981efcf63)">
     <use style="fill:#3d3d3d;stroke:#3d3d3d;stroke-linejoin:miter;" x="542.105" xlink:href="#m723a7fc6c3" y="275.827729"/>
    </g>
   </g>
   <g id="line2d_31">
    <path clip-path="url(#pd981efcf63)" d="M 170.105 397.596513 
L 356.105 417.873179 
L 542.105 404.529519 
" style="fill:none;stroke:#ff7f0e;stroke-dasharray:9.99,4.32;stroke-dashoffset:0;stroke-width:2.7;"/>
   </g>
   <g id="line2d_32">
    <path clip-path="url(#pd981efcf63)" style="fill:none;stroke:#ff7f0e;stroke-linecap:square;stroke-width:2.7;"/>
   </g>
   <g id="line2d_33">
    <path clip-path="url(#pd981efcf63)" style="fill:none;stroke:#ff7f0e;stroke-linecap:square;stroke-width:2.7;"/>
   </g>
   <g id="line2d_34">
    <path clip-path="url(#pd981efcf63)" style="fill:none;stroke:#ff7f0e;stroke-linecap:square;stroke-width:2.7;"/>
   </g>
   <g id="line2d_35">
    <path clip-path="url(#pd981efcf63)" d="M 95.705 357.827481 
L 244.505 357.827481 
" style="fill:none;stroke:#000000;stroke-linecap:square;stroke-width:4;"/>
   </g>
   <g id="line2d_36">
    <path clip-path="url(#pd981efcf63)" d="M 281.705 386.912707 
L 430.505 386.912707 
" style="fill:none;stroke:#000000;stroke-linecap:square;stroke-width:4;"/>
   </g>
   <g id="line2d_37">
    <path clip-path="url(#pd981efcf63)" d="M 467.705 414.820971 
L 616.505 414.820971 
" style="fill:none;stroke:#000000;stroke-linecap:square;stroke-width:4;"/>
   </g>
   <g id="patch_6">
    <path d="M 77.105 477.527812 
L 77.105 69.827812 
" style="fill:none;stroke:#000000;stroke-linecap:square;stroke-linejoin:miter;stroke-width:0.8;"/>
   </g>
   <g id="patch_7">
    <path d="M 635.105 477.527812 
L 635.105 69.827812 
" style="fill:none;stroke:#000000;stroke-linecap:square;stroke-linejoin:miter;stroke-width:0.8;"/>
   </g>
   <g id="patch_8">
    <path d="M 77.105 477.527812 
L 635.105 477.527812 
" style="fill:none;stroke:#000000;stroke-linecap:square;stroke-linejoin:miter;stroke-width:0.8;"/>
   </g>
   <g id="patch_9">
    <path d="M 77.105 69.827812 
L 635.105 69.827812 
" style="fill:none;stroke:#000000;stroke-linecap:square;stroke-linejoin:miter;stroke-width:0.8;"/>
   </g>
   <g id="PathCollection_5">
    <defs>
     <path d="M 0 3.383948 
C 0.897434 3.383948 1.758231 3.027394 2.392813 2.392813 
C 3.027394 1.758231 3.383948 0.897434 3.383948 0 
C 3.383948 -0.897434 3.027394 -1.758231 2.392813 -2.392813 
C 1.758231 -3.027394 0.897434 -3.383948 0 -3.383948 
C -0.897434 -3.383948 -1.758231 -3.027394 -2.392813 -2.392813 
C -3.027394 -1.758231 -3.383948 -0.897434 -3.383948 0 
C -3.383948 0.897434 -3.027394 1.758231 -2.392813 2.392813 
C -1.758231 3.027394 -0.897434 3.383948 0 3.383948 
z
" id="C2_0_cb120e8583"/>
    </defs>
    <g clip-path="url(#pd981efcf63)">
     <use style="fill:#2ca02c;stroke:#2ca02c;stroke-width:2.025;" x="170.105" xlink:href="#C2_0_cb120e8583" y="378.731146"/>
    </g>
    <g clip-path="url(#pd981efcf63)">
     <use style="fill:#2ca02c;stroke:#2ca02c;stroke-width:2.025;" x="356.105" xlink:href="#C2_0_cb120e8583" y="356.141713"/>
    </g>
    <g clip-path="url(#pd981efcf63)">
     <use style="fill:#2ca02c;stroke:#2ca02c;stroke-width:2.025;" x="542.105" xlink:href="#C2_0_cb120e8583" y="420.317356"/>
    </g>
   </g>
   <g id="line2d_38">
    <path clip-path="url(#pd981efcf63)" d="M 170.105 378.731146 
L 356.105 356.141713 
L 542.105 420.317356 
" style="fill:none;stroke:#2ca02c;stroke-dasharray:9.99,4.32;stroke-dashoffset:0;stroke-width:2.7;"/>
   </g>
   <g id="line2d_39">
    <path clip-path="url(#pd981efcf63)" style="fill:none;stroke:#2ca02c;stroke-linecap:square;stroke-width:2.7;"/>
   </g>
   <g id="line2d_40">
    <path clip-path="url(#pd981efcf63)" style="fill:none;stroke:#2ca02c;stroke-linecap:square;stroke-width:2.7;"/>
   </g>
   <g id="line2d_41">
    <path clip-path="url(#pd981efcf63)" style="fill:none;stroke:#2ca02c;stroke-linecap:square;stroke-width:2.7;"/>
   </g>
   <g id="text_14">
    <!-- Koumura -->
    <defs>
     <path d="M 9.8125 72.90625 
L 19.671875 72.90625 
L 19.671875 42.09375 
L 52.390625 72.90625 
L 65.09375 72.90625 
L 28.90625 38.921875 
L 67.671875 0 
L 54.6875 0 
L 19.671875 35.109375 
L 19.671875 0 
L 9.8125 0 
z
" id="DejaVuSans-75"/>
     <path d="M 52 44.1875 
Q 55.375 50.25 60.0625 53.125 
Q 64.75 56 71.09375 56 
Q 79.640625 56 84.28125 50.015625 
Q 88.921875 44.046875 88.921875 33.015625 
L 88.921875 0 
L 79.890625 0 
L 79.890625 32.71875 
Q 79.890625 40.578125 77.09375 44.375 
Q 74.3125 48.1875 68.609375 48.1875 
Q 61.625 48.1875 57.5625 43.546875 
Q 53.515625 38.921875 53.515625 30.90625 
L 53.515625 0 
L 44.484375 0 
L 44.484375 32.71875 
Q 44.484375 40.625 41.703125 44.40625 
Q 38.921875 48.1875 33.109375 48.1875 
Q 26.21875 48.1875 22.15625 43.53125 
Q 18.109375 38.875 18.109375 30.90625 
L 18.109375 0 
L 9.078125 0 
L 9.078125 54.6875 
L 18.109375 54.6875 
L 18.109375 46.1875 
Q 21.1875 51.21875 25.484375 53.609375 
Q 29.78125 56 35.6875 56 
Q 41.65625 56 45.828125 52.96875 
Q 50 49.953125 52 44.1875 
z
" id="DejaVuSans-109"/>
    </defs>
    <g transform="translate(309.605 111.798083)scale(0.18 -0.18)">
     <use xlink:href="#DejaVuSans-75"/>
     <use x="65.498047" xlink:href="#DejaVuSans-111"/>
     <use x="126.679688" xlink:href="#DejaVuSans-117"/>
     <use x="190.058594" xlink:href="#DejaVuSans-109"/>
     <use x="287.470703" xlink:href="#DejaVuSans-117"/>
     <use x="350.849609" xlink:href="#DejaVuSans-114"/>
     <use x="391.962891" xlink:href="#DejaVuSans-97"/>
    </g>
    <!-- Okanoya 2016 -->
    <defs>
     <path d="M 39.40625 66.21875 
Q 28.65625 66.21875 22.328125 58.203125 
Q 16.015625 50.203125 16.015625 36.375 
Q 16.015625 22.609375 22.328125 14.59375 
Q 28.65625 6.59375 39.40625 6.59375 
Q 50.140625 6.59375 56.421875 14.59375 
Q 62.703125 22.609375 62.703125 36.375 
Q 62.703125 50.203125 56.421875 58.203125 
Q 50.140625 66.21875 39.40625 66.21875 
z
M 39.40625 74.21875 
Q 54.734375 74.21875 63.90625 63.9375 
Q 73.09375 53.65625 73.09375 36.375 
Q 73.09375 19.140625 63.90625 8.859375 
Q 54.734375 -1.421875 39.40625 -1.421875 
Q 24.03125 -1.421875 14.8125 8.828125 
Q 5.609375 19.09375 5.609375 36.375 
Q 5.609375 53.65625 14.8125 63.9375 
Q 24.03125 74.21875 39.40625 74.21875 
z
" id="DejaVuSans-79"/>
     <path d="M 9.078125 75.984375 
L 18.109375 75.984375 
L 18.109375 31.109375 
L 44.921875 54.6875 
L 56.390625 54.6875 
L 27.390625 29.109375 
L 57.625 0 
L 45.90625 0 
L 18.109375 26.703125 
L 18.109375 0 
L 9.078125 0 
z
" id="DejaVuSans-107"/>
    </defs>
    <g transform="translate(309.605 131.954145)scale(0.18 -0.18)">
     <use xlink:href="#DejaVuSans-79"/>
     <use x="78.710938" xlink:href="#DejaVuSans-107"/>
     <use x="136.605469" xlink:href="#DejaVuSans-97"/>
     <use x="197.884766" xlink:href="#DejaVuSans-110"/>
     <use x="261.263672" xlink:href="#DejaVuSans-111"/>
     <use x="322.445312" xlink:href="#DejaVuSans-121"/>
     <use x="381.625" xlink:href="#DejaVuSans-97"/>
     <use x="442.904297" xlink:href="#DejaVuSans-32"/>
     <use x="474.691406" xlink:href="#DejaVuSans-50"/>
     <use x="538.314453" xlink:href="#DejaVuSans-48"/>
     <use x="601.9375" xlink:href="#DejaVuSans-49"/>
     <use x="665.560547" xlink:href="#DejaVuSans-54"/>
    </g>
   </g>
   <g id="text_15">
    <!-- Koumura -->
    <g transform="translate(495.605 233.83417)scale(0.18 -0.18)">
     <use xlink:href="#DejaVuSans-75"/>
     <use x="65.498047" xlink:href="#DejaVuSans-111"/>
     <use x="126.679688" xlink:href="#DejaVuSans-117"/>
     <use x="190.058594" xlink:href="#DejaVuSans-109"/>
     <use x="287.470703" xlink:href="#DejaVuSans-117"/>
     <use x="350.849609" xlink:href="#DejaVuSans-114"/>
     <use x="391.962891" xlink:href="#DejaVuSans-97"/>
    </g>
    <!-- Okanoya 2016 -->
    <g transform="translate(495.605 253.990232)scale(0.18 -0.18)">
     <use xlink:href="#DejaVuSans-79"/>
     <use x="78.710938" xlink:href="#DejaVuSans-107"/>
     <use x="136.605469" xlink:href="#DejaVuSans-97"/>
     <use x="197.884766" xlink:href="#DejaVuSans-110"/>
     <use x="261.263672" xlink:href="#DejaVuSans-111"/>
     <use x="322.445312" xlink:href="#DejaVuSans-121"/>
     <use x="381.625" xlink:href="#DejaVuSans-97"/>
     <use x="442.904297" xlink:href="#DejaVuSans-32"/>
     <use x="474.691406" xlink:href="#DejaVuSans-50"/>
     <use x="538.314453" xlink:href="#DejaVuSans-48"/>
     <use x="601.9375" xlink:href="#DejaVuSans-49"/>
     <use x="665.560547" xlink:href="#DejaVuSans-54"/>
    </g>
   </g>
   <g id="text_16">
    <!-- mean syllable error rate per bird on test set -->
    <defs>
     <path d="M 18.109375 8.203125 
L 18.109375 -20.796875 
L 9.078125 -20.796875 
L 9.078125 54.6875 
L 18.109375 54.6875 
L 18.109375 46.390625 
Q 20.953125 51.265625 25.265625 53.625 
Q 29.59375 56 35.59375 56 
Q 45.5625 56 51.78125 48.09375 
Q 58.015625 40.1875 58.015625 27.296875 
Q 58.015625 14.40625 51.78125 6.484375 
Q 45.5625 -1.421875 35.59375 -1.421875 
Q 29.59375 -1.421875 25.265625 0.953125 
Q 20.953125 3.328125 18.109375 8.203125 
z
M 48.6875 27.296875 
Q 48.6875 37.203125 44.609375 42.84375 
Q 40.53125 48.484375 33.40625 48.484375 
Q 26.265625 48.484375 22.1875 42.84375 
Q 18.109375 37.203125 18.109375 27.296875 
Q 18.109375 17.390625 22.1875 11.75 
Q 26.265625 6.109375 33.40625 6.109375 
Q 40.53125 6.109375 44.609375 11.75 
Q 48.6875 17.390625 48.6875 27.296875 
z
" id="DejaVuSans-112"/>
    </defs>
    <g transform="translate(26.212813 29.995312)scale(0.3 -0.3)">
     <use xlink:href="#DejaVuSans-109"/>
     <use x="97.412109" xlink:href="#DejaVuSans-101"/>
     <use x="158.935547" xlink:href="#DejaVuSans-97"/>
     <use x="220.214844" xlink:href="#DejaVuSans-110"/>
     <use x="283.59375" xlink:href="#DejaVuSans-32"/>
     <use x="315.380859" xlink:href="#DejaVuSans-115"/>
     <use x="367.480469" xlink:href="#DejaVuSans-121"/>
     <use x="426.660156" xlink:href="#DejaVuSans-108"/>
     <use x="454.443359" xlink:href="#DejaVuSans-108"/>
     <use x="482.226562" xlink:href="#DejaVuSans-97"/>
     <use x="543.505859" xlink:href="#DejaVuSans-98"/>
     <use x="606.982422" xlink:href="#DejaVuSans-108"/>
     <use x="634.765625" xlink:href="#DejaVuSans-101"/>
     <use x="696.289062" xlink:href="#DejaVuSans-32"/>
     <use x="728.076172" xlink:href="#DejaVuSans-101"/>
     <use x="789.599609" xlink:href="#DejaVuSans-114"/>
     <use x="830.697266" xlink:href="#DejaVuSans-114"/>
     <use x="871.779297" xlink:href="#DejaVuSans-111"/>
     <use x="932.960938" xlink:href="#DejaVuSans-114"/>
     <use x="974.074219" xlink:href="#DejaVuSans-32"/>
     <use x="1005.861328" xlink:href="#DejaVuSans-114"/>
     <use x="1046.974609" xlink:href="#DejaVuSans-97"/>
     <use x="1108.253906" xlink:href="#DejaVuSans-116"/>
     <use x="1147.462891" xlink:href="#DejaVuSans-101"/>
     <use x="1208.986328" xlink:href="#DejaVuSans-32"/>
     <use x="1240.773438" xlink:href="#DejaVuSans-112"/>
     <use x="1304.25" xlink:href="#DejaVuSans-101"/>
     <use x="1365.773438" xlink:href="#DejaVuSans-114"/>
     <use x="1406.886719" xlink:href="#DejaVuSans-32"/>
     <use x="1438.673828" xlink:href="#DejaVuSans-98"/>
     <use x="1502.150391" xlink:href="#DejaVuSans-105"/>
     <use x="1529.933594" xlink:href="#DejaVuSans-114"/>
     <use x="1571.03125" xlink:href="#DejaVuSans-100"/>
     <use x="1634.507812" xlink:href="#DejaVuSans-32"/>
     <use x="1666.294922" xlink:href="#DejaVuSans-111"/>
     <use x="1727.476562" xlink:href="#DejaVuSans-110"/>
     <use x="1790.855469" xlink:href="#DejaVuSans-32"/>
     <use x="1822.642578" xlink:href="#DejaVuSans-116"/>
     <use x="1861.851562" xlink:href="#DejaVuSans-101"/>
     <use x="1923.375" xlink:href="#DejaVuSans-115"/>
     <use x="1975.474609" xlink:href="#DejaVuSans-116"/>
     <use x="2014.683594" xlink:href="#DejaVuSans-32"/>
     <use x="2046.470703" xlink:href="#DejaVuSans-115"/>
     <use x="2098.570312" xlink:href="#DejaVuSans-101"/>
     <use x="2160.09375" xlink:href="#DejaVuSans-116"/>
    </g>
    <!-- v. training set duration -->
    <defs>
     <path d="M 2.984375 54.6875 
L 12.5 54.6875 
L 29.59375 8.796875 
L 46.6875 54.6875 
L 56.203125 54.6875 
L 35.6875 0 
L 23.484375 0 
z
" id="DejaVuSans-118"/>
    </defs>
    <g transform="translate(184.022188 63.58875)scale(0.3 -0.3)">
     <use xlink:href="#DejaVuSans-118"/>
     <use x="59.070312" xlink:href="#DejaVuSans-46"/>
     <use x="90.857422" xlink:href="#DejaVuSans-32"/>
     <use x="122.644531" xlink:href="#DejaVuSans-116"/>
     <use x="161.853516" xlink:href="#DejaVuSans-114"/>
     <use x="202.966797" xlink:href="#DejaVuSans-97"/>
     <use x="264.246094" xlink:href="#DejaVuSans-105"/>
     <use x="292.029297" xlink:href="#DejaVuSans-110"/>
     <use x="355.408203" xlink:href="#DejaVuSans-105"/>
     <use x="383.191406" xlink:href="#DejaVuSans-110"/>
     <use x="446.570312" xlink:href="#DejaVuSans-103"/>
     <use x="510.046875" xlink:href="#DejaVuSans-32"/>
     <use x="541.833984" xlink:href="#DejaVuSans-115"/>
     <use x="593.933594" xlink:href="#DejaVuSans-101"/>
     <use x="655.457031" xlink:href="#DejaVuSans-116"/>
     <use x="694.666016" xlink:href="#DejaVuSans-32"/>
     <use x="726.453125" xlink:href="#DejaVuSans-100"/>
     <use x="789.929688" xlink:href="#DejaVuSans-117"/>
     <use x="853.308594" xlink:href="#DejaVuSans-114"/>
     <use x="894.421875" xlink:href="#DejaVuSans-97"/>
     <use x="955.701172" xlink:href="#DejaVuSans-116"/>
     <use x="994.910156" xlink:href="#DejaVuSans-105"/>
     <use x="1022.693359" xlink:href="#DejaVuSans-111"/>
     <use x="1083.875" xlink:href="#DejaVuSans-110"/>
    </g>
   </g>
   <g id="PathCollection_6">
    <defs>
     <path d="M 0 3.383948 
C 0.897434 3.383948 1.758231 3.027394 2.392813 2.392813 
C 3.027394 1.758231 3.383948 0.897434 3.383948 0 
C 3.383948 -0.897434 3.027394 -1.758231 2.392813 -2.392813 
C 1.758231 -3.027394 0.897434 -3.383948 0 -3.383948 
C -0.897434 -3.383948 -1.758231 -3.027394 -2.392813 -2.392813 
C -3.027394 -1.758231 -3.383948 -0.897434 -3.383948 0 
C -3.383948 0.897434 -3.027394 1.758231 -2.392813 2.392813 
C -1.758231 3.027394 -0.897434 3.383948 0 3.383948 
z
" id="C3_0_b8b3169b67"/>
    </defs>
    <g clip-path="url(#pd981efcf63)">
     <use style="fill:#d62728;stroke:#d62728;stroke-width:2.025;" x="170.105" xlink:href="#C3_0_b8b3169b67" y="340.98392"/>
    </g>
    <g clip-path="url(#pd981efcf63)">
     <use style="fill:#d62728;stroke:#d62728;stroke-width:2.025;" x="356.105" xlink:href="#C3_0_b8b3169b67" y="391.566068"/>
    </g>
    <g clip-path="url(#pd981efcf63)">
     <use style="fill:#d62728;stroke:#d62728;stroke-width:2.025;" x="542.105" xlink:href="#C3_0_b8b3169b67" y="426.174906"/>
    </g>
   </g>
   <g id="line2d_42">
    <path clip-path="url(#pd981efcf63)" d="M 170.105 340.98392 
L 356.105 391.566068 
L 542.105 426.174906 
" style="fill:none;stroke:#d62728;stroke-dasharray:9.99,4.32;stroke-dashoffset:0;stroke-width:2.7;"/>
   </g>
   <g id="line2d_43">
    <path clip-path="url(#pd981efcf63)" style="fill:none;stroke:#d62728;stroke-linecap:square;stroke-width:2.7;"/>
   </g>
   <g id="line2d_44">
    <path clip-path="url(#pd981efcf63)" style="fill:none;stroke:#d62728;stroke-linecap:square;stroke-width:2.7;"/>
   </g>
   <g id="line2d_45">
    <path clip-path="url(#pd981efcf63)" style="fill:none;stroke:#d62728;stroke-linecap:square;stroke-width:2.7;"/>
   </g>
   <g id="PathCollection_7">
    <defs>
     <path d="M 0 3.383948 
C 0.897434 3.383948 1.758231 3.027394 2.392813 2.392813 
C 3.027394 1.758231 3.383948 0.897434 3.383948 0 
C 3.383948 -0.897434 3.027394 -1.758231 2.392813 -2.392813 
C 1.758231 -3.027394 0.897434 -3.383948 0 -3.383948 
C -0.897434 -3.383948 -1.758231 -3.027394 -2.392813 -2.392813 
C -3.027394 -1.758231 -3.383948 -0.897434 -3.383948 0 
C -3.383948 0.897434 -3.027394 1.758231 -2.392813 2.392813 
C -1.758231 3.027394 -0.897434 3.383948 0 3.383948 
z
" id="C4_0_6051e470f6"/>
    </defs>
    <g clip-path="url(#pd981efcf63)">
     <use style="fill:#9467bd;stroke:#9467bd;stroke-width:2.025;" x="170.105" xlink:href="#C4_0_6051e470f6" y="374.671042"/>
    </g>
    <g clip-path="url(#pd981efcf63)">
     <use style="fill:#9467bd;stroke:#9467bd;stroke-width:2.025;" x="356.105" xlink:href="#C4_0_6051e470f6" y="411.762839"/>
    </g>
    <g clip-path="url(#pd981efcf63)">
     <use style="fill:#9467bd;stroke:#9467bd;stroke-width:2.025;" x="542.105" xlink:href="#C4_0_6051e470f6" y="411.355237"/>
    </g>
   </g>
   <g id="line2d_46">
    <path clip-path="url(#pd981efcf63)" d="M 170.105 374.671042 
L 356.105 411.762839 
L 542.105 411.355237 
" style="fill:none;stroke:#9467bd;stroke-dasharray:9.99,4.32;stroke-dashoffset:0;stroke-width:2.7;"/>
   </g>
   <g id="line2d_47">
    <path clip-path="url(#pd981efcf63)" style="fill:none;stroke:#9467bd;stroke-linecap:square;stroke-width:2.7;"/>
   </g>
   <g id="line2d_48">
    <path clip-path="url(#pd981efcf63)" style="fill:none;stroke:#9467bd;stroke-linecap:square;stroke-width:2.7;"/>
   </g>
   <g id="line2d_49">
    <path clip-path="url(#pd981efcf63)" style="fill:none;stroke:#9467bd;stroke-linecap:square;stroke-width:2.7;"/>
   </g>
   <g id="legend_1">
    <g id="patch_10">
     <path d="M 644.685 369.390312 
L 761.60375 369.390312 
Q 765.60375 369.390312 765.60375 365.390312 
L 765.60375 73.827812 
Q 765.60375 69.827812 761.60375 69.827812 
L 644.685 69.827812 
Q 640.685 69.827812 640.685 73.827812 
L 640.685 365.390312 
Q 640.685 369.390312 644.685 369.390312 
z
" style="fill:#ffffff;opacity:0.8;stroke:#cccccc;stroke-linejoin:miter;"/>
    </g>
    <g id="PathCollection_8">
     <path d="M 668.685 91.158636 
C 669.582434 91.158636 670.443231 90.802082 671.077813 90.1675 
C 671.712394 89.532919 672.068948 88.672121 672.068948 87.774687 
C 672.068948 86.877254 671.712394 86.016456 671.077813 85.381875 
C 670.443231 84.747293 669.582434 84.390739 668.685 84.390739 
C 667.787566 84.390739 666.926769 84.747293 666.292187 85.381875 
C 665.657606 86.016456 665.301052 86.877254 665.301052 87.774687 
C 665.301052 88.672121 665.657606 89.532919 666.292187 90.1675 
C 666.926769 90.802082 667.787566 91.158636 668.685 91.158636 
z
" style="fill:#1f77b4;stroke:#1f77b4;stroke-width:2.025;"/>
    </g>
    <g id="text_17">
     <!-- Bird0 -->
     <defs>
      <path d="M 19.671875 34.8125 
L 19.671875 8.109375 
L 35.5 8.109375 
Q 43.453125 8.109375 47.28125 11.40625 
Q 51.125 14.703125 51.125 21.484375 
Q 51.125 28.328125 47.28125 31.5625 
Q 43.453125 34.8125 35.5 34.8125 
z
M 19.671875 64.796875 
L 19.671875 42.828125 
L 34.28125 42.828125 
Q 41.5 42.828125 45.03125 45.53125 
Q 48.578125 48.25 48.578125 53.8125 
Q 48.578125 59.328125 45.03125 62.0625 
Q 41.5 64.796875 34.28125 64.796875 
z
M 9.8125 72.90625 
L 35.015625 72.90625 
Q 46.296875 72.90625 52.390625 68.21875 
Q 58.5 63.53125 58.5 54.890625 
Q 58.5 48.1875 55.375 44.234375 
Q 52.25 40.28125 46.1875 39.3125 
Q 53.46875 37.75 57.5 32.78125 
Q 61.53125 27.828125 61.53125 20.40625 
Q 61.53125 10.640625 54.890625 5.3125 
Q 48.25 0 35.984375 0 
L 9.8125 0 
z
" id="DejaVuSans-66"/>
     </defs>
     <g transform="translate(704.685 93.024687)scale(0.2 -0.2)">
      <use xlink:href="#DejaVuSans-66"/>
      <use x="68.603516" xlink:href="#DejaVuSans-105"/>
      <use x="96.386719" xlink:href="#DejaVuSans-114"/>
      <use x="137.484375" xlink:href="#DejaVuSans-100"/>
      <use x="200.960938" xlink:href="#DejaVuSans-48"/>
     </g>
    </g>
    <g id="PathCollection_9">
     <path d="M 668.685 120.514886 
C 669.582434 120.514886 670.443231 120.158332 671.077813 119.52375 
C 671.712394 118.889169 672.068948 118.028371 672.068948 117.130937 
C 672.068948 116.233504 671.712394 115.372706 671.077813 114.738125 
C 670.443231 114.103543 669.582434 113.746989 668.685 113.746989 
C 667.787566 113.746989 666.926769 114.103543 666.292187 114.738125 
C 665.657606 115.372706 665.301052 116.233504 665.301052 117.130937 
C 665.301052 118.028371 665.657606 118.889169 666.292187 119.52375 
C 666.926769 120.158332 667.787566 120.514886 668.685 120.514886 
z
" style="fill:#ff7f0e;stroke:#ff7f0e;stroke-width:2.025;"/>
    </g>
    <g id="text_18">
     <!-- Bird1 -->
     <g transform="translate(704.685 122.380937)scale(0.2 -0.2)">
      <use xlink:href="#DejaVuSans-66"/>
      <use x="68.603516" xlink:href="#DejaVuSans-105"/>
      <use x="96.386719" xlink:href="#DejaVuSans-114"/>
      <use x="137.484375" xlink:href="#DejaVuSans-100"/>
      <use x="200.960938" xlink:href="#DejaVuSans-49"/>
     </g>
    </g>
    <g id="PathCollection_10">
     <path d="M 668.685 149.871136 
C 669.582434 149.871136 670.443231 149.514582 671.077813 148.88 
C 671.712394 148.245419 672.068948 147.384621 672.068948 146.487187 
C 672.068948 145.589754 671.712394 144.728956 671.077813 144.094375 
C 670.443231 143.459793 669.582434 143.103239 668.685 143.103239 
C 667.787566 143.103239 666.926769 143.459793 666.292187 144.094375 
C 665.657606 144.728956 665.301052 145.589754 665.301052 146.487187 
C 665.301052 147.384621 665.657606 148.245419 666.292187 148.88 
C 666.926769 149.514582 667.787566 149.871136 668.685 149.871136 
z
" style="fill:#2ca02c;stroke:#2ca02c;stroke-width:2.025;"/>
    </g>
    <g id="text_19">
     <!-- Bird2 -->
     <g transform="translate(704.685 151.737187)scale(0.2 -0.2)">
      <use xlink:href="#DejaVuSans-66"/>
      <use x="68.603516" xlink:href="#DejaVuSans-105"/>
      <use x="96.386719" xlink:href="#DejaVuSans-114"/>
      <use x="137.484375" xlink:href="#DejaVuSans-100"/>
      <use x="200.960938" xlink:href="#DejaVuSans-50"/>
     </g>
    </g>
    <g id="PathCollection_11">
     <path d="M 668.685 179.227386 
C 669.582434 179.227386 670.443231 178.870832 671.077813 178.23625 
C 671.712394 177.601669 672.068948 176.740871 672.068948 175.843437 
C 672.068948 174.946004 671.712394 174.085206 671.077813 173.450625 
C 670.443231 172.816043 669.582434 172.459489 668.685 172.459489 
C 667.787566 172.459489 666.926769 172.816043 666.292187 173.450625 
C 665.657606 174.085206 665.301052 174.946004 665.301052 175.843437 
C 665.301052 176.740871 665.657606 177.601669 666.292187 178.23625 
C 666.926769 178.870832 667.787566 179.227386 668.685 179.227386 
z
" style="fill:#d62728;stroke:#d62728;stroke-width:2.025;"/>
    </g>
    <g id="text_20">
     <!-- Bird3 -->
     <g transform="translate(704.685 181.093437)scale(0.2 -0.2)">
      <use xlink:href="#DejaVuSans-66"/>
      <use x="68.603516" xlink:href="#DejaVuSans-105"/>
      <use x="96.386719" xlink:href="#DejaVuSans-114"/>
      <use x="137.484375" xlink:href="#DejaVuSans-100"/>
      <use x="200.960938" xlink:href="#DejaVuSans-51"/>
     </g>
    </g>
    <g id="PathCollection_12">
     <path d="M 668.685 208.583636 
C 669.582434 208.583636 670.443231 208.227082 671.077813 207.5925 
C 671.712394 206.957919 672.068948 206.097121 672.068948 205.199687 
C 672.068948 204.302254 671.712394 203.441456 671.077813 202.806875 
C 670.443231 202.172293 669.582434 201.815739 668.685 201.815739 
C 667.787566 201.815739 666.926769 202.172293 666.292187 202.806875 
C 665.657606 203.441456 665.301052 204.302254 665.301052 205.199687 
C 665.301052 206.097121 665.657606 206.957919 666.292187 207.5925 
C 666.926769 208.227082 667.787566 208.583636 668.685 208.583636 
z
" style="fill:#9467bd;stroke:#9467bd;stroke-width:2.025;"/>
    </g>
    <g id="text_21">
     <!-- Bird4 -->
     <g transform="translate(704.685 210.449687)scale(0.2 -0.2)">
      <use xlink:href="#DejaVuSans-66"/>
      <use x="68.603516" xlink:href="#DejaVuSans-105"/>
      <use x="96.386719" xlink:href="#DejaVuSans-114"/>
      <use x="137.484375" xlink:href="#DejaVuSans-100"/>
      <use x="200.960938" xlink:href="#DejaVuSans-52"/>
     </g>
    </g>
    <g id="PathCollection_13">
     <path d="M 668.685 237.939886 
C 669.582434 237.939886 670.443231 237.583332 671.077813 236.94875 
C 671.712394 236.314169 672.068948 235.453371 672.068948 234.555937 
C 672.068948 233.658504 671.712394 232.797706 671.077813 232.163125 
C 670.443231 231.528543 669.582434 231.171989 668.685 231.171989 
C 667.787566 231.171989 666.926769 231.528543 666.292187 232.163125 
C 665.657606 232.797706 665.301052 233.658504 665.301052 234.555937 
C 665.301052 235.453371 665.657606 236.314169 666.292187 236.94875 
C 666.926769 237.583332 667.787566 237.939886 668.685 237.939886 
z
" style="fill:#8c564b;stroke:#8c564b;stroke-width:2.025;"/>
    </g>
    <g id="text_22">
     <!-- Bird5 -->
     <g transform="translate(704.685 239.805937)scale(0.2 -0.2)">
      <use xlink:href="#DejaVuSans-66"/>
      <use x="68.603516" xlink:href="#DejaVuSans-105"/>
      <use x="96.386719" xlink:href="#DejaVuSans-114"/>
      <use x="137.484375" xlink:href="#DejaVuSans-100"/>
      <use x="200.960938" xlink:href="#DejaVuSans-53"/>
     </g>
    </g>
    <g id="PathCollection_14">
     <path d="M 668.685 267.296136 
C 669.582434 267.296136 670.443231 266.939582 671.077813 266.305 
C 671.712394 265.670419 672.068948 264.809621 672.068948 263.912187 
C 672.068948 263.014754 671.712394 262.153956 671.077813 261.519375 
C 670.443231 260.884793 669.582434 260.528239 668.685 260.528239 
C 667.787566 260.528239 666.926769 260.884793 666.292187 261.519375 
C 665.657606 262.153956 665.301052 263.014754 665.301052 263.912187 
C 665.301052 264.809621 665.657606 265.670419 666.292187 266.305 
C 666.926769 266.939582 667.787566 267.296136 668.685 267.296136 
z
" style="fill:#e377c2;stroke:#e377c2;stroke-width:2.025;"/>
    </g>
    <g id="text_23">
     <!-- Bird6 -->
     <g transform="translate(704.685 269.162187)scale(0.2 -0.2)">
      <use xlink:href="#DejaVuSans-66"/>
      <use x="68.603516" xlink:href="#DejaVuSans-105"/>
      <use x="96.386719" xlink:href="#DejaVuSans-114"/>
      <use x="137.484375" xlink:href="#DejaVuSans-100"/>
      <use x="200.960938" xlink:href="#DejaVuSans-54"/>
     </g>
    </g>
    <g id="PathCollection_15">
     <path d="M 668.685 296.652386 
C 669.582434 296.652386 670.443231 296.295832 671.077813 295.66125 
C 671.712394 295.026669 672.068948 294.165871 672.068948 293.268437 
C 672.068948 292.371004 671.712394 291.510206 671.077813 290.875625 
C 670.443231 290.241043 669.582434 289.884489 668.685 289.884489 
C 667.787566 289.884489 666.926769 290.241043 666.292187 290.875625 
C 665.657606 291.510206 665.301052 292.371004 665.301052 293.268437 
C 665.301052 294.165871 665.657606 295.026669 666.292187 295.66125 
C 666.926769 296.295832 667.787566 296.652386 668.685 296.652386 
z
" style="fill:#7f7f7f;stroke:#7f7f7f;stroke-width:2.025;"/>
    </g>
    <g id="text_24">
     <!-- Bird7 -->
     <g transform="translate(704.685 298.518437)scale(0.2 -0.2)">
      <use xlink:href="#DejaVuSans-66"/>
      <use x="68.603516" xlink:href="#DejaVuSans-105"/>
      <use x="96.386719" xlink:href="#DejaVuSans-114"/>
      <use x="137.484375" xlink:href="#DejaVuSans-100"/>
      <use x="200.960938" xlink:href="#DejaVuSans-55"/>
     </g>
    </g>
    <g id="PathCollection_16">
     <path d="M 668.685 326.008636 
C 669.582434 326.008636 670.443231 325.652082 671.077813 325.0175 
C 671.712394 324.382919 672.068948 323.522121 672.068948 322.624687 
C 672.068948 321.727254 671.712394 320.866456 671.077813 320.231875 
C 670.443231 319.597293 669.582434 319.240739 668.685 319.240739 
C 667.787566 319.240739 666.926769 319.597293 666.292187 320.231875 
C 665.657606 320.866456 665.301052 321.727254 665.301052 322.624687 
C 665.301052 323.522121 665.657606 324.382919 666.292187 325.0175 
C 666.926769 325.652082 667.787566 326.008636 668.685 326.008636 
z
" style="fill:#bcbd22;stroke:#bcbd22;stroke-width:2.025;"/>
    </g>
    <g id="text_25">
     <!-- Bird8 -->
     <g transform="translate(704.685 327.874687)scale(0.2 -0.2)">
      <use xlink:href="#DejaVuSans-66"/>
      <use x="68.603516" xlink:href="#DejaVuSans-105"/>
      <use x="96.386719" xlink:href="#DejaVuSans-114"/>
      <use x="137.484375" xlink:href="#DejaVuSans-100"/>
      <use x="200.960938" xlink:href="#DejaVuSans-56"/>
     </g>
    </g>
    <g id="PathCollection_17">
     <path d="M 668.685 355.364886 
C 669.582434 355.364886 670.443231 355.008332 671.077813 354.37375 
C 671.712394 353.739169 672.068948 352.878371 672.068948 351.980937 
C 672.068948 351.083504 671.712394 350.222706 671.077813 349.588125 
C 670.443231 348.953543 669.582434 348.596989 668.685 348.596989 
C 667.787566 348.596989 666.926769 348.953543 666.292187 349.588125 
C 665.657606 350.222706 665.301052 351.083504 665.301052 351.980937 
C 665.301052 352.878371 665.657606 353.739169 666.292187 354.37375 
C 666.926769 355.008332 667.787566 355.364886 668.685 355.364886 
z
" style="fill:#17becf;stroke:#17becf;stroke-width:2.025;"/>
    </g>
    <g id="text_26">
     <!-- Bird9 -->
     <defs>
      <path d="M 10.984375 1.515625 
L 10.984375 10.5 
Q 14.703125 8.734375 18.5 7.8125 
Q 22.3125 6.890625 25.984375 6.890625 
Q 35.75 6.890625 40.890625 13.453125 
Q 46.046875 20.015625 46.78125 33.40625 
Q 43.953125 29.203125 39.59375 26.953125 
Q 35.25 24.703125 29.984375 24.703125 
Q 19.046875 24.703125 12.671875 31.3125 
Q 6.296875 37.9375 6.296875 49.421875 
Q 6.296875 60.640625 12.9375 67.421875 
Q 19.578125 74.21875 30.609375 74.21875 
Q 43.265625 74.21875 49.921875 64.515625 
Q 56.59375 54.828125 56.59375 36.375 
Q 56.59375 19.140625 48.40625 8.859375 
Q 40.234375 -1.421875 26.421875 -1.421875 
Q 22.703125 -1.421875 18.890625 -0.6875 
Q 15.09375 0.046875 10.984375 1.515625 
z
M 30.609375 32.421875 
Q 37.25 32.421875 41.125 36.953125 
Q 45.015625 41.5 45.015625 49.421875 
Q 45.015625 57.28125 41.125 61.84375 
Q 37.25 66.40625 30.609375 66.40625 
Q 23.96875 66.40625 20.09375 61.84375 
Q 16.21875 57.28125 16.21875 49.421875 
Q 16.21875 41.5 20.09375 36.953125 
Q 23.96875 32.421875 30.609375 32.421875 
z
" id="DejaVuSans-57"/>
     </defs>
     <g transform="translate(704.685 357.230937)scale(0.2 -0.2)">
      <use xlink:href="#DejaVuSans-66"/>
      <use x="68.603516" xlink:href="#DejaVuSans-105"/>
      <use x="96.386719" xlink:href="#DejaVuSans-114"/>
      <use x="137.484375" xlink:href="#DejaVuSans-100"/>
      <use x="200.960938" xlink:href="#DejaVuSans-57"/>
     </g>
    </g>
   </g>
   <g id="PathCollection_18">
    <defs>
     <path d="M 0 3.383948 
C 0.897434 3.383948 1.758231 3.027394 2.392813 2.392813 
C 3.027394 1.758231 3.383948 0.897434 3.383948 0 
C 3.383948 -0.897434 3.027394 -1.758231 2.392813 -2.392813 
C 1.758231 -3.027394 0.897434 -3.383948 0 -3.383948 
C -0.897434 -3.383948 -1.758231 -3.027394 -2.392813 -2.392813 
C -3.027394 -1.758231 -3.383948 -0.897434 -3.383948 0 
C -3.383948 0.897434 -3.027394 1.758231 -2.392813 2.392813 
C -1.758231 3.027394 -0.897434 3.383948 0 3.383948 
z
" id="C5_0_d08a497b89"/>
    </defs>
    <g clip-path="url(#pd981efcf63)">
     <use style="fill:#8c564b;stroke:#8c564b;stroke-width:2.025;" x="170.105" xlink:href="#C5_0_d08a497b89" y="289.803445"/>
    </g>
    <g clip-path="url(#pd981efcf63)">
     <use style="fill:#8c564b;stroke:#8c564b;stroke-width:2.025;" x="356.105" xlink:href="#C5_0_d08a497b89" y="346.261013"/>
    </g>
    <g clip-path="url(#pd981efcf63)">
     <use style="fill:#8c564b;stroke:#8c564b;stroke-width:2.025;" x="542.105" xlink:href="#C5_0_d08a497b89" y="382.611121"/>
    </g>
   </g>
   <g id="line2d_50">
    <path clip-path="url(#pd981efcf63)" d="M 170.105 289.803445 
L 356.105 346.261013 
L 542.105 382.611121 
" style="fill:none;stroke:#8c564b;stroke-dasharray:9.99,4.32;stroke-dashoffset:0;stroke-width:2.7;"/>
   </g>
   <g id="line2d_51">
    <path clip-path="url(#pd981efcf63)" style="fill:none;stroke:#8c564b;stroke-linecap:square;stroke-width:2.7;"/>
   </g>
   <g id="line2d_52">
    <path clip-path="url(#pd981efcf63)" style="fill:none;stroke:#8c564b;stroke-linecap:square;stroke-width:2.7;"/>
   </g>
   <g id="line2d_53">
    <path clip-path="url(#pd981efcf63)" style="fill:none;stroke:#8c564b;stroke-linecap:square;stroke-width:2.7;"/>
   </g>
   <g id="PathCollection_19">
    <defs>
     <path d="M 0 3.383948 
C 0.897434 3.383948 1.758231 3.027394 2.392813 2.392813 
C 3.027394 1.758231 3.383948 0.897434 3.383948 0 
C 3.383948 -0.897434 3.027394 -1.758231 2.392813 -2.392813 
C 1.758231 -3.027394 0.897434 -3.383948 0 -3.383948 
C -0.897434 -3.383948 -1.758231 -3.027394 -2.392813 -2.392813 
C -3.027394 -1.758231 -3.383948 -0.897434 -3.383948 0 
C -3.383948 0.897434 -3.027394 1.758231 -2.392813 2.392813 
C -1.758231 3.027394 -0.897434 3.383948 0 3.383948 
z
" id="C6_0_a4a7f1110d"/>
    </defs>
    <g clip-path="url(#pd981efcf63)">
     <use style="fill:#e377c2;stroke:#e377c2;stroke-width:2.025;" x="170.105" xlink:href="#C6_0_a4a7f1110d" y="383.098561"/>
    </g>
    <g clip-path="url(#pd981efcf63)">
     <use style="fill:#e377c2;stroke:#e377c2;stroke-width:2.025;" x="356.105" xlink:href="#C6_0_a4a7f1110d" y="415.679767"/>
    </g>
    <g clip-path="url(#pd981efcf63)">
     <use style="fill:#e377c2;stroke:#e377c2;stroke-width:2.025;" x="542.105" xlink:href="#C6_0_a4a7f1110d" y="431.945725"/>
    </g>
   </g>
   <g id="line2d_54">
    <path clip-path="url(#pd981efcf63)" d="M 170.105 383.098561 
L 356.105 415.679767 
L 542.105 431.945725 
" style="fill:none;stroke:#e377c2;stroke-dasharray:9.99,4.32;stroke-dashoffset:0;stroke-width:2.7;"/>
   </g>
   <g id="line2d_55">
    <path clip-path="url(#pd981efcf63)" style="fill:none;stroke:#e377c2;stroke-linecap:square;stroke-width:2.7;"/>
   </g>
   <g id="line2d_56">
    <path clip-path="url(#pd981efcf63)" style="fill:none;stroke:#e377c2;stroke-linecap:square;stroke-width:2.7;"/>
   </g>
   <g id="line2d_57">
    <path clip-path="url(#pd981efcf63)" style="fill:none;stroke:#e377c2;stroke-linecap:square;stroke-width:2.7;"/>
   </g>
   <g id="PathCollection_20">
    <defs>
     <path d="M 0 3.383948 
C 0.897434 3.383948 1.758231 3.027394 2.392813 2.392813 
C 3.027394 1.758231 3.383948 0.897434 3.383948 0 
C 3.383948 -0.897434 3.027394 -1.758231 2.392813 -2.392813 
C 1.758231 -3.027394 0.897434 -3.383948 0 -3.383948 
C -0.897434 -3.383948 -1.758231 -3.027394 -2.392813 -2.392813 
C -3.027394 -1.758231 -3.383948 -0.897434 -3.383948 0 
C -3.383948 0.897434 -3.027394 1.758231 -2.392813 2.392813 
C -1.758231 3.027394 -0.897434 3.383948 0 3.383948 
z
" id="C7_0_84f2f0a76c"/>
    </defs>
    <g clip-path="url(#pd981efcf63)">
     <use style="fill:#7f7f7f;stroke:#7f7f7f;stroke-width:2.025;" x="170.105" xlink:href="#C7_0_84f2f0a76c" y="323.736856"/>
    </g>
    <g clip-path="url(#pd981efcf63)">
     <use style="fill:#7f7f7f;stroke:#7f7f7f;stroke-width:2.025;" x="356.105" xlink:href="#C7_0_84f2f0a76c" y="382.259346"/>
    </g>
    <g clip-path="url(#pd981efcf63)">
     <use style="fill:#7f7f7f;stroke:#7f7f7f;stroke-width:2.025;" x="542.105" xlink:href="#C7_0_84f2f0a76c" y="418.286704"/>
    </g>
   </g>
   <g id="line2d_58">
    <path clip-path="url(#pd981efcf63)" d="M 170.105 323.736856 
L 356.105 382.259346 
L 542.105 418.286704 
" style="fill:none;stroke:#7f7f7f;stroke-dasharray:9.99,4.32;stroke-dashoffset:0;stroke-width:2.7;"/>
   </g>
   <g id="line2d_59">
    <path clip-path="url(#pd981efcf63)" style="fill:none;stroke:#7f7f7f;stroke-linecap:square;stroke-width:2.7;"/>
   </g>
   <g id="line2d_60">
    <path clip-path="url(#pd981efcf63)" style="fill:none;stroke:#7f7f7f;stroke-linecap:square;stroke-width:2.7;"/>
   </g>
   <g id="line2d_61">
    <path clip-path="url(#pd981efcf63)" style="fill:none;stroke:#7f7f7f;stroke-linecap:square;stroke-width:2.7;"/>
   </g>
   <g id="PathCollection_21">
    <defs>
     <path d="M 0 3.383948 
C 0.897434 3.383948 1.758231 3.027394 2.392813 2.392813 
C 3.027394 1.758231 3.383948 0.897434 3.383948 0 
C 3.383948 -0.897434 3.027394 -1.758231 2.392813 -2.392813 
C 1.758231 -3.027394 0.897434 -3.383948 0 -3.383948 
C -0.897434 -3.383948 -1.758231 -3.027394 -2.392813 -2.392813 
C -3.027394 -1.758231 -3.383948 -0.897434 -3.383948 0 
C -3.383948 0.897434 -3.027394 1.758231 -2.392813 2.392813 
C -1.758231 3.027394 -0.897434 3.383948 0 3.383948 
z
" id="C8_0_a649d30738"/>
    </defs>
    <g clip-path="url(#pd981efcf63)">
     <use style="fill:#bcbd22;stroke:#bcbd22;stroke-width:2.025;" x="170.105" xlink:href="#C8_0_a649d30738" y="312.667543"/>
    </g>
    <g clip-path="url(#pd981efcf63)">
     <use style="fill:#bcbd22;stroke:#bcbd22;stroke-width:2.025;" x="356.105" xlink:href="#C8_0_a649d30738" y="304.717885"/>
    </g>
    <g clip-path="url(#pd981efcf63)">
     <use style="fill:#bcbd22;stroke:#bcbd22;stroke-width:2.025;" x="542.105" xlink:href="#C8_0_a649d30738" y="381.343758"/>
    </g>
   </g>
   <g id="line2d_62">
    <path clip-path="url(#pd981efcf63)" d="M 170.105 312.667543 
L 356.105 304.717885 
L 542.105 381.343758 
" style="fill:none;stroke:#bcbd22;stroke-dasharray:9.99,4.32;stroke-dashoffset:0;stroke-width:2.7;"/>
   </g>
   <g id="line2d_63">
    <path clip-path="url(#pd981efcf63)" style="fill:none;stroke:#bcbd22;stroke-linecap:square;stroke-width:2.7;"/>
   </g>
   <g id="line2d_64">
    <path clip-path="url(#pd981efcf63)" style="fill:none;stroke:#bcbd22;stroke-linecap:square;stroke-width:2.7;"/>
   </g>
   <g id="line2d_65">
    <path clip-path="url(#pd981efcf63)" style="fill:none;stroke:#bcbd22;stroke-linecap:square;stroke-width:2.7;"/>
   </g>
   <g id="PathCollection_22">
    <defs>
     <path d="M 0 3.383948 
C 0.897434 3.383948 1.758231 3.027394 2.392813 2.392813 
C 3.027394 1.758231 3.383948 0.897434 3.383948 0 
C 3.383948 -0.897434 3.027394 -1.758231 2.392813 -2.392813 
C 1.758231 -3.027394 0.897434 -3.383948 0 -3.383948 
C -0.897434 -3.383948 -1.758231 -3.027394 -2.392813 -2.392813 
C -3.027394 -1.758231 -3.383948 -0.897434 -3.383948 0 
C -3.383948 0.897434 -3.027394 1.758231 -2.392813 2.392813 
C -1.758231 3.027394 -0.897434 3.383948 0 3.383948 
z
" id="C9_0_c95f578f9c"/>
    </defs>
    <g clip-path="url(#pd981efcf63)">
     <use style="fill:#17becf;stroke:#17becf;stroke-width:2.025;" x="170.105" xlink:href="#C9_0_c95f578f9c" y="387.718854"/>
    </g>
    <g clip-path="url(#pd981efcf63)">
     <use style="fill:#17becf;stroke:#17becf;stroke-width:2.025;" x="356.105" xlink:href="#C9_0_c95f578f9c" y="425.836628"/>
    </g>
    <g clip-path="url(#pd981efcf63)">
     <use style="fill:#17becf;stroke:#17becf;stroke-width:2.025;" x="542.105" xlink:href="#C9_0_c95f578f9c" y="456.737929"/>
    </g>
   </g>
   <g id="line2d_66">
    <path clip-path="url(#pd981efcf63)" d="M 170.105 387.718854 
L 356.105 425.836628 
L 542.105 456.737929 
" style="fill:none;stroke:#17becf;stroke-dasharray:9.99,4.32;stroke-dashoffset:0;stroke-width:2.7;"/>
   </g>
   <g id="line2d_67">
    <path clip-path="url(#pd981efcf63)" style="fill:none;stroke:#17becf;stroke-linecap:square;stroke-width:2.7;"/>
   </g>
   <g id="line2d_68">
    <path clip-path="url(#pd981efcf63)" style="fill:none;stroke:#17becf;stroke-linecap:square;stroke-width:2.7;"/>
   </g>
   <g id="line2d_69">
    <path clip-path="url(#pd981efcf63)" style="fill:none;stroke:#17becf;stroke-linecap:square;stroke-width:2.7;"/>
   </g>
  </g>
 </g>
 <defs>
  <clipPath id="pd981efcf63">
   <rect height="407.7" width="558" x="77.105" y="69.827812"/>
  </clipPath>
 </defs>
</svg>
