<?xml version="1.0" encoding="utf-8" standalone="no"?>
<!DOCTYPE svg PUBLIC "-//W3C//DTD SVG 1.1//EN"
  "http://www.w3.org/Graphics/SVG/1.1/DTD/svg11.dtd">
<svg height="467.698833pt" version="1.1" viewBox="0 0 468.987188 467.698833" width="468.987188pt" xmlns="http://www.w3.org/2000/svg" xmlns:xlink="http://www.w3.org/1999/xlink">
 <metadata>
  <rdf:RDF xmlns:cc="http://creativecommons.org/ns#" xmlns:dc="http://purl.org/dc/elements/1.1/" xmlns:rdf="http://www.w3.org/1999/02/22-rdf-syntax-ns#">
   <cc:Work>
    <dc:type rdf:resource="http://purl.org/dc/dcmitype/StillImage"/>
    <dc:date>2021-10-08T09:55:49.495265</dc:date>
    <dc:format>image/svg+xml</dc:format>
    <dc:creator>
     <cc:Agent>
      <dc:title>Matplotlib v3.4.1, https://matplotlib.org/</dc:title>
     </cc:Agent>
    </dc:creator>
   </cc:Work>
  </rdf:RDF>
 </metadata>
 <defs>
  <style type="text/css">*{stroke-linecap:butt;stroke-linejoin:round;}</style>
 </defs>
 <g id="figure_1">
  <g id="patch_1">
   <path d="M 0 467.698833 
L 468.987188 467.698833 
L 468.987188 0 
L 0 0 
z
" style="fill:none;"/>
  </g>
  <g id="axes_1">
   <g id="patch_2">
    <path d="M 38.70625 214.353948 
L 206.33125 214.353948 
L 206.33125 21.935625 
L 38.70625 21.935625 
z
" style="fill:#ffffff;"/>
   </g>
   <g id="PolyCollection_1">
    <defs>
     <path d="M 46.325568 -347.448607 
L 46.325568 -334.431478 
L 71.723295 -325.972461 
L 97.121023 -315.705004 
L 122.51875 -313.071536 
L 147.916477 -308.062346 
L 173.314205 -301.6084 
L 198.711932 -302.004861 
L 198.711932 -309.850669 
L 198.711932 -309.850669 
L 173.314205 -306.671723 
L 147.916477 -314.552043 
L 122.51875 -318.783443 
L 97.121023 -327.066496 
L 71.723295 -337.424806 
L 46.325568 -347.448607 
z
" id="m3eeb289278" style="stroke:#0173b2;stroke-opacity:0.2;"/>
    </defs>
    <g clip-path="url(#p949dca5c53)">
     <use style="fill:#0173b2;fill-opacity:0.2;stroke:#0173b2;stroke-opacity:0.2;" x="0" xlink:href="#m3eeb289278" y="467.698833"/>
    </g>
   </g>
   <g id="PolyCollection_2">
    <defs>
     <path d="M 46.325568 -347.146479 
L 46.325568 -332.047056 
L 71.723295 -324.754809 
L 97.121023 -322.744041 
L 122.51875 -318.629059 
L 147.916477 -316.574391 
L 173.314205 -310.339568 
L 198.711932 -309.890637 
L 198.711932 -312.716511 
L 198.711932 -312.716511 
L 173.314205 -315.031221 
L 147.916477 -321.913564 
L 122.51875 -325.161751 
L 97.121023 -326.444024 
L 71.723295 -342.099251 
L 46.325568 -347.146479 
z
" id="mece7b74eb9" style="stroke:#de8f05;stroke-opacity:0.2;"/>
    </defs>
    <g clip-path="url(#p949dca5c53)">
     <use style="fill:#de8f05;fill-opacity:0.2;stroke:#de8f05;stroke-opacity:0.2;" x="0" xlink:href="#mece7b74eb9" y="467.698833"/>
    </g>
   </g>
   <g id="PolyCollection_3">
    <defs>
     <path d="M 46.325568 -332.198127 
L 46.325568 -317.724256 
L 71.723295 -315.78682 
L 97.121023 -312.058551 
L 122.51875 -308.256589 
L 147.916477 -307.784359 
L 173.314205 -300.685696 
L 198.711932 -300.175938 
L 198.711932 -302.505816 
L 198.711932 -302.505816 
L 173.314205 -303.91404 
L 147.916477 -309.836359 
L 122.51875 -314.117955 
L 97.121023 -316.374178 
L 71.723295 -322.569032 
L 46.325568 -332.198127 
z
" id="m50666389a0" style="stroke:#029e73;stroke-opacity:0.2;"/>
    </defs>
    <g clip-path="url(#p949dca5c53)">
     <use style="fill:#029e73;fill-opacity:0.2;stroke:#029e73;stroke-opacity:0.2;" x="0" xlink:href="#m50666389a0" y="467.698833"/>
    </g>
   </g>
   <g id="PolyCollection_4">
    <defs>
     <path d="M 46.325568 -361.495886 
L 46.325568 -313.145969 
L 71.723295 -315.886629 
L 97.121023 -311.796564 
L 122.51875 -310.622978 
L 147.916477 -306.469025 
L 173.314205 -301.757782 
L 198.711932 -300.290853 
L 198.711932 -303.838252 
L 198.711932 -303.838252 
L 173.314205 -303.630676 
L 147.916477 -310.411791 
L 122.51875 -313.921061 
L 97.121023 -315.566177 
L 71.723295 -326.231603 
L 46.325568 -361.495886 
z
" id="m995aab74cb" style="stroke:#d55e00;stroke-opacity:0.2;"/>
    </defs>
    <g clip-path="url(#p949dca5c53)">
     <use style="fill:#d55e00;fill-opacity:0.2;stroke:#d55e00;stroke-opacity:0.2;" x="0" xlink:href="#m995aab74cb" y="467.698833"/>
    </g>
   </g>
   <g id="PolyCollection_5">
    <defs>
     <path d="M 46.325568 -390.189446 
L 46.325568 -322.303682 
L 71.723295 -326.533752 
L 97.121023 -282.200915 
L 122.51875 -302.902045 
L 147.916477 -301.59957 
L 173.314205 -296.280489 
L 198.711932 -295.803499 
L 198.711932 -300.369437 
L 198.711932 -300.369437 
L 173.314205 -299.488371 
L 147.916477 -320.576639 
L 122.51875 -334.414007 
L 97.121023 -423.25763 
L 71.723295 -355.758881 
L 46.325568 -390.189446 
z
" id="mf0be64395b" style="stroke:#cc78bc;stroke-opacity:0.2;"/>
    </defs>
    <g clip-path="url(#p949dca5c53)">
     <use style="fill:#cc78bc;fill-opacity:0.2;stroke:#cc78bc;stroke-opacity:0.2;" x="0" xlink:href="#mf0be64395b" y="467.698833"/>
    </g>
   </g>
   <g id="PolyCollection_6">
    <defs>
     <path d="M 46.325568 -365.601921 
L 46.325568 -334.302533 
L 71.723295 -324.947498 
L 97.121023 -319.746248 
L 122.51875 -311.466758 
L 147.916477 -307.320546 
L 173.314205 -298.354841 
L 198.711932 -297.004953 
L 198.711932 -304.688844 
L 198.711932 -304.688844 
L 173.314205 -307.138883 
L 147.916477 -320.523428 
L 122.51875 -321.120138 
L 97.121023 -328.154677 
L 71.723295 -344.643194 
L 46.325568 -365.601921 
z
" id="mebb429e01b" style="stroke:#ca9161;stroke-opacity:0.2;"/>
    </defs>
    <g clip-path="url(#p949dca5c53)">
     <use style="fill:#ca9161;fill-opacity:0.2;stroke:#ca9161;stroke-opacity:0.2;" x="0" xlink:href="#mebb429e01b" y="467.698833"/>
    </g>
   </g>
   <g id="PolyCollection_7">
    <defs>
     <path d="M 46.325568 -387.605502 
L 46.325568 -354.215913 
L 71.723295 -343.111249 
L 97.121023 -331.213835 
L 122.51875 -325.45979 
L 147.916477 -321.541492 
L 173.314205 -305.731494 
L 198.711932 -304.357586 
L 198.711932 -314.021318 
L 198.711932 -314.021318 
L 173.314205 -317.331238 
L 147.916477 -332.293732 
L 122.51875 -331.979051 
L 97.121023 -348.068658 
L 71.723295 -381.041344 
L 46.325568 -387.605502 
z
" id="m8f8f9fc0a4" style="stroke:#fbafe4;stroke-opacity:0.2;"/>
    </defs>
    <g clip-path="url(#p949dca5c53)">
     <use style="fill:#fbafe4;fill-opacity:0.2;stroke:#fbafe4;stroke-opacity:0.2;" x="0" xlink:href="#m8f8f9fc0a4" y="467.698833"/>
    </g>
   </g>
   <g id="PolyCollection_8">
    <defs>
     <path d="M 46.325568 -353.224989 
L 46.325568 -325.750464 
L 71.723295 -324.630405 
L 97.121023 -311.739248 
L 122.51875 -308.485996 
L 147.916477 -306.19682 
L 173.314205 -298.960108 
L 198.711932 -296.485572 
L 198.711932 -300.58085 
L 198.711932 -300.58085 
L 173.314205 -302.349013 
L 147.916477 -314.741236 
L 122.51875 -318.42766 
L 97.121023 -321.428259 
L 71.723295 -340.112242 
L 46.325568 -353.224989 
z
" id="mc779852d34" style="stroke:#949494;stroke-opacity:0.2;"/>
    </defs>
    <g clip-path="url(#p949dca5c53)">
     <use style="fill:#949494;fill-opacity:0.2;stroke:#949494;stroke-opacity:0.2;" x="0" xlink:href="#mc779852d34" y="467.698833"/>
    </g>
   </g>
   <g id="matplotlib.axis_1">
    <g id="xtick_1">
     <g id="line2d_1">
      <defs>
       <path d="M 0 0 
L 0 3.5 
" id="m9c6f14e88f" style="stroke:#000000;stroke-width:0.8;"/>
      </defs>
      <g>
       <use style="stroke:#000000;stroke-width:0.8;" x="46.325568" xlink:href="#m9c6f14e88f" y="214.353948"/>
      </g>
     </g>
    </g>
    <g id="xtick_2">
     <g id="line2d_2">
      <g>
       <use style="stroke:#000000;stroke-width:0.8;" x="71.723295" xlink:href="#m9c6f14e88f" y="214.353948"/>
      </g>
     </g>
    </g>
    <g id="xtick_3">
     <g id="line2d_3">
      <g>
       <use style="stroke:#000000;stroke-width:0.8;" x="97.121023" xlink:href="#m9c6f14e88f" y="214.353948"/>
      </g>
     </g>
    </g>
    <g id="xtick_4">
     <g id="line2d_4">
      <g>
       <use style="stroke:#000000;stroke-width:0.8;" x="122.51875" xlink:href="#m9c6f14e88f" y="214.353948"/>
      </g>
     </g>
    </g>
    <g id="xtick_5">
     <g id="line2d_5">
      <g>
       <use style="stroke:#000000;stroke-width:0.8;" x="147.916477" xlink:href="#m9c6f14e88f" y="214.353948"/>
      </g>
     </g>
    </g>
    <g id="xtick_6">
     <g id="line2d_6">
      <g>
       <use style="stroke:#000000;stroke-width:0.8;" x="173.314205" xlink:href="#m9c6f14e88f" y="214.353948"/>
      </g>
     </g>
    </g>
    <g id="xtick_7">
     <g id="line2d_7">
      <g>
       <use style="stroke:#000000;stroke-width:0.8;" x="198.711932" xlink:href="#m9c6f14e88f" y="214.353948"/>
      </g>
     </g>
    </g>
   </g>
   <g id="matplotlib.axis_2">
    <g id="ytick_1">
     <g id="line2d_8">
      <defs>
       <path d="M 0 0 
L -3.5 0 
" id="mb6175b138b" style="stroke:#000000;stroke-width:0.8;"/>
      </defs>
      <g>
       <use style="stroke:#000000;stroke-width:0.8;" x="38.70625" xlink:href="#mb6175b138b" y="214.353948"/>
      </g>
     </g>
     <g id="text_1">
      <!-- 0 -->
      <g transform="translate(26.145313 217.932854)scale(0.1 -0.1)">
       <defs>
        <path d="M 266 2259 
Q 266 3072 433 3567 
Q 600 4063 929 4331 
Q 1259 4600 1759 4600 
Q 2128 4600 2406 4451 
Q 2684 4303 2865 4023 
Q 3047 3744 3150 3342 
Q 3253 2941 3253 2259 
Q 3253 1453 3087 958 
Q 2922 463 2592 192 
Q 2263 -78 1759 -78 
Q 1097 -78 719 397 
Q 266 969 266 2259 
z
M 844 2259 
Q 844 1131 1108 757 
Q 1372 384 1759 384 
Q 2147 384 2411 759 
Q 2675 1134 2675 2259 
Q 2675 3391 2411 3762 
Q 2147 4134 1753 4134 
Q 1366 4134 1134 3806 
Q 844 3388 844 2259 
z
" id="ArialMT-30" transform="scale(0.015625)"/>
       </defs>
       <use xlink:href="#ArialMT-30"/>
      </g>
     </g>
    </g>
    <g id="ytick_2">
     <g id="line2d_9">
      <g>
       <use style="stroke:#000000;stroke-width:0.8;" x="38.70625" xlink:href="#mb6175b138b" y="182.284227"/>
      </g>
     </g>
     <g id="text_2">
      <!-- 1 -->
      <g transform="translate(26.145313 185.863133)scale(0.1 -0.1)">
       <defs>
        <path d="M 2384 0 
L 1822 0 
L 1822 3584 
Q 1619 3391 1289 3197 
Q 959 3003 697 2906 
L 697 3450 
Q 1169 3672 1522 3987 
Q 1875 4303 2022 4600 
L 2384 4600 
L 2384 0 
z
" id="ArialMT-31" transform="scale(0.015625)"/>
       </defs>
       <use xlink:href="#ArialMT-31"/>
      </g>
     </g>
    </g>
    <g id="ytick_3">
     <g id="line2d_10">
      <g>
       <use style="stroke:#000000;stroke-width:0.8;" x="38.70625" xlink:href="#mb6175b138b" y="150.214507"/>
      </g>
     </g>
     <g id="text_3">
      <!-- 2 -->
      <g transform="translate(26.145313 153.793413)scale(0.1 -0.1)">
       <defs>
        <path d="M 3222 541 
L 3222 0 
L 194 0 
Q 188 203 259 391 
Q 375 700 629 1000 
Q 884 1300 1366 1694 
Q 2113 2306 2375 2664 
Q 2638 3022 2638 3341 
Q 2638 3675 2398 3904 
Q 2159 4134 1775 4134 
Q 1369 4134 1125 3890 
Q 881 3647 878 3216 
L 300 3275 
Q 359 3922 746 4261 
Q 1134 4600 1788 4600 
Q 2447 4600 2831 4234 
Q 3216 3869 3216 3328 
Q 3216 3053 3103 2787 
Q 2991 2522 2730 2228 
Q 2469 1934 1863 1422 
Q 1356 997 1212 845 
Q 1069 694 975 541 
L 3222 541 
z
" id="ArialMT-32" transform="scale(0.015625)"/>
       </defs>
       <use xlink:href="#ArialMT-32"/>
      </g>
     </g>
    </g>
    <g id="ytick_4">
     <g id="line2d_11">
      <g>
       <use style="stroke:#000000;stroke-width:0.8;" x="38.70625" xlink:href="#mb6175b138b" y="118.144786"/>
      </g>
     </g>
     <g id="text_4">
      <!-- 3 -->
      <g transform="translate(26.145313 121.723693)scale(0.1 -0.1)">
       <defs>
        <path d="M 269 1209 
L 831 1284 
Q 928 806 1161 595 
Q 1394 384 1728 384 
Q 2125 384 2398 659 
Q 2672 934 2672 1341 
Q 2672 1728 2419 1979 
Q 2166 2231 1775 2231 
Q 1616 2231 1378 2169 
L 1441 2663 
Q 1497 2656 1531 2656 
Q 1891 2656 2178 2843 
Q 2466 3031 2466 3422 
Q 2466 3731 2256 3934 
Q 2047 4138 1716 4138 
Q 1388 4138 1169 3931 
Q 950 3725 888 3313 
L 325 3413 
Q 428 3978 793 4289 
Q 1159 4600 1703 4600 
Q 2078 4600 2393 4439 
Q 2709 4278 2876 4000 
Q 3044 3722 3044 3409 
Q 3044 3113 2884 2869 
Q 2725 2625 2413 2481 
Q 2819 2388 3044 2092 
Q 3269 1797 3269 1353 
Q 3269 753 2831 336 
Q 2394 -81 1725 -81 
Q 1122 -81 723 278 
Q 325 638 269 1209 
z
" id="ArialMT-33" transform="scale(0.015625)"/>
       </defs>
       <use xlink:href="#ArialMT-33"/>
      </g>
     </g>
    </g>
    <g id="ytick_5">
     <g id="line2d_12">
      <g>
       <use style="stroke:#000000;stroke-width:0.8;" x="38.70625" xlink:href="#mb6175b138b" y="86.075066"/>
      </g>
     </g>
     <g id="text_5">
      <!-- 4 -->
      <g transform="translate(26.145313 89.653972)scale(0.1 -0.1)">
       <defs>
        <path d="M 2069 0 
L 2069 1097 
L 81 1097 
L 81 1613 
L 2172 4581 
L 2631 4581 
L 2631 1613 
L 3250 1613 
L 3250 1097 
L 2631 1097 
L 2631 0 
L 2069 0 
z
M 2069 1613 
L 2069 3678 
L 634 1613 
L 2069 1613 
z
" id="ArialMT-34" transform="scale(0.015625)"/>
       </defs>
       <use xlink:href="#ArialMT-34"/>
      </g>
     </g>
    </g>
    <g id="ytick_6">
     <g id="line2d_13">
      <g>
       <use style="stroke:#000000;stroke-width:0.8;" x="38.70625" xlink:href="#mb6175b138b" y="54.005345"/>
      </g>
     </g>
     <g id="text_6">
      <!-- 5 -->
      <g transform="translate(26.145313 57.584252)scale(0.1 -0.1)">
       <defs>
        <path d="M 266 1200 
L 856 1250 
Q 922 819 1161 601 
Q 1400 384 1738 384 
Q 2144 384 2425 690 
Q 2706 997 2706 1503 
Q 2706 1984 2436 2262 
Q 2166 2541 1728 2541 
Q 1456 2541 1237 2417 
Q 1019 2294 894 2097 
L 366 2166 
L 809 4519 
L 3088 4519 
L 3088 3981 
L 1259 3981 
L 1013 2750 
Q 1425 3038 1878 3038 
Q 2478 3038 2890 2622 
Q 3303 2206 3303 1553 
Q 3303 931 2941 478 
Q 2500 -78 1738 -78 
Q 1113 -78 717 272 
Q 322 622 266 1200 
z
" id="ArialMT-35" transform="scale(0.015625)"/>
       </defs>
       <use xlink:href="#ArialMT-35"/>
      </g>
     </g>
    </g>
    <g id="ytick_7">
     <g id="line2d_14">
      <g>
       <use style="stroke:#000000;stroke-width:0.8;" x="38.70625" xlink:href="#mb6175b138b" y="21.935625"/>
      </g>
     </g>
     <g id="text_7">
      <!-- 6 -->
      <g transform="translate(26.145313 25.514531)scale(0.1 -0.1)">
       <defs>
        <path d="M 3184 3459 
L 2625 3416 
Q 2550 3747 2413 3897 
Q 2184 4138 1850 4138 
Q 1581 4138 1378 3988 
Q 1113 3794 959 3422 
Q 806 3050 800 2363 
Q 1003 2672 1297 2822 
Q 1591 2972 1913 2972 
Q 2475 2972 2870 2558 
Q 3266 2144 3266 1488 
Q 3266 1056 3080 686 
Q 2894 316 2569 119 
Q 2244 -78 1831 -78 
Q 1128 -78 684 439 
Q 241 956 241 2144 
Q 241 3472 731 4075 
Q 1159 4600 1884 4600 
Q 2425 4600 2770 4297 
Q 3116 3994 3184 3459 
z
M 888 1484 
Q 888 1194 1011 928 
Q 1134 663 1356 523 
Q 1578 384 1822 384 
Q 2178 384 2434 671 
Q 2691 959 2691 1453 
Q 2691 1928 2437 2201 
Q 2184 2475 1800 2475 
Q 1419 2475 1153 2201 
Q 888 1928 888 1484 
z
" id="ArialMT-36" transform="scale(0.015625)"/>
       </defs>
       <use xlink:href="#ArialMT-36"/>
      </g>
     </g>
    </g>
    <g id="text_8">
     <!-- Frame error (%) -->
     <g transform="translate(20.040625 153.698693)rotate(-90)scale(0.1 -0.1)">
      <defs>
       <path d="M 525 0 
L 525 4581 
L 3616 4581 
L 3616 4041 
L 1131 4041 
L 1131 2622 
L 3281 2622 
L 3281 2081 
L 1131 2081 
L 1131 0 
L 525 0 
z
" id="ArialMT-46" transform="scale(0.015625)"/>
       <path d="M 416 0 
L 416 3319 
L 922 3319 
L 922 2816 
Q 1116 3169 1280 3281 
Q 1444 3394 1641 3394 
Q 1925 3394 2219 3213 
L 2025 2691 
Q 1819 2813 1613 2813 
Q 1428 2813 1281 2702 
Q 1134 2591 1072 2394 
Q 978 2094 978 1738 
L 978 0 
L 416 0 
z
" id="ArialMT-72" transform="scale(0.015625)"/>
       <path d="M 2588 409 
Q 2275 144 1986 34 
Q 1697 -75 1366 -75 
Q 819 -75 525 192 
Q 231 459 231 875 
Q 231 1119 342 1320 
Q 453 1522 633 1644 
Q 813 1766 1038 1828 
Q 1203 1872 1538 1913 
Q 2219 1994 2541 2106 
Q 2544 2222 2544 2253 
Q 2544 2597 2384 2738 
Q 2169 2928 1744 2928 
Q 1347 2928 1158 2789 
Q 969 2650 878 2297 
L 328 2372 
Q 403 2725 575 2942 
Q 747 3159 1072 3276 
Q 1397 3394 1825 3394 
Q 2250 3394 2515 3294 
Q 2781 3194 2906 3042 
Q 3031 2891 3081 2659 
Q 3109 2516 3109 2141 
L 3109 1391 
Q 3109 606 3145 398 
Q 3181 191 3288 0 
L 2700 0 
Q 2613 175 2588 409 
z
M 2541 1666 
Q 2234 1541 1622 1453 
Q 1275 1403 1131 1340 
Q 988 1278 909 1158 
Q 831 1038 831 891 
Q 831 666 1001 516 
Q 1172 366 1500 366 
Q 1825 366 2078 508 
Q 2331 650 2450 897 
Q 2541 1088 2541 1459 
L 2541 1666 
z
" id="ArialMT-61" transform="scale(0.015625)"/>
       <path d="M 422 0 
L 422 3319 
L 925 3319 
L 925 2853 
Q 1081 3097 1340 3245 
Q 1600 3394 1931 3394 
Q 2300 3394 2536 3241 
Q 2772 3088 2869 2813 
Q 3263 3394 3894 3394 
Q 4388 3394 4653 3120 
Q 4919 2847 4919 2278 
L 4919 0 
L 4359 0 
L 4359 2091 
Q 4359 2428 4304 2576 
Q 4250 2725 4106 2815 
Q 3963 2906 3769 2906 
Q 3419 2906 3187 2673 
Q 2956 2441 2956 1928 
L 2956 0 
L 2394 0 
L 2394 2156 
Q 2394 2531 2256 2718 
Q 2119 2906 1806 2906 
Q 1569 2906 1367 2781 
Q 1166 2656 1075 2415 
Q 984 2175 984 1722 
L 984 0 
L 422 0 
z
" id="ArialMT-6d" transform="scale(0.015625)"/>
       <path d="M 2694 1069 
L 3275 997 
Q 3138 488 2766 206 
Q 2394 -75 1816 -75 
Q 1088 -75 661 373 
Q 234 822 234 1631 
Q 234 2469 665 2931 
Q 1097 3394 1784 3394 
Q 2450 3394 2872 2941 
Q 3294 2488 3294 1666 
Q 3294 1616 3291 1516 
L 816 1516 
Q 847 969 1125 678 
Q 1403 388 1819 388 
Q 2128 388 2347 550 
Q 2566 713 2694 1069 
z
M 847 1978 
L 2700 1978 
Q 2663 2397 2488 2606 
Q 2219 2931 1791 2931 
Q 1403 2931 1139 2672 
Q 875 2413 847 1978 
z
" id="ArialMT-65" transform="scale(0.015625)"/>
       <path id="ArialMT-20" transform="scale(0.015625)"/>
       <path d="M 213 1659 
Q 213 2581 725 3025 
Q 1153 3394 1769 3394 
Q 2453 3394 2887 2945 
Q 3322 2497 3322 1706 
Q 3322 1066 3130 698 
Q 2938 331 2570 128 
Q 2203 -75 1769 -75 
Q 1072 -75 642 372 
Q 213 819 213 1659 
z
M 791 1659 
Q 791 1022 1069 705 
Q 1347 388 1769 388 
Q 2188 388 2466 706 
Q 2744 1025 2744 1678 
Q 2744 2294 2464 2611 
Q 2184 2928 1769 2928 
Q 1347 2928 1069 2612 
Q 791 2297 791 1659 
z
" id="ArialMT-6f" transform="scale(0.015625)"/>
       <path d="M 1497 -1347 
Q 1031 -759 709 28 
Q 388 816 388 1659 
Q 388 2403 628 3084 
Q 909 3875 1497 4659 
L 1900 4659 
Q 1522 4009 1400 3731 
Q 1209 3300 1100 2831 
Q 966 2247 966 1656 
Q 966 153 1900 -1347 
L 1497 -1347 
z
" id="ArialMT-28" transform="scale(0.015625)"/>
       <path d="M 372 3481 
Q 372 3972 619 4315 
Q 866 4659 1334 4659 
Q 1766 4659 2048 4351 
Q 2331 4044 2331 3447 
Q 2331 2866 2045 2552 
Q 1759 2238 1341 2238 
Q 925 2238 648 2547 
Q 372 2856 372 3481 
z
M 1350 4272 
Q 1141 4272 1002 4090 
Q 863 3909 863 3425 
Q 863 2984 1003 2804 
Q 1144 2625 1350 2625 
Q 1563 2625 1702 2806 
Q 1841 2988 1841 3469 
Q 1841 3913 1700 4092 
Q 1559 4272 1350 4272 
z
M 1353 -169 
L 3859 4659 
L 4316 4659 
L 1819 -169 
L 1353 -169 
z
M 3334 1075 
Q 3334 1569 3581 1911 
Q 3828 2253 4300 2253 
Q 4731 2253 5014 1945 
Q 5297 1638 5297 1041 
Q 5297 459 5011 145 
Q 4725 -169 4303 -169 
Q 3888 -169 3611 142 
Q 3334 453 3334 1075 
z
M 4316 1866 
Q 4103 1866 3964 1684 
Q 3825 1503 3825 1019 
Q 3825 581 3965 400 
Q 4106 219 4313 219 
Q 4528 219 4667 400 
Q 4806 581 4806 1063 
Q 4806 1506 4665 1686 
Q 4525 1866 4316 1866 
z
" id="ArialMT-25" transform="scale(0.015625)"/>
       <path d="M 791 -1347 
L 388 -1347 
Q 1322 153 1322 1656 
Q 1322 2244 1188 2822 
Q 1081 3291 891 3722 
Q 769 4003 388 4659 
L 791 4659 
Q 1378 3875 1659 3084 
Q 1900 2403 1900 1659 
Q 1900 816 1576 28 
Q 1253 -759 791 -1347 
z
" id="ArialMT-29" transform="scale(0.015625)"/>
      </defs>
      <use xlink:href="#ArialMT-46"/>
      <use x="61.083984" xlink:href="#ArialMT-72"/>
      <use x="94.384766" xlink:href="#ArialMT-61"/>
      <use x="150" xlink:href="#ArialMT-6d"/>
      <use x="233.300781" xlink:href="#ArialMT-65"/>
      <use x="288.916016" xlink:href="#ArialMT-20"/>
      <use x="316.699219" xlink:href="#ArialMT-65"/>
      <use x="372.314453" xlink:href="#ArialMT-72"/>
      <use x="405.615234" xlink:href="#ArialMT-72"/>
      <use x="438.916016" xlink:href="#ArialMT-6f"/>
      <use x="494.53125" xlink:href="#ArialMT-72"/>
      <use x="527.832031" xlink:href="#ArialMT-20"/>
      <use x="555.615234" xlink:href="#ArialMT-28"/>
      <use x="588.916016" xlink:href="#ArialMT-25"/>
      <use x="677.832031" xlink:href="#ArialMT-29"/>
     </g>
    </g>
   </g>
   <g id="line2d_15">
    <path clip-path="url(#p949dca5c53)" d="M 46.325568 126.75879 
L 71.723295 136.000199 
L 97.121023 146.313082 
L 122.51875 151.771343 
L 147.916477 156.391638 
L 173.314205 163.558771 
L 198.711932 161.771067 
" style="fill:none;stroke:#0173b2;stroke-linecap:square;stroke-opacity:0.65;stroke-width:2;"/>
   </g>
   <g id="line2d_16">
    <path clip-path="url(#p949dca5c53)" d="M 46.325568 128.102065 
L 71.723295 134.271803 
L 97.121023 143.1048 
L 122.51875 145.803428 
L 147.916477 148.454855 
L 173.314205 155.013438 
L 198.711932 156.395258 
" style="fill:none;stroke:#de8f05;stroke-dasharray:8,3;stroke-dashoffset:0;stroke-opacity:0.65;stroke-width:2;"/>
   </g>
   <g id="line2d_17">
    <path clip-path="url(#p949dca5c53)" d="M 46.325568 142.737641 
L 71.723295 148.520906 
L 97.121023 153.482468 
L 122.51875 156.511561 
L 147.916477 158.888473 
L 173.314205 165.398964 
L 198.711932 166.357956 
" style="fill:none;stroke:#029e73;stroke-dasharray:2,2;stroke-dashoffset:0;stroke-opacity:0.65;stroke-width:2;"/>
   </g>
   <g id="line2d_18">
    <path clip-path="url(#p949dca5c53)" d="M 46.325568 130.377905 
L 71.723295 146.639716 
L 97.121023 154.017462 
L 122.51875 155.426813 
L 147.916477 159.258424 
L 173.314205 165.004604 
L 198.711932 165.63428 
" style="fill:none;stroke:#d55e00;stroke-dasharray:6,2.5,3,2.5;stroke-dashoffset:0;stroke-opacity:0.65;stroke-width:2;"/>
   </g>
   <g id="line2d_19">
    <path clip-path="url(#p949dca5c53)" d="M 46.325568 111.452268 
L 71.723295 126.552516 
L 97.121023 114.96956 
L 122.51875 149.040806 
L 147.916477 156.610728 
L 173.314205 169.814403 
L 198.711932 169.612365 
" style="fill:none;stroke:#cc78bc;stroke-dasharray:10,2,2,2;stroke-dashoffset:0;stroke-opacity:0.65;stroke-width:2;"/>
   </g>
   <g id="line2d_20">
    <path clip-path="url(#p949dca5c53)" d="M 46.325568 117.746606 
L 71.723295 132.903487 
L 97.121023 143.74837 
L 122.51875 151.405385 
L 147.916477 153.776845 
L 173.314205 164.951971 
L 198.711932 166.851934 
" style="fill:none;stroke:#ca9161;stroke-dasharray:6,2.5,2.5,2.5,2.5,2.5;stroke-dashoffset:0;stroke-opacity:0.65;stroke-width:2;"/>
   </g>
   <g id="line2d_21">
    <path clip-path="url(#p949dca5c53)" d="M 46.325568 96.788125 
L 71.723295 105.622536 
L 97.121023 128.057586 
L 122.51875 138.979412 
L 147.916477 140.781221 
L 173.314205 156.167467 
L 198.711932 158.509381 
" style="fill:none;stroke:#fbafe4;stroke-dasharray:8,2,8,2,2,2;stroke-dashoffset:0;stroke-opacity:0.65;stroke-width:2;"/>
   </g>
   <g id="line2d_22">
    <path clip-path="url(#p949dca5c53)" d="M 46.325568 128.211106 
L 71.723295 135.327509 
L 97.121023 151.115079 
L 122.51875 154.242005 
L 147.916477 157.229804 
L 173.314205 167.044272 
L 198.711932 169.165621 
" style="fill:none;stroke:#949494;stroke-dasharray:6,2.5,6,2.5,2.5,2.5;stroke-dashoffset:0;stroke-opacity:0.65;stroke-width:2;"/>
   </g>
   <g id="line2d_23">
    <path clip-path="url(#p949dca5c53)" d="M 46.325568 122.771813 
L 71.723295 133.229834 
L 97.121023 141.851051 
L 122.51875 150.397594 
L 147.916477 153.923999 
L 173.314205 163.369236 
L 198.711932 164.287233 
" style="fill:none;stroke:#7cfc00;stroke-linecap:square;stroke-width:4;"/>
    <defs>
     <path d="M -0 3 
L 3 -3 
L -3 -3 
z
" id="m423eb50102" style="stroke:#ffffff;stroke-linejoin:miter;stroke-width:0.75;"/>
    </defs>
    <g clip-path="url(#p949dca5c53)">
     <use style="fill:#7cfc00;stroke:#ffffff;stroke-linejoin:miter;stroke-width:0.75;" x="46.325568" xlink:href="#m423eb50102" y="122.771813"/>
     <use style="fill:#7cfc00;stroke:#ffffff;stroke-linejoin:miter;stroke-width:0.75;" x="71.723295" xlink:href="#m423eb50102" y="133.229834"/>
     <use style="fill:#7cfc00;stroke:#ffffff;stroke-linejoin:miter;stroke-width:0.75;" x="97.121023" xlink:href="#m423eb50102" y="141.851051"/>
     <use style="fill:#7cfc00;stroke:#ffffff;stroke-linejoin:miter;stroke-width:0.75;" x="122.51875" xlink:href="#m423eb50102" y="150.397594"/>
     <use style="fill:#7cfc00;stroke:#ffffff;stroke-linejoin:miter;stroke-width:0.75;" x="147.916477" xlink:href="#m423eb50102" y="153.923999"/>
     <use style="fill:#7cfc00;stroke:#ffffff;stroke-linejoin:miter;stroke-width:0.75;" x="173.314205" xlink:href="#m423eb50102" y="163.369236"/>
     <use style="fill:#7cfc00;stroke:#ffffff;stroke-linejoin:miter;stroke-width:0.75;" x="198.711932" xlink:href="#m423eb50102" y="164.287233"/>
    </g>
   </g>
   <g id="patch_3">
    <path d="M 38.70625 214.353948 
L 38.70625 21.935625 
" style="fill:none;stroke:#000000;stroke-linecap:square;stroke-linejoin:miter;stroke-width:0.8;"/>
   </g>
   <g id="patch_4">
    <path d="M 206.33125 214.353948 
L 206.33125 21.935625 
" style="fill:none;stroke:#000000;stroke-linecap:square;stroke-linejoin:miter;stroke-width:0.8;"/>
   </g>
   <g id="patch_5">
    <path d="M 38.70625 214.353948 
L 206.33125 214.353948 
" style="fill:none;stroke:#000000;stroke-linecap:square;stroke-linejoin:miter;stroke-width:0.8;"/>
   </g>
   <g id="patch_6">
    <path d="M 38.70625 21.935625 
L 206.33125 21.935625 
" style="fill:none;stroke:#000000;stroke-linecap:square;stroke-linejoin:miter;stroke-width:0.8;"/>
   </g>
   <g id="patch_7">
    <path d="M 212.335946 164.287233 
Q 210.334869 164.287233 209.451827 164.287233 
" style="fill:none;stroke:#000000;stroke-linecap:round;"/>
    <path d="M 213.451827 166.287233 
L 209.451827 164.287233 
L 213.451827 162.287233 
" style="fill:none;stroke:#000000;stroke-linecap:round;"/>
   </g>
   <g id="text_9">
    <!-- 1.56 -->
    <g transform="translate(216.33125 166.872389)scale(0.1 -0.1)">
     <defs>
      <path d="M 581 0 
L 581 641 
L 1222 641 
L 1222 0 
L 581 0 
z
" id="ArialMT-2e" transform="scale(0.015625)"/>
     </defs>
     <use xlink:href="#ArialMT-31"/>
     <use x="55.615234" xlink:href="#ArialMT-2e"/>
     <use x="83.398438" xlink:href="#ArialMT-35"/>
     <use x="139.013672" xlink:href="#ArialMT-36"/>
    </g>
   </g>
   <g id="text_10">
    <!-- Bengalese Finch -->
    <g transform="translate(77.82625 15.935625)scale(0.12 -0.12)">
     <defs>
      <path d="M 469 0 
L 469 4581 
L 2188 4581 
Q 2713 4581 3030 4442 
Q 3347 4303 3526 4014 
Q 3706 3725 3706 3409 
Q 3706 3116 3547 2856 
Q 3388 2597 3066 2438 
Q 3481 2316 3704 2022 
Q 3928 1728 3928 1328 
Q 3928 1006 3792 729 
Q 3656 453 3456 303 
Q 3256 153 2954 76 
Q 2653 0 2216 0 
L 469 0 
z
M 1075 2656 
L 2066 2656 
Q 2469 2656 2644 2709 
Q 2875 2778 2992 2937 
Q 3109 3097 3109 3338 
Q 3109 3566 3000 3739 
Q 2891 3913 2687 3977 
Q 2484 4041 1991 4041 
L 1075 4041 
L 1075 2656 
z
M 1075 541 
L 2216 541 
Q 2509 541 2628 563 
Q 2838 600 2978 687 
Q 3119 775 3209 942 
Q 3300 1109 3300 1328 
Q 3300 1584 3169 1773 
Q 3038 1963 2805 2039 
Q 2572 2116 2134 2116 
L 1075 2116 
L 1075 541 
z
" id="ArialMT-42" transform="scale(0.015625)"/>
      <path d="M 422 0 
L 422 3319 
L 928 3319 
L 928 2847 
Q 1294 3394 1984 3394 
Q 2284 3394 2536 3286 
Q 2788 3178 2913 3003 
Q 3038 2828 3088 2588 
Q 3119 2431 3119 2041 
L 3119 0 
L 2556 0 
L 2556 2019 
Q 2556 2363 2490 2533 
Q 2425 2703 2258 2804 
Q 2091 2906 1866 2906 
Q 1506 2906 1245 2678 
Q 984 2450 984 1813 
L 984 0 
L 422 0 
z
" id="ArialMT-6e" transform="scale(0.015625)"/>
      <path d="M 319 -275 
L 866 -356 
Q 900 -609 1056 -725 
Q 1266 -881 1628 -881 
Q 2019 -881 2231 -725 
Q 2444 -569 2519 -288 
Q 2563 -116 2559 434 
Q 2191 0 1641 0 
Q 956 0 581 494 
Q 206 988 206 1678 
Q 206 2153 378 2554 
Q 550 2956 876 3175 
Q 1203 3394 1644 3394 
Q 2231 3394 2613 2919 
L 2613 3319 
L 3131 3319 
L 3131 450 
Q 3131 -325 2973 -648 
Q 2816 -972 2473 -1159 
Q 2131 -1347 1631 -1347 
Q 1038 -1347 672 -1080 
Q 306 -813 319 -275 
z
M 784 1719 
Q 784 1066 1043 766 
Q 1303 466 1694 466 
Q 2081 466 2343 764 
Q 2606 1063 2606 1700 
Q 2606 2309 2336 2618 
Q 2066 2928 1684 2928 
Q 1309 2928 1046 2623 
Q 784 2319 784 1719 
z
" id="ArialMT-67" transform="scale(0.015625)"/>
      <path d="M 409 0 
L 409 4581 
L 972 4581 
L 972 0 
L 409 0 
z
" id="ArialMT-6c" transform="scale(0.015625)"/>
      <path d="M 197 991 
L 753 1078 
Q 800 744 1014 566 
Q 1228 388 1613 388 
Q 2000 388 2187 545 
Q 2375 703 2375 916 
Q 2375 1106 2209 1216 
Q 2094 1291 1634 1406 
Q 1016 1563 777 1677 
Q 538 1791 414 1992 
Q 291 2194 291 2438 
Q 291 2659 392 2848 
Q 494 3038 669 3163 
Q 800 3259 1026 3326 
Q 1253 3394 1513 3394 
Q 1903 3394 2198 3281 
Q 2494 3169 2634 2976 
Q 2775 2784 2828 2463 
L 2278 2388 
Q 2241 2644 2061 2787 
Q 1881 2931 1553 2931 
Q 1166 2931 1000 2803 
Q 834 2675 834 2503 
Q 834 2394 903 2306 
Q 972 2216 1119 2156 
Q 1203 2125 1616 2013 
Q 2213 1853 2448 1751 
Q 2684 1650 2818 1456 
Q 2953 1263 2953 975 
Q 2953 694 2789 445 
Q 2625 197 2315 61 
Q 2006 -75 1616 -75 
Q 969 -75 630 194 
Q 291 463 197 991 
z
" id="ArialMT-73" transform="scale(0.015625)"/>
      <path d="M 425 3934 
L 425 4581 
L 988 4581 
L 988 3934 
L 425 3934 
z
M 425 0 
L 425 3319 
L 988 3319 
L 988 0 
L 425 0 
z
" id="ArialMT-69" transform="scale(0.015625)"/>
      <path d="M 2588 1216 
L 3141 1144 
Q 3050 572 2676 248 
Q 2303 -75 1759 -75 
Q 1078 -75 664 370 
Q 250 816 250 1647 
Q 250 2184 428 2587 
Q 606 2991 970 3192 
Q 1334 3394 1763 3394 
Q 2303 3394 2647 3120 
Q 2991 2847 3088 2344 
L 2541 2259 
Q 2463 2594 2264 2762 
Q 2066 2931 1784 2931 
Q 1359 2931 1093 2626 
Q 828 2322 828 1663 
Q 828 994 1084 691 
Q 1341 388 1753 388 
Q 2084 388 2306 591 
Q 2528 794 2588 1216 
z
" id="ArialMT-63" transform="scale(0.015625)"/>
      <path d="M 422 0 
L 422 4581 
L 984 4581 
L 984 2938 
Q 1378 3394 1978 3394 
Q 2347 3394 2619 3248 
Q 2891 3103 3008 2847 
Q 3125 2591 3125 2103 
L 3125 0 
L 2563 0 
L 2563 2103 
Q 2563 2525 2380 2717 
Q 2197 2909 1863 2909 
Q 1613 2909 1392 2779 
Q 1172 2650 1078 2428 
Q 984 2206 984 1816 
L 984 0 
L 422 0 
z
" id="ArialMT-68" transform="scale(0.015625)"/>
     </defs>
     <use xlink:href="#ArialMT-42"/>
     <use x="66.699219" xlink:href="#ArialMT-65"/>
     <use x="122.314453" xlink:href="#ArialMT-6e"/>
     <use x="177.929688" xlink:href="#ArialMT-67"/>
     <use x="233.544922" xlink:href="#ArialMT-61"/>
     <use x="289.160156" xlink:href="#ArialMT-6c"/>
     <use x="311.376953" xlink:href="#ArialMT-65"/>
     <use x="366.992188" xlink:href="#ArialMT-73"/>
     <use x="416.992188" xlink:href="#ArialMT-65"/>
     <use x="472.607422" xlink:href="#ArialMT-20"/>
     <use x="500.390625" xlink:href="#ArialMT-46"/>
     <use x="561.474609" xlink:href="#ArialMT-69"/>
     <use x="583.691406" xlink:href="#ArialMT-6e"/>
     <use x="639.306641" xlink:href="#ArialMT-63"/>
     <use x="689.306641" xlink:href="#ArialMT-68"/>
    </g>
   </g>
  </g>
  <g id="axes_2">
   <g id="patch_8">
    <path d="M 264.70125 214.353948 
L 432.32625 214.353948 
L 432.32625 21.935625 
L 264.70125 21.935625 
z
" style="fill:#ffffff;"/>
   </g>
   <g id="PolyCollection_9">
    <defs>
     <path d="M 302.797841 -370.724881 
L 302.797841 -344.178673 
L 318.036477 -324.316813 
L 333.275114 -324.306281 
L 348.51375 -313.820892 
L 363.752386 -328.295255 
L 378.991023 -319.895081 
L 394.229659 -316.257193 
L 409.468295 -315.75009 
L 424.706932 -313.492131 
L 424.706932 -325.28782 
L 424.706932 -325.28782 
L 409.468295 -330.797211 
L 394.229659 -328.945951 
L 378.991023 -331.811846 
L 363.752386 -335.816889 
L 348.51375 -352.218367 
L 333.275114 -353.34838 
L 318.036477 -370.602524 
L 302.797841 -370.724881 
z
" id="m59ce4bec42" style="stroke:#0173b2;stroke-opacity:0.2;"/>
    </defs>
    <g clip-path="url(#pcaf1d8cef3)">
     <use style="fill:#0173b2;fill-opacity:0.2;stroke:#0173b2;stroke-opacity:0.2;" x="0" xlink:href="#m59ce4bec42" y="467.698833"/>
    </g>
   </g>
   <g id="PolyCollection_10">
    <defs>
     <path d="M 302.797841 -395.874416 
L 302.797841 -371.335076 
L 318.036477 -357.262063 
L 333.275114 -351.131014 
L 348.51375 -352.836402 
L 363.752386 -347.784217 
L 378.991023 -350.20559 
L 394.229659 -350.003834 
L 409.468295 -339.201392 
L 424.706932 -332.245622 
L 424.706932 -370.360755 
L 424.706932 -370.360755 
L 409.468295 -371.523012 
L 394.229659 -366.657136 
L 378.991023 -404.877664 
L 363.752386 -384.286314 
L 348.51375 -378.06788 
L 333.275114 -368.927661 
L 318.036477 -386.931136 
L 302.797841 -395.874416 
z
" id="mbbf705f4ab" style="stroke:#de8f05;stroke-opacity:0.2;"/>
    </defs>
    <g clip-path="url(#pcaf1d8cef3)">
     <use style="fill:#de8f05;fill-opacity:0.2;stroke:#de8f05;stroke-opacity:0.2;" x="0" xlink:href="#mbbf705f4ab" y="467.698833"/>
    </g>
   </g>
   <g id="PolyCollection_11">
    <defs>
     <path d="M 272.320568 -476.250274 
L 272.320568 -425.933889 
L 287.559205 -402.983474 
L 318.036477 -388.590948 
L 333.275114 -384.751008 
L 348.51375 -380.301642 
L 363.752386 -377.791164 
L 378.991023 -368.789778 
L 394.229659 -378.353906 
L 409.468295 -371.271496 
L 424.706932 -362.265422 
L 424.706932 -376.933416 
L 424.706932 -376.933416 
L 409.468295 -385.288635 
L 394.229659 -393.951267 
L 378.991023 -390.24384 
L 363.752386 -397.053906 
L 348.51375 -406.13675 
L 333.275114 -418.014948 
L 318.036477 -427.916561 
L 287.559205 -440.325286 
L 272.320568 -476.250274 
z
" id="mdcb5636410" style="stroke:#029e73;stroke-opacity:0.2;"/>
    </defs>
    <g clip-path="url(#pcaf1d8cef3)">
     <use style="fill:#029e73;fill-opacity:0.2;stroke:#029e73;stroke-opacity:0.2;" x="0" xlink:href="#mdcb5636410" y="467.698833"/>
    </g>
   </g>
   <g id="matplotlib.axis_3">
    <g id="xtick_8">
     <g id="line2d_24">
      <g>
       <use style="stroke:#000000;stroke-width:0.8;" x="272.320568" xlink:href="#m9c6f14e88f" y="214.353948"/>
      </g>
     </g>
    </g>
    <g id="xtick_9">
     <g id="line2d_25">
      <g>
       <use style="stroke:#000000;stroke-width:0.8;" x="287.559205" xlink:href="#m9c6f14e88f" y="214.353948"/>
      </g>
     </g>
    </g>
    <g id="xtick_10">
     <g id="line2d_26">
      <g>
       <use style="stroke:#000000;stroke-width:0.8;" x="302.797841" xlink:href="#m9c6f14e88f" y="214.353948"/>
      </g>
     </g>
    </g>
    <g id="xtick_11">
     <g id="line2d_27">
      <g>
       <use style="stroke:#000000;stroke-width:0.8;" x="318.036477" xlink:href="#m9c6f14e88f" y="214.353948"/>
      </g>
     </g>
    </g>
    <g id="xtick_12">
     <g id="line2d_28">
      <g>
       <use style="stroke:#000000;stroke-width:0.8;" x="333.275114" xlink:href="#m9c6f14e88f" y="214.353948"/>
      </g>
     </g>
    </g>
    <g id="xtick_13">
     <g id="line2d_29">
      <g>
       <use style="stroke:#000000;stroke-width:0.8;" x="348.51375" xlink:href="#m9c6f14e88f" y="214.353948"/>
      </g>
     </g>
    </g>
    <g id="xtick_14">
     <g id="line2d_30">
      <g>
       <use style="stroke:#000000;stroke-width:0.8;" x="363.752386" xlink:href="#m9c6f14e88f" y="214.353948"/>
      </g>
     </g>
    </g>
    <g id="xtick_15">
     <g id="line2d_31">
      <g>
       <use style="stroke:#000000;stroke-width:0.8;" x="378.991023" xlink:href="#m9c6f14e88f" y="214.353948"/>
      </g>
     </g>
    </g>
    <g id="xtick_16">
     <g id="line2d_32">
      <g>
       <use style="stroke:#000000;stroke-width:0.8;" x="394.229659" xlink:href="#m9c6f14e88f" y="214.353948"/>
      </g>
     </g>
    </g>
    <g id="xtick_17">
     <g id="line2d_33">
      <g>
       <use style="stroke:#000000;stroke-width:0.8;" x="409.468295" xlink:href="#m9c6f14e88f" y="214.353948"/>
      </g>
     </g>
    </g>
    <g id="xtick_18">
     <g id="line2d_34">
      <g>
       <use style="stroke:#000000;stroke-width:0.8;" x="424.706932" xlink:href="#m9c6f14e88f" y="214.353948"/>
      </g>
     </g>
    </g>
   </g>
   <g id="matplotlib.axis_4">
    <g id="ytick_8">
     <g id="line2d_35">
      <g>
       <use style="stroke:#000000;stroke-width:0.8;" x="264.70125" xlink:href="#mb6175b138b" y="214.353948"/>
      </g>
     </g>
     <g id="text_11">
      <!-- 0 -->
      <g transform="translate(252.140313 217.932854)scale(0.1 -0.1)">
       <use xlink:href="#ArialMT-30"/>
      </g>
     </g>
    </g>
    <g id="ytick_9">
     <g id="line2d_36">
      <g>
       <use style="stroke:#000000;stroke-width:0.8;" x="264.70125" xlink:href="#mb6175b138b" y="182.284227"/>
      </g>
     </g>
     <g id="text_12">
      <!-- 1 -->
      <g transform="translate(252.140313 185.863133)scale(0.1 -0.1)">
       <use xlink:href="#ArialMT-31"/>
      </g>
     </g>
    </g>
    <g id="ytick_10">
     <g id="line2d_37">
      <g>
       <use style="stroke:#000000;stroke-width:0.8;" x="264.70125" xlink:href="#mb6175b138b" y="150.214507"/>
      </g>
     </g>
     <g id="text_13">
      <!-- 2 -->
      <g transform="translate(252.140313 153.793413)scale(0.1 -0.1)">
       <use xlink:href="#ArialMT-32"/>
      </g>
     </g>
    </g>
    <g id="ytick_11">
     <g id="line2d_38">
      <g>
       <use style="stroke:#000000;stroke-width:0.8;" x="264.70125" xlink:href="#mb6175b138b" y="118.144786"/>
      </g>
     </g>
     <g id="text_14">
      <!-- 3 -->
      <g transform="translate(252.140313 121.723693)scale(0.1 -0.1)">
       <use xlink:href="#ArialMT-33"/>
      </g>
     </g>
    </g>
    <g id="ytick_12">
     <g id="line2d_39">
      <g>
       <use style="stroke:#000000;stroke-width:0.8;" x="264.70125" xlink:href="#mb6175b138b" y="86.075066"/>
      </g>
     </g>
     <g id="text_15">
      <!-- 4 -->
      <g transform="translate(252.140313 89.653972)scale(0.1 -0.1)">
       <use xlink:href="#ArialMT-34"/>
      </g>
     </g>
    </g>
    <g id="ytick_13">
     <g id="line2d_40">
      <g>
       <use style="stroke:#000000;stroke-width:0.8;" x="264.70125" xlink:href="#mb6175b138b" y="54.005345"/>
      </g>
     </g>
     <g id="text_16">
      <!-- 5 -->
      <g transform="translate(252.140313 57.584252)scale(0.1 -0.1)">
       <use xlink:href="#ArialMT-35"/>
      </g>
     </g>
    </g>
    <g id="ytick_14">
     <g id="line2d_41">
      <g>
       <use style="stroke:#000000;stroke-width:0.8;" x="264.70125" xlink:href="#mb6175b138b" y="21.935625"/>
      </g>
     </g>
     <g id="text_17">
      <!-- 6 -->
      <g transform="translate(252.140313 25.514531)scale(0.1 -0.1)">
       <use xlink:href="#ArialMT-36"/>
      </g>
     </g>
    </g>
   </g>
   <g id="line2d_42">
    <path clip-path="url(#pcaf1d8cef3)" d="M 302.797841 110.247056 
L 318.036477 120.239164 
L 333.275114 128.871502 
L 348.51375 134.679203 
L 363.752386 135.642761 
L 378.991023 141.845369 
L 394.229659 145.097261 
L 409.468295 144.425182 
L 424.706932 148.308857 
" style="fill:none;stroke:#0173b2;stroke-linecap:square;stroke-opacity:0.65;stroke-width:2;"/>
   </g>
   <g id="line2d_43">
    <path clip-path="url(#pcaf1d8cef3)" d="M 302.797841 84.094087 
L 318.036477 95.602233 
L 333.275114 107.669495 
L 348.51375 102.246692 
L 363.752386 101.663567 
L 378.991023 90.157205 
L 394.229659 109.368348 
L 409.468295 112.336631 
L 424.706932 116.395644 
" style="fill:none;stroke:#de8f05;stroke-dasharray:8,3;stroke-dashoffset:0;stroke-opacity:0.65;stroke-width:2;"/>
   </g>
   <g id="line2d_44">
    <path clip-path="url(#pcaf1d8cef3)" d="M 272.320568 16.606751 
L 287.559205 46.044453 
L 318.036477 59.445078 
L 333.275114 66.315854 
L 348.51375 74.479637 
L 363.752386 80.276297 
L 378.991023 88.182023 
L 394.229659 81.546246 
L 409.468295 89.418767 
L 424.706932 98.099413 
" style="fill:none;stroke:#029e73;stroke-dasharray:2,2;stroke-dashoffset:0;stroke-opacity:0.65;stroke-width:2;"/>
   </g>
   <g id="line2d_45">
    <path clip-path="url(#pcaf1d8cef3)" d="M 302.797841 97.170571 
L 318.036477 91.762158 
L 333.275114 100.952284 
L 348.51375 103.801844 
L 363.752386 105.860875 
L 378.991023 106.728199 
L 394.229659 112.003951 
L 409.468295 115.393527 
L 424.706932 120.934638 
" style="fill:none;stroke:#ff00ff;stroke-linecap:square;stroke-width:4;"/>
    <defs>
     <path d="M -0 3 
L 3 -3 
L -3 -3 
z
" id="m1068b49519" style="stroke:#ffffff;stroke-linejoin:miter;stroke-width:0.75;"/>
    </defs>
    <g clip-path="url(#pcaf1d8cef3)">
     <use style="fill:#ff00ff;stroke:#ffffff;stroke-linejoin:miter;stroke-width:0.75;" x="302.797841" xlink:href="#m1068b49519" y="97.170571"/>
     <use style="fill:#ff00ff;stroke:#ffffff;stroke-linejoin:miter;stroke-width:0.75;" x="318.036477" xlink:href="#m1068b49519" y="91.762158"/>
     <use style="fill:#ff00ff;stroke:#ffffff;stroke-linejoin:miter;stroke-width:0.75;" x="333.275114" xlink:href="#m1068b49519" y="100.952284"/>
     <use style="fill:#ff00ff;stroke:#ffffff;stroke-linejoin:miter;stroke-width:0.75;" x="348.51375" xlink:href="#m1068b49519" y="103.801844"/>
     <use style="fill:#ff00ff;stroke:#ffffff;stroke-linejoin:miter;stroke-width:0.75;" x="363.752386" xlink:href="#m1068b49519" y="105.860875"/>
     <use style="fill:#ff00ff;stroke:#ffffff;stroke-linejoin:miter;stroke-width:0.75;" x="378.991023" xlink:href="#m1068b49519" y="106.728199"/>
     <use style="fill:#ff00ff;stroke:#ffffff;stroke-linejoin:miter;stroke-width:0.75;" x="394.229659" xlink:href="#m1068b49519" y="112.003951"/>
     <use style="fill:#ff00ff;stroke:#ffffff;stroke-linejoin:miter;stroke-width:0.75;" x="409.468295" xlink:href="#m1068b49519" y="115.393527"/>
     <use style="fill:#ff00ff;stroke:#ffffff;stroke-linejoin:miter;stroke-width:0.75;" x="424.706932" xlink:href="#m1068b49519" y="120.934638"/>
    </g>
   </g>
   <g id="patch_9">
    <path d="M 264.70125 214.353948 
L 264.70125 21.935625 
" style="fill:none;stroke:#000000;stroke-linecap:square;stroke-linejoin:miter;stroke-width:0.8;"/>
   </g>
   <g id="patch_10">
    <path d="M 432.32625 214.353948 
L 432.32625 21.935625 
" style="fill:none;stroke:#000000;stroke-linecap:square;stroke-linejoin:miter;stroke-width:0.8;"/>
   </g>
   <g id="patch_11">
    <path d="M 264.70125 214.353948 
L 432.32625 214.353948 
" style="fill:none;stroke:#000000;stroke-linecap:square;stroke-linejoin:miter;stroke-width:0.8;"/>
   </g>
   <g id="patch_12">
    <path d="M 264.70125 21.935625 
L 432.32625 21.935625 
" style="fill:none;stroke:#000000;stroke-linecap:square;stroke-linejoin:miter;stroke-width:0.8;"/>
   </g>
   <g id="patch_13">
    <path d="M 438.330946 120.934638 
Q 436.329869 120.934638 435.446827 120.934638 
" style="fill:none;stroke:#000000;stroke-linecap:round;"/>
    <path d="M 439.446827 122.934638 
L 435.446827 120.934638 
L 439.446827 118.934638 
" style="fill:none;stroke:#000000;stroke-linecap:round;"/>
   </g>
   <g id="text_18">
    <!-- 2.91 -->
    <g transform="translate(442.32625 123.519794)scale(0.1 -0.1)">
     <defs>
      <path d="M 350 1059 
L 891 1109 
Q 959 728 1153 556 
Q 1347 384 1650 384 
Q 1909 384 2104 503 
Q 2300 622 2425 820 
Q 2550 1019 2634 1356 
Q 2719 1694 2719 2044 
Q 2719 2081 2716 2156 
Q 2547 1888 2255 1720 
Q 1963 1553 1622 1553 
Q 1053 1553 659 1965 
Q 266 2378 266 3053 
Q 266 3750 677 4175 
Q 1088 4600 1706 4600 
Q 2153 4600 2523 4359 
Q 2894 4119 3086 3673 
Q 3278 3228 3278 2384 
Q 3278 1506 3087 986 
Q 2897 466 2520 194 
Q 2144 -78 1638 -78 
Q 1100 -78 759 220 
Q 419 519 350 1059 
z
M 2653 3081 
Q 2653 3566 2395 3850 
Q 2138 4134 1775 4134 
Q 1400 4134 1122 3828 
Q 844 3522 844 3034 
Q 844 2597 1108 2323 
Q 1372 2050 1759 2050 
Q 2150 2050 2401 2323 
Q 2653 2597 2653 3081 
z
" id="ArialMT-39" transform="scale(0.015625)"/>
     </defs>
     <use xlink:href="#ArialMT-32"/>
     <use x="55.615234" xlink:href="#ArialMT-2e"/>
     <use x="83.398438" xlink:href="#ArialMT-39"/>
     <use x="139.013672" xlink:href="#ArialMT-31"/>
    </g>
   </g>
   <g id="text_19">
    <!-- Canary -->
    <g transform="translate(329.173125 15.935625)scale(0.12 -0.12)">
     <defs>
      <path d="M 3763 1606 
L 4369 1453 
Q 4178 706 3683 314 
Q 3188 -78 2472 -78 
Q 1731 -78 1267 223 
Q 803 525 561 1097 
Q 319 1669 319 2325 
Q 319 3041 592 3573 
Q 866 4106 1370 4382 
Q 1875 4659 2481 4659 
Q 3169 4659 3637 4309 
Q 4106 3959 4291 3325 
L 3694 3184 
Q 3534 3684 3231 3912 
Q 2928 4141 2469 4141 
Q 1941 4141 1586 3887 
Q 1231 3634 1087 3207 
Q 944 2781 944 2328 
Q 944 1744 1114 1308 
Q 1284 872 1643 656 
Q 2003 441 2422 441 
Q 2931 441 3284 734 
Q 3638 1028 3763 1606 
z
" id="ArialMT-43" transform="scale(0.015625)"/>
      <path d="M 397 -1278 
L 334 -750 
Q 519 -800 656 -800 
Q 844 -800 956 -737 
Q 1069 -675 1141 -563 
Q 1194 -478 1313 -144 
Q 1328 -97 1363 -6 
L 103 3319 
L 709 3319 
L 1400 1397 
Q 1534 1031 1641 628 
Q 1738 1016 1872 1384 
L 2581 3319 
L 3144 3319 
L 1881 -56 
Q 1678 -603 1566 -809 
Q 1416 -1088 1222 -1217 
Q 1028 -1347 759 -1347 
Q 597 -1347 397 -1278 
z
" id="ArialMT-79" transform="scale(0.015625)"/>
     </defs>
     <use xlink:href="#ArialMT-43"/>
     <use x="72.216797" xlink:href="#ArialMT-61"/>
     <use x="127.832031" xlink:href="#ArialMT-6e"/>
     <use x="183.447266" xlink:href="#ArialMT-61"/>
     <use x="239.0625" xlink:href="#ArialMT-72"/>
     <use x="272.363281" xlink:href="#ArialMT-79"/>
    </g>
   </g>
  </g>
  <g id="axes_3">
   <g id="patch_14">
    <path d="M 38.70625 423.09227 
L 206.33125 423.09227 
L 206.33125 230.673948 
L 38.70625 230.673948 
z
" style="fill:#ffffff;"/>
   </g>
   <g id="PolyCollection_12">
    <defs>
     <path d="M 46.325568 -99.288067 
L 46.325568 -88.101511 
L 71.723295 -78.567956 
L 97.121023 -70.838916 
L 122.51875 -67.088839 
L 147.916477 -63.159973 
L 173.314205 -60.500764 
L 198.711932 -60.195755 
L 198.711932 -67.710165 
L 198.711932 -67.710165 
L 173.314205 -64.055177 
L 147.916477 -73.187905 
L 122.51875 -75.375133 
L 97.121023 -84.561802 
L 71.723295 -91.944206 
L 46.325568 -99.288067 
z
" id="m58a3b1aa21" style="stroke:#0173b2;stroke-opacity:0.2;"/>
    </defs>
    <g clip-path="url(#p4bff879bf2)">
     <use style="fill:#0173b2;fill-opacity:0.2;stroke:#0173b2;stroke-opacity:0.2;" x="0" xlink:href="#m58a3b1aa21" y="467.698833"/>
    </g>
   </g>
   <g id="PolyCollection_13">
    <defs>
     <path d="M 46.325568 -83.504664 
L 46.325568 -63.142983 
L 71.723295 -59.425096 
L 97.121023 -56.853229 
L 122.51875 -56.463054 
L 147.916477 -55.300821 
L 173.314205 -51.757692 
L 198.711932 -51.977865 
L 198.711932 -56.863559 
L 198.711932 -56.863559 
L 173.314205 -57.282503 
L 147.916477 -60.056166 
L 122.51875 -62.565501 
L 97.121023 -62.457342 
L 71.723295 -79.725209 
L 46.325568 -83.504664 
z
" id="m55f3b63cb1" style="stroke:#de8f05;stroke-opacity:0.2;"/>
    </defs>
    <g clip-path="url(#p4bff879bf2)">
     <use style="fill:#de8f05;fill-opacity:0.2;stroke:#de8f05;stroke-opacity:0.2;" x="0" xlink:href="#m55f3b63cb1" y="467.698833"/>
    </g>
   </g>
   <g id="PolyCollection_14">
    <defs>
     <path d="M 46.325568 -67.389888 
L 46.325568 -54.162881 
L 71.723295 -53.702519 
L 97.121023 -53.486772 
L 122.51875 -48.613731 
L 147.916477 -50.084798 
L 173.314205 -47.845675 
L 198.711932 -47.809582 
L 198.711932 -49.855168 
L 198.711932 -49.855168 
L 173.314205 -49.535687 
L 147.916477 -53.958084 
L 122.51875 -56.410166 
L 97.121023 -58.000747 
L 71.723295 -61.953752 
L 46.325568 -67.389888 
z
" id="mdac46ce594" style="stroke:#029e73;stroke-opacity:0.2;"/>
    </defs>
    <g clip-path="url(#p4bff879bf2)">
     <use style="fill:#029e73;fill-opacity:0.2;stroke:#029e73;stroke-opacity:0.2;" x="0" xlink:href="#mdac46ce594" y="467.698833"/>
    </g>
   </g>
   <g id="PolyCollection_15">
    <defs>
     <path d="M 46.325568 -87.043158 
L 46.325568 -51.19858 
L 71.723295 -54.596373 
L 97.121023 -51.300492 
L 122.51875 -50.745906 
L 147.916477 -48.708234 
L 173.314205 -47.430893 
L 198.711932 -46.923042 
L 198.711932 -49.416732 
L 198.711932 -49.416732 
L 173.314205 -48.81665 
L 147.916477 -52.034091 
L 122.51875 -53.582534 
L 97.121023 -54.637698 
L 71.723295 -61.992494 
L 46.325568 -87.043158 
z
" id="mf9e9acfd94" style="stroke:#d55e00;stroke-opacity:0.2;"/>
    </defs>
    <g clip-path="url(#p4bff879bf2)">
     <use style="fill:#d55e00;fill-opacity:0.2;stroke:#d55e00;stroke-opacity:0.2;" x="0" xlink:href="#mf9e9acfd94" y="467.698833"/>
    </g>
   </g>
   <g id="PolyCollection_16">
    <defs>
     <path d="M 46.325568 -137.952624 
L 46.325568 -82.101806 
L 71.723295 -78.678023 
L 97.121023 -46.699268 
L 122.51875 -53.754335 
L 147.916477 -48.93532 
L 173.314205 -48.223686 
L 198.711932 -48.716411 
L 198.711932 -56.956334 
L 198.711932 -56.956334 
L 173.314205 -51.854198 
L 147.916477 -77.408382 
L 122.51875 -84.101872 
L 97.121023 -150.520485 
L 71.723295 -120.621379 
L 46.325568 -137.952624 
z
" id="m5c9e1a96c7" style="stroke:#cc78bc;stroke-opacity:0.2;"/>
    </defs>
    <g clip-path="url(#p4bff879bf2)">
     <use style="fill:#cc78bc;fill-opacity:0.2;stroke:#cc78bc;stroke-opacity:0.2;" x="0" xlink:href="#m5c9e1a96c7" y="467.698833"/>
    </g>
   </g>
   <g id="PolyCollection_17">
    <defs>
     <path d="M 46.325568 -139.377277 
L 46.325568 -102.913295 
L 71.723295 -93.804916 
L 97.121023 -85.359746 
L 122.51875 -78.167212 
L 147.916477 -78.393295 
L 173.314205 -68.54044 
L 198.711932 -67.694029 
L 198.711932 -77.735474 
L 198.711932 -77.735474 
L 173.314205 -77.793136 
L 147.916477 -92.473815 
L 122.51875 -95.455656 
L 97.121023 -111.857284 
L 71.723295 -131.614443 
L 46.325568 -139.377277 
z
" id="m81e6ec0969" style="stroke:#ca9161;stroke-opacity:0.2;"/>
    </defs>
    <g clip-path="url(#p4bff879bf2)">
     <use style="fill:#ca9161;fill-opacity:0.2;stroke:#ca9161;stroke-opacity:0.2;" x="0" xlink:href="#m81e6ec0969" y="467.698833"/>
    </g>
   </g>
   <g id="PolyCollection_18">
    <defs>
     <path d="M 46.325568 -117.108229 
L 46.325568 -91.061175 
L 71.723295 -79.930895 
L 97.121023 -68.859249 
L 122.51875 -62.382067 
L 147.916477 -60.658804 
L 173.314205 -53.23637 
L 198.711932 -52.907946 
L 198.711932 -57.039052 
L 198.711932 -57.039052 
L 173.314205 -59.661931 
L 147.916477 -66.767143 
L 122.51875 -72.595929 
L 97.121023 -82.559278 
L 71.723295 -105.662441 
L 46.325568 -117.108229 
z
" id="mab8538d1a1" style="stroke:#fbafe4;stroke-opacity:0.2;"/>
    </defs>
    <g clip-path="url(#p4bff879bf2)">
     <use style="fill:#fbafe4;fill-opacity:0.2;stroke:#fbafe4;stroke-opacity:0.2;" x="0" xlink:href="#mab8538d1a1" y="467.698833"/>
    </g>
   </g>
   <g id="PolyCollection_19">
    <defs>
     <path d="M 46.325568 -101.325579 
L 46.325568 -82.337032 
L 71.723295 -74.847904 
L 97.121023 -65.415014 
L 122.51875 -63.369106 
L 147.916477 -62.242567 
L 173.314205 -53.461596 
L 198.711932 -50.554404 
L 198.711932 -56.97397 
L 198.711932 -56.97397 
L 173.314205 -59.088081 
L 147.916477 -70.827539 
L 122.51875 -75.83593 
L 97.121023 -74.795085 
L 71.723295 -90.22925 
L 46.325568 -101.325579 
z
" id="m462d1138cd" style="stroke:#949494;stroke-opacity:0.2;"/>
    </defs>
    <g clip-path="url(#p4bff879bf2)">
     <use style="fill:#949494;fill-opacity:0.2;stroke:#949494;stroke-opacity:0.2;" x="0" xlink:href="#m462d1138cd" y="467.698833"/>
    </g>
   </g>
   <g id="matplotlib.axis_5">
    <g id="xtick_19">
     <g id="line2d_46">
      <g>
       <use style="stroke:#000000;stroke-width:0.8;" x="46.325568" xlink:href="#m9c6f14e88f" y="423.09227"/>
      </g>
     </g>
     <g id="text_20">
      <!-- 30 -->
      <g transform="translate(44.221373 443.017961)rotate(-45)scale(0.1 -0.1)">
       <use xlink:href="#ArialMT-33"/>
       <use x="55.615234" xlink:href="#ArialMT-30"/>
      </g>
     </g>
    </g>
    <g id="xtick_20">
     <g id="line2d_47">
      <g>
       <use style="stroke:#000000;stroke-width:0.8;" x="71.723295" xlink:href="#m9c6f14e88f" y="423.09227"/>
      </g>
     </g>
     <g id="text_21">
      <!-- 45 -->
      <g transform="translate(69.6191 443.017961)rotate(-45)scale(0.1 -0.1)">
       <use xlink:href="#ArialMT-34"/>
       <use x="55.615234" xlink:href="#ArialMT-35"/>
      </g>
     </g>
    </g>
    <g id="xtick_21">
     <g id="line2d_48">
      <g>
       <use style="stroke:#000000;stroke-width:0.8;" x="97.121023" xlink:href="#m9c6f14e88f" y="423.09227"/>
      </g>
     </g>
     <g id="text_22">
      <!-- 75 -->
      <g transform="translate(95.016828 443.017961)rotate(-45)scale(0.1 -0.1)">
       <defs>
        <path d="M 303 3981 
L 303 4522 
L 3269 4522 
L 3269 4084 
Q 2831 3619 2401 2847 
Q 1972 2075 1738 1259 
Q 1569 684 1522 0 
L 944 0 
Q 953 541 1156 1306 
Q 1359 2072 1739 2783 
Q 2119 3494 2547 3981 
L 303 3981 
z
" id="ArialMT-37" transform="scale(0.015625)"/>
       </defs>
       <use xlink:href="#ArialMT-37"/>
       <use x="55.615234" xlink:href="#ArialMT-35"/>
      </g>
     </g>
    </g>
    <g id="xtick_22">
     <g id="line2d_49">
      <g>
       <use style="stroke:#000000;stroke-width:0.8;" x="122.51875" xlink:href="#m9c6f14e88f" y="423.09227"/>
      </g>
     </g>
     <g id="text_23">
      <!-- 120 -->
      <g transform="translate(118.448467 446.950138)rotate(-45)scale(0.1 -0.1)">
       <use xlink:href="#ArialMT-31"/>
       <use x="55.615234" xlink:href="#ArialMT-32"/>
       <use x="111.230469" xlink:href="#ArialMT-30"/>
      </g>
     </g>
    </g>
    <g id="xtick_23">
     <g id="line2d_50">
      <g>
       <use style="stroke:#000000;stroke-width:0.8;" x="147.916477" xlink:href="#m9c6f14e88f" y="423.09227"/>
      </g>
     </g>
     <g id="text_24">
      <!-- 180 -->
      <g transform="translate(143.846194 446.950138)rotate(-45)scale(0.1 -0.1)">
       <defs>
        <path d="M 1131 2484 
Q 781 2613 612 2850 
Q 444 3088 444 3419 
Q 444 3919 803 4259 
Q 1163 4600 1759 4600 
Q 2359 4600 2725 4251 
Q 3091 3903 3091 3403 
Q 3091 3084 2923 2848 
Q 2756 2613 2416 2484 
Q 2838 2347 3058 2040 
Q 3278 1734 3278 1309 
Q 3278 722 2862 322 
Q 2447 -78 1769 -78 
Q 1091 -78 675 323 
Q 259 725 259 1325 
Q 259 1772 486 2073 
Q 713 2375 1131 2484 
z
M 1019 3438 
Q 1019 3113 1228 2906 
Q 1438 2700 1772 2700 
Q 2097 2700 2305 2904 
Q 2513 3109 2513 3406 
Q 2513 3716 2298 3927 
Q 2084 4138 1766 4138 
Q 1444 4138 1231 3931 
Q 1019 3725 1019 3438 
z
M 838 1322 
Q 838 1081 952 856 
Q 1066 631 1291 507 
Q 1516 384 1775 384 
Q 2178 384 2440 643 
Q 2703 903 2703 1303 
Q 2703 1709 2433 1975 
Q 2163 2241 1756 2241 
Q 1359 2241 1098 1978 
Q 838 1716 838 1322 
z
" id="ArialMT-38" transform="scale(0.015625)"/>
       </defs>
       <use xlink:href="#ArialMT-31"/>
       <use x="55.615234" xlink:href="#ArialMT-38"/>
       <use x="111.230469" xlink:href="#ArialMT-30"/>
      </g>
     </g>
    </g>
    <g id="xtick_24">
     <g id="line2d_51">
      <g>
       <use style="stroke:#000000;stroke-width:0.8;" x="173.314205" xlink:href="#m9c6f14e88f" y="423.09227"/>
      </g>
     </g>
     <g id="text_25">
      <!-- 480 -->
      <g transform="translate(169.243921 446.950138)rotate(-45)scale(0.1 -0.1)">
       <use xlink:href="#ArialMT-34"/>
       <use x="55.615234" xlink:href="#ArialMT-38"/>
       <use x="111.230469" xlink:href="#ArialMT-30"/>
      </g>
     </g>
    </g>
    <g id="xtick_25">
     <g id="line2d_52">
      <g>
       <use style="stroke:#000000;stroke-width:0.8;" x="198.711932" xlink:href="#m9c6f14e88f" y="423.09227"/>
      </g>
     </g>
     <g id="text_26">
      <!-- 600 -->
      <g transform="translate(194.641648 446.950138)rotate(-45)scale(0.1 -0.1)">
       <use xlink:href="#ArialMT-36"/>
       <use x="55.615234" xlink:href="#ArialMT-30"/>
       <use x="111.230469" xlink:href="#ArialMT-30"/>
      </g>
     </g>
    </g>
   </g>
   <g id="matplotlib.axis_6">
    <g id="ytick_15">
     <g id="line2d_53">
      <g>
       <use style="stroke:#000000;stroke-width:0.8;" x="38.70625" xlink:href="#mb6175b138b" y="423.09227"/>
      </g>
     </g>
     <g id="text_27">
      <!-- 0 -->
      <g transform="translate(26.145313 426.671176)scale(0.1 -0.1)">
       <use xlink:href="#ArialMT-30"/>
      </g>
     </g>
    </g>
    <g id="ytick_16">
     <g id="line2d_54">
      <g>
       <use style="stroke:#000000;stroke-width:0.8;" x="38.70625" xlink:href="#mb6175b138b" y="397.436494"/>
      </g>
     </g>
     <g id="text_28">
      <!-- 2 -->
      <g transform="translate(26.145313 401.0154)scale(0.1 -0.1)">
       <use xlink:href="#ArialMT-32"/>
      </g>
     </g>
    </g>
    <g id="ytick_17">
     <g id="line2d_55">
      <g>
       <use style="stroke:#000000;stroke-width:0.8;" x="38.70625" xlink:href="#mb6175b138b" y="371.780717"/>
      </g>
     </g>
     <g id="text_29">
      <!-- 4 -->
      <g transform="translate(26.145313 375.359624)scale(0.1 -0.1)">
       <use xlink:href="#ArialMT-34"/>
      </g>
     </g>
    </g>
    <g id="ytick_18">
     <g id="line2d_56">
      <g>
       <use style="stroke:#000000;stroke-width:0.8;" x="38.70625" xlink:href="#mb6175b138b" y="346.124941"/>
      </g>
     </g>
     <g id="text_30">
      <!-- 6 -->
      <g transform="translate(26.145313 349.703847)scale(0.1 -0.1)">
       <use xlink:href="#ArialMT-36"/>
      </g>
     </g>
    </g>
    <g id="ytick_19">
     <g id="line2d_57">
      <g>
       <use style="stroke:#000000;stroke-width:0.8;" x="38.70625" xlink:href="#mb6175b138b" y="320.469165"/>
      </g>
     </g>
     <g id="text_31">
      <!-- 8 -->
      <g transform="translate(26.145313 324.048071)scale(0.1 -0.1)">
       <use xlink:href="#ArialMT-38"/>
      </g>
     </g>
    </g>
    <g id="ytick_20">
     <g id="line2d_58">
      <g>
       <use style="stroke:#000000;stroke-width:0.8;" x="38.70625" xlink:href="#mb6175b138b" y="294.813388"/>
      </g>
     </g>
     <g id="text_32">
      <!-- 10 -->
      <g transform="translate(20.584375 298.392295)scale(0.1 -0.1)">
       <use xlink:href="#ArialMT-31"/>
       <use x="55.615234" xlink:href="#ArialMT-30"/>
      </g>
     </g>
    </g>
    <g id="ytick_21">
     <g id="line2d_59">
      <g>
       <use style="stroke:#000000;stroke-width:0.8;" x="38.70625" xlink:href="#mb6175b138b" y="269.157612"/>
      </g>
     </g>
     <g id="text_33">
      <!-- 12 -->
      <g transform="translate(20.584375 272.736518)scale(0.1 -0.1)">
       <use xlink:href="#ArialMT-31"/>
       <use x="55.615234" xlink:href="#ArialMT-32"/>
      </g>
     </g>
    </g>
    <g id="ytick_22">
     <g id="line2d_60">
      <g>
       <use style="stroke:#000000;stroke-width:0.8;" x="38.70625" xlink:href="#mb6175b138b" y="243.501836"/>
      </g>
     </g>
     <g id="text_34">
      <!-- 14 -->
      <g transform="translate(20.584375 247.080742)scale(0.1 -0.1)">
       <use xlink:href="#ArialMT-31"/>
       <use x="55.615234" xlink:href="#ArialMT-34"/>
      </g>
     </g>
    </g>
    <g id="text_35">
     <!-- Syllable error rate (%) -->
     <g transform="translate(14.479688 375.505765)rotate(-90)scale(0.1 -0.1)">
      <defs>
       <path d="M 288 1472 
L 859 1522 
Q 900 1178 1048 958 
Q 1197 738 1509 602 
Q 1822 466 2213 466 
Q 2559 466 2825 569 
Q 3091 672 3220 851 
Q 3350 1031 3350 1244 
Q 3350 1459 3225 1620 
Q 3100 1781 2813 1891 
Q 2628 1963 1997 2114 
Q 1366 2266 1113 2400 
Q 784 2572 623 2826 
Q 463 3081 463 3397 
Q 463 3744 659 4045 
Q 856 4347 1234 4503 
Q 1613 4659 2075 4659 
Q 2584 4659 2973 4495 
Q 3363 4331 3572 4012 
Q 3781 3694 3797 3291 
L 3216 3247 
Q 3169 3681 2898 3903 
Q 2628 4125 2100 4125 
Q 1550 4125 1298 3923 
Q 1047 3722 1047 3438 
Q 1047 3191 1225 3031 
Q 1400 2872 2139 2705 
Q 2878 2538 3153 2413 
Q 3553 2228 3743 1945 
Q 3934 1663 3934 1294 
Q 3934 928 3725 604 
Q 3516 281 3123 101 
Q 2731 -78 2241 -78 
Q 1619 -78 1198 103 
Q 778 284 539 648 
Q 300 1013 288 1472 
z
" id="ArialMT-53" transform="scale(0.015625)"/>
       <path d="M 941 0 
L 419 0 
L 419 4581 
L 981 4581 
L 981 2947 
Q 1338 3394 1891 3394 
Q 2197 3394 2470 3270 
Q 2744 3147 2920 2923 
Q 3097 2700 3197 2384 
Q 3297 2069 3297 1709 
Q 3297 856 2875 390 
Q 2453 -75 1863 -75 
Q 1275 -75 941 416 
L 941 0 
z
M 934 1684 
Q 934 1088 1097 822 
Q 1363 388 1816 388 
Q 2184 388 2453 708 
Q 2722 1028 2722 1663 
Q 2722 2313 2464 2622 
Q 2206 2931 1841 2931 
Q 1472 2931 1203 2611 
Q 934 2291 934 1684 
z
" id="ArialMT-62" transform="scale(0.015625)"/>
       <path d="M 1650 503 
L 1731 6 
Q 1494 -44 1306 -44 
Q 1000 -44 831 53 
Q 663 150 594 308 
Q 525 466 525 972 
L 525 2881 
L 113 2881 
L 113 3319 
L 525 3319 
L 525 4141 
L 1084 4478 
L 1084 3319 
L 1650 3319 
L 1650 2881 
L 1084 2881 
L 1084 941 
Q 1084 700 1114 631 
Q 1144 563 1211 522 
Q 1278 481 1403 481 
Q 1497 481 1650 503 
z
" id="ArialMT-74" transform="scale(0.015625)"/>
      </defs>
      <use xlink:href="#ArialMT-53"/>
      <use x="66.699219" xlink:href="#ArialMT-79"/>
      <use x="116.699219" xlink:href="#ArialMT-6c"/>
      <use x="138.916016" xlink:href="#ArialMT-6c"/>
      <use x="161.132812" xlink:href="#ArialMT-61"/>
      <use x="216.748047" xlink:href="#ArialMT-62"/>
      <use x="272.363281" xlink:href="#ArialMT-6c"/>
      <use x="294.580078" xlink:href="#ArialMT-65"/>
      <use x="350.195312" xlink:href="#ArialMT-20"/>
      <use x="377.978516" xlink:href="#ArialMT-65"/>
      <use x="433.59375" xlink:href="#ArialMT-72"/>
      <use x="466.894531" xlink:href="#ArialMT-72"/>
      <use x="500.195312" xlink:href="#ArialMT-6f"/>
      <use x="555.810547" xlink:href="#ArialMT-72"/>
      <use x="589.111328" xlink:href="#ArialMT-20"/>
      <use x="616.894531" xlink:href="#ArialMT-72"/>
      <use x="650.195312" xlink:href="#ArialMT-61"/>
      <use x="705.810547" xlink:href="#ArialMT-74"/>
      <use x="733.59375" xlink:href="#ArialMT-65"/>
      <use x="789.208984" xlink:href="#ArialMT-20"/>
      <use x="816.992188" xlink:href="#ArialMT-28"/>
      <use x="850.292969" xlink:href="#ArialMT-25"/>
      <use x="939.208984" xlink:href="#ArialMT-29"/>
     </g>
    </g>
   </g>
   <g id="line2d_61">
    <path clip-path="url(#p4bff879bf2)" d="M 46.325568 374.004043 
L 71.723295 382.442752 
L 97.121023 389.998474 
L 122.51875 396.466847 
L 147.916477 399.524894 
L 173.314205 405.420862 
L 198.711932 403.745873 
" style="fill:none;stroke:#0173b2;stroke-linecap:square;stroke-opacity:0.65;stroke-width:2;"/>
   </g>
   <g id="line2d_62">
    <path clip-path="url(#p4bff879bf2)" d="M 46.325568 394.375009 
L 71.723295 398.12368 
L 97.121023 408.043547 
L 122.51875 408.184555 
L 147.916477 410.020339 
L 173.314205 413.178735 
L 198.711932 413.27812 
" style="fill:none;stroke:#de8f05;stroke-dasharray:8,3;stroke-dashoffset:0;stroke-opacity:0.65;stroke-width:2;"/>
   </g>
   <g id="line2d_63">
    <path clip-path="url(#p4bff879bf2)" d="M 46.325568 406.922448 
L 71.723295 409.870697 
L 97.121023 411.955073 
L 122.51875 415.186884 
L 147.916477 415.677391 
L 173.314205 419.008151 
L 198.711932 418.866458 
" style="fill:none;stroke:#029e73;stroke-dasharray:2,2;stroke-dashoffset:0;stroke-opacity:0.65;stroke-width:2;"/>
   </g>
   <g id="line2d_64">
    <path clip-path="url(#p4bff879bf2)" d="M 46.325568 398.577964 
L 71.723295 409.404399 
L 97.121023 414.729737 
L 122.51875 415.534613 
L 147.916477 417.32767 
L 173.314205 419.575061 
L 198.711932 419.528946 
" style="fill:none;stroke:#d55e00;stroke-dasharray:6,2.5,3,2.5;stroke-dashoffset:0;stroke-opacity:0.65;stroke-width:2;"/>
   </g>
   <g id="line2d_65">
    <path clip-path="url(#p4bff879bf2)" d="M 46.325568 357.671618 
L 71.723295 368.049132 
L 97.121023 369.088956 
L 122.51875 398.770729 
L 147.916477 404.526981 
L 173.314205 417.659891 
L 198.711932 414.86246 
" style="fill:none;stroke:#cc78bc;stroke-dasharray:10,2,2,2;stroke-dashoffset:0;stroke-opacity:0.65;stroke-width:2;"/>
   </g>
   <g id="line2d_66">
    <path clip-path="url(#p4bff879bf2)" d="M 46.325568 346.553546 
L 71.723295 354.989153 
L 97.121023 369.090318 
L 122.51875 380.887399 
L 147.916477 382.265278 
L 173.314205 394.532044 
L 198.711932 394.984081 
" style="fill:none;stroke:#ca9161;stroke-dasharray:6,2.5,2.5,2.5,2.5,2.5;stroke-dashoffset:0;stroke-opacity:0.65;stroke-width:2;"/>
   </g>
   <g id="line2d_67">
    <path clip-path="url(#p4bff879bf2)" d="M 46.325568 363.61413 
L 71.723295 374.902164 
L 97.121023 391.989569 
L 122.51875 400.209834 
L 147.916477 403.985859 
L 173.314205 411.249682 
L 198.711932 412.725334 
" style="fill:none;stroke:#fbafe4;stroke-dasharray:8,2,8,2,2,2;stroke-dashoffset:0;stroke-opacity:0.65;stroke-width:2;"/>
   </g>
   <g id="line2d_68">
    <path clip-path="url(#p4bff879bf2)" d="M 46.325568 375.867527 
L 71.723295 385.160256 
L 97.121023 397.593783 
L 122.51875 398.096315 
L 147.916477 401.16378 
L 173.314205 411.423994 
L 198.711932 413.934645 
" style="fill:none;stroke:#949494;stroke-dasharray:6,2.5,6,2.5,2.5,2.5;stroke-dashoffset:0;stroke-opacity:0.65;stroke-width:2;"/>
   </g>
   <g id="line2d_69">
    <path clip-path="url(#p4bff879bf2)" d="M 46.325568 377.198286 
L 71.723295 385.367779 
L 97.121023 394.061182 
L 122.51875 401.667147 
L 147.916477 404.311524 
L 173.314205 411.506053 
L 198.711932 411.49074 
" style="fill:none;stroke:#7cfc00;stroke-linecap:square;stroke-width:4;"/>
    <g clip-path="url(#p4bff879bf2)">
     <use style="fill:#7cfc00;stroke:#ffffff;stroke-linejoin:miter;stroke-width:0.75;" x="46.325568" xlink:href="#m423eb50102" y="377.198286"/>
     <use style="fill:#7cfc00;stroke:#ffffff;stroke-linejoin:miter;stroke-width:0.75;" x="71.723295" xlink:href="#m423eb50102" y="385.367779"/>
     <use style="fill:#7cfc00;stroke:#ffffff;stroke-linejoin:miter;stroke-width:0.75;" x="97.121023" xlink:href="#m423eb50102" y="394.061182"/>
     <use style="fill:#7cfc00;stroke:#ffffff;stroke-linejoin:miter;stroke-width:0.75;" x="122.51875" xlink:href="#m423eb50102" y="401.667147"/>
     <use style="fill:#7cfc00;stroke:#ffffff;stroke-linejoin:miter;stroke-width:0.75;" x="147.916477" xlink:href="#m423eb50102" y="404.311524"/>
     <use style="fill:#7cfc00;stroke:#ffffff;stroke-linejoin:miter;stroke-width:0.75;" x="173.314205" xlink:href="#m423eb50102" y="411.506053"/>
     <use style="fill:#7cfc00;stroke:#ffffff;stroke-linejoin:miter;stroke-width:0.75;" x="198.711932" xlink:href="#m423eb50102" y="411.49074"/>
    </g>
   </g>
   <g id="patch_15">
    <path d="M 38.70625 423.09227 
L 38.70625 230.673948 
" style="fill:none;stroke:#000000;stroke-linecap:square;stroke-linejoin:miter;stroke-width:0.8;"/>
   </g>
   <g id="patch_16">
    <path d="M 206.33125 423.09227 
L 206.33125 230.673948 
" style="fill:none;stroke:#000000;stroke-linecap:square;stroke-linejoin:miter;stroke-width:0.8;"/>
   </g>
   <g id="patch_17">
    <path d="M 38.70625 423.09227 
L 206.33125 423.09227 
" style="fill:none;stroke:#000000;stroke-linecap:square;stroke-linejoin:miter;stroke-width:0.8;"/>
   </g>
   <g id="patch_18">
    <path d="M 38.70625 230.673948 
L 206.33125 230.673948 
" style="fill:none;stroke:#000000;stroke-linecap:square;stroke-linejoin:miter;stroke-width:0.8;"/>
   </g>
   <g id="patch_19">
    <path d="M 212.335946 411.49074 
Q 210.334869 411.49074 209.451827 411.49074 
" style="fill:none;stroke:#000000;stroke-linecap:round;"/>
    <path d="M 213.451827 413.49074 
L 209.451827 411.49074 
L 213.451827 409.49074 
" style="fill:none;stroke:#000000;stroke-linecap:round;"/>
   </g>
   <g id="text_36">
    <!-- 0.90 -->
    <g transform="translate(216.33125 414.075896)scale(0.1 -0.1)">
     <use xlink:href="#ArialMT-30"/>
     <use x="55.615234" xlink:href="#ArialMT-2e"/>
     <use x="83.398438" xlink:href="#ArialMT-39"/>
     <use x="139.013672" xlink:href="#ArialMT-30"/>
    </g>
   </g>
  </g>
  <g id="axes_4">
   <g id="patch_20">
    <path d="M 264.70125 423.09227 
L 432.32625 423.09227 
L 432.32625 230.673948 
L 264.70125 230.673948 
z
" style="fill:#ffffff;"/>
   </g>
   <g id="PolyCollection_20">
    <defs>
     <path d="M 302.797841 -267.282631 
L 302.797841 -193.429647 
L 318.036477 -98.525417 
L 333.275114 -119.533066 
L 348.51375 -117.414662 
L 363.752386 -143.442792 
L 378.991023 -116.97913 
L 394.229659 -113.650287 
L 409.468295 -117.661767 
L 424.706932 -98.853025 
L 424.706932 -151.54989 
L 424.706932 -151.54989 
L 409.468295 -142.771548 
L 394.229659 -155.454407 
L 378.991023 -159.030231 
L 363.752386 -182.010668 
L 348.51375 -185.716215 
L 333.275114 -213.317533 
L 318.036477 -283.299877 
L 302.797841 -267.282631 
z
" id="mcb38a99ec0" style="stroke:#0173b2;stroke-opacity:0.2;"/>
    </defs>
    <g clip-path="url(#p4f182f5069)">
     <use style="fill:#0173b2;fill-opacity:0.2;stroke:#0173b2;stroke-opacity:0.2;" x="0" xlink:href="#mcb38a99ec0" y="467.698833"/>
    </g>
   </g>
   <g id="PolyCollection_21">
    <defs>
     <path d="M 302.797841 -156.262623 
L 302.797841 -140.081392 
L 318.036477 -120.463041 
L 333.275114 -107.86066 
L 348.51375 -117.716467 
L 363.752386 -107.301104 
L 378.991023 -113.137349 
L 394.229659 -110.386074 
L 409.468295 -101.498763 
L 424.706932 -97.824328 
L 424.706932 -131.275442 
L 424.706932 -131.275442 
L 409.468295 -128.069431 
L 394.229659 -133.475221 
L 378.991023 -153.319607 
L 363.752386 -153.752626 
L 348.51375 -137.148119 
L 333.275114 -143.788373 
L 318.036477 -145.060175 
L 302.797841 -156.262623 
z
" id="m6e4a71b1fc" style="stroke:#de8f05;stroke-opacity:0.2;"/>
    </defs>
    <g clip-path="url(#p4f182f5069)">
     <use style="fill:#de8f05;fill-opacity:0.2;stroke:#de8f05;stroke-opacity:0.2;" x="0" xlink:href="#m6e4a71b1fc" y="467.698833"/>
    </g>
   </g>
   <g id="PolyCollection_22">
    <defs>
     <path d="M 272.320568 -175.763854 
L 272.320568 -131.206873 
L 287.559205 -117.426197 
L 318.036477 -101.403061 
L 333.275114 -96.611103 
L 348.51375 -98.382669 
L 363.752386 -97.45291 
L 378.991023 -88.717619 
L 394.229659 -94.959088 
L 409.468295 -87.119162 
L 424.706932 -84.379788 
L 424.706932 -101.968001 
L 424.706932 -101.968001 
L 409.468295 -109.062392 
L 394.229659 -110.247383 
L 378.991023 -105.747397 
L 363.752386 -115.821058 
L 348.51375 -122.085588 
L 333.275114 -127.420773 
L 318.036477 -142.348236 
L 287.559205 -144.436994 
L 272.320568 -175.763854 
z
" id="m8a02e7be56" style="stroke:#029e73;stroke-opacity:0.2;"/>
    </defs>
    <g clip-path="url(#p4f182f5069)">
     <use style="fill:#029e73;fill-opacity:0.2;stroke:#029e73;stroke-opacity:0.2;" x="0" xlink:href="#m8a02e7be56" y="467.698833"/>
    </g>
   </g>
   <g id="matplotlib.axis_7">
    <g id="xtick_26">
     <g id="line2d_70">
      <g>
       <use style="stroke:#000000;stroke-width:0.8;" x="272.320568" xlink:href="#m9c6f14e88f" y="423.09227"/>
      </g>
     </g>
     <g id="text_37">
      <!-- 120 -->
      <g transform="translate(268.250285 446.950138)rotate(-45)scale(0.1 -0.1)">
       <use xlink:href="#ArialMT-31"/>
       <use x="55.615234" xlink:href="#ArialMT-32"/>
       <use x="111.230469" xlink:href="#ArialMT-30"/>
      </g>
     </g>
    </g>
    <g id="xtick_27">
     <g id="line2d_71">
      <g>
       <use style="stroke:#000000;stroke-width:0.8;" x="287.559205" xlink:href="#m9c6f14e88f" y="423.09227"/>
      </g>
     </g>
     <g id="text_38">
      <!-- 180 -->
      <g transform="translate(283.488921 446.950138)rotate(-45)scale(0.1 -0.1)">
       <use xlink:href="#ArialMT-31"/>
       <use x="55.615234" xlink:href="#ArialMT-38"/>
       <use x="111.230469" xlink:href="#ArialMT-30"/>
      </g>
     </g>
    </g>
    <g id="xtick_28">
     <g id="line2d_72">
      <g>
       <use style="stroke:#000000;stroke-width:0.8;" x="302.797841" xlink:href="#m9c6f14e88f" y="423.09227"/>
      </g>
     </g>
     <g id="text_39">
      <!-- 190 -->
      <g transform="translate(298.727557 446.950138)rotate(-45)scale(0.1 -0.1)">
       <use xlink:href="#ArialMT-31"/>
       <use x="55.615234" xlink:href="#ArialMT-39"/>
       <use x="111.230469" xlink:href="#ArialMT-30"/>
      </g>
     </g>
    </g>
    <g id="xtick_29">
     <g id="line2d_73">
      <g>
       <use style="stroke:#000000;stroke-width:0.8;" x="318.036477" xlink:href="#m9c6f14e88f" y="423.09227"/>
      </g>
     </g>
     <g id="text_40">
      <!-- 240 -->
      <g transform="translate(313.966194 446.950138)rotate(-45)scale(0.1 -0.1)">
       <use xlink:href="#ArialMT-32"/>
       <use x="55.615234" xlink:href="#ArialMT-34"/>
       <use x="111.230469" xlink:href="#ArialMT-30"/>
      </g>
     </g>
    </g>
    <g id="xtick_30">
     <g id="line2d_74">
      <g>
       <use style="stroke:#000000;stroke-width:0.8;" x="333.275114" xlink:href="#m9c6f14e88f" y="423.09227"/>
      </g>
     </g>
     <g id="text_41">
      <!-- 300 -->
      <g transform="translate(329.20483 446.950138)rotate(-45)scale(0.1 -0.1)">
       <use xlink:href="#ArialMT-33"/>
       <use x="55.615234" xlink:href="#ArialMT-30"/>
       <use x="111.230469" xlink:href="#ArialMT-30"/>
      </g>
     </g>
    </g>
    <g id="xtick_31">
     <g id="line2d_75">
      <g>
       <use style="stroke:#000000;stroke-width:0.8;" x="348.51375" xlink:href="#m9c6f14e88f" y="423.09227"/>
      </g>
     </g>
     <g id="text_42">
      <!-- 360 -->
      <g transform="translate(344.443467 446.950138)rotate(-45)scale(0.1 -0.1)">
       <use xlink:href="#ArialMT-33"/>
       <use x="55.615234" xlink:href="#ArialMT-36"/>
       <use x="111.230469" xlink:href="#ArialMT-30"/>
      </g>
     </g>
    </g>
    <g id="xtick_32">
     <g id="line2d_76">
      <g>
       <use style="stroke:#000000;stroke-width:0.8;" x="363.752386" xlink:href="#m9c6f14e88f" y="423.09227"/>
      </g>
     </g>
     <g id="text_43">
      <!-- 420 -->
      <g transform="translate(359.682103 446.950138)rotate(-45)scale(0.1 -0.1)">
       <use xlink:href="#ArialMT-34"/>
       <use x="55.615234" xlink:href="#ArialMT-32"/>
       <use x="111.230469" xlink:href="#ArialMT-30"/>
      </g>
     </g>
    </g>
    <g id="xtick_33">
     <g id="line2d_77">
      <g>
       <use style="stroke:#000000;stroke-width:0.8;" x="378.991023" xlink:href="#m9c6f14e88f" y="423.09227"/>
      </g>
     </g>
     <g id="text_44">
      <!-- 480 -->
      <g transform="translate(374.920739 446.950138)rotate(-45)scale(0.1 -0.1)">
       <use xlink:href="#ArialMT-34"/>
       <use x="55.615234" xlink:href="#ArialMT-38"/>
       <use x="111.230469" xlink:href="#ArialMT-30"/>
      </g>
     </g>
    </g>
    <g id="xtick_34">
     <g id="line2d_78">
      <g>
       <use style="stroke:#000000;stroke-width:0.8;" x="394.229659" xlink:href="#m9c6f14e88f" y="423.09227"/>
      </g>
     </g>
     <g id="text_45">
      <!-- 540 -->
      <g transform="translate(390.159376 446.950138)rotate(-45)scale(0.1 -0.1)">
       <use xlink:href="#ArialMT-35"/>
       <use x="55.615234" xlink:href="#ArialMT-34"/>
       <use x="111.230469" xlink:href="#ArialMT-30"/>
      </g>
     </g>
    </g>
    <g id="xtick_35">
     <g id="line2d_79">
      <g>
       <use style="stroke:#000000;stroke-width:0.8;" x="409.468295" xlink:href="#m9c6f14e88f" y="423.09227"/>
      </g>
     </g>
     <g id="text_46">
      <!-- 600 -->
      <g transform="translate(405.398012 446.950138)rotate(-45)scale(0.1 -0.1)">
       <use xlink:href="#ArialMT-36"/>
       <use x="55.615234" xlink:href="#ArialMT-30"/>
       <use x="111.230469" xlink:href="#ArialMT-30"/>
      </g>
     </g>
    </g>
    <g id="xtick_36">
     <g id="line2d_80">
      <g>
       <use style="stroke:#000000;stroke-width:0.8;" x="424.706932" xlink:href="#m9c6f14e88f" y="423.09227"/>
      </g>
     </g>
     <g id="text_47">
      <!-- 660 -->
      <g transform="translate(420.636648 446.950138)rotate(-45)scale(0.1 -0.1)">
       <use xlink:href="#ArialMT-36"/>
       <use x="55.615234" xlink:href="#ArialMT-36"/>
       <use x="111.230469" xlink:href="#ArialMT-30"/>
      </g>
     </g>
    </g>
   </g>
   <g id="matplotlib.axis_8">
    <g id="ytick_23">
     <g id="line2d_81">
      <g>
       <use style="stroke:#000000;stroke-width:0.8;" x="264.70125" xlink:href="#mb6175b138b" y="423.09227"/>
      </g>
     </g>
     <g id="text_48">
      <!-- 0 -->
      <g transform="translate(252.140313 426.671176)scale(0.1 -0.1)">
       <use xlink:href="#ArialMT-30"/>
      </g>
     </g>
    </g>
    <g id="ytick_24">
     <g id="line2d_82">
      <g>
       <use style="stroke:#000000;stroke-width:0.8;" x="264.70125" xlink:href="#mb6175b138b" y="397.436494"/>
      </g>
     </g>
     <g id="text_49">
      <!-- 2 -->
      <g transform="translate(252.140313 401.0154)scale(0.1 -0.1)">
       <use xlink:href="#ArialMT-32"/>
      </g>
     </g>
    </g>
    <g id="ytick_25">
     <g id="line2d_83">
      <g>
       <use style="stroke:#000000;stroke-width:0.8;" x="264.70125" xlink:href="#mb6175b138b" y="371.780717"/>
      </g>
     </g>
     <g id="text_50">
      <!-- 4 -->
      <g transform="translate(252.140313 375.359624)scale(0.1 -0.1)">
       <use xlink:href="#ArialMT-34"/>
      </g>
     </g>
    </g>
    <g id="ytick_26">
     <g id="line2d_84">
      <g>
       <use style="stroke:#000000;stroke-width:0.8;" x="264.70125" xlink:href="#mb6175b138b" y="346.124941"/>
      </g>
     </g>
     <g id="text_51">
      <!-- 6 -->
      <g transform="translate(252.140313 349.703847)scale(0.1 -0.1)">
       <use xlink:href="#ArialMT-36"/>
      </g>
     </g>
    </g>
    <g id="ytick_27">
     <g id="line2d_85">
      <g>
       <use style="stroke:#000000;stroke-width:0.8;" x="264.70125" xlink:href="#mb6175b138b" y="320.469165"/>
      </g>
     </g>
     <g id="text_52">
      <!-- 8 -->
      <g transform="translate(252.140313 324.048071)scale(0.1 -0.1)">
       <use xlink:href="#ArialMT-38"/>
      </g>
     </g>
    </g>
    <g id="ytick_28">
     <g id="line2d_86">
      <g>
       <use style="stroke:#000000;stroke-width:0.8;" x="264.70125" xlink:href="#mb6175b138b" y="294.813388"/>
      </g>
     </g>
     <g id="text_53">
      <!-- 10 -->
      <g transform="translate(246.579375 298.392295)scale(0.1 -0.1)">
       <use xlink:href="#ArialMT-31"/>
       <use x="55.615234" xlink:href="#ArialMT-30"/>
      </g>
     </g>
    </g>
    <g id="ytick_29">
     <g id="line2d_87">
      <g>
       <use style="stroke:#000000;stroke-width:0.8;" x="264.70125" xlink:href="#mb6175b138b" y="269.157612"/>
      </g>
     </g>
     <g id="text_54">
      <!-- 12 -->
      <g transform="translate(246.579375 272.736518)scale(0.1 -0.1)">
       <use xlink:href="#ArialMT-31"/>
       <use x="55.615234" xlink:href="#ArialMT-32"/>
      </g>
     </g>
    </g>
    <g id="ytick_30">
     <g id="line2d_88">
      <g>
       <use style="stroke:#000000;stroke-width:0.8;" x="264.70125" xlink:href="#mb6175b138b" y="243.501836"/>
      </g>
     </g>
     <g id="text_55">
      <!-- 14 -->
      <g transform="translate(246.579375 247.080742)scale(0.1 -0.1)">
       <use xlink:href="#ArialMT-31"/>
       <use x="55.615234" xlink:href="#ArialMT-34"/>
      </g>
     </g>
    </g>
   </g>
   <g id="line2d_89">
    <path clip-path="url(#p4f182f5069)" d="M 302.797841 237.342694 
L 318.036477 276.786186 
L 333.275114 301.273533 
L 348.51375 316.133394 
L 363.752386 304.972103 
L 378.991023 329.694152 
L 394.229659 333.146485 
L 409.468295 337.482175 
L 424.706932 342.497375 
" style="fill:none;stroke:#0173b2;stroke-linecap:square;stroke-opacity:0.65;stroke-width:2;"/>
   </g>
   <g id="line2d_90">
    <path clip-path="url(#p4f182f5069)" d="M 302.797841 319.526825 
L 318.036477 334.937225 
L 333.275114 341.874316 
L 348.51375 340.26654 
L 363.752386 337.171968 
L 378.991023 334.470355 
L 394.229659 345.768185 
L 409.468295 352.914736 
L 424.706932 353.148947 
" style="fill:none;stroke:#de8f05;stroke-dasharray:8,3;stroke-dashoffset:0;stroke-opacity:0.65;stroke-width:2;"/>
   </g>
   <g id="line2d_91">
    <path clip-path="url(#p4f182f5069)" d="M 272.320568 314.213469 
L 287.559205 336.767237 
L 318.036477 345.823184 
L 333.275114 355.682894 
L 348.51375 357.464704 
L 363.752386 361.061849 
L 378.991023 370.466324 
L 394.229659 365.095597 
L 409.468295 369.608056 
L 424.706932 374.524938 
" style="fill:none;stroke:#029e73;stroke-dasharray:2,2;stroke-dashoffset:0;stroke-opacity:0.65;stroke-width:2;"/>
   </g>
   <g id="line2d_92">
    <path clip-path="url(#p4f182f5069)" d="M 302.797841 278.434759 
L 318.036477 319.182198 
L 333.275114 332.943581 
L 348.51375 337.954879 
L 363.752386 334.401973 
L 378.991023 344.876944 
L 394.229659 348.003423 
L 409.468295 353.334989 
L 424.706932 356.723754 
" style="fill:none;stroke:#ff00ff;stroke-linecap:square;stroke-width:4;"/>
    <g clip-path="url(#p4f182f5069)">
     <use style="fill:#ff00ff;stroke:#ffffff;stroke-linejoin:miter;stroke-width:0.75;" x="302.797841" xlink:href="#m1068b49519" y="278.434759"/>
     <use style="fill:#ff00ff;stroke:#ffffff;stroke-linejoin:miter;stroke-width:0.75;" x="318.036477" xlink:href="#m1068b49519" y="319.182198"/>
     <use style="fill:#ff00ff;stroke:#ffffff;stroke-linejoin:miter;stroke-width:0.75;" x="333.275114" xlink:href="#m1068b49519" y="332.943581"/>
     <use style="fill:#ff00ff;stroke:#ffffff;stroke-linejoin:miter;stroke-width:0.75;" x="348.51375" xlink:href="#m1068b49519" y="337.954879"/>
     <use style="fill:#ff00ff;stroke:#ffffff;stroke-linejoin:miter;stroke-width:0.75;" x="363.752386" xlink:href="#m1068b49519" y="334.401973"/>
     <use style="fill:#ff00ff;stroke:#ffffff;stroke-linejoin:miter;stroke-width:0.75;" x="378.991023" xlink:href="#m1068b49519" y="344.876944"/>
     <use style="fill:#ff00ff;stroke:#ffffff;stroke-linejoin:miter;stroke-width:0.75;" x="394.229659" xlink:href="#m1068b49519" y="348.003423"/>
     <use style="fill:#ff00ff;stroke:#ffffff;stroke-linejoin:miter;stroke-width:0.75;" x="409.468295" xlink:href="#m1068b49519" y="353.334989"/>
     <use style="fill:#ff00ff;stroke:#ffffff;stroke-linejoin:miter;stroke-width:0.75;" x="424.706932" xlink:href="#m1068b49519" y="356.723754"/>
    </g>
   </g>
   <g id="patch_21">
    <path d="M 264.70125 423.09227 
L 264.70125 230.673948 
" style="fill:none;stroke:#000000;stroke-linecap:square;stroke-linejoin:miter;stroke-width:0.8;"/>
   </g>
   <g id="patch_22">
    <path d="M 432.32625 423.09227 
L 432.32625 230.673948 
" style="fill:none;stroke:#000000;stroke-linecap:square;stroke-linejoin:miter;stroke-width:0.8;"/>
   </g>
   <g id="patch_23">
    <path d="M 264.70125 423.09227 
L 432.32625 423.09227 
" style="fill:none;stroke:#000000;stroke-linecap:square;stroke-linejoin:miter;stroke-width:0.8;"/>
   </g>
   <g id="patch_24">
    <path d="M 264.70125 230.673948 
L 432.32625 230.673948 
" style="fill:none;stroke:#000000;stroke-linecap:square;stroke-linejoin:miter;stroke-width:0.8;"/>
   </g>
   <g id="patch_25">
    <path d="M 438.330946 356.723754 
Q 436.329869 356.723754 435.446827 356.723754 
" style="fill:none;stroke:#000000;stroke-linecap:round;"/>
    <path d="M 439.446827 358.723754 
L 435.446827 356.723754 
L 439.446827 354.723754 
" style="fill:none;stroke:#000000;stroke-linecap:round;"/>
   </g>
   <g id="text_56">
    <!-- 5.17 -->
    <g transform="translate(442.32625 359.30891)scale(0.1 -0.1)">
     <use xlink:href="#ArialMT-35"/>
     <use x="55.615234" xlink:href="#ArialMT-2e"/>
     <use x="83.398438" xlink:href="#ArialMT-31"/>
     <use x="139.013672" xlink:href="#ArialMT-37"/>
    </g>
   </g>
  </g>
  <g id="axes_5">
   <g id="matplotlib.axis_9">
    <g id="xtick_37">
     <g id="text_57">
      <!-- 0.0 -->
      <g style="opacity:0;" transform="translate(31.75625 437.250083)scale(0.1 -0.1)">
       <use xlink:href="#ArialMT-30"/>
       <use x="55.615234" xlink:href="#ArialMT-2e"/>
       <use x="83.398438" xlink:href="#ArialMT-30"/>
      </g>
     </g>
    </g>
    <g id="xtick_38">
     <g id="text_58">
      <!-- 0.2 -->
      <g style="opacity:0;" transform="translate(110.48025 437.250083)scale(0.1 -0.1)">
       <use xlink:href="#ArialMT-30"/>
       <use x="55.615234" xlink:href="#ArialMT-2e"/>
       <use x="83.398438" xlink:href="#ArialMT-32"/>
      </g>
     </g>
    </g>
    <g id="xtick_39">
     <g id="text_59">
      <!-- 0.4 -->
      <g style="opacity:0;" transform="translate(189.20425 437.250083)scale(0.1 -0.1)">
       <use xlink:href="#ArialMT-30"/>
       <use x="55.615234" xlink:href="#ArialMT-2e"/>
       <use x="83.398438" xlink:href="#ArialMT-34"/>
      </g>
     </g>
    </g>
    <g id="xtick_40">
     <g id="text_60">
      <!-- 0.6 -->
      <g style="opacity:0;" transform="translate(267.92825 437.250083)scale(0.1 -0.1)">
       <use xlink:href="#ArialMT-30"/>
       <use x="55.615234" xlink:href="#ArialMT-2e"/>
       <use x="83.398438" xlink:href="#ArialMT-36"/>
      </g>
     </g>
    </g>
    <g id="xtick_41">
     <g id="text_61">
      <!-- 0.8 -->
      <g style="opacity:0;" transform="translate(346.65225 437.250083)scale(0.1 -0.1)">
       <use xlink:href="#ArialMT-30"/>
       <use x="55.615234" xlink:href="#ArialMT-2e"/>
       <use x="83.398438" xlink:href="#ArialMT-38"/>
      </g>
     </g>
    </g>
    <g id="xtick_42">
     <g id="text_62">
      <!-- 1.0 -->
      <g style="opacity:0;" transform="translate(425.37625 437.250083)scale(0.1 -0.1)">
       <use xlink:href="#ArialMT-31"/>
       <use x="55.615234" xlink:href="#ArialMT-2e"/>
       <use x="83.398438" xlink:href="#ArialMT-30"/>
      </g>
     </g>
    </g>
    <g id="text_63">
     <!-- Training Set Duration (s) -->
     <g transform="translate(170.387188 457.973208)scale(0.12 -0.12)">
      <defs>
       <path d="M 1659 0 
L 1659 4041 
L 150 4041 
L 150 4581 
L 3781 4581 
L 3781 4041 
L 2266 4041 
L 2266 0 
L 1659 0 
z
" id="ArialMT-54" transform="scale(0.015625)"/>
       <path d="M 494 0 
L 494 4581 
L 2072 4581 
Q 2606 4581 2888 4516 
Q 3281 4425 3559 4188 
Q 3922 3881 4101 3404 
Q 4281 2928 4281 2316 
Q 4281 1794 4159 1391 
Q 4038 988 3847 723 
Q 3656 459 3429 307 
Q 3203 156 2883 78 
Q 2563 0 2147 0 
L 494 0 
z
M 1100 541 
L 2078 541 
Q 2531 541 2789 625 
Q 3047 709 3200 863 
Q 3416 1078 3536 1442 
Q 3656 1806 3656 2325 
Q 3656 3044 3420 3430 
Q 3184 3816 2847 3947 
Q 2603 4041 2063 4041 
L 1100 4041 
L 1100 541 
z
" id="ArialMT-44" transform="scale(0.015625)"/>
       <path d="M 2597 0 
L 2597 488 
Q 2209 -75 1544 -75 
Q 1250 -75 995 37 
Q 741 150 617 320 
Q 494 491 444 738 
Q 409 903 409 1263 
L 409 3319 
L 972 3319 
L 972 1478 
Q 972 1038 1006 884 
Q 1059 663 1231 536 
Q 1403 409 1656 409 
Q 1909 409 2131 539 
Q 2353 669 2445 892 
Q 2538 1116 2538 1541 
L 2538 3319 
L 3100 3319 
L 3100 0 
L 2597 0 
z
" id="ArialMT-75" transform="scale(0.015625)"/>
      </defs>
      <use xlink:href="#ArialMT-54"/>
      <use x="57.333984" xlink:href="#ArialMT-72"/>
      <use x="90.634766" xlink:href="#ArialMT-61"/>
      <use x="146.25" xlink:href="#ArialMT-69"/>
      <use x="168.466797" xlink:href="#ArialMT-6e"/>
      <use x="224.082031" xlink:href="#ArialMT-69"/>
      <use x="246.298828" xlink:href="#ArialMT-6e"/>
      <use x="301.914062" xlink:href="#ArialMT-67"/>
      <use x="357.529297" xlink:href="#ArialMT-20"/>
      <use x="385.3125" xlink:href="#ArialMT-53"/>
      <use x="452.011719" xlink:href="#ArialMT-65"/>
      <use x="507.626953" xlink:href="#ArialMT-74"/>
      <use x="535.410156" xlink:href="#ArialMT-20"/>
      <use x="563.193359" xlink:href="#ArialMT-44"/>
      <use x="635.410156" xlink:href="#ArialMT-75"/>
      <use x="691.025391" xlink:href="#ArialMT-72"/>
      <use x="724.326172" xlink:href="#ArialMT-61"/>
      <use x="779.941406" xlink:href="#ArialMT-74"/>
      <use x="807.724609" xlink:href="#ArialMT-69"/>
      <use x="829.941406" xlink:href="#ArialMT-6f"/>
      <use x="885.556641" xlink:href="#ArialMT-6e"/>
      <use x="941.171875" xlink:href="#ArialMT-20"/>
      <use x="968.955078" xlink:href="#ArialMT-28"/>
      <use x="1002.255859" xlink:href="#ArialMT-73"/>
      <use x="1052.255859" xlink:href="#ArialMT-29"/>
     </g>
    </g>
   </g>
   <g id="matplotlib.axis_10">
    <g id="ytick_31">
     <g id="text_64">
      <!-- 0.0 -->
      <g style="opacity:0;" transform="translate(17.80625 426.671176)scale(0.1 -0.1)">
       <use xlink:href="#ArialMT-30"/>
       <use x="55.615234" xlink:href="#ArialMT-2e"/>
       <use x="83.398438" xlink:href="#ArialMT-30"/>
      </g>
     </g>
    </g>
    <g id="ytick_32">
     <g id="text_65">
      <!-- 0.2 -->
      <g style="opacity:0;" transform="translate(17.80625 346.439847)scale(0.1 -0.1)">
       <use xlink:href="#ArialMT-30"/>
       <use x="55.615234" xlink:href="#ArialMT-2e"/>
       <use x="83.398438" xlink:href="#ArialMT-32"/>
      </g>
     </g>
    </g>
    <g id="ytick_33">
     <g id="text_66">
      <!-- 0.4 -->
      <g style="opacity:0;" transform="translate(17.80625 266.208518)scale(0.1 -0.1)">
       <use xlink:href="#ArialMT-30"/>
       <use x="55.615234" xlink:href="#ArialMT-2e"/>
       <use x="83.398438" xlink:href="#ArialMT-34"/>
      </g>
     </g>
    </g>
    <g id="ytick_34">
     <g id="text_67">
      <!-- 0.6 -->
      <g style="opacity:0;" transform="translate(17.80625 185.977189)scale(0.1 -0.1)">
       <use xlink:href="#ArialMT-30"/>
       <use x="55.615234" xlink:href="#ArialMT-2e"/>
       <use x="83.398438" xlink:href="#ArialMT-36"/>
      </g>
     </g>
    </g>
    <g id="ytick_35">
     <g id="text_68">
      <!-- 0.8 -->
      <g style="opacity:0;" transform="translate(17.80625 105.74586)scale(0.1 -0.1)">
       <use xlink:href="#ArialMT-30"/>
       <use x="55.615234" xlink:href="#ArialMT-2e"/>
       <use x="83.398438" xlink:href="#ArialMT-38"/>
      </g>
     </g>
    </g>
    <g id="ytick_36">
     <g id="text_69">
      <!-- 1.0 -->
      <g style="opacity:0;" transform="translate(17.80625 25.514531)scale(0.1 -0.1)">
       <use xlink:href="#ArialMT-31"/>
       <use x="55.615234" xlink:href="#ArialMT-2e"/>
       <use x="83.398438" xlink:href="#ArialMT-30"/>
      </g>
     </g>
    </g>
   </g>
  </g>
 </g>
 <defs>
  <clipPath id="p949dca5c53">
   <rect height="192.418323" width="167.625" x="38.70625" y="21.935625"/>
  </clipPath>
  <clipPath id="pcaf1d8cef3">
   <rect height="192.418323" width="167.625" x="264.70125" y="21.935625"/>
  </clipPath>
  <clipPath id="p4bff879bf2">
   <rect height="192.418323" width="167.625" x="38.70625" y="230.673948"/>
  </clipPath>
  <clipPath id="p4f182f5069">
   <rect height="192.418323" width="167.625" x="264.70125" y="230.673948"/>
  </clipPath>
 </defs>
</svg>
