<?xml version="1.0" encoding="utf-8" standalone="no"?>
<!DOCTYPE svg PUBLIC "-//W3C//DTD SVG 1.1//EN"
  "http://www.w3.org/Graphics/SVG/1.1/DTD/svg11.dtd">
<svg height="378.383563pt" version="1.1" viewBox="0 0 545.73525 378.383563" width="545.73525pt" xmlns="http://www.w3.org/2000/svg" xmlns:xlink="http://www.w3.org/1999/xlink">
 <metadata>
  <rdf:RDF xmlns:cc="http://creativecommons.org/ns#" xmlns:dc="http://purl.org/dc/elements/1.1/" xmlns:rdf="http://www.w3.org/1999/02/22-rdf-syntax-ns#">
   <cc:Work>
    <dc:type rdf:resource="http://purl.org/dc/dcmitype/StillImage"/>
    <dc:date>2021-12-25T11:43:28.271084</dc:date>
    <dc:format>image/svg+xml</dc:format>
    <dc:creator>
     <cc:Agent>
      <dc:title>Matplotlib v3.4.1, https://matplotlib.org/</dc:title>
     </cc:Agent>
    </dc:creator>
   </cc:Work>
  </rdf:RDF>
 </metadata>
 <defs>
  <style type="text/css">*{stroke-linecap:butt;stroke-linejoin:round;}</style>
 </defs>
 <g id="figure_1">
  <g id="patch_1">
   <path d="M 0 378.383563 
L 545.73525 378.383563 
L 545.73525 0 
L 0 0 
z
" style="fill:none;"/>
  </g>
  <g id="axes_1">
   <g id="patch_2">
    <path d="M 194.56125 159.58275 
L 346.743068 159.58275 
L 346.743068 23.68275 
L 194.56125 23.68275 
z
" style="fill:#ffffff;"/>
   </g>
   <g id="patch_3">
    <path clip-path="url(#p91409cad68)" d="M 199.836886 129.905588 
L 219.721977 129.905588 
L 219.721977 125.880175 
L 199.836886 125.880175 
L 199.836886 129.905588 
z
" style="fill:#68afd7;stroke:#565656;stroke-linejoin:miter;stroke-width:1.2;"/>
   </g>
   <g id="patch_4">
    <path clip-path="url(#p91409cad68)" d="M 220.127795 127.60461 
L 240.012886 127.60461 
L 240.012886 122.034573 
L 220.127795 122.034573 
L 220.127795 127.60461 
z
" style="fill:#d5cd4a;stroke:#565656;stroke-linejoin:miter;stroke-width:1.2;"/>
   </g>
   <g id="patch_5">
    <path clip-path="url(#p91409cad68)" d="M 250.564159 131.983231 
L 270.44925 131.983231 
L 270.44925 127.848965 
L 250.564159 127.848965 
L 250.564159 131.983231 
z
" style="fill:#68afd7;stroke:#565656;stroke-linejoin:miter;stroke-width:1.2;"/>
   </g>
   <g id="patch_6">
    <path clip-path="url(#p91409cad68)" d="M 270.855068 130.155418 
L 290.740159 130.155418 
L 290.740159 125.3208 
L 270.855068 125.3208 
L 270.855068 130.155418 
z
" style="fill:#d5cd4a;stroke:#565656;stroke-linejoin:miter;stroke-width:1.2;"/>
   </g>
   <g id="patch_7">
    <path clip-path="url(#p91409cad68)" d="M 301.291432 131.527598 
L 321.176523 131.527598 
L 321.176523 127.306771 
L 301.291432 127.306771 
L 301.291432 131.527598 
z
" style="fill:#68afd7;stroke:#565656;stroke-linejoin:miter;stroke-width:1.2;"/>
   </g>
   <g id="patch_8">
    <path clip-path="url(#p91409cad68)" d="M 321.582341 130.771615 
L 341.467432 130.771615 
L 341.467432 124.823532 
L 321.582341 124.823532 
L 321.582341 130.771615 
z
" style="fill:#d5cd4a;stroke:#565656;stroke-linejoin:miter;stroke-width:1.2;"/>
   </g>
   <g id="patch_9">
    <path clip-path="url(#p91409cad68)" d="M 219.924886 159.58275 
L 219.924886 159.58275 
L 219.924886 159.58275 
L 219.924886 159.58275 
z
" style="fill:#68afd7;stroke:#565656;stroke-linejoin:miter;stroke-width:0.6;"/>
   </g>
   <g id="patch_10">
    <path clip-path="url(#p91409cad68)" d="M 219.924886 159.58275 
L 219.924886 159.58275 
L 219.924886 159.58275 
L 219.924886 159.58275 
z
" style="fill:#d5cd4a;stroke:#565656;stroke-linejoin:miter;stroke-width:0.6;"/>
   </g>
   <g id="matplotlib.axis_1">
    <g id="xtick_1">
     <g id="line2d_1">
      <defs>
       <path d="M 0 0 
L 0 4.8 
" id="m6ff7d4c3c5" style="stroke:#000000;"/>
      </defs>
      <g>
       <use style="stroke:#000000;" x="219.924886" xlink:href="#m6ff7d4c3c5" y="159.58275"/>
      </g>
     </g>
    </g>
    <g id="xtick_2">
     <g id="line2d_2">
      <g>
       <use style="stroke:#000000;" x="270.652159" xlink:href="#m6ff7d4c3c5" y="159.58275"/>
      </g>
     </g>
    </g>
    <g id="xtick_3">
     <g id="line2d_3">
      <g>
       <use style="stroke:#000000;" x="321.379432" xlink:href="#m6ff7d4c3c5" y="159.58275"/>
      </g>
     </g>
    </g>
   </g>
   <g id="matplotlib.axis_2">
    <g id="ytick_1">
     <g id="line2d_4">
      <defs>
       <path d="M 0 0 
L -4.8 0 
" id="md44b2874ca" style="stroke:#000000;"/>
      </defs>
      <g>
       <use style="stroke:#000000;" x="194.56125" xlink:href="#md44b2874ca" y="159.58275"/>
      </g>
     </g>
     <g id="text_1">
      <!-- 0 -->
      <g transform="translate(182.320812 164.306906)scale(0.132 -0.132)">
       <defs>
        <path d="M 266 2259 
Q 266 3072 433 3567 
Q 600 4063 929 4331 
Q 1259 4600 1759 4600 
Q 2128 4600 2406 4451 
Q 2684 4303 2865 4023 
Q 3047 3744 3150 3342 
Q 3253 2941 3253 2259 
Q 3253 1453 3087 958 
Q 2922 463 2592 192 
Q 2263 -78 1759 -78 
Q 1097 -78 719 397 
Q 266 969 266 2259 
z
M 844 2259 
Q 844 1131 1108 757 
Q 1372 384 1759 384 
Q 2147 384 2411 759 
Q 2675 1134 2675 2259 
Q 2675 3391 2411 3762 
Q 2147 4134 1753 4134 
Q 1366 4134 1134 3806 
Q 844 3388 844 2259 
z
" id="ArialMT-30" transform="scale(0.015625)"/>
       </defs>
       <use xlink:href="#ArialMT-30"/>
      </g>
     </g>
    </g>
    <g id="ytick_2">
     <g id="line2d_5">
      <g>
       <use style="stroke:#000000;" x="194.56125" xlink:href="#md44b2874ca" y="120.754179"/>
      </g>
     </g>
     <g id="text_2">
      <!-- 2 -->
      <g transform="translate(182.320812 125.478335)scale(0.132 -0.132)">
       <defs>
        <path d="M 3222 541 
L 3222 0 
L 194 0 
Q 188 203 259 391 
Q 375 700 629 1000 
Q 884 1300 1366 1694 
Q 2113 2306 2375 2664 
Q 2638 3022 2638 3341 
Q 2638 3675 2398 3904 
Q 2159 4134 1775 4134 
Q 1369 4134 1125 3890 
Q 881 3647 878 3216 
L 300 3275 
Q 359 3922 746 4261 
Q 1134 4600 1788 4600 
Q 2447 4600 2831 4234 
Q 3216 3869 3216 3328 
Q 3216 3053 3103 2787 
Q 2991 2522 2730 2228 
Q 2469 1934 1863 1422 
Q 1356 997 1212 845 
Q 1069 694 975 541 
L 3222 541 
z
" id="ArialMT-32" transform="scale(0.015625)"/>
       </defs>
       <use xlink:href="#ArialMT-32"/>
      </g>
     </g>
    </g>
    <g id="ytick_3">
     <g id="line2d_6">
      <g>
       <use style="stroke:#000000;" x="194.56125" xlink:href="#md44b2874ca" y="81.925607"/>
      </g>
     </g>
     <g id="text_3">
      <!-- 4 -->
      <g transform="translate(182.320812 86.649763)scale(0.132 -0.132)">
       <defs>
        <path d="M 2069 0 
L 2069 1097 
L 81 1097 
L 81 1613 
L 2172 4581 
L 2631 4581 
L 2631 1613 
L 3250 1613 
L 3250 1097 
L 2631 1097 
L 2631 0 
L 2069 0 
z
M 2069 1613 
L 2069 3678 
L 634 1613 
L 2069 1613 
z
" id="ArialMT-34" transform="scale(0.015625)"/>
       </defs>
       <use xlink:href="#ArialMT-34"/>
      </g>
     </g>
    </g>
    <g id="ytick_4">
     <g id="line2d_7">
      <g>
       <use style="stroke:#000000;" x="194.56125" xlink:href="#md44b2874ca" y="43.097036"/>
      </g>
     </g>
     <g id="text_4">
      <!-- 6 -->
      <g transform="translate(182.320812 47.821192)scale(0.132 -0.132)">
       <defs>
        <path d="M 3184 3459 
L 2625 3416 
Q 2550 3747 2413 3897 
Q 2184 4138 1850 4138 
Q 1581 4138 1378 3988 
Q 1113 3794 959 3422 
Q 806 3050 800 2363 
Q 1003 2672 1297 2822 
Q 1591 2972 1913 2972 
Q 2475 2972 2870 2558 
Q 3266 2144 3266 1488 
Q 3266 1056 3080 686 
Q 2894 316 2569 119 
Q 2244 -78 1831 -78 
Q 1128 -78 684 439 
Q 241 956 241 2144 
Q 241 3472 731 4075 
Q 1159 4600 1884 4600 
Q 2425 4600 2770 4297 
Q 3116 3994 3184 3459 
z
M 888 1484 
Q 888 1194 1011 928 
Q 1134 663 1356 523 
Q 1578 384 1822 384 
Q 2178 384 2434 671 
Q 2691 959 2691 1453 
Q 2691 1928 2437 2201 
Q 2184 2475 1800 2475 
Q 1419 2475 1153 2201 
Q 888 1928 888 1484 
z
" id="ArialMT-36" transform="scale(0.015625)"/>
       </defs>
       <use xlink:href="#ArialMT-36"/>
      </g>
     </g>
    </g>
    <g id="text_5">
     <!-- Frame -->
     <g transform="translate(144.219812 112.432875)rotate(-90)scale(0.144 -0.144)">
      <defs>
       <path d="M 525 0 
L 525 4581 
L 3616 4581 
L 3616 4041 
L 1131 4041 
L 1131 2622 
L 3281 2622 
L 3281 2081 
L 1131 2081 
L 1131 0 
L 525 0 
z
" id="ArialMT-46" transform="scale(0.015625)"/>
       <path d="M 416 0 
L 416 3319 
L 922 3319 
L 922 2816 
Q 1116 3169 1280 3281 
Q 1444 3394 1641 3394 
Q 1925 3394 2219 3213 
L 2025 2691 
Q 1819 2813 1613 2813 
Q 1428 2813 1281 2702 
Q 1134 2591 1072 2394 
Q 978 2094 978 1738 
L 978 0 
L 416 0 
z
" id="ArialMT-72" transform="scale(0.015625)"/>
       <path d="M 2588 409 
Q 2275 144 1986 34 
Q 1697 -75 1366 -75 
Q 819 -75 525 192 
Q 231 459 231 875 
Q 231 1119 342 1320 
Q 453 1522 633 1644 
Q 813 1766 1038 1828 
Q 1203 1872 1538 1913 
Q 2219 1994 2541 2106 
Q 2544 2222 2544 2253 
Q 2544 2597 2384 2738 
Q 2169 2928 1744 2928 
Q 1347 2928 1158 2789 
Q 969 2650 878 2297 
L 328 2372 
Q 403 2725 575 2942 
Q 747 3159 1072 3276 
Q 1397 3394 1825 3394 
Q 2250 3394 2515 3294 
Q 2781 3194 2906 3042 
Q 3031 2891 3081 2659 
Q 3109 2516 3109 2141 
L 3109 1391 
Q 3109 606 3145 398 
Q 3181 191 3288 0 
L 2700 0 
Q 2613 175 2588 409 
z
M 2541 1666 
Q 2234 1541 1622 1453 
Q 1275 1403 1131 1340 
Q 988 1278 909 1158 
Q 831 1038 831 891 
Q 831 666 1001 516 
Q 1172 366 1500 366 
Q 1825 366 2078 508 
Q 2331 650 2450 897 
Q 2541 1088 2541 1459 
L 2541 1666 
z
" id="ArialMT-61" transform="scale(0.015625)"/>
       <path d="M 422 0 
L 422 3319 
L 925 3319 
L 925 2853 
Q 1081 3097 1340 3245 
Q 1600 3394 1931 3394 
Q 2300 3394 2536 3241 
Q 2772 3088 2869 2813 
Q 3263 3394 3894 3394 
Q 4388 3394 4653 3120 
Q 4919 2847 4919 2278 
L 4919 0 
L 4359 0 
L 4359 2091 
Q 4359 2428 4304 2576 
Q 4250 2725 4106 2815 
Q 3963 2906 3769 2906 
Q 3419 2906 3187 2673 
Q 2956 2441 2956 1928 
L 2956 0 
L 2394 0 
L 2394 2156 
Q 2394 2531 2256 2718 
Q 2119 2906 1806 2906 
Q 1569 2906 1367 2781 
Q 1166 2656 1075 2415 
Q 984 2175 984 1722 
L 984 0 
L 422 0 
z
" id="ArialMT-6d" transform="scale(0.015625)"/>
       <path d="M 2694 1069 
L 3275 997 
Q 3138 488 2766 206 
Q 2394 -75 1816 -75 
Q 1088 -75 661 373 
Q 234 822 234 1631 
Q 234 2469 665 2931 
Q 1097 3394 1784 3394 
Q 2450 3394 2872 2941 
Q 3294 2488 3294 1666 
Q 3294 1616 3291 1516 
L 816 1516 
Q 847 969 1125 678 
Q 1403 388 1819 388 
Q 2128 388 2347 550 
Q 2566 713 2694 1069 
z
M 847 1978 
L 2700 1978 
Q 2663 2397 2488 2606 
Q 2219 2931 1791 2931 
Q 1403 2931 1139 2672 
Q 875 2413 847 1978 
z
" id="ArialMT-65" transform="scale(0.015625)"/>
      </defs>
      <use xlink:href="#ArialMT-46"/>
      <use x="61.083984" xlink:href="#ArialMT-72"/>
      <use x="94.384766" xlink:href="#ArialMT-61"/>
      <use x="150" xlink:href="#ArialMT-6d"/>
      <use x="233.300781" xlink:href="#ArialMT-65"/>
     </g>
     <!-- error (%) -->
     <g transform="translate(159.661113 120.03)rotate(-90)scale(0.144 -0.144)">
      <defs>
       <path d="M 213 1659 
Q 213 2581 725 3025 
Q 1153 3394 1769 3394 
Q 2453 3394 2887 2945 
Q 3322 2497 3322 1706 
Q 3322 1066 3130 698 
Q 2938 331 2570 128 
Q 2203 -75 1769 -75 
Q 1072 -75 642 372 
Q 213 819 213 1659 
z
M 791 1659 
Q 791 1022 1069 705 
Q 1347 388 1769 388 
Q 2188 388 2466 706 
Q 2744 1025 2744 1678 
Q 2744 2294 2464 2611 
Q 2184 2928 1769 2928 
Q 1347 2928 1069 2612 
Q 791 2297 791 1659 
z
" id="ArialMT-6f" transform="scale(0.015625)"/>
       <path id="ArialMT-20" transform="scale(0.015625)"/>
       <path d="M 1497 -1347 
Q 1031 -759 709 28 
Q 388 816 388 1659 
Q 388 2403 628 3084 
Q 909 3875 1497 4659 
L 1900 4659 
Q 1522 4009 1400 3731 
Q 1209 3300 1100 2831 
Q 966 2247 966 1656 
Q 966 153 1900 -1347 
L 1497 -1347 
z
" id="ArialMT-28" transform="scale(0.015625)"/>
       <path d="M 372 3481 
Q 372 3972 619 4315 
Q 866 4659 1334 4659 
Q 1766 4659 2048 4351 
Q 2331 4044 2331 3447 
Q 2331 2866 2045 2552 
Q 1759 2238 1341 2238 
Q 925 2238 648 2547 
Q 372 2856 372 3481 
z
M 1350 4272 
Q 1141 4272 1002 4090 
Q 863 3909 863 3425 
Q 863 2984 1003 2804 
Q 1144 2625 1350 2625 
Q 1563 2625 1702 2806 
Q 1841 2988 1841 3469 
Q 1841 3913 1700 4092 
Q 1559 4272 1350 4272 
z
M 1353 -169 
L 3859 4659 
L 4316 4659 
L 1819 -169 
L 1353 -169 
z
M 3334 1075 
Q 3334 1569 3581 1911 
Q 3828 2253 4300 2253 
Q 4731 2253 5014 1945 
Q 5297 1638 5297 1041 
Q 5297 459 5011 145 
Q 4725 -169 4303 -169 
Q 3888 -169 3611 142 
Q 3334 453 3334 1075 
z
M 4316 1866 
Q 4103 1866 3964 1684 
Q 3825 1503 3825 1019 
Q 3825 581 3965 400 
Q 4106 219 4313 219 
Q 4528 219 4667 400 
Q 4806 581 4806 1063 
Q 4806 1506 4665 1686 
Q 4525 1866 4316 1866 
z
" id="ArialMT-25" transform="scale(0.015625)"/>
       <path d="M 791 -1347 
L 388 -1347 
Q 1322 153 1322 1656 
Q 1322 2244 1188 2822 
Q 1081 3291 891 3722 
Q 769 4003 388 4659 
L 791 4659 
Q 1378 3875 1659 3084 
Q 1900 2403 1900 1659 
Q 1900 816 1576 28 
Q 1253 -759 791 -1347 
z
" id="ArialMT-29" transform="scale(0.015625)"/>
      </defs>
      <use xlink:href="#ArialMT-65"/>
      <use x="55.615234" xlink:href="#ArialMT-72"/>
      <use x="88.916016" xlink:href="#ArialMT-72"/>
      <use x="122.216797" xlink:href="#ArialMT-6f"/>
      <use x="177.832031" xlink:href="#ArialMT-72"/>
      <use x="211.132812" xlink:href="#ArialMT-20"/>
      <use x="238.916016" xlink:href="#ArialMT-28"/>
      <use x="272.216797" xlink:href="#ArialMT-25"/>
      <use x="361.132812" xlink:href="#ArialMT-29"/>
     </g>
     <!-- @ max. train dur. -->
     <g transform="translate(175.290062 146.558625)rotate(-90)scale(0.144 -0.144)">
      <defs>
       <path d="M 3628 509 
Q 3425 275 3173 133 
Q 2922 -9 2669 -9 
Q 2391 -9 2128 153 
Q 1866 316 1702 653 
Q 1538 991 1538 1394 
Q 1538 1891 1792 2389 
Q 2047 2888 2425 3138 
Q 2803 3388 3159 3388 
Q 3431 3388 3678 3245 
Q 3925 3103 4103 2813 
L 4209 3297 
L 4769 3297 
L 4319 1200 
Q 4225 763 4225 716 
Q 4225 631 4289 570 
Q 4353 509 4444 509 
Q 4609 509 4878 700 
Q 5234 950 5442 1370 
Q 5650 1791 5650 2238 
Q 5650 2759 5383 3212 
Q 5116 3666 4586 3937 
Q 4056 4209 3416 4209 
Q 2684 4209 2079 3867 
Q 1475 3525 1142 2886 
Q 809 2247 809 1516 
Q 809 750 1142 197 
Q 1475 -356 2104 -620 
Q 2734 -884 3500 -884 
Q 4319 -884 4872 -609 
Q 5425 -334 5700 59 
L 6266 59 
Q 6106 -269 5718 -609 
Q 5331 -950 4797 -1148 
Q 4263 -1347 3509 -1347 
Q 2816 -1347 2230 -1169 
Q 1644 -991 1231 -633 
Q 819 -275 609 191 
Q 347 781 347 1466 
Q 347 2228 659 2919 
Q 1041 3766 1742 4216 
Q 2444 4666 3444 4666 
Q 4219 4666 4836 4348 
Q 5453 4031 5809 3403 
Q 6113 2863 6113 2228 
Q 6113 1322 5475 619 
Q 4906 -13 4231 -13 
Q 4016 -13 3883 53 
Q 3750 119 3688 241 
Q 3647 319 3628 509 
z
M 2116 1356 
Q 2116 928 2319 690 
Q 2522 453 2784 453 
Q 2959 453 3153 558 
Q 3347 663 3523 869 
Q 3700 1075 3812 1392 
Q 3925 1709 3925 2028 
Q 3925 2453 3714 2687 
Q 3503 2922 3200 2922 
Q 3000 2922 2823 2820 
Q 2647 2719 2481 2494 
Q 2316 2269 2216 1947 
Q 2116 1625 2116 1356 
z
" id="ArialMT-40" transform="scale(0.015625)"/>
       <path d="M 47 0 
L 1259 1725 
L 138 3319 
L 841 3319 
L 1350 2541 
Q 1494 2319 1581 2169 
Q 1719 2375 1834 2534 
L 2394 3319 
L 3066 3319 
L 1919 1756 
L 3153 0 
L 2463 0 
L 1781 1031 
L 1600 1309 
L 728 0 
L 47 0 
z
" id="ArialMT-78" transform="scale(0.015625)"/>
       <path d="M 581 0 
L 581 641 
L 1222 641 
L 1222 0 
L 581 0 
z
" id="ArialMT-2e" transform="scale(0.015625)"/>
       <path d="M 1650 503 
L 1731 6 
Q 1494 -44 1306 -44 
Q 1000 -44 831 53 
Q 663 150 594 308 
Q 525 466 525 972 
L 525 2881 
L 113 2881 
L 113 3319 
L 525 3319 
L 525 4141 
L 1084 4478 
L 1084 3319 
L 1650 3319 
L 1650 2881 
L 1084 2881 
L 1084 941 
Q 1084 700 1114 631 
Q 1144 563 1211 522 
Q 1278 481 1403 481 
Q 1497 481 1650 503 
z
" id="ArialMT-74" transform="scale(0.015625)"/>
       <path d="M 425 3934 
L 425 4581 
L 988 4581 
L 988 3934 
L 425 3934 
z
M 425 0 
L 425 3319 
L 988 3319 
L 988 0 
L 425 0 
z
" id="ArialMT-69" transform="scale(0.015625)"/>
       <path d="M 422 0 
L 422 3319 
L 928 3319 
L 928 2847 
Q 1294 3394 1984 3394 
Q 2284 3394 2536 3286 
Q 2788 3178 2913 3003 
Q 3038 2828 3088 2588 
Q 3119 2431 3119 2041 
L 3119 0 
L 2556 0 
L 2556 2019 
Q 2556 2363 2490 2533 
Q 2425 2703 2258 2804 
Q 2091 2906 1866 2906 
Q 1506 2906 1245 2678 
Q 984 2450 984 1813 
L 984 0 
L 422 0 
z
" id="ArialMT-6e" transform="scale(0.015625)"/>
       <path d="M 2575 0 
L 2575 419 
Q 2259 -75 1647 -75 
Q 1250 -75 917 144 
Q 584 363 401 755 
Q 219 1147 219 1656 
Q 219 2153 384 2558 
Q 550 2963 881 3178 
Q 1213 3394 1622 3394 
Q 1922 3394 2156 3267 
Q 2391 3141 2538 2938 
L 2538 4581 
L 3097 4581 
L 3097 0 
L 2575 0 
z
M 797 1656 
Q 797 1019 1065 703 
Q 1334 388 1700 388 
Q 2069 388 2326 689 
Q 2584 991 2584 1609 
Q 2584 2291 2321 2609 
Q 2059 2928 1675 2928 
Q 1300 2928 1048 2622 
Q 797 2316 797 1656 
z
" id="ArialMT-64" transform="scale(0.015625)"/>
       <path d="M 2597 0 
L 2597 488 
Q 2209 -75 1544 -75 
Q 1250 -75 995 37 
Q 741 150 617 320 
Q 494 491 444 738 
Q 409 903 409 1263 
L 409 3319 
L 972 3319 
L 972 1478 
Q 972 1038 1006 884 
Q 1059 663 1231 536 
Q 1403 409 1656 409 
Q 1909 409 2131 539 
Q 2353 669 2445 892 
Q 2538 1116 2538 1541 
L 2538 3319 
L 3100 3319 
L 3100 0 
L 2597 0 
z
" id="ArialMT-75" transform="scale(0.015625)"/>
      </defs>
      <use xlink:href="#ArialMT-40"/>
      <use x="101.513672" xlink:href="#ArialMT-20"/>
      <use x="129.296875" xlink:href="#ArialMT-6d"/>
      <use x="212.597656" xlink:href="#ArialMT-61"/>
      <use x="268.212891" xlink:href="#ArialMT-78"/>
      <use x="318.212891" xlink:href="#ArialMT-2e"/>
      <use x="345.996094" xlink:href="#ArialMT-20"/>
      <use x="373.779297" xlink:href="#ArialMT-74"/>
      <use x="401.5625" xlink:href="#ArialMT-72"/>
      <use x="434.863281" xlink:href="#ArialMT-61"/>
      <use x="490.478516" xlink:href="#ArialMT-69"/>
      <use x="512.695312" xlink:href="#ArialMT-6e"/>
      <use x="568.310547" xlink:href="#ArialMT-20"/>
      <use x="596.09375" xlink:href="#ArialMT-64"/>
      <use x="651.708984" xlink:href="#ArialMT-75"/>
      <use x="707.324219" xlink:href="#ArialMT-72"/>
      <use x="735.125" xlink:href="#ArialMT-2e"/>
     </g>
    </g>
   </g>
   <g id="line2d_8">
    <path clip-path="url(#p91409cad68)" d="M 209.779432 129.905588 
L 209.779432 133.971172 
" style="fill:none;stroke:#565656;stroke-linecap:square;stroke-width:1.2;"/>
   </g>
   <g id="line2d_9">
    <path clip-path="url(#p91409cad68)" d="M 209.779432 125.880175 
L 209.779432 119.856988 
" style="fill:none;stroke:#565656;stroke-linecap:square;stroke-width:1.2;"/>
   </g>
   <g id="line2d_10">
    <path clip-path="url(#p91409cad68)" d="M 204.808159 133.971172 
L 214.750705 133.971172 
" style="fill:none;stroke:#565656;stroke-linecap:square;stroke-width:1.2;"/>
   </g>
   <g id="line2d_11">
    <path clip-path="url(#p91409cad68)" d="M 204.808159 119.856988 
L 214.750705 119.856988 
" style="fill:none;stroke:#565656;stroke-linecap:square;stroke-width:1.2;"/>
   </g>
   <g id="line2d_12">
    <path clip-path="url(#p91409cad68)" d="M 230.070341 127.60461 
L 230.070341 131.95172 
" style="fill:none;stroke:#565656;stroke-linecap:square;stroke-width:1.2;"/>
   </g>
   <g id="line2d_13">
    <path clip-path="url(#p91409cad68)" d="M 230.070341 122.034573 
L 230.070341 116.681829 
" style="fill:none;stroke:#565656;stroke-linecap:square;stroke-width:1.2;"/>
   </g>
   <g id="line2d_14">
    <path clip-path="url(#p91409cad68)" d="M 225.099068 131.95172 
L 235.041614 131.95172 
" style="fill:none;stroke:#565656;stroke-linecap:square;stroke-width:1.2;"/>
   </g>
   <g id="line2d_15">
    <path clip-path="url(#p91409cad68)" d="M 225.099068 116.681829 
L 235.041614 116.681829 
" style="fill:none;stroke:#565656;stroke-linecap:square;stroke-width:1.2;"/>
   </g>
   <g id="line2d_16">
    <path clip-path="url(#p91409cad68)" d="M 260.506705 131.983231 
L 260.506705 134.717608 
" style="fill:none;stroke:#565656;stroke-linecap:square;stroke-width:1.2;"/>
   </g>
   <g id="line2d_17">
    <path clip-path="url(#p91409cad68)" d="M 260.506705 127.848965 
L 260.506705 123.104811 
" style="fill:none;stroke:#565656;stroke-linecap:square;stroke-width:1.2;"/>
   </g>
   <g id="line2d_18">
    <path clip-path="url(#p91409cad68)" d="M 255.535432 134.717608 
L 265.477977 134.717608 
" style="fill:none;stroke:#565656;stroke-linecap:square;stroke-width:1.2;"/>
   </g>
   <g id="line2d_19">
    <path clip-path="url(#p91409cad68)" d="M 255.535432 123.104811 
L 265.477977 123.104811 
" style="fill:none;stroke:#565656;stroke-linecap:square;stroke-width:1.2;"/>
   </g>
   <g id="line2d_20">
    <path clip-path="url(#p91409cad68)" d="M 280.797614 130.155418 
L 280.797614 134.051945 
" style="fill:none;stroke:#565656;stroke-linecap:square;stroke-width:1.2;"/>
   </g>
   <g id="line2d_21">
    <path clip-path="url(#p91409cad68)" d="M 280.797614 125.3208 
L 280.797614 120.651165 
" style="fill:none;stroke:#565656;stroke-linecap:square;stroke-width:1.2;"/>
   </g>
   <g id="line2d_22">
    <path clip-path="url(#p91409cad68)" d="M 275.826341 134.051945 
L 285.768886 134.051945 
" style="fill:none;stroke:#565656;stroke-linecap:square;stroke-width:1.2;"/>
   </g>
   <g id="line2d_23">
    <path clip-path="url(#p91409cad68)" d="M 275.826341 120.651165 
L 285.768886 120.651165 
" style="fill:none;stroke:#565656;stroke-linecap:square;stroke-width:1.2;"/>
   </g>
   <g id="line2d_24">
    <path clip-path="url(#p91409cad68)" d="M 311.233977 131.527598 
L 311.233977 135.427017 
" style="fill:none;stroke:#565656;stroke-linecap:square;stroke-width:1.2;"/>
   </g>
   <g id="line2d_25">
    <path clip-path="url(#p91409cad68)" d="M 311.233977 127.306771 
L 311.233977 121.836583 
" style="fill:none;stroke:#565656;stroke-linecap:square;stroke-width:1.2;"/>
   </g>
   <g id="line2d_26">
    <path clip-path="url(#p91409cad68)" d="M 306.262705 135.427017 
L 316.20525 135.427017 
" style="fill:none;stroke:#565656;stroke-linecap:square;stroke-width:1.2;"/>
   </g>
   <g id="line2d_27">
    <path clip-path="url(#p91409cad68)" d="M 306.262705 121.836583 
L 316.20525 121.836583 
" style="fill:none;stroke:#565656;stroke-linecap:square;stroke-width:1.2;"/>
   </g>
   <g id="line2d_28">
    <path clip-path="url(#p91409cad68)" d="M 331.524886 130.771615 
L 331.524886 135.014348 
" style="fill:none;stroke:#565656;stroke-linecap:square;stroke-width:1.2;"/>
   </g>
   <g id="line2d_29">
    <path clip-path="url(#p91409cad68)" d="M 331.524886 124.823532 
L 331.524886 118.430322 
" style="fill:none;stroke:#565656;stroke-linecap:square;stroke-width:1.2;"/>
   </g>
   <g id="line2d_30">
    <path clip-path="url(#p91409cad68)" d="M 326.553614 135.014348 
L 336.496159 135.014348 
" style="fill:none;stroke:#565656;stroke-linecap:square;stroke-width:1.2;"/>
   </g>
   <g id="line2d_31">
    <path clip-path="url(#p91409cad68)" d="M 326.553614 118.430322 
L 336.496159 118.430322 
" style="fill:none;stroke:#565656;stroke-linecap:square;stroke-width:1.2;"/>
   </g>
   <g id="line2d_32">
    <path clip-path="url(#p91409cad68)" d="M 199.836886 128.634963 
L 219.721977 128.634963 
" style="fill:none;stroke:#565656;stroke-linecap:square;stroke-width:1.2;"/>
   </g>
   <g id="line2d_33">
    <path clip-path="url(#p91409cad68)" d="M 220.127795 125.097578 
L 240.012886 125.097578 
" style="fill:none;stroke:#565656;stroke-linecap:square;stroke-width:1.2;"/>
   </g>
   <g id="line2d_34">
    <path clip-path="url(#p91409cad68)" d="M 250.564159 129.841409 
L 270.44925 129.841409 
" style="fill:none;stroke:#565656;stroke-linecap:square;stroke-width:1.2;"/>
   </g>
   <g id="line2d_35">
    <path clip-path="url(#p91409cad68)" d="M 270.855068 127.590259 
L 290.740159 127.590259 
" style="fill:none;stroke:#565656;stroke-linecap:square;stroke-width:1.2;"/>
   </g>
   <g id="line2d_36">
    <path clip-path="url(#p91409cad68)" d="M 301.291432 130.041474 
L 321.176523 130.041474 
" style="fill:none;stroke:#565656;stroke-linecap:square;stroke-width:1.2;"/>
   </g>
   <g id="line2d_37">
    <path clip-path="url(#p91409cad68)" d="M 321.582341 128.003645 
L 341.467432 128.003645 
" style="fill:none;stroke:#565656;stroke-linecap:square;stroke-width:1.2;"/>
   </g>
   <g id="patch_11">
    <path d="M 194.56125 159.58275 
L 194.56125 23.68275 
" style="fill:none;stroke:#000000;stroke-linecap:square;stroke-linejoin:miter;"/>
   </g>
   <g id="patch_12">
    <path d="M 194.56125 159.58275 
L 346.743068 159.58275 
" style="fill:none;stroke:#000000;stroke-linecap:square;stroke-linejoin:miter;"/>
   </g>
   <g id="text_6">
    <!-- Bengalese Finch -->
    <g transform="translate(217.021159 17.68275)scale(0.144 -0.144)">
     <defs>
      <path d="M 469 0 
L 469 4581 
L 2188 4581 
Q 2713 4581 3030 4442 
Q 3347 4303 3526 4014 
Q 3706 3725 3706 3409 
Q 3706 3116 3547 2856 
Q 3388 2597 3066 2438 
Q 3481 2316 3704 2022 
Q 3928 1728 3928 1328 
Q 3928 1006 3792 729 
Q 3656 453 3456 303 
Q 3256 153 2954 76 
Q 2653 0 2216 0 
L 469 0 
z
M 1075 2656 
L 2066 2656 
Q 2469 2656 2644 2709 
Q 2875 2778 2992 2937 
Q 3109 3097 3109 3338 
Q 3109 3566 3000 3739 
Q 2891 3913 2687 3977 
Q 2484 4041 1991 4041 
L 1075 4041 
L 1075 2656 
z
M 1075 541 
L 2216 541 
Q 2509 541 2628 563 
Q 2838 600 2978 687 
Q 3119 775 3209 942 
Q 3300 1109 3300 1328 
Q 3300 1584 3169 1773 
Q 3038 1963 2805 2039 
Q 2572 2116 2134 2116 
L 1075 2116 
L 1075 541 
z
" id="ArialMT-42" transform="scale(0.015625)"/>
      <path d="M 319 -275 
L 866 -356 
Q 900 -609 1056 -725 
Q 1266 -881 1628 -881 
Q 2019 -881 2231 -725 
Q 2444 -569 2519 -288 
Q 2563 -116 2559 434 
Q 2191 0 1641 0 
Q 956 0 581 494 
Q 206 988 206 1678 
Q 206 2153 378 2554 
Q 550 2956 876 3175 
Q 1203 3394 1644 3394 
Q 2231 3394 2613 2919 
L 2613 3319 
L 3131 3319 
L 3131 450 
Q 3131 -325 2973 -648 
Q 2816 -972 2473 -1159 
Q 2131 -1347 1631 -1347 
Q 1038 -1347 672 -1080 
Q 306 -813 319 -275 
z
M 784 1719 
Q 784 1066 1043 766 
Q 1303 466 1694 466 
Q 2081 466 2343 764 
Q 2606 1063 2606 1700 
Q 2606 2309 2336 2618 
Q 2066 2928 1684 2928 
Q 1309 2928 1046 2623 
Q 784 2319 784 1719 
z
" id="ArialMT-67" transform="scale(0.015625)"/>
      <path d="M 409 0 
L 409 4581 
L 972 4581 
L 972 0 
L 409 0 
z
" id="ArialMT-6c" transform="scale(0.015625)"/>
      <path d="M 197 991 
L 753 1078 
Q 800 744 1014 566 
Q 1228 388 1613 388 
Q 2000 388 2187 545 
Q 2375 703 2375 916 
Q 2375 1106 2209 1216 
Q 2094 1291 1634 1406 
Q 1016 1563 777 1677 
Q 538 1791 414 1992 
Q 291 2194 291 2438 
Q 291 2659 392 2848 
Q 494 3038 669 3163 
Q 800 3259 1026 3326 
Q 1253 3394 1513 3394 
Q 1903 3394 2198 3281 
Q 2494 3169 2634 2976 
Q 2775 2784 2828 2463 
L 2278 2388 
Q 2241 2644 2061 2787 
Q 1881 2931 1553 2931 
Q 1166 2931 1000 2803 
Q 834 2675 834 2503 
Q 834 2394 903 2306 
Q 972 2216 1119 2156 
Q 1203 2125 1616 2013 
Q 2213 1853 2448 1751 
Q 2684 1650 2818 1456 
Q 2953 1263 2953 975 
Q 2953 694 2789 445 
Q 2625 197 2315 61 
Q 2006 -75 1616 -75 
Q 969 -75 630 194 
Q 291 463 197 991 
z
" id="ArialMT-73" transform="scale(0.015625)"/>
      <path d="M 2588 1216 
L 3141 1144 
Q 3050 572 2676 248 
Q 2303 -75 1759 -75 
Q 1078 -75 664 370 
Q 250 816 250 1647 
Q 250 2184 428 2587 
Q 606 2991 970 3192 
Q 1334 3394 1763 3394 
Q 2303 3394 2647 3120 
Q 2991 2847 3088 2344 
L 2541 2259 
Q 2463 2594 2264 2762 
Q 2066 2931 1784 2931 
Q 1359 2931 1093 2626 
Q 828 2322 828 1663 
Q 828 994 1084 691 
Q 1341 388 1753 388 
Q 2084 388 2306 591 
Q 2528 794 2588 1216 
z
" id="ArialMT-63" transform="scale(0.015625)"/>
      <path d="M 422 0 
L 422 4581 
L 984 4581 
L 984 2938 
Q 1378 3394 1978 3394 
Q 2347 3394 2619 3248 
Q 2891 3103 3008 2847 
Q 3125 2591 3125 2103 
L 3125 0 
L 2563 0 
L 2563 2103 
Q 2563 2525 2380 2717 
Q 2197 2909 1863 2909 
Q 1613 2909 1392 2779 
Q 1172 2650 1078 2428 
Q 984 2206 984 1816 
L 984 0 
L 422 0 
z
" id="ArialMT-68" transform="scale(0.015625)"/>
     </defs>
     <use xlink:href="#ArialMT-42"/>
     <use x="66.699219" xlink:href="#ArialMT-65"/>
     <use x="122.314453" xlink:href="#ArialMT-6e"/>
     <use x="177.929688" xlink:href="#ArialMT-67"/>
     <use x="233.544922" xlink:href="#ArialMT-61"/>
     <use x="289.160156" xlink:href="#ArialMT-6c"/>
     <use x="311.376953" xlink:href="#ArialMT-65"/>
     <use x="366.992188" xlink:href="#ArialMT-73"/>
     <use x="416.992188" xlink:href="#ArialMT-65"/>
     <use x="472.607422" xlink:href="#ArialMT-20"/>
     <use x="500.390625" xlink:href="#ArialMT-46"/>
     <use x="561.474609" xlink:href="#ArialMT-69"/>
     <use x="583.691406" xlink:href="#ArialMT-6e"/>
     <use x="639.306641" xlink:href="#ArialMT-63"/>
     <use x="689.306641" xlink:href="#ArialMT-68"/>
    </g>
   </g>
  </g>
  <g id="axes_2">
   <g id="patch_13">
    <path d="M 377.179432 159.58275 
L 529.36125 159.58275 
L 529.36125 23.68275 
L 377.179432 23.68275 
z
" style="fill:#ffffff;"/>
   </g>
   <g id="patch_14">
    <path clip-path="url(#p05d2d3fc3f)" d="M 380.344814 101.263439 
L 392.275868 101.263439 
L 392.275868 81.268069 
L 380.344814 81.268069 
L 380.344814 101.263439 
z
" style="fill:#68afd7;stroke:#565656;stroke-linejoin:miter;stroke-width:1.2;"/>
   </g>
   <g id="patch_15">
    <path clip-path="url(#p05d2d3fc3f)" d="M 392.519359 99.84045 
L 404.450414 99.84045 
L 404.450414 77.864538 
L 392.519359 77.864538 
L 392.519359 99.84045 
z
" style="fill:#d5cd4a;stroke:#565656;stroke-linejoin:miter;stroke-width:1.2;"/>
   </g>
   <g id="patch_16">
    <path clip-path="url(#p05d2d3fc3f)" d="M 410.781177 101.812123 
L 422.712232 101.812123 
L 422.712232 86.564956 
L 410.781177 86.564956 
L 410.781177 101.812123 
z
" style="fill:#68afd7;stroke:#565656;stroke-linejoin:miter;stroke-width:1.2;"/>
   </g>
   <g id="patch_17">
    <path clip-path="url(#p05d2d3fc3f)" d="M 422.955723 100.666936 
L 434.886777 100.666936 
L 434.886777 83.744642 
L 422.955723 83.744642 
L 422.955723 100.666936 
z
" style="fill:#d5cd4a;stroke:#565656;stroke-linejoin:miter;stroke-width:1.2;"/>
   </g>
   <g id="patch_18">
    <path clip-path="url(#p05d2d3fc3f)" d="M 441.217541 115.287991 
L 453.148595 115.287991 
L 453.148595 90.766917 
L 441.217541 90.766917 
L 441.217541 115.287991 
z
" style="fill:#68afd7;stroke:#565656;stroke-linejoin:miter;stroke-width:1.2;"/>
   </g>
   <g id="patch_19">
    <path clip-path="url(#p05d2d3fc3f)" d="M 453.392086 116.506931 
L 465.323141 116.506931 
L 465.323141 88.786371 
L 453.392086 88.786371 
L 453.392086 116.506931 
z
" style="fill:#d5cd4a;stroke:#565656;stroke-linejoin:miter;stroke-width:1.2;"/>
   </g>
   <g id="patch_20">
    <path clip-path="url(#p05d2d3fc3f)" d="M 471.653905 98.461287 
L 483.584959 98.461287 
L 483.584959 86.749627 
L 471.653905 86.749627 
L 471.653905 98.461287 
z
" style="fill:#68afd7;stroke:#565656;stroke-linejoin:miter;stroke-width:1.2;"/>
   </g>
   <g id="patch_21">
    <path clip-path="url(#p05d2d3fc3f)" d="M 483.82845 98.305901 
L 495.759505 98.305901 
L 495.759505 85.040038 
L 483.82845 85.040038 
L 483.82845 98.305901 
z
" style="fill:#d5cd4a;stroke:#565656;stroke-linejoin:miter;stroke-width:1.2;"/>
   </g>
   <g id="patch_22">
    <path clip-path="url(#p05d2d3fc3f)" d="M 502.090268 101.690978 
L 514.021323 101.690978 
L 514.021323 87.771586 
L 502.090268 87.771586 
L 502.090268 101.690978 
z
" style="fill:#68afd7;stroke:#565656;stroke-linejoin:miter;stroke-width:1.2;"/>
   </g>
   <g id="patch_23">
    <path clip-path="url(#p05d2d3fc3f)" d="M 514.264814 101.698626 
L 526.195868 101.698626 
L 526.195868 85.641457 
L 514.264814 85.641457 
L 514.264814 101.698626 
z
" style="fill:#d5cd4a;stroke:#565656;stroke-linejoin:miter;stroke-width:1.2;"/>
   </g>
   <g id="patch_24">
    <path clip-path="url(#p05d2d3fc3f)" d="M 392.397614 159.58275 
L 392.397614 159.58275 
L 392.397614 159.58275 
L 392.397614 159.58275 
z
" style="fill:#68afd7;stroke:#565656;stroke-linejoin:miter;stroke-width:0.6;"/>
   </g>
   <g id="patch_25">
    <path clip-path="url(#p05d2d3fc3f)" d="M 392.397614 159.58275 
L 392.397614 159.58275 
L 392.397614 159.58275 
L 392.397614 159.58275 
z
" style="fill:#d5cd4a;stroke:#565656;stroke-linejoin:miter;stroke-width:0.6;"/>
   </g>
   <g id="matplotlib.axis_3">
    <g id="xtick_4">
     <g id="line2d_38">
      <g>
       <use style="stroke:#000000;" x="392.397614" xlink:href="#m6ff7d4c3c5" y="159.58275"/>
      </g>
     </g>
    </g>
    <g id="xtick_5">
     <g id="line2d_39">
      <g>
       <use style="stroke:#000000;" x="422.833977" xlink:href="#m6ff7d4c3c5" y="159.58275"/>
      </g>
     </g>
    </g>
    <g id="xtick_6">
     <g id="line2d_40">
      <g>
       <use style="stroke:#000000;" x="453.270341" xlink:href="#m6ff7d4c3c5" y="159.58275"/>
      </g>
     </g>
    </g>
    <g id="xtick_7">
     <g id="line2d_41">
      <g>
       <use style="stroke:#000000;" x="483.706705" xlink:href="#m6ff7d4c3c5" y="159.58275"/>
      </g>
     </g>
    </g>
    <g id="xtick_8">
     <g id="line2d_42">
      <g>
       <use style="stroke:#000000;" x="514.143068" xlink:href="#m6ff7d4c3c5" y="159.58275"/>
      </g>
     </g>
    </g>
   </g>
   <g id="matplotlib.axis_4">
    <g id="ytick_5">
     <g id="line2d_43">
      <g>
       <use style="stroke:#000000;" x="377.179432" xlink:href="#md44b2874ca" y="159.58275"/>
      </g>
     </g>
     <g id="text_7">
      <!-- 0 -->
      <g transform="translate(364.938994 164.306906)scale(0.132 -0.132)">
       <use xlink:href="#ArialMT-30"/>
      </g>
     </g>
    </g>
    <g id="ytick_6">
     <g id="line2d_44">
      <g>
       <use style="stroke:#000000;" x="377.179432" xlink:href="#md44b2874ca" y="120.754179"/>
      </g>
     </g>
     <g id="text_8">
      <!-- 2 -->
      <g transform="translate(364.938994 125.478335)scale(0.132 -0.132)">
       <use xlink:href="#ArialMT-32"/>
      </g>
     </g>
    </g>
    <g id="ytick_7">
     <g id="line2d_45">
      <g>
       <use style="stroke:#000000;" x="377.179432" xlink:href="#md44b2874ca" y="81.925607"/>
      </g>
     </g>
     <g id="text_9">
      <!-- 4 -->
      <g transform="translate(364.938994 86.649763)scale(0.132 -0.132)">
       <use xlink:href="#ArialMT-34"/>
      </g>
     </g>
    </g>
    <g id="ytick_8">
     <g id="line2d_46">
      <g>
       <use style="stroke:#000000;" x="377.179432" xlink:href="#md44b2874ca" y="43.097036"/>
      </g>
     </g>
     <g id="text_10">
      <!-- 6 -->
      <g transform="translate(364.938994 47.821192)scale(0.132 -0.132)">
       <use xlink:href="#ArialMT-36"/>
      </g>
     </g>
    </g>
   </g>
   <g id="line2d_47">
    <path clip-path="url(#p05d2d3fc3f)" d="M 386.310341 101.263439 
L 386.310341 106.58981 
" style="fill:none;stroke:#565656;stroke-linecap:square;stroke-width:1.2;"/>
   </g>
   <g id="line2d_48">
    <path clip-path="url(#p05d2d3fc3f)" d="M 386.310341 81.268069 
L 386.310341 69.355604 
" style="fill:none;stroke:#565656;stroke-linecap:square;stroke-width:1.2;"/>
   </g>
   <g id="line2d_49">
    <path clip-path="url(#p05d2d3fc3f)" d="M 383.327577 106.58981 
L 389.293105 106.58981 
" style="fill:none;stroke:#565656;stroke-linecap:square;stroke-width:1.2;"/>
   </g>
   <g id="line2d_50">
    <path clip-path="url(#p05d2d3fc3f)" d="M 383.327577 69.355604 
L 389.293105 69.355604 
" style="fill:none;stroke:#565656;stroke-linecap:square;stroke-width:1.2;"/>
   </g>
   <g id="line2d_51">
    <path clip-path="url(#p05d2d3fc3f)" d="M 398.484886 99.84045 
L 398.484886 104.694159 
" style="fill:none;stroke:#565656;stroke-linecap:square;stroke-width:1.2;"/>
   </g>
   <g id="line2d_52">
    <path clip-path="url(#p05d2d3fc3f)" d="M 398.484886 77.864538 
L 398.484886 63.892824 
" style="fill:none;stroke:#565656;stroke-linecap:square;stroke-width:1.2;"/>
   </g>
   <g id="line2d_53">
    <path clip-path="url(#p05d2d3fc3f)" d="M 395.502123 104.694159 
L 401.46765 104.694159 
" style="fill:none;stroke:#565656;stroke-linecap:square;stroke-width:1.2;"/>
   </g>
   <g id="line2d_54">
    <path clip-path="url(#p05d2d3fc3f)" d="M 395.502123 63.892824 
L 401.46765 63.892824 
" style="fill:none;stroke:#565656;stroke-linecap:square;stroke-width:1.2;"/>
   </g>
   <g id="line2d_55">
    <path clip-path="url(#p05d2d3fc3f)" d="M 416.746705 101.812123 
L 416.746705 108.623549 
" style="fill:none;stroke:#565656;stroke-linecap:square;stroke-width:1.2;"/>
   </g>
   <g id="line2d_56">
    <path clip-path="url(#p05d2d3fc3f)" d="M 416.746705 86.564956 
L 416.746705 75.10574 
" style="fill:none;stroke:#565656;stroke-linecap:square;stroke-width:1.2;"/>
   </g>
   <g id="line2d_57">
    <path clip-path="url(#p05d2d3fc3f)" d="M 413.763941 108.623549 
L 419.729468 108.623549 
" style="fill:none;stroke:#565656;stroke-linecap:square;stroke-width:1.2;"/>
   </g>
   <g id="line2d_58">
    <path clip-path="url(#p05d2d3fc3f)" d="M 413.763941 75.10574 
L 419.729468 75.10574 
" style="fill:none;stroke:#565656;stroke-linecap:square;stroke-width:1.2;"/>
   </g>
   <g id="line2d_59">
    <path clip-path="url(#p05d2d3fc3f)" d="M 428.92125 100.666936 
L 428.92125 107.492264 
" style="fill:none;stroke:#565656;stroke-linecap:square;stroke-width:1.2;"/>
   </g>
   <g id="line2d_60">
    <path clip-path="url(#p05d2d3fc3f)" d="M 428.92125 83.744642 
L 428.92125 73.082834 
" style="fill:none;stroke:#565656;stroke-linecap:square;stroke-width:1.2;"/>
   </g>
   <g id="line2d_61">
    <path clip-path="url(#p05d2d3fc3f)" d="M 425.938486 107.492264 
L 431.904014 107.492264 
" style="fill:none;stroke:#565656;stroke-linecap:square;stroke-width:1.2;"/>
   </g>
   <g id="line2d_62">
    <path clip-path="url(#p05d2d3fc3f)" d="M 425.938486 73.082834 
L 431.904014 73.082834 
" style="fill:none;stroke:#565656;stroke-linecap:square;stroke-width:1.2;"/>
   </g>
   <g id="line2d_63">
    <path clip-path="url(#p05d2d3fc3f)" d="M 447.183068 115.287991 
L 447.183068 123.965857 
" style="fill:none;stroke:#565656;stroke-linecap:square;stroke-width:1.2;"/>
   </g>
   <g id="line2d_64">
    <path clip-path="url(#p05d2d3fc3f)" d="M 447.183068 90.766917 
L 447.183068 75.477147 
" style="fill:none;stroke:#565656;stroke-linecap:square;stroke-width:1.2;"/>
   </g>
   <g id="line2d_65">
    <path clip-path="url(#p05d2d3fc3f)" d="M 444.200305 123.965857 
L 450.165832 123.965857 
" style="fill:none;stroke:#565656;stroke-linecap:square;stroke-width:1.2;"/>
   </g>
   <g id="line2d_66">
    <path clip-path="url(#p05d2d3fc3f)" d="M 444.200305 75.477147 
L 450.165832 75.477147 
" style="fill:none;stroke:#565656;stroke-linecap:square;stroke-width:1.2;"/>
   </g>
   <g id="line2d_67">
    <path clip-path="url(#p05d2d3fc3f)" d="M 459.357614 116.506931 
L 459.357614 125.737354 
" style="fill:none;stroke:#565656;stroke-linecap:square;stroke-width:1.2;"/>
   </g>
   <g id="line2d_68">
    <path clip-path="url(#p05d2d3fc3f)" d="M 459.357614 88.786371 
L 459.357614 74.19529 
" style="fill:none;stroke:#565656;stroke-linecap:square;stroke-width:1.2;"/>
   </g>
   <g id="line2d_69">
    <path clip-path="url(#p05d2d3fc3f)" d="M 456.37485 125.737354 
L 462.340377 125.737354 
" style="fill:none;stroke:#565656;stroke-linecap:square;stroke-width:1.2;"/>
   </g>
   <g id="line2d_70">
    <path clip-path="url(#p05d2d3fc3f)" d="M 456.37485 74.19529 
L 462.340377 74.19529 
" style="fill:none;stroke:#565656;stroke-linecap:square;stroke-width:1.2;"/>
   </g>
   <g id="line2d_71">
    <path clip-path="url(#p05d2d3fc3f)" d="M 477.619432 98.461287 
L 477.619432 107.020536 
" style="fill:none;stroke:#565656;stroke-linecap:square;stroke-width:1.2;"/>
   </g>
   <g id="line2d_72">
    <path clip-path="url(#p05d2d3fc3f)" d="M 477.619432 86.749627 
L 477.619432 72.603622 
" style="fill:none;stroke:#565656;stroke-linecap:square;stroke-width:1.2;"/>
   </g>
   <g id="line2d_73">
    <path clip-path="url(#p05d2d3fc3f)" d="M 474.636668 107.020536 
L 480.602195 107.020536 
" style="fill:none;stroke:#565656;stroke-linecap:square;stroke-width:1.2;"/>
   </g>
   <g id="line2d_74">
    <path clip-path="url(#p05d2d3fc3f)" d="M 474.636668 72.603622 
L 480.602195 72.603622 
" style="fill:none;stroke:#565656;stroke-linecap:square;stroke-width:1.2;"/>
   </g>
   <g id="line2d_75">
    <path clip-path="url(#p05d2d3fc3f)" d="M 489.793977 98.305901 
L 489.793977 106.461245 
" style="fill:none;stroke:#565656;stroke-linecap:square;stroke-width:1.2;"/>
   </g>
   <g id="line2d_76">
    <path clip-path="url(#p05d2d3fc3f)" d="M 489.793977 85.040038 
L 489.793977 71.796381 
" style="fill:none;stroke:#565656;stroke-linecap:square;stroke-width:1.2;"/>
   </g>
   <g id="line2d_77">
    <path clip-path="url(#p05d2d3fc3f)" d="M 486.811214 106.461245 
L 492.776741 106.461245 
" style="fill:none;stroke:#565656;stroke-linecap:square;stroke-width:1.2;"/>
   </g>
   <g id="line2d_78">
    <path clip-path="url(#p05d2d3fc3f)" d="M 486.811214 71.796381 
L 492.776741 71.796381 
" style="fill:none;stroke:#565656;stroke-linecap:square;stroke-width:1.2;"/>
   </g>
   <g id="line2d_79">
    <path clip-path="url(#p05d2d3fc3f)" d="M 508.055795 101.690978 
L 508.055795 105.789853 
" style="fill:none;stroke:#565656;stroke-linecap:square;stroke-width:1.2;"/>
   </g>
   <g id="line2d_80">
    <path clip-path="url(#p05d2d3fc3f)" d="M 508.055795 87.771586 
L 508.055795 66.931423 
" style="fill:none;stroke:#565656;stroke-linecap:square;stroke-width:1.2;"/>
   </g>
   <g id="line2d_81">
    <path clip-path="url(#p05d2d3fc3f)" d="M 505.073032 105.789853 
L 511.038559 105.789853 
" style="fill:none;stroke:#565656;stroke-linecap:square;stroke-width:1.2;"/>
   </g>
   <g id="line2d_82">
    <path clip-path="url(#p05d2d3fc3f)" d="M 505.073032 66.931423 
L 511.038559 66.931423 
" style="fill:none;stroke:#565656;stroke-linecap:square;stroke-width:1.2;"/>
   </g>
   <g id="line2d_83">
    <path clip-path="url(#p05d2d3fc3f)" d="M 520.230341 101.698626 
L 520.230341 105.253171 
" style="fill:none;stroke:#565656;stroke-linecap:square;stroke-width:1.2;"/>
   </g>
   <g id="line2d_84">
    <path clip-path="url(#p05d2d3fc3f)" d="M 520.230341 85.641457 
L 520.230341 66.381912 
" style="fill:none;stroke:#565656;stroke-linecap:square;stroke-width:1.2;"/>
   </g>
   <g id="line2d_85">
    <path clip-path="url(#p05d2d3fc3f)" d="M 517.247577 105.253171 
L 523.213105 105.253171 
" style="fill:none;stroke:#565656;stroke-linecap:square;stroke-width:1.2;"/>
   </g>
   <g id="line2d_86">
    <path clip-path="url(#p05d2d3fc3f)" d="M 517.247577 66.381912 
L 523.213105 66.381912 
" style="fill:none;stroke:#565656;stroke-linecap:square;stroke-width:1.2;"/>
   </g>
   <g id="line2d_87">
    <path clip-path="url(#p05d2d3fc3f)" d="M 380.344814 88.765345 
L 392.275868 88.765345 
" style="fill:none;stroke:#565656;stroke-linecap:square;stroke-width:1.2;"/>
   </g>
   <g id="line2d_88">
    <path clip-path="url(#p05d2d3fc3f)" d="M 392.519359 85.179329 
L 404.450414 85.179329 
" style="fill:none;stroke:#565656;stroke-linecap:square;stroke-width:1.2;"/>
   </g>
   <g id="line2d_89">
    <path clip-path="url(#p05d2d3fc3f)" d="M 410.781177 90.04346 
L 422.712232 90.04346 
" style="fill:none;stroke:#565656;stroke-linecap:square;stroke-width:1.2;"/>
   </g>
   <g id="line2d_90">
    <path clip-path="url(#p05d2d3fc3f)" d="M 422.955723 88.142231 
L 434.886777 88.142231 
" style="fill:none;stroke:#565656;stroke-linecap:square;stroke-width:1.2;"/>
   </g>
   <g id="line2d_91">
    <path clip-path="url(#p05d2d3fc3f)" d="M 441.217541 102.883839 
L 453.148595 102.883839 
" style="fill:none;stroke:#565656;stroke-linecap:square;stroke-width:1.2;"/>
   </g>
   <g id="line2d_92">
    <path clip-path="url(#p05d2d3fc3f)" d="M 453.392086 102.33867 
L 465.323141 102.33867 
" style="fill:none;stroke:#565656;stroke-linecap:square;stroke-width:1.2;"/>
   </g>
   <g id="line2d_93">
    <path clip-path="url(#p05d2d3fc3f)" d="M 471.653905 90.311634 
L 483.584959 90.311634 
" style="fill:none;stroke:#565656;stroke-linecap:square;stroke-width:1.2;"/>
   </g>
   <g id="line2d_94">
    <path clip-path="url(#p05d2d3fc3f)" d="M 483.82845 88.93847 
L 495.759505 88.93847 
" style="fill:none;stroke:#565656;stroke-linecap:square;stroke-width:1.2;"/>
   </g>
   <g id="line2d_95">
    <path clip-path="url(#p05d2d3fc3f)" d="M 502.090268 89.401948 
L 514.021323 89.401948 
" style="fill:none;stroke:#565656;stroke-linecap:square;stroke-width:1.2;"/>
   </g>
   <g id="line2d_96">
    <path clip-path="url(#p05d2d3fc3f)" d="M 514.264814 87.799956 
L 526.195868 87.799956 
" style="fill:none;stroke:#565656;stroke-linecap:square;stroke-width:1.2;"/>
   </g>
   <g id="patch_26">
    <path d="M 377.179432 159.58275 
L 377.179432 23.68275 
" style="fill:none;stroke:#000000;stroke-linecap:square;stroke-linejoin:miter;"/>
   </g>
   <g id="patch_27">
    <path d="M 377.179432 159.58275 
L 529.36125 159.58275 
" style="fill:none;stroke:#000000;stroke-linecap:square;stroke-linejoin:miter;"/>
   </g>
   <g id="text_11">
    <!-- Canary -->
    <g transform="translate(430.061591 17.68275)scale(0.144 -0.144)">
     <defs>
      <path d="M 3763 1606 
L 4369 1453 
Q 4178 706 3683 314 
Q 3188 -78 2472 -78 
Q 1731 -78 1267 223 
Q 803 525 561 1097 
Q 319 1669 319 2325 
Q 319 3041 592 3573 
Q 866 4106 1370 4382 
Q 1875 4659 2481 4659 
Q 3169 4659 3637 4309 
Q 4106 3959 4291 3325 
L 3694 3184 
Q 3534 3684 3231 3912 
Q 2928 4141 2469 4141 
Q 1941 4141 1586 3887 
Q 1231 3634 1087 3207 
Q 944 2781 944 2328 
Q 944 1744 1114 1308 
Q 1284 872 1643 656 
Q 2003 441 2422 441 
Q 2931 441 3284 734 
Q 3638 1028 3763 1606 
z
" id="ArialMT-43" transform="scale(0.015625)"/>
      <path d="M 397 -1278 
L 334 -750 
Q 519 -800 656 -800 
Q 844 -800 956 -737 
Q 1069 -675 1141 -563 
Q 1194 -478 1313 -144 
Q 1328 -97 1363 -6 
L 103 3319 
L 709 3319 
L 1400 1397 
Q 1534 1031 1641 628 
Q 1738 1016 1872 1384 
L 2581 3319 
L 3144 3319 
L 1881 -56 
Q 1678 -603 1566 -809 
Q 1416 -1088 1222 -1217 
Q 1028 -1347 759 -1347 
Q 597 -1347 397 -1278 
z
" id="ArialMT-79" transform="scale(0.015625)"/>
     </defs>
     <use xlink:href="#ArialMT-43"/>
     <use x="72.216797" xlink:href="#ArialMT-61"/>
     <use x="127.832031" xlink:href="#ArialMT-6e"/>
     <use x="183.447266" xlink:href="#ArialMT-61"/>
     <use x="239.0625" xlink:href="#ArialMT-72"/>
     <use x="272.363281" xlink:href="#ArialMT-79"/>
    </g>
   </g>
  </g>
  <g id="axes_3">
   <g id="patch_28">
    <path d="M 194.56125 322.66275 
L 346.743068 322.66275 
L 346.743068 186.76275 
L 194.56125 186.76275 
z
" style="fill:#ffffff;"/>
   </g>
   <g id="patch_29">
    <path clip-path="url(#p24ef49e010)" d="M 199.836886 320.790569 
L 219.721977 320.790569 
L 219.721977 316.637924 
L 199.836886 316.637924 
L 199.836886 320.790569 
z
" style="fill:#68afd7;stroke:#565656;stroke-linejoin:miter;stroke-width:1.2;"/>
   </g>
   <g id="patch_30">
    <path clip-path="url(#p24ef49e010)" d="M 220.127795 289.039516 
L 240.012886 289.039516 
L 240.012886 250.906391 
L 220.127795 250.906391 
L 220.127795 289.039516 
z
" style="fill:#d5cd4a;stroke:#565656;stroke-linejoin:miter;stroke-width:1.2;"/>
   </g>
   <g id="patch_31">
    <path clip-path="url(#p24ef49e010)" d="M 250.564159 321.027234 
L 270.44925 321.027234 
L 270.44925 316.891521 
L 250.564159 316.891521 
L 250.564159 321.027234 
z
" style="fill:#68afd7;stroke:#565656;stroke-linejoin:miter;stroke-width:1.2;"/>
   </g>
   <g id="patch_32">
    <path clip-path="url(#p24ef49e010)" d="M 270.855068 299.660393 
L 290.740159 299.660393 
L 290.740159 274.990508 
L 270.855068 274.990508 
L 270.855068 299.660393 
z
" style="fill:#d5cd4a;stroke:#565656;stroke-linejoin:miter;stroke-width:1.2;"/>
   </g>
   <g id="patch_33">
    <path clip-path="url(#p24ef49e010)" d="M 301.291432 320.992348 
L 321.176523 320.992348 
L 321.176523 317.508352 
L 301.291432 317.508352 
L 301.291432 320.992348 
z
" style="fill:#68afd7;stroke:#565656;stroke-linejoin:miter;stroke-width:1.2;"/>
   </g>
   <g id="patch_34">
    <path clip-path="url(#p24ef49e010)" d="M 321.582341 303.164403 
L 341.467432 303.164403 
L 341.467432 283.109783 
L 321.582341 283.109783 
L 321.582341 303.164403 
z
" style="fill:#d5cd4a;stroke:#565656;stroke-linejoin:miter;stroke-width:1.2;"/>
   </g>
   <g id="patch_35">
    <path clip-path="url(#p24ef49e010)" d="M 219.924886 322.66275 
L 219.924886 322.66275 
L 219.924886 322.66275 
L 219.924886 322.66275 
z
" style="fill:#68afd7;stroke:#565656;stroke-linejoin:miter;stroke-width:0.6;"/>
   </g>
   <g id="patch_36">
    <path clip-path="url(#p24ef49e010)" d="M 219.924886 322.66275 
L 219.924886 322.66275 
L 219.924886 322.66275 
L 219.924886 322.66275 
z
" style="fill:#d5cd4a;stroke:#565656;stroke-linejoin:miter;stroke-width:0.6;"/>
   </g>
   <g id="matplotlib.axis_5">
    <g id="xtick_9">
     <g id="line2d_97">
      <g>
       <use style="stroke:#000000;" x="219.924886" xlink:href="#m6ff7d4c3c5" y="322.66275"/>
      </g>
     </g>
     <g id="text_12">
      <!-- 16 -->
      <g transform="translate(217.147349 344.624662)rotate(-45)scale(0.132 -0.132)">
       <defs>
        <path d="M 2384 0 
L 1822 0 
L 1822 3584 
Q 1619 3391 1289 3197 
Q 959 3003 697 2906 
L 697 3450 
Q 1169 3672 1522 3987 
Q 1875 4303 2022 4600 
L 2384 4600 
L 2384 0 
z
" id="ArialMT-31" transform="scale(0.015625)"/>
       </defs>
       <use xlink:href="#ArialMT-31"/>
       <use x="55.615234" xlink:href="#ArialMT-36"/>
      </g>
     </g>
    </g>
    <g id="xtick_10">
     <g id="line2d_98">
      <g>
       <use style="stroke:#000000;" x="270.652159" xlink:href="#m6ff7d4c3c5" y="322.66275"/>
      </g>
     </g>
     <g id="text_13">
      <!-- 64 -->
      <g transform="translate(267.874622 344.624662)rotate(-45)scale(0.132 -0.132)">
       <use xlink:href="#ArialMT-36"/>
       <use x="55.615234" xlink:href="#ArialMT-34"/>
      </g>
     </g>
    </g>
    <g id="xtick_11">
     <g id="line2d_99">
      <g>
       <use style="stroke:#000000;" x="321.379432" xlink:href="#m6ff7d4c3c5" y="322.66275"/>
      </g>
     </g>
     <g id="text_14">
      <!-- $\bf{256}$ -->
      <g transform="translate(314.038536 353.751378)rotate(-45)scale(0.132 -0.132)">
       <defs>
        <path d="M 1844 884 
L 3897 884 
L 3897 0 
L 506 0 
L 506 884 
L 2209 2388 
Q 2438 2594 2547 2791 
Q 2656 2988 2656 3200 
Q 2656 3528 2436 3728 
Q 2216 3928 1850 3928 
Q 1569 3928 1234 3808 
Q 900 3688 519 3450 
L 519 4475 
Q 925 4609 1322 4679 
Q 1719 4750 2100 4750 
Q 2938 4750 3402 4381 
Q 3866 4013 3866 3353 
Q 3866 2972 3669 2642 
Q 3472 2313 2841 1759 
L 1844 884 
z
" id="DejaVuSans-Bold-32" transform="scale(0.015625)"/>
        <path d="M 678 4666 
L 3669 4666 
L 3669 3781 
L 1638 3781 
L 1638 3059 
Q 1775 3097 1914 3117 
Q 2053 3138 2203 3138 
Q 3056 3138 3531 2711 
Q 4006 2284 4006 1522 
Q 4006 766 3489 337 
Q 2972 -91 2053 -91 
Q 1656 -91 1267 -14 
Q 878 63 494 219 
L 494 1166 
Q 875 947 1217 837 
Q 1559 728 1863 728 
Q 2300 728 2551 942 
Q 2803 1156 2803 1522 
Q 2803 1891 2551 2103 
Q 2300 2316 1863 2316 
Q 1603 2316 1309 2248 
Q 1016 2181 678 2041 
L 678 4666 
z
" id="DejaVuSans-Bold-35" transform="scale(0.015625)"/>
        <path d="M 2316 2303 
Q 2000 2303 1842 2098 
Q 1684 1894 1684 1484 
Q 1684 1075 1842 870 
Q 2000 666 2316 666 
Q 2634 666 2792 870 
Q 2950 1075 2950 1484 
Q 2950 1894 2792 2098 
Q 2634 2303 2316 2303 
z
M 3803 4544 
L 3803 3681 
Q 3506 3822 3243 3889 
Q 2981 3956 2731 3956 
Q 2194 3956 1894 3657 
Q 1594 3359 1544 2772 
Q 1750 2925 1990 3001 
Q 2231 3078 2516 3078 
Q 3231 3078 3670 2659 
Q 4109 2241 4109 1563 
Q 4109 813 3618 361 
Q 3128 -91 2303 -91 
Q 1394 -91 895 523 
Q 397 1138 397 2266 
Q 397 3422 980 4083 
Q 1563 4744 2578 4744 
Q 2900 4744 3203 4694 
Q 3506 4644 3803 4544 
z
" id="DejaVuSans-Bold-36" transform="scale(0.015625)"/>
       </defs>
       <use transform="translate(0 0.78125)" xlink:href="#DejaVuSans-Bold-32"/>
       <use transform="translate(69.580078 0.78125)" xlink:href="#DejaVuSans-Bold-35"/>
       <use transform="translate(139.160156 0.78125)" xlink:href="#DejaVuSans-Bold-36"/>
      </g>
     </g>
    </g>
   </g>
   <g id="matplotlib.axis_6">
    <g id="ytick_9">
     <g id="line2d_100">
      <g>
       <use style="stroke:#000000;" x="194.56125" xlink:href="#md44b2874ca" y="322.66275"/>
      </g>
     </g>
     <g id="text_15">
      <!-- 0 -->
      <g transform="translate(182.320812 327.386906)scale(0.132 -0.132)">
       <use xlink:href="#ArialMT-30"/>
      </g>
     </g>
    </g>
    <g id="ytick_10">
     <g id="line2d_101">
      <g>
       <use style="stroke:#000000;" x="194.56125" xlink:href="#md44b2874ca" y="280.194"/>
      </g>
     </g>
     <g id="text_16">
      <!-- 10 -->
      <g transform="translate(174.980375 284.918156)scale(0.132 -0.132)">
       <use xlink:href="#ArialMT-31"/>
       <use x="55.615234" xlink:href="#ArialMT-30"/>
      </g>
     </g>
    </g>
    <g id="ytick_11">
     <g id="line2d_102">
      <g>
       <use style="stroke:#000000;" x="194.56125" xlink:href="#md44b2874ca" y="237.72525"/>
      </g>
     </g>
     <g id="text_17">
      <!-- 20 -->
      <g transform="translate(174.980375 242.449406)scale(0.132 -0.132)">
       <use xlink:href="#ArialMT-32"/>
       <use x="55.615234" xlink:href="#ArialMT-30"/>
      </g>
     </g>
    </g>
    <g id="ytick_12">
     <g id="line2d_103">
      <g>
       <use style="stroke:#000000;" x="194.56125" xlink:href="#md44b2874ca" y="195.2565"/>
      </g>
     </g>
     <g id="text_18">
      <!-- 30 -->
      <g transform="translate(174.980375 199.980656)scale(0.132 -0.132)">
       <defs>
        <path d="M 269 1209 
L 831 1284 
Q 928 806 1161 595 
Q 1394 384 1728 384 
Q 2125 384 2398 659 
Q 2672 934 2672 1341 
Q 2672 1728 2419 1979 
Q 2166 2231 1775 2231 
Q 1616 2231 1378 2169 
L 1441 2663 
Q 1497 2656 1531 2656 
Q 1891 2656 2178 2843 
Q 2466 3031 2466 3422 
Q 2466 3731 2256 3934 
Q 2047 4138 1716 4138 
Q 1388 4138 1169 3931 
Q 950 3725 888 3313 
L 325 3413 
Q 428 3978 793 4289 
Q 1159 4600 1703 4600 
Q 2078 4600 2393 4439 
Q 2709 4278 2876 4000 
Q 3044 3722 3044 3409 
Q 3044 3113 2884 2869 
Q 2725 2625 2413 2481 
Q 2819 2388 3044 2092 
Q 3269 1797 3269 1353 
Q 3269 753 2831 336 
Q 2394 -81 1725 -81 
Q 1122 -81 723 278 
Q 325 638 269 1209 
z
" id="ArialMT-33" transform="scale(0.015625)"/>
       </defs>
       <use xlink:href="#ArialMT-33"/>
       <use x="55.615234" xlink:href="#ArialMT-30"/>
      </g>
     </g>
    </g>
    <g id="text_19">
     <!-- Syllable -->
     <g transform="translate(136.710625 279.92625)rotate(-90)scale(0.144 -0.144)">
      <defs>
       <path d="M 288 1472 
L 859 1522 
Q 900 1178 1048 958 
Q 1197 738 1509 602 
Q 1822 466 2213 466 
Q 2559 466 2825 569 
Q 3091 672 3220 851 
Q 3350 1031 3350 1244 
Q 3350 1459 3225 1620 
Q 3100 1781 2813 1891 
Q 2628 1963 1997 2114 
Q 1366 2266 1113 2400 
Q 784 2572 623 2826 
Q 463 3081 463 3397 
Q 463 3744 659 4045 
Q 856 4347 1234 4503 
Q 1613 4659 2075 4659 
Q 2584 4659 2973 4495 
Q 3363 4331 3572 4012 
Q 3781 3694 3797 3291 
L 3216 3247 
Q 3169 3681 2898 3903 
Q 2628 4125 2100 4125 
Q 1550 4125 1298 3923 
Q 1047 3722 1047 3438 
Q 1047 3191 1225 3031 
Q 1400 2872 2139 2705 
Q 2878 2538 3153 2413 
Q 3553 2228 3743 1945 
Q 3934 1663 3934 1294 
Q 3934 928 3725 604 
Q 3516 281 3123 101 
Q 2731 -78 2241 -78 
Q 1619 -78 1198 103 
Q 778 284 539 648 
Q 300 1013 288 1472 
z
" id="ArialMT-53" transform="scale(0.015625)"/>
       <path d="M 941 0 
L 419 0 
L 419 4581 
L 981 4581 
L 981 2947 
Q 1338 3394 1891 3394 
Q 2197 3394 2470 3270 
Q 2744 3147 2920 2923 
Q 3097 2700 3197 2384 
Q 3297 2069 3297 1709 
Q 3297 856 2875 390 
Q 2453 -75 1863 -75 
Q 1275 -75 941 416 
L 941 0 
z
M 934 1684 
Q 934 1088 1097 822 
Q 1363 388 1816 388 
Q 2184 388 2453 708 
Q 2722 1028 2722 1663 
Q 2722 2313 2464 2622 
Q 2206 2931 1841 2931 
Q 1472 2931 1203 2611 
Q 934 2291 934 1684 
z
" id="ArialMT-62" transform="scale(0.015625)"/>
      </defs>
      <use xlink:href="#ArialMT-53"/>
      <use x="66.699219" xlink:href="#ArialMT-79"/>
      <use x="116.699219" xlink:href="#ArialMT-6c"/>
      <use x="138.916016" xlink:href="#ArialMT-6c"/>
      <use x="161.132812" xlink:href="#ArialMT-61"/>
      <use x="216.748047" xlink:href="#ArialMT-62"/>
      <use x="272.363281" xlink:href="#ArialMT-6c"/>
      <use x="294.580078" xlink:href="#ArialMT-65"/>
     </g>
     <!-- error rate (%) -->
     <g transform="translate(152.320675 297.515625)rotate(-90)scale(0.144 -0.144)">
      <use xlink:href="#ArialMT-65"/>
      <use x="55.615234" xlink:href="#ArialMT-72"/>
      <use x="88.916016" xlink:href="#ArialMT-72"/>
      <use x="122.216797" xlink:href="#ArialMT-6f"/>
      <use x="177.832031" xlink:href="#ArialMT-72"/>
      <use x="211.132812" xlink:href="#ArialMT-20"/>
      <use x="238.916016" xlink:href="#ArialMT-72"/>
      <use x="272.216797" xlink:href="#ArialMT-61"/>
      <use x="327.832031" xlink:href="#ArialMT-74"/>
      <use x="355.615234" xlink:href="#ArialMT-65"/>
      <use x="411.230469" xlink:href="#ArialMT-20"/>
      <use x="439.013672" xlink:href="#ArialMT-28"/>
      <use x="472.314453" xlink:href="#ArialMT-25"/>
      <use x="561.230469" xlink:href="#ArialMT-29"/>
     </g>
     <!-- @ max. train dur. -->
     <g transform="translate(167.949625 309.638625)rotate(-90)scale(0.144 -0.144)">
      <use xlink:href="#ArialMT-40"/>
      <use x="101.513672" xlink:href="#ArialMT-20"/>
      <use x="129.296875" xlink:href="#ArialMT-6d"/>
      <use x="212.597656" xlink:href="#ArialMT-61"/>
      <use x="268.212891" xlink:href="#ArialMT-78"/>
      <use x="318.212891" xlink:href="#ArialMT-2e"/>
      <use x="345.996094" xlink:href="#ArialMT-20"/>
      <use x="373.779297" xlink:href="#ArialMT-74"/>
      <use x="401.5625" xlink:href="#ArialMT-72"/>
      <use x="434.863281" xlink:href="#ArialMT-61"/>
      <use x="490.478516" xlink:href="#ArialMT-69"/>
      <use x="512.695312" xlink:href="#ArialMT-6e"/>
      <use x="568.310547" xlink:href="#ArialMT-20"/>
      <use x="596.09375" xlink:href="#ArialMT-64"/>
      <use x="651.708984" xlink:href="#ArialMT-75"/>
      <use x="707.324219" xlink:href="#ArialMT-72"/>
      <use x="735.125" xlink:href="#ArialMT-2e"/>
     </g>
    </g>
   </g>
   <g id="line2d_104">
    <path clip-path="url(#p24ef49e010)" d="M 209.779432 320.790569 
L 209.779432 321.780953 
" style="fill:none;stroke:#565656;stroke-linecap:square;stroke-width:1.2;"/>
   </g>
   <g id="line2d_105">
    <path clip-path="url(#p24ef49e010)" d="M 209.779432 316.637924 
L 209.779432 311.182064 
" style="fill:none;stroke:#565656;stroke-linecap:square;stroke-width:1.2;"/>
   </g>
   <g id="line2d_106">
    <path clip-path="url(#p24ef49e010)" d="M 204.808159 321.780953 
L 214.750705 321.780953 
" style="fill:none;stroke:#565656;stroke-linecap:square;stroke-width:1.2;"/>
   </g>
   <g id="line2d_107">
    <path clip-path="url(#p24ef49e010)" d="M 204.808159 311.182064 
L 214.750705 311.182064 
" style="fill:none;stroke:#565656;stroke-linecap:square;stroke-width:1.2;"/>
   </g>
   <g id="line2d_108">
    <path clip-path="url(#p24ef49e010)" d="M 230.070341 289.039516 
L 230.070341 305.767882 
" style="fill:none;stroke:#565656;stroke-linecap:square;stroke-width:1.2;"/>
   </g>
   <g id="line2d_109">
    <path clip-path="url(#p24ef49e010)" d="M 230.070341 250.906391 
L 230.070341 202.284974 
" style="fill:none;stroke:#565656;stroke-linecap:square;stroke-width:1.2;"/>
   </g>
   <g id="line2d_110">
    <path clip-path="url(#p24ef49e010)" d="M 225.099068 305.767882 
L 235.041614 305.767882 
" style="fill:none;stroke:#565656;stroke-linecap:square;stroke-width:1.2;"/>
   </g>
   <g id="line2d_111">
    <path clip-path="url(#p24ef49e010)" d="M 225.099068 202.284974 
L 235.041614 202.284974 
" style="fill:none;stroke:#565656;stroke-linecap:square;stroke-width:1.2;"/>
   </g>
   <g id="line2d_112">
    <path clip-path="url(#p24ef49e010)" d="M 260.506705 321.027234 
L 260.506705 321.786501 
" style="fill:none;stroke:#565656;stroke-linecap:square;stroke-width:1.2;"/>
   </g>
   <g id="line2d_113">
    <path clip-path="url(#p24ef49e010)" d="M 260.506705 316.891521 
L 260.506705 312.02381 
" style="fill:none;stroke:#565656;stroke-linecap:square;stroke-width:1.2;"/>
   </g>
   <g id="line2d_114">
    <path clip-path="url(#p24ef49e010)" d="M 255.535432 321.786501 
L 265.477977 321.786501 
" style="fill:none;stroke:#565656;stroke-linecap:square;stroke-width:1.2;"/>
   </g>
   <g id="line2d_115">
    <path clip-path="url(#p24ef49e010)" d="M 255.535432 312.02381 
L 265.477977 312.02381 
" style="fill:none;stroke:#565656;stroke-linecap:square;stroke-width:1.2;"/>
   </g>
   <g id="line2d_116">
    <path clip-path="url(#p24ef49e010)" d="M 280.797614 299.660393 
L 280.797614 308.609783 
" style="fill:none;stroke:#565656;stroke-linecap:square;stroke-width:1.2;"/>
   </g>
   <g id="line2d_117">
    <path clip-path="url(#p24ef49e010)" d="M 280.797614 274.990508 
L 280.797614 242.771217 
" style="fill:none;stroke:#565656;stroke-linecap:square;stroke-width:1.2;"/>
   </g>
   <g id="line2d_118">
    <path clip-path="url(#p24ef49e010)" d="M 275.826341 308.609783 
L 285.768886 308.609783 
" style="fill:none;stroke:#565656;stroke-linecap:square;stroke-width:1.2;"/>
   </g>
   <g id="line2d_119">
    <path clip-path="url(#p24ef49e010)" d="M 275.826341 242.771217 
L 285.768886 242.771217 
" style="fill:none;stroke:#565656;stroke-linecap:square;stroke-width:1.2;"/>
   </g>
   <g id="line2d_120">
    <path clip-path="url(#p24ef49e010)" d="M 311.233977 320.992348 
L 311.233977 322.11158 
" style="fill:none;stroke:#565656;stroke-linecap:square;stroke-width:1.2;"/>
   </g>
   <g id="line2d_121">
    <path clip-path="url(#p24ef49e010)" d="M 311.233977 317.508352 
L 311.233977 313.41562 
" style="fill:none;stroke:#565656;stroke-linecap:square;stroke-width:1.2;"/>
   </g>
   <g id="line2d_122">
    <path clip-path="url(#p24ef49e010)" d="M 306.262705 322.11158 
L 316.20525 322.11158 
" style="fill:none;stroke:#565656;stroke-linecap:square;stroke-width:1.2;"/>
   </g>
   <g id="line2d_123">
    <path clip-path="url(#p24ef49e010)" d="M 306.262705 313.41562 
L 316.20525 313.41562 
" style="fill:none;stroke:#565656;stroke-linecap:square;stroke-width:1.2;"/>
   </g>
   <g id="line2d_124">
    <path clip-path="url(#p24ef49e010)" d="M 331.524886 303.164403 
L 331.524886 313.705863 
" style="fill:none;stroke:#565656;stroke-linecap:square;stroke-width:1.2;"/>
   </g>
   <g id="line2d_125">
    <path clip-path="url(#p24ef49e010)" d="M 331.524886 283.109783 
L 331.524886 258.620579 
" style="fill:none;stroke:#565656;stroke-linecap:square;stroke-width:1.2;"/>
   </g>
   <g id="line2d_126">
    <path clip-path="url(#p24ef49e010)" d="M 326.553614 313.705863 
L 336.496159 313.705863 
" style="fill:none;stroke:#565656;stroke-linecap:square;stroke-width:1.2;"/>
   </g>
   <g id="line2d_127">
    <path clip-path="url(#p24ef49e010)" d="M 326.553614 258.620579 
L 336.496159 258.620579 
" style="fill:none;stroke:#565656;stroke-linecap:square;stroke-width:1.2;"/>
   </g>
   <g id="line2d_128">
    <path clip-path="url(#p24ef49e010)" d="M 199.836886 319.492839 
L 219.721977 319.492839 
" style="fill:none;stroke:#565656;stroke-linecap:square;stroke-width:1.2;"/>
   </g>
   <g id="line2d_129">
    <path clip-path="url(#p24ef49e010)" d="M 220.127795 277.219111 
L 240.012886 277.219111 
" style="fill:none;stroke:#565656;stroke-linecap:square;stroke-width:1.2;"/>
   </g>
   <g id="line2d_130">
    <path clip-path="url(#p24ef49e010)" d="M 250.564159 319.952849 
L 270.44925 319.952849 
" style="fill:none;stroke:#565656;stroke-linecap:square;stroke-width:1.2;"/>
   </g>
   <g id="line2d_131">
    <path clip-path="url(#p24ef49e010)" d="M 270.855068 292.92786 
L 290.740159 292.92786 
" style="fill:none;stroke:#565656;stroke-linecap:square;stroke-width:1.2;"/>
   </g>
   <g id="line2d_132">
    <path clip-path="url(#p24ef49e010)" d="M 301.291432 319.600476 
L 321.176523 319.600476 
" style="fill:none;stroke:#565656;stroke-linecap:square;stroke-width:1.2;"/>
   </g>
   <g id="line2d_133">
    <path clip-path="url(#p24ef49e010)" d="M 321.582341 298.268491 
L 341.467432 298.268491 
" style="fill:none;stroke:#565656;stroke-linecap:square;stroke-width:1.2;"/>
   </g>
   <g id="patch_37">
    <path d="M 194.56125 322.66275 
L 194.56125 186.76275 
" style="fill:none;stroke:#000000;stroke-linecap:square;stroke-linejoin:miter;"/>
   </g>
   <g id="patch_38">
    <path d="M 194.56125 322.66275 
L 346.743068 322.66275 
" style="fill:none;stroke:#000000;stroke-linecap:square;stroke-linejoin:miter;"/>
   </g>
  </g>
  <g id="axes_4">
   <g id="patch_39">
    <path d="M 377.179432 322.66275 
L 529.36125 322.66275 
L 529.36125 186.76275 
L 377.179432 186.76275 
z
" style="fill:#ffffff;"/>
   </g>
   <g id="patch_40">
    <path clip-path="url(#pf534a6be2d)" d="M 380.344814 301.763476 
L 392.275868 301.763476 
L 392.275868 298.888574 
L 380.344814 298.888574 
L 380.344814 301.763476 
z
" style="fill:#68afd7;stroke:#565656;stroke-linejoin:miter;stroke-width:1.2;"/>
   </g>
   <g id="patch_41">
    <path clip-path="url(#pf534a6be2d)" d="M 392.519359 268.760412 
L 404.450414 268.760412 
L 404.450414 253.857779 
L 392.519359 253.857779 
L 392.519359 268.760412 
z
" style="fill:#d5cd4a;stroke:#565656;stroke-linejoin:miter;stroke-width:1.2;"/>
   </g>
   <g id="patch_42">
    <path clip-path="url(#pf534a6be2d)" d="M 410.781177 304.537503 
L 422.712232 304.537503 
L 422.712232 300.160367 
L 410.781177 300.160367 
L 410.781177 304.537503 
z
" style="fill:#68afd7;stroke:#565656;stroke-linejoin:miter;stroke-width:1.2;"/>
   </g>
   <g id="patch_43">
    <path clip-path="url(#pf534a6be2d)" d="M 422.955723 281.43682 
L 434.886777 281.43682 
L 434.886777 271.656413 
L 422.955723 271.656413 
L 422.955723 281.43682 
z
" style="fill:#d5cd4a;stroke:#565656;stroke-linejoin:miter;stroke-width:1.2;"/>
   </g>
   <g id="patch_44">
    <path clip-path="url(#pf534a6be2d)" d="M 441.217541 305.080523 
L 453.148595 305.080523 
L 453.148595 299.174036 
L 441.217541 299.174036 
L 441.217541 305.080523 
z
" style="fill:#68afd7;stroke:#565656;stroke-linejoin:miter;stroke-width:1.2;"/>
   </g>
   <g id="patch_45">
    <path clip-path="url(#pf534a6be2d)" d="M 453.392086 287.874644 
L 465.323141 287.874644 
L 465.323141 280.303324 
L 453.392086 280.303324 
L 453.392086 287.874644 
z
" style="fill:#d5cd4a;stroke:#565656;stroke-linejoin:miter;stroke-width:1.2;"/>
   </g>
   <g id="patch_46">
    <path clip-path="url(#pf534a6be2d)" d="M 471.653905 306.780891 
L 483.584959 306.780891 
L 483.584959 300.229781 
L 471.653905 300.229781 
L 471.653905 306.780891 
z
" style="fill:#68afd7;stroke:#565656;stroke-linejoin:miter;stroke-width:1.2;"/>
   </g>
   <g id="patch_47">
    <path clip-path="url(#pf534a6be2d)" d="M 483.82845 289.594286 
L 495.759505 289.594286 
L 495.759505 284.080364 
L 483.82845 284.080364 
L 483.82845 289.594286 
z
" style="fill:#d5cd4a;stroke:#565656;stroke-linejoin:miter;stroke-width:1.2;"/>
   </g>
   <g id="patch_48">
    <path clip-path="url(#pf534a6be2d)" d="M 502.090268 307.327926 
L 514.021323 307.327926 
L 514.021323 300.312208 
L 502.090268 300.312208 
L 502.090268 307.327926 
z
" style="fill:#68afd7;stroke:#565656;stroke-linejoin:miter;stroke-width:1.2;"/>
   </g>
   <g id="patch_49">
    <path clip-path="url(#pf534a6be2d)" d="M 514.264814 290.19466 
L 526.195868 290.19466 
L 526.195868 281.536639 
L 514.264814 281.536639 
L 514.264814 290.19466 
z
" style="fill:#d5cd4a;stroke:#565656;stroke-linejoin:miter;stroke-width:1.2;"/>
   </g>
   <g id="patch_50">
    <path clip-path="url(#pf534a6be2d)" d="M 392.397614 322.66275 
L 392.397614 322.66275 
L 392.397614 322.66275 
L 392.397614 322.66275 
z
" style="fill:#68afd7;stroke:#565656;stroke-linejoin:miter;stroke-width:0.6;"/>
   </g>
   <g id="patch_51">
    <path clip-path="url(#pf534a6be2d)" d="M 392.397614 322.66275 
L 392.397614 322.66275 
L 392.397614 322.66275 
L 392.397614 322.66275 
z
" style="fill:#d5cd4a;stroke:#565656;stroke-linejoin:miter;stroke-width:0.6;"/>
   </g>
   <g id="matplotlib.axis_7">
    <g id="xtick_12">
     <g id="line2d_134">
      <g>
       <use style="stroke:#000000;" x="392.397614" xlink:href="#m6ff7d4c3c5" y="322.66275"/>
      </g>
     </g>
     <g id="text_20">
      <!-- 32 -->
      <g transform="translate(389.620076 344.624662)rotate(-45)scale(0.132 -0.132)">
       <use xlink:href="#ArialMT-33"/>
       <use x="55.615234" xlink:href="#ArialMT-32"/>
      </g>
     </g>
    </g>
    <g id="xtick_13">
     <g id="line2d_135">
      <g>
       <use style="stroke:#000000;" x="422.833977" xlink:href="#m6ff7d4c3c5" y="322.66275"/>
      </g>
     </g>
     <g id="text_21">
      <!-- 64 -->
      <g transform="translate(420.05644 344.624662)rotate(-45)scale(0.132 -0.132)">
       <use xlink:href="#ArialMT-36"/>
       <use x="55.615234" xlink:href="#ArialMT-34"/>
      </g>
     </g>
    </g>
    <g id="xtick_14">
     <g id="line2d_136">
      <g>
       <use style="stroke:#000000;" x="453.270341" xlink:href="#m6ff7d4c3c5" y="322.66275"/>
      </g>
     </g>
     <g id="text_22">
      <!-- $\bf{512}$ -->
      <g transform="translate(445.929446 353.751378)rotate(-45)scale(0.132 -0.132)">
       <defs>
        <path d="M 750 831 
L 1813 831 
L 1813 3847 
L 722 3622 
L 722 4441 
L 1806 4666 
L 2950 4666 
L 2950 831 
L 4013 831 
L 4013 0 
L 750 0 
L 750 831 
z
" id="DejaVuSans-Bold-31" transform="scale(0.015625)"/>
       </defs>
       <use transform="translate(0 0.78125)" xlink:href="#DejaVuSans-Bold-35"/>
       <use transform="translate(69.580078 0.78125)" xlink:href="#DejaVuSans-Bold-31"/>
       <use transform="translate(139.160156 0.78125)" xlink:href="#DejaVuSans-Bold-32"/>
      </g>
     </g>
    </g>
    <g id="xtick_15">
     <g id="line2d_137">
      <g>
       <use style="stroke:#000000;" x="483.706705" xlink:href="#m6ff7d4c3c5" y="322.66275"/>
      </g>
     </g>
     <g id="text_23">
      <!-- 1024 -->
      <g transform="translate(475.738694 355.005608)rotate(-45)scale(0.132 -0.132)">
       <use xlink:href="#ArialMT-31"/>
       <use x="55.615234" xlink:href="#ArialMT-30"/>
       <use x="111.230469" xlink:href="#ArialMT-32"/>
       <use x="166.845703" xlink:href="#ArialMT-34"/>
      </g>
     </g>
    </g>
    <g id="xtick_16">
     <g id="line2d_138">
      <g>
       <use style="stroke:#000000;" x="514.143068" xlink:href="#m6ff7d4c3c5" y="322.66275"/>
      </g>
     </g>
     <g id="text_24">
      <!-- 2048 -->
      <g transform="translate(506.175058 355.005608)rotate(-45)scale(0.132 -0.132)">
       <defs>
        <path d="M 1131 2484 
Q 781 2613 612 2850 
Q 444 3088 444 3419 
Q 444 3919 803 4259 
Q 1163 4600 1759 4600 
Q 2359 4600 2725 4251 
Q 3091 3903 3091 3403 
Q 3091 3084 2923 2848 
Q 2756 2613 2416 2484 
Q 2838 2347 3058 2040 
Q 3278 1734 3278 1309 
Q 3278 722 2862 322 
Q 2447 -78 1769 -78 
Q 1091 -78 675 323 
Q 259 725 259 1325 
Q 259 1772 486 2073 
Q 713 2375 1131 2484 
z
M 1019 3438 
Q 1019 3113 1228 2906 
Q 1438 2700 1772 2700 
Q 2097 2700 2305 2904 
Q 2513 3109 2513 3406 
Q 2513 3716 2298 3927 
Q 2084 4138 1766 4138 
Q 1444 4138 1231 3931 
Q 1019 3725 1019 3438 
z
M 838 1322 
Q 838 1081 952 856 
Q 1066 631 1291 507 
Q 1516 384 1775 384 
Q 2178 384 2440 643 
Q 2703 903 2703 1303 
Q 2703 1709 2433 1975 
Q 2163 2241 1756 2241 
Q 1359 2241 1098 1978 
Q 838 1716 838 1322 
z
" id="ArialMT-38" transform="scale(0.015625)"/>
       </defs>
       <use xlink:href="#ArialMT-32"/>
       <use x="55.615234" xlink:href="#ArialMT-30"/>
       <use x="111.230469" xlink:href="#ArialMT-34"/>
       <use x="166.845703" xlink:href="#ArialMT-38"/>
      </g>
     </g>
    </g>
   </g>
   <g id="matplotlib.axis_8">
    <g id="ytick_13">
     <g id="line2d_139">
      <g>
       <use style="stroke:#000000;" x="377.179432" xlink:href="#md44b2874ca" y="322.66275"/>
      </g>
     </g>
     <g id="text_25">
      <!-- 0 -->
      <g transform="translate(364.938994 327.386906)scale(0.132 -0.132)">
       <use xlink:href="#ArialMT-30"/>
      </g>
     </g>
    </g>
    <g id="ytick_14">
     <g id="line2d_140">
      <g>
       <use style="stroke:#000000;" x="377.179432" xlink:href="#md44b2874ca" y="280.194"/>
      </g>
     </g>
     <g id="text_26">
      <!-- 10 -->
      <g transform="translate(357.598557 284.918156)scale(0.132 -0.132)">
       <use xlink:href="#ArialMT-31"/>
       <use x="55.615234" xlink:href="#ArialMT-30"/>
      </g>
     </g>
    </g>
    <g id="ytick_15">
     <g id="line2d_141">
      <g>
       <use style="stroke:#000000;" x="377.179432" xlink:href="#md44b2874ca" y="237.72525"/>
      </g>
     </g>
     <g id="text_27">
      <!-- 20 -->
      <g transform="translate(357.598557 242.449406)scale(0.132 -0.132)">
       <use xlink:href="#ArialMT-32"/>
       <use x="55.615234" xlink:href="#ArialMT-30"/>
      </g>
     </g>
    </g>
    <g id="ytick_16">
     <g id="line2d_142">
      <g>
       <use style="stroke:#000000;" x="377.179432" xlink:href="#md44b2874ca" y="195.2565"/>
      </g>
     </g>
     <g id="text_28">
      <!-- 30 -->
      <g transform="translate(357.598557 199.980656)scale(0.132 -0.132)">
       <use xlink:href="#ArialMT-33"/>
       <use x="55.615234" xlink:href="#ArialMT-30"/>
      </g>
     </g>
    </g>
   </g>
   <g id="line2d_143">
    <path clip-path="url(#pf534a6be2d)" d="M 386.310341 301.763476 
L 386.310341 304.320856 
" style="fill:none;stroke:#565656;stroke-linecap:square;stroke-width:1.2;"/>
   </g>
   <g id="line2d_144">
    <path clip-path="url(#pf534a6be2d)" d="M 386.310341 298.888574 
L 386.310341 298.34753 
" style="fill:none;stroke:#565656;stroke-linecap:square;stroke-width:1.2;"/>
   </g>
   <g id="line2d_145">
    <path clip-path="url(#pf534a6be2d)" d="M 383.327577 304.320856 
L 389.293105 304.320856 
" style="fill:none;stroke:#565656;stroke-linecap:square;stroke-width:1.2;"/>
   </g>
   <g id="line2d_146">
    <path clip-path="url(#pf534a6be2d)" d="M 383.327577 298.34753 
L 389.293105 298.34753 
" style="fill:none;stroke:#565656;stroke-linecap:square;stroke-width:1.2;"/>
   </g>
   <g id="line2d_147">
    <path clip-path="url(#pf534a6be2d)" d="M 398.484886 268.760412 
L 398.484886 274.266059 
" style="fill:none;stroke:#565656;stroke-linecap:square;stroke-width:1.2;"/>
   </g>
   <g id="line2d_148">
    <path clip-path="url(#pf534a6be2d)" d="M 398.484886 253.857779 
L 398.484886 244.381168 
" style="fill:none;stroke:#565656;stroke-linecap:square;stroke-width:1.2;"/>
   </g>
   <g id="line2d_149">
    <path clip-path="url(#pf534a6be2d)" d="M 395.502123 274.266059 
L 401.46765 274.266059 
" style="fill:none;stroke:#565656;stroke-linecap:square;stroke-width:1.2;"/>
   </g>
   <g id="line2d_150">
    <path clip-path="url(#pf534a6be2d)" d="M 395.502123 244.381168 
L 401.46765 244.381168 
" style="fill:none;stroke:#565656;stroke-linecap:square;stroke-width:1.2;"/>
   </g>
   <g id="line2d_151">
    <path clip-path="url(#pf534a6be2d)" d="M 416.746705 304.537503 
L 416.746705 306.871349 
" style="fill:none;stroke:#565656;stroke-linecap:square;stroke-width:1.2;"/>
   </g>
   <g id="line2d_152">
    <path clip-path="url(#pf534a6be2d)" d="M 416.746705 300.160367 
L 416.746705 295.37217 
" style="fill:none;stroke:#565656;stroke-linecap:square;stroke-width:1.2;"/>
   </g>
   <g id="line2d_153">
    <path clip-path="url(#pf534a6be2d)" d="M 413.763941 306.871349 
L 419.729468 306.871349 
" style="fill:none;stroke:#565656;stroke-linecap:square;stroke-width:1.2;"/>
   </g>
   <g id="line2d_154">
    <path clip-path="url(#pf534a6be2d)" d="M 413.763941 295.37217 
L 419.729468 295.37217 
" style="fill:none;stroke:#565656;stroke-linecap:square;stroke-width:1.2;"/>
   </g>
   <g id="line2d_155">
    <path clip-path="url(#pf534a6be2d)" d="M 428.92125 281.43682 
L 428.92125 285.960312 
" style="fill:none;stroke:#565656;stroke-linecap:square;stroke-width:1.2;"/>
   </g>
   <g id="line2d_156">
    <path clip-path="url(#pf534a6be2d)" d="M 428.92125 271.656413 
L 428.92125 261.575019 
" style="fill:none;stroke:#565656;stroke-linecap:square;stroke-width:1.2;"/>
   </g>
   <g id="line2d_157">
    <path clip-path="url(#pf534a6be2d)" d="M 425.938486 285.960312 
L 431.904014 285.960312 
" style="fill:none;stroke:#565656;stroke-linecap:square;stroke-width:1.2;"/>
   </g>
   <g id="line2d_158">
    <path clip-path="url(#pf534a6be2d)" d="M 425.938486 261.575019 
L 431.904014 261.575019 
" style="fill:none;stroke:#565656;stroke-linecap:square;stroke-width:1.2;"/>
   </g>
   <g id="line2d_159">
    <path clip-path="url(#pf534a6be2d)" d="M 447.183068 305.080523 
L 447.183068 309.531315 
" style="fill:none;stroke:#565656;stroke-linecap:square;stroke-width:1.2;"/>
   </g>
   <g id="line2d_160">
    <path clip-path="url(#pf534a6be2d)" d="M 447.183068 299.174036 
L 447.183068 294.363011 
" style="fill:none;stroke:#565656;stroke-linecap:square;stroke-width:1.2;"/>
   </g>
   <g id="line2d_161">
    <path clip-path="url(#pf534a6be2d)" d="M 444.200305 309.531315 
L 450.165832 309.531315 
" style="fill:none;stroke:#565656;stroke-linecap:square;stroke-width:1.2;"/>
   </g>
   <g id="line2d_162">
    <path clip-path="url(#pf534a6be2d)" d="M 444.200305 294.363011 
L 450.165832 294.363011 
" style="fill:none;stroke:#565656;stroke-linecap:square;stroke-width:1.2;"/>
   </g>
   <g id="line2d_163">
    <path clip-path="url(#pf534a6be2d)" d="M 459.357614 287.874644 
L 459.357614 294.753996 
" style="fill:none;stroke:#565656;stroke-linecap:square;stroke-width:1.2;"/>
   </g>
   <g id="line2d_164">
    <path clip-path="url(#pf534a6be2d)" d="M 459.357614 280.303324 
L 459.357614 277.787892 
" style="fill:none;stroke:#565656;stroke-linecap:square;stroke-width:1.2;"/>
   </g>
   <g id="line2d_165">
    <path clip-path="url(#pf534a6be2d)" d="M 456.37485 294.753996 
L 462.340377 294.753996 
" style="fill:none;stroke:#565656;stroke-linecap:square;stroke-width:1.2;"/>
   </g>
   <g id="line2d_166">
    <path clip-path="url(#pf534a6be2d)" d="M 456.37485 277.787892 
L 462.340377 277.787892 
" style="fill:none;stroke:#565656;stroke-linecap:square;stroke-width:1.2;"/>
   </g>
   <g id="line2d_167">
    <path clip-path="url(#pf534a6be2d)" d="M 477.619432 306.780891 
L 477.619432 308.747275 
" style="fill:none;stroke:#565656;stroke-linecap:square;stroke-width:1.2;"/>
   </g>
   <g id="line2d_168">
    <path clip-path="url(#pf534a6be2d)" d="M 477.619432 300.229781 
L 477.619432 296.828544 
" style="fill:none;stroke:#565656;stroke-linecap:square;stroke-width:1.2;"/>
   </g>
   <g id="line2d_169">
    <path clip-path="url(#pf534a6be2d)" d="M 474.636668 308.747275 
L 480.602195 308.747275 
" style="fill:none;stroke:#565656;stroke-linecap:square;stroke-width:1.2;"/>
   </g>
   <g id="line2d_170">
    <path clip-path="url(#pf534a6be2d)" d="M 474.636668 296.828544 
L 480.602195 296.828544 
" style="fill:none;stroke:#565656;stroke-linecap:square;stroke-width:1.2;"/>
   </g>
   <g id="line2d_171">
    <path clip-path="url(#pf534a6be2d)" d="M 489.793977 289.594286 
L 489.793977 292.93877 
" style="fill:none;stroke:#565656;stroke-linecap:square;stroke-width:1.2;"/>
   </g>
   <g id="line2d_172">
    <path clip-path="url(#pf534a6be2d)" d="M 489.793977 284.080364 
L 489.793977 277.213226 
" style="fill:none;stroke:#565656;stroke-linecap:square;stroke-width:1.2;"/>
   </g>
   <g id="line2d_173">
    <path clip-path="url(#pf534a6be2d)" d="M 486.811214 292.93877 
L 492.776741 292.93877 
" style="fill:none;stroke:#565656;stroke-linecap:square;stroke-width:1.2;"/>
   </g>
   <g id="line2d_174">
    <path clip-path="url(#pf534a6be2d)" d="M 486.811214 277.213226 
L 492.776741 277.213226 
" style="fill:none;stroke:#565656;stroke-linecap:square;stroke-width:1.2;"/>
   </g>
   <g id="line2d_175">
    <path clip-path="url(#pf534a6be2d)" d="M 508.055795 307.327926 
L 508.055795 309.705012 
" style="fill:none;stroke:#565656;stroke-linecap:square;stroke-width:1.2;"/>
   </g>
   <g id="line2d_176">
    <path clip-path="url(#pf534a6be2d)" d="M 508.055795 300.312208 
L 508.055795 296.673331 
" style="fill:none;stroke:#565656;stroke-linecap:square;stroke-width:1.2;"/>
   </g>
   <g id="line2d_177">
    <path clip-path="url(#pf534a6be2d)" d="M 505.073032 309.705012 
L 511.038559 309.705012 
" style="fill:none;stroke:#565656;stroke-linecap:square;stroke-width:1.2;"/>
   </g>
   <g id="line2d_178">
    <path clip-path="url(#pf534a6be2d)" d="M 505.073032 296.673331 
L 511.038559 296.673331 
" style="fill:none;stroke:#565656;stroke-linecap:square;stroke-width:1.2;"/>
   </g>
   <g id="line2d_179">
    <path clip-path="url(#pf534a6be2d)" d="M 520.230341 290.19466 
L 520.230341 292.514077 
" style="fill:none;stroke:#565656;stroke-linecap:square;stroke-width:1.2;"/>
   </g>
   <g id="line2d_180">
    <path clip-path="url(#pf534a6be2d)" d="M 520.230341 281.536639 
L 520.230341 278.294506 
" style="fill:none;stroke:#565656;stroke-linecap:square;stroke-width:1.2;"/>
   </g>
   <g id="line2d_181">
    <path clip-path="url(#pf534a6be2d)" d="M 517.247577 292.514077 
L 523.213105 292.514077 
" style="fill:none;stroke:#565656;stroke-linecap:square;stroke-width:1.2;"/>
   </g>
   <g id="line2d_182">
    <path clip-path="url(#pf534a6be2d)" d="M 517.247577 278.294506 
L 523.213105 278.294506 
" style="fill:none;stroke:#565656;stroke-linecap:square;stroke-width:1.2;"/>
   </g>
   <g id="line2d_183">
    <path clip-path="url(#pf534a6be2d)" d="M 380.344814 300.300689 
L 392.275868 300.300689 
" style="fill:none;stroke:#565656;stroke-linecap:square;stroke-width:1.2;"/>
   </g>
   <g id="line2d_184">
    <path clip-path="url(#pf534a6be2d)" d="M 392.519359 257.603908 
L 404.450414 257.603908 
" style="fill:none;stroke:#565656;stroke-linecap:square;stroke-width:1.2;"/>
   </g>
   <g id="line2d_185">
    <path clip-path="url(#pf534a6be2d)" d="M 410.781177 303.127007 
L 422.712232 303.127007 
" style="fill:none;stroke:#565656;stroke-linecap:square;stroke-width:1.2;"/>
   </g>
   <g id="line2d_186">
    <path clip-path="url(#pf534a6be2d)" d="M 422.955723 275.741181 
L 434.886777 275.741181 
" style="fill:none;stroke:#565656;stroke-linecap:square;stroke-width:1.2;"/>
   </g>
   <g id="line2d_187">
    <path clip-path="url(#pf534a6be2d)" d="M 441.217541 301.846643 
L 453.148595 301.846643 
" style="fill:none;stroke:#565656;stroke-linecap:square;stroke-width:1.2;"/>
   </g>
   <g id="line2d_188">
    <path clip-path="url(#pf534a6be2d)" d="M 453.392086 284.651953 
L 465.323141 284.651953 
" style="fill:none;stroke:#565656;stroke-linecap:square;stroke-width:1.2;"/>
   </g>
   <g id="line2d_189">
    <path clip-path="url(#pf534a6be2d)" d="M 471.653905 303.453765 
L 483.584959 303.453765 
" style="fill:none;stroke:#565656;stroke-linecap:square;stroke-width:1.2;"/>
   </g>
   <g id="line2d_190">
    <path clip-path="url(#pf534a6be2d)" d="M 483.82845 286.363293 
L 495.759505 286.363293 
" style="fill:none;stroke:#565656;stroke-linecap:square;stroke-width:1.2;"/>
   </g>
   <g id="line2d_191">
    <path clip-path="url(#pf534a6be2d)" d="M 502.090268 303.291249 
L 514.021323 303.291249 
" style="fill:none;stroke:#565656;stroke-linecap:square;stroke-width:1.2;"/>
   </g>
   <g id="line2d_192">
    <path clip-path="url(#pf534a6be2d)" d="M 514.264814 285.857946 
L 526.195868 285.857946 
" style="fill:none;stroke:#565656;stroke-linecap:square;stroke-width:1.2;"/>
   </g>
   <g id="patch_52">
    <path d="M 377.179432 322.66275 
L 377.179432 186.76275 
" style="fill:none;stroke:#000000;stroke-linecap:square;stroke-linejoin:miter;"/>
   </g>
   <g id="patch_53">
    <path d="M 377.179432 322.66275 
L 529.36125 322.66275 
" style="fill:none;stroke:#000000;stroke-linecap:square;stroke-linejoin:miter;"/>
   </g>
  </g>
  <g id="axes_5">
   <g id="matplotlib.axis_9">
    <g id="xtick_17">
     <g id="text_29">
      <!-- 0.0 -->
      <g style="opacity:0;" transform="translate(185.38725 340.411063)scale(0.132 -0.132)">
       <use xlink:href="#ArialMT-30"/>
       <use x="55.615234" xlink:href="#ArialMT-2e"/>
       <use x="83.398438" xlink:href="#ArialMT-30"/>
      </g>
     </g>
    </g>
    <g id="xtick_18">
     <g id="text_30">
      <!-- 0.2 -->
      <g style="opacity:0;" transform="translate(252.34725 340.411063)scale(0.132 -0.132)">
       <use xlink:href="#ArialMT-30"/>
       <use x="55.615234" xlink:href="#ArialMT-2e"/>
       <use x="83.398438" xlink:href="#ArialMT-32"/>
      </g>
     </g>
    </g>
    <g id="xtick_19">
     <g id="text_31">
      <!-- 0.4 -->
      <g style="opacity:0;" transform="translate(319.30725 340.411063)scale(0.132 -0.132)">
       <use xlink:href="#ArialMT-30"/>
       <use x="55.615234" xlink:href="#ArialMT-2e"/>
       <use x="83.398438" xlink:href="#ArialMT-34"/>
      </g>
     </g>
    </g>
    <g id="xtick_20">
     <g id="text_32">
      <!-- 0.6 -->
      <g style="opacity:0;" transform="translate(386.26725 340.411063)scale(0.132 -0.132)">
       <use xlink:href="#ArialMT-30"/>
       <use x="55.615234" xlink:href="#ArialMT-2e"/>
       <use x="83.398438" xlink:href="#ArialMT-36"/>
      </g>
     </g>
    </g>
    <g id="xtick_21">
     <g id="text_33">
      <!-- 0.8 -->
      <g style="opacity:0;" transform="translate(453.22725 340.411063)scale(0.132 -0.132)">
       <use xlink:href="#ArialMT-30"/>
       <use x="55.615234" xlink:href="#ArialMT-2e"/>
       <use x="83.398438" xlink:href="#ArialMT-38"/>
      </g>
     </g>
    </g>
    <g id="xtick_22">
     <g id="text_34">
      <!-- 1.0 -->
      <g style="opacity:0;" transform="translate(520.18725 340.411063)scale(0.132 -0.132)">
       <use xlink:href="#ArialMT-31"/>
       <use x="55.615234" xlink:href="#ArialMT-2e"/>
       <use x="83.398438" xlink:href="#ArialMT-30"/>
      </g>
     </g>
    </g>
    <g id="text_35">
     <!-- Hidden state size -->
     <g transform="translate(303.149625 368.341813)scale(0.144 -0.144)">
      <defs>
       <path d="M 469 0 
L 469 4581 
L 1394 4581 
L 1394 2778 
L 3206 2778 
L 3206 4581 
L 4131 4581 
L 4131 0 
L 3206 0 
L 3206 2003 
L 1394 2003 
L 1394 0 
L 469 0 
z
" id="Arial-BoldMT-48" transform="scale(0.015625)"/>
       <path d="M 459 3769 
L 459 4581 
L 1338 4581 
L 1338 3769 
L 459 3769 
z
M 459 0 
L 459 3319 
L 1338 3319 
L 1338 0 
L 459 0 
z
" id="Arial-BoldMT-69" transform="scale(0.015625)"/>
       <path d="M 3503 0 
L 2688 0 
L 2688 488 
Q 2484 203 2207 64 
Q 1931 -75 1650 -75 
Q 1078 -75 670 386 
Q 263 847 263 1672 
Q 263 2516 659 2955 
Q 1056 3394 1663 3394 
Q 2219 3394 2625 2931 
L 2625 4581 
L 3503 4581 
L 3503 0 
z
M 1159 1731 
Q 1159 1200 1306 963 
Q 1519 619 1900 619 
Q 2203 619 2415 876 
Q 2628 1134 2628 1647 
Q 2628 2219 2422 2470 
Q 2216 2722 1894 2722 
Q 1581 2722 1370 2473 
Q 1159 2225 1159 1731 
z
" id="Arial-BoldMT-64" transform="scale(0.015625)"/>
       <path d="M 2381 1056 
L 3256 909 
Q 3088 428 2723 176 
Q 2359 -75 1813 -75 
Q 947 -75 531 491 
Q 203 944 203 1634 
Q 203 2459 634 2926 
Q 1066 3394 1725 3394 
Q 2466 3394 2894 2905 
Q 3322 2416 3303 1406 
L 1103 1406 
Q 1113 1016 1316 798 
Q 1519 581 1822 581 
Q 2028 581 2168 693 
Q 2309 806 2381 1056 
z
M 2431 1944 
Q 2422 2325 2234 2523 
Q 2047 2722 1778 2722 
Q 1491 2722 1303 2513 
Q 1116 2303 1119 1944 
L 2431 1944 
z
" id="Arial-BoldMT-65" transform="scale(0.015625)"/>
       <path d="M 3478 0 
L 2600 0 
L 2600 1694 
Q 2600 2231 2544 2389 
Q 2488 2547 2361 2634 
Q 2234 2722 2056 2722 
Q 1828 2722 1647 2597 
Q 1466 2472 1398 2265 
Q 1331 2059 1331 1503 
L 1331 0 
L 453 0 
L 453 3319 
L 1269 3319 
L 1269 2831 
Q 1703 3394 2363 3394 
Q 2653 3394 2893 3289 
Q 3134 3184 3257 3021 
Q 3381 2859 3429 2653 
Q 3478 2447 3478 2063 
L 3478 0 
z
" id="Arial-BoldMT-6e" transform="scale(0.015625)"/>
       <path id="Arial-BoldMT-20" transform="scale(0.015625)"/>
       <path d="M 150 947 
L 1031 1081 
Q 1088 825 1259 692 
Q 1431 559 1741 559 
Q 2081 559 2253 684 
Q 2369 772 2369 919 
Q 2369 1019 2306 1084 
Q 2241 1147 2013 1200 
Q 950 1434 666 1628 
Q 272 1897 272 2375 
Q 272 2806 612 3100 
Q 953 3394 1669 3394 
Q 2350 3394 2681 3172 
Q 3013 2950 3138 2516 
L 2309 2363 
Q 2256 2556 2107 2659 
Q 1959 2763 1684 2763 
Q 1338 2763 1188 2666 
Q 1088 2597 1088 2488 
Q 1088 2394 1175 2328 
Q 1294 2241 1995 2081 
Q 2697 1922 2975 1691 
Q 3250 1456 3250 1038 
Q 3250 581 2869 253 
Q 2488 -75 1741 -75 
Q 1063 -75 667 200 
Q 272 475 150 947 
z
" id="Arial-BoldMT-73" transform="scale(0.015625)"/>
       <path d="M 1981 3319 
L 1981 2619 
L 1381 2619 
L 1381 1281 
Q 1381 875 1398 808 
Q 1416 741 1477 697 
Q 1538 653 1625 653 
Q 1747 653 1978 738 
L 2053 56 
Q 1747 -75 1359 -75 
Q 1122 -75 931 4 
Q 741 84 652 211 
Q 563 338 528 553 
Q 500 706 500 1172 
L 500 2619 
L 97 2619 
L 97 3319 
L 500 3319 
L 500 3978 
L 1381 4491 
L 1381 3319 
L 1981 3319 
z
" id="Arial-BoldMT-74" transform="scale(0.015625)"/>
       <path d="M 1116 2306 
L 319 2450 
Q 453 2931 781 3162 
Q 1109 3394 1756 3394 
Q 2344 3394 2631 3255 
Q 2919 3116 3036 2902 
Q 3153 2688 3153 2116 
L 3144 1091 
Q 3144 653 3186 445 
Q 3228 238 3344 0 
L 2475 0 
Q 2441 88 2391 259 
Q 2369 338 2359 363 
Q 2134 144 1878 34 
Q 1622 -75 1331 -75 
Q 819 -75 523 203 
Q 228 481 228 906 
Q 228 1188 362 1408 
Q 497 1628 739 1745 
Q 981 1863 1438 1950 
Q 2053 2066 2291 2166 
L 2291 2253 
Q 2291 2506 2166 2614 
Q 2041 2722 1694 2722 
Q 1459 2722 1328 2630 
Q 1197 2538 1116 2306 
z
M 2291 1594 
Q 2122 1538 1756 1459 
Q 1391 1381 1278 1306 
Q 1106 1184 1106 997 
Q 1106 813 1243 678 
Q 1381 544 1594 544 
Q 1831 544 2047 700 
Q 2206 819 2256 991 
Q 2291 1103 2291 1419 
L 2291 1594 
z
" id="Arial-BoldMT-61" transform="scale(0.015625)"/>
       <path d="M 106 0 
L 106 684 
L 1350 2113 
Q 1656 2463 1803 2609 
Q 1650 2600 1400 2597 
L 228 2591 
L 228 3319 
L 2972 3319 
L 2972 2697 
L 1703 1234 
L 1256 750 
Q 1622 772 1709 772 
L 3069 772 
L 3069 0 
L 106 0 
z
" id="Arial-BoldMT-7a" transform="scale(0.015625)"/>
      </defs>
      <use xlink:href="#Arial-BoldMT-48"/>
      <use x="72.216797" xlink:href="#Arial-BoldMT-69"/>
      <use x="100" xlink:href="#Arial-BoldMT-64"/>
      <use x="161.083984" xlink:href="#Arial-BoldMT-64"/>
      <use x="222.167969" xlink:href="#Arial-BoldMT-65"/>
      <use x="277.783203" xlink:href="#Arial-BoldMT-6e"/>
      <use x="338.867188" xlink:href="#Arial-BoldMT-20"/>
      <use x="366.650391" xlink:href="#Arial-BoldMT-73"/>
      <use x="422.265625" xlink:href="#Arial-BoldMT-74"/>
      <use x="455.566406" xlink:href="#Arial-BoldMT-61"/>
      <use x="511.181641" xlink:href="#Arial-BoldMT-74"/>
      <use x="544.482422" xlink:href="#Arial-BoldMT-65"/>
      <use x="600.097656" xlink:href="#Arial-BoldMT-20"/>
      <use x="627.880859" xlink:href="#Arial-BoldMT-73"/>
      <use x="683.496094" xlink:href="#Arial-BoldMT-69"/>
      <use x="711.279297" xlink:href="#Arial-BoldMT-7a"/>
      <use x="761.279297" xlink:href="#Arial-BoldMT-65"/>
     </g>
    </g>
   </g>
   <g id="matplotlib.axis_10">
    <g id="ytick_17">
     <g id="text_36">
      <!-- 0.0 -->
      <g style="opacity:0;" transform="translate(167.91325 327.386906)scale(0.132 -0.132)">
       <use xlink:href="#ArialMT-30"/>
       <use x="55.615234" xlink:href="#ArialMT-2e"/>
       <use x="83.398438" xlink:href="#ArialMT-30"/>
      </g>
     </g>
    </g>
    <g id="ytick_18">
     <g id="text_37">
      <!-- 0.2 -->
      <g style="opacity:0;" transform="translate(167.91325 267.590906)scale(0.132 -0.132)">
       <use xlink:href="#ArialMT-30"/>
       <use x="55.615234" xlink:href="#ArialMT-2e"/>
       <use x="83.398438" xlink:href="#ArialMT-32"/>
      </g>
     </g>
    </g>
    <g id="ytick_19">
     <g id="text_38">
      <!-- 0.4 -->
      <g style="opacity:0;" transform="translate(167.91325 207.794906)scale(0.132 -0.132)">
       <use xlink:href="#ArialMT-30"/>
       <use x="55.615234" xlink:href="#ArialMT-2e"/>
       <use x="83.398438" xlink:href="#ArialMT-34"/>
      </g>
     </g>
    </g>
    <g id="ytick_20">
     <g id="text_39">
      <!-- 0.6 -->
      <g style="opacity:0;" transform="translate(167.91325 147.998906)scale(0.132 -0.132)">
       <use xlink:href="#ArialMT-30"/>
       <use x="55.615234" xlink:href="#ArialMT-2e"/>
       <use x="83.398438" xlink:href="#ArialMT-36"/>
      </g>
     </g>
    </g>
    <g id="ytick_21">
     <g id="text_40">
      <!-- 0.8 -->
      <g style="opacity:0;" transform="translate(167.91325 88.202906)scale(0.132 -0.132)">
       <use xlink:href="#ArialMT-30"/>
       <use x="55.615234" xlink:href="#ArialMT-2e"/>
       <use x="83.398438" xlink:href="#ArialMT-38"/>
      </g>
     </g>
    </g>
    <g id="ytick_22">
     <g id="text_41">
      <!-- 1.0 -->
      <g style="opacity:0;" transform="translate(167.91325 28.406906)scale(0.132 -0.132)">
       <use xlink:href="#ArialMT-31"/>
       <use x="55.615234" xlink:href="#ArialMT-2e"/>
       <use x="83.398438" xlink:href="#ArialMT-30"/>
      </g>
     </g>
    </g>
   </g>
   <g id="legend_1">
    <g id="patch_54">
     <path d="M 9.84 331.01175 
L 118.36125 331.01175 
Q 121.00125 331.01175 121.00125 328.37175 
L 121.00125 272.410125 
Q 121.00125 269.770125 118.36125 269.770125 
L 9.84 269.770125 
Q 7.2 269.770125 7.2 272.410125 
L 7.2 328.37175 
Q 7.2 331.01175 9.84 331.01175 
z
" style="fill:#ffffff;opacity:0.8;stroke:#cccccc;stroke-linejoin:miter;stroke-width:0.8;"/>
    </g>
    <g id="text_42">
     <!-- Post-processing -->
     <g transform="translate(12.48 285.357375)scale(0.144 -0.144)">
      <defs>
       <path d="M 494 0 
L 494 4581 
L 2222 4581 
Q 2678 4581 2919 4538 
Q 3256 4481 3484 4323 
Q 3713 4166 3852 3881 
Q 3991 3597 3991 3256 
Q 3991 2672 3619 2267 
Q 3247 1863 2275 1863 
L 1100 1863 
L 1100 0 
L 494 0 
z
M 1100 2403 
L 2284 2403 
Q 2872 2403 3119 2622 
Q 3366 2841 3366 3238 
Q 3366 3525 3220 3729 
Q 3075 3934 2838 4000 
Q 2684 4041 2272 4041 
L 1100 4041 
L 1100 2403 
z
" id="ArialMT-50" transform="scale(0.015625)"/>
       <path d="M 203 1375 
L 203 1941 
L 1931 1941 
L 1931 1375 
L 203 1375 
z
" id="ArialMT-2d" transform="scale(0.015625)"/>
       <path d="M 422 -1272 
L 422 3319 
L 934 3319 
L 934 2888 
Q 1116 3141 1344 3267 
Q 1572 3394 1897 3394 
Q 2322 3394 2647 3175 
Q 2972 2956 3137 2557 
Q 3303 2159 3303 1684 
Q 3303 1175 3120 767 
Q 2938 359 2589 142 
Q 2241 -75 1856 -75 
Q 1575 -75 1351 44 
Q 1128 163 984 344 
L 984 -1272 
L 422 -1272 
z
M 931 1641 
Q 931 1000 1190 694 
Q 1450 388 1819 388 
Q 2194 388 2461 705 
Q 2728 1022 2728 1688 
Q 2728 2322 2467 2637 
Q 2206 2953 1844 2953 
Q 1484 2953 1207 2617 
Q 931 2281 931 1641 
z
" id="ArialMT-70" transform="scale(0.015625)"/>
      </defs>
      <use xlink:href="#ArialMT-50"/>
      <use x="66.699219" xlink:href="#ArialMT-6f"/>
      <use x="122.314453" xlink:href="#ArialMT-73"/>
      <use x="172.314453" xlink:href="#ArialMT-74"/>
      <use x="200.097656" xlink:href="#ArialMT-2d"/>
      <use x="233.398438" xlink:href="#ArialMT-70"/>
      <use x="289.013672" xlink:href="#ArialMT-72"/>
      <use x="322.314453" xlink:href="#ArialMT-6f"/>
      <use x="377.929688" xlink:href="#ArialMT-63"/>
      <use x="427.929688" xlink:href="#ArialMT-65"/>
      <use x="483.544922" xlink:href="#ArialMT-73"/>
      <use x="533.544922" xlink:href="#ArialMT-73"/>
      <use x="583.544922" xlink:href="#ArialMT-69"/>
      <use x="605.761719" xlink:href="#ArialMT-6e"/>
      <use x="661.376953" xlink:href="#ArialMT-67"/>
     </g>
    </g>
    <g id="patch_55">
     <path d="M 23.246625 304.436438 
L 49.646625 304.436438 
L 49.646625 295.196438 
L 23.246625 295.196438 
z
" style="fill:#68afd7;stroke:#565656;stroke-linejoin:miter;stroke-width:0.6;"/>
    </g>
    <g id="text_43">
     <!-- With -->
     <g transform="translate(60.206625 304.436438)scale(0.132 -0.132)">
      <defs>
       <path d="M 1294 0 
L 78 4581 
L 700 4581 
L 1397 1578 
Q 1509 1106 1591 641 
Q 1766 1375 1797 1488 
L 2669 4581 
L 3400 4581 
L 4056 2263 
Q 4303 1400 4413 641 
Q 4500 1075 4641 1638 
L 5359 4581 
L 5969 4581 
L 4713 0 
L 4128 0 
L 3163 3491 
Q 3041 3928 3019 4028 
Q 2947 3713 2884 3491 
L 1913 0 
L 1294 0 
z
" id="ArialMT-57" transform="scale(0.015625)"/>
      </defs>
      <use xlink:href="#ArialMT-57"/>
      <use x="94.384766" xlink:href="#ArialMT-69"/>
      <use x="116.601562" xlink:href="#ArialMT-74"/>
      <use x="144.384766" xlink:href="#ArialMT-68"/>
     </g>
    </g>
    <g id="patch_56">
     <path d="M 23.246625 323.10825 
L 49.646625 323.10825 
L 49.646625 313.86825 
L 23.246625 313.86825 
z
" style="fill:#d5cd4a;stroke:#565656;stroke-linejoin:miter;stroke-width:0.6;"/>
    </g>
    <g id="text_44">
     <!-- Without -->
     <g transform="translate(60.206625 323.10825)scale(0.132 -0.132)">
      <use xlink:href="#ArialMT-57"/>
      <use x="94.384766" xlink:href="#ArialMT-69"/>
      <use x="116.601562" xlink:href="#ArialMT-74"/>
      <use x="144.384766" xlink:href="#ArialMT-68"/>
      <use x="200" xlink:href="#ArialMT-6f"/>
      <use x="255.615234" xlink:href="#ArialMT-75"/>
      <use x="311.230469" xlink:href="#ArialMT-74"/>
     </g>
    </g>
   </g>
  </g>
 </g>
 <defs>
  <clipPath id="p91409cad68">
   <rect height="135.9" width="152.181818" x="194.56125" y="23.68275"/>
  </clipPath>
  <clipPath id="p05d2d3fc3f">
   <rect height="135.9" width="152.181818" x="377.179432" y="23.68275"/>
  </clipPath>
  <clipPath id="p24ef49e010">
   <rect height="135.9" width="152.181818" x="194.56125" y="186.76275"/>
  </clipPath>
  <clipPath id="pf534a6be2d">
   <rect height="135.9" width="152.181818" x="377.179432" y="186.76275"/>
  </clipPath>
 </defs>
</svg>
