<?xml version="1.0" encoding="utf-8" standalone="no"?>
<!DOCTYPE svg PUBLIC "-//W3C//DTD SVG 1.1//EN"
  "http://www.w3.org/Graphics/SVG/1.1/DTD/svg11.dtd">
<svg height="468.70275pt" version="1.1" viewBox="0 0 529.524687 468.70275" width="529.524687pt" xmlns="http://www.w3.org/2000/svg" xmlns:xlink="http://www.w3.org/1999/xlink">
 <metadata>
  <rdf:RDF xmlns:cc="http://creativecommons.org/ns#" xmlns:dc="http://purl.org/dc/elements/1.1/" xmlns:rdf="http://www.w3.org/1999/02/22-rdf-syntax-ns#">
   <cc:Work>
    <dc:type rdf:resource="http://purl.org/dc/dcmitype/StillImage"/>
    <dc:date>2021-10-26T09:50:46.787535</dc:date>
    <dc:format>image/svg+xml</dc:format>
    <dc:creator>
     <cc:Agent>
      <dc:title>Matplotlib v3.4.1, https://matplotlib.org/</dc:title>
     </cc:Agent>
    </dc:creator>
   </cc:Work>
  </rdf:RDF>
 </metadata>
 <defs>
  <style type="text/css">*{stroke-linecap:butt;stroke-linejoin:round;}</style>
 </defs>
 <g id="figure_1">
  <g id="patch_1">
   <path d="M 0 468.70275 
L 529.524687 468.70275 
L 529.524687 0 
L 0 0 
z
" style="fill:none;"/>
  </g>
  <g id="axes_1">
   <g id="patch_2">
    <path d="M 65.428625 88.094691 
L 268.337716 88.094691 
L 268.337716 24.14175 
L 65.428625 24.14175 
z
" style="fill:#ffffff;"/>
   </g>
   <g id="PolyCollection_1">
    <defs>
     <path d="M 74.651765 -373.843359 
L 74.651765 -372.838754 
L 105.395567 -372.691149 
L 136.139369 -372.525587 
L 166.88317 -372.483257 
L 197.626972 -372.456282 
L 228.370774 -372.421991 
L 259.114575 -372.409858 
L 259.114575 -373.16211 
L 259.114575 -373.16211 
L 228.370774 -373.112805 
L 197.626972 -373.187493 
L 166.88317 -373.25595 
L 136.139369 -373.381364 
L 105.395567 -373.470375 
L 74.651765 -373.843359 
z
" id="mbeca6ac80c" style="stroke:#de8f05;stroke-opacity:0.2;stroke-width:0.8;"/>
    </defs>
    <g clip-path="url(#p9e8988b39a)">
     <use style="fill:#de8f05;fill-opacity:0.2;stroke:#de8f05;stroke-opacity:0.2;stroke-width:0.8;" x="0" xlink:href="#mbeca6ac80c" y="468.70275"/>
    </g>
   </g>
   <g id="PolyCollection_2">
    <defs>
     <path d="M 74.651765 -379.232744 
L 74.651765 -375.713855 
L 105.395567 -375.574489 
L 136.139369 -375.440838 
L 166.88317 -375.386483 
L 197.626972 -375.369276 
L 228.370774 -375.251975 
L 259.114575 -375.234575 
L 259.114575 -378.437587 
L 259.114575 -378.437587 
L 228.370774 -378.364619 
L 197.626972 -378.503729 
L 166.88317 -378.593041 
L 136.139369 -378.719307 
L 105.395567 -378.836539 
L 74.651765 -379.232744 
z
" id="mbd7716f645" style="stroke:#de8f05;stroke-opacity:0.2;stroke-width:0.8;"/>
    </defs>
    <g clip-path="url(#p9e8988b39a)">
     <use style="fill:#de8f05;fill-opacity:0.2;stroke:#de8f05;stroke-opacity:0.2;stroke-width:0.8;" x="0" xlink:href="#mbd7716f645" y="468.70275"/>
    </g>
   </g>
   <g id="PolyCollection_3">
    <defs>
     <path d="M 74.651765 -376.098547 
L 74.651765 -374.391692 
L 105.395567 -374.221616 
L 136.139369 -374.226789 
L 166.88317 -374.063123 
L 197.626972 -374.038226 
L 228.370774 -373.960143 
L 259.114575 -373.757533 
L 259.114575 -375.34694 
L 259.114575 -375.34694 
L 228.370774 -375.311363 
L 197.626972 -375.553263 
L 166.88317 -375.503258 
L 136.139369 -375.613556 
L 105.395567 -375.831863 
L 74.651765 -376.098547 
z
" id="mffb0536135" style="stroke:#de8f05;stroke-opacity:0.2;stroke-width:0.8;"/>
    </defs>
    <g clip-path="url(#p9e8988b39a)">
     <use style="fill:#de8f05;fill-opacity:0.2;stroke:#de8f05;stroke-opacity:0.2;stroke-width:0.8;" x="0" xlink:href="#mffb0536135" y="468.70275"/>
    </g>
   </g>
   <g id="PolyCollection_4">
    <defs>
     <path d="M 74.651765 -376.310084 
L 74.651765 -375.131506 
L 105.395567 -374.526969 
L 136.139369 -373.87318 
L 166.88317 -373.611053 
L 197.626972 -373.365621 
L 228.370774 -372.733189 
L 259.114575 -372.809677 
L 259.114575 -373.608894 
L 259.114575 -373.608894 
L 228.370774 -373.660715 
L 197.626972 -374.253589 
L 166.88317 -374.378879 
L 136.139369 -375.250992 
L 105.395567 -375.740008 
L 74.651765 -376.310084 
z
" id="mdfdd102c84" style="stroke:#0173b2;stroke-opacity:0.2;stroke-width:0.8;"/>
    </defs>
    <g clip-path="url(#p9e8988b39a)">
     <use style="fill:#0173b2;fill-opacity:0.2;stroke:#0173b2;stroke-opacity:0.2;stroke-width:0.8;" x="0" xlink:href="#mdfdd102c84" y="468.70275"/>
    </g>
   </g>
   <g id="matplotlib.axis_1">
    <g id="xtick_1"/>
    <g id="xtick_2"/>
    <g id="xtick_3"/>
    <g id="xtick_4"/>
    <g id="xtick_5"/>
    <g id="xtick_6"/>
    <g id="xtick_7"/>
   </g>
   <g id="matplotlib.axis_2">
    <g id="ytick_1">
     <g id="line2d_1">
      <defs>
       <path d="M 0 0 
L -4.8 0 
" id="m66de6d52f4" style="stroke:#000000;"/>
      </defs>
      <g>
       <use style="stroke:#000000;" x="65.428625" xlink:href="#m66de6d52f4" y="61.963382"/>
      </g>
     </g>
     <g id="text_1">
      <!-- 50 -->
      <g transform="translate(40.331625 66.978351)scale(0.132 -0.132)">
       <defs>
        <path d="M 691 4666 
L 3169 4666 
L 3169 4134 
L 1269 4134 
L 1269 2991 
Q 1406 3038 1543 3061 
Q 1681 3084 1819 3084 
Q 2600 3084 3056 2656 
Q 3513 2228 3513 1497 
Q 3513 744 3044 326 
Q 2575 -91 1722 -91 
Q 1428 -91 1123 -41 
Q 819 9 494 109 
L 494 744 
Q 775 591 1075 516 
Q 1375 441 1709 441 
Q 2250 441 2565 725 
Q 2881 1009 2881 1497 
Q 2881 1984 2565 2268 
Q 2250 2553 1709 2553 
Q 1456 2553 1204 2497 
Q 953 2441 691 2322 
L 691 4666 
z
" id="DejaVuSans-35" transform="scale(0.015625)"/>
        <path d="M 2034 4250 
Q 1547 4250 1301 3770 
Q 1056 3291 1056 2328 
Q 1056 1369 1301 889 
Q 1547 409 2034 409 
Q 2525 409 2770 889 
Q 3016 1369 3016 2328 
Q 3016 3291 2770 3770 
Q 2525 4250 2034 4250 
z
M 2034 4750 
Q 2819 4750 3233 4129 
Q 3647 3509 3647 2328 
Q 3647 1150 3233 529 
Q 2819 -91 2034 -91 
Q 1250 -91 836 529 
Q 422 1150 422 2328 
Q 422 3509 836 4129 
Q 1250 4750 2034 4750 
z
" id="DejaVuSans-30" transform="scale(0.015625)"/>
       </defs>
       <use xlink:href="#DejaVuSans-35"/>
       <use x="63.623047" xlink:href="#DejaVuSans-30"/>
      </g>
     </g>
    </g>
    <g id="ytick_2">
     <g id="line2d_2">
      <g>
       <use style="stroke:#000000;" x="65.428625" xlink:href="#m66de6d52f4" y="27.58008"/>
      </g>
     </g>
     <g id="text_2">
      <!-- 100 -->
      <g transform="translate(31.933125 32.595049)scale(0.132 -0.132)">
       <defs>
        <path d="M 794 531 
L 1825 531 
L 1825 4091 
L 703 3866 
L 703 4441 
L 1819 4666 
L 2450 4666 
L 2450 531 
L 3481 531 
L 3481 0 
L 794 0 
L 794 531 
z
" id="DejaVuSans-31" transform="scale(0.015625)"/>
       </defs>
       <use xlink:href="#DejaVuSans-31"/>
       <use x="63.623047" xlink:href="#DejaVuSans-30"/>
       <use x="127.246094" xlink:href="#DejaVuSans-30"/>
      </g>
     </g>
    </g>
   </g>
   <g id="line2d_3">
    <path clip-path="url(#p9e8988b39a)" d="M 74.651765 95.461783 
L 105.395567 95.722349 
L 136.139369 95.791691 
L 166.88317 95.93957 
L 197.626972 95.988598 
L 228.370774 96.035609 
L 259.114575 96.029816 
" style="fill:none;stroke:#de8f05;stroke-dasharray:12,4.5;stroke-dashoffset:0;stroke-width:3;"/>
   </g>
   <g id="line2d_4">
    <path clip-path="url(#p9e8988b39a)" d="M 74.651765 91.447284 
L 105.395567 91.704918 
L 136.139369 91.793589 
L 166.88317 91.93906 
L 197.626972 91.9914 
L 228.370774 92.089647 
L 259.114575 92.075865 
" style="fill:none;stroke:#de8f05;stroke-dasharray:3,3;stroke-dashoffset:0;stroke-width:3;"/>
   </g>
   <g id="line2d_5">
    <path clip-path="url(#p9e8988b39a)" d="M 74.651765 93.45763 
L 105.395567 93.676011 
L 136.139369 93.782578 
L 166.88317 93.919559 
L 197.626972 93.963492 
L 228.370774 94.061066 
L 259.114575 94.05203 
" style="fill:none;stroke:#de8f05;stroke-dasharray:9,3.75,4.5,3.75;stroke-dashoffset:0;stroke-width:3;"/>
   </g>
   <g id="line2d_6">
    <path clip-path="url(#p9e8988b39a)" d="M 74.651765 93.014167 
L 105.395567 93.542115 
L 136.139369 94.140664 
L 166.88317 94.813456 
L 197.626972 95.000781 
L 228.370774 95.576035 
L 259.114575 95.598026 
" style="fill:none;stroke:#0173b2;stroke-linecap:square;stroke-width:3;"/>
   </g>
   <g id="patch_3">
    <path d="M 65.428625 88.094691 
L 65.428625 24.14175 
" style="fill:none;stroke:#000000;stroke-linecap:square;stroke-linejoin:miter;"/>
   </g>
   <g id="text_3">
    <!-- Bengalese Finches -->
    <g transform="translate(100.18192 18.14175)scale(0.144 -0.144)">
     <defs>
      <path d="M 1259 2228 
L 1259 519 
L 2272 519 
Q 2781 519 3026 730 
Q 3272 941 3272 1375 
Q 3272 1813 3026 2020 
Q 2781 2228 2272 2228 
L 1259 2228 
z
M 1259 4147 
L 1259 2741 
L 2194 2741 
Q 2656 2741 2882 2914 
Q 3109 3088 3109 3444 
Q 3109 3797 2882 3972 
Q 2656 4147 2194 4147 
L 1259 4147 
z
M 628 4666 
L 2241 4666 
Q 2963 4666 3353 4366 
Q 3744 4066 3744 3513 
Q 3744 3084 3544 2831 
Q 3344 2578 2956 2516 
Q 3422 2416 3680 2098 
Q 3938 1781 3938 1306 
Q 3938 681 3513 340 
Q 3088 0 2303 0 
L 628 0 
L 628 4666 
z
" id="DejaVuSans-42" transform="scale(0.015625)"/>
      <path d="M 3597 1894 
L 3597 1613 
L 953 1613 
Q 991 1019 1311 708 
Q 1631 397 2203 397 
Q 2534 397 2845 478 
Q 3156 559 3463 722 
L 3463 178 
Q 3153 47 2828 -22 
Q 2503 -91 2169 -91 
Q 1331 -91 842 396 
Q 353 884 353 1716 
Q 353 2575 817 3079 
Q 1281 3584 2069 3584 
Q 2775 3584 3186 3129 
Q 3597 2675 3597 1894 
z
M 3022 2063 
Q 3016 2534 2758 2815 
Q 2500 3097 2075 3097 
Q 1594 3097 1305 2825 
Q 1016 2553 972 2059 
L 3022 2063 
z
" id="DejaVuSans-65" transform="scale(0.015625)"/>
      <path d="M 3513 2113 
L 3513 0 
L 2938 0 
L 2938 2094 
Q 2938 2591 2744 2837 
Q 2550 3084 2163 3084 
Q 1697 3084 1428 2787 
Q 1159 2491 1159 1978 
L 1159 0 
L 581 0 
L 581 3500 
L 1159 3500 
L 1159 2956 
Q 1366 3272 1645 3428 
Q 1925 3584 2291 3584 
Q 2894 3584 3203 3211 
Q 3513 2838 3513 2113 
z
" id="DejaVuSans-6e" transform="scale(0.015625)"/>
      <path d="M 2906 1791 
Q 2906 2416 2648 2759 
Q 2391 3103 1925 3103 
Q 1463 3103 1205 2759 
Q 947 2416 947 1791 
Q 947 1169 1205 825 
Q 1463 481 1925 481 
Q 2391 481 2648 825 
Q 2906 1169 2906 1791 
z
M 3481 434 
Q 3481 -459 3084 -895 
Q 2688 -1331 1869 -1331 
Q 1566 -1331 1297 -1286 
Q 1028 -1241 775 -1147 
L 775 -588 
Q 1028 -725 1275 -790 
Q 1522 -856 1778 -856 
Q 2344 -856 2625 -561 
Q 2906 -266 2906 331 
L 2906 616 
Q 2728 306 2450 153 
Q 2172 0 1784 0 
Q 1141 0 747 490 
Q 353 981 353 1791 
Q 353 2603 747 3093 
Q 1141 3584 1784 3584 
Q 2172 3584 2450 3431 
Q 2728 3278 2906 2969 
L 2906 3500 
L 3481 3500 
L 3481 434 
z
" id="DejaVuSans-67" transform="scale(0.015625)"/>
      <path d="M 2194 1759 
Q 1497 1759 1228 1600 
Q 959 1441 959 1056 
Q 959 750 1161 570 
Q 1363 391 1709 391 
Q 2188 391 2477 730 
Q 2766 1069 2766 1631 
L 2766 1759 
L 2194 1759 
z
M 3341 1997 
L 3341 0 
L 2766 0 
L 2766 531 
Q 2569 213 2275 61 
Q 1981 -91 1556 -91 
Q 1019 -91 701 211 
Q 384 513 384 1019 
Q 384 1609 779 1909 
Q 1175 2209 1959 2209 
L 2766 2209 
L 2766 2266 
Q 2766 2663 2505 2880 
Q 2244 3097 1772 3097 
Q 1472 3097 1187 3025 
Q 903 2953 641 2809 
L 641 3341 
Q 956 3463 1253 3523 
Q 1550 3584 1831 3584 
Q 2591 3584 2966 3190 
Q 3341 2797 3341 1997 
z
" id="DejaVuSans-61" transform="scale(0.015625)"/>
      <path d="M 603 4863 
L 1178 4863 
L 1178 0 
L 603 0 
L 603 4863 
z
" id="DejaVuSans-6c" transform="scale(0.015625)"/>
      <path d="M 2834 3397 
L 2834 2853 
Q 2591 2978 2328 3040 
Q 2066 3103 1784 3103 
Q 1356 3103 1142 2972 
Q 928 2841 928 2578 
Q 928 2378 1081 2264 
Q 1234 2150 1697 2047 
L 1894 2003 
Q 2506 1872 2764 1633 
Q 3022 1394 3022 966 
Q 3022 478 2636 193 
Q 2250 -91 1575 -91 
Q 1294 -91 989 -36 
Q 684 19 347 128 
L 347 722 
Q 666 556 975 473 
Q 1284 391 1588 391 
Q 1994 391 2212 530 
Q 2431 669 2431 922 
Q 2431 1156 2273 1281 
Q 2116 1406 1581 1522 
L 1381 1569 
Q 847 1681 609 1914 
Q 372 2147 372 2553 
Q 372 3047 722 3315 
Q 1072 3584 1716 3584 
Q 2034 3584 2315 3537 
Q 2597 3491 2834 3397 
z
" id="DejaVuSans-73" transform="scale(0.015625)"/>
      <path id="DejaVuSans-20" transform="scale(0.015625)"/>
      <path d="M 628 4666 
L 3309 4666 
L 3309 4134 
L 1259 4134 
L 1259 2759 
L 3109 2759 
L 3109 2228 
L 1259 2228 
L 1259 0 
L 628 0 
L 628 4666 
z
" id="DejaVuSans-46" transform="scale(0.015625)"/>
      <path d="M 603 3500 
L 1178 3500 
L 1178 0 
L 603 0 
L 603 3500 
z
M 603 4863 
L 1178 4863 
L 1178 4134 
L 603 4134 
L 603 4863 
z
" id="DejaVuSans-69" transform="scale(0.015625)"/>
      <path d="M 3122 3366 
L 3122 2828 
Q 2878 2963 2633 3030 
Q 2388 3097 2138 3097 
Q 1578 3097 1268 2742 
Q 959 2388 959 1747 
Q 959 1106 1268 751 
Q 1578 397 2138 397 
Q 2388 397 2633 464 
Q 2878 531 3122 666 
L 3122 134 
Q 2881 22 2623 -34 
Q 2366 -91 2075 -91 
Q 1284 -91 818 406 
Q 353 903 353 1747 
Q 353 2603 823 3093 
Q 1294 3584 2113 3584 
Q 2378 3584 2631 3529 
Q 2884 3475 3122 3366 
z
" id="DejaVuSans-63" transform="scale(0.015625)"/>
      <path d="M 3513 2113 
L 3513 0 
L 2938 0 
L 2938 2094 
Q 2938 2591 2744 2837 
Q 2550 3084 2163 3084 
Q 1697 3084 1428 2787 
Q 1159 2491 1159 1978 
L 1159 0 
L 581 0 
L 581 4863 
L 1159 4863 
L 1159 2956 
Q 1366 3272 1645 3428 
Q 1925 3584 2291 3584 
Q 2894 3584 3203 3211 
Q 3513 2838 3513 2113 
z
" id="DejaVuSans-68" transform="scale(0.015625)"/>
     </defs>
     <use xlink:href="#DejaVuSans-42"/>
     <use x="68.603516" xlink:href="#DejaVuSans-65"/>
     <use x="130.126953" xlink:href="#DejaVuSans-6e"/>
     <use x="193.505859" xlink:href="#DejaVuSans-67"/>
     <use x="256.982422" xlink:href="#DejaVuSans-61"/>
     <use x="318.261719" xlink:href="#DejaVuSans-6c"/>
     <use x="346.044922" xlink:href="#DejaVuSans-65"/>
     <use x="407.568359" xlink:href="#DejaVuSans-73"/>
     <use x="459.667969" xlink:href="#DejaVuSans-65"/>
     <use x="521.191406" xlink:href="#DejaVuSans-20"/>
     <use x="552.978516" xlink:href="#DejaVuSans-46"/>
     <use x="603.248047" xlink:href="#DejaVuSans-69"/>
     <use x="631.03125" xlink:href="#DejaVuSans-6e"/>
     <use x="694.410156" xlink:href="#DejaVuSans-63"/>
     <use x="749.390625" xlink:href="#DejaVuSans-68"/>
     <use x="812.769531" xlink:href="#DejaVuSans-65"/>
     <use x="874.292969" xlink:href="#DejaVuSans-73"/>
    </g>
   </g>
  </g>
  <g id="axes_2">
   <g id="patch_4">
    <path d="M 308.919534 88.094691 
L 511.828625 88.094691 
L 511.828625 24.14175 
L 308.919534 24.14175 
z
" style="fill:#ffffff;"/>
   </g>
   <g id="PolyCollection_5">
    <defs>
     <path d="M 318.142675 -377.954504 
L 318.142675 -375.314157 
L 344.494505 -374.890405 
L 370.846335 -374.591989 
L 397.198165 -374.476042 
L 423.549995 -374.563099 
L 449.901825 -374.142499 
L 476.253655 -374.100827 
L 502.605485 -374.110012 
L 502.605485 -376.570825 
L 502.605485 -376.570825 
L 476.253655 -376.524377 
L 449.901825 -376.962131 
L 423.549995 -377.959667 
L 397.198165 -376.948942 
L 370.846335 -377.430726 
L 344.494505 -377.627524 
L 318.142675 -377.954504 
z
" id="mf86caba064" style="stroke:#de8f05;stroke-opacity:0.2;stroke-width:0.8;"/>
    </defs>
    <g clip-path="url(#p8a79d483f4)">
     <use style="fill:#de8f05;fill-opacity:0.2;stroke:#de8f05;stroke-opacity:0.2;stroke-width:0.8;" x="0" xlink:href="#mf86caba064" y="468.70275"/>
    </g>
   </g>
   <g id="PolyCollection_6">
    <defs>
     <path d="M 318.142675 -443.13464 
L 318.142675 -384.177719 
L 344.494505 -384.081313 
L 370.846335 -383.735943 
L 397.198165 -383.475459 
L 423.549995 -384.162455 
L 449.901825 -383.601963 
L 476.253655 -382.943052 
L 502.605485 -382.990251 
L 502.605485 -441.555945 
L 502.605485 -441.555945 
L 476.253655 -440.28256 
L 449.901825 -441.081774 
L 423.549995 -441.662403 
L 397.198165 -441.166772 
L 370.846335 -442.10793 
L 344.494505 -442.331588 
L 318.142675 -443.13464 
z
" id="mb305f3a877" style="stroke:#de8f05;stroke-opacity:0.2;stroke-width:0.8;"/>
    </defs>
    <g clip-path="url(#p8a79d483f4)">
     <use style="fill:#de8f05;fill-opacity:0.2;stroke:#de8f05;stroke-opacity:0.2;stroke-width:0.8;" x="0" xlink:href="#mb305f3a877" y="468.70275"/>
    </g>
   </g>
   <g id="PolyCollection_7">
    <defs>
     <path d="M 318.142675 -416.099071 
L 318.142675 -381.815641 
L 344.494505 -381.557242 
L 370.846335 -381.345272 
L 397.198165 -381.119506 
L 423.549995 -381.846396 
L 449.901825 -381.160751 
L 476.253655 -380.576915 
L 502.605485 -380.638782 
L 502.605485 -414.503287 
L 502.605485 -414.503287 
L 476.253655 -413.425917 
L 449.901825 -414.129405 
L 423.549995 -414.478953 
L 397.198165 -414.247269 
L 370.846335 -415.221127 
L 344.494505 -406.817123 
L 318.142675 -416.099071 
z
" id="ma0b0603b9b" style="stroke:#de8f05;stroke-opacity:0.2;stroke-width:0.8;"/>
    </defs>
    <g clip-path="url(#p8a79d483f4)">
     <use style="fill:#de8f05;fill-opacity:0.2;stroke:#de8f05;stroke-opacity:0.2;stroke-width:0.8;" x="0" xlink:href="#ma0b0603b9b" y="468.70275"/>
    </g>
   </g>
   <g id="PolyCollection_8">
    <defs>
     <path d="M 318.142675 -380.199113 
L 318.142675 -376.498239 
L 344.494505 -375.969688 
L 370.846335 -375.874171 
L 397.198165 -375.681338 
L 423.549995 -375.177191 
L 449.901825 -375.465002 
L 476.253655 -375.223201 
L 502.605485 -374.959621 
L 502.605485 -376.676526 
L 502.605485 -376.676526 
L 476.253655 -376.945376 
L 449.901825 -377.1778 
L 423.549995 -377.36287 
L 397.198165 -378.689253 
L 370.846335 -378.089823 
L 344.494505 -378.886417 
L 318.142675 -380.199113 
z
" id="m54c49a97b4" style="stroke:#0173b2;stroke-opacity:0.2;stroke-width:0.8;"/>
    </defs>
    <g clip-path="url(#p8a79d483f4)">
     <use style="fill:#0173b2;fill-opacity:0.2;stroke:#0173b2;stroke-opacity:0.2;stroke-width:0.8;" x="0" xlink:href="#m54c49a97b4" y="468.70275"/>
    </g>
   </g>
   <g id="matplotlib.axis_3">
    <g id="xtick_8"/>
    <g id="xtick_9"/>
    <g id="xtick_10"/>
    <g id="xtick_11"/>
    <g id="xtick_12"/>
    <g id="xtick_13"/>
    <g id="xtick_14"/>
    <g id="xtick_15"/>
   </g>
   <g id="matplotlib.axis_4">
    <g id="ytick_3">
     <g id="line2d_7">
      <g>
       <use style="stroke:#000000;" x="308.919534" xlink:href="#m66de6d52f4" y="61.963382"/>
      </g>
     </g>
     <g id="text_4">
      <!-- 50 -->
      <g transform="translate(283.822534 66.978351)scale(0.132 -0.132)">
       <use xlink:href="#DejaVuSans-35"/>
       <use x="63.623047" xlink:href="#DejaVuSans-30"/>
      </g>
     </g>
    </g>
    <g id="ytick_4">
     <g id="line2d_8">
      <g>
       <use style="stroke:#000000;" x="308.919534" xlink:href="#m66de6d52f4" y="27.58008"/>
      </g>
     </g>
     <g id="text_5">
      <!-- 100 -->
      <g transform="translate(275.424034 32.595049)scale(0.132 -0.132)">
       <use xlink:href="#DejaVuSans-31"/>
       <use x="63.623047" xlink:href="#DejaVuSans-30"/>
       <use x="127.246094" xlink:href="#DejaVuSans-30"/>
      </g>
     </g>
    </g>
   </g>
   <g id="line2d_9">
    <path clip-path="url(#p8a79d483f4)" d="M 318.142675 92.124561 
L 344.494505 92.401556 
L 370.846335 92.811034 
L 397.198165 92.844906 
L 423.549995 92.820638 
L 449.901825 93.29515 
L 476.253655 93.450259 
L 502.605485 93.517729 
" style="fill:none;stroke:#de8f05;stroke-dasharray:12,4.5;stroke-dashoffset:0;stroke-width:3;"/>
   </g>
   <g id="line2d_10">
    <path clip-path="url(#p8a79d483f4)" d="M 318.142675 62.503946 
L 344.494505 63.02306 
L 370.846335 63.222858 
L 397.198165 63.709508 
L 423.549995 63.293914 
L 449.901825 63.895655 
L 476.253655 64.366855 
L 502.605485 63.938114 
" style="fill:none;stroke:#de8f05;stroke-dasharray:3,3;stroke-dashoffset:0;stroke-width:3;"/>
   </g>
   <g id="line2d_11">
    <path clip-path="url(#p8a79d483f4)" d="M 318.142675 72.725633 
L 344.494505 73.329009 
L 370.846335 73.398464 
L 397.198165 73.873979 
L 423.549995 73.540284 
L 449.901825 74.102224 
L 476.253655 74.514133 
L 502.605485 74.150114 
" style="fill:none;stroke:#de8f05;stroke-dasharray:9,3.75,4.5,3.75;stroke-dashoffset:0;stroke-width:3;"/>
   </g>
   <g id="line2d_12">
    <path clip-path="url(#p8a79d483f4)" d="M 318.142675 90.776365 
L 344.494505 91.514073 
L 370.846335 91.782626 
L 397.198165 91.591884 
L 423.549995 92.153786 
L 449.901825 92.32142 
L 476.253655 92.607197 
L 502.605485 92.788859 
" style="fill:none;stroke:#0173b2;stroke-linecap:square;stroke-width:3;"/>
   </g>
   <g id="patch_5">
    <path d="M 308.919534 88.094691 
L 308.919534 24.14175 
" style="fill:none;stroke:#000000;stroke-linecap:square;stroke-linejoin:miter;"/>
   </g>
   <g id="text_6">
    <!-- Canaries -->
    <g transform="translate(378.81783 18.14175)scale(0.144 -0.144)">
     <defs>
      <path d="M 4122 4306 
L 4122 3641 
Q 3803 3938 3442 4084 
Q 3081 4231 2675 4231 
Q 1875 4231 1450 3742 
Q 1025 3253 1025 2328 
Q 1025 1406 1450 917 
Q 1875 428 2675 428 
Q 3081 428 3442 575 
Q 3803 722 4122 1019 
L 4122 359 
Q 3791 134 3420 21 
Q 3050 -91 2638 -91 
Q 1578 -91 968 557 
Q 359 1206 359 2328 
Q 359 3453 968 4101 
Q 1578 4750 2638 4750 
Q 3056 4750 3426 4639 
Q 3797 4528 4122 4306 
z
" id="DejaVuSans-43" transform="scale(0.015625)"/>
      <path d="M 2631 2963 
Q 2534 3019 2420 3045 
Q 2306 3072 2169 3072 
Q 1681 3072 1420 2755 
Q 1159 2438 1159 1844 
L 1159 0 
L 581 0 
L 581 3500 
L 1159 3500 
L 1159 2956 
Q 1341 3275 1631 3429 
Q 1922 3584 2338 3584 
Q 2397 3584 2469 3576 
Q 2541 3569 2628 3553 
L 2631 2963 
z
" id="DejaVuSans-72" transform="scale(0.015625)"/>
     </defs>
     <use xlink:href="#DejaVuSans-43"/>
     <use x="69.824219" xlink:href="#DejaVuSans-61"/>
     <use x="131.103516" xlink:href="#DejaVuSans-6e"/>
     <use x="194.482422" xlink:href="#DejaVuSans-61"/>
     <use x="255.761719" xlink:href="#DejaVuSans-72"/>
     <use x="296.875" xlink:href="#DejaVuSans-69"/>
     <use x="324.658203" xlink:href="#DejaVuSans-65"/>
     <use x="386.181641" xlink:href="#DejaVuSans-73"/>
    </g>
   </g>
  </g>
  <g id="axes_3">
   <g id="patch_6">
    <path d="M 65.428625 241.58175 
L 268.337716 241.58175 
L 268.337716 100.885279 
L 65.428625 100.885279 
z
" style="fill:#ffffff;"/>
   </g>
   <g id="PolyCollection_9">
    <defs>
     <path d="M 74.651765 -252.485854 
L 74.651765 -235.35734 
L 105.395567 -232.740652 
L 136.139369 -230.011318 
L 166.88317 -229.289595 
L 197.626972 -228.829674 
L 228.370774 -228.245016 
L 259.114575 -227.924915 
L 259.114575 -240.864046 
L 259.114575 -240.864046 
L 228.370774 -240.01749 
L 197.626972 -241.296823 
L 166.88317 -242.46402 
L 136.139369 -244.602321 
L 105.395567 -246.119958 
L 74.651765 -252.485854 
z
" id="mccc29d8c08" style="stroke:#de8f05;stroke-opacity:0.2;stroke-width:0.8;"/>
    </defs>
    <g clip-path="url(#pe894b877b8)">
     <use style="fill:#de8f05;fill-opacity:0.2;stroke:#de8f05;stroke-opacity:0.2;stroke-width:0.8;" x="0" xlink:href="#mccc29d8c08" y="468.70275"/>
    </g>
   </g>
   <g id="PolyCollection_10">
    <defs>
     <path d="M 74.651765 -344.368345 
L 74.651765 -284.371291 
L 105.395567 -281.995104 
L 136.139369 -279.716349 
L 166.88317 -278.789607 
L 197.626972 -278.402508 
L 228.370774 -276.496236 
L 259.114575 -276.199576 
L 259.114575 -330.810918 
L 259.114575 -330.810918 
L 228.370774 -329.566829 
L 197.626972 -331.938654 
L 166.88317 -333.357716 
L 136.139369 -340.695394 
L 105.395567 -337.613061 
L 74.651765 -344.368345 
z
" id="m3dd1265d92" style="stroke:#de8f05;stroke-opacity:0.2;stroke-width:0.8;"/>
    </defs>
    <g clip-path="url(#pe894b877b8)">
     <use style="fill:#de8f05;fill-opacity:0.2;stroke:#de8f05;stroke-opacity:0.2;stroke-width:0.8;" x="0" xlink:href="#m3dd1265d92" y="468.70275"/>
    </g>
   </g>
   <g id="PolyCollection_11">
    <defs>
     <path d="M 74.651765 -290.964142 
L 74.651765 -261.828418 
L 105.395567 -258.928613 
L 136.139369 -259.016819 
L 166.88317 -256.226322 
L 197.626972 -251.928756 
L 228.370774 -254.470498 
L 259.114575 -254.152489 
L 259.114575 -280.354718 
L 259.114575 -280.354718 
L 228.370774 -277.508808 
L 197.626972 -280.247173 
L 166.88317 -280.78062 
L 136.139369 -282.661197 
L 105.395567 -286.383339 
L 74.651765 -290.964142 
z
" id="mda80a1b6bf" style="stroke:#de8f05;stroke-opacity:0.2;stroke-width:0.8;"/>
    </defs>
    <g clip-path="url(#pe894b877b8)">
     <use style="fill:#de8f05;fill-opacity:0.2;stroke:#de8f05;stroke-opacity:0.2;stroke-width:0.8;" x="0" xlink:href="#mda80a1b6bf" y="468.70275"/>
    </g>
   </g>
   <g id="PolyCollection_12">
    <defs>
     <path d="M 74.651765 -293.179141 
L 74.651765 -274.442245 
L 105.395567 -265.700806 
L 136.139369 -252.987778 
L 166.88317 -248.518515 
L 197.626972 -244.33699 
L 228.370774 -233.549941 
L 259.114575 -235.067069 
L 259.114575 -248.48171 
L 259.114575 -248.48171 
L 228.370774 -249.365266 
L 197.626972 -259.473763 
L 166.88317 -261.609959 
L 136.139369 -276.479475 
L 105.395567 -284.817205 
L 74.651765 -293.179141 
z
" id="m5ad758cc35" style="stroke:#0173b2;stroke-opacity:0.2;stroke-width:0.8;"/>
    </defs>
    <g clip-path="url(#pe894b877b8)">
     <use style="fill:#0173b2;fill-opacity:0.2;stroke:#0173b2;stroke-opacity:0.2;stroke-width:0.8;" x="0" xlink:href="#m5ad758cc35" y="468.70275"/>
    </g>
   </g>
   <g id="matplotlib.axis_5">
    <g id="xtick_16">
     <g id="line2d_13">
      <defs>
       <path d="M 0 0 
L 0 4.8 
" id="me8409cf3de" style="stroke:#000000;"/>
      </defs>
      <g>
       <use style="stroke:#000000;" x="74.651765" xlink:href="#me8409cf3de" y="241.58175"/>
      </g>
     </g>
     <g id="text_7">
      <!-- 30 -->
      <g transform="translate(71.288677 268.851259)rotate(-45)scale(0.132 -0.132)">
       <defs>
        <path d="M 2597 2516 
Q 3050 2419 3304 2112 
Q 3559 1806 3559 1356 
Q 3559 666 3084 287 
Q 2609 -91 1734 -91 
Q 1441 -91 1130 -33 
Q 819 25 488 141 
L 488 750 
Q 750 597 1062 519 
Q 1375 441 1716 441 
Q 2309 441 2620 675 
Q 2931 909 2931 1356 
Q 2931 1769 2642 2001 
Q 2353 2234 1838 2234 
L 1294 2234 
L 1294 2753 
L 1863 2753 
Q 2328 2753 2575 2939 
Q 2822 3125 2822 3475 
Q 2822 3834 2567 4026 
Q 2313 4219 1838 4219 
Q 1578 4219 1281 4162 
Q 984 4106 628 3988 
L 628 4550 
Q 988 4650 1302 4700 
Q 1616 4750 1894 4750 
Q 2613 4750 3031 4423 
Q 3450 4097 3450 3541 
Q 3450 3153 3228 2886 
Q 3006 2619 2597 2516 
z
" id="DejaVuSans-33" transform="scale(0.015625)"/>
       </defs>
       <use xlink:href="#DejaVuSans-33"/>
       <use x="63.623047" xlink:href="#DejaVuSans-30"/>
      </g>
     </g>
    </g>
    <g id="xtick_17">
     <g id="line2d_14">
      <g>
       <use style="stroke:#000000;" x="105.395567" xlink:href="#me8409cf3de" y="241.58175"/>
      </g>
     </g>
     <g id="text_8">
      <!-- 45 -->
      <g transform="translate(102.032479 268.851259)rotate(-45)scale(0.132 -0.132)">
       <defs>
        <path d="M 2419 4116 
L 825 1625 
L 2419 1625 
L 2419 4116 
z
M 2253 4666 
L 3047 4666 
L 3047 1625 
L 3713 1625 
L 3713 1100 
L 3047 1100 
L 3047 0 
L 2419 0 
L 2419 1100 
L 313 1100 
L 313 1709 
L 2253 4666 
z
" id="DejaVuSans-34" transform="scale(0.015625)"/>
       </defs>
       <use xlink:href="#DejaVuSans-34"/>
       <use x="63.623047" xlink:href="#DejaVuSans-35"/>
      </g>
     </g>
    </g>
    <g id="xtick_18">
     <g id="line2d_15">
      <g>
       <use style="stroke:#000000;" x="136.139369" xlink:href="#me8409cf3de" y="241.58175"/>
      </g>
     </g>
     <g id="text_9">
      <!-- 75 -->
      <g transform="translate(132.776281 268.851259)rotate(-45)scale(0.132 -0.132)">
       <defs>
        <path d="M 525 4666 
L 3525 4666 
L 3525 4397 
L 1831 0 
L 1172 0 
L 2766 4134 
L 525 4134 
L 525 4666 
z
" id="DejaVuSans-37" transform="scale(0.015625)"/>
       </defs>
       <use xlink:href="#DejaVuSans-37"/>
       <use x="63.623047" xlink:href="#DejaVuSans-35"/>
      </g>
     </g>
    </g>
    <g id="xtick_19">
     <g id="line2d_16">
      <g>
       <use style="stroke:#000000;" x="166.88317" xlink:href="#me8409cf3de" y="241.58175"/>
      </g>
     </g>
     <g id="text_10">
      <!-- 120 -->
      <g transform="translate(160.550764 274.789896)rotate(-45)scale(0.132 -0.132)">
       <defs>
        <path d="M 1228 531 
L 3431 531 
L 3431 0 
L 469 0 
L 469 531 
Q 828 903 1448 1529 
Q 2069 2156 2228 2338 
Q 2531 2678 2651 2914 
Q 2772 3150 2772 3378 
Q 2772 3750 2511 3984 
Q 2250 4219 1831 4219 
Q 1534 4219 1204 4116 
Q 875 4013 500 3803 
L 500 4441 
Q 881 4594 1212 4672 
Q 1544 4750 1819 4750 
Q 2544 4750 2975 4387 
Q 3406 4025 3406 3419 
Q 3406 3131 3298 2873 
Q 3191 2616 2906 2266 
Q 2828 2175 2409 1742 
Q 1991 1309 1228 531 
z
" id="DejaVuSans-32" transform="scale(0.015625)"/>
       </defs>
       <use xlink:href="#DejaVuSans-31"/>
       <use x="63.623047" xlink:href="#DejaVuSans-32"/>
       <use x="127.246094" xlink:href="#DejaVuSans-30"/>
      </g>
     </g>
    </g>
    <g id="xtick_20">
     <g id="line2d_17">
      <g>
       <use style="stroke:#000000;" x="197.626972" xlink:href="#me8409cf3de" y="241.58175"/>
      </g>
     </g>
     <g id="text_11">
      <!-- 180 -->
      <g transform="translate(191.294566 274.789896)rotate(-45)scale(0.132 -0.132)">
       <defs>
        <path d="M 2034 2216 
Q 1584 2216 1326 1975 
Q 1069 1734 1069 1313 
Q 1069 891 1326 650 
Q 1584 409 2034 409 
Q 2484 409 2743 651 
Q 3003 894 3003 1313 
Q 3003 1734 2745 1975 
Q 2488 2216 2034 2216 
z
M 1403 2484 
Q 997 2584 770 2862 
Q 544 3141 544 3541 
Q 544 4100 942 4425 
Q 1341 4750 2034 4750 
Q 2731 4750 3128 4425 
Q 3525 4100 3525 3541 
Q 3525 3141 3298 2862 
Q 3072 2584 2669 2484 
Q 3125 2378 3379 2068 
Q 3634 1759 3634 1313 
Q 3634 634 3220 271 
Q 2806 -91 2034 -91 
Q 1263 -91 848 271 
Q 434 634 434 1313 
Q 434 1759 690 2068 
Q 947 2378 1403 2484 
z
M 1172 3481 
Q 1172 3119 1398 2916 
Q 1625 2713 2034 2713 
Q 2441 2713 2670 2916 
Q 2900 3119 2900 3481 
Q 2900 3844 2670 4047 
Q 2441 4250 2034 4250 
Q 1625 4250 1398 4047 
Q 1172 3844 1172 3481 
z
" id="DejaVuSans-38" transform="scale(0.015625)"/>
       </defs>
       <use xlink:href="#DejaVuSans-31"/>
       <use x="63.623047" xlink:href="#DejaVuSans-38"/>
       <use x="127.246094" xlink:href="#DejaVuSans-30"/>
      </g>
     </g>
    </g>
    <g id="xtick_21">
     <g id="line2d_18">
      <g>
       <use style="stroke:#000000;" x="228.370774" xlink:href="#me8409cf3de" y="241.58175"/>
      </g>
     </g>
     <g id="text_12">
      <!-- 480 -->
      <g transform="translate(222.038367 274.789896)rotate(-45)scale(0.132 -0.132)">
       <use xlink:href="#DejaVuSans-34"/>
       <use x="63.623047" xlink:href="#DejaVuSans-38"/>
       <use x="127.246094" xlink:href="#DejaVuSans-30"/>
      </g>
     </g>
    </g>
    <g id="xtick_22">
     <g id="line2d_19">
      <g>
       <use style="stroke:#000000;" x="259.114575" xlink:href="#me8409cf3de" y="241.58175"/>
      </g>
     </g>
     <g id="text_13">
      <!-- 600 -->
      <g transform="translate(252.782169 274.789896)rotate(-45)scale(0.132 -0.132)">
       <defs>
        <path d="M 2113 2584 
Q 1688 2584 1439 2293 
Q 1191 2003 1191 1497 
Q 1191 994 1439 701 
Q 1688 409 2113 409 
Q 2538 409 2786 701 
Q 3034 994 3034 1497 
Q 3034 2003 2786 2293 
Q 2538 2584 2113 2584 
z
M 3366 4563 
L 3366 3988 
Q 3128 4100 2886 4159 
Q 2644 4219 2406 4219 
Q 1781 4219 1451 3797 
Q 1122 3375 1075 2522 
Q 1259 2794 1537 2939 
Q 1816 3084 2150 3084 
Q 2853 3084 3261 2657 
Q 3669 2231 3669 1497 
Q 3669 778 3244 343 
Q 2819 -91 2113 -91 
Q 1303 -91 875 529 
Q 447 1150 447 2328 
Q 447 3434 972 4092 
Q 1497 4750 2381 4750 
Q 2619 4750 2861 4703 
Q 3103 4656 3366 4563 
z
" id="DejaVuSans-36" transform="scale(0.015625)"/>
       </defs>
       <use xlink:href="#DejaVuSans-36"/>
       <use x="63.623047" xlink:href="#DejaVuSans-30"/>
       <use x="127.246094" xlink:href="#DejaVuSans-30"/>
      </g>
     </g>
    </g>
   </g>
   <g id="matplotlib.axis_6">
    <g id="ytick_5">
     <g id="line2d_20">
      <g>
       <use style="stroke:#000000;" x="65.428625" xlink:href="#m66de6d52f4" y="241.58175"/>
      </g>
     </g>
     <g id="text_14">
      <!-- 0.0 -->
      <g transform="translate(36.1365 246.596719)scale(0.132 -0.132)">
       <defs>
        <path d="M 684 794 
L 1344 794 
L 1344 0 
L 684 0 
L 684 794 
z
" id="DejaVuSans-2e" transform="scale(0.015625)"/>
       </defs>
       <use xlink:href="#DejaVuSans-30"/>
       <use x="63.623047" xlink:href="#DejaVuSans-2e"/>
       <use x="95.410156" xlink:href="#DejaVuSans-30"/>
      </g>
     </g>
    </g>
    <g id="ytick_6">
     <g id="line2d_21">
      <g>
       <use style="stroke:#000000;" x="65.428625" xlink:href="#m66de6d52f4" y="212.269985"/>
      </g>
     </g>
     <g id="text_15">
      <!-- 2.5 -->
      <g transform="translate(36.1365 217.284954)scale(0.132 -0.132)">
       <use xlink:href="#DejaVuSans-32"/>
       <use x="63.623047" xlink:href="#DejaVuSans-2e"/>
       <use x="95.410156" xlink:href="#DejaVuSans-35"/>
      </g>
     </g>
    </g>
    <g id="ytick_7">
     <g id="line2d_22">
      <g>
       <use style="stroke:#000000;" x="65.428625" xlink:href="#m66de6d52f4" y="182.958221"/>
      </g>
     </g>
     <g id="text_16">
      <!-- 5.0 -->
      <g transform="translate(36.1365 187.973189)scale(0.132 -0.132)">
       <use xlink:href="#DejaVuSans-35"/>
       <use x="63.623047" xlink:href="#DejaVuSans-2e"/>
       <use x="95.410156" xlink:href="#DejaVuSans-30"/>
      </g>
     </g>
    </g>
    <g id="ytick_8">
     <g id="line2d_23">
      <g>
       <use style="stroke:#000000;" x="65.428625" xlink:href="#m66de6d52f4" y="153.646456"/>
      </g>
     </g>
     <g id="text_17">
      <!-- 7.5 -->
      <g transform="translate(36.1365 158.661425)scale(0.132 -0.132)">
       <use xlink:href="#DejaVuSans-37"/>
       <use x="63.623047" xlink:href="#DejaVuSans-2e"/>
       <use x="95.410156" xlink:href="#DejaVuSans-35"/>
      </g>
     </g>
    </g>
    <g id="ytick_9">
     <g id="line2d_24">
      <g>
       <use style="stroke:#000000;" x="65.428625" xlink:href="#m66de6d52f4" y="124.334691"/>
      </g>
     </g>
     <g id="text_18">
      <!-- 10.0 -->
      <g transform="translate(27.738 129.34966)scale(0.132 -0.132)">
       <use xlink:href="#DejaVuSans-31"/>
       <use x="63.623047" xlink:href="#DejaVuSans-30"/>
       <use x="127.246094" xlink:href="#DejaVuSans-2e"/>
       <use x="159.033203" xlink:href="#DejaVuSans-30"/>
      </g>
     </g>
    </g>
   </g>
   <g id="line2d_25">
    <path clip-path="url(#pe894b877b8)" d="M 74.651765 226.494196 
L 105.395567 230.936845 
L 136.139369 232.119131 
L 166.88317 234.640465 
L 197.626972 235.476397 
L 228.370774 236.277931 
L 259.114575 236.179163 
" style="fill:none;stroke:#de8f05;stroke-dasharray:12,4.5;stroke-dashoffset:0;stroke-width:3;"/>
   </g>
   <g id="line2d_26">
    <path clip-path="url(#pe894b877b8)" d="M 74.651765 158.046984 
L 105.395567 162.439648 
L 136.139369 163.951485 
L 166.88317 166.431763 
L 197.626972 167.324158 
L 228.370774 168.999278 
L 259.114575 168.764297 
" style="fill:none;stroke:#de8f05;stroke-dasharray:3,3;stroke-dashoffset:0;stroke-width:3;"/>
   </g>
   <g id="line2d_27">
    <path clip-path="url(#pe894b877b8)" d="M 74.651765 192.323394 
L 105.395567 196.046774 
L 136.139369 197.863742 
L 166.88317 200.199279 
L 197.626972 200.948333 
L 228.370774 202.611963 
L 259.114575 202.457909 
" style="fill:none;stroke:#de8f05;stroke-dasharray:9,3.75,4.5,3.75;stroke-dashoffset:0;stroke-width:3;"/>
   </g>
   <g id="line2d_28">
    <path clip-path="url(#pe894b877b8)" d="M 74.651765 184.762346 
L 105.395567 193.763861 
L 136.139369 203.969124 
L 166.88317 215.440216 
L 197.626972 218.634107 
L 228.370774 228.442189 
L 259.114575 228.817138 
" style="fill:none;stroke:#0173b2;stroke-linecap:square;stroke-width:3;"/>
   </g>
   <g id="patch_7">
    <path d="M 65.428625 241.58175 
L 65.428625 100.885279 
" style="fill:none;stroke:#000000;stroke-linecap:square;stroke-linejoin:miter;"/>
   </g>
   <g id="patch_8">
    <path d="M 65.428625 241.58175 
L 268.337716 241.58175 
" style="fill:none;stroke:#000000;stroke-linecap:square;stroke-linejoin:miter;"/>
   </g>
  </g>
  <g id="axes_4">
   <g id="patch_9">
    <path d="M 308.919534 241.58175 
L 511.828625 241.58175 
L 511.828625 100.885279 
L 308.919534 100.885279 
z
" style="fill:#ffffff;"/>
   </g>
   <g id="PolyCollection_13">
    <defs>
     <path d="M 318.142675 -322.574358 
L 318.142675 -277.556443 
L 344.494505 -270.331468 
L 370.846335 -265.243483 
L 397.198165 -263.266588 
L 423.549995 -264.7509 
L 449.901825 -257.579674 
L 476.253655 -256.869167 
L 502.605485 -257.025781 
L 502.605485 -298.982633 
L 502.605485 -298.982633 
L 476.253655 -298.190694 
L 449.901825 -305.654408 
L 423.549995 -322.662394 
L 397.198165 -305.429533 
L 370.846335 -313.643947 
L 344.494505 -316.999358 
L 318.142675 -322.574358 
z
" id="me45b5b2380" style="stroke:#de8f05;stroke-opacity:0.2;stroke-width:0.8;"/>
    </defs>
    <g clip-path="url(#p7df0db113e)">
     <use style="fill:#de8f05;fill-opacity:0.2;stroke:#de8f05;stroke-opacity:0.2;stroke-width:0.8;" x="0" xlink:href="#me45b5b2380" y="468.70275"/>
    </g>
   </g>
   <g id="PolyCollection_14">
    <path clip-path="url(#p7df0db113e)" d="M 318.142675 -965.192928 
L 318.142675 40.022568 
L 344.494505 41.666302 
L 370.846335 47.554862 
L 397.198165 51.996103 
L 423.549995 40.28282 
L 449.901825 49.839209 
L 476.253655 61.073646 
L 502.605485 60.268904 
L 502.605485 -938.276187 
L 502.605485 -938.276187 
L 476.253655 -916.564974 
L 449.901825 -930.19157 
L 423.549995 -940.091292 
L 397.198165 -931.640788 
L 370.846335 -947.687522 
L 344.494505 -951.500899 
L 318.142675 -965.192928 
z
" style="fill:#de8f05;fill-opacity:0.2;stroke:#de8f05;stroke-opacity:0.2;stroke-width:0.8;"/>
   </g>
   <g id="PolyCollection_15">
    <path clip-path="url(#p7df0db113e)" d="M 318.142675 -504.236478 
L 318.142675 80.296003 
L 344.494505 84.701698 
L 370.846335 88.315799 
L 397.198165 92.165107 
L 423.549995 79.771635 
L 449.901825 91.461876 
L 476.253655 101.416276 
L 502.605485 100.361455 
L 502.605485 -477.028357 
L 502.605485 -477.028357 
L 476.253655 -458.659208 
L 449.901825 -470.653665 
L 423.549995 -476.613475 
L 397.198165 -472.663253 
L 370.846335 -489.267534 
L 344.494505 -489.581035 
L 318.142675 -504.236478 
z
" style="fill:#de8f05;fill-opacity:0.2;stroke:#de8f05;stroke-opacity:0.2;stroke-width:0.8;"/>
   </g>
   <g id="PolyCollection_16">
    <defs>
     <path d="M 318.142675 -360.844945 
L 318.142675 -297.745041 
L 344.494505 -288.733254 
L 370.846335 -287.104677 
L 397.198165 -283.816883 
L 423.549995 -275.22118 
L 449.901825 -280.12836 
L 476.253655 -276.005639 
L 502.605485 -271.511602 
L 502.605485 -300.784835 
L 502.605485 -300.784835 
L 476.253655 -305.368734 
L 449.901825 -309.33156 
L 423.549995 -312.486997 
L 397.198165 -335.101826 
L 370.846335 -324.881547 
L 344.494505 -338.463479 
L 318.142675 -360.844945 
z
" id="m620652ab83" style="stroke:#0173b2;stroke-opacity:0.2;stroke-width:0.8;"/>
    </defs>
    <g clip-path="url(#p7df0db113e)">
     <use style="fill:#0173b2;fill-opacity:0.2;stroke:#0173b2;stroke-opacity:0.2;stroke-width:0.8;" x="0" xlink:href="#m620652ab83" y="468.70275"/>
    </g>
   </g>
   <g id="matplotlib.axis_7">
    <g id="xtick_23">
     <g id="line2d_29">
      <g>
       <use style="stroke:#000000;" x="318.142675" xlink:href="#me8409cf3de" y="241.58175"/>
      </g>
     </g>
     <g id="text_19">
      <!-- 240 -->
      <g transform="translate(311.810268 274.789896)rotate(-45)scale(0.132 -0.132)">
       <use xlink:href="#DejaVuSans-32"/>
       <use x="63.623047" xlink:href="#DejaVuSans-34"/>
       <use x="127.246094" xlink:href="#DejaVuSans-30"/>
      </g>
     </g>
    </g>
    <g id="xtick_24">
     <g id="line2d_30">
      <g>
       <use style="stroke:#000000;" x="344.494505" xlink:href="#me8409cf3de" y="241.58175"/>
      </g>
     </g>
     <g id="text_20">
      <!-- 300 -->
      <g transform="translate(338.162098 274.789896)rotate(-45)scale(0.132 -0.132)">
       <use xlink:href="#DejaVuSans-33"/>
       <use x="63.623047" xlink:href="#DejaVuSans-30"/>
       <use x="127.246094" xlink:href="#DejaVuSans-30"/>
      </g>
     </g>
    </g>
    <g id="xtick_25">
     <g id="line2d_31">
      <g>
       <use style="stroke:#000000;" x="370.846335" xlink:href="#me8409cf3de" y="241.58175"/>
      </g>
     </g>
     <g id="text_21">
      <!-- 360 -->
      <g transform="translate(364.513928 274.789896)rotate(-45)scale(0.132 -0.132)">
       <use xlink:href="#DejaVuSans-33"/>
       <use x="63.623047" xlink:href="#DejaVuSans-36"/>
       <use x="127.246094" xlink:href="#DejaVuSans-30"/>
      </g>
     </g>
    </g>
    <g id="xtick_26">
     <g id="line2d_32">
      <g>
       <use style="stroke:#000000;" x="397.198165" xlink:href="#me8409cf3de" y="241.58175"/>
      </g>
     </g>
     <g id="text_22">
      <!-- 420 -->
      <g transform="translate(390.865758 274.789896)rotate(-45)scale(0.132 -0.132)">
       <use xlink:href="#DejaVuSans-34"/>
       <use x="63.623047" xlink:href="#DejaVuSans-32"/>
       <use x="127.246094" xlink:href="#DejaVuSans-30"/>
      </g>
     </g>
    </g>
    <g id="xtick_27">
     <g id="line2d_33">
      <g>
       <use style="stroke:#000000;" x="423.549995" xlink:href="#me8409cf3de" y="241.58175"/>
      </g>
     </g>
     <g id="text_23">
      <!-- 480 -->
      <g transform="translate(417.217588 274.789896)rotate(-45)scale(0.132 -0.132)">
       <use xlink:href="#DejaVuSans-34"/>
       <use x="63.623047" xlink:href="#DejaVuSans-38"/>
       <use x="127.246094" xlink:href="#DejaVuSans-30"/>
      </g>
     </g>
    </g>
    <g id="xtick_28">
     <g id="line2d_34">
      <g>
       <use style="stroke:#000000;" x="449.901825" xlink:href="#me8409cf3de" y="241.58175"/>
      </g>
     </g>
     <g id="text_24">
      <!-- 540 -->
      <g transform="translate(443.569418 274.789896)rotate(-45)scale(0.132 -0.132)">
       <use xlink:href="#DejaVuSans-35"/>
       <use x="63.623047" xlink:href="#DejaVuSans-34"/>
       <use x="127.246094" xlink:href="#DejaVuSans-30"/>
      </g>
     </g>
    </g>
    <g id="xtick_29">
     <g id="line2d_35">
      <g>
       <use style="stroke:#000000;" x="476.253655" xlink:href="#me8409cf3de" y="241.58175"/>
      </g>
     </g>
     <g id="text_25">
      <!-- 600 -->
      <g transform="translate(469.921248 274.789896)rotate(-45)scale(0.132 -0.132)">
       <use xlink:href="#DejaVuSans-36"/>
       <use x="63.623047" xlink:href="#DejaVuSans-30"/>
       <use x="127.246094" xlink:href="#DejaVuSans-30"/>
      </g>
     </g>
    </g>
    <g id="xtick_30">
     <g id="line2d_36">
      <g>
       <use style="stroke:#000000;" x="502.605485" xlink:href="#me8409cf3de" y="241.58175"/>
      </g>
     </g>
     <g id="text_26">
      <!-- 660 -->
      <g transform="translate(496.273078 274.789896)rotate(-45)scale(0.132 -0.132)">
       <use xlink:href="#DejaVuSans-36"/>
       <use x="63.623047" xlink:href="#DejaVuSans-36"/>
       <use x="127.246094" xlink:href="#DejaVuSans-30"/>
      </g>
     </g>
    </g>
   </g>
   <g id="matplotlib.axis_8">
    <g id="ytick_10">
     <g id="line2d_37">
      <g>
       <use style="stroke:#000000;" x="308.919534" xlink:href="#m66de6d52f4" y="241.58175"/>
      </g>
     </g>
     <g id="text_27">
      <!-- 0.0 -->
      <g transform="translate(279.627409 246.596719)scale(0.132 -0.132)">
       <use xlink:href="#DejaVuSans-30"/>
       <use x="63.623047" xlink:href="#DejaVuSans-2e"/>
       <use x="95.410156" xlink:href="#DejaVuSans-30"/>
      </g>
     </g>
    </g>
    <g id="ytick_11">
     <g id="line2d_38">
      <g>
       <use style="stroke:#000000;" x="308.919534" xlink:href="#m66de6d52f4" y="212.269985"/>
      </g>
     </g>
     <g id="text_28">
      <!-- 2.5 -->
      <g transform="translate(279.627409 217.284954)scale(0.132 -0.132)">
       <use xlink:href="#DejaVuSans-32"/>
       <use x="63.623047" xlink:href="#DejaVuSans-2e"/>
       <use x="95.410156" xlink:href="#DejaVuSans-35"/>
      </g>
     </g>
    </g>
    <g id="ytick_12">
     <g id="line2d_39">
      <g>
       <use style="stroke:#000000;" x="308.919534" xlink:href="#m66de6d52f4" y="182.958221"/>
      </g>
     </g>
     <g id="text_29">
      <!-- 5.0 -->
      <g transform="translate(279.627409 187.973189)scale(0.132 -0.132)">
       <use xlink:href="#DejaVuSans-35"/>
       <use x="63.623047" xlink:href="#DejaVuSans-2e"/>
       <use x="95.410156" xlink:href="#DejaVuSans-30"/>
      </g>
     </g>
    </g>
    <g id="ytick_13">
     <g id="line2d_40">
      <g>
       <use style="stroke:#000000;" x="308.919534" xlink:href="#m66de6d52f4" y="153.646456"/>
      </g>
     </g>
     <g id="text_30">
      <!-- 7.5 -->
      <g transform="translate(279.627409 158.661425)scale(0.132 -0.132)">
       <use xlink:href="#DejaVuSans-37"/>
       <use x="63.623047" xlink:href="#DejaVuSans-2e"/>
       <use x="95.410156" xlink:href="#DejaVuSans-35"/>
      </g>
     </g>
    </g>
    <g id="ytick_14">
     <g id="line2d_41">
      <g>
       <use style="stroke:#000000;" x="308.919534" xlink:href="#m66de6d52f4" y="124.334691"/>
      </g>
     </g>
     <g id="text_31">
      <!-- 10.0 -->
      <g transform="translate(271.228909 129.34966)scale(0.132 -0.132)">
       <use xlink:href="#DejaVuSans-31"/>
       <use x="63.623047" xlink:href="#DejaVuSans-30"/>
       <use x="127.246094" xlink:href="#DejaVuSans-2e"/>
       <use x="159.033203" xlink:href="#DejaVuSans-30"/>
      </g>
     </g>
    </g>
   </g>
   <g id="line2d_42">
    <path clip-path="url(#p7df0db113e)" d="M 318.142675 169.594562 
L 344.494505 174.317327 
L 370.846335 181.298926 
L 397.198165 181.876439 
L 423.549995 181.462674 
L 449.901825 189.553108 
L 476.253655 192.197705 
L 502.605485 193.348075 
" style="fill:none;stroke:#de8f05;stroke-dasharray:12,4.5;stroke-dashoffset:0;stroke-width:3;"/>
   </g>
   <g id="line2d_43">
    <path clip-path="url(#p7df0db113e)" style="fill:none;stroke:#de8f05;stroke-dasharray:3,3;stroke-dashoffset:0;stroke-width:3;"/>
   </g>
   <g id="line2d_44">
    <path clip-path="url(#p7df0db113e)" style="fill:none;stroke:#de8f05;stroke-dasharray:9,3.75,4.5,3.75;stroke-dashoffset:0;stroke-width:3;"/>
   </g>
   <g id="line2d_45">
    <path clip-path="url(#p7df0db113e)" d="M 318.142675 146.607814 
L 344.494505 159.185735 
L 370.846335 163.764563 
L 397.198165 160.512425 
L 423.549995 170.092843 
L 449.901825 172.951007 
L 476.253655 177.823507 
L 502.605485 180.920843 
" style="fill:none;stroke:#0173b2;stroke-linecap:square;stroke-width:3;"/>
   </g>
   <g id="line2d_46"/>
   <g id="line2d_47"/>
   <g id="line2d_48"/>
   <g id="line2d_49"/>
   <g id="line2d_50"/>
   <g id="line2d_51"/>
   <g id="patch_10">
    <path d="M 308.919534 241.58175 
L 308.919534 100.885279 
" style="fill:none;stroke:#000000;stroke-linecap:square;stroke-linejoin:miter;"/>
   </g>
   <g id="patch_11">
    <path d="M 308.919534 241.58175 
L 511.828625 241.58175 
" style="fill:none;stroke:#000000;stroke-linecap:square;stroke-linejoin:miter;"/>
   </g>
  </g>
  <g id="axes_5">
   <g id="matplotlib.axis_9">
    <g id="xtick_31">
     <g id="text_32">
      <!-- 0.0 -->
      <g style="opacity:0;" transform="translate(54.932563 259.911688)scale(0.132 -0.132)">
       <use xlink:href="#DejaVuSans-30"/>
       <use x="63.623047" xlink:href="#DejaVuSans-2e"/>
       <use x="95.410156" xlink:href="#DejaVuSans-30"/>
      </g>
     </g>
    </g>
    <g id="xtick_32">
     <g id="text_33">
      <!-- 0.2 -->
      <g style="opacity:0;" transform="translate(144.212563 259.911688)scale(0.132 -0.132)">
       <use xlink:href="#DejaVuSans-30"/>
       <use x="63.623047" xlink:href="#DejaVuSans-2e"/>
       <use x="95.410156" xlink:href="#DejaVuSans-32"/>
      </g>
     </g>
    </g>
    <g id="xtick_33">
     <g id="text_34">
      <!-- 0.4 -->
      <g style="opacity:0;" transform="translate(233.492563 259.911688)scale(0.132 -0.132)">
       <use xlink:href="#DejaVuSans-30"/>
       <use x="63.623047" xlink:href="#DejaVuSans-2e"/>
       <use x="95.410156" xlink:href="#DejaVuSans-34"/>
      </g>
     </g>
    </g>
    <g id="xtick_34">
     <g id="text_35">
      <!-- 0.6 -->
      <g style="opacity:0;" transform="translate(322.772563 259.911688)scale(0.132 -0.132)">
       <use xlink:href="#DejaVuSans-30"/>
       <use x="63.623047" xlink:href="#DejaVuSans-2e"/>
       <use x="95.410156" xlink:href="#DejaVuSans-36"/>
      </g>
     </g>
    </g>
    <g id="xtick_35">
     <g id="text_36">
      <!-- 0.8 -->
      <g style="opacity:0;" transform="translate(412.052563 259.911688)scale(0.132 -0.132)">
       <use xlink:href="#DejaVuSans-30"/>
       <use x="63.623047" xlink:href="#DejaVuSans-2e"/>
       <use x="95.410156" xlink:href="#DejaVuSans-38"/>
      </g>
     </g>
    </g>
    <g id="xtick_36">
     <g id="text_37">
      <!-- 1.0 -->
      <g style="opacity:0;" transform="translate(501.332562 259.911688)scale(0.132 -0.132)">
       <use xlink:href="#DejaVuSans-31"/>
       <use x="63.623047" xlink:href="#DejaVuSans-2e"/>
       <use x="95.410156" xlink:href="#DejaVuSans-30"/>
      </g>
     </g>
    </g>
    <g id="text_38">
     <!-- Training set duration (s) -->
     <g transform="translate(202.68875 293.598625)scale(0.144 -0.144)">
      <defs>
       <path d="M -19 4666 
L 3928 4666 
L 3928 4134 
L 2272 4134 
L 2272 0 
L 1638 0 
L 1638 4134 
L -19 4134 
L -19 4666 
z
" id="DejaVuSans-54" transform="scale(0.015625)"/>
       <path d="M 1172 4494 
L 1172 3500 
L 2356 3500 
L 2356 3053 
L 1172 3053 
L 1172 1153 
Q 1172 725 1289 603 
Q 1406 481 1766 481 
L 2356 481 
L 2356 0 
L 1766 0 
Q 1100 0 847 248 
Q 594 497 594 1153 
L 594 3053 
L 172 3053 
L 172 3500 
L 594 3500 
L 594 4494 
L 1172 4494 
z
" id="DejaVuSans-74" transform="scale(0.015625)"/>
       <path d="M 2906 2969 
L 2906 4863 
L 3481 4863 
L 3481 0 
L 2906 0 
L 2906 525 
Q 2725 213 2448 61 
Q 2172 -91 1784 -91 
Q 1150 -91 751 415 
Q 353 922 353 1747 
Q 353 2572 751 3078 
Q 1150 3584 1784 3584 
Q 2172 3584 2448 3432 
Q 2725 3281 2906 2969 
z
M 947 1747 
Q 947 1113 1208 752 
Q 1469 391 1925 391 
Q 2381 391 2643 752 
Q 2906 1113 2906 1747 
Q 2906 2381 2643 2742 
Q 2381 3103 1925 3103 
Q 1469 3103 1208 2742 
Q 947 2381 947 1747 
z
" id="DejaVuSans-64" transform="scale(0.015625)"/>
       <path d="M 544 1381 
L 544 3500 
L 1119 3500 
L 1119 1403 
Q 1119 906 1312 657 
Q 1506 409 1894 409 
Q 2359 409 2629 706 
Q 2900 1003 2900 1516 
L 2900 3500 
L 3475 3500 
L 3475 0 
L 2900 0 
L 2900 538 
Q 2691 219 2414 64 
Q 2138 -91 1772 -91 
Q 1169 -91 856 284 
Q 544 659 544 1381 
z
M 1991 3584 
L 1991 3584 
z
" id="DejaVuSans-75" transform="scale(0.015625)"/>
       <path d="M 1959 3097 
Q 1497 3097 1228 2736 
Q 959 2375 959 1747 
Q 959 1119 1226 758 
Q 1494 397 1959 397 
Q 2419 397 2687 759 
Q 2956 1122 2956 1747 
Q 2956 2369 2687 2733 
Q 2419 3097 1959 3097 
z
M 1959 3584 
Q 2709 3584 3137 3096 
Q 3566 2609 3566 1747 
Q 3566 888 3137 398 
Q 2709 -91 1959 -91 
Q 1206 -91 779 398 
Q 353 888 353 1747 
Q 353 2609 779 3096 
Q 1206 3584 1959 3584 
z
" id="DejaVuSans-6f" transform="scale(0.015625)"/>
       <path d="M 1984 4856 
Q 1566 4138 1362 3434 
Q 1159 2731 1159 2009 
Q 1159 1288 1364 580 
Q 1569 -128 1984 -844 
L 1484 -844 
Q 1016 -109 783 600 
Q 550 1309 550 2009 
Q 550 2706 781 3412 
Q 1013 4119 1484 4856 
L 1984 4856 
z
" id="DejaVuSans-28" transform="scale(0.015625)"/>
       <path d="M 513 4856 
L 1013 4856 
Q 1481 4119 1714 3412 
Q 1947 2706 1947 2009 
Q 1947 1309 1714 600 
Q 1481 -109 1013 -844 
L 513 -844 
Q 928 -128 1133 580 
Q 1338 1288 1338 2009 
Q 1338 2731 1133 3434 
Q 928 4138 513 4856 
z
" id="DejaVuSans-29" transform="scale(0.015625)"/>
      </defs>
      <use xlink:href="#DejaVuSans-54"/>
      <use x="46.333984" xlink:href="#DejaVuSans-72"/>
      <use x="87.447266" xlink:href="#DejaVuSans-61"/>
      <use x="148.726562" xlink:href="#DejaVuSans-69"/>
      <use x="176.509766" xlink:href="#DejaVuSans-6e"/>
      <use x="239.888672" xlink:href="#DejaVuSans-69"/>
      <use x="267.671875" xlink:href="#DejaVuSans-6e"/>
      <use x="331.050781" xlink:href="#DejaVuSans-67"/>
      <use x="394.527344" xlink:href="#DejaVuSans-20"/>
      <use x="426.314453" xlink:href="#DejaVuSans-73"/>
      <use x="478.414062" xlink:href="#DejaVuSans-65"/>
      <use x="539.9375" xlink:href="#DejaVuSans-74"/>
      <use x="579.146484" xlink:href="#DejaVuSans-20"/>
      <use x="610.933594" xlink:href="#DejaVuSans-64"/>
      <use x="674.410156" xlink:href="#DejaVuSans-75"/>
      <use x="737.789062" xlink:href="#DejaVuSans-72"/>
      <use x="778.902344" xlink:href="#DejaVuSans-61"/>
      <use x="840.181641" xlink:href="#DejaVuSans-74"/>
      <use x="879.390625" xlink:href="#DejaVuSans-69"/>
      <use x="907.173828" xlink:href="#DejaVuSans-6f"/>
      <use x="968.355469" xlink:href="#DejaVuSans-6e"/>
      <use x="1031.734375" xlink:href="#DejaVuSans-20"/>
      <use x="1063.521484" xlink:href="#DejaVuSans-28"/>
      <use x="1102.535156" xlink:href="#DejaVuSans-73"/>
      <use x="1154.634766" xlink:href="#DejaVuSans-29"/>
     </g>
    </g>
   </g>
   <g id="matplotlib.axis_10">
    <g id="ytick_15">
     <g id="text_39">
      <!-- 0.0 -->
      <g style="opacity:0;" transform="translate(36.1365 246.596719)scale(0.132 -0.132)">
       <use xlink:href="#DejaVuSans-30"/>
       <use x="63.623047" xlink:href="#DejaVuSans-2e"/>
       <use x="95.410156" xlink:href="#DejaVuSans-30"/>
      </g>
     </g>
    </g>
    <g id="ytick_16">
     <g id="text_40">
      <!-- 0.2 -->
      <g style="opacity:0;" transform="translate(36.1365 203.108719)scale(0.132 -0.132)">
       <use xlink:href="#DejaVuSans-30"/>
       <use x="63.623047" xlink:href="#DejaVuSans-2e"/>
       <use x="95.410156" xlink:href="#DejaVuSans-32"/>
      </g>
     </g>
    </g>
    <g id="ytick_17">
     <g id="text_41">
      <!-- 0.4 -->
      <g style="opacity:0;" transform="translate(36.1365 159.620719)scale(0.132 -0.132)">
       <use xlink:href="#DejaVuSans-30"/>
       <use x="63.623047" xlink:href="#DejaVuSans-2e"/>
       <use x="95.410156" xlink:href="#DejaVuSans-34"/>
      </g>
     </g>
    </g>
    <g id="ytick_18">
     <g id="text_42">
      <!-- 0.6 -->
      <g style="opacity:0;" transform="translate(36.1365 116.132719)scale(0.132 -0.132)">
       <use xlink:href="#DejaVuSans-30"/>
       <use x="63.623047" xlink:href="#DejaVuSans-2e"/>
       <use x="95.410156" xlink:href="#DejaVuSans-36"/>
      </g>
     </g>
    </g>
    <g id="ytick_19">
     <g id="text_43">
      <!-- 0.8 -->
      <g style="opacity:0;" transform="translate(36.1365 72.644719)scale(0.132 -0.132)">
       <use xlink:href="#DejaVuSans-30"/>
       <use x="63.623047" xlink:href="#DejaVuSans-2e"/>
       <use x="95.410156" xlink:href="#DejaVuSans-38"/>
      </g>
     </g>
    </g>
    <g id="ytick_20">
     <g id="text_44">
      <!-- 1.0 -->
      <g style="opacity:0;" transform="translate(36.1365 29.156719)scale(0.132 -0.132)">
       <use xlink:href="#DejaVuSans-31"/>
       <use x="63.623047" xlink:href="#DejaVuSans-2e"/>
       <use x="95.410156" xlink:href="#DejaVuSans-30"/>
      </g>
     </g>
    </g>
    <g id="text_45">
     <!-- Syllable error rate (%) -->
     <g transform="translate(18.14175 212.48475)rotate(-90)scale(0.144 -0.144)">
      <defs>
       <path d="M 3425 4513 
L 3425 3897 
Q 3066 4069 2747 4153 
Q 2428 4238 2131 4238 
Q 1616 4238 1336 4038 
Q 1056 3838 1056 3469 
Q 1056 3159 1242 3001 
Q 1428 2844 1947 2747 
L 2328 2669 
Q 3034 2534 3370 2195 
Q 3706 1856 3706 1288 
Q 3706 609 3251 259 
Q 2797 -91 1919 -91 
Q 1588 -91 1214 -16 
Q 841 59 441 206 
L 441 856 
Q 825 641 1194 531 
Q 1563 422 1919 422 
Q 2459 422 2753 634 
Q 3047 847 3047 1241 
Q 3047 1584 2836 1778 
Q 2625 1972 2144 2069 
L 1759 2144 
Q 1053 2284 737 2584 
Q 422 2884 422 3419 
Q 422 4038 858 4394 
Q 1294 4750 2059 4750 
Q 2388 4750 2728 4690 
Q 3069 4631 3425 4513 
z
" id="DejaVuSans-53" transform="scale(0.015625)"/>
       <path d="M 2059 -325 
Q 1816 -950 1584 -1140 
Q 1353 -1331 966 -1331 
L 506 -1331 
L 506 -850 
L 844 -850 
Q 1081 -850 1212 -737 
Q 1344 -625 1503 -206 
L 1606 56 
L 191 3500 
L 800 3500 
L 1894 763 
L 2988 3500 
L 3597 3500 
L 2059 -325 
z
" id="DejaVuSans-79" transform="scale(0.015625)"/>
       <path d="M 3116 1747 
Q 3116 2381 2855 2742 
Q 2594 3103 2138 3103 
Q 1681 3103 1420 2742 
Q 1159 2381 1159 1747 
Q 1159 1113 1420 752 
Q 1681 391 2138 391 
Q 2594 391 2855 752 
Q 3116 1113 3116 1747 
z
M 1159 2969 
Q 1341 3281 1617 3432 
Q 1894 3584 2278 3584 
Q 2916 3584 3314 3078 
Q 3713 2572 3713 1747 
Q 3713 922 3314 415 
Q 2916 -91 2278 -91 
Q 1894 -91 1617 61 
Q 1341 213 1159 525 
L 1159 0 
L 581 0 
L 581 4863 
L 1159 4863 
L 1159 2969 
z
" id="DejaVuSans-62" transform="scale(0.015625)"/>
       <path d="M 4653 2053 
Q 4381 2053 4226 1822 
Q 4072 1591 4072 1178 
Q 4072 772 4226 539 
Q 4381 306 4653 306 
Q 4919 306 5073 539 
Q 5228 772 5228 1178 
Q 5228 1588 5073 1820 
Q 4919 2053 4653 2053 
z
M 4653 2450 
Q 5147 2450 5437 2106 
Q 5728 1763 5728 1178 
Q 5728 594 5436 251 
Q 5144 -91 4653 -91 
Q 4153 -91 3862 251 
Q 3572 594 3572 1178 
Q 3572 1766 3864 2108 
Q 4156 2450 4653 2450 
z
M 1428 4353 
Q 1159 4353 1004 4120 
Q 850 3888 850 3481 
Q 850 3069 1003 2837 
Q 1156 2606 1428 2606 
Q 1700 2606 1854 2837 
Q 2009 3069 2009 3481 
Q 2009 3884 1853 4118 
Q 1697 4353 1428 4353 
z
M 4250 4750 
L 4750 4750 
L 1831 -91 
L 1331 -91 
L 4250 4750 
z
M 1428 4750 
Q 1922 4750 2215 4408 
Q 2509 4066 2509 3481 
Q 2509 2891 2217 2550 
Q 1925 2209 1428 2209 
Q 931 2209 642 2551 
Q 353 2894 353 3481 
Q 353 4063 643 4406 
Q 934 4750 1428 4750 
z
" id="DejaVuSans-25" transform="scale(0.015625)"/>
      </defs>
      <use xlink:href="#DejaVuSans-53"/>
      <use x="63.476562" xlink:href="#DejaVuSans-79"/>
      <use x="122.65625" xlink:href="#DejaVuSans-6c"/>
      <use x="150.439453" xlink:href="#DejaVuSans-6c"/>
      <use x="178.222656" xlink:href="#DejaVuSans-61"/>
      <use x="239.501953" xlink:href="#DejaVuSans-62"/>
      <use x="302.978516" xlink:href="#DejaVuSans-6c"/>
      <use x="330.761719" xlink:href="#DejaVuSans-65"/>
      <use x="392.285156" xlink:href="#DejaVuSans-20"/>
      <use x="424.072266" xlink:href="#DejaVuSans-65"/>
      <use x="485.595703" xlink:href="#DejaVuSans-72"/>
      <use x="524.958984" xlink:href="#DejaVuSans-72"/>
      <use x="563.822266" xlink:href="#DejaVuSans-6f"/>
      <use x="625.003906" xlink:href="#DejaVuSans-72"/>
      <use x="666.117188" xlink:href="#DejaVuSans-20"/>
      <use x="697.904297" xlink:href="#DejaVuSans-72"/>
      <use x="739.017578" xlink:href="#DejaVuSans-61"/>
      <use x="800.296875" xlink:href="#DejaVuSans-74"/>
      <use x="839.505859" xlink:href="#DejaVuSans-65"/>
      <use x="901.029297" xlink:href="#DejaVuSans-20"/>
      <use x="932.816406" xlink:href="#DejaVuSans-28"/>
      <use x="971.830078" xlink:href="#DejaVuSans-25"/>
      <use x="1066.849609" xlink:href="#DejaVuSans-29"/>
     </g>
    </g>
   </g>
   <g id="legend_1">
    <g id="patch_12">
     <path d="M 74.668625 461.50275 
L 409.197875 461.50275 
Q 411.837875 461.50275 411.837875 458.86275 
L 411.837875 305.18175 
Q 411.837875 302.54175 409.197875 302.54175 
L 74.668625 302.54175 
Q 72.028625 302.54175 72.028625 305.18175 
L 72.028625 458.86275 
Q 72.028625 461.50275 74.668625 461.50275 
z
" style="fill:#ffffff;opacity:0.8;stroke:#cccccc;stroke-linejoin:miter;stroke-width:0.8;"/>
    </g>
    <g id="text_46">
     <!-- Model -->
     <g transform="translate(114.268625 317.851688)scale(0.132 -0.132)">
      <defs>
       <path d="M 628 4666 
L 1569 4666 
L 2759 1491 
L 3956 4666 
L 4897 4666 
L 4897 0 
L 4281 0 
L 4281 4097 
L 3078 897 
L 2444 897 
L 1241 4097 
L 1241 0 
L 628 0 
L 628 4666 
z
" id="DejaVuSans-4d" transform="scale(0.015625)"/>
      </defs>
      <use xlink:href="#DejaVuSans-4d"/>
      <use x="86.279297" xlink:href="#DejaVuSans-6f"/>
      <use x="147.460938" xlink:href="#DejaVuSans-64"/>
      <use x="210.9375" xlink:href="#DejaVuSans-65"/>
      <use x="272.460938" xlink:href="#DejaVuSans-6c"/>
     </g>
    </g>
    <g id="line2d_52">
     <path d="M 77.308625 332.606813 
L 103.708625 332.606813 
" style="fill:none;stroke:#de8f05;stroke-linecap:square;stroke-width:3;"/>
    </g>
    <g id="line2d_53"/>
    <g id="text_47">
     <!-- SVM -->
     <g transform="translate(114.268625 337.226813)scale(0.132 -0.132)">
      <defs>
       <path d="M 1831 0 
L 50 4666 
L 709 4666 
L 2188 738 
L 3669 4666 
L 4325 4666 
L 2547 0 
L 1831 0 
z
" id="DejaVuSans-56" transform="scale(0.015625)"/>
      </defs>
      <use xlink:href="#DejaVuSans-53"/>
      <use x="63.476562" xlink:href="#DejaVuSans-56"/>
      <use x="131.884766" xlink:href="#DejaVuSans-4d"/>
     </g>
    </g>
    <g id="line2d_54">
     <path d="M 77.308625 351.981938 
L 103.708625 351.981938 
" style="fill:none;stroke:#0173b2;stroke-linecap:square;stroke-width:3;"/>
    </g>
    <g id="line2d_55"/>
    <g id="text_48">
     <!-- TweetyNet -->
     <g transform="translate(114.268625 356.601938)scale(0.132 -0.132)">
      <defs>
       <path d="M 269 3500 
L 844 3500 
L 1563 769 
L 2278 3500 
L 2956 3500 
L 3675 769 
L 4391 3500 
L 4966 3500 
L 4050 0 
L 3372 0 
L 2619 2869 
L 1863 0 
L 1184 0 
L 269 3500 
z
" id="DejaVuSans-77" transform="scale(0.015625)"/>
       <path d="M 628 4666 
L 1478 4666 
L 3547 763 
L 3547 4666 
L 4159 4666 
L 4159 0 
L 3309 0 
L 1241 3903 
L 1241 0 
L 628 0 
L 628 4666 
z
" id="DejaVuSans-4e" transform="scale(0.015625)"/>
      </defs>
      <use xlink:href="#DejaVuSans-54"/>
      <use x="44.583984" xlink:href="#DejaVuSans-77"/>
      <use x="126.371094" xlink:href="#DejaVuSans-65"/>
      <use x="187.894531" xlink:href="#DejaVuSans-65"/>
      <use x="249.417969" xlink:href="#DejaVuSans-74"/>
      <use x="288.626953" xlink:href="#DejaVuSans-79"/>
      <use x="347.806641" xlink:href="#DejaVuSans-4e"/>
      <use x="422.611328" xlink:href="#DejaVuSans-65"/>
      <use x="484.134766" xlink:href="#DejaVuSans-74"/>
     </g>
    </g>
    <g id="text_49">
     <!-- Input -->
     <g transform="translate(114.268625 375.977063)scale(0.132 -0.132)">
      <defs>
       <path d="M 628 4666 
L 1259 4666 
L 1259 0 
L 628 0 
L 628 4666 
z
" id="DejaVuSans-49" transform="scale(0.015625)"/>
       <path d="M 1159 525 
L 1159 -1331 
L 581 -1331 
L 581 3500 
L 1159 3500 
L 1159 2969 
Q 1341 3281 1617 3432 
Q 1894 3584 2278 3584 
Q 2916 3584 3314 3078 
Q 3713 2572 3713 1747 
Q 3713 922 3314 415 
Q 2916 -91 2278 -91 
Q 1894 -91 1617 61 
Q 1341 213 1159 525 
z
M 3116 1747 
Q 3116 2381 2855 2742 
Q 2594 3103 2138 3103 
Q 1681 3103 1420 2742 
Q 1159 2381 1159 1747 
Q 1159 1113 1420 752 
Q 1681 391 2138 391 
Q 2594 391 2855 752 
Q 3116 1113 3116 1747 
z
" id="DejaVuSans-70" transform="scale(0.015625)"/>
      </defs>
      <use xlink:href="#DejaVuSans-49"/>
      <use x="29.492188" xlink:href="#DejaVuSans-6e"/>
      <use x="92.871094" xlink:href="#DejaVuSans-70"/>
      <use x="156.347656" xlink:href="#DejaVuSans-75"/>
      <use x="219.726562" xlink:href="#DejaVuSans-74"/>
     </g>
    </g>
    <g id="line2d_56">
     <path d="M 77.308625 390.732188 
L 103.708625 390.732188 
" style="fill:none;stroke:#333333;stroke-dasharray:12,4.5;stroke-dashoffset:0;stroke-width:3;"/>
    </g>
    <g id="line2d_57"/>
    <g id="text_50">
     <!-- segmented audio, manually cleaned -->
     <g transform="translate(114.268625 395.352188)scale(0.132 -0.132)">
      <defs>
       <path d="M 3328 2828 
Q 3544 3216 3844 3400 
Q 4144 3584 4550 3584 
Q 5097 3584 5394 3201 
Q 5691 2819 5691 2113 
L 5691 0 
L 5113 0 
L 5113 2094 
Q 5113 2597 4934 2840 
Q 4756 3084 4391 3084 
Q 3944 3084 3684 2787 
Q 3425 2491 3425 1978 
L 3425 0 
L 2847 0 
L 2847 2094 
Q 2847 2600 2669 2842 
Q 2491 3084 2119 3084 
Q 1678 3084 1418 2786 
Q 1159 2488 1159 1978 
L 1159 0 
L 581 0 
L 581 3500 
L 1159 3500 
L 1159 2956 
Q 1356 3278 1631 3431 
Q 1906 3584 2284 3584 
Q 2666 3584 2933 3390 
Q 3200 3197 3328 2828 
z
" id="DejaVuSans-6d" transform="scale(0.015625)"/>
       <path d="M 750 794 
L 1409 794 
L 1409 256 
L 897 -744 
L 494 -744 
L 750 256 
L 750 794 
z
" id="DejaVuSans-2c" transform="scale(0.015625)"/>
      </defs>
      <use xlink:href="#DejaVuSans-73"/>
      <use x="52.099609" xlink:href="#DejaVuSans-65"/>
      <use x="113.623047" xlink:href="#DejaVuSans-67"/>
      <use x="177.099609" xlink:href="#DejaVuSans-6d"/>
      <use x="274.511719" xlink:href="#DejaVuSans-65"/>
      <use x="336.035156" xlink:href="#DejaVuSans-6e"/>
      <use x="399.414062" xlink:href="#DejaVuSans-74"/>
      <use x="438.623047" xlink:href="#DejaVuSans-65"/>
      <use x="500.146484" xlink:href="#DejaVuSans-64"/>
      <use x="563.623047" xlink:href="#DejaVuSans-20"/>
      <use x="595.410156" xlink:href="#DejaVuSans-61"/>
      <use x="656.689453" xlink:href="#DejaVuSans-75"/>
      <use x="720.068359" xlink:href="#DejaVuSans-64"/>
      <use x="783.544922" xlink:href="#DejaVuSans-69"/>
      <use x="811.328125" xlink:href="#DejaVuSans-6f"/>
      <use x="872.509766" xlink:href="#DejaVuSans-2c"/>
      <use x="904.296875" xlink:href="#DejaVuSans-20"/>
      <use x="936.083984" xlink:href="#DejaVuSans-6d"/>
      <use x="1033.496094" xlink:href="#DejaVuSans-61"/>
      <use x="1094.775391" xlink:href="#DejaVuSans-6e"/>
      <use x="1158.154297" xlink:href="#DejaVuSans-75"/>
      <use x="1221.533203" xlink:href="#DejaVuSans-61"/>
      <use x="1282.8125" xlink:href="#DejaVuSans-6c"/>
      <use x="1310.595703" xlink:href="#DejaVuSans-6c"/>
      <use x="1338.378906" xlink:href="#DejaVuSans-79"/>
      <use x="1397.558594" xlink:href="#DejaVuSans-20"/>
      <use x="1429.345703" xlink:href="#DejaVuSans-63"/>
      <use x="1484.326172" xlink:href="#DejaVuSans-6c"/>
      <use x="1512.109375" xlink:href="#DejaVuSans-65"/>
      <use x="1573.632812" xlink:href="#DejaVuSans-61"/>
      <use x="1634.912109" xlink:href="#DejaVuSans-6e"/>
      <use x="1698.291016" xlink:href="#DejaVuSans-65"/>
      <use x="1759.814453" xlink:href="#DejaVuSans-64"/>
     </g>
    </g>
    <g id="line2d_58">
     <path d="M 77.308625 410.107313 
L 103.708625 410.107313 
" style="fill:none;stroke:#333333;stroke-dasharray:3,3;stroke-dashoffset:0;stroke-width:3;"/>
    </g>
    <g id="line2d_59"/>
    <g id="text_51">
     <!-- segmented audio, not cleaned -->
     <g transform="translate(114.268625 414.727313)scale(0.132 -0.132)">
      <use xlink:href="#DejaVuSans-73"/>
      <use x="52.099609" xlink:href="#DejaVuSans-65"/>
      <use x="113.623047" xlink:href="#DejaVuSans-67"/>
      <use x="177.099609" xlink:href="#DejaVuSans-6d"/>
      <use x="274.511719" xlink:href="#DejaVuSans-65"/>
      <use x="336.035156" xlink:href="#DejaVuSans-6e"/>
      <use x="399.414062" xlink:href="#DejaVuSans-74"/>
      <use x="438.623047" xlink:href="#DejaVuSans-65"/>
      <use x="500.146484" xlink:href="#DejaVuSans-64"/>
      <use x="563.623047" xlink:href="#DejaVuSans-20"/>
      <use x="595.410156" xlink:href="#DejaVuSans-61"/>
      <use x="656.689453" xlink:href="#DejaVuSans-75"/>
      <use x="720.068359" xlink:href="#DejaVuSans-64"/>
      <use x="783.544922" xlink:href="#DejaVuSans-69"/>
      <use x="811.328125" xlink:href="#DejaVuSans-6f"/>
      <use x="872.509766" xlink:href="#DejaVuSans-2c"/>
      <use x="904.296875" xlink:href="#DejaVuSans-20"/>
      <use x="936.083984" xlink:href="#DejaVuSans-6e"/>
      <use x="999.462891" xlink:href="#DejaVuSans-6f"/>
      <use x="1060.644531" xlink:href="#DejaVuSans-74"/>
      <use x="1099.853516" xlink:href="#DejaVuSans-20"/>
      <use x="1131.640625" xlink:href="#DejaVuSans-63"/>
      <use x="1186.621094" xlink:href="#DejaVuSans-6c"/>
      <use x="1214.404297" xlink:href="#DejaVuSans-65"/>
      <use x="1275.927734" xlink:href="#DejaVuSans-61"/>
      <use x="1337.207031" xlink:href="#DejaVuSans-6e"/>
      <use x="1400.585938" xlink:href="#DejaVuSans-65"/>
      <use x="1462.109375" xlink:href="#DejaVuSans-64"/>
     </g>
    </g>
    <g id="line2d_60">
     <path d="M 77.308625 429.482438 
L 103.708625 429.482438 
" style="fill:none;stroke:#333333;stroke-dasharray:9,3.75,4.5,3.75;stroke-dashoffset:0;stroke-width:3;"/>
    </g>
    <g id="line2d_61"/>
    <g id="text_52">
     <!-- segmented audio, semi-automated cleaning -->
     <g transform="translate(114.268625 434.102438)scale(0.132 -0.132)">
      <defs>
       <path d="M 313 2009 
L 1997 2009 
L 1997 1497 
L 313 1497 
L 313 2009 
z
" id="DejaVuSans-2d" transform="scale(0.015625)"/>
      </defs>
      <use xlink:href="#DejaVuSans-73"/>
      <use x="52.099609" xlink:href="#DejaVuSans-65"/>
      <use x="113.623047" xlink:href="#DejaVuSans-67"/>
      <use x="177.099609" xlink:href="#DejaVuSans-6d"/>
      <use x="274.511719" xlink:href="#DejaVuSans-65"/>
      <use x="336.035156" xlink:href="#DejaVuSans-6e"/>
      <use x="399.414062" xlink:href="#DejaVuSans-74"/>
      <use x="438.623047" xlink:href="#DejaVuSans-65"/>
      <use x="500.146484" xlink:href="#DejaVuSans-64"/>
      <use x="563.623047" xlink:href="#DejaVuSans-20"/>
      <use x="595.410156" xlink:href="#DejaVuSans-61"/>
      <use x="656.689453" xlink:href="#DejaVuSans-75"/>
      <use x="720.068359" xlink:href="#DejaVuSans-64"/>
      <use x="783.544922" xlink:href="#DejaVuSans-69"/>
      <use x="811.328125" xlink:href="#DejaVuSans-6f"/>
      <use x="872.509766" xlink:href="#DejaVuSans-2c"/>
      <use x="904.296875" xlink:href="#DejaVuSans-20"/>
      <use x="936.083984" xlink:href="#DejaVuSans-73"/>
      <use x="988.183594" xlink:href="#DejaVuSans-65"/>
      <use x="1049.707031" xlink:href="#DejaVuSans-6d"/>
      <use x="1147.119141" xlink:href="#DejaVuSans-69"/>
      <use x="1174.902344" xlink:href="#DejaVuSans-2d"/>
      <use x="1210.986328" xlink:href="#DejaVuSans-61"/>
      <use x="1272.265625" xlink:href="#DejaVuSans-75"/>
      <use x="1335.644531" xlink:href="#DejaVuSans-74"/>
      <use x="1374.853516" xlink:href="#DejaVuSans-6f"/>
      <use x="1436.035156" xlink:href="#DejaVuSans-6d"/>
      <use x="1533.447266" xlink:href="#DejaVuSans-61"/>
      <use x="1594.726562" xlink:href="#DejaVuSans-74"/>
      <use x="1633.935547" xlink:href="#DejaVuSans-65"/>
      <use x="1695.458984" xlink:href="#DejaVuSans-64"/>
      <use x="1758.935547" xlink:href="#DejaVuSans-20"/>
      <use x="1790.722656" xlink:href="#DejaVuSans-63"/>
      <use x="1845.703125" xlink:href="#DejaVuSans-6c"/>
      <use x="1873.486328" xlink:href="#DejaVuSans-65"/>
      <use x="1935.009766" xlink:href="#DejaVuSans-61"/>
      <use x="1996.289062" xlink:href="#DejaVuSans-6e"/>
      <use x="2059.667969" xlink:href="#DejaVuSans-69"/>
      <use x="2087.451172" xlink:href="#DejaVuSans-6e"/>
      <use x="2150.830078" xlink:href="#DejaVuSans-67"/>
     </g>
    </g>
    <g id="line2d_62">
     <path d="M 77.308625 448.857563 
L 103.708625 448.857563 
" style="fill:none;stroke:#333333;stroke-linecap:square;stroke-width:3;"/>
    </g>
    <g id="line2d_63"/>
    <g id="text_53">
     <!-- spectrogram -->
     <g transform="translate(114.268625 453.477563)scale(0.132 -0.132)">
      <use xlink:href="#DejaVuSans-73"/>
      <use x="52.099609" xlink:href="#DejaVuSans-70"/>
      <use x="115.576172" xlink:href="#DejaVuSans-65"/>
      <use x="177.099609" xlink:href="#DejaVuSans-63"/>
      <use x="232.080078" xlink:href="#DejaVuSans-74"/>
      <use x="271.289062" xlink:href="#DejaVuSans-72"/>
      <use x="310.152344" xlink:href="#DejaVuSans-6f"/>
      <use x="371.333984" xlink:href="#DejaVuSans-67"/>
      <use x="434.810547" xlink:href="#DejaVuSans-72"/>
      <use x="475.923828" xlink:href="#DejaVuSans-61"/>
      <use x="537.203125" xlink:href="#DejaVuSans-6d"/>
     </g>
    </g>
   </g>
  </g>
 </g>
 <defs>
  <clipPath id="p9e8988b39a">
   <rect height="63.952941" width="202.909091" x="65.428625" y="24.14175"/>
  </clipPath>
  <clipPath id="p8a79d483f4">
   <rect height="63.952941" width="202.909091" x="308.919534" y="24.14175"/>
  </clipPath>
  <clipPath id="pe894b877b8">
   <rect height="140.696471" width="202.909091" x="65.428625" y="100.885279"/>
  </clipPath>
  <clipPath id="p7df0db113e">
   <rect height="140.696471" width="202.909091" x="308.919534" y="100.885279"/>
  </clipPath>
 </defs>
</svg>
