<?xml version="1.0" encoding="utf-8" standalone="no"?>
<!DOCTYPE svg PUBLIC "-//W3C//DTD SVG 1.1//EN"
  "http://www.w3.org/Graphics/SVG/1.1/DTD/svg11.dtd">
<svg height="463.215188pt" version="1.1" viewBox="0 0 525.1355 463.215188" width="525.1355pt" xmlns="http://www.w3.org/2000/svg" xmlns:xlink="http://www.w3.org/1999/xlink">
 <metadata>
  <rdf:RDF xmlns:cc="http://creativecommons.org/ns#" xmlns:dc="http://purl.org/dc/elements/1.1/" xmlns:rdf="http://www.w3.org/1999/02/22-rdf-syntax-ns#">
   <cc:Work>
    <dc:type rdf:resource="http://purl.org/dc/dcmitype/StillImage"/>
    <dc:date>2021-12-30T19:24:33.750731</dc:date>
    <dc:format>image/svg+xml</dc:format>
    <dc:creator>
     <cc:Agent>
      <dc:title>Matplotlib v3.4.1, https://matplotlib.org/</dc:title>
     </cc:Agent>
    </dc:creator>
   </cc:Work>
  </rdf:RDF>
 </metadata>
 <defs>
  <style type="text/css">*{stroke-linecap:butt;stroke-linejoin:round;}</style>
 </defs>
 <g id="figure_1">
  <g id="patch_1">
   <path d="M 0 463.215188 
L 525.1355 463.215188 
L 525.1355 0 
L 0 0 
z
" style="fill:none;"/>
  </g>
  <g id="axes_1">
   <g id="patch_2">
    <path d="M 62.3615 87.460191 
L 265.270591 87.460191 
L 265.270591 23.50725 
L 62.3615 23.50725 
z
" style="fill:#ffffff;"/>
   </g>
   <g id="PolyCollection_1">
    <defs>
     <path d="M 71.58464 -368.979528 
L 71.58464 -367.989058 
L 102.328442 -367.811426 
L 133.072244 -367.663299 
L 163.816045 -367.644886 
L 194.559847 -367.602853 
L 225.303649 -367.562554 
L 256.04745 -367.551647 
L 256.04745 -368.29847 
L 256.04745 -368.29847 
L 225.303649 -368.250033 
L 194.559847 -368.378272 
L 163.816045 -368.383709 
L 133.072244 -368.534156 
L 102.328442 -368.617032 
L 71.58464 -368.979528 
z
" id="mdbc6db5fbb" style="stroke:#de8f05;stroke-opacity:0.2;stroke-width:0.8;"/>
    </defs>
    <g clip-path="url(#p4e2e521c83)">
     <use style="fill:#de8f05;fill-opacity:0.2;stroke:#de8f05;stroke-opacity:0.2;stroke-width:0.8;" x="0" xlink:href="#mdbc6db5fbb" y="463.215188"/>
    </g>
   </g>
   <g id="PolyCollection_2">
    <defs>
     <path d="M 71.58464 -374.327053 
L 71.58464 -370.87661 
L 102.328442 -370.72097 
L 133.072244 -370.553321 
L 163.816045 -370.532271 
L 194.559847 -370.493321 
L 225.303649 -370.387722 
L 256.04745 -370.393546 
L 256.04745 -373.844139 
L 256.04745 -373.844139 
L 225.303649 -373.520191 
L 194.559847 -373.653366 
L 163.816045 -373.447741 
L 133.072244 -373.824466 
L 102.328442 -373.916771 
L 71.58464 -374.327053 
z
" id="m8ee1534ebb" style="stroke:#de8f05;stroke-opacity:0.2;stroke-width:0.8;"/>
    </defs>
    <g clip-path="url(#p4e2e521c83)">
     <use style="fill:#de8f05;fill-opacity:0.2;stroke:#de8f05;stroke-opacity:0.2;stroke-width:0.8;" x="0" xlink:href="#m8ee1534ebb" y="463.215188"/>
    </g>
   </g>
   <g id="PolyCollection_3">
    <defs>
     <path d="M 71.58464 -370.267882 
L 71.58464 -368.458321 
L 102.328442 -368.250627 
L 133.072244 -368.262349 
L 163.816045 -368.09337 
L 194.559847 -368.045151 
L 225.303649 -368.010326 
L 256.04745 -367.984724 
L 256.04745 -369.52337 
L 256.04745 -369.52337 
L 225.303649 -369.469673 
L 194.559847 -369.639416 
L 163.816045 -369.664075 
L 133.072244 -369.804591 
L 102.328442 -369.988219 
L 71.58464 -370.267882 
z
" id="mf918b5af73" style="stroke:#de8f05;stroke-opacity:0.2;stroke-width:0.8;"/>
    </defs>
    <g clip-path="url(#p4e2e521c83)">
     <use style="fill:#de8f05;fill-opacity:0.2;stroke:#de8f05;stroke-opacity:0.2;stroke-width:0.8;" x="0" xlink:href="#mf918b5af73" y="463.215188"/>
    </g>
   </g>
   <g id="PolyCollection_4">
    <defs>
     <path d="M 71.58464 -371.377382 
L 71.58464 -370.278444 
L 102.328442 -369.765749 
L 133.072244 -369.020117 
L 163.816045 -368.75799 
L 194.559847 -368.512739 
L 225.303649 -367.880126 
L 256.04745 -367.969049 
L 256.04745 -368.755831 
L 256.04745 -368.755831 
L 225.303649 -368.807653 
L 194.559847 -369.400527 
L 163.816045 -369.507012 
L 133.072244 -370.397929 
L 102.328442 -370.886946 
L 71.58464 -371.377382 
z
" id="m3da5357497" style="stroke:#0173b2;stroke-opacity:0.2;stroke-width:0.8;"/>
    </defs>
    <g clip-path="url(#p4e2e521c83)">
     <use style="fill:#0173b2;fill-opacity:0.2;stroke:#0173b2;stroke-opacity:0.2;stroke-width:0.8;" x="0" xlink:href="#m3da5357497" y="463.215188"/>
    </g>
   </g>
   <g id="matplotlib.axis_1">
    <g id="xtick_1"/>
    <g id="xtick_2"/>
    <g id="xtick_3"/>
    <g id="xtick_4"/>
    <g id="xtick_5"/>
    <g id="xtick_6"/>
    <g id="xtick_7"/>
   </g>
   <g id="matplotlib.axis_2">
    <g id="ytick_1">
     <g id="line2d_1">
      <defs>
       <path d="M 0 0 
L -4.8 0 
" id="mc79633dabf" style="stroke:#000000;"/>
      </defs>
      <g>
       <use style="stroke:#000000;" x="62.3615" xlink:href="#mc79633dabf" y="61.328882"/>
      </g>
     </g>
     <g id="text_1">
      <!-- 50 -->
      <g transform="translate(39.380625 66.053038)scale(0.132 -0.132)">
       <defs>
        <path d="M 266 1200 
L 856 1250 
Q 922 819 1161 601 
Q 1400 384 1738 384 
Q 2144 384 2425 690 
Q 2706 997 2706 1503 
Q 2706 1984 2436 2262 
Q 2166 2541 1728 2541 
Q 1456 2541 1237 2417 
Q 1019 2294 894 2097 
L 366 2166 
L 809 4519 
L 3088 4519 
L 3088 3981 
L 1259 3981 
L 1013 2750 
Q 1425 3038 1878 3038 
Q 2478 3038 2890 2622 
Q 3303 2206 3303 1553 
Q 3303 931 2941 478 
Q 2500 -78 1738 -78 
Q 1113 -78 717 272 
Q 322 622 266 1200 
z
" id="ArialMT-35" transform="scale(0.015625)"/>
        <path d="M 266 2259 
Q 266 3072 433 3567 
Q 600 4063 929 4331 
Q 1259 4600 1759 4600 
Q 2128 4600 2406 4451 
Q 2684 4303 2865 4023 
Q 3047 3744 3150 3342 
Q 3253 2941 3253 2259 
Q 3253 1453 3087 958 
Q 2922 463 2592 192 
Q 2263 -78 1759 -78 
Q 1097 -78 719 397 
Q 266 969 266 2259 
z
M 844 2259 
Q 844 1131 1108 757 
Q 1372 384 1759 384 
Q 2147 384 2411 759 
Q 2675 1134 2675 2259 
Q 2675 3391 2411 3762 
Q 2147 4134 1753 4134 
Q 1366 4134 1134 3806 
Q 844 3388 844 2259 
z
" id="ArialMT-30" transform="scale(0.015625)"/>
       </defs>
       <use xlink:href="#ArialMT-35"/>
       <use x="55.615234" xlink:href="#ArialMT-30"/>
      </g>
     </g>
    </g>
    <g id="ytick_2">
     <g id="line2d_2">
      <g>
       <use style="stroke:#000000;" x="62.3615" xlink:href="#mc79633dabf" y="26.94558"/>
      </g>
     </g>
     <g id="text_2">
      <!-- 100 -->
      <g transform="translate(32.040188 31.669736)scale(0.132 -0.132)">
       <defs>
        <path d="M 2384 0 
L 1822 0 
L 1822 3584 
Q 1619 3391 1289 3197 
Q 959 3003 697 2906 
L 697 3450 
Q 1169 3672 1522 3987 
Q 1875 4303 2022 4600 
L 2384 4600 
L 2384 0 
z
" id="ArialMT-31" transform="scale(0.015625)"/>
       </defs>
       <use xlink:href="#ArialMT-31"/>
       <use x="55.615234" xlink:href="#ArialMT-30"/>
       <use x="111.230469" xlink:href="#ArialMT-30"/>
      </g>
     </g>
    </g>
   </g>
   <g id="line2d_3">
    <path clip-path="url(#p4e2e521c83)" d="M 71.58464 94.824732 
L 102.328442 95.083962 
L 133.072244 95.164466 
L 163.816045 95.304392 
L 194.559847 95.340043 
L 225.303649 95.405973 
L 256.04745 95.404509 
" style="fill:none;stroke:#de8f05;stroke-dasharray:12,4.5;stroke-dashoffset:0;stroke-width:3;"/>
   </g>
   <g id="line2d_4">
    <path clip-path="url(#p4e2e521c83)" d="M 71.58464 90.836658 
L 102.328442 91.103119 
L 133.072244 91.182347 
L 163.816045 91.333747 
L 194.559847 91.364395 
L 225.303649 91.454571 
L 256.04745 91.438952 
" style="fill:none;stroke:#de8f05;stroke-dasharray:3,3;stroke-dashoffset:0;stroke-width:3;"/>
   </g>
   <g id="line2d_5">
    <path clip-path="url(#p4e2e521c83)" d="M 71.58464 93.852086 
L 102.328442 94.095764 
L 133.072244 94.181718 
L 163.816045 94.336366 
L 194.559847 94.372904 
L 225.303649 94.475188 
L 256.04745 94.46114 
" style="fill:none;stroke:#de8f05;stroke-dasharray:9,3.75,4.5,3.75;stroke-dashoffset:0;stroke-width:3;"/>
   </g>
   <g id="line2d_6">
    <path clip-path="url(#p4e2e521c83)" d="M 71.58464 92.379667 
L 102.328442 92.907615 
L 133.072244 93.506164 
L 163.816045 94.178956 
L 194.559847 94.366281 
L 225.303649 94.941535 
L 256.04745 94.963526 
" style="fill:none;stroke:#0173b2;stroke-linecap:square;stroke-width:3;"/>
   </g>
   <g id="patch_3">
    <path d="M 62.3615 87.460191 
L 62.3615 23.50725 
" style="fill:none;stroke:#000000;stroke-linecap:square;stroke-linejoin:miter;"/>
   </g>
   <g id="text_3">
    <!-- Bengalese Finches -->
    <g transform="translate(102.58117 17.50725)scale(0.144 -0.144)">
     <defs>
      <path d="M 469 0 
L 469 4581 
L 2188 4581 
Q 2713 4581 3030 4442 
Q 3347 4303 3526 4014 
Q 3706 3725 3706 3409 
Q 3706 3116 3547 2856 
Q 3388 2597 3066 2438 
Q 3481 2316 3704 2022 
Q 3928 1728 3928 1328 
Q 3928 1006 3792 729 
Q 3656 453 3456 303 
Q 3256 153 2954 76 
Q 2653 0 2216 0 
L 469 0 
z
M 1075 2656 
L 2066 2656 
Q 2469 2656 2644 2709 
Q 2875 2778 2992 2937 
Q 3109 3097 3109 3338 
Q 3109 3566 3000 3739 
Q 2891 3913 2687 3977 
Q 2484 4041 1991 4041 
L 1075 4041 
L 1075 2656 
z
M 1075 541 
L 2216 541 
Q 2509 541 2628 563 
Q 2838 600 2978 687 
Q 3119 775 3209 942 
Q 3300 1109 3300 1328 
Q 3300 1584 3169 1773 
Q 3038 1963 2805 2039 
Q 2572 2116 2134 2116 
L 1075 2116 
L 1075 541 
z
" id="ArialMT-42" transform="scale(0.015625)"/>
      <path d="M 2694 1069 
L 3275 997 
Q 3138 488 2766 206 
Q 2394 -75 1816 -75 
Q 1088 -75 661 373 
Q 234 822 234 1631 
Q 234 2469 665 2931 
Q 1097 3394 1784 3394 
Q 2450 3394 2872 2941 
Q 3294 2488 3294 1666 
Q 3294 1616 3291 1516 
L 816 1516 
Q 847 969 1125 678 
Q 1403 388 1819 388 
Q 2128 388 2347 550 
Q 2566 713 2694 1069 
z
M 847 1978 
L 2700 1978 
Q 2663 2397 2488 2606 
Q 2219 2931 1791 2931 
Q 1403 2931 1139 2672 
Q 875 2413 847 1978 
z
" id="ArialMT-65" transform="scale(0.015625)"/>
      <path d="M 422 0 
L 422 3319 
L 928 3319 
L 928 2847 
Q 1294 3394 1984 3394 
Q 2284 3394 2536 3286 
Q 2788 3178 2913 3003 
Q 3038 2828 3088 2588 
Q 3119 2431 3119 2041 
L 3119 0 
L 2556 0 
L 2556 2019 
Q 2556 2363 2490 2533 
Q 2425 2703 2258 2804 
Q 2091 2906 1866 2906 
Q 1506 2906 1245 2678 
Q 984 2450 984 1813 
L 984 0 
L 422 0 
z
" id="ArialMT-6e" transform="scale(0.015625)"/>
      <path d="M 319 -275 
L 866 -356 
Q 900 -609 1056 -725 
Q 1266 -881 1628 -881 
Q 2019 -881 2231 -725 
Q 2444 -569 2519 -288 
Q 2563 -116 2559 434 
Q 2191 0 1641 0 
Q 956 0 581 494 
Q 206 988 206 1678 
Q 206 2153 378 2554 
Q 550 2956 876 3175 
Q 1203 3394 1644 3394 
Q 2231 3394 2613 2919 
L 2613 3319 
L 3131 3319 
L 3131 450 
Q 3131 -325 2973 -648 
Q 2816 -972 2473 -1159 
Q 2131 -1347 1631 -1347 
Q 1038 -1347 672 -1080 
Q 306 -813 319 -275 
z
M 784 1719 
Q 784 1066 1043 766 
Q 1303 466 1694 466 
Q 2081 466 2343 764 
Q 2606 1063 2606 1700 
Q 2606 2309 2336 2618 
Q 2066 2928 1684 2928 
Q 1309 2928 1046 2623 
Q 784 2319 784 1719 
z
" id="ArialMT-67" transform="scale(0.015625)"/>
      <path d="M 2588 409 
Q 2275 144 1986 34 
Q 1697 -75 1366 -75 
Q 819 -75 525 192 
Q 231 459 231 875 
Q 231 1119 342 1320 
Q 453 1522 633 1644 
Q 813 1766 1038 1828 
Q 1203 1872 1538 1913 
Q 2219 1994 2541 2106 
Q 2544 2222 2544 2253 
Q 2544 2597 2384 2738 
Q 2169 2928 1744 2928 
Q 1347 2928 1158 2789 
Q 969 2650 878 2297 
L 328 2372 
Q 403 2725 575 2942 
Q 747 3159 1072 3276 
Q 1397 3394 1825 3394 
Q 2250 3394 2515 3294 
Q 2781 3194 2906 3042 
Q 3031 2891 3081 2659 
Q 3109 2516 3109 2141 
L 3109 1391 
Q 3109 606 3145 398 
Q 3181 191 3288 0 
L 2700 0 
Q 2613 175 2588 409 
z
M 2541 1666 
Q 2234 1541 1622 1453 
Q 1275 1403 1131 1340 
Q 988 1278 909 1158 
Q 831 1038 831 891 
Q 831 666 1001 516 
Q 1172 366 1500 366 
Q 1825 366 2078 508 
Q 2331 650 2450 897 
Q 2541 1088 2541 1459 
L 2541 1666 
z
" id="ArialMT-61" transform="scale(0.015625)"/>
      <path d="M 409 0 
L 409 4581 
L 972 4581 
L 972 0 
L 409 0 
z
" id="ArialMT-6c" transform="scale(0.015625)"/>
      <path d="M 197 991 
L 753 1078 
Q 800 744 1014 566 
Q 1228 388 1613 388 
Q 2000 388 2187 545 
Q 2375 703 2375 916 
Q 2375 1106 2209 1216 
Q 2094 1291 1634 1406 
Q 1016 1563 777 1677 
Q 538 1791 414 1992 
Q 291 2194 291 2438 
Q 291 2659 392 2848 
Q 494 3038 669 3163 
Q 800 3259 1026 3326 
Q 1253 3394 1513 3394 
Q 1903 3394 2198 3281 
Q 2494 3169 2634 2976 
Q 2775 2784 2828 2463 
L 2278 2388 
Q 2241 2644 2061 2787 
Q 1881 2931 1553 2931 
Q 1166 2931 1000 2803 
Q 834 2675 834 2503 
Q 834 2394 903 2306 
Q 972 2216 1119 2156 
Q 1203 2125 1616 2013 
Q 2213 1853 2448 1751 
Q 2684 1650 2818 1456 
Q 2953 1263 2953 975 
Q 2953 694 2789 445 
Q 2625 197 2315 61 
Q 2006 -75 1616 -75 
Q 969 -75 630 194 
Q 291 463 197 991 
z
" id="ArialMT-73" transform="scale(0.015625)"/>
      <path id="ArialMT-20" transform="scale(0.015625)"/>
      <path d="M 525 0 
L 525 4581 
L 3616 4581 
L 3616 4041 
L 1131 4041 
L 1131 2622 
L 3281 2622 
L 3281 2081 
L 1131 2081 
L 1131 0 
L 525 0 
z
" id="ArialMT-46" transform="scale(0.015625)"/>
      <path d="M 425 3934 
L 425 4581 
L 988 4581 
L 988 3934 
L 425 3934 
z
M 425 0 
L 425 3319 
L 988 3319 
L 988 0 
L 425 0 
z
" id="ArialMT-69" transform="scale(0.015625)"/>
      <path d="M 2588 1216 
L 3141 1144 
Q 3050 572 2676 248 
Q 2303 -75 1759 -75 
Q 1078 -75 664 370 
Q 250 816 250 1647 
Q 250 2184 428 2587 
Q 606 2991 970 3192 
Q 1334 3394 1763 3394 
Q 2303 3394 2647 3120 
Q 2991 2847 3088 2344 
L 2541 2259 
Q 2463 2594 2264 2762 
Q 2066 2931 1784 2931 
Q 1359 2931 1093 2626 
Q 828 2322 828 1663 
Q 828 994 1084 691 
Q 1341 388 1753 388 
Q 2084 388 2306 591 
Q 2528 794 2588 1216 
z
" id="ArialMT-63" transform="scale(0.015625)"/>
      <path d="M 422 0 
L 422 4581 
L 984 4581 
L 984 2938 
Q 1378 3394 1978 3394 
Q 2347 3394 2619 3248 
Q 2891 3103 3008 2847 
Q 3125 2591 3125 2103 
L 3125 0 
L 2563 0 
L 2563 2103 
Q 2563 2525 2380 2717 
Q 2197 2909 1863 2909 
Q 1613 2909 1392 2779 
Q 1172 2650 1078 2428 
Q 984 2206 984 1816 
L 984 0 
L 422 0 
z
" id="ArialMT-68" transform="scale(0.015625)"/>
     </defs>
     <use xlink:href="#ArialMT-42"/>
     <use x="66.699219" xlink:href="#ArialMT-65"/>
     <use x="122.314453" xlink:href="#ArialMT-6e"/>
     <use x="177.929688" xlink:href="#ArialMT-67"/>
     <use x="233.544922" xlink:href="#ArialMT-61"/>
     <use x="289.160156" xlink:href="#ArialMT-6c"/>
     <use x="311.376953" xlink:href="#ArialMT-65"/>
     <use x="366.992188" xlink:href="#ArialMT-73"/>
     <use x="416.992188" xlink:href="#ArialMT-65"/>
     <use x="472.607422" xlink:href="#ArialMT-20"/>
     <use x="500.390625" xlink:href="#ArialMT-46"/>
     <use x="561.474609" xlink:href="#ArialMT-69"/>
     <use x="583.691406" xlink:href="#ArialMT-6e"/>
     <use x="639.306641" xlink:href="#ArialMT-63"/>
     <use x="689.306641" xlink:href="#ArialMT-68"/>
     <use x="744.921875" xlink:href="#ArialMT-65"/>
     <use x="800.537109" xlink:href="#ArialMT-73"/>
    </g>
   </g>
  </g>
  <g id="axes_2">
   <g id="patch_4">
    <path d="M 305.852409 87.460191 
L 508.7615 87.460191 
L 508.7615 23.50725 
L 305.852409 23.50725 
z
" style="fill:#ffffff;"/>
   </g>
   <g id="PolyCollection_5">
    <defs>
     <path d="M 315.07555 -373.2326 
L 315.07555 -370.363237 
L 341.42738 -370.063725 
L 367.77921 -369.773484 
L 394.13104 -369.616086 
L 420.48287 -369.645675 
L 446.8347 -369.31756 
L 473.18653 -369.276975 
L 499.53836 -369.211981 
L 499.53836 -371.845959 
L 499.53836 -371.845959 
L 473.18653 -371.738064 
L 446.8347 -372.054625 
L 420.48287 -373.089236 
L 394.13104 -372.164662 
L 367.77921 -372.666312 
L 341.42738 -372.962845 
L 315.07555 -373.2326 
z
" id="m2daebcf2a9" style="stroke:#de8f05;stroke-opacity:0.2;stroke-width:0.8;"/>
    </defs>
    <g clip-path="url(#p04e37ae6b6)">
     <use style="fill:#de8f05;fill-opacity:0.2;stroke:#de8f05;stroke-opacity:0.2;stroke-width:0.8;" x="0" xlink:href="#m2daebcf2a9" y="463.215188"/>
    </g>
   </g>
   <g id="PolyCollection_6">
    <defs>
     <path d="M 315.07555 -437.768172 
L 315.07555 -379.435628 
L 341.42738 -379.34023 
L 367.77921 -378.996597 
L 394.13104 -378.645094 
L 420.48287 -379.311246 
L 446.8347 -378.646066 
L 473.18653 -378.142874 
L 499.53836 -378.228091 
L 499.53836 -436.710211 
L 499.53836 -436.710211 
L 473.18653 -435.691295 
L 446.8347 -436.348055 
L 420.48287 -436.8996 
L 394.13104 -436.598567 
L 367.77921 -437.408964 
L 341.42738 -437.861506 
L 315.07555 -437.768172 
z
" id="m97824e6b12" style="stroke:#de8f05;stroke-opacity:0.2;stroke-width:0.8;"/>
    </defs>
    <g clip-path="url(#p04e37ae6b6)">
     <use style="fill:#de8f05;fill-opacity:0.2;stroke:#de8f05;stroke-opacity:0.2;stroke-width:0.8;" x="0" xlink:href="#m97824e6b12" y="463.215188"/>
    </g>
   </g>
   <g id="PolyCollection_7">
    <defs>
     <path d="M 315.07555 -410.729269 
L 315.07555 -376.869377 
L 341.42738 -376.636059 
L 367.77921 -376.409649 
L 394.13104 -376.111566 
L 420.48287 -376.809571 
L 446.8347 -376.065836 
L 473.18653 -375.576133 
L 499.53836 -375.710276 
L 499.53836 -409.677851 
L 499.53836 -409.677851 
L 473.18653 -408.743106 
L 446.8347 -409.368738 
L 420.48287 -409.757465 
L 394.13104 -409.752988 
L 367.77921 -410.489188 
L 341.42738 -410.707432 
L 315.07555 -410.729269 
z
" id="m8dd09b9b56" style="stroke:#de8f05;stroke-opacity:0.2;stroke-width:0.8;"/>
    </defs>
    <g clip-path="url(#p04e37ae6b6)">
     <use style="fill:#de8f05;fill-opacity:0.2;stroke:#de8f05;stroke-opacity:0.2;stroke-width:0.8;" x="0" xlink:href="#m8dd09b9b56" y="463.215188"/>
    </g>
   </g>
   <g id="PolyCollection_8">
    <defs>
     <path d="M 315.07555 -375.346051 
L 315.07555 -371.645176 
L 341.42738 -371.116626 
L 367.77921 -371.021108 
L 394.13104 -370.828276 
L 420.48287 -370.324129 
L 446.8347 -370.61194 
L 473.18653 -370.370138 
L 499.53836 -370.106558 
L 499.53836 -371.823463 
L 499.53836 -371.823463 
L 473.18653 -372.092314 
L 446.8347 -372.324738 
L 420.48287 -372.509807 
L 394.13104 -373.83619 
L 367.77921 -373.23676 
L 341.42738 -374.033355 
L 315.07555 -375.346051 
z
" id="mf8ebed704e" style="stroke:#0173b2;stroke-opacity:0.2;stroke-width:0.8;"/>
    </defs>
    <g clip-path="url(#p04e37ae6b6)">
     <use style="fill:#0173b2;fill-opacity:0.2;stroke:#0173b2;stroke-opacity:0.2;stroke-width:0.8;" x="0" xlink:href="#mf8ebed704e" y="463.215188"/>
    </g>
   </g>
   <g id="matplotlib.axis_3">
    <g id="xtick_8"/>
    <g id="xtick_9"/>
    <g id="xtick_10"/>
    <g id="xtick_11"/>
    <g id="xtick_12"/>
    <g id="xtick_13"/>
    <g id="xtick_14"/>
    <g id="xtick_15"/>
   </g>
   <g id="matplotlib.axis_4">
    <g id="ytick_3">
     <g id="line2d_7">
      <g>
       <use style="stroke:#000000;" x="305.852409" xlink:href="#mc79633dabf" y="61.328882"/>
      </g>
     </g>
     <g id="text_4">
      <!-- 50 -->
      <g transform="translate(282.871534 66.053038)scale(0.132 -0.132)">
       <use xlink:href="#ArialMT-35"/>
       <use x="55.615234" xlink:href="#ArialMT-30"/>
      </g>
     </g>
    </g>
    <g id="ytick_4">
     <g id="line2d_8">
      <g>
       <use style="stroke:#000000;" x="305.852409" xlink:href="#mc79633dabf" y="26.94558"/>
      </g>
     </g>
     <g id="text_5">
      <!-- 100 -->
      <g transform="translate(275.531097 31.669736)scale(0.132 -0.132)">
       <use xlink:href="#ArialMT-31"/>
       <use x="55.615234" xlink:href="#ArialMT-30"/>
       <use x="111.230469" xlink:href="#ArialMT-30"/>
      </g>
     </g>
    </g>
   </g>
   <g id="line2d_9">
    <path clip-path="url(#p04e37ae6b6)" d="M 315.07555 91.44177 
L 341.42738 91.694349 
L 367.77921 92.113107 
L 394.13104 92.202456 
L 420.48287 92.206944 
L 446.8347 92.691281 
L 473.18653 92.778984 
L 499.53836 92.865479 
" style="fill:none;stroke:#de8f05;stroke-dasharray:12,4.5;stroke-dashoffset:0;stroke-width:3;"/>
   </g>
   <g id="line2d_10">
    <path clip-path="url(#p04e37ae6b6)" d="M 315.07555 61.962428 
L 341.42738 62.110325 
L 367.77921 62.436527 
L 394.13104 62.927631 
L 420.48287 62.616551 
L 446.8347 63.222839 
L 473.18653 63.566502 
L 499.53836 63.305754 
" style="fill:none;stroke:#de8f05;stroke-dasharray:3,3;stroke-dashoffset:0;stroke-width:3;"/>
   </g>
   <g id="line2d_11">
    <path clip-path="url(#p04e37ae6b6)" d="M 315.07555 72.321378 
L 341.42738 72.556284 
L 367.77921 72.759561 
L 394.13104 73.200381 
L 420.48287 72.978235 
L 446.8347 73.562572 
L 473.18653 73.889307 
L 499.53836 73.639776 
" style="fill:none;stroke:#de8f05;stroke-dasharray:9,3.75,4.5,3.75;stroke-dashoffset:0;stroke-width:3;"/>
   </g>
   <g id="line2d_12">
    <path clip-path="url(#p04e37ae6b6)" d="M 315.07555 90.141865 
L 341.42738 90.879573 
L 367.77921 91.148126 
L 394.13104 90.957384 
L 420.48287 91.519286 
L 446.8347 91.68692 
L 473.18653 91.972697 
L 499.53836 92.154359 
" style="fill:none;stroke:#0173b2;stroke-linecap:square;stroke-width:3;"/>
   </g>
   <g id="patch_5">
    <path d="M 305.852409 87.460191 
L 305.852409 23.50725 
" style="fill:none;stroke:#000000;stroke-linecap:square;stroke-linejoin:miter;"/>
   </g>
   <g id="text_6">
    <!-- Canaries -->
    <g transform="translate(378.49458 17.50725)scale(0.144 -0.144)">
     <defs>
      <path d="M 3763 1606 
L 4369 1453 
Q 4178 706 3683 314 
Q 3188 -78 2472 -78 
Q 1731 -78 1267 223 
Q 803 525 561 1097 
Q 319 1669 319 2325 
Q 319 3041 592 3573 
Q 866 4106 1370 4382 
Q 1875 4659 2481 4659 
Q 3169 4659 3637 4309 
Q 4106 3959 4291 3325 
L 3694 3184 
Q 3534 3684 3231 3912 
Q 2928 4141 2469 4141 
Q 1941 4141 1586 3887 
Q 1231 3634 1087 3207 
Q 944 2781 944 2328 
Q 944 1744 1114 1308 
Q 1284 872 1643 656 
Q 2003 441 2422 441 
Q 2931 441 3284 734 
Q 3638 1028 3763 1606 
z
" id="ArialMT-43" transform="scale(0.015625)"/>
      <path d="M 416 0 
L 416 3319 
L 922 3319 
L 922 2816 
Q 1116 3169 1280 3281 
Q 1444 3394 1641 3394 
Q 1925 3394 2219 3213 
L 2025 2691 
Q 1819 2813 1613 2813 
Q 1428 2813 1281 2702 
Q 1134 2591 1072 2394 
Q 978 2094 978 1738 
L 978 0 
L 416 0 
z
" id="ArialMT-72" transform="scale(0.015625)"/>
     </defs>
     <use xlink:href="#ArialMT-43"/>
     <use x="72.216797" xlink:href="#ArialMT-61"/>
     <use x="127.832031" xlink:href="#ArialMT-6e"/>
     <use x="183.447266" xlink:href="#ArialMT-61"/>
     <use x="239.0625" xlink:href="#ArialMT-72"/>
     <use x="272.363281" xlink:href="#ArialMT-69"/>
     <use x="294.580078" xlink:href="#ArialMT-65"/>
     <use x="350.195312" xlink:href="#ArialMT-73"/>
    </g>
   </g>
  </g>
  <g id="axes_3">
   <g id="patch_6">
    <path d="M 62.3615 240.94725 
L 265.270591 240.94725 
L 265.270591 100.250779 
L 62.3615 100.250779 
z
" style="fill:#ffffff;"/>
   </g>
   <g id="PolyCollection_9">
    <defs>
     <path d="M 71.58464 -248.537224 
L 71.58464 -230.915477 
L 102.328442 -227.755175 
L 133.072244 -225.119804 
L 163.816045 -224.792212 
L 194.559847 -224.04439 
L 225.303649 -223.327301 
L 256.04745 -223.133354 
L 256.04745 -236.107807 
L 256.04745 -236.107807 
L 225.303649 -235.553961 
L 194.559847 -237.840102 
L 163.816045 -237.936825 
L 133.072244 -240.613477 
L 102.328442 -242.087951 
L 71.58464 -248.537224 
z
" id="m1dd6280998" style="stroke:#de8f05;stroke-opacity:0.2;stroke-width:0.8;"/>
    </defs>
    <g clip-path="url(#pad45e02454)">
     <use style="fill:#de8f05;fill-opacity:0.2;stroke:#de8f05;stroke-opacity:0.2;stroke-width:0.8;" x="0" xlink:href="#m1dd6280998" y="463.215188"/>
    </g>
   </g>
   <g id="PolyCollection_10">
    <defs>
     <path d="M 71.58464 -343.676669 
L 71.58464 -282.28879 
L 102.328442 -279.519744 
L 133.072244 -276.63377 
L 163.816045 -276.162542 
L 194.559847 -275.381301 
L 225.303649 -273.590829 
L 256.04745 -270.437131 
L 256.04745 -330.509188 
L 256.04745 -330.509188 
L 225.303649 -329.321551 
L 194.559847 -331.796735 
L 163.816045 -331.630785 
L 133.072244 -334.734992 
L 102.328442 -336.377214 
L 71.58464 -343.676669 
z
" id="m57c170236a" style="stroke:#de8f05;stroke-opacity:0.2;stroke-width:0.8;"/>
    </defs>
    <g clip-path="url(#pad45e02454)">
     <use style="fill:#de8f05;fill-opacity:0.2;stroke:#de8f05;stroke-opacity:0.2;stroke-width:0.8;" x="0" xlink:href="#m57c170236a" y="463.215188"/>
    </g>
   </g>
   <g id="PolyCollection_11">
    <defs>
     <path d="M 71.58464 -271.458725 
L 71.58464 -239.264276 
L 102.328442 -235.569125 
L 133.072244 -235.777671 
L 163.816045 -232.774867 
L 194.559847 -231.913441 
L 225.303649 -231.293857 
L 256.04745 -230.838371 
L 256.04745 -258.23983 
L 256.04745 -258.23983 
L 225.303649 -257.257539 
L 194.559847 -260.277498 
L 163.816045 -260.716204 
L 133.072244 -263.216167 
L 102.328442 -266.483162 
L 71.58464 -271.458725 
z
" id="m13c5aa2171" style="stroke:#de8f05;stroke-opacity:0.2;stroke-width:0.8;"/>
    </defs>
    <g clip-path="url(#pad45e02454)">
     <use style="fill:#de8f05;fill-opacity:0.2;stroke:#de8f05;stroke-opacity:0.2;stroke-width:0.8;" x="0" xlink:href="#m13c5aa2171" y="463.215188"/>
    </g>
   </g>
   <g id="PolyCollection_12">
    <defs>
     <path d="M 71.58464 -291.198171 
L 71.58464 -271.646628 
L 102.328442 -262.525126 
L 133.072244 -249.259359 
L 163.816045 -244.595779 
L 194.559847 -240.232449 
L 225.303649 -228.977436 
L 256.04745 -230.559487 
L 256.04745 -244.557374 
L 256.04745 -244.557374 
L 225.303649 -245.479346 
L 194.559847 -256.027342 
L 163.816045 -258.256416 
L 133.072244 -273.772433 
L 102.328442 -282.472673 
L 71.58464 -291.198171 
z
" id="m05f67ad09b" style="stroke:#0173b2;stroke-opacity:0.2;stroke-width:0.8;"/>
    </defs>
    <g clip-path="url(#pad45e02454)">
     <use style="fill:#0173b2;fill-opacity:0.2;stroke:#0173b2;stroke-opacity:0.2;stroke-width:0.8;" x="0" xlink:href="#m05f67ad09b" y="463.215188"/>
    </g>
   </g>
   <g id="matplotlib.axis_5">
    <g id="xtick_16">
     <g id="line2d_13">
      <defs>
       <path d="M 0 0 
L 0 4.8 
" id="m7e8b27513d" style="stroke:#000000;"/>
      </defs>
      <g>
       <use style="stroke:#000000;" x="71.58464" xlink:href="#m7e8b27513d" y="240.94725"/>
      </g>
     </g>
     <g id="text_7">
      <!-- 30 -->
      <g transform="translate(68.807103 266.309162)rotate(-45)scale(0.132 -0.132)">
       <defs>
        <path d="M 269 1209 
L 831 1284 
Q 928 806 1161 595 
Q 1394 384 1728 384 
Q 2125 384 2398 659 
Q 2672 934 2672 1341 
Q 2672 1728 2419 1979 
Q 2166 2231 1775 2231 
Q 1616 2231 1378 2169 
L 1441 2663 
Q 1497 2656 1531 2656 
Q 1891 2656 2178 2843 
Q 2466 3031 2466 3422 
Q 2466 3731 2256 3934 
Q 2047 4138 1716 4138 
Q 1388 4138 1169 3931 
Q 950 3725 888 3313 
L 325 3413 
Q 428 3978 793 4289 
Q 1159 4600 1703 4600 
Q 2078 4600 2393 4439 
Q 2709 4278 2876 4000 
Q 3044 3722 3044 3409 
Q 3044 3113 2884 2869 
Q 2725 2625 2413 2481 
Q 2819 2388 3044 2092 
Q 3269 1797 3269 1353 
Q 3269 753 2831 336 
Q 2394 -81 1725 -81 
Q 1122 -81 723 278 
Q 325 638 269 1209 
z
" id="ArialMT-33" transform="scale(0.015625)"/>
       </defs>
       <use xlink:href="#ArialMT-33"/>
       <use x="55.615234" xlink:href="#ArialMT-30"/>
      </g>
     </g>
    </g>
    <g id="xtick_17">
     <g id="line2d_14">
      <g>
       <use style="stroke:#000000;" x="102.328442" xlink:href="#m7e8b27513d" y="240.94725"/>
      </g>
     </g>
     <g id="text_8">
      <!-- 45 -->
      <g transform="translate(99.550905 266.309162)rotate(-45)scale(0.132 -0.132)">
       <defs>
        <path d="M 2069 0 
L 2069 1097 
L 81 1097 
L 81 1613 
L 2172 4581 
L 2631 4581 
L 2631 1613 
L 3250 1613 
L 3250 1097 
L 2631 1097 
L 2631 0 
L 2069 0 
z
M 2069 1613 
L 2069 3678 
L 634 1613 
L 2069 1613 
z
" id="ArialMT-34" transform="scale(0.015625)"/>
       </defs>
       <use xlink:href="#ArialMT-34"/>
       <use x="55.615234" xlink:href="#ArialMT-35"/>
      </g>
     </g>
    </g>
    <g id="xtick_18">
     <g id="line2d_15">
      <g>
       <use style="stroke:#000000;" x="133.072244" xlink:href="#m7e8b27513d" y="240.94725"/>
      </g>
     </g>
     <g id="text_9">
      <!-- 75 -->
      <g transform="translate(130.294706 266.309162)rotate(-45)scale(0.132 -0.132)">
       <defs>
        <path d="M 303 3981 
L 303 4522 
L 3269 4522 
L 3269 4084 
Q 2831 3619 2401 2847 
Q 1972 2075 1738 1259 
Q 1569 684 1522 0 
L 944 0 
Q 953 541 1156 1306 
Q 1359 2072 1739 2783 
Q 2119 3494 2547 3981 
L 303 3981 
z
" id="ArialMT-37" transform="scale(0.015625)"/>
       </defs>
       <use xlink:href="#ArialMT-37"/>
       <use x="55.615234" xlink:href="#ArialMT-35"/>
      </g>
     </g>
    </g>
    <g id="xtick_19">
     <g id="line2d_16">
      <g>
       <use style="stroke:#000000;" x="163.816045" xlink:href="#m7e8b27513d" y="240.94725"/>
      </g>
     </g>
     <g id="text_10">
      <!-- 120 -->
      <g transform="translate(158.443271 271.499635)rotate(-45)scale(0.132 -0.132)">
       <defs>
        <path d="M 3222 541 
L 3222 0 
L 194 0 
Q 188 203 259 391 
Q 375 700 629 1000 
Q 884 1300 1366 1694 
Q 2113 2306 2375 2664 
Q 2638 3022 2638 3341 
Q 2638 3675 2398 3904 
Q 2159 4134 1775 4134 
Q 1369 4134 1125 3890 
Q 881 3647 878 3216 
L 300 3275 
Q 359 3922 746 4261 
Q 1134 4600 1788 4600 
Q 2447 4600 2831 4234 
Q 3216 3869 3216 3328 
Q 3216 3053 3103 2787 
Q 2991 2522 2730 2228 
Q 2469 1934 1863 1422 
Q 1356 997 1212 845 
Q 1069 694 975 541 
L 3222 541 
z
" id="ArialMT-32" transform="scale(0.015625)"/>
       </defs>
       <use xlink:href="#ArialMT-31"/>
       <use x="55.615234" xlink:href="#ArialMT-32"/>
       <use x="111.230469" xlink:href="#ArialMT-30"/>
      </g>
     </g>
    </g>
    <g id="xtick_20">
     <g id="line2d_17">
      <g>
       <use style="stroke:#000000;" x="194.559847" xlink:href="#m7e8b27513d" y="240.94725"/>
      </g>
     </g>
     <g id="text_11">
      <!-- 180 -->
      <g transform="translate(189.187073 271.499635)rotate(-45)scale(0.132 -0.132)">
       <defs>
        <path d="M 1131 2484 
Q 781 2613 612 2850 
Q 444 3088 444 3419 
Q 444 3919 803 4259 
Q 1163 4600 1759 4600 
Q 2359 4600 2725 4251 
Q 3091 3903 3091 3403 
Q 3091 3084 2923 2848 
Q 2756 2613 2416 2484 
Q 2838 2347 3058 2040 
Q 3278 1734 3278 1309 
Q 3278 722 2862 322 
Q 2447 -78 1769 -78 
Q 1091 -78 675 323 
Q 259 725 259 1325 
Q 259 1772 486 2073 
Q 713 2375 1131 2484 
z
M 1019 3438 
Q 1019 3113 1228 2906 
Q 1438 2700 1772 2700 
Q 2097 2700 2305 2904 
Q 2513 3109 2513 3406 
Q 2513 3716 2298 3927 
Q 2084 4138 1766 4138 
Q 1444 4138 1231 3931 
Q 1019 3725 1019 3438 
z
M 838 1322 
Q 838 1081 952 856 
Q 1066 631 1291 507 
Q 1516 384 1775 384 
Q 2178 384 2440 643 
Q 2703 903 2703 1303 
Q 2703 1709 2433 1975 
Q 2163 2241 1756 2241 
Q 1359 2241 1098 1978 
Q 838 1716 838 1322 
z
" id="ArialMT-38" transform="scale(0.015625)"/>
       </defs>
       <use xlink:href="#ArialMT-31"/>
       <use x="55.615234" xlink:href="#ArialMT-38"/>
       <use x="111.230469" xlink:href="#ArialMT-30"/>
      </g>
     </g>
    </g>
    <g id="xtick_21">
     <g id="line2d_18">
      <g>
       <use style="stroke:#000000;" x="225.303649" xlink:href="#m7e8b27513d" y="240.94725"/>
      </g>
     </g>
     <g id="text_12">
      <!-- 480 -->
      <g transform="translate(219.930875 271.499635)rotate(-45)scale(0.132 -0.132)">
       <use xlink:href="#ArialMT-34"/>
       <use x="55.615234" xlink:href="#ArialMT-38"/>
       <use x="111.230469" xlink:href="#ArialMT-30"/>
      </g>
     </g>
    </g>
    <g id="xtick_22">
     <g id="line2d_19">
      <g>
       <use style="stroke:#000000;" x="256.04745" xlink:href="#m7e8b27513d" y="240.94725"/>
      </g>
     </g>
     <g id="text_13">
      <!-- 600 -->
      <g transform="translate(250.674676 271.499635)rotate(-45)scale(0.132 -0.132)">
       <defs>
        <path d="M 3184 3459 
L 2625 3416 
Q 2550 3747 2413 3897 
Q 2184 4138 1850 4138 
Q 1581 4138 1378 3988 
Q 1113 3794 959 3422 
Q 806 3050 800 2363 
Q 1003 2672 1297 2822 
Q 1591 2972 1913 2972 
Q 2475 2972 2870 2558 
Q 3266 2144 3266 1488 
Q 3266 1056 3080 686 
Q 2894 316 2569 119 
Q 2244 -78 1831 -78 
Q 1128 -78 684 439 
Q 241 956 241 2144 
Q 241 3472 731 4075 
Q 1159 4600 1884 4600 
Q 2425 4600 2770 4297 
Q 3116 3994 3184 3459 
z
M 888 1484 
Q 888 1194 1011 928 
Q 1134 663 1356 523 
Q 1578 384 1822 384 
Q 2178 384 2434 671 
Q 2691 959 2691 1453 
Q 2691 1928 2437 2201 
Q 2184 2475 1800 2475 
Q 1419 2475 1153 2201 
Q 888 1928 888 1484 
z
" id="ArialMT-36" transform="scale(0.015625)"/>
       </defs>
       <use xlink:href="#ArialMT-36"/>
       <use x="55.615234" xlink:href="#ArialMT-30"/>
       <use x="111.230469" xlink:href="#ArialMT-30"/>
      </g>
     </g>
    </g>
   </g>
   <g id="matplotlib.axis_6">
    <g id="ytick_5">
     <g id="line2d_20">
      <g>
       <use style="stroke:#000000;" x="62.3615" xlink:href="#mc79633dabf" y="240.94725"/>
      </g>
     </g>
     <g id="text_14">
      <!-- 0.0 -->
      <g transform="translate(35.7135 245.671406)scale(0.132 -0.132)">
       <defs>
        <path d="M 581 0 
L 581 641 
L 1222 641 
L 1222 0 
L 581 0 
z
" id="ArialMT-2e" transform="scale(0.015625)"/>
       </defs>
       <use xlink:href="#ArialMT-30"/>
       <use x="55.615234" xlink:href="#ArialMT-2e"/>
       <use x="83.398438" xlink:href="#ArialMT-30"/>
      </g>
     </g>
    </g>
    <g id="ytick_6">
     <g id="line2d_21">
      <g>
       <use style="stroke:#000000;" x="62.3615" xlink:href="#mc79633dabf" y="210.361061"/>
      </g>
     </g>
     <g id="text_15">
      <!-- 2.5 -->
      <g transform="translate(35.7135 215.085217)scale(0.132 -0.132)">
       <use xlink:href="#ArialMT-32"/>
       <use x="55.615234" xlink:href="#ArialMT-2e"/>
       <use x="83.398438" xlink:href="#ArialMT-35"/>
      </g>
     </g>
    </g>
    <g id="ytick_7">
     <g id="line2d_22">
      <g>
       <use style="stroke:#000000;" x="62.3615" xlink:href="#mc79633dabf" y="179.774871"/>
      </g>
     </g>
     <g id="text_16">
      <!-- 5.0 -->
      <g transform="translate(35.7135 184.499028)scale(0.132 -0.132)">
       <use xlink:href="#ArialMT-35"/>
       <use x="55.615234" xlink:href="#ArialMT-2e"/>
       <use x="83.398438" xlink:href="#ArialMT-30"/>
      </g>
     </g>
    </g>
    <g id="ytick_8">
     <g id="line2d_23">
      <g>
       <use style="stroke:#000000;" x="62.3615" xlink:href="#mc79633dabf" y="149.188682"/>
      </g>
     </g>
     <g id="text_17">
      <!-- 7.5 -->
      <g transform="translate(35.7135 153.912838)scale(0.132 -0.132)">
       <use xlink:href="#ArialMT-37"/>
       <use x="55.615234" xlink:href="#ArialMT-2e"/>
       <use x="83.398438" xlink:href="#ArialMT-35"/>
      </g>
     </g>
    </g>
    <g id="ytick_9">
     <g id="line2d_24">
      <g>
       <use style="stroke:#000000;" x="62.3615" xlink:href="#mc79633dabf" y="118.602493"/>
      </g>
     </g>
     <g id="text_18">
      <!-- 10.0 -->
      <g transform="translate(28.373063 123.326649)scale(0.132 -0.132)">
       <use xlink:href="#ArialMT-31"/>
       <use x="55.615234" xlink:href="#ArialMT-30"/>
       <use x="111.230469" xlink:href="#ArialMT-2e"/>
       <use x="139.013672" xlink:href="#ArialMT-30"/>
      </g>
     </g>
    </g>
   </g>
   <g id="line2d_25">
    <path clip-path="url(#pad45e02454)" d="M 71.58464 225.158323 
L 102.328442 229.77037 
L 133.072244 231.202641 
L 163.816045 233.692101 
L 194.559847 234.326375 
L 225.303649 235.499364 
L 256.04745 235.473321 
" style="fill:none;stroke:#de8f05;stroke-dasharray:12,4.5;stroke-dashoffset:0;stroke-width:3;"/>
   </g>
   <g id="line2d_26">
    <path clip-path="url(#pad45e02454)" d="M 71.58464 154.205283 
L 102.328442 158.945971 
L 133.072244 160.355546 
L 163.816045 163.049145 
L 194.559847 163.594412 
L 225.303649 165.198777 
L 256.04745 164.920895 
" style="fill:none;stroke:#de8f05;stroke-dasharray:3,3;stroke-dashoffset:0;stroke-width:3;"/>
   </g>
   <g id="line2d_27">
    <path clip-path="url(#pad45e02454)" d="M 71.58464 207.853687 
L 102.328442 212.189044 
L 133.072244 213.718268 
L 163.816045 216.469652 
L 194.559847 217.119718 
L 225.303649 218.93949 
L 256.04745 218.689556 
" style="fill:none;stroke:#de8f05;stroke-dasharray:9,3.75,4.5,3.75;stroke-dashoffset:0;stroke-width:3;"/>
   </g>
   <g id="line2d_28">
    <path clip-path="url(#pad45e02454)" d="M 71.58464 181.657437 
L 102.328442 191.050322 
L 133.072244 201.699292 
L 163.816045 213.669128 
L 194.559847 217.001884 
L 225.303649 227.236404 
L 256.04745 227.627654 
" style="fill:none;stroke:#0173b2;stroke-linecap:square;stroke-width:3;"/>
   </g>
   <g id="patch_7">
    <path d="M 62.3615 240.94725 
L 62.3615 100.250779 
" style="fill:none;stroke:#000000;stroke-linecap:square;stroke-linejoin:miter;"/>
   </g>
   <g id="patch_8">
    <path d="M 62.3615 240.94725 
L 265.270591 240.94725 
" style="fill:none;stroke:#000000;stroke-linecap:square;stroke-linejoin:miter;"/>
   </g>
  </g>
  <g id="axes_4">
   <g id="patch_9">
    <path d="M 305.852409 240.94725 
L 508.7615 240.94725 
L 508.7615 100.250779 
L 305.852409 100.250779 
z
" style="fill:#ffffff;"/>
   </g>
   <g id="PolyCollection_13">
    <defs>
     <path d="M 315.07555 -324.204925 
L 315.07555 -273.155213 
L 341.42738 -267.826502 
L 367.77921 -262.662735 
L 394.13104 -259.862418 
L 420.48287 -260.38886 
L 446.8347 -254.551259 
L 473.18653 -253.8292 
L 499.53836 -252.672877 
L 499.53836 -299.534767 
L 499.53836 -299.534767 
L 473.18653 -297.615186 
L 446.8347 -303.247209 
L 420.48287 -321.654299 
L 394.13104 -305.20492 
L 367.77921 -314.129917 
L 341.42738 -319.405626 
L 315.07555 -324.204925 
z
" id="me870265d35" style="stroke:#de8f05;stroke-opacity:0.2;stroke-width:0.8;"/>
    </defs>
    <g clip-path="url(#p9ea342a937)">
     <use style="fill:#de8f05;fill-opacity:0.2;stroke:#de8f05;stroke-opacity:0.2;stroke-width:0.8;" x="0" xlink:href="#me870265d35" y="463.215188"/>
    </g>
   </g>
   <g id="PolyCollection_14">
    <path clip-path="url(#p9ea342a937)" d="M 315.07555 -1009.161741 
L 315.07555 28.650296 
L 341.42738 30.347558 
L 367.77921 36.461234 
L 394.13104 42.714942 
L 420.48287 30.86322 
L 446.8347 42.697645 
L 473.18653 51.650076 
L 499.53836 50.13397 
L 499.53836 -990.339234 
L 499.53836 -990.339234 
L 473.18653 -972.211385 
L 446.8347 -983.896012 
L 420.48287 -993.708714 
L 394.13104 -988.352946 
L 367.77921 -1002.770958 
L 341.42738 -1010.822273 
L 315.07555 -1009.161741 
z
" style="fill:#de8f05;fill-opacity:0.2;stroke:#de8f05;stroke-opacity:0.2;stroke-width:0.8;"/>
   </g>
   <g id="PolyCollection_15">
    <path clip-path="url(#p9ea342a937)" d="M 315.07555 -379.81195 
L 315.07555 74.307263 
L 341.42738 78.458295 
L 367.77921 82.48641 
L 394.13104 87.789696 
L 420.48287 75.37129 
L 446.8347 88.603294 
L 473.18653 97.315747 
L 499.53836 94.929175 
L 499.53836 -509.398294 
L 499.53836 -509.398294 
L 473.18653 -492.767954 
L 446.8347 -503.898769 
L 420.48287 -510.814727 
L 394.13104 -510.735072 
L 367.77921 -523.833033 
L 341.42738 -527.715875 
L 315.07555 -379.81195 
z
" style="fill:#de8f05;fill-opacity:0.2;stroke:#de8f05;stroke-opacity:0.2;stroke-width:0.8;"/>
   </g>
   <g id="PolyCollection_16">
    <defs>
     <path d="M 315.07555 -361.805967 
L 315.07555 -295.962589 
L 341.42738 -286.558985 
L 367.77921 -284.859601 
L 394.13104 -281.428859 
L 420.48287 -272.45943 
L 446.8347 -277.579965 
L 473.18653 -273.277996 
L 499.53836 -268.588566 
L 499.53836 -299.134548 
L 499.53836 -299.134548 
L 473.18653 -303.917747 
L 446.8347 -308.05287 
L 420.48287 -311.3455 
L 394.13104 -334.943583 
L 367.77921 -324.278943 
L 341.42738 -338.451394 
L 315.07555 -361.805967 
z
" id="mcab9f54a41" style="stroke:#0173b2;stroke-opacity:0.2;stroke-width:0.8;"/>
    </defs>
    <g clip-path="url(#p9ea342a937)">
     <use style="fill:#0173b2;fill-opacity:0.2;stroke:#0173b2;stroke-opacity:0.2;stroke-width:0.8;" x="0" xlink:href="#mcab9f54a41" y="463.215188"/>
    </g>
   </g>
   <g id="matplotlib.axis_7">
    <g id="xtick_23">
     <g id="line2d_29">
      <g>
       <use style="stroke:#000000;" x="315.07555" xlink:href="#m7e8b27513d" y="240.94725"/>
      </g>
     </g>
     <g id="text_19">
      <!-- 240 -->
      <g transform="translate(309.702775 271.499635)rotate(-45)scale(0.132 -0.132)">
       <use xlink:href="#ArialMT-32"/>
       <use x="55.615234" xlink:href="#ArialMT-34"/>
       <use x="111.230469" xlink:href="#ArialMT-30"/>
      </g>
     </g>
    </g>
    <g id="xtick_24">
     <g id="line2d_30">
      <g>
       <use style="stroke:#000000;" x="341.42738" xlink:href="#m7e8b27513d" y="240.94725"/>
      </g>
     </g>
     <g id="text_20">
      <!-- 300 -->
      <g transform="translate(336.054605 271.499635)rotate(-45)scale(0.132 -0.132)">
       <use xlink:href="#ArialMT-33"/>
       <use x="55.615234" xlink:href="#ArialMT-30"/>
       <use x="111.230469" xlink:href="#ArialMT-30"/>
      </g>
     </g>
    </g>
    <g id="xtick_25">
     <g id="line2d_31">
      <g>
       <use style="stroke:#000000;" x="367.77921" xlink:href="#m7e8b27513d" y="240.94725"/>
      </g>
     </g>
     <g id="text_21">
      <!-- 360 -->
      <g transform="translate(362.406435 271.499635)rotate(-45)scale(0.132 -0.132)">
       <use xlink:href="#ArialMT-33"/>
       <use x="55.615234" xlink:href="#ArialMT-36"/>
       <use x="111.230469" xlink:href="#ArialMT-30"/>
      </g>
     </g>
    </g>
    <g id="xtick_26">
     <g id="line2d_32">
      <g>
       <use style="stroke:#000000;" x="394.13104" xlink:href="#m7e8b27513d" y="240.94725"/>
      </g>
     </g>
     <g id="text_22">
      <!-- 420 -->
      <g transform="translate(388.758265 271.499635)rotate(-45)scale(0.132 -0.132)">
       <use xlink:href="#ArialMT-34"/>
       <use x="55.615234" xlink:href="#ArialMT-32"/>
       <use x="111.230469" xlink:href="#ArialMT-30"/>
      </g>
     </g>
    </g>
    <g id="xtick_27">
     <g id="line2d_33">
      <g>
       <use style="stroke:#000000;" x="420.48287" xlink:href="#m7e8b27513d" y="240.94725"/>
      </g>
     </g>
     <g id="text_23">
      <!-- 480 -->
      <g transform="translate(415.110095 271.499635)rotate(-45)scale(0.132 -0.132)">
       <use xlink:href="#ArialMT-34"/>
       <use x="55.615234" xlink:href="#ArialMT-38"/>
       <use x="111.230469" xlink:href="#ArialMT-30"/>
      </g>
     </g>
    </g>
    <g id="xtick_28">
     <g id="line2d_34">
      <g>
       <use style="stroke:#000000;" x="446.8347" xlink:href="#m7e8b27513d" y="240.94725"/>
      </g>
     </g>
     <g id="text_24">
      <!-- 540 -->
      <g transform="translate(441.461925 271.499635)rotate(-45)scale(0.132 -0.132)">
       <use xlink:href="#ArialMT-35"/>
       <use x="55.615234" xlink:href="#ArialMT-34"/>
       <use x="111.230469" xlink:href="#ArialMT-30"/>
      </g>
     </g>
    </g>
    <g id="xtick_29">
     <g id="line2d_35">
      <g>
       <use style="stroke:#000000;" x="473.18653" xlink:href="#m7e8b27513d" y="240.94725"/>
      </g>
     </g>
     <g id="text_25">
      <!-- 600 -->
      <g transform="translate(467.813755 271.499635)rotate(-45)scale(0.132 -0.132)">
       <use xlink:href="#ArialMT-36"/>
       <use x="55.615234" xlink:href="#ArialMT-30"/>
       <use x="111.230469" xlink:href="#ArialMT-30"/>
      </g>
     </g>
    </g>
    <g id="xtick_30">
     <g id="line2d_36">
      <g>
       <use style="stroke:#000000;" x="499.53836" xlink:href="#m7e8b27513d" y="240.94725"/>
      </g>
     </g>
     <g id="text_26">
      <!-- 660 -->
      <g transform="translate(494.165585 271.499635)rotate(-45)scale(0.132 -0.132)">
       <use xlink:href="#ArialMT-36"/>
       <use x="55.615234" xlink:href="#ArialMT-36"/>
       <use x="111.230469" xlink:href="#ArialMT-30"/>
      </g>
     </g>
    </g>
   </g>
   <g id="matplotlib.axis_8">
    <g id="ytick_10">
     <g id="line2d_37">
      <g>
       <use style="stroke:#000000;" x="305.852409" xlink:href="#mc79633dabf" y="240.94725"/>
      </g>
     </g>
     <g id="text_27">
      <!-- 0.0 -->
      <g transform="translate(279.204409 245.671406)scale(0.132 -0.132)">
       <use xlink:href="#ArialMT-30"/>
       <use x="55.615234" xlink:href="#ArialMT-2e"/>
       <use x="83.398438" xlink:href="#ArialMT-30"/>
      </g>
     </g>
    </g>
    <g id="ytick_11">
     <g id="line2d_38">
      <g>
       <use style="stroke:#000000;" x="305.852409" xlink:href="#mc79633dabf" y="210.361061"/>
      </g>
     </g>
     <g id="text_28">
      <!-- 2.5 -->
      <g transform="translate(279.204409 215.085217)scale(0.132 -0.132)">
       <use xlink:href="#ArialMT-32"/>
       <use x="55.615234" xlink:href="#ArialMT-2e"/>
       <use x="83.398438" xlink:href="#ArialMT-35"/>
      </g>
     </g>
    </g>
    <g id="ytick_12">
     <g id="line2d_39">
      <g>
       <use style="stroke:#000000;" x="305.852409" xlink:href="#mc79633dabf" y="179.774871"/>
      </g>
     </g>
     <g id="text_29">
      <!-- 5.0 -->
      <g transform="translate(279.204409 184.499028)scale(0.132 -0.132)">
       <use xlink:href="#ArialMT-35"/>
       <use x="55.615234" xlink:href="#ArialMT-2e"/>
       <use x="83.398438" xlink:href="#ArialMT-30"/>
      </g>
     </g>
    </g>
    <g id="ytick_13">
     <g id="line2d_40">
      <g>
       <use style="stroke:#000000;" x="305.852409" xlink:href="#mc79633dabf" y="149.188682"/>
      </g>
     </g>
     <g id="text_30">
      <!-- 7.5 -->
      <g transform="translate(279.204409 153.912838)scale(0.132 -0.132)">
       <use xlink:href="#ArialMT-37"/>
       <use x="55.615234" xlink:href="#ArialMT-2e"/>
       <use x="83.398438" xlink:href="#ArialMT-35"/>
      </g>
     </g>
    </g>
    <g id="ytick_14">
     <g id="line2d_41">
      <g>
       <use style="stroke:#000000;" x="305.852409" xlink:href="#mc79633dabf" y="118.602493"/>
      </g>
     </g>
     <g id="text_31">
      <!-- 10.0 -->
      <g transform="translate(271.863972 123.326649)scale(0.132 -0.132)">
       <use xlink:href="#ArialMT-31"/>
       <use x="55.615234" xlink:href="#ArialMT-30"/>
       <use x="111.230469" xlink:href="#ArialMT-2e"/>
       <use x="139.013672" xlink:href="#ArialMT-30"/>
      </g>
     </g>
    </g>
   </g>
   <g id="line2d_42">
    <path clip-path="url(#p9ea342a937)" d="M 315.07555 164.971027 
L 341.42738 169.464729 
L 367.77921 176.914985 
L 394.13104 178.504612 
L 420.48287 178.584471 
L 446.8347 187.201445 
L 473.18653 188.761798 
L 499.53836 190.300664 
" style="fill:none;stroke:#de8f05;stroke-dasharray:12,4.5;stroke-dashoffset:0;stroke-width:3;"/>
   </g>
   <g id="line2d_43">
    <path clip-path="url(#p9ea342a937)" style="fill:none;stroke:#de8f05;stroke-dasharray:3,3;stroke-dashoffset:0;stroke-width:3;"/>
   </g>
   <g id="line2d_44">
    <path clip-path="url(#p9ea342a937)" style="fill:none;stroke:#de8f05;stroke-dasharray:9,3.75,4.5,3.75;stroke-dashoffset:0;stroke-width:3;"/>
   </g>
   <g id="line2d_45">
    <path clip-path="url(#p9ea342a937)" d="M 315.07555 141.844012 
L 341.42738 154.9688 
L 367.77921 159.746707 
L 394.13104 156.353172 
L 420.48287 166.35013 
L 446.8347 169.332561 
L 473.18653 174.41691 
L 499.53836 177.648912 
" style="fill:none;stroke:#0173b2;stroke-linecap:square;stroke-width:3;"/>
   </g>
   <g id="line2d_46"/>
   <g id="line2d_47"/>
   <g id="line2d_48"/>
   <g id="line2d_49"/>
   <g id="line2d_50"/>
   <g id="line2d_51"/>
   <g id="patch_10">
    <path d="M 305.852409 240.94725 
L 305.852409 100.250779 
" style="fill:none;stroke:#000000;stroke-linecap:square;stroke-linejoin:miter;"/>
   </g>
   <g id="patch_11">
    <path d="M 305.852409 240.94725 
L 508.7615 240.94725 
" style="fill:none;stroke:#000000;stroke-linecap:square;stroke-linejoin:miter;"/>
   </g>
  </g>
  <g id="axes_5">
   <g id="matplotlib.axis_9">
    <g id="xtick_31">
     <g id="text_32">
      <!-- 0.0 -->
      <g style="opacity:0;" transform="translate(53.1875 258.695563)scale(0.132 -0.132)">
       <use xlink:href="#ArialMT-30"/>
       <use x="55.615234" xlink:href="#ArialMT-2e"/>
       <use x="83.398438" xlink:href="#ArialMT-30"/>
      </g>
     </g>
    </g>
    <g id="xtick_32">
     <g id="text_33">
      <!-- 0.2 -->
      <g style="opacity:0;" transform="translate(142.4675 258.695563)scale(0.132 -0.132)">
       <use xlink:href="#ArialMT-30"/>
       <use x="55.615234" xlink:href="#ArialMT-2e"/>
       <use x="83.398438" xlink:href="#ArialMT-32"/>
      </g>
     </g>
    </g>
    <g id="xtick_33">
     <g id="text_34">
      <!-- 0.4 -->
      <g style="opacity:0;" transform="translate(231.7475 258.695563)scale(0.132 -0.132)">
       <use xlink:href="#ArialMT-30"/>
       <use x="55.615234" xlink:href="#ArialMT-2e"/>
       <use x="83.398438" xlink:href="#ArialMT-34"/>
      </g>
     </g>
    </g>
    <g id="xtick_34">
     <g id="text_35">
      <!-- 0.6 -->
      <g style="opacity:0;" transform="translate(321.0275 258.695563)scale(0.132 -0.132)">
       <use xlink:href="#ArialMT-30"/>
       <use x="55.615234" xlink:href="#ArialMT-2e"/>
       <use x="83.398438" xlink:href="#ArialMT-36"/>
      </g>
     </g>
    </g>
    <g id="xtick_35">
     <g id="text_36">
      <!-- 0.8 -->
      <g style="opacity:0;" transform="translate(410.3075 258.695563)scale(0.132 -0.132)">
       <use xlink:href="#ArialMT-30"/>
       <use x="55.615234" xlink:href="#ArialMT-2e"/>
       <use x="83.398438" xlink:href="#ArialMT-38"/>
      </g>
     </g>
    </g>
    <g id="xtick_36">
     <g id="text_37">
      <!-- 1.0 -->
      <g style="opacity:0;" transform="translate(499.5875 258.695563)scale(0.132 -0.132)">
       <use xlink:href="#ArialMT-31"/>
       <use x="55.615234" xlink:href="#ArialMT-2e"/>
       <use x="83.398438" xlink:href="#ArialMT-30"/>
      </g>
     </g>
    </g>
    <g id="text_38">
     <!-- Training set duration (s) -->
     <g transform="translate(209.805125 291.801813)scale(0.144 -0.144)">
      <defs>
       <path d="M 1659 0 
L 1659 4041 
L 150 4041 
L 150 4581 
L 3781 4581 
L 3781 4041 
L 2266 4041 
L 2266 0 
L 1659 0 
z
" id="ArialMT-54" transform="scale(0.015625)"/>
       <path d="M 1650 503 
L 1731 6 
Q 1494 -44 1306 -44 
Q 1000 -44 831 53 
Q 663 150 594 308 
Q 525 466 525 972 
L 525 2881 
L 113 2881 
L 113 3319 
L 525 3319 
L 525 4141 
L 1084 4478 
L 1084 3319 
L 1650 3319 
L 1650 2881 
L 1084 2881 
L 1084 941 
Q 1084 700 1114 631 
Q 1144 563 1211 522 
Q 1278 481 1403 481 
Q 1497 481 1650 503 
z
" id="ArialMT-74" transform="scale(0.015625)"/>
       <path d="M 2575 0 
L 2575 419 
Q 2259 -75 1647 -75 
Q 1250 -75 917 144 
Q 584 363 401 755 
Q 219 1147 219 1656 
Q 219 2153 384 2558 
Q 550 2963 881 3178 
Q 1213 3394 1622 3394 
Q 1922 3394 2156 3267 
Q 2391 3141 2538 2938 
L 2538 4581 
L 3097 4581 
L 3097 0 
L 2575 0 
z
M 797 1656 
Q 797 1019 1065 703 
Q 1334 388 1700 388 
Q 2069 388 2326 689 
Q 2584 991 2584 1609 
Q 2584 2291 2321 2609 
Q 2059 2928 1675 2928 
Q 1300 2928 1048 2622 
Q 797 2316 797 1656 
z
" id="ArialMT-64" transform="scale(0.015625)"/>
       <path d="M 2597 0 
L 2597 488 
Q 2209 -75 1544 -75 
Q 1250 -75 995 37 
Q 741 150 617 320 
Q 494 491 444 738 
Q 409 903 409 1263 
L 409 3319 
L 972 3319 
L 972 1478 
Q 972 1038 1006 884 
Q 1059 663 1231 536 
Q 1403 409 1656 409 
Q 1909 409 2131 539 
Q 2353 669 2445 892 
Q 2538 1116 2538 1541 
L 2538 3319 
L 3100 3319 
L 3100 0 
L 2597 0 
z
" id="ArialMT-75" transform="scale(0.015625)"/>
       <path d="M 213 1659 
Q 213 2581 725 3025 
Q 1153 3394 1769 3394 
Q 2453 3394 2887 2945 
Q 3322 2497 3322 1706 
Q 3322 1066 3130 698 
Q 2938 331 2570 128 
Q 2203 -75 1769 -75 
Q 1072 -75 642 372 
Q 213 819 213 1659 
z
M 791 1659 
Q 791 1022 1069 705 
Q 1347 388 1769 388 
Q 2188 388 2466 706 
Q 2744 1025 2744 1678 
Q 2744 2294 2464 2611 
Q 2184 2928 1769 2928 
Q 1347 2928 1069 2612 
Q 791 2297 791 1659 
z
" id="ArialMT-6f" transform="scale(0.015625)"/>
       <path d="M 1497 -1347 
Q 1031 -759 709 28 
Q 388 816 388 1659 
Q 388 2403 628 3084 
Q 909 3875 1497 4659 
L 1900 4659 
Q 1522 4009 1400 3731 
Q 1209 3300 1100 2831 
Q 966 2247 966 1656 
Q 966 153 1900 -1347 
L 1497 -1347 
z
" id="ArialMT-28" transform="scale(0.015625)"/>
       <path d="M 791 -1347 
L 388 -1347 
Q 1322 153 1322 1656 
Q 1322 2244 1188 2822 
Q 1081 3291 891 3722 
Q 769 4003 388 4659 
L 791 4659 
Q 1378 3875 1659 3084 
Q 1900 2403 1900 1659 
Q 1900 816 1576 28 
Q 1253 -759 791 -1347 
z
" id="ArialMT-29" transform="scale(0.015625)"/>
      </defs>
      <use xlink:href="#ArialMT-54"/>
      <use x="57.333984" xlink:href="#ArialMT-72"/>
      <use x="90.634766" xlink:href="#ArialMT-61"/>
      <use x="146.25" xlink:href="#ArialMT-69"/>
      <use x="168.466797" xlink:href="#ArialMT-6e"/>
      <use x="224.082031" xlink:href="#ArialMT-69"/>
      <use x="246.298828" xlink:href="#ArialMT-6e"/>
      <use x="301.914062" xlink:href="#ArialMT-67"/>
      <use x="357.529297" xlink:href="#ArialMT-20"/>
      <use x="385.3125" xlink:href="#ArialMT-73"/>
      <use x="435.3125" xlink:href="#ArialMT-65"/>
      <use x="490.927734" xlink:href="#ArialMT-74"/>
      <use x="518.710938" xlink:href="#ArialMT-20"/>
      <use x="546.494141" xlink:href="#ArialMT-64"/>
      <use x="602.109375" xlink:href="#ArialMT-75"/>
      <use x="657.724609" xlink:href="#ArialMT-72"/>
      <use x="691.025391" xlink:href="#ArialMT-61"/>
      <use x="746.640625" xlink:href="#ArialMT-74"/>
      <use x="774.423828" xlink:href="#ArialMT-69"/>
      <use x="796.640625" xlink:href="#ArialMT-6f"/>
      <use x="852.255859" xlink:href="#ArialMT-6e"/>
      <use x="907.871094" xlink:href="#ArialMT-20"/>
      <use x="935.654297" xlink:href="#ArialMT-28"/>
      <use x="968.955078" xlink:href="#ArialMT-73"/>
      <use x="1018.955078" xlink:href="#ArialMT-29"/>
     </g>
    </g>
   </g>
   <g id="matplotlib.axis_10">
    <g id="ytick_15">
     <g id="text_39">
      <!-- 0.0 -->
      <g style="opacity:0;" transform="translate(35.7135 245.671406)scale(0.132 -0.132)">
       <use xlink:href="#ArialMT-30"/>
       <use x="55.615234" xlink:href="#ArialMT-2e"/>
       <use x="83.398438" xlink:href="#ArialMT-30"/>
      </g>
     </g>
    </g>
    <g id="ytick_16">
     <g id="text_40">
      <!-- 0.2 -->
      <g style="opacity:0;" transform="translate(35.7135 202.183406)scale(0.132 -0.132)">
       <use xlink:href="#ArialMT-30"/>
       <use x="55.615234" xlink:href="#ArialMT-2e"/>
       <use x="83.398438" xlink:href="#ArialMT-32"/>
      </g>
     </g>
    </g>
    <g id="ytick_17">
     <g id="text_41">
      <!-- 0.4 -->
      <g style="opacity:0;" transform="translate(35.7135 158.695406)scale(0.132 -0.132)">
       <use xlink:href="#ArialMT-30"/>
       <use x="55.615234" xlink:href="#ArialMT-2e"/>
       <use x="83.398438" xlink:href="#ArialMT-34"/>
      </g>
     </g>
    </g>
    <g id="ytick_18">
     <g id="text_42">
      <!-- 0.6 -->
      <g style="opacity:0;" transform="translate(35.7135 115.207406)scale(0.132 -0.132)">
       <use xlink:href="#ArialMT-30"/>
       <use x="55.615234" xlink:href="#ArialMT-2e"/>
       <use x="83.398438" xlink:href="#ArialMT-36"/>
      </g>
     </g>
    </g>
    <g id="ytick_19">
     <g id="text_43">
      <!-- 0.8 -->
      <g style="opacity:0;" transform="translate(35.7135 71.719406)scale(0.132 -0.132)">
       <use xlink:href="#ArialMT-30"/>
       <use x="55.615234" xlink:href="#ArialMT-2e"/>
       <use x="83.398438" xlink:href="#ArialMT-38"/>
      </g>
     </g>
    </g>
    <g id="ytick_20">
     <g id="text_44">
      <!-- 1.0 -->
      <g style="opacity:0;" transform="translate(35.7135 28.231406)scale(0.132 -0.132)">
       <use xlink:href="#ArialMT-31"/>
       <use x="55.615234" xlink:href="#ArialMT-2e"/>
       <use x="83.398438" xlink:href="#ArialMT-30"/>
      </g>
     </g>
    </g>
    <g id="text_45">
     <!-- Syllable error rate (%) -->
     <g transform="translate(17.68275 202.243875)rotate(-90)scale(0.144 -0.144)">
      <defs>
       <path d="M 288 1472 
L 859 1522 
Q 900 1178 1048 958 
Q 1197 738 1509 602 
Q 1822 466 2213 466 
Q 2559 466 2825 569 
Q 3091 672 3220 851 
Q 3350 1031 3350 1244 
Q 3350 1459 3225 1620 
Q 3100 1781 2813 1891 
Q 2628 1963 1997 2114 
Q 1366 2266 1113 2400 
Q 784 2572 623 2826 
Q 463 3081 463 3397 
Q 463 3744 659 4045 
Q 856 4347 1234 4503 
Q 1613 4659 2075 4659 
Q 2584 4659 2973 4495 
Q 3363 4331 3572 4012 
Q 3781 3694 3797 3291 
L 3216 3247 
Q 3169 3681 2898 3903 
Q 2628 4125 2100 4125 
Q 1550 4125 1298 3923 
Q 1047 3722 1047 3438 
Q 1047 3191 1225 3031 
Q 1400 2872 2139 2705 
Q 2878 2538 3153 2413 
Q 3553 2228 3743 1945 
Q 3934 1663 3934 1294 
Q 3934 928 3725 604 
Q 3516 281 3123 101 
Q 2731 -78 2241 -78 
Q 1619 -78 1198 103 
Q 778 284 539 648 
Q 300 1013 288 1472 
z
" id="ArialMT-53" transform="scale(0.015625)"/>
       <path d="M 397 -1278 
L 334 -750 
Q 519 -800 656 -800 
Q 844 -800 956 -737 
Q 1069 -675 1141 -563 
Q 1194 -478 1313 -144 
Q 1328 -97 1363 -6 
L 103 3319 
L 709 3319 
L 1400 1397 
Q 1534 1031 1641 628 
Q 1738 1016 1872 1384 
L 2581 3319 
L 3144 3319 
L 1881 -56 
Q 1678 -603 1566 -809 
Q 1416 -1088 1222 -1217 
Q 1028 -1347 759 -1347 
Q 597 -1347 397 -1278 
z
" id="ArialMT-79" transform="scale(0.015625)"/>
       <path d="M 941 0 
L 419 0 
L 419 4581 
L 981 4581 
L 981 2947 
Q 1338 3394 1891 3394 
Q 2197 3394 2470 3270 
Q 2744 3147 2920 2923 
Q 3097 2700 3197 2384 
Q 3297 2069 3297 1709 
Q 3297 856 2875 390 
Q 2453 -75 1863 -75 
Q 1275 -75 941 416 
L 941 0 
z
M 934 1684 
Q 934 1088 1097 822 
Q 1363 388 1816 388 
Q 2184 388 2453 708 
Q 2722 1028 2722 1663 
Q 2722 2313 2464 2622 
Q 2206 2931 1841 2931 
Q 1472 2931 1203 2611 
Q 934 2291 934 1684 
z
" id="ArialMT-62" transform="scale(0.015625)"/>
       <path d="M 372 3481 
Q 372 3972 619 4315 
Q 866 4659 1334 4659 
Q 1766 4659 2048 4351 
Q 2331 4044 2331 3447 
Q 2331 2866 2045 2552 
Q 1759 2238 1341 2238 
Q 925 2238 648 2547 
Q 372 2856 372 3481 
z
M 1350 4272 
Q 1141 4272 1002 4090 
Q 863 3909 863 3425 
Q 863 2984 1003 2804 
Q 1144 2625 1350 2625 
Q 1563 2625 1702 2806 
Q 1841 2988 1841 3469 
Q 1841 3913 1700 4092 
Q 1559 4272 1350 4272 
z
M 1353 -169 
L 3859 4659 
L 4316 4659 
L 1819 -169 
L 1353 -169 
z
M 3334 1075 
Q 3334 1569 3581 1911 
Q 3828 2253 4300 2253 
Q 4731 2253 5014 1945 
Q 5297 1638 5297 1041 
Q 5297 459 5011 145 
Q 4725 -169 4303 -169 
Q 3888 -169 3611 142 
Q 3334 453 3334 1075 
z
M 4316 1866 
Q 4103 1866 3964 1684 
Q 3825 1503 3825 1019 
Q 3825 581 3965 400 
Q 4106 219 4313 219 
Q 4528 219 4667 400 
Q 4806 581 4806 1063 
Q 4806 1506 4665 1686 
Q 4525 1866 4316 1866 
z
" id="ArialMT-25" transform="scale(0.015625)"/>
      </defs>
      <use xlink:href="#ArialMT-53"/>
      <use x="66.699219" xlink:href="#ArialMT-79"/>
      <use x="116.699219" xlink:href="#ArialMT-6c"/>
      <use x="138.916016" xlink:href="#ArialMT-6c"/>
      <use x="161.132812" xlink:href="#ArialMT-61"/>
      <use x="216.748047" xlink:href="#ArialMT-62"/>
      <use x="272.363281" xlink:href="#ArialMT-6c"/>
      <use x="294.580078" xlink:href="#ArialMT-65"/>
      <use x="350.195312" xlink:href="#ArialMT-20"/>
      <use x="377.978516" xlink:href="#ArialMT-65"/>
      <use x="433.59375" xlink:href="#ArialMT-72"/>
      <use x="466.894531" xlink:href="#ArialMT-72"/>
      <use x="500.195312" xlink:href="#ArialMT-6f"/>
      <use x="555.810547" xlink:href="#ArialMT-72"/>
      <use x="589.111328" xlink:href="#ArialMT-20"/>
      <use x="616.894531" xlink:href="#ArialMT-72"/>
      <use x="650.195312" xlink:href="#ArialMT-61"/>
      <use x="705.810547" xlink:href="#ArialMT-74"/>
      <use x="733.59375" xlink:href="#ArialMT-65"/>
      <use x="789.208984" xlink:href="#ArialMT-20"/>
      <use x="816.992188" xlink:href="#ArialMT-28"/>
      <use x="850.292969" xlink:href="#ArialMT-25"/>
      <use x="939.208984" xlink:href="#ArialMT-29"/>
     </g>
    </g>
   </g>
   <g id="legend_1">
    <g id="patch_12">
     <path d="M 71.6015 456.015188 
L 369.91325 456.015188 
Q 372.55325 456.015188 372.55325 453.375188 
L 372.55325 304.54725 
Q 372.55325 301.90725 369.91325 301.90725 
L 71.6015 301.90725 
Q 68.9615 301.90725 68.9615 304.54725 
L 68.9615 453.375188 
Q 68.9615 456.015188 71.6015 456.015188 
z
" style="fill:#ffffff;opacity:0.8;stroke:#cccccc;stroke-linejoin:miter;stroke-width:0.8;"/>
    </g>
    <g id="text_46">
     <!-- Model -->
     <g transform="translate(111.2015 316.635563)scale(0.132 -0.132)">
      <defs>
       <path d="M 475 0 
L 475 4581 
L 1388 4581 
L 2472 1338 
Q 2622 884 2691 659 
Q 2769 909 2934 1394 
L 4031 4581 
L 4847 4581 
L 4847 0 
L 4263 0 
L 4263 3834 
L 2931 0 
L 2384 0 
L 1059 3900 
L 1059 0 
L 475 0 
z
" id="ArialMT-4d" transform="scale(0.015625)"/>
      </defs>
      <use xlink:href="#ArialMT-4d"/>
      <use x="83.300781" xlink:href="#ArialMT-6f"/>
      <use x="138.916016" xlink:href="#ArialMT-64"/>
      <use x="194.53125" xlink:href="#ArialMT-65"/>
      <use x="250.146484" xlink:href="#ArialMT-6c"/>
     </g>
    </g>
    <g id="line2d_52">
     <path d="M 74.2415 330.687375 
L 100.6415 330.687375 
" style="fill:none;stroke:#de8f05;stroke-linecap:square;stroke-width:3;"/>
    </g>
    <g id="line2d_53"/>
    <g id="text_47">
     <!-- SVM -->
     <g transform="translate(111.2015 335.307375)scale(0.132 -0.132)">
      <defs>
       <path d="M 1803 0 
L 28 4581 
L 684 4581 
L 1875 1253 
Q 2019 853 2116 503 
Q 2222 878 2363 1253 
L 3600 4581 
L 4219 4581 
L 2425 0 
L 1803 0 
z
" id="ArialMT-56" transform="scale(0.015625)"/>
      </defs>
      <use xlink:href="#ArialMT-53"/>
      <use x="66.699219" xlink:href="#ArialMT-56"/>
      <use x="133.398438" xlink:href="#ArialMT-4d"/>
     </g>
    </g>
    <g id="line2d_54">
     <path d="M 74.2415 349.359188 
L 100.6415 349.359188 
" style="fill:none;stroke:#0173b2;stroke-linecap:square;stroke-width:3;"/>
    </g>
    <g id="line2d_55"/>
    <g id="text_48">
     <!-- TweetyNet -->
     <g transform="translate(111.2015 353.979188)scale(0.132 -0.132)">
      <defs>
       <path d="M 1034 0 
L 19 3319 
L 600 3319 
L 1128 1403 
L 1325 691 
Q 1338 744 1497 1375 
L 2025 3319 
L 2603 3319 
L 3100 1394 
L 3266 759 
L 3456 1400 
L 4025 3319 
L 4572 3319 
L 3534 0 
L 2950 0 
L 2422 1988 
L 2294 2553 
L 1622 0 
L 1034 0 
z
" id="ArialMT-77" transform="scale(0.015625)"/>
       <path d="M 488 0 
L 488 4581 
L 1109 4581 
L 3516 984 
L 3516 4581 
L 4097 4581 
L 4097 0 
L 3475 0 
L 1069 3600 
L 1069 0 
L 488 0 
z
" id="ArialMT-4e" transform="scale(0.015625)"/>
      </defs>
      <use xlink:href="#ArialMT-54"/>
      <use x="55.583984" xlink:href="#ArialMT-77"/>
      <use x="127.800781" xlink:href="#ArialMT-65"/>
      <use x="183.416016" xlink:href="#ArialMT-65"/>
      <use x="239.03125" xlink:href="#ArialMT-74"/>
      <use x="266.814453" xlink:href="#ArialMT-79"/>
      <use x="316.814453" xlink:href="#ArialMT-4e"/>
      <use x="389.03125" xlink:href="#ArialMT-65"/>
      <use x="444.646484" xlink:href="#ArialMT-74"/>
     </g>
    </g>
    <g id="text_49">
     <!-- Input to model -->
     <g transform="translate(111.2015 372.805688)scale(0.132 -0.132)">
      <defs>
       <path d="M 597 0 
L 597 4581 
L 1203 4581 
L 1203 0 
L 597 0 
z
" id="ArialMT-49" transform="scale(0.015625)"/>
       <path d="M 422 -1272 
L 422 3319 
L 934 3319 
L 934 2888 
Q 1116 3141 1344 3267 
Q 1572 3394 1897 3394 
Q 2322 3394 2647 3175 
Q 2972 2956 3137 2557 
Q 3303 2159 3303 1684 
Q 3303 1175 3120 767 
Q 2938 359 2589 142 
Q 2241 -75 1856 -75 
Q 1575 -75 1351 44 
Q 1128 163 984 344 
L 984 -1272 
L 422 -1272 
z
M 931 1641 
Q 931 1000 1190 694 
Q 1450 388 1819 388 
Q 2194 388 2461 705 
Q 2728 1022 2728 1688 
Q 2728 2322 2467 2637 
Q 2206 2953 1844 2953 
Q 1484 2953 1207 2617 
Q 931 2281 931 1641 
z
" id="ArialMT-70" transform="scale(0.015625)"/>
       <path d="M 422 0 
L 422 3319 
L 925 3319 
L 925 2853 
Q 1081 3097 1340 3245 
Q 1600 3394 1931 3394 
Q 2300 3394 2536 3241 
Q 2772 3088 2869 2813 
Q 3263 3394 3894 3394 
Q 4388 3394 4653 3120 
Q 4919 2847 4919 2278 
L 4919 0 
L 4359 0 
L 4359 2091 
Q 4359 2428 4304 2576 
Q 4250 2725 4106 2815 
Q 3963 2906 3769 2906 
Q 3419 2906 3187 2673 
Q 2956 2441 2956 1928 
L 2956 0 
L 2394 0 
L 2394 2156 
Q 2394 2531 2256 2718 
Q 2119 2906 1806 2906 
Q 1569 2906 1367 2781 
Q 1166 2656 1075 2415 
Q 984 2175 984 1722 
L 984 0 
L 422 0 
z
" id="ArialMT-6d" transform="scale(0.015625)"/>
      </defs>
      <use xlink:href="#ArialMT-49"/>
      <use x="27.783203" xlink:href="#ArialMT-6e"/>
      <use x="83.398438" xlink:href="#ArialMT-70"/>
      <use x="139.013672" xlink:href="#ArialMT-75"/>
      <use x="194.628906" xlink:href="#ArialMT-74"/>
      <use x="222.412109" xlink:href="#ArialMT-20"/>
      <use x="250.195312" xlink:href="#ArialMT-74"/>
      <use x="277.978516" xlink:href="#ArialMT-6f"/>
      <use x="333.59375" xlink:href="#ArialMT-20"/>
      <use x="361.376953" xlink:href="#ArialMT-6d"/>
      <use x="444.677734" xlink:href="#ArialMT-6f"/>
      <use x="500.292969" xlink:href="#ArialMT-64"/>
      <use x="555.908203" xlink:href="#ArialMT-65"/>
      <use x="611.523438" xlink:href="#ArialMT-6c"/>
     </g>
    </g>
    <g id="line2d_56">
     <path d="M 74.2415 386.8575 
L 100.6415 386.8575 
" style="fill:none;stroke:#333333;stroke-dasharray:12,4.5;stroke-dashoffset:0;stroke-width:3;"/>
    </g>
    <g id="line2d_57"/>
    <g id="text_50">
     <!-- segmented audio, manually cleaned -->
     <g transform="translate(111.2015 391.4775)scale(0.132 -0.132)">
      <defs>
       <path d="M 569 0 
L 569 641 
L 1209 641 
L 1209 0 
Q 1209 -353 1084 -570 
Q 959 -788 688 -906 
L 531 -666 
Q 709 -588 793 -436 
Q 878 -284 888 0 
L 569 0 
z
" id="ArialMT-2c" transform="scale(0.015625)"/>
      </defs>
      <use xlink:href="#ArialMT-73"/>
      <use x="50" xlink:href="#ArialMT-65"/>
      <use x="105.615234" xlink:href="#ArialMT-67"/>
      <use x="161.230469" xlink:href="#ArialMT-6d"/>
      <use x="244.53125" xlink:href="#ArialMT-65"/>
      <use x="300.146484" xlink:href="#ArialMT-6e"/>
      <use x="355.761719" xlink:href="#ArialMT-74"/>
      <use x="383.544922" xlink:href="#ArialMT-65"/>
      <use x="439.160156" xlink:href="#ArialMT-64"/>
      <use x="494.775391" xlink:href="#ArialMT-20"/>
      <use x="522.558594" xlink:href="#ArialMT-61"/>
      <use x="578.173828" xlink:href="#ArialMT-75"/>
      <use x="633.789062" xlink:href="#ArialMT-64"/>
      <use x="689.404297" xlink:href="#ArialMT-69"/>
      <use x="711.621094" xlink:href="#ArialMT-6f"/>
      <use x="767.236328" xlink:href="#ArialMT-2c"/>
      <use x="795.019531" xlink:href="#ArialMT-20"/>
      <use x="822.802734" xlink:href="#ArialMT-6d"/>
      <use x="906.103516" xlink:href="#ArialMT-61"/>
      <use x="961.71875" xlink:href="#ArialMT-6e"/>
      <use x="1017.333984" xlink:href="#ArialMT-75"/>
      <use x="1072.949219" xlink:href="#ArialMT-61"/>
      <use x="1128.564453" xlink:href="#ArialMT-6c"/>
      <use x="1150.78125" xlink:href="#ArialMT-6c"/>
      <use x="1172.998047" xlink:href="#ArialMT-79"/>
      <use x="1222.998047" xlink:href="#ArialMT-20"/>
      <use x="1250.78125" xlink:href="#ArialMT-63"/>
      <use x="1300.78125" xlink:href="#ArialMT-6c"/>
      <use x="1322.998047" xlink:href="#ArialMT-65"/>
      <use x="1378.613281" xlink:href="#ArialMT-61"/>
      <use x="1434.228516" xlink:href="#ArialMT-6e"/>
      <use x="1489.84375" xlink:href="#ArialMT-65"/>
      <use x="1545.458984" xlink:href="#ArialMT-64"/>
     </g>
    </g>
    <g id="line2d_58">
     <path d="M 74.2415 405.684 
L 100.6415 405.684 
" style="fill:none;stroke:#333333;stroke-dasharray:3,3;stroke-dashoffset:0;stroke-width:3;"/>
    </g>
    <g id="line2d_59"/>
    <g id="text_51">
     <!-- segmented audio, not cleaned -->
     <g transform="translate(111.2015 410.304)scale(0.132 -0.132)">
      <use xlink:href="#ArialMT-73"/>
      <use x="50" xlink:href="#ArialMT-65"/>
      <use x="105.615234" xlink:href="#ArialMT-67"/>
      <use x="161.230469" xlink:href="#ArialMT-6d"/>
      <use x="244.53125" xlink:href="#ArialMT-65"/>
      <use x="300.146484" xlink:href="#ArialMT-6e"/>
      <use x="355.761719" xlink:href="#ArialMT-74"/>
      <use x="383.544922" xlink:href="#ArialMT-65"/>
      <use x="439.160156" xlink:href="#ArialMT-64"/>
      <use x="494.775391" xlink:href="#ArialMT-20"/>
      <use x="522.558594" xlink:href="#ArialMT-61"/>
      <use x="578.173828" xlink:href="#ArialMT-75"/>
      <use x="633.789062" xlink:href="#ArialMT-64"/>
      <use x="689.404297" xlink:href="#ArialMT-69"/>
      <use x="711.621094" xlink:href="#ArialMT-6f"/>
      <use x="767.236328" xlink:href="#ArialMT-2c"/>
      <use x="795.019531" xlink:href="#ArialMT-20"/>
      <use x="822.802734" xlink:href="#ArialMT-6e"/>
      <use x="878.417969" xlink:href="#ArialMT-6f"/>
      <use x="934.033203" xlink:href="#ArialMT-74"/>
      <use x="961.816406" xlink:href="#ArialMT-20"/>
      <use x="989.599609" xlink:href="#ArialMT-63"/>
      <use x="1039.599609" xlink:href="#ArialMT-6c"/>
      <use x="1061.816406" xlink:href="#ArialMT-65"/>
      <use x="1117.431641" xlink:href="#ArialMT-61"/>
      <use x="1173.046875" xlink:href="#ArialMT-6e"/>
      <use x="1228.662109" xlink:href="#ArialMT-65"/>
      <use x="1284.277344" xlink:href="#ArialMT-64"/>
     </g>
    </g>
    <g id="line2d_60">
     <path d="M 74.2415 424.5105 
L 100.6415 424.5105 
" style="fill:none;stroke:#333333;stroke-dasharray:9,3.75,4.5,3.75;stroke-dashoffset:0;stroke-width:3;"/>
    </g>
    <g id="line2d_61"/>
    <g id="text_52">
     <!-- segmented audio, semi-automated cleaning -->
     <g transform="translate(111.2015 429.1305)scale(0.132 -0.132)">
      <defs>
       <path d="M 203 1375 
L 203 1941 
L 1931 1941 
L 1931 1375 
L 203 1375 
z
" id="ArialMT-2d" transform="scale(0.015625)"/>
      </defs>
      <use xlink:href="#ArialMT-73"/>
      <use x="50" xlink:href="#ArialMT-65"/>
      <use x="105.615234" xlink:href="#ArialMT-67"/>
      <use x="161.230469" xlink:href="#ArialMT-6d"/>
      <use x="244.53125" xlink:href="#ArialMT-65"/>
      <use x="300.146484" xlink:href="#ArialMT-6e"/>
      <use x="355.761719" xlink:href="#ArialMT-74"/>
      <use x="383.544922" xlink:href="#ArialMT-65"/>
      <use x="439.160156" xlink:href="#ArialMT-64"/>
      <use x="494.775391" xlink:href="#ArialMT-20"/>
      <use x="522.558594" xlink:href="#ArialMT-61"/>
      <use x="578.173828" xlink:href="#ArialMT-75"/>
      <use x="633.789062" xlink:href="#ArialMT-64"/>
      <use x="689.404297" xlink:href="#ArialMT-69"/>
      <use x="711.621094" xlink:href="#ArialMT-6f"/>
      <use x="767.236328" xlink:href="#ArialMT-2c"/>
      <use x="795.019531" xlink:href="#ArialMT-20"/>
      <use x="822.802734" xlink:href="#ArialMT-73"/>
      <use x="872.802734" xlink:href="#ArialMT-65"/>
      <use x="928.417969" xlink:href="#ArialMT-6d"/>
      <use x="1011.71875" xlink:href="#ArialMT-69"/>
      <use x="1033.935547" xlink:href="#ArialMT-2d"/>
      <use x="1067.236328" xlink:href="#ArialMT-61"/>
      <use x="1122.851562" xlink:href="#ArialMT-75"/>
      <use x="1178.466797" xlink:href="#ArialMT-74"/>
      <use x="1206.25" xlink:href="#ArialMT-6f"/>
      <use x="1261.865234" xlink:href="#ArialMT-6d"/>
      <use x="1345.166016" xlink:href="#ArialMT-61"/>
      <use x="1400.78125" xlink:href="#ArialMT-74"/>
      <use x="1428.564453" xlink:href="#ArialMT-65"/>
      <use x="1484.179688" xlink:href="#ArialMT-64"/>
      <use x="1539.794922" xlink:href="#ArialMT-20"/>
      <use x="1567.578125" xlink:href="#ArialMT-63"/>
      <use x="1617.578125" xlink:href="#ArialMT-6c"/>
      <use x="1639.794922" xlink:href="#ArialMT-65"/>
      <use x="1695.410156" xlink:href="#ArialMT-61"/>
      <use x="1751.025391" xlink:href="#ArialMT-6e"/>
      <use x="1806.640625" xlink:href="#ArialMT-69"/>
      <use x="1828.857422" xlink:href="#ArialMT-6e"/>
      <use x="1884.472656" xlink:href="#ArialMT-67"/>
     </g>
    </g>
    <g id="line2d_62">
     <path d="M 74.2415 443.337 
L 100.6415 443.337 
" style="fill:none;stroke:#333333;stroke-linecap:square;stroke-width:3;"/>
    </g>
    <g id="line2d_63"/>
    <g id="text_53">
     <!-- spectrogram -->
     <g transform="translate(111.2015 447.957)scale(0.132 -0.132)">
      <use xlink:href="#ArialMT-73"/>
      <use x="50" xlink:href="#ArialMT-70"/>
      <use x="105.615234" xlink:href="#ArialMT-65"/>
      <use x="161.230469" xlink:href="#ArialMT-63"/>
      <use x="211.230469" xlink:href="#ArialMT-74"/>
      <use x="239.013672" xlink:href="#ArialMT-72"/>
      <use x="272.314453" xlink:href="#ArialMT-6f"/>
      <use x="327.929688" xlink:href="#ArialMT-67"/>
      <use x="383.544922" xlink:href="#ArialMT-72"/>
      <use x="416.845703" xlink:href="#ArialMT-61"/>
      <use x="472.460938" xlink:href="#ArialMT-6d"/>
     </g>
    </g>
   </g>
  </g>
 </g>
 <defs>
  <clipPath id="p4e2e521c83">
   <rect height="63.952941" width="202.909091" x="62.3615" y="23.50725"/>
  </clipPath>
  <clipPath id="p04e37ae6b6">
   <rect height="63.952941" width="202.909091" x="305.852409" y="23.50725"/>
  </clipPath>
  <clipPath id="pad45e02454">
   <rect height="140.696471" width="202.909091" x="62.3615" y="100.250779"/>
  </clipPath>
  <clipPath id="p9ea342a937">
   <rect height="140.696471" width="202.909091" x="305.852409" y="100.250779"/>
  </clipPath>
 </defs>
</svg>
